<svg width="24" height="24" viewBox="0 0 24 24" fill="none" xmlns="http://www.w3.org/2000/svg">
<path d="M20.5 20H3.5C3.224 20 3 19.776 3 19.5C3 19.224 3.224 19 3.5 19H20.5C20.776 19 21 19.224 21 19.5C21 19.776 20.776 20 20.5 20Z" fill="currentColor"/>
<path d="M18.5 10C18.224 10 18 9.776 18 9.5V3.5C18 2.122 16.879 1 15.5 1H8.5C7.121 1 6 2.122 6 3.5V9.5C6 9.776 5.776 10 5.5 10C5.224 10 5 9.776 5 9.5V3.5C5 1.57 6.57 0 8.5 0H15.5C17.43 0 19 1.57 19 3.5V9.5C19 9.776 18.776 10 18.5 10Z" fill="currentColor"/>
<path d="M16.5 7H7.5C7.224 7 7 6.776 7 6.5C7 6.224 7.224 6 7.5 6H16.5C16.776 6 17 6.224 17 6.5C17 6.776 16.776 7 16.5 7Z" fill="currentColor"/>
<path d="M23.4998 23.9996H0.499764C0.352764 23.9996 0.211764 23.9346 0.116764 23.8206C0.0207645 23.7076 -0.0192355 23.5576 0.00776446 23.4126L3.00776 6.41256C3.05576 6.13956 3.31776 5.95656 3.58676 6.00756C3.85776 6.05556 4.03976 6.31456 3.99176 6.58656L1.09576 22.9996H22.9048L20.0078 6.58656C19.9598 6.31456 20.1418 6.05556 20.4128 6.00756C20.6778 5.95656 20.9428 6.13956 20.9918 6.41256L23.9918 23.4126C24.0178 23.5586 23.9778 23.7076 23.8828 23.8206C23.7878 23.9346 23.6468 23.9996 23.4998 23.9996Z" fill="currentColor"/>
</svg>
