<svg width="30" height="30" viewBox="0 0 30 30" fill="none" xmlns="http://www.w3.org/2000/svg">
<path d="M15 -6.55671e-07C13.0302 -5.69567e-07 11.0796 0.387987 9.25975 1.14181C7.43986 1.89563 5.78628 3.00052 4.3934 4.3934C3.00052 5.78628 1.89563 7.43987 1.14181 9.25975C0.387985 11.0796 -8.27879e-07 13.0302 -6.55671e-07 15C-4.83463e-07 16.9698 0.387986 18.9204 1.14181 20.7403C1.89563 22.5601 3.00052 24.2137 4.3934 25.6066C5.78628 26.9995 7.43987 28.1044 9.25975 28.8582C11.0796 29.612 13.0302 30 15 30L15 15L15 -6.55671e-07Z" stroke="#DCDBDB" stroke-width="2"/>
<path d="M15 30C16.9698 30 18.9204 29.612 20.7403 28.8582C22.5601 28.1044 24.2137 26.9995 25.6066 25.6066C26.9995 24.2137 28.1044 22.5601 28.8582 20.7403C29.612 18.9204 30 16.9698 30 15C30 13.0302 29.612 11.0796 28.8582 9.25975C28.1044 7.43986 26.9995 5.78628 25.6066 4.3934C24.2137 3.00052 22.5601 1.89563 20.7403 1.14181C18.9204 0.387986 16.9698 -7.41775e-07 15 -6.55671e-07L15 15L15 30Z"/>
<path d="M15 30C16.9698 30 18.9204 29.612 20.7403 28.8582C22.5601 28.1044 24.2137 26.9995 25.6066 25.6066C26.9995 24.2137 28.1044 22.5601 28.8582 20.7403C29.612 18.9204 30 16.9698 30 15C30 13.0302 29.612 11.0796 28.8582 9.25975C28.1044 7.43986 26.9995 5.78628 25.6066 4.3934C24.2137 3.00052 22.5601 1.89563 20.7403 1.14181C18.9204 0.387986 16.9698 -7.41775e-07 15 -6.55671e-07L15 15L15 30Z" fill="#FF4081" stroke="#DCDBDB" stroke-width="2"/>
</svg>
