<svg width="35" height="35" viewBox="0 0 35 35" fill="none" xmlns="http://www.w3.org/2000/svg">
<g clip-path="url(#clip0_2304_932)">
<path d="M8.19261 22.1036L3.78125 21.7642L5.81726 17.3044L8.19261 13.7656" stroke="currentColor" stroke-width="0.5"/>
<path d="M8.19248 13.7663L6.83514 12.312L5.81714 11.4395" stroke="currentColor" stroke-width="0.5"/>
<path d="M8.19255 9.30664L6.83521 12.3122" stroke="currentColor" stroke-width="0.5"/>
<path d="M6.83509 12.3125L5.72013 17.3056L1.93896 21.1352L2.81154 15.8513L6.83509 12.3125Z" stroke="currentColor" stroke-width="0.5"/>
<path d="M3.78123 21.7652L1.93913 21.135L0.581787 20.8926" stroke="currentColor" stroke-width="0.5"/>
<path d="M3.78121 21.7656L3.34492 23.7047L3.10254 25.2075" stroke="currentColor" stroke-width="0.5"/>
<path d="M8.19237 25.6927L3.34473 23.7052L8.19237 22.1055" stroke="currentColor" stroke-width="0.5"/>
<path d="M3.34488 23.704L0 24.1403L1.93906 21.1348" stroke="currentColor" stroke-width="0.5"/>
<path d="M8.19238 22.1036L12.6037 21.7642L10.6162 17.3044L8.19238 13.7656" stroke="currentColor" stroke-width="0.5"/>
<path d="M8.19238 13.7663L9.54972 12.312L10.6162 11.4395" stroke="currentColor" stroke-width="0.5"/>
<path d="M8.19238 9.30664L9.54972 12.3122" stroke="currentColor" stroke-width="0.5"/>
<path d="M9.5498 12.3125L10.6648 17.3056L14.4459 21.1352L13.5734 15.8513L9.5498 12.3125Z" stroke="currentColor" stroke-width="0.5"/>
<path d="M12.6038 21.7652L14.4459 21.135L15.8032 20.8926" stroke="currentColor" stroke-width="0.5"/>
<path d="M12.6038 21.7656L13.0885 23.7047L13.2824 25.2075" stroke="currentColor" stroke-width="0.5"/>
<path d="M8.19238 25.6927L13.0885 23.7052L8.19238 22.1055" stroke="currentColor" stroke-width="0.5"/>
<path d="M13.0886 23.704L16.4335 24.1403L14.446 21.1348" stroke="currentColor" stroke-width="0.5"/>
<path d="M8.19252 9.30664L5.81717 11.4396L2.81163 15.851L0.581717 20.8925L0 24.1404L3.10249 25.2069L8.19252 25.6917L13.2825 25.2069L16.4335 24.1404L15.8033 20.8925L13.5734 15.851L10.6163 11.4396L8.19252 9.30664Z" stroke="currentColor" stroke-width="0.5"/>
<path d="M26.8074 22.1036L22.396 21.7642L24.3835 17.3044L26.8074 13.7656" stroke="currentColor" stroke-width="0.5"/>
<path d="M26.8076 13.7663L25.4503 12.312L24.3838 11.4395" stroke="currentColor" stroke-width="0.5"/>
<path d="M26.8075 9.30664L25.4502 12.3122" stroke="currentColor" stroke-width="0.5"/>
<path d="M25.4502 12.3125L24.3353 17.3056L20.5056 21.1352L21.4267 15.8513L25.4502 12.3125Z" stroke="currentColor" stroke-width="0.5"/>
<path d="M22.3962 21.7652L20.5056 21.135L19.1968 20.8926" stroke="currentColor" stroke-width="0.5"/>
<path d="M22.3962 21.7656L21.9114 23.7047L21.7175 25.2075" stroke="currentColor" stroke-width="0.5"/>
<path d="M26.8075 25.6927L21.9114 23.7052L26.8075 22.1055" stroke="currentColor" stroke-width="0.5"/>
<path d="M21.9113 23.704L18.5664 24.1403L20.5055 21.1348" stroke="currentColor" stroke-width="0.5"/>
<path d="M26.8076 22.1036L31.219 21.7642L29.183 17.3044L26.8076 13.7656" stroke="currentColor" stroke-width="0.5"/>
<path d="M26.8076 13.7663L28.165 12.312L29.183 11.4395" stroke="currentColor" stroke-width="0.5"/>
<path d="M26.8076 9.30664L28.165 12.3122" stroke="currentColor" stroke-width="0.5"/>
<path d="M28.1648 12.3125L29.2798 17.3056L33.0609 21.1352L32.1883 15.8513L28.1648 12.3125Z" stroke="currentColor" stroke-width="0.5"/>
<path d="M31.219 21.7652L33.0611 21.135L34.4184 20.8926" stroke="currentColor" stroke-width="0.5"/>
<path d="M31.219 21.7656L31.6553 23.7047L31.8977 25.2075" stroke="currentColor" stroke-width="0.5"/>
<path d="M26.8076 25.6927L31.6553 23.7052L26.8076 22.1055" stroke="currentColor" stroke-width="0.5"/>
<path d="M31.655 23.704L34.9999 24.1403L33.0608 21.1348" stroke="currentColor" stroke-width="0.5"/>
<path d="M26.8074 9.30664L24.3836 11.4396L21.4265 15.851L19.1966 20.8925L18.5664 24.1404L21.7174 25.2069L26.8074 25.6917L31.8974 25.2069L34.9999 24.1404L34.4182 20.8925L32.1883 15.851L29.1827 11.4396L26.8074 9.30664Z" stroke="currentColor" stroke-width="0.5"/>
</g>
<defs>
<clipPath id="clip0_2304_932">
<rect width="35" height="35" fill="white"/>
</clipPath>
</defs>
</svg>
