<svg width="35" height="35" viewBox="0 0 35 35" fill="none" xmlns="http://www.w3.org/2000/svg">
<g clip-path="url(#clip0_400_41)">
<path d="M6.47668 0.699685L4.32642 1.36031L2.75907 2.84994C1.77461 3.76963 1.12694 4.48207 1.06218 4.72818C0.984456 4.93543 0.725389 6.17896 0.466321 7.46134L0 9.81885L0.259067 12.28C0.492228 14.5857 0.556995 14.9095 1.30829 17.3189C2.03368 19.6246 2.24093 20.1168 3.40674 22.28C4.54663 24.4043 4.89637 24.9354 6.42487 26.7748C7.92746 28.5883 8.43264 29.0805 10.2591 30.5831C12.1503 32.1375 12.6425 32.4484 14.8834 33.6531C16.2694 34.3914 17.4741 34.9743 17.5518 34.9484C17.6295 34.9225 18.7824 34.3396 20.0907 33.6531C22.2539 32.5132 22.7073 32.2023 24.6891 30.5961C26.6451 29.0028 27.0855 28.5624 28.601 26.723C30.1036 24.8966 30.4793 24.3396 31.6192 22.2411C32.7979 20.065 32.9793 19.6116 33.7047 17.28C34.4301 14.8966 34.5078 14.5209 34.7409 12.2541L35 9.81885L34.4689 7.21523C34.1839 5.79036 33.8731 4.49502 33.7694 4.33958C33.6658 4.18414 32.9275 3.4458 32.1373 2.70746L30.6995 1.36031L28.4715 0.673775L26.2435 0.000201525L24.1062 0.259268C22.4093 0.466522 21.5026 0.660823 19.7409 1.19191L17.513 1.85253L15.272 1.19191C13.5492 0.673776 12.5518 0.453568 10.9585 0.259268C9.81865 0.116781 8.8342 0.000201327 8.75648 0.0131547C8.69171 0.0261081 7.65544 0.324037 6.47668 0.699685ZM12.9404 2.72041C14.9482 3.666 16.5544 4.49502 16.5026 4.54683C16.4378 4.6116 15.557 5.12973 14.5207 5.71264L12.6425 6.77481L10.5052 6.61937C7.15026 6.37326 6.7487 6.32145 6.7487 6.166C6.7487 6.01056 8.78238 1.38621 8.98964 1.06238C9.0544 0.971703 9.13212 0.919891 9.18394 0.945798C9.23575 0.971704 10.9197 1.76186 12.9404 2.72041ZM26.0104 1.06238C26.1788 1.29554 28.2513 6.01056 28.2513 6.17896C28.2513 6.32145 27.7461 6.38621 24.4948 6.60642L22.3575 6.76186L20.5052 5.72559C19.4819 5.15564 18.5881 4.63751 18.5233 4.57274C18.4456 4.49502 19.7927 3.78259 22.0596 2.6945C24.0803 1.723 25.7642 0.919891 25.8031 0.919891C25.8549 0.906938 25.9456 0.984656 26.0104 1.06238ZM8.04404 1.15305C8.04404 1.25668 6.25648 5.42766 6.1658 5.54424C6.15285 5.5572 5.85492 4.79295 5.51813 3.82145C5.18135 2.8629 4.93523 2.02093 4.98705 1.98207C5.07772 1.87844 7.60363 1.07533 7.8886 1.04942C7.96632 1.03647 8.04404 1.08828 8.04404 1.15305ZM28.5363 1.46393C29.3005 1.69709 29.9611 1.93025 30.013 1.98207C30.0648 2.02093 29.8187 2.84994 29.4819 3.82145L28.8601 5.5831L28.614 5.02611C27.8627 3.39398 26.956 1.25668 26.956 1.15305C26.956 0.984658 26.9948 0.997612 28.5363 1.46393ZM5.01295 4.57274C5.20725 5.18155 5.33679 5.73854 5.28497 5.7774C5.18135 5.88103 2.37047 4.8059 2.25389 4.62455C2.21503 4.55979 2.64249 4.04165 3.19948 3.48466L4.2228 2.46134L4.43005 2.95357C4.54663 3.22559 4.8057 3.95098 5.01295 4.57274ZM32.7202 4.65046C32.5518 4.8059 29.987 5.82922 29.7409 5.82922C29.5984 5.82922 29.6762 5.49243 30.0648 4.36549C30.3368 3.57533 30.6088 2.81108 30.6606 2.68155C30.7383 2.4743 30.9067 2.59088 31.8005 3.48466C32.4611 4.14528 32.7979 4.57274 32.7202 4.65046ZM19.1321 5.79036C20.5959 6.61937 20.6477 6.67119 20.285 6.74891C19.7798 6.86549 15.2202 6.86549 14.715 6.74891C14.3394 6.67119 14.4041 6.61937 15.8161 5.80331C16.6321 5.33699 17.3705 4.93543 17.4482 4.93543C17.5259 4.92248 18.2902 5.31108 19.1321 5.79036ZM3.57513 6.01056C4.35233 6.32144 5 6.63233 5.02591 6.68414C5.05181 6.80072 1.03627 9.09347 0.958549 9.01575C0.919689 8.97689 1.5285 5.79036 1.64508 5.46652C1.70984 5.25927 1.73575 5.27222 3.57513 6.01056ZM33.7176 7.18932C33.9119 8.17378 34.0674 9.00279 34.0415 9.01575C33.9637 9.09347 29.9482 6.78777 29.9741 6.68414C30.013 6.55461 33.057 5.31108 33.2383 5.3629C33.3031 5.37585 33.5233 6.20486 33.7176 7.18932ZM9.57254 7.28C10.7254 7.35772 11.671 7.46134 11.671 7.51316C11.671 7.55202 10.8679 8.38103 9.88342 9.36549L8.0829 11.1531L7.42228 9.28777C7.04663 8.2515 6.7487 7.34476 6.7487 7.26704C6.7487 7.08569 7.00777 7.08569 9.57254 7.28ZM28.2513 7.24113C28.2513 7.3059 27.9534 8.22559 27.5907 9.26186L26.9171 11.166L25.1295 9.37844C24.1321 8.39398 23.329 7.53906 23.329 7.5002C23.329 7.40953 26.0233 7.17637 27.4482 7.15046C27.8886 7.13751 28.2513 7.17637 28.2513 7.24113ZM6.73575 9.54683L7.53886 11.8396L6.86528 13.3033C6.48964 14.1064 6.12694 14.767 6.04922 14.767C5.86788 14.767 1.17876 10.0779 1.17876 9.90953C1.17876 9.77999 5.53109 7.28 5.79016 7.26704C5.86788 7.25409 6.28238 8.29036 6.73575 9.54683ZM31.5544 8.51056C32.7979 9.21005 33.8212 9.84476 33.8212 9.92248C33.8212 10.0909 29.1192 14.767 28.9378 14.767C28.8731 14.767 28.5104 14.1064 28.1347 13.3033L27.4611 11.8396L28.2642 9.54683C28.7047 8.29036 29.1062 7.25409 29.171 7.25409C29.2358 7.25409 30.3109 7.82404 31.5544 8.51056ZM24.3912 9.67637C25.5829 10.8681 26.5674 11.8914 26.5674 11.9562C26.5674 12.0209 25.8549 13.7696 25 15.8551L23.4197 19.6246L20.557 22.5002C18.9896 24.0935 17.6036 25.3888 17.5 25.3888C17.3964 25.3888 16.0104 24.0935 14.443 22.5002L11.5803 19.6246L10 15.8681C9.14508 13.7955 8.43264 12.0468 8.43264 11.9691C8.43264 11.9043 9.4171 10.8681 10.6088 9.67637L12.785 7.51316H17.5H22.215L24.3912 9.67637ZM4.83161 14.8707C4.71503 14.9095 1.32124 14.3137 1.25648 14.236C1.17876 14.1712 0.919689 11.7878 0.919689 11.2437C0.919689 10.8292 0.984456 10.881 2.92746 12.824C4.0285 13.9251 4.89637 14.8448 4.83161 14.8707ZM33.9508 12.7463C33.8731 13.5365 33.7824 14.1971 33.7565 14.223C33.7047 14.2748 30.3756 14.8966 30.1295 14.8966C30.0648 14.8966 30.9067 13.9898 32.0078 12.8888C33.4197 11.4639 34.0285 10.9328 34.0674 11.0883C34.0803 11.2178 34.0414 11.9562 33.9508 12.7463ZM8.95078 15.2204C9.98705 17.6686 10.2591 18.394 10.1684 18.394C10.0777 18.394 6.7487 15.5183 6.7487 15.4277C6.73575 15.2075 7.86269 12.8499 7.94041 12.9277C7.99223 12.9795 8.4456 14.0028 8.95078 15.2204ZM27.7202 14.1194C28.0052 14.767 28.2513 15.337 28.2513 15.4018C28.2513 15.5054 24.9611 18.394 24.8316 18.394C24.7409 18.394 24.987 17.7593 26.114 15.052C26.5933 13.8992 27.0337 12.9536 27.0855 12.9536C27.1373 12.9536 27.4223 13.4847 27.7202 14.1194ZM5.22021 15.7774C5.40155 15.8551 5.1943 16.1271 4.11917 17.2929C3.40674 18.0701 2.74611 18.7308 2.66839 18.7567C2.51295 18.7955 1.39896 15.337 1.50259 15.1556C1.5544 15.065 4.83161 15.5961 5.22021 15.7774ZM33.0181 17.0209C32.7073 18.0054 32.4223 18.8085 32.3834 18.8214C32.2798 18.8603 29.5596 15.881 29.6244 15.8033C29.7409 15.6867 33.3679 15.065 33.4715 15.1556C33.5233 15.2075 33.3161 16.0365 33.0181 17.0209ZM8.98964 18.394L11.0233 20.1427L11.956 22.9536C12.4741 24.495 12.8627 25.7904 12.8368 25.8292C12.772 25.894 5.5829 24.2748 5.49223 24.1712C5.44041 24.1194 6.23057 17.9795 6.45078 16.7489C6.5285 16.2308 6.34715 16.1142 8.98964 18.394ZM29.0415 20.2593C29.3394 22.3707 29.5466 24.1323 29.5207 24.1712C29.4171 24.2748 22.228 25.894 22.1632 25.8292C22.1373 25.7904 22.5259 24.495 23.044 22.9536L23.9896 20.1427L26.2047 18.2256C27.4223 17.1764 28.4456 16.3344 28.4715 16.3603C28.4974 16.3862 28.7565 18.1479 29.0415 20.2593ZM5.25907 19.9743C4.84456 23.1349 4.84456 23.1479 4.62435 22.9147C4.53368 22.8111 4.09326 22.0598 3.6658 21.2437L2.87565 19.7541L4.19689 18.2904C5.36269 16.995 5.51813 16.8655 5.55699 17.1505C5.5829 17.3189 5.45337 18.5883 5.25907 19.9743ZM30.9585 18.4588L32.1244 19.7411L31.3342 21.2437C30.3886 23.0313 30.2332 23.2256 30.1425 22.7852C30.013 22.2152 29.4171 17.6038 29.4171 17.1893C29.4171 16.723 29.2617 16.5935 30.9585 18.4588ZM21.9689 23.8344L21.2306 26.0624L20.6218 25.9847C20.2979 25.9458 19.6891 25.881 19.2876 25.8422C18.8731 25.7904 18.5363 25.7256 18.5363 25.6738C18.5363 25.5442 22.5907 21.5028 22.6554 21.5676C22.6813 21.5935 22.3705 22.6168 21.9689 23.8344ZM14.4819 23.6012C15.5699 24.6893 16.4637 25.622 16.4637 25.6738C16.4637 25.7126 16.1269 25.7904 15.7254 25.8422C15.3109 25.881 14.7021 25.9458 14.3782 25.9847L13.7694 26.0624L13.0959 24.0028C12.7202 22.8758 12.3834 21.8784 12.3446 21.7878C12.2021 21.3862 12.6425 21.7619 14.4819 23.6012ZM9.31347 25.8422C11.5544 26.3474 12.0337 26.5028 11.9041 26.6323C11.7358 26.8007 8.80829 28.109 8.60104 28.109C8.49741 28.109 6.42487 25.6997 6.17876 25.2852C6.08808 25.1297 6.12694 25.1038 6.30829 25.1556C6.45078 25.1945 7.79793 25.4924 9.31347 25.8422ZM28.8083 25.2981C28.5622 25.7126 26.5026 28.109 26.399 28.109C26.1788 28.109 22.9404 26.6582 22.9404 26.5546C22.9404 26.4769 28.2772 25.1815 28.7435 25.1427C28.8471 25.1297 28.8731 25.1945 28.8083 25.2981ZM17.0855 29.5727C17.0984 31.2567 17.0725 32.6427 17.0207 32.6297C16.8523 32.6168 14.1062 26.9173 14.2228 26.8007C14.3264 26.71 16.6451 26.438 16.9171 26.4898C16.9948 26.5028 17.0596 27.6686 17.0855 29.5727ZM19.5984 26.6194C20.2332 26.6712 20.7642 26.7619 20.8031 26.8137C20.8938 26.9562 18.0699 32.6427 17.9663 32.5391C17.8627 32.4354 17.8756 26.6194 17.9793 26.5157C18.0311 26.4639 18.1606 26.451 18.2642 26.4769C18.3808 26.5028 18.9767 26.5676 19.5984 26.6194ZM12.7073 29.1712C12.5518 30.1945 12.3834 31.0753 12.3316 31.1271C12.2021 31.2567 9.31347 28.9121 9.36528 28.7308C9.43005 28.5365 12.8886 27.0598 12.9404 27.2023C12.9663 27.267 12.8627 28.1608 12.7073 29.1712ZM24.0414 27.9277C24.8964 28.3033 25.6088 28.666 25.6347 28.7308C25.6736 28.8603 22.8756 31.2178 22.6943 31.2178C22.6036 31.2178 22.0337 27.8111 22.0337 27.3059C22.0337 27.0468 21.943 27.008 24.0414 27.9277ZM21.8005 31.2049L21.8394 31.8914L20.1554 32.7852C19.2358 33.2644 18.4585 33.6531 18.4456 33.6271C18.4197 33.6012 19.0544 32.2541 19.8575 30.622L21.3083 27.6556L21.5414 29.0805C21.671 29.8577 21.7876 30.8163 21.8005 31.2049ZM15.1684 30.6479C15.9197 32.1893 16.5544 33.4976 16.5803 33.5753C16.6062 33.6531 15.842 33.3033 14.8964 32.8111L13.1606 31.8914L13.1736 31.3862C13.1865 30.6738 13.6269 27.8499 13.7306 27.8629C13.7694 27.8629 14.4171 29.1194 15.1684 30.6479Z" fill="currentColor"/>
</g>
<defs>
<clipPath id="clip0_400_41">
<rect width="35" height="35" fill="white"/>
</clipPath>
</defs>
</svg>
