<svg width="35" height="35" viewBox="0 0 35 35" fill="none" xmlns="http://www.w3.org/2000/svg">
<path d="M26.342 3.56624L26.5787 3.09403L30.4229 6.99826L29.9638 7.24498L26.342 3.56624ZM30.65 7.67091V27.5563L30.15 27.2725V7.93958L30.65 7.67091ZM28.9563 7.2194L29.3213 7.5902L28.192 8.19705L27.8233 7.82833L28.9563 7.2194ZM27.1794 8.17439L27.5481 8.54307L27.0895 8.7895L27.0474 8.74743L26.7207 8.42094L27.1794 8.17439ZM27.15 9.55165L27.65 9.28297V25.8532L27.15 25.5693V9.55165ZM26.0767 8.76704L26.4455 9.13555L25.2436 9.78139L24.8841 9.40803L24.9227 9.38729L26.0767 8.76704ZM23.5841 9.06706L24.6032 10.1255L24.5998 10.1273L23.5729 9.08937L23.5841 9.06706ZM24.2845 8.78528L23.9168 8.40339L24.5163 7.20764L24.8889 7.57992L24.2926 8.76913L24.2845 8.78528ZM25.2194 6.92062L24.8469 6.54834L25.0828 6.07778L25.4552 6.45022L25.2194 6.92062ZM24.4139 5.85L24.1633 6.35H10.8395L10.5862 5.85H24.4139ZM25.7858 5.79086L25.4134 5.4184L26.0105 4.22734L26.381 4.60368L25.7858 5.79086ZM25.918 2.85L25.6673 3.35H9.31988L9.06662 2.85H25.918ZM8.40525 3.09343L8.64379 3.56437L8.27415 3.94131L8.27372 3.94045L7.93206 4.28899L5.69706 6.56899L5.597 6.67106V6.67128L5.01684 7.26289L4.56768 7.00652L8.40525 3.09343ZM8.60805 4.60058L8.97772 4.22362L9.58415 5.42087L9.21199 5.79303L8.60805 4.60058ZM5.64542 7.62167L6.00718 7.25278L7.11837 7.88666L6.75251 8.25251L6.75184 8.25319L5.64542 7.62167ZM7.38207 8.61291L7.74872 8.24625L8.19862 8.5029L7.95251 8.74901L7.85 8.85153V8.87999L7.38207 8.61291ZM8.71178 7.98975L8.26188 7.7331L9.02395 6.97102L9.26149 7.44003L8.71178 7.98975ZM8.55 9.14148L8.82898 8.86249L9.99668 9.52862L9.74639 9.79179L9.65 9.89314V9.90739L8.55 9.27953V9.14148ZM11.0851 8.38417L10.7192 8.76893L10.1152 7.5763L10.4874 7.20408L11.0851 8.38417ZM10.1546 6.54697L9.78235 6.91917L9.54481 6.45016L9.917 6.07798L10.1546 6.54697ZM12.1058 8.85H22.9099L22.8346 9.00014L22.7221 9.22463L22.8461 9.35H12.359L12.3027 9.23885L12.1058 8.85ZM10.35 10.1729L11.4208 9.04693L11.5644 9.33037L10.5099 10.3982L10.35 10.3069V10.1729ZM10.819 11.0814L10.85 11.0501V23.3738L10.6201 23.5191L10.35 23.6897V11.1129L10.3965 11.1395L10.6301 11.2728L10.819 11.0814ZM10.85 24.4755V24.5506L10.9396 24.6504L11.1177 24.8486L11.5834 25.4979L11.3859 25.8956L10.7168 25.1501L10.5823 24.963L10.561 24.9765L10.35 24.7415V24.5177L10.7149 24.2872L10.85 24.4755ZM7.35 9.4006L7.85 9.68599V25.2692L7.35 25.5851V9.4006ZM8.55 25.6549L9.65 24.96V25.0095L9.73952 25.1093L9.96067 25.3557L8.84346 26.0613L8.55 25.7561V25.6549ZM7.45409 26.3473L7.88542 26.0748L7.94768 26.1396L8.2393 26.4429L7.80799 26.7153L7.45409 26.3473ZM8.30328 27.2304L8.73452 26.9581L9.25131 27.4957L9.01529 27.9709L8.30328 27.2304ZM9.53066 28.5069L9.76665 28.0318L10.1349 28.4148L9.89894 28.8899L9.53066 28.5069ZM10.4656 27.7488L10.0974 27.3658L10.6914 26.1698L11.0508 26.5703L10.4656 27.7488ZM10.5514 29.15L10.7996 28.65H24.1165L24.3749 29.15H10.5514ZM25.0579 28.9471L24.8172 28.4812L25.1885 28.11L25.4293 28.5758L25.0579 28.9471ZM24.8511 27.4575L24.4799 27.8286L23.8672 26.6428L24.2258 26.2481L24.2871 26.3668L24.8511 27.4575ZM25.9487 28.0563L25.7079 27.5906L26.1256 27.1729L26.5762 27.4288L25.9487 28.0563ZM27.0896 26.9154L26.639 26.6595L27.006 26.2925L27.4567 26.5484L27.0896 26.9154ZM24.65 10.895V24.1501L24.4729 24.0495L24.2846 24.2549L24.15 24.4016V10.668L24.2862 10.8057L24.4702 10.9917L24.65 10.895ZM22.7244 25.9561L22.8246 26.15H12.0411L12.2894 25.65H22.993H23.0051L22.8896 25.7759L22.7244 25.9561ZM24.8008 25.6152L25.1452 25.2361L26.3745 25.934L26.0077 26.3008L24.9539 25.7022L24.8008 25.6152ZM27.7209 27.2741L28.0881 26.9069L29.3074 27.599L28.933 27.9626L27.7209 27.2741ZM29.5669 28.3228L29.9415 27.959L30.3941 28.216L26.5894 31.9107L26.3499 31.4471L26.7254 31.0825L26.7319 31.0951L27.07 30.7689L29.254 28.6614L29.5908 28.3364L29.5669 28.3228ZM25.6668 31.65L25.9252 32.15H9.06158L9.30988 31.65H25.6668ZM8.63069 31.4439L8.39726 31.9139L4.56189 28.1745L4.9962 27.9001L5.36416 28.2589L5.36396 28.259L5.68174 28.5687L5.89318 28.7747L8.63069 31.4439ZM4.85 27.1645L4.35 27.4804V7.68827L4.85 7.97366V27.1645ZM5.97268 27.8745L5.60465 27.5157L6.84998 26.729L7.20382 27.0969L5.97268 27.8745ZM8.9578 30.7851L8.58145 30.4182L9.19992 29.1729L9.56822 29.5559L8.9578 30.7851ZM26.3895 30.4329L26.0141 30.7974L25.3952 29.5997L25.7667 29.2283L26.3895 30.4329ZM25.7411 7.44196L25.9768 6.97178L26.6625 7.65751L26.2036 7.90417L25.7411 7.44196Z" fill="currentColor" stroke="currentColor" stroke-width="0.7"/>
</svg>
