<svg width="35" height="35" viewBox="0 0 35 35" fill="none" xmlns="http://www.w3.org/2000/svg">
<g clip-path="url(#clip0_400_39)">
<path d="M3.53889 3.53889L0 7.06482V17.5V27.9352L3.53889 31.4611L7.06481 35H17.5H27.9352L31.4611 31.4611L35 27.9352V17.5V7.06482L31.4611 3.53889L27.9352 1.24797e-06H17.5H7.06481L3.53889 3.53889ZM26.963 0.907409C26.963 0.985186 26.7556 1.36111 26.5093 1.75L26.0556 2.46296H17.5H8.94444L8.49074 1.75C8.24444 1.36111 8.03704 0.985186 8.03704 0.907409C8.03704 0.816668 10.9926 0.777779 17.5 0.777779C24.0074 0.777779 26.963 0.816668 26.963 0.907409ZM7.76481 1.98333L8.20556 2.74815L5.48333 5.47037L2.74815 8.20556L2.00926 7.77778C1.60741 7.54445 1.24444 7.27222 1.20556 7.16852C1.11481 6.92222 6.84444 1.14074 7.12963 1.19259C7.23333 1.21852 7.51852 1.56852 7.76481 1.98333ZM30.9685 4.07037C32.913 6.01482 33.8463 7.03889 33.7944 7.16852C33.7556 7.27222 33.3926 7.54445 32.9907 7.77778L32.2519 8.20556L29.5296 5.48333C26.9111 2.86482 26.8074 2.74815 26.963 2.45C27.3648 1.69815 27.7537 1.16667 27.9093 1.16667C28 1.16667 29.3741 2.47593 30.9685 4.07037ZM25.537 3.31852C25.537 3.35741 25.4074 3.61667 25.2519 3.88889L24.9537 4.40741H17.5H10.0463L9.76111 3.88889C9.59259 3.61667 9.46296 3.35741 9.46296 3.31852C9.46296 3.26667 13.0796 3.24074 17.5 3.24074C21.9204 3.24074 25.537 3.26667 25.537 3.31852ZM9.06111 4.18704L9.39815 4.78333L7.1037 7.07778C4.84815 9.3463 4.80926 9.37222 4.4463 9.21667C4.25185 9.13889 3.94074 8.95741 3.75926 8.81482L3.43519 8.56852L5.96296 6.02778C7.35 4.64074 8.54259 3.51296 8.60741 3.53889C8.67222 3.56482 8.87963 3.85 9.06111 4.18704ZM29.037 6.02778L31.5648 8.56852L31.2407 8.81482C31.0593 8.95741 30.7481 9.13889 30.5537 9.21667C30.1907 9.37222 30.1519 9.3463 27.9222 7.11667C26.6778 5.87222 25.6667 4.80926 25.6667 4.74445C25.6667 4.56296 26.3148 3.5 26.4185 3.5C26.4704 3.5 27.65 4.64074 29.037 6.02778ZM24.3704 5.26296C24.3704 5.47037 23.0481 7.50556 22.8667 7.57037C22.6074 7.67408 12.3926 7.67408 12.1333 7.57037C11.9519 7.50556 10.6296 5.47037 10.6296 5.26296C10.6296 5.22408 13.7278 5.18519 17.5 5.18519C21.2852 5.18519 24.3704 5.22408 24.3704 5.26296ZM10.5778 6.68889L11.3167 7.93333L9.61852 9.61852L7.93333 11.3167L6.67593 10.5778L5.41852 9.82593L7.5963 7.63519C8.80185 6.42963 9.8 5.44445 9.81296 5.44445C9.82593 5.44445 10.1759 6.00185 10.5778 6.68889ZM27.4037 7.63519L29.5815 9.82593L28.3241 10.5778L27.0667 11.3167L25.3815 9.61852L23.6833 7.93333L24.4222 6.68889C24.8241 6.00185 25.1741 5.44445 25.187 5.44445C25.2 5.44445 26.1981 6.42963 27.4037 7.63519ZM1.75 8.49074L2.46296 8.94445V17.5V26.0556L1.75 26.5093C1.36111 26.7556 0.985185 26.963 0.907407 26.963C0.816667 26.963 0.777778 24.0074 0.777778 17.5C0.777778 10.9926 0.816667 8.03704 0.907407 8.03704C0.985185 8.03704 1.36111 8.24445 1.75 8.49074ZM34.2222 17.5C34.2222 24.0074 34.1833 26.963 34.0926 26.963C34.0148 26.963 33.6389 26.7556 33.25 26.5093L32.537 26.0556V17.5V8.94445L33.2241 8.49074C33.587 8.24445 33.9759 8.05 34.0667 8.05C34.1833 8.03704 34.2222 10.0074 34.2222 17.5ZM24.85 10.137L26.7037 11.9907V17.5V23.0093L24.863 24.85L23.0093 26.7037H17.5H11.9907L10.15 24.863L8.2963 23.0093V17.5V11.9907L10.137 10.15L11.9907 8.2963H17.5H23.0093L24.85 10.137ZM3.88889 9.74815L4.40741 10.0463V17.5V24.9537L3.88889 25.2389C3.61667 25.4074 3.35741 25.537 3.31852 25.537C3.26667 25.537 3.24074 21.9204 3.24074 17.5C3.24074 13.0796 3.26667 9.46296 3.31852 9.46296C3.35741 9.46296 3.61667 9.59259 3.88889 9.74815ZM31.7593 17.5C31.7593 21.9204 31.7333 25.537 31.6815 25.537C31.6426 25.537 31.3833 25.4074 31.1111 25.2389L30.5926 24.9537V17.5V10.0463L31.0852 9.76111C31.3444 9.60556 31.6037 9.47593 31.6685 9.46296C31.7204 9.46296 31.7593 13.0796 31.7593 17.5ZM6.41667 11.2778C7.01296 11.6407 7.53148 12.0167 7.57037 12.1333C7.67407 12.3926 7.67407 22.6074 7.57037 22.8667C7.50556 23.0481 5.47037 24.3704 5.26296 24.3704C5.22407 24.3704 5.18519 21.2722 5.18519 17.5C5.18519 13.7148 5.22407 10.6296 5.26296 10.6296C5.30185 10.6296 5.82037 10.9278 6.41667 11.2778ZM29.8148 17.5C29.8148 21.2722 29.7759 24.3704 29.737 24.3704C29.6981 24.3704 29.1667 24.0722 28.5704 23.7093L27.4815 23.0611V17.5V11.9389L28.5574 11.2907C29.1407 10.9278 29.6593 10.6296 29.7241 10.6296C29.7759 10.6296 29.8148 13.7148 29.8148 17.5ZM9.64444 25.3944L11.3167 27.0796L10.5648 28.337L9.82593 29.5815L7.63518 27.4037C6.42963 26.1981 5.4963 25.1741 5.54815 25.1352C5.67778 25.0056 7.82963 23.7222 7.90741 23.7222C7.9463 23.7222 8.72407 24.4741 9.64444 25.3944ZM28.4796 24.513C29.063 24.8759 29.5556 25.1741 29.5556 25.187C29.5556 25.2 28.5704 26.1981 27.3648 27.4037L25.1741 29.5815L24.4352 28.337L23.6833 27.0796L25.3556 25.3944C26.4056 24.3444 27.0926 23.7481 27.2093 23.787C27.313 23.8259 27.8833 24.15 28.4796 24.513ZM7.11667 27.9222C9.3463 30.1519 9.37222 30.1907 9.21667 30.5537C9.13889 30.7481 8.95741 31.0593 8.82778 31.2278L8.59444 31.5259L6.07963 28.9852C4.69259 27.5852 3.57778 26.4056 3.59074 26.3537C3.6037 26.25 4.56296 25.6667 4.73148 25.6667C4.80926 25.6667 5.87222 26.6778 7.11667 27.9222ZM30.9426 25.9907C31.2407 26.1722 31.5 26.3667 31.5 26.4185C31.5 26.4704 30.3593 27.65 28.9722 29.037L26.4315 31.5648L26.1852 31.2407C26.0426 31.0593 25.8611 30.7481 25.7833 30.5537C25.6278 30.1907 25.6537 30.1519 27.8833 27.9222C29.1278 26.6778 30.1907 25.6667 30.2556 25.6667C30.3204 25.6667 30.6315 25.8093 30.9426 25.9907ZM5.4963 29.5426L8.20556 32.2519L7.77778 32.9907C7.54444 33.3926 7.27222 33.7556 7.16852 33.7944C6.92222 33.8852 1.14074 28.1556 1.19259 27.8833C1.23148 27.7278 2.51481 26.8333 2.72222 26.8333C2.76111 26.8333 4.00556 28.0519 5.4963 29.5426ZM33.0556 27.2611C33.4444 27.4944 33.7815 27.7796 33.8074 27.8833C33.8593 28.1556 28.0778 33.8852 27.8315 33.7944C27.7278 33.7556 27.4556 33.3926 27.2222 32.9907L26.7944 32.2519L29.5037 29.5426C30.9944 28.0519 32.2389 26.8333 32.2778 26.8333C32.3167 26.8333 32.6667 27.0278 33.0556 27.2611ZM22.8667 27.4296C23.0481 27.4944 24.3704 29.5296 24.3704 29.737C24.3704 29.7759 21.2852 29.8148 17.5 29.8148C13.7278 29.8148 10.6296 29.7759 10.6296 29.737C10.6296 29.5556 11.9389 27.4944 12.0944 27.4426C12.3278 27.3389 22.6204 27.3389 22.8667 27.4296ZM25.2519 31.1111C25.4074 31.3833 25.537 31.6426 25.537 31.6815C25.537 31.7333 21.9204 31.7593 17.5 31.7593C13.0796 31.7593 9.46296 31.7333 9.46296 31.6815C9.46296 31.6426 9.59259 31.3833 9.76111 31.1111L10.0463 30.5926H17.5H24.9537L25.2519 31.1111ZM26.5093 33.25C26.7556 33.6389 26.963 34.0148 26.963 34.0926C26.963 34.1833 24.0074 34.2222 17.5 34.2222C10.9926 34.2222 8.03704 34.1833 8.03704 34.0926C8.03704 34.0148 8.24444 33.6389 8.49074 33.25L8.94444 32.537H17.5H26.0556L26.5093 33.25Z" fill="currentColor"/>
</g>
<defs>
<clipPath id="clip0_400_39">
<rect width="35" height="35" fill="white"/>
</clipPath>
</defs>
</svg>
