<svg width="27" height="39" viewBox="0 0 27 39" fill="none" xmlns="http://www.w3.org/2000/svg">
<path d="M24.7517 7.92791C24.792 7.96818 24.792 8.00874 24.8325 8.04901C25.5189 9.34112 26.0032 10.8751 26.2458 12.6516V12.6919C26.3266 13.3782 26.3669 14.0645 26.3669 14.7914C26.3669 19.071 24.3079 24.3197 20.1897 30.3758C17.2019 34.8573 14.1333 38.1276 14.093 38.168C14.0528 38.2082 14.0122 38.2488 13.9719 38.2488H13.9317C13.8914 38.2891 13.8508 38.2891 13.8106 38.2891H13.7703C13.73 38.2891 13.6895 38.3293 13.6089 38.3293C13.4475 38.3293 13.2859 38.2485 13.1648 38.1274C13.1245 38.0871 10.0156 34.8166 6.94733 30.3352C2.82911 24.2791 0.770103 19.0305 0.850923 14.7105C0.850923 14.0644 0.891195 13.459 0.972023 12.8531C1.17395 11.2383 1.57752 9.74429 2.18332 8.41187V8.3716C2.95049 6.63566 4.08089 5.1822 5.53436 3.9709C8.27965 1.62921 11.5905 0.781494 13.5688 0.781494C14.5378 0.781494 15.9914 1.06425 17.6062 1.71003C17.687 1.71003 17.7273 1.71003 17.8081 1.7503C17.8484 1.79058 17.889 1.79058 17.9292 1.83113C19.0597 2.31553 20.2307 2.9616 21.3206 3.84983C21.4417 3.89011 21.5225 3.97093 21.5628 4.05176C22.854 5.10141 23.9038 6.35332 24.7517 7.92791ZM17.9284 3.12332L17.6054 3.8502H19.2608C18.8167 3.56745 18.3725 3.36552 17.9284 3.12332ZM7.8753 3.8502H9.73265L9.40962 3.04279C8.88467 3.285 8.39994 3.52719 7.8753 3.8502ZM2.54579 18.3041H3.15128L2.18223 15.8815C2.22279 16.6892 2.34386 17.4966 2.54579 18.3041ZM23.8633 8.85658H22.6117L24.6304 10.9156C24.4285 10.189 24.1863 9.50264 23.8633 8.85658ZM13.6486 28.9628L11.5491 30.9815C12.3971 33.2022 13.1639 35.0592 13.6486 36.2302C14.133 35.0595 14.9408 33.1619 15.7482 30.9413L13.6486 28.9628ZM16.2326 29.7297C16.7978 28.1954 17.3631 26.5805 17.8474 24.9657L14.5366 28.1149L16.2326 29.7297ZM12.8006 28.1149L9.4496 24.9255C9.97455 26.5403 10.5398 28.1957 11.0644 29.7301L12.8006 28.1149ZM13.6486 27.2669L18.4935 22.6643C19.1395 20.2823 19.5836 18.0616 19.5836 16.366C19.5836 12.5707 18.009 10.3502 16.3942 9.17943C16.354 9.13916 16.2731 9.0986 16.2328 9.05833C15.2235 8.372 14.2141 8.08928 13.6489 8.08928C13.0434 8.08928 12.0743 8.37203 11.065 9.05833C11.0247 9.0986 10.9439 9.13916 10.9036 9.17943C9.28878 10.3501 7.71419 12.5707 7.71419 16.366C7.71419 18.0214 8.15832 20.242 8.76385 22.5834L13.6486 27.2669ZM23.1769 17.5771L24.9534 12.8937L21.4813 9.42153L20.4719 13.1761L23.1769 17.5771ZM20.7949 16.0025V16.3658C20.7949 17.6982 20.5527 19.3131 20.1489 21.0896L22.5309 18.8287L20.7949 16.0025ZM6.50251 16.0025L4.8068 18.8286L7.10827 21.0493C6.70441 19.3134 6.46222 17.6982 6.46222 16.4064C6.50249 16.2448 6.50251 16.1236 6.50251 16.0025ZM9.00592 9.2601H6.94692L7.59297 11.3191C7.99654 10.4714 8.48091 9.82534 9.00592 9.2601ZM6.62364 8.04881H10.0153V5.06106H6.62392L6.62364 8.04881ZM11.2263 7.52386C11.6301 7.32193 11.9935 7.16056 12.397 7.03946L11.2263 5.90899V7.52386ZM13.6489 6.63564L15.8289 4.45558L13.6489 2.27553L11.4688 4.45558L13.6489 6.63564ZM14.9004 7.07976C15.2637 7.20086 15.6676 7.36252 16.0711 7.56416V5.94935L14.9004 7.07976ZM17.2824 8.04881H20.5526L20.5529 5.06106H17.2824V8.04881ZM18.2917 9.2601C18.8167 9.82533 19.3011 10.5116 19.705 11.3596L20.2702 9.2601H18.2917ZM24.1865 18.3039H24.6709C24.8728 17.4964 24.9939 16.689 25.0747 15.9219L24.1865 18.3039ZM23.9443 19.5152L23.9846 20.7264C24.1459 20.3226 24.2673 19.919 24.3884 19.5152H23.9443ZM22.733 20.3226L19.5838 23.3103C19.1397 24.9657 18.5745 26.7017 18.0092 28.3571L22.7732 23.3911L22.733 20.3226ZM15.7484 34.3727C16.2328 33.7672 16.7577 33.1212 17.2826 32.3943L16.7174 31.8694C16.3538 32.7982 16.0308 33.6458 15.7484 34.3727ZM10.5805 31.8693L10.0153 32.4345C10.5805 33.2017 11.1457 33.888 11.6301 34.4935C11.307 33.6864 10.9438 32.8383 10.5805 31.8693ZM7.67355 23.2293L4.6858 20.4032L4.8069 24.0773L9.32872 28.5186C8.7635 26.7823 8.15796 24.9656 7.67355 23.2293ZM3.4745 19.5149H2.86901C3.07094 20.1609 3.27287 20.807 3.51506 21.4527L3.4745 19.5149ZM2.58628 11.1978L4.52416 9.25996H3.23204C2.99012 9.86545 2.74793 10.5115 2.58628 11.1978ZM2.38463 13.1357L4.16116 17.577L6.90645 13.0146L5.8568 9.70386L2.38463 13.1357ZM10.8632 3.36521L12.0339 2.1945C11.5495 2.27533 11.0648 2.43671 10.5804 2.59836L10.8632 3.36521ZM16.4752 3.40577L16.7982 2.67918C16.2732 2.47725 15.7888 2.35614 15.3044 2.23505L16.4752 3.40577ZM21.7641 7.64482H23.2176C22.7734 6.9585 22.289 6.39329 21.7641 5.82806V7.64482ZM20.7547 27.2262L17.3228 30.7792L17.9689 31.4252C18.8977 30.1331 19.8664 28.72 20.7547 27.2262ZM9.28852 31.4655L9.97484 30.8195L6.62379 27.5087C7.47179 28.9219 8.40029 30.2543 9.28852 31.4655ZM3.79765 8.04863H5.37223V5.86858C4.76674 6.51434 4.24176 7.24123 3.79765 8.04863Z" fill="currentColor"/>
</svg>
