<svg width="35" height="35" viewBox="0 0 35 35" fill="none" xmlns="http://www.w3.org/2000/svg">
<path d="M8 17.5V35H17.7145H27.4289V17.5V-5.21541e-07H17.7145H8V17.5ZM25.8647 1.27948L25.0826 2.06368H17.7145H10.3463L9.56419 1.27948L8.7821 0.495283H17.7145H26.6468L25.8647 1.27948ZM9.25959 1.55189L9.97582 2.27005V17.5V32.73L9.25135 33.4564C8.85619 33.8526 8.50219 34.1745 8.46926 34.1745C8.43633 34.1745 8.41163 26.671 8.41163 17.5C8.41163 8.32901 8.43633 0.825471 8.47749 0.825471C8.51042 0.825471 8.86442 1.14741 9.25959 1.55189ZM27.0173 17.5C27.0173 26.671 26.9926 34.1745 26.9597 34.1745C26.9267 34.1745 26.5727 33.8526 26.1776 33.4564L25.4531 32.73V17.5V2.27005L26.1693 1.55189C26.5645 1.14741 26.9185 0.825471 26.9514 0.825471C26.9926 0.825471 27.0173 8.32901 27.0173 17.5ZM23.5514 3.5908L22.44 4.70519H17.7145H12.9889L11.8776 3.5908L10.7579 2.47641H17.7145H24.671L23.5514 3.5908ZM12.6103 17.5V30.0884L11.54 31.1616L10.4698 32.2347V17.5V2.76533L11.54 3.83844L12.6103 4.91156V17.5ZM24.9591 17.5165V32.2347L23.8889 31.1616L22.8187 30.0884V17.5V4.91156L23.8642 3.86321C24.4405 3.27712 24.9262 2.8066 24.9344 2.8066C24.9509 2.8066 24.9591 9.42689 24.9591 17.5165ZM22.3247 17.5V29.8821H17.7145H13.1042V17.5V5.11792H17.7145H22.3247V17.5ZM23.5514 31.4092L24.671 32.5236H17.7145H10.7579L11.8776 31.4092L12.9889 30.2948H17.7145H22.44L23.5514 31.4092ZM25.8647 33.7205L26.6468 34.5047H17.7145H8.7821L9.56419 33.7205L10.3463 32.9363H17.7145H25.0826L25.8647 33.7205Z" fill="currentColor"/>
</svg>
