<svg width="35" height="35" viewBox="0 0 35 35" fill="none" xmlns="http://www.w3.org/2000/svg">
<path fill-rule="evenodd" clip-rule="evenodd" d="M15.9719 1.70138C14.1964 1.70138 12.583 1.79393 11.0479 1.98291C9.19163 2.21184 7.25302 2.5489 5.64852 3.4649C3.91159 4.45566 3.21331 6.45706 2.79932 8.09005C1.57333 12.9266 1.37189 18.5307 2.21726 24.2978C2.25963 24.5844 2.30371 24.8706 2.34901 25.1575C2.6683 27.1423 3.04138 29.0495 4.08887 30.5497C5.20208 32.1449 7.14312 32.7431 8.8952 33.1179C10.9247 33.5516 13.1867 33.7537 16.0127 33.7537H19.4923C21.8252 33.7537 23.8431 33.6045 25.6634 33.2976C27.8178 32.934 29.9848 32.3794 31.2388 30.7911C32.2948 29.4547 32.7171 27.586 33.0308 25.9392C33.3296 24.3669 33.5334 22.6207 33.653 20.6008C33.712 19.5889 33.7446 18.6473 33.7509 17.7236C33.7767 14.4891 33.4911 11.5677 32.8793 8.79312C32.4585 6.88718 31.7466 4.56618 29.9653 3.52798C28.3083 2.56235 26.2594 2.20654 24.4735 1.98489C22.8371 1.78227 21.1024 1.6885 19.1893 1.70263C18.2317 1.70896 17.2748 1.70896 16.3155 1.70263C16.2005 1.70166 16.0859 1.70138 15.9719 1.70138ZM19.4923 34.8989H16.0127C13.1039 34.8989 10.7664 34.689 8.65579 34.2379C6.68531 33.8161 4.49026 33.1264 3.15024 31.2056C1.96421 29.5066 1.55964 27.4606 1.21916 25.3381C1.17265 25.0464 1.12686 24.7556 1.08448 24.464C0.217983 18.5494 0.427406 12.7902 1.68944 7.80867C2.15948 5.95653 2.96924 3.675 5.08124 2.47071C6.86031 1.45539 8.93335 1.09028 10.908 0.847004C12.5909 0.63975 14.36 0.543062 16.3227 0.557919C17.2757 0.564251 18.2292 0.563764 19.1809 0.557919C21.1564 0.540141 22.9279 0.640479 24.6139 0.849198C26.5148 1.08446 28.7052 1.46926 30.542 2.53936C32.7066 3.80089 33.5252 6.41217 33.9967 8.54587C34.6282 11.4065 34.9216 14.4109 34.8961 17.7321C34.8885 18.6765 34.8554 19.6364 34.7952 20.6683C34.6727 22.7374 34.4633 24.5318 34.1552 26.1529C33.8164 27.9334 33.3527 29.9619 32.1372 31.501C30.6433 33.3932 28.2342 34.0251 25.8532 34.4262C23.9702 34.7441 21.8894 34.8989 19.4923 34.8989Z" fill="currentColor"/>
<path fill-rule="evenodd" clip-rule="evenodd" d="M12.4427 23.011L17.7256 25.124L23.0093 23.011L25.1223 17.7281L23.0093 12.4444L17.7256 10.3312L12.4427 12.4444L10.3295 17.7281L12.4427 23.011ZM17.7256 26.3135C17.6536 26.3135 17.582 26.2998 17.5133 26.2723L11.7898 23.9827C11.6436 23.9243 11.5287 23.8093 11.471 23.6639L9.18136 17.9402C9.12705 17.8035 9.12705 17.6518 9.18136 17.5149L11.471 11.7914C11.5287 11.646 11.6436 11.5308 11.7898 11.4726L17.5133 9.18307C17.6502 9.12876 17.8019 9.12876 17.9388 9.18307L23.6623 11.4726C23.8077 11.5308 23.9233 11.646 23.9811 11.7914L26.2706 17.5149C26.3249 17.6518 26.3249 17.8035 26.2706 17.9402L23.9811 23.6639C23.9233 23.8093 23.8077 23.9243 23.6623 23.9827L17.9388 26.2723C17.8701 26.2998 17.7977 26.3135 17.7256 26.3135Z" fill="currentColor"/>
<path fill-rule="evenodd" clip-rule="evenodd" d="M24.2962 22.8787H28.9199L33.5548 17.7273L28.9199 12.5761H24.2962L26.2721 17.5144C26.3264 17.6513 26.3264 17.8035 26.2721 17.9404L24.2962 22.8787ZM29.1746 24.0233H23.4509C23.2609 24.0233 23.0839 23.9288 22.9769 23.772C22.871 23.6147 22.8493 23.415 22.9197 23.2381L25.1238 17.7272L22.9197 12.2166C22.8493 12.0398 22.871 11.8401 22.9769 11.6825C23.0839 11.5256 23.2609 11.4314 23.4509 11.4314H29.1746C29.3371 11.4314 29.4917 11.5006 29.6004 11.6206L34.7501 17.3444C34.9457 17.5619 34.9457 17.8929 34.7501 18.1103L29.6004 23.8338C29.4917 23.9541 29.3371 24.0233 29.1746 24.0233Z" fill="currentColor"/>
<path fill-rule="evenodd" clip-rule="evenodd" d="M26.4069 17.7272L29.2658 22.4921L33.5534 17.7272L29.2658 12.9622L26.4069 17.7272ZM29.1738 24.023C29.1552 24.023 29.1375 24.0225 29.1187 24.0208C28.9378 24.003 28.7763 23.9012 28.683 23.7453L25.2488 18.0218C25.1397 17.8404 25.1397 17.6136 25.2488 17.4322L28.683 11.7084C28.7763 11.5528 28.9378 11.451 29.1187 11.4332C29.2997 11.4171 29.4775 11.4853 29.599 11.6203L34.7485 17.344C34.9448 17.5615 34.9448 17.8925 34.7485 18.11L29.599 23.8335C29.4901 23.9548 29.335 24.023 29.1738 24.023Z" fill="currentColor"/>
<path fill-rule="evenodd" clip-rule="evenodd" d="M6.53267 22.8787H11.1561L9.18042 17.9404C9.12586 17.8035 9.12586 17.6513 9.18042 17.5144L11.1561 12.5761H6.53267L1.89754 17.7273L6.53267 22.8787ZM12.0014 24.0233H6.27792C6.11523 24.0233 5.96083 23.9541 5.85269 23.8338L0.702519 18.1103C0.506712 17.8928 0.506712 17.5619 0.702519 17.3444L5.85269 11.6206C5.96083 11.5006 6.11523 11.4314 6.27792 11.4314H12.0014C12.1916 11.4314 12.3684 11.5256 12.4754 11.6825C12.5813 11.8401 12.6032 12.0398 12.5326 12.2166L10.3285 17.7272L12.5326 23.2381C12.6032 23.415 12.5813 23.6147 12.4754 23.772C12.3685 23.9288 12.1916 24.0233 12.0014 24.0233Z" fill="currentColor"/>
<path fill-rule="evenodd" clip-rule="evenodd" d="M1.89815 17.7276L6.18575 22.4926L9.04467 17.7276L6.18575 12.9627L1.89815 17.7276ZM6.27778 24.0234C6.11631 24.0234 5.9619 23.9552 5.85255 23.834L0.703066 18.1104C0.50653 17.893 0.50653 17.562 0.703066 17.3445L5.85255 11.6208C5.97384 11.4858 6.15308 11.4176 6.33282 11.4337C6.51352 11.4515 6.67573 11.5533 6.769 11.7089L10.2032 17.4327C10.3118 17.6141 10.3118 17.8409 10.2032 18.0223L6.769 23.7458C6.67573 23.9017 6.51352 24.0035 6.33282 24.0213C6.31455 24.023 6.29677 24.0234 6.27778 24.0234Z" fill="currentColor"/>
<path fill-rule="evenodd" clip-rule="evenodd" d="M12.5753 28.9214L17.7263 33.5558L22.8779 28.9214V24.2977L17.9391 26.2736C17.8027 26.3279 17.6505 26.3279 17.5144 26.2736L12.5753 24.2977V28.9214ZM17.7263 34.8979C17.5894 34.8979 17.4525 34.8492 17.3432 34.7513L11.6201 29.6013C11.4993 29.4929 11.4307 29.3385 11.4307 29.1758V23.4523C11.4307 23.2623 11.5252 23.0848 11.682 22.9784C11.8398 22.8719 12.0402 22.8508 12.2154 22.9211L17.7267 25.1252L23.2381 22.9211C23.4124 22.85 23.6134 22.8719 23.7714 22.9784C23.9283 23.0848 24.0228 23.2623 24.0228 23.4523V29.1758C24.0228 29.3385 23.9541 29.4929 23.8333 29.6018L18.1091 34.7513C18.0002 34.8492 17.8629 34.8979 17.7263 34.8979Z" fill="currentColor"/>
<path fill-rule="evenodd" clip-rule="evenodd" d="M12.9615 29.2679L17.7257 33.555L22.4914 29.2679L17.7264 26.4085L12.9615 29.2679ZM17.7257 34.8972C17.5891 34.8972 17.4522 34.8484 17.3428 34.7505L11.6198 29.6011C11.4852 29.4795 11.416 29.301 11.4333 29.1203C11.4503 28.9398 11.5529 28.7779 11.7085 28.6846L17.4322 25.2504C17.613 25.1418 17.8397 25.1418 18.0211 25.2504L23.7449 28.6846C23.9 28.7779 24.0023 28.9398 24.0196 29.1208C24.0374 29.301 23.9675 29.4795 23.833 29.6011L18.1089 34.7505C18 34.8484 17.8625 34.8972 17.7257 34.8972Z" fill="currentColor"/>
<path fill-rule="evenodd" clip-rule="evenodd" d="M17.7257 9.1415C17.7977 9.1415 17.8698 9.15538 17.938 9.18217L22.8768 11.158V6.53436L17.7252 1.89998L12.5742 6.53436V11.158L17.5133 9.18217C17.5815 9.15538 17.6536 9.1415 17.7257 9.1415ZM23.4494 12.5757C23.3771 12.5757 23.305 12.5626 23.2371 12.5351L17.7257 10.3305L12.2144 12.5351C12.0388 12.6045 11.8384 12.5845 11.681 12.4773C11.5242 12.3709 11.4297 12.1934 11.4297 12.0034V6.27986C11.4297 6.11717 11.4984 5.96276 11.6192 5.85439L17.3422 0.704898C17.5604 0.508605 17.8899 0.508605 18.1081 0.704411L23.8323 5.8539C23.9531 5.96276 24.0218 6.11717 24.0218 6.27985V12.0034C24.0218 12.1934 23.9273 12.3709 23.7705 12.4773C23.6743 12.5426 23.5621 12.5757 23.4494 12.5757Z" fill="currentColor"/>
<path fill-rule="evenodd" clip-rule="evenodd" d="M12.9615 6.18737L17.7265 9.04678L22.4914 6.18737L17.7257 1.90026L12.9615 6.18737ZM17.7265 10.2867C17.6244 10.2867 17.5226 10.2592 17.4322 10.2048L11.7085 6.77065C11.5529 6.67713 11.4503 6.51517 11.4333 6.33495C11.416 6.154 11.4852 5.97549 11.6198 5.8542L17.3428 0.704717C17.5608 0.50891 17.8906 0.50891 18.1088 0.704717L23.833 5.8542C23.9674 5.97549 24.0373 6.154 24.0195 6.33447C24.0022 6.51517 23.9 6.67713 23.7448 6.77065L18.0211 10.2048C17.9307 10.2592 17.8283 10.2867 17.7265 10.2867Z" fill="currentColor"/>
<path fill-rule="evenodd" clip-rule="evenodd" d="M24.0228 11.4303L28.7042 11.4308L30.0977 4.35691L24.0228 6.67323V11.4303ZM29.1747 12.5757L23.4505 12.575C23.1339 12.575 22.8779 12.3185 22.8779 12.0026V6.27912C22.8779 6.04142 23.0245 5.82856 23.2467 5.74381L30.6553 2.91918C30.8512 2.84588 31.0694 2.88265 31.2284 3.0166C31.3874 3.15103 31.4612 3.36048 31.4213 3.56482L29.7362 12.1138C29.6836 12.3825 29.4482 12.5757 29.1747 12.5757Z" fill="currentColor"/>
<path fill-rule="evenodd" clip-rule="evenodd" d="M5.38392 4.38243L6.75094 11.432L11.4299 11.4308V6.67514L5.38392 4.38243ZM6.27798 12.5767C6.00448 12.5767 5.76873 12.3826 5.71661 12.113L4.06467 3.5914C4.02521 3.3878 4.09901 3.17811 4.25756 3.04489C4.41684 2.91095 4.63481 2.87368 4.8294 2.94748L12.2057 5.74405C12.4283 5.8288 12.5749 6.04166 12.5749 6.27935V12.0029C12.5749 12.3195 12.319 12.5752 12.0024 12.5752L6.27798 12.5767Z" fill="currentColor"/>
<path fill-rule="evenodd" clip-rule="evenodd" d="M6.75126 24.0238L5.38617 31.0603L11.4314 28.7805V24.0245L6.75126 24.0238ZM4.62878 32.5298C4.49605 32.5298 4.36453 32.4835 4.25981 32.3954C4.10126 32.2614 4.02722 32.052 4.06741 31.8486L5.71743 23.3426C5.76954 23.0733 6.00554 22.8792 6.27952 22.8792L12.0037 22.8796C12.3198 22.8796 12.576 23.1361 12.576 23.452V29.1756C12.576 29.4138 12.4285 29.6273 12.2054 29.7115L4.83098 32.4933C4.76522 32.5179 4.69698 32.5298 4.62878 32.5298Z" fill="currentColor"/>
<path fill-rule="evenodd" clip-rule="evenodd" d="M24.0231 28.7814L30.0885 31.0893L28.704 24.024L24.0231 24.0245V28.7814ZM30.8476 32.5629C30.7789 32.5629 30.7102 32.551 30.644 32.5256L23.2471 29.7108C23.025 29.6268 22.8779 29.4131 22.8779 29.1756V23.452C22.8779 23.1361 23.1337 22.8796 23.4503 22.8796L29.1745 22.8792C29.448 22.8792 29.6839 23.0725 29.7358 23.3416L31.409 31.8806C31.4489 32.0844 31.3751 32.2944 31.2161 32.4283C31.1113 32.5165 30.9806 32.5629 30.8476 32.5629Z" fill="currentColor"/>
</svg>
