<svg width="35" height="35" viewBox="0 0 35 35" fill="none" xmlns="http://www.w3.org/2000/svg">
<path d="M29.3669 6.13278L29.3668 6.13276C29.222 5.91198 28.9758 5.77891 28.7117 5.77891H6.31489C6.05137 5.77891 5.80555 5.91134 5.66059 6.13144C5.66058 6.13144 5.66058 6.13145 5.66058 6.13145L0.0479746 14.6508C0.0178489 14.6926 -0.00822879 14.7375 -0.0299862 14.7853L-0.0300352 14.7854C-0.157062 15.0655 -0.108472 15.3939 0.0941653 15.6252L2.93962 18.8742C3.22476 19.1997 3.7197 19.2325 4.04521 18.9474L4.04522 18.9474C4.37072 18.6623 4.40349 18.1673 4.1184 17.8418L2.41134 15.8926H11.3103L15.7821 31.1595L10.8597 25.5392C10.5747 25.2136 10.0796 25.1808 9.75413 25.4659C9.42864 25.751 9.39586 26.246 9.68095 26.5715L16.9127 34.8287C16.9127 34.8287 16.9127 34.8287 16.9127 34.8287C17.0614 34.9986 17.2764 35.096 17.5021 35.096C17.728 35.096 17.9428 34.9986 18.0915 34.8286L25.7908 26.0354C26.0759 25.7098 26.0431 25.2148 25.7175 24.9298C25.3918 24.6447 24.8968 24.6775 24.6119 25.0032C24.6119 25.0032 24.6118 25.0032 24.6118 25.0032L19.2223 31.1585L23.6938 15.8925H32.589L28.4835 20.5815C28.1983 20.9071 28.2311 21.4021 28.5568 21.6871C28.7054 21.8173 28.8896 21.8812 29.0727 21.8812C29.2905 21.8812 29.5076 21.7907 29.6624 21.6138L34.906 15.6252C35.1378 15.3604 35.1646 14.9737 34.9716 14.6794L29.3669 6.13278ZM2.13885 14.3255L6.31334 7.98898L10.4688 14.3255H2.13885ZM11.9085 13.6632L7.76567 7.34603H16.0512L11.9085 13.6632ZM17.502 7.99125L21.656 14.3255H13.3481L17.502 7.99125ZM22.0609 15.8926L17.502 31.4569L12.9432 15.8926H22.0609ZM27.2609 7.34603L23.1068 13.6803L18.9529 7.34603H27.2609ZM32.8656 14.3255H24.5577L28.7117 7.99125L32.8656 14.3255Z" fill="currentColor" stroke="currentColor" stroke-width="0.2"/>
<path d="M10.7456 22.3539C8.98237 22.3539 7.54785 20.9194 7.54785 19.1562C7.54785 18.7787 7.24181 18.4727 6.86433 18.4727C6.48685 18.4727 6.1808 18.7787 6.1808 19.1562C6.1808 20.9194 4.74628 22.3539 2.98309 22.3539C2.60567 22.3539 2.29956 22.6599 2.29956 23.0374C2.29956 23.4149 2.60567 23.721 2.98309 23.721C4.74628 23.721 6.1808 25.1555 6.1808 26.9187C6.1808 27.2961 6.48692 27.6022 6.86433 27.6022C7.24174 27.6022 7.54785 27.2961 7.54785 26.9187C7.54785 25.1555 8.98237 23.721 10.7456 23.721C11.123 23.721 11.4291 23.4149 11.4291 23.0374C11.4291 22.6599 11.123 22.3539 10.7456 22.3539ZM6.86433 24.5182C6.4917 23.9178 5.98393 23.4101 5.38366 23.0374C5.98393 22.6648 6.49163 22.1571 6.86433 21.5567C7.23695 22.157 7.74473 22.6647 8.34499 23.0374C7.74473 23.4101 7.23702 23.9178 6.86433 24.5182Z" fill="currentColor"/>
<path d="M31.3426 4.28345L31.5825 4.60282L31.8223 4.28341C32.0003 4.04642 32.2112 3.83548 32.4482 3.65752L32.7676 3.41767L32.4482 3.17776C32.2112 2.99972 32.0003 2.78882 31.8223 2.5518L31.5824 2.23249L31.3426 2.5518C31.1645 2.78882 30.9536 2.99972 30.7166 3.17776L30.3973 3.41763L30.7166 3.65749C30.9536 3.83554 31.1645 4.04643 31.3426 4.28345ZM31.9659 0.683526C31.9659 1.97988 33.0202 3.0341 34.3165 3.0341C34.5283 3.0341 34.7001 3.20585 34.7001 3.41763C34.7001 3.6294 34.5283 3.80115 34.3165 3.80115C33.0202 3.80115 31.9659 4.85538 31.9659 6.15173C31.9659 6.36351 31.7942 6.53526 31.5824 6.53526C31.3707 6.53526 31.1989 6.36351 31.1989 6.15173C31.1989 4.85538 30.1447 3.80115 28.8483 3.80115C28.6366 3.80115 28.4648 3.6294 28.4648 3.41763C28.4648 3.20585 28.6366 3.0341 28.8483 3.0341C30.1447 3.0341 31.1989 1.97988 31.1989 0.683526C31.1989 0.47175 31.3707 0.3 31.5824 0.3C31.7942 0.3 31.9659 0.47175 31.9659 0.683526Z" fill="currentColor" stroke="currentColor" stroke-width="0.6"/>
<path d="M27.5339 22.9249C27.4068 22.7971 27.2304 22.7246 27.0507 22.7246C26.8709 22.7246 26.6953 22.7971 26.5675 22.9249C26.4403 23.0521 26.3672 23.2284 26.3672 23.4081C26.3672 23.5879 26.4403 23.7642 26.5675 23.8914C26.6946 24.0185 26.8709 24.0917 27.0507 24.0917C27.2305 24.0917 27.4068 24.0185 27.5339 23.8914C27.661 23.7642 27.7342 23.5879 27.7342 23.4081C27.7342 23.2284 27.6611 23.0521 27.5339 22.9249Z" fill="currentColor"/>
</svg>
