<svg width="35" height="35" viewBox="0 0 35 35" fill="none" xmlns="http://www.w3.org/2000/svg">
<g clip-path="url(#clip0_400_34)">
<path d="M15.4139 0.132963C7.99177 1.10955 2.00201 6.67612 0.439466 14.0657C-0.146489 16.9303 -0.146489 18.0371 0.439466 20.9018C2.19733 29.2354 9.13113 34.8996 17.5298 34.867C26.0913 34.8345 32.8948 29.2354 34.6527 20.739C35.7921 15.2376 34.0993 9.63845 29.9976 5.40655C26.1889 1.43508 20.6223 -0.55065 15.4139 0.132963ZM16.5532 0.816577C16.5532 0.946789 15.6743 1.92338 14.6 2.99763L12.6794 4.91826L11.9958 3.32316C11.6377 2.47678 11.3773 1.69551 11.4424 1.6304C11.6052 1.50019 15.479 0.621259 16.1626 0.588706C16.3579 0.556153 16.5532 0.686365 16.5532 0.816577ZM22.1523 1.23977C22.8034 1.40253 23.4219 1.66296 23.487 1.79317C23.5847 1.92338 23.3568 2.6721 22.9987 3.45337L22.3802 4.91826L20.4596 2.99763C19.3853 1.92338 18.5064 0.946789 18.5064 0.784024C18.5064 0.491047 19.9713 0.653812 22.1523 1.23977ZM19.8085 3.1604C20.9479 4.42996 21.7943 5.50421 21.7292 5.56932C21.664 5.63443 20.6875 6.15527 19.5481 6.70868L17.4973 7.75037L15.3813 6.57846C13.5258 5.53677 13.2979 5.3089 13.656 4.85315C14.4047 3.87656 17.3345 0.881683 17.5624 0.881683C17.6926 0.881683 18.7017 1.92338 19.8085 3.1604ZM11.2796 3.06274C11.4424 3.58358 11.7028 4.23465 11.833 4.52762C12.0283 5.04847 11.8005 5.11358 9.22879 5.11358C6.59199 5.11358 6.42922 5.08102 6.81986 4.56018C7.40582 3.87656 10.0426 2.1838 10.5635 2.1838C10.7913 2.1838 11.1169 2.57444 11.2796 3.06274ZM26.7423 3.38827C27.7515 4.07188 28.5978 4.72294 28.5978 4.85315C28.5978 4.98337 27.3283 5.11358 25.7983 5.11358C23.2591 5.11358 23.0313 5.04847 23.2266 4.52762C23.3568 4.23465 23.6172 3.58358 23.78 3.06274C23.9428 2.57444 24.2683 2.1838 24.4636 2.1838C24.6915 2.1838 25.7006 2.73721 26.7423 3.38827ZM11.9632 6.15527C11.9632 6.38315 11.6377 7.4574 11.2471 8.53165C10.596 10.3221 10.4332 10.5174 9.06602 11.0057C8.25219 11.2987 7.2105 11.6242 6.7222 11.7544L5.81072 11.9497V8.85718V5.76464H8.90326C11.182 5.76464 11.9958 5.8623 11.9632 6.15527ZM29.2489 8.85718C29.2489 10.5499 29.1512 11.9497 29.021 11.9497C28.8908 11.9497 27.8166 11.6242 26.6447 11.2661L24.4636 10.5499L23.7474 8.36888C23.3894 7.19697 23.0638 6.12272 23.0638 5.99251C23.0638 5.8623 24.4636 5.76464 26.1564 5.76464H29.2489V8.85718ZM14.9256 7.06676L16.716 7.97824L15.5115 8.49909C12.5817 9.73611 11.8981 9.99653 11.6377 9.99653C11.5075 9.99653 11.6703 9.1176 12.0609 8.04335C12.419 6.9691 12.8096 6.09017 12.9073 6.09017C13.0375 6.12272 13.949 6.54591 14.9256 7.06676ZM22.9987 8.04335C23.3894 9.1176 23.5521 9.99653 23.4219 9.99653C23.1615 9.99653 22.543 9.76866 19.6458 8.53165L18.3436 7.97824L20.1341 7.06676C21.1106 6.54591 22.0221 6.12272 22.1523 6.09017C22.25 6.09017 22.6406 6.9691 22.9987 8.04335ZM5.062 11.8195C4.83413 12.0799 2.22988 10.8755 2.22988 10.5174C2.22988 10.1267 2.75073 9.28037 4.15051 7.39229L4.99689 6.25293L5.09455 8.98739C5.15966 10.4848 5.1271 11.7544 5.062 11.8195ZM31.6253 8.23867C32.2763 9.24781 32.8297 10.257 32.8297 10.4848C32.8297 10.7127 32.4391 11.0708 31.9508 11.2335C31.43 11.3963 30.7789 11.6567 30.4859 11.7869C29.9651 11.9823 29.9 11.7544 29.9 9.21526C29.9 7.68527 30.0302 6.4157 30.1604 6.4157C30.2906 6.4157 30.9417 7.22952 31.6253 8.23867ZM20.7526 9.70355L23.9753 11.0382L25.31 14.261L26.6447 17.4837L25.31 20.7065L23.9753 23.9292L20.7526 25.2639L17.5298 26.5986L14.3071 25.2639L11.0843 23.9292L9.74963 20.7065L8.38241 17.4837L9.74963 14.261L11.0843 11.0382L14.2094 9.73611C15.9347 8.98739 17.3996 8.40143 17.4322 8.40143C17.4973 8.36888 18.9621 8.95483 20.7526 9.70355ZM4.67136 12.6659C4.76902 12.7635 3.95519 13.675 2.84839 14.6842C1.74159 15.6933 0.797549 16.5071 0.764996 16.442C0.602231 16.2793 1.18819 13.1542 1.54627 12.2101L1.8718 11.3312L3.20647 11.9172C3.92264 12.2427 4.60625 12.5682 4.67136 12.6659ZM33.9691 14.0657C34.2295 15.3027 34.3923 16.3769 34.3272 16.442C34.2621 16.5071 33.2855 15.6933 32.1461 14.6191L30.0953 12.6984L31.5276 12.0474C32.3414 11.6893 33.0902 11.494 33.2529 11.5916C33.3831 11.7218 33.7087 12.8286 33.9691 14.0657ZM10.0426 11.7544C10.0426 11.8521 9.65198 12.8612 8.54517 15.4329L8.02432 16.6699L7.11284 14.8795C6.59199 13.9029 6.1688 12.9914 6.13625 12.8612C6.13625 12.731 6.81986 12.438 7.69879 12.1776C9.29389 11.6567 10.0426 11.5265 10.0426 11.7544ZM27.1981 12.1776C28.1421 12.4706 28.9234 12.7961 28.9234 12.8938C28.8908 12.9914 28.4676 13.9029 27.9468 14.8795L27.0353 16.6699L26.4819 15.3678C25.3751 12.7635 25.017 11.8521 25.017 11.7544C25.017 11.5265 25.4076 11.6242 27.1981 12.1776ZM6.55944 15.3678L7.69879 17.4837L6.55944 19.5997L5.45263 21.7156L3.17392 19.6973C1.93691 18.5905 0.927762 17.5814 0.927762 17.4837C0.927762 17.3535 5.15966 13.3169 5.38753 13.2518C5.42008 13.2518 5.94093 14.1959 6.55944 15.3678ZM34.1319 17.4837C34.1319 17.5814 33.1227 18.5905 31.8857 19.6973L29.6395 21.7156L28.4676 19.5997L27.2957 17.4837L28.4676 15.3678L29.6395 13.2518L31.8857 15.2701C33.1227 16.3769 34.1319 17.3861 34.1319 17.4837ZM4.70391 22.0737C4.83413 22.3016 3.33669 23.0828 2.09967 23.4409C1.74159 23.5386 1.09053 21.6831 0.830102 19.8275L0.667337 18.4603L2.58797 20.1205C3.62966 21.032 4.60625 21.9109 4.70391 22.0737ZM9.19623 21.032C9.65198 22.1714 9.97751 23.1805 9.9124 23.2782C9.78219 23.3758 6.49433 22.4318 6.20135 22.2039C6.13625 22.1388 6.49433 21.2924 7.01518 20.2833C7.50347 19.2741 7.99177 18.558 8.12198 18.7207C8.25219 18.851 8.74049 19.8927 9.19623 21.032ZM28.9234 22.0737C28.9234 22.3016 25.3425 23.4409 25.1472 23.2456C25.017 23.1154 25.2123 22.6271 26.5144 19.502L27.0353 18.2976L27.9468 20.088C28.4676 21.0646 28.8908 21.976 28.9234 22.0737ZM34.1319 20.2507C33.9691 21.1297 33.7087 22.3016 33.5134 22.7899C33.2204 23.5711 33.0576 23.6363 32.5368 23.3433C32.1787 23.1805 31.4951 22.855 30.9742 22.6597L30.0627 22.3016L32.1787 20.4135C33.318 19.3718 34.2946 18.5254 34.3272 18.558C34.3597 18.5905 34.2621 19.3393 34.1319 20.2507ZM5.15966 25.8173C5.15966 28.2262 5.09455 28.5843 4.70391 28.2262C4.08541 27.7379 2.22988 24.8407 2.22988 24.4175C2.22988 24.1245 4.15051 23.148 4.93178 23.0503C5.062 23.0177 5.15966 24.2873 5.15966 25.8173ZM9.06602 23.9618C10.4332 24.4501 10.596 24.6454 11.2471 26.4358C11.6377 27.5101 11.9632 28.5843 11.9632 28.7796C11.9958 29.1052 11.182 29.2028 8.90326 29.2028H5.81072V26.1103V23.0177L6.7222 23.2131C7.2105 23.3433 8.25219 23.6688 9.06602 23.9618ZM29.2489 26.1103V29.2028H26.1564C24.4636 29.2028 23.0638 29.1052 23.0638 28.9749C23.0638 28.8447 23.3894 27.7705 23.78 26.566L24.4636 24.385L26.6121 23.7339C27.784 23.3433 28.8583 23.0503 29.021 23.0503C29.1512 23.0177 29.2489 24.4175 29.2489 26.1103ZM31.9508 23.7339C33.0576 24.1571 33.0576 24.385 31.8206 26.3056C30.0627 29.0726 29.9 29.0075 29.9 25.7848C29.9 23.2131 29.9651 22.9852 30.4859 23.1805C30.7789 23.3107 31.43 23.5711 31.9508 23.7339ZM13.656 25.7196C14.6326 26.1428 15.7068 26.5986 16.0649 26.7288C16.6183 26.9567 16.4556 27.1194 14.9256 27.9007C13.949 28.4215 13.0375 28.8447 12.9073 28.8773C12.8096 28.8773 12.419 27.9984 12.0609 26.9241C11.6703 25.8499 11.5075 24.9709 11.6377 24.9709C11.8005 24.9709 12.712 25.329 13.656 25.7196ZM22.9987 26.9241C22.6406 27.9984 22.25 28.8773 22.1523 28.8773C22.0221 28.8447 21.1106 28.4215 20.1341 27.9007L18.3436 26.9567L19.3202 26.5986C19.8736 26.4033 20.8828 25.9801 21.5989 25.622C23.6498 24.6779 23.7474 24.7431 22.9987 26.9241ZM19.8411 28.5518L21.7943 29.5609L19.7434 31.8071C18.6366 33.0766 17.6275 34.0858 17.5298 34.0858C17.4322 34.0858 16.423 33.0766 15.3162 31.8071L13.2654 29.5609L15.1534 28.5843C16.1951 28.0309 17.2368 27.6077 17.4647 27.5752C17.6926 27.5752 18.7668 28.0309 19.8411 28.5518ZM11.4098 31.3188C11.1169 32.1326 10.7588 32.7837 10.596 32.7837C10.1403 32.7837 7.56858 31.1886 6.95007 30.5049C6.36412 29.8539 6.39667 29.8539 9.16368 29.8539H11.9632L11.4098 31.3188ZM28.1095 30.5049C27.491 31.1886 24.9193 32.7837 24.4636 32.7837C24.3008 32.7837 23.9753 32.2303 23.7149 31.5466C23.4545 30.8956 23.194 30.2445 23.1289 30.0818C23.0638 29.9515 24.3008 29.8539 25.8634 29.8539C28.6629 29.8539 28.6955 29.8539 28.1095 30.5049ZM16.423 34.3136C16.2602 34.509 11.7028 33.4022 11.5726 33.1743C11.5075 33.0441 11.7354 32.2954 12.0935 31.4815L12.7445 30.0166L14.6326 32.1326C15.6743 33.2719 16.4881 34.2485 16.423 34.3136ZM23.0964 31.8071L23.6823 33.1417L22.8685 33.4347C22.4128 33.63 21.2409 33.8905 20.2643 34.0207L18.4738 34.3136L19.2226 33.4673C21.0455 31.3839 22.2174 30.212 22.3477 30.3422C22.4453 30.4398 22.7708 31.0909 23.0964 31.8071Z" fill="currentColor"/>
</g>
<defs>
<clipPath id="clip0_400_34">
<rect width="35" height="35" fill="white"/>
</clipPath>
</defs>
</svg>
