<svg width="26" height="39" viewBox="0 0 26 39" fill="none" xmlns="http://www.w3.org/2000/svg">
<path d="M24.5999 26.8182C24.6403 26.7778 24.6403 26.6967 24.6403 26.6156C25.2076 24.4681 25.5317 22.1584 25.5317 19.7276C25.5317 17.1748 25.1671 14.7843 24.5592 12.5558C24.5592 12.5153 24.5188 12.4342 24.5188 12.3938C23.9111 10.2464 23.0197 8.30155 21.9256 6.64023V6.59982V6.5594C21.9256 6.51898 21.8852 6.51898 21.8852 6.51898C21.8852 6.51898 21.8852 6.47857 21.8448 6.47857L21.7637 6.39745C20.6292 4.69569 19.2516 3.31814 17.7119 2.38608C17.6714 2.30468 17.6307 2.26426 17.5496 2.26426C16.091 1.37286 14.4703 0.886719 12.809 0.886719C11.0669 0.886719 9.36477 1.41354 7.86574 2.38582C7.78462 2.42624 7.74421 2.46694 7.66309 2.50735C6.24481 3.4392 4.908 4.7763 3.81394 6.39724L3.7331 6.47808C3.7331 6.47808 3.7331 6.51849 3.69269 6.51849L3.65227 6.55891V6.59933V6.63974C2.51776 8.3415 1.62636 10.3674 1.01873 12.6364C0.978314 12.6768 0.978313 12.7579 0.978313 12.839C0.411073 14.9865 0.0869141 17.2962 0.0869141 19.727C0.0869141 22.2797 0.451512 24.6702 1.05943 26.8988C1.05943 26.9392 1.09984 27.0204 1.09984 27.0608C1.7075 29.2082 2.59894 31.153 3.69301 32.8144C3.69301 32.8548 3.73342 32.8955 3.77412 32.9359V32.9763C3.81454 33.0167 3.81454 33.0574 3.85524 33.0574C4.98975 34.7592 6.36729 36.1367 7.90706 37.0688C7.94747 37.1092 8.02859 37.1499 8.10971 37.1903C9.56836 38.0817 11.1891 38.5679 12.8907 38.5679C14.6329 38.5679 16.3349 38.041 17.8744 37.0688C17.9555 37.0284 17.9959 36.9877 18.0771 36.9472C19.4953 36.0154 20.8321 34.6783 21.9262 33.0573C22.0073 32.9762 22.0477 32.8954 22.0882 32.8143C23.0602 31.1131 23.9516 29.0468 24.5999 26.8182ZM1.90967 13.8119L4.17862 15.149L1.26131 18.1879C1.34215 16.6484 1.58549 15.1896 1.90967 13.8119ZM23.6275 25.6432L21.3585 24.3061L24.2758 21.2672C24.195 22.8067 23.9516 24.2654 23.6275 25.6432ZM21.7638 30.7888L21.1561 25.6025L23.3439 26.8585C22.8982 28.2767 22.3715 29.5733 21.7638 30.7888ZM15.443 29.7354L13.7006 27.831L15.7669 26.5343L15.443 29.7354ZM10.0945 9.71941L11.8366 11.6238L9.7702 12.9205L10.0945 9.71941ZM20.5481 23.4146L18.7653 19.7273L20.5481 16.0401L24.0732 19.7273L20.5481 23.4146ZM18.2388 18.0256L17.3877 14.9057L19.4947 15.3918L18.2388 18.0256ZM16.0102 24.9948L12.7687 27.0207L9.52709 24.9948L8.06844 19.7273L9.52709 14.4599L12.7687 12.434L16.0102 14.4599L17.4688 19.7273L16.0102 24.9948ZM15.4834 9.71941L15.8075 12.9202L13.7005 11.6238L15.4834 9.71941ZM12.7686 10.8539L10.3374 8.17964L12.7686 2.95294L15.1999 8.22038L12.7686 10.8539ZM7.29851 18.0257L6.04251 15.4325L8.14953 14.9464L7.29851 18.0257ZM4.98911 16.0402L6.77199 19.7275L4.98911 23.4147L1.46411 19.7275L4.98911 16.0402ZM7.29851 21.4292L8.14953 24.5491L6.04251 24.063L7.29851 21.4292ZM10.0539 29.7354L9.72971 26.5346L11.7961 27.8313L10.0539 29.7354ZM12.7686 28.6009L15.1999 31.2752L12.7686 36.5019L10.3374 31.2344L12.7686 28.6009ZM18.2387 21.4291L19.4947 24.0223L17.3877 24.5084L18.2387 21.4291ZM24.2758 18.1472L21.3181 15.0679L23.587 13.5688C23.9516 15.0271 24.1949 16.5671 24.2758 18.1472ZM21.1561 13.7712L21.7638 8.66601C22.3714 9.80051 22.8578 11.0161 23.2629 12.3532L21.1561 13.7712ZM19.8594 14.2574L17.0636 13.609L16.5774 8.78726L20.6293 7.6932L19.8594 14.2574ZM13.7412 2.18294C14.7542 2.30447 15.7265 2.62865 16.6179 3.11478L15.7668 6.47779L13.7412 2.18294ZM9.72981 6.59935L8.71686 3.23634C9.68937 2.6691 10.7428 2.30449 11.7962 2.18294L9.72981 6.59935ZM8.43309 13.6092L5.678 14.2576L4.8677 7.65303L8.95997 8.74709L8.43309 13.6092ZM3.77364 8.66599L4.3813 13.8523L2.23384 12.5963C2.63913 11.178 3.16601 9.88154 3.77364 8.66599ZM1.26159 21.3077L4.21934 24.387L1.9504 25.8861C1.5858 24.4277 1.34243 22.8879 1.26159 21.3077ZM4.38127 25.6836L3.77361 30.7888C3.16596 29.6543 2.67955 28.4388 2.27451 27.1016L4.38127 25.6836ZM5.678 25.1975L8.47382 25.8459L8.95995 30.6676L4.90814 31.7617L5.678 25.1975ZM11.7962 37.2719C10.7833 37.1504 9.8107 36.8262 8.91923 36.3401L9.77026 32.9771L11.7962 37.2719ZM15.8076 32.8555L16.8205 36.2185C15.848 36.7453 14.8351 37.1099 13.7817 37.2719L15.8076 32.8555ZM17.1043 25.8456L19.8594 25.1973L20.6697 31.8018L16.5774 30.7078L17.1043 25.8456ZM20.3862 6.47795L16.7801 7.45046L17.7119 3.80397C18.6844 4.49274 19.5756 5.42455 20.3862 6.47795ZM7.70398 3.92552L8.75738 7.45053L5.19171 6.47802C5.92118 5.46507 6.77213 4.5736 7.70398 3.92552ZM5.15126 32.9771L8.75738 32.0046L7.82553 35.651C6.85302 34.9623 5.96184 34.0305 5.15126 32.9771ZM17.8335 35.5295L16.8205 32.0449L20.3862 33.0174C19.6163 33.9899 18.7653 34.8814 17.8335 35.5295Z" fill="currentColor"/>
</svg>
