<svg width="35" height="35" viewBox="0 0 35 35" fill="none" xmlns="http://www.w3.org/2000/svg">
<path d="M7.44186 2.71633L5 5.43266V17.5L5.00946 29.5673L7.44186 32.2837L9.87426 35H17.7772H25.6801L28.1125 32.2837L30.5544 29.5673V17.5284V5.47999L29.57 4.37263C29.0306 3.75743 27.9327 2.52704 27.1282 1.64683L25.6706 0.0378566L17.7772 0.0189274L9.87426 -1.71177e-06L7.44186 2.71633ZM25.0649 0.548944C25.0649 0.596267 24.9324 0.984314 24.7715 1.40076L24.4781 2.16739H17.7772H11.0763L10.7829 1.40076C10.622 0.984314 10.4895 0.596267 10.4895 0.548944C10.4895 0.501621 13.4329 0.463763 17.7772 0.463763C22.1214 0.463763 25.0649 0.501621 25.0649 0.548944ZM10.2907 1.57112L10.5746 2.33775L8.90887 4.19281C7.99081 5.21498 7.20525 6.04786 7.14846 6.04786C6.96863 6.04786 5.7477 5.45159 5.7761 5.37588C5.83288 5.22444 9.93104 0.728771 9.97837 0.766629C9.98783 0.785558 10.1298 1.14521 10.2907 1.57112ZM27.7907 3.13277C28.8697 4.32531 29.7593 5.33802 29.7783 5.37588C29.8067 5.45159 28.5857 6.04786 28.4059 6.04786C28.3491 6.04786 27.5541 5.21498 26.6455 4.19281L24.9797 2.33775L25.2637 1.58058C25.4151 1.16414 25.5381 0.804487 25.5381 0.776094C25.5381 0.662519 25.8978 1.0411 27.7907 3.13277ZM24.0238 3.41671C23.8629 3.84262 23.7399 4.20227 23.7399 4.2212C23.7399 4.24013 21.0614 4.24959 17.7772 4.24959C14.5024 4.24959 11.8145 4.23066 11.8145 4.21173C11.8145 4.18334 11.6915 3.82369 11.5306 3.40725L11.2561 2.64061H17.7772H24.3077L24.0238 3.41671ZM11.1047 3.75743C11.3602 4.43888 11.3602 4.45781 11.1804 4.65657C11.0857 4.77014 10.5841 5.32855 10.0635 5.90589C9.543 6.47377 9.11709 6.95646 9.11709 6.96593C9.07923 7.04164 7.75419 6.36966 7.77312 6.29394C7.82991 6.11411 10.7261 2.94348 10.7829 3.00027C10.8207 3.03813 10.9627 3.37885 11.1047 3.75743ZM26.7496 5.09194C27.3364 5.745 27.8096 6.29394 27.8096 6.32233C27.8096 6.37912 26.4657 7.01325 26.4373 6.96593C26.4373 6.95646 26.0114 6.47377 25.4908 5.90589C24.9703 5.32855 24.4686 4.77014 24.374 4.65657C24.1752 4.43888 24.1658 4.50514 24.6769 3.1801L24.781 2.90562L25.2353 3.41671C25.4908 3.69118 26.1723 4.44835 26.7496 5.09194ZM23.4559 4.8364C23.4559 4.89318 23.3423 5.25284 23.2004 5.64089L22.9354 6.3318H17.7677H12.6001L12.354 5.59356C12.212 5.19605 12.0984 4.8364 12.0984 4.78907C12.0984 4.75122 14.6539 4.72282 17.7772 4.72282C22.0457 4.72282 23.4559 4.75122 23.4559 4.8364ZM11.8618 5.81125L12.1268 6.53056L11.8524 6.83342C11.7009 7.00378 11.4359 7.28772 11.2655 7.47701L10.9438 7.8272L10.2907 7.5338C9.93104 7.38237 9.64711 7.21201 9.65657 7.17415C9.70389 7.05111 11.4738 5.1014 11.54 5.1014C11.5779 5.1014 11.7198 5.4232 11.8618 5.81125ZM24.9797 6.10465C25.4719 6.6536 25.8789 7.13629 25.8978 7.17415C25.9072 7.21201 25.6233 7.38237 25.2637 7.5338L24.6106 7.8272L24.2888 7.47701C24.1184 7.28772 23.8534 7.00378 23.702 6.83342L23.4275 6.53056L23.6925 5.81125C23.8345 5.4232 23.9765 5.1014 24.0143 5.1014C24.0522 5.1014 24.4876 5.5557 24.9797 6.10465ZM6.35343 6.28448L6.98756 6.55895V17.5V28.441L6.35343 28.7155C6.00325 28.8764 5.68145 29.0089 5.64359 29.0279C5.60573 29.0468 5.56787 23.8602 5.56787 17.5C5.56787 11.1398 5.60573 5.95322 5.64359 5.97215C5.68145 5.98161 6.00325 6.12358 6.35343 6.28448ZM29.9865 17.5095C29.9865 23.8602 29.9486 29.0468 29.9108 29.0279C29.8729 29.0089 29.5511 28.8764 29.2009 28.7155L28.5668 28.441V17.5V6.56841L29.2104 6.26555C29.5606 6.10465 29.8729 5.96268 29.9202 5.96268C29.9581 5.95322 29.9865 11.1493 29.9865 17.5095ZM23.6357 7.5338L24.3077 8.27204V17.5V26.728L23.6357 27.4662L22.9638 28.195H17.7772H12.5906L11.9186 27.4662L11.2466 26.728V17.5V8.27204L11.9186 7.5338L12.5906 6.80503H17.7772H22.9638L23.6357 7.5338ZM8.26528 7.17415L8.88048 7.45808V17.5V27.5419L8.26528 27.8259C7.93402 27.9773 7.63115 28.1003 7.60276 28.1003C7.57436 28.1003 7.55544 23.3302 7.55544 17.5C7.55544 11.6698 7.57436 6.89967 7.60276 6.89967C7.63115 6.89967 7.93402 7.02271 8.26528 7.17415ZM27.9989 17.5095V28.1098L27.7907 28.0435C27.6677 28.0151 27.3743 27.8826 27.1282 27.7596L26.6739 27.5324V17.4905V7.45808L27.2701 7.18361C27.5919 7.03218 27.8853 6.90914 27.9327 6.89967C27.9705 6.89967 27.9989 11.6698 27.9989 17.5095ZM10.1487 8.03542L10.7734 8.3099V17.5V26.6901L10.1487 26.9646C9.808 27.1255 9.50514 27.2485 9.48621 27.2485C9.46728 27.2485 9.44835 22.8569 9.44835 17.5C9.44835 12.1336 9.46728 7.75149 9.48621 7.75149C9.50514 7.75149 9.808 7.87453 10.1487 8.03542ZM26.106 17.5C26.106 22.8569 26.0871 27.2485 26.0681 27.2485C26.0492 27.2485 25.7464 27.1255 25.4056 26.9646L24.781 26.6901V17.5V8.3099L25.3772 8.03542C25.699 7.88399 25.9924 7.76095 26.0398 7.76095C26.0776 7.75149 26.106 12.1336 26.106 17.5ZM11.6347 27.93L12.1174 28.4884L11.8618 29.1888C11.7198 29.5768 11.5779 29.8986 11.54 29.8986C11.4738 29.8986 9.70389 27.9489 9.65657 27.8164C9.64711 27.7785 9.92158 27.6271 10.2718 27.4662C11.0005 27.1444 10.9438 27.1255 11.6347 27.93ZM25.8978 27.8259C25.8505 27.9489 24.0806 29.8986 24.0143 29.8986C23.9765 29.8986 23.8345 29.5768 23.6925 29.1888L23.4275 28.4694L23.702 28.1666C23.8534 27.9962 24.1184 27.7123 24.2888 27.523L24.6106 27.1728L25.2637 27.4662C25.6233 27.6176 25.9072 27.788 25.8978 27.8259ZM10.2055 29.2361C10.8018 29.9081 11.3034 30.4949 11.3223 30.5422C11.3697 30.6842 10.8207 32.0281 10.7261 31.9997C10.6125 31.9619 7.74473 28.7534 7.74473 28.6777C7.74473 28.6209 8.95619 28.0246 9.06977 28.0246C9.09816 28.0151 9.60925 28.5641 10.2055 29.2361ZM27.1755 28.3369C27.5257 28.4884 27.8096 28.6398 27.8096 28.6682C27.8096 28.7534 24.9419 31.9619 24.8283 31.9997C24.7431 32.0281 24.1847 30.6842 24.232 30.5422C24.2793 30.4097 26.4373 28.0151 26.4941 28.0341C26.5224 28.0435 26.8253 28.176 27.1755 28.3369ZM23.2004 29.397C23.3423 29.8039 23.4559 30.1636 23.4559 30.2015C23.4559 30.2488 20.9005 30.2772 17.7772 30.2772C13.5087 30.2772 12.0984 30.2488 12.0984 30.1636C12.0984 30.1068 12.212 29.7472 12.354 29.3591L12.619 28.6682H17.7866H22.9543L23.2004 29.397ZM8.74797 30.6274C9.57139 31.5454 10.3191 32.3878 10.4043 32.5014C10.5462 32.6812 10.5368 32.738 10.2718 33.4762C9.9973 34.2428 9.98783 34.2523 9.79854 34.0914C9.543 33.8548 5.81395 29.7093 5.7761 29.6241C5.7477 29.5484 6.95917 28.9521 7.13899 28.9521C7.19578 28.9521 7.92455 29.7093 8.74797 30.6274ZM29.1536 29.255C29.5133 29.4159 29.7877 29.5863 29.7783 29.6241C29.7404 29.7188 26.0019 33.8643 25.7369 34.1009C25.6328 34.205 25.5381 34.2523 25.5381 34.2239C25.5381 34.1955 25.4151 33.8359 25.2637 33.4194L24.9797 32.6622L26.6455 30.8072C27.5541 29.785 28.3491 28.9521 28.4059 28.9521C28.4627 28.9521 28.7939 29.0846 29.1536 29.255ZM24.0049 31.5265L24.2888 32.3121L21.033 32.3405C19.2442 32.3499 16.3102 32.3499 14.5214 32.3405L11.2655 32.3121L11.5495 31.5265L11.8334 30.7504H17.7772H23.7209L24.0049 31.5265ZM24.7715 33.5992C24.9324 34.0157 25.0649 34.4037 25.0649 34.4511C25.0649 34.4984 22.1214 34.5362 17.7772 34.5362C13.4329 34.5362 10.4895 34.4984 10.4895 34.4511C10.4895 34.4037 10.622 34.0157 10.7829 33.5992L11.0763 32.8326H17.7772H24.4781L24.7715 33.5992Z" fill="currentColor"/>
</svg>
