<svg width="30" height="39" viewBox="0 0 30 39" fill="none" xmlns="http://www.w3.org/2000/svg">
<path fill-rule="evenodd" clip-rule="evenodd" d="M2.21906 6.8157L5.39322 8.17604L9.11672 4.98484L7.29342 2.24961L2.21906 6.8157ZM5.50634 9.55232C5.42191 9.55232 5.33587 9.53581 5.25576 9.50091L0.804047 7.59288C0.604882 7.50763 0.462545 7.3266 0.427637 7.11229C0.391918 6.89851 0.467685 6.68094 0.629239 6.5359L6.98871 0.812368C7.12618 0.688976 7.30666 0.629712 7.49366 0.654062C7.67685 0.676792 7.84111 0.778541 7.9434 0.932511L10.4874 4.74829C10.6654 5.01538 10.6164 5.3742 10.3716 5.58388L5.91983 9.39911C5.80266 9.50031 5.65518 9.55232 5.50634 9.55232Z" fill="currentColor"/>
<path fill-rule="evenodd" clip-rule="evenodd" d="M20.3379 4.98421L24.0608 8.17568L27.2355 6.81534L22.1612 2.24973L20.3379 4.98421ZM23.9482 9.55251C23.7989 9.55251 23.6519 9.49975 23.5342 9.39908L19.0825 5.58331C18.8384 5.37413 18.7886 5.01558 18.9675 4.74772L21.5112 0.931937C21.6137 0.777961 21.7777 0.677028 21.9609 0.653488C22.1474 0.629404 22.3284 0.688396 22.4659 0.811794L28.8256 6.53532C28.9872 6.68037 29.0627 6.89793 29.0272 7.11225C28.9915 7.32657 28.8497 7.50733 28.65 7.59311L24.1983 9.50086C24.1182 9.53523 24.0329 9.55251 23.9482 9.55251Z" fill="currentColor"/>
<path fill-rule="evenodd" clip-rule="evenodd" d="M10.2983 4.46448H19.1572L20.853 1.92079H8.60183L10.2983 4.46448ZM19.4973 5.73657H9.95754C9.74538 5.73657 9.54622 5.63022 9.42851 5.45352L6.88454 1.63774C6.75492 1.44237 6.7422 1.19179 6.85288 0.984504C6.96356 0.778031 7.17922 0.648682 7.41384 0.648682H22.0411C22.2757 0.648682 22.4914 0.778031 22.6018 0.984504C22.7125 1.19179 22.6998 1.44237 22.5702 1.63774L20.0319 5.44514C20.0148 5.47139 19.9964 5.49601 19.9761 5.51901C19.9569 5.5412 19.9361 5.5615 19.9136 5.58071C19.8024 5.67677 19.6582 5.73577 19.4996 5.73658L19.4973 5.73657Z" fill="currentColor"/>
<path fill-rule="evenodd" clip-rule="evenodd" d="M2.21905 32.6397L7.29342 37.2059L9.11672 34.4707L5.39322 31.2795L2.21905 32.6397ZM7.41437 38.8068C7.2585 38.8068 7.10642 38.7488 6.98871 38.6433L0.629239 32.9195C0.467691 32.7745 0.391918 32.5572 0.427636 32.3434C0.462544 32.1291 0.604883 31.9478 0.804047 31.8625L5.25577 29.9548C5.47847 29.8592 5.73609 29.8988 5.91983 30.0565L10.3715 33.8715C10.6164 34.0815 10.6654 34.4403 10.4874 34.7073L7.9434 38.5231C7.84111 38.6768 7.67685 38.7786 7.49365 38.8016C7.46713 38.8048 7.44034 38.8068 7.41437 38.8068Z" fill="currentColor"/>
<path fill-rule="evenodd" clip-rule="evenodd" d="M1.68981 7.97304V31.4827L4.86965 30.1197V9.33595L1.68981 7.97304ZM1.05389 33.083C0.931577 33.083 0.80899 33.0481 0.703457 32.978C0.5254 32.8603 0.417969 32.6606 0.417969 32.4471V7.00876C0.417969 6.79499 0.5254 6.59556 0.703457 6.47784C0.881513 6.35959 1.10855 6.33983 1.30447 6.42426L5.75619 8.33229C5.99026 8.43268 6.14153 8.66242 6.14153 8.91679V30.5394C6.14153 30.7938 5.99026 31.0241 5.75619 31.1239L1.30447 33.0317C1.22437 33.0669 1.13913 33.083 1.05389 33.083Z" fill="currentColor"/>
<path fill-rule="evenodd" clip-rule="evenodd" d="M20.3378 34.4708L22.1612 37.2056L27.2355 32.64L24.0608 31.2796L20.3378 34.4708ZM22.0405 38.8061C22.0142 38.8061 21.9877 38.8051 21.9609 38.8018C21.7777 38.7783 21.6137 38.6771 21.5112 38.5231L18.9675 34.7076C18.7886 34.4397 18.8384 34.0811 19.0825 33.8717L23.5342 30.056C23.7188 29.899 23.9775 29.8595 24.1983 29.9542L28.65 31.8622C28.8497 31.948 28.9915 32.1288 29.0272 32.3431C29.0627 32.5574 28.9872 32.7747 28.8256 32.9197L22.4659 38.6436C22.3482 38.7491 22.1963 38.8061 22.0405 38.8061Z" fill="currentColor"/>
<path fill-rule="evenodd" clip-rule="evenodd" d="M19.4969 37.5348H20.8529L19.1567 34.9908H10.2979L8.60184 37.5348H19.4969ZM22.0409 38.8066H7.41357C7.17896 38.8066 6.96329 38.6775 6.85288 38.4708C6.7422 38.2635 6.75492 38.0129 6.88454 37.8178L9.42851 34.002C9.54676 33.8251 9.74511 33.719 9.95754 33.719H19.4994C19.6577 33.7195 19.8022 33.7783 19.9134 33.8741C19.9356 33.893 19.9567 33.9141 19.9756 33.9366C19.9959 33.9593 20.0143 33.9842 20.0317 34.0102L22.5697 37.8178C22.6996 38.0129 22.7123 38.2635 22.6016 38.4708C22.4909 38.6776 22.2755 38.8066 22.0409 38.8066Z" fill="currentColor"/>
<path fill-rule="evenodd" clip-rule="evenodd" d="M24.5846 30.1202L27.7645 31.4829V7.97324L24.5846 9.33546V30.1202ZM28.4004 33.083C28.3152 33.083 28.2299 33.066 28.1498 33.0316L23.6981 31.1236C23.464 31.0237 23.3125 30.7937 23.3125 30.5394V8.91671C23.3125 8.66234 23.464 8.43206 23.6981 8.3322L28.1498 6.42445C28.3457 6.34057 28.572 6.36005 28.7508 6.47776C28.9289 6.59547 29.0363 6.79518 29.0363 7.00896V32.4473C29.0363 32.661 28.9289 32.8607 28.7508 32.9785C28.6453 33.0483 28.5224 33.083 28.4004 33.083Z" fill="currentColor"/>
<path fill-rule="evenodd" clip-rule="evenodd" d="M6.14293 12.6288V26.8259L8.6479 19.7273L6.14293 12.6288ZM5.50755 31.1743C5.47129 31.1743 5.43584 31.1718 5.39958 31.1653C5.09434 31.1126 4.87109 30.8479 4.87109 30.5383V8.91568C4.87109 8.60611 5.09434 8.34146 5.39958 8.28869C5.70212 8.23917 6.00303 8.41208 6.10667 8.70407L9.92245 19.5151C9.97089 19.652 9.97089 19.8019 9.92245 19.9388L6.10667 30.7498C6.01574 31.0074 5.77274 31.1743 5.50755 31.1743Z" fill="currentColor"/>
<path fill-rule="evenodd" clip-rule="evenodd" d="M20.8073 19.7275L23.3126 26.826V12.6289L20.8073 19.7275ZM23.9477 31.1751C23.6825 31.1751 23.4403 31.0087 23.3486 30.7511L19.5328 19.9394C19.4852 19.8027 19.4852 19.6525 19.5328 19.5159L23.3486 8.70421C23.4525 8.41224 23.755 8.23877 24.0559 8.28884C24.3617 8.3416 24.5844 8.60625 24.5844 8.9161V30.5388C24.5844 30.8486 24.3617 31.113 24.0559 31.1657C24.0202 31.1722 23.984 31.1751 23.9477 31.1751Z" fill="currentColor"/>
<path fill-rule="evenodd" clip-rule="evenodd" d="M20.0095 6.37614L19.6093 10.3752L22.8084 8.7756L20.0095 6.37614ZM18.8616 12.0959C18.735 12.0959 18.6091 12.0577 18.5009 11.9833C18.3101 11.8518 18.2059 11.6272 18.2287 11.3963L18.8646 5.0366C18.8881 4.8009 19.0416 4.59795 19.2608 4.50946C19.4797 4.42233 19.7316 4.46319 19.9116 4.61689L24.3633 8.43267C24.5254 8.57203 24.6068 8.78202 24.58 8.99364C24.554 9.20471 24.4242 9.38926 24.2342 9.48478L19.1463 12.0285C19.0562 12.0737 18.9587 12.0959 18.8616 12.0959Z" fill="currentColor"/>
<path fill-rule="evenodd" clip-rule="evenodd" d="M6.64772 8.77559L9.84654 10.3751L9.44659 6.37613L6.64772 8.77559ZM10.5945 12.0959C10.4979 12.0959 10.3999 12.0737 10.3104 12.0285L5.2225 9.48457C5.03172 9.38932 4.9021 9.20477 4.87585 8.9937C4.84988 8.78182 4.93133 8.5721 5.09342 8.43274L9.54513 4.61696C9.72454 4.46298 9.97648 4.42239 10.1951 4.50952C10.4151 4.59801 10.5677 4.80069 10.5913 5.03666L11.2275 11.3964C11.2502 11.6272 11.146 11.8518 10.9552 11.9834C10.8478 12.0578 10.7212 12.0959 10.5945 12.0959Z" fill="currentColor"/>
<path fill-rule="evenodd" clip-rule="evenodd" d="M11.2577 5.73622L14.4419 9.82993L18.081 5.73622H11.2577ZM14.4088 11.4598H14.3877C14.1989 11.4535 14.0227 11.3637 13.9071 11.2143L9.45515 5.49078C9.30659 5.2992 9.27899 5.03915 9.38588 4.82103C9.49277 4.60293 9.71412 4.46411 9.95712 4.46411H19.4962C19.7468 4.46411 19.9738 4.61105 20.0764 4.83944C20.1787 5.06837 20.1381 5.33546 19.9714 5.52299L14.8835 11.2468C14.7634 11.3821 14.5901 11.4598 14.4088 11.4598Z" fill="currentColor"/>
<path fill-rule="evenodd" clip-rule="evenodd" d="M10.8095 7.23219L11.1586 10.7211L13.2522 10.3717L10.8095 7.23219ZM10.5933 12.096C10.4547 12.096 10.3191 12.0508 10.2071 11.9648C10.0672 11.8582 9.97764 11.6977 9.96059 11.5234L9.3244 5.16396C9.29653 4.88145 9.45808 4.61517 9.72138 4.50964C9.98143 4.40465 10.2853 4.48529 10.459 4.70988L14.9107 10.4334C15.0487 10.6104 15.0831 10.8469 15.0017 11.0555C14.9202 11.2642 14.7346 11.4149 14.5132 11.4512L10.6974 12.0871C10.6631 12.0933 10.6282 12.096 10.5933 12.096Z" fill="currentColor"/>
<path fill-rule="evenodd" clip-rule="evenodd" d="M15.6716 10.3618L18.2943 10.7363L18.6694 6.98845L15.6716 10.3618ZM18.8615 12.0961C18.8318 12.0961 18.8012 12.0934 18.7714 12.0891L14.3194 11.4532C14.0881 11.4207 13.8927 11.2629 13.812 11.0421C13.7319 10.8229 13.7782 10.5761 13.9349 10.4011L19.0225 4.67752C19.2049 4.47078 19.5015 4.40665 19.7526 4.51787C20.005 4.62855 20.1577 4.88914 20.1303 5.16326L19.4944 11.523C19.4765 11.6954 19.39 11.8537 19.2538 11.9606C19.1407 12.0482 19.0027 12.0961 18.8615 12.0961Z" fill="currentColor"/>
<path fill-rule="evenodd" clip-rule="evenodd" d="M6.62996 10.1881L9.07896 17.1266L9.8948 11.8206L6.62996 10.1881ZM9.32142 20.3631C9.05487 20.3631 8.81323 20.1946 8.7223 19.9388L4.90652 9.12716C4.81993 8.88254 4.8911 8.61031 5.08512 8.43847C5.28049 8.26691 5.55949 8.23065 5.7911 8.3462L10.8787 10.8902C11.1255 11.0136 11.2648 11.2825 11.2229 11.5553L9.95081 19.8225C9.90643 20.1113 9.67155 20.3326 9.38092 20.3594C9.36143 20.3613 9.34172 20.3631 9.32142 20.3631Z" fill="currentColor"/>
<path fill-rule="evenodd" clip-rule="evenodd" d="M19.5611 11.8208L20.377 17.1266L22.8259 10.188L19.5611 11.8208ZM20.134 20.3631C20.1142 20.3631 20.0945 20.362 20.0747 20.3601C19.7841 20.3333 19.5489 20.112 19.5051 19.8232L18.233 11.556C18.1911 11.2832 18.3299 11.0142 18.5772 10.8908L23.6648 8.34688C23.8951 8.23106 24.1749 8.26732 24.37 8.43915C24.5649 8.61072 24.6352 8.88294 24.5494 9.12784L20.7336 19.9395C20.6427 20.1952 20.4011 20.3631 20.134 20.3631Z" fill="currentColor"/>
<path fill-rule="evenodd" clip-rule="evenodd" d="M19.6096 29.0798L20.0095 33.0788L22.8083 30.6793L19.6096 29.0798ZM19.4975 34.9906C19.4174 34.9906 19.3373 34.9757 19.261 34.9446C19.041 34.8563 18.8884 34.6534 18.8649 34.418L18.2287 28.0585C18.2059 27.8277 18.3101 27.6025 18.5009 27.4715C18.6911 27.3398 18.9385 27.3219 19.1457 27.4255L24.2336 29.9695C24.4244 30.0648 24.554 30.2493 24.5803 30.4612C24.6062 30.6723 24.5248 30.8828 24.3632 31.0214L19.9115 34.8371C19.7946 34.9375 19.6469 34.9906 19.4975 34.9906Z" fill="currentColor"/>
<path fill-rule="evenodd" clip-rule="evenodd" d="M6.64778 30.679L9.44661 33.0785L9.84656 29.0795L6.64778 30.679ZM9.95862 34.9902C9.80979 34.9902 9.6615 34.938 9.54514 34.8376L5.09342 31.0218C4.93133 30.8825 4.84988 30.6725 4.87585 30.4609C4.9021 30.2495 5.03172 30.0653 5.2225 29.9697L10.3104 27.426C10.5182 27.3216 10.7644 27.34 10.9552 27.4712C11.146 27.6027 11.2502 27.8273 11.2274 28.0582L10.5912 34.4176C10.5677 34.6536 10.4151 34.8566 10.1951 34.945C10.1188 34.9756 10.0388 34.9902 9.95862 34.9902Z" fill="currentColor"/>
<path fill-rule="evenodd" clip-rule="evenodd" d="M11.2574 33.7185H18.0807L14.4416 29.6248L11.2574 33.7185ZM19.4962 34.9903H9.95712C9.71412 34.9903 9.49277 34.8518 9.38588 34.6337C9.27899 34.4156 9.30659 34.1555 9.45515 33.9639L13.9071 28.2404C14.0227 28.0908 14.1989 28.0012 14.3877 27.9947C14.5926 27.9866 14.7593 28.0672 14.8838 28.2079L19.9716 33.9315C20.1383 34.1193 20.1789 34.3863 20.0766 34.6153C19.9741 34.8434 19.7468 34.9903 19.4962 34.9903Z" fill="currentColor"/>
<path fill-rule="evenodd" clip-rule="evenodd" d="M11.1586 28.7342L10.8095 32.2231L13.252 29.0825L11.1586 28.7342ZM9.95713 34.9908C9.87784 34.9908 9.79747 34.9754 9.72116 34.9456C9.45787 34.8401 9.29632 34.5735 9.32446 34.291L9.96038 27.9316C9.97823 27.7565 10.0673 27.5963 10.2072 27.4894C10.3471 27.3833 10.5246 27.3387 10.6975 27.3679L14.5133 28.0041C14.7346 28.0404 14.9203 28.1911 15.0017 28.3994C15.0832 28.6081 15.0488 28.8449 14.9108 29.0216L10.4591 34.7451C10.3362 34.9037 10.1492 34.9908 9.95713 34.9908Z" fill="currentColor"/>
<path fill-rule="evenodd" clip-rule="evenodd" d="M15.6716 29.0934L18.6693 32.4667L18.2942 28.7188L15.6716 29.0934ZM19.4974 34.9907C19.3193 34.9907 19.1451 34.9162 19.0225 34.7777L13.9349 29.0542C13.7782 28.8791 13.7319 28.6323 13.812 28.4131C13.8927 28.1923 14.0881 28.0345 14.3194 28.0021L18.7714 27.3661C18.943 27.3421 19.1173 27.3878 19.2539 27.4947C19.39 27.6016 19.4766 27.7599 19.4945 27.9322L20.1304 34.292C20.1577 34.5658 20.0051 34.8267 19.7526 34.9374C19.6706 34.9736 19.5834 34.9907 19.4974 34.9907Z" fill="currentColor"/>
<path fill-rule="evenodd" clip-rule="evenodd" d="M9.07856 22.3274L6.62956 29.2659L9.8944 27.6334L9.07856 22.3274ZM5.50634 31.1744C5.35508 31.1744 5.20435 31.1203 5.08556 31.0156C4.89072 30.8437 4.82037 30.5715 4.90615 30.3266L8.72193 19.5149C8.81989 19.2403 9.0932 19.0641 9.38139 19.0941C9.67202 19.1207 9.90663 19.342 9.95046 19.6302L11.2226 27.8974C11.265 28.1702 11.1257 28.4392 10.8783 28.5634L5.79075 31.1071C5.70037 31.1517 5.60322 31.1744 5.50634 31.1744Z" fill="currentColor"/>
<path fill-rule="evenodd" clip-rule="evenodd" d="M19.5611 27.6331L22.8259 29.2656L20.3769 22.3271L19.5611 27.6331ZM23.9492 31.1742C23.8523 31.1742 23.7552 31.1525 23.6648 31.1073L18.5772 28.5634C18.3299 28.44 18.1911 28.171 18.233 27.8982L19.5051 19.631C19.5489 19.3423 19.7841 19.1209 20.0747 19.0941C20.361 19.0654 20.6357 19.2405 20.7336 19.5152L24.5494 30.3269C24.6352 30.5718 24.5648 30.8437 24.37 31.0155C24.2512 31.1205 24.101 31.1742 23.9492 31.1742Z" fill="currentColor"/>
</svg>
