<svg width="35" height="35" viewBox="0 0 35 35" fill="none" xmlns="http://www.w3.org/2000/svg">
<g clip-path="url(#clip0_400_2)">
<path d="M11.1989 35C10.0699 35 9.03495 34.9059 8 34.7177V0.282258C9.03495 0.0940858 10.164 0 11.1989 0C21.078 0 28.9812 7.80914 28.9812 17.5C28.9812 27.1909 21.078 35 11.1989 35Z" stroke="currentColor" stroke-width="0.7"/>
<path d="M28.9811 17.5005L24.8413 11.3849L27.3816 10.2559" stroke="currentColor" stroke-width="0.7"/>
<path d="M22.4893 17.499L24.9355 11.3834L20.7017 9.03125L22.4893 17.499Z" stroke="currentColor" stroke-width="0.7"/>
<path d="M13.3627 17.5011V6.96348L11.1987 4.61133L13.3627 17.5011Z" stroke="currentColor" stroke-width="0.7"/>
<path d="M8 17.5006L11.1989 4.61082L8 0.376953" stroke="currentColor" stroke-width="0.7"/>
<path d="M24.2767 5.45682L24.9353 11.3842L20.7014 9.03209L19.196 4.42188L24.2767 5.45682Z" stroke="currentColor" stroke-width="0.7"/>
<path d="M13.3628 6.8667L17.1262 5.36133L20.7015 9.03068L13.3628 6.8667Z" stroke="currentColor" stroke-width="0.7"/>
<path d="M11.1987 4.61022L17.1261 5.3629L19.196 4.42204L12.9864 0L11.1987 4.61022Z" stroke="currentColor" stroke-width="0.7"/>
<path d="M19.196 4.51527L19.3842 1.88086" stroke="currentColor" stroke-width="0.7"/>
<path d="M28.9811 17.5L24.8413 23.6156L27.3816 24.7446" stroke="currentColor" stroke-width="0.7"/>
<path d="M22.4893 17.5L24.9355 23.6156L20.7017 25.9677L22.4893 17.5Z" stroke="currentColor" stroke-width="0.7"/>
<path d="M13.3627 17.5V28.0376L11.1987 30.3898L13.3627 17.5Z" stroke="currentColor" stroke-width="0.7"/>
<path d="M8 17.5L11.1989 30.3898L8 34.6237" stroke="currentColor" stroke-width="0.7"/>
<path d="M24.2767 29.5427L24.9353 23.6152L20.7014 25.9674L19.196 30.5776L24.2767 29.5427Z" stroke="currentColor" stroke-width="0.7"/>
<path d="M13.3628 28.1308L17.1262 29.6362L20.7015 25.9668L13.3628 28.1308Z" stroke="currentColor" stroke-width="0.7"/>
<path d="M11.1987 30.3894L17.1261 29.6367L19.196 30.5776L12.9864 34.9996L11.1987 30.3894Z" stroke="currentColor" stroke-width="0.7"/>
<path d="M19.196 30.4844L19.3842 33.1188" stroke="currentColor" stroke-width="0.7"/>
</g>
<defs>
<clipPath id="clip0_400_2">
<rect width="35" height="35" fill="white"/>
</clipPath>
</defs>
</svg>
