<svg width="35" height="35" viewBox="0 0 35 35" fill="none" xmlns="http://www.w3.org/2000/svg">
<path fill-rule="evenodd" clip-rule="evenodd" d="M10.872 2.18159L8.81722 7.6429H14.1155C15.0599 6.54301 16.0196 5.37729 17.0279 4.10282C15.0646 3.96736 13.1262 3.2977 10.872 2.18159ZM17.5363 4.84499C16.7493 5.83614 15.9909 6.76241 15.2449 7.6429H17.5363V4.84499ZM18.3949 7.6429H20.6806C19.9365 6.76146 19.181 5.83614 18.3949 4.84499V7.6429ZM18.8776 4.07134C19.8304 5.28139 20.8075 6.47215 21.8082 7.6429H26.7525L24.6128 2.23405C22.4731 3.28434 20.6396 3.892 18.8776 4.07134ZM25.5477 2.26362L27.6397 7.55132L30.8479 5.27713C29.6459 3.98931 27.9593 2.93806 25.5477 2.26362ZM31.405 5.93439L28.4 8.06454L33.4112 10.3578C33.0086 8.72467 32.3953 7.22221 31.405 5.93439ZM33.4608 11.3242L27.737 8.70655L27.1513 13.379C28.4222 14.6337 29.7147 15.8664 31.0282 17.0764L33.4608 11.3242ZM30.0885 17.3769C29.0856 16.4472 28.0947 15.5046 27.116 14.5494V17.3769H30.0885ZM27.116 18.2355V20.9571C28.0366 20.0718 29.0077 19.1732 30.0551 18.2355H27.116ZM31.0329 18.515C29.7103 19.6859 28.4157 20.8882 27.1503 22.1209L27.426 26.2476L33.5151 24.0526L31.0329 18.515ZM33.4818 24.977L28.0299 26.9421L31.4069 29.3327C31.529 29.161 31.6454 28.9893 31.7551 28.8176C32.5061 27.6238 33.0869 26.3312 33.4808 24.977H33.4818ZM30.887 30.0157L27.2944 27.4744L25.5496 33.2667C27.9316 32.8069 29.6526 31.5067 30.8851 30.0138L30.887 30.0157ZM24.6786 33.1857L26.4578 27.275H22.2661C21.0967 28.6078 19.9508 29.961 18.829 31.334C20.6348 31.5086 22.5065 32.123 24.6786 33.1857ZM18.394 30.5098C19.2891 29.4193 20.1989 28.3409 21.1232 27.275H18.3949V30.5089L18.394 30.5098ZM17.5354 27.275H14.7985C15.7263 28.3403 16.639 29.4187 17.5363 30.5098V27.276L17.5354 27.275ZM17.0756 31.3035C15.9602 29.94 14.8201 28.5969 13.6557 27.275H8.80005L10.8644 33.2038C13.1253 32.0848 15.0885 31.4266 17.0756 31.3035ZM9.97437 33.2601L8.00731 27.607L4.5225 30.133C5.71304 31.5544 7.44543 32.785 9.97437 33.2601ZM4.00068 29.451L7.40631 26.9822L2.10803 24.8969C2.30073 25.8928 2.74909 27.4849 3.71831 29.0265C3.80799 29.1686 3.90243 29.3107 4.00068 29.451ZM2.15859 23.9944L7.93385 26.2667L8.71991 22.0904C7.45614 20.865 6.16447 19.6688 4.84589 18.5026L2.15859 23.9925V23.9944ZM5.83896 18.2364C6.89881 19.1846 7.88043 20.0928 8.81436 20.9866V18.2364H5.83896ZM8.81436 17.3779V14.5208C7.82328 15.4856 6.82027 16.438 5.80557 17.3779H8.81436ZM4.84208 17.0993C6.18647 15.8617 7.5098 14.6013 8.81149 13.3189L7.88138 8.68365L2.03553 11.3165L4.84208 17.0974V17.0993ZM2.09659 10.3492L7.31187 8.00063L4.14855 5.89814C3.16979 7.1955 2.55258 8.70846 2.09754 10.3483L2.09659 10.3492ZM4.70089 5.2342L7.98441 7.41682L9.9467 2.20353C7.54082 2.87701 5.8857 3.93588 4.70089 5.2342ZM12.074 1.80478C14.0945 2.73296 15.8097 3.22615 17.5354 3.26717V1.41939C15.4672 1.448 13.5383 1.6159 12.074 1.80478ZM18.394 1.41462V3.24809C19.9432 3.15079 21.5706 2.68908 23.4938 1.81241C21.8454 1.53767 20.0873 1.42606 18.394 1.41462ZM8.8487 9.14155L11.1248 10.9559C10.6058 11.5045 10.0793 12.0473 9.54127 12.5891L8.8487 9.14155ZM9.67292 13.6728V21.6706L9.64907 21.7965C11.1653 23.2859 12.6305 24.8265 14.042 26.4155H21.8778C23.2873 24.8218 24.7509 23.2768 26.266 21.7832L26.2565 21.6449V13.7004C24.5776 12.0287 22.962 10.2944 21.4132 8.50145H14.5085C12.9613 10.2852 11.348 12.0105 9.67196 13.6737L9.67292 13.6728ZM13.3676 8.5024H9.42393L11.7153 10.3273C12.2686 9.73204 12.8171 9.12723 13.3676 8.5024ZM22.5523 8.5024C23.0388 9.05569 23.5224 9.59371 24.0099 10.1241L26.2985 8.5024H22.5523ZM26.8107 9.19115L24.5995 10.7585C25.1833 11.3814 25.7747 11.9948 26.3824 12.6091L26.8107 9.19115ZM26.3423 22.9184C25.7914 23.47 25.2475 24.0287 24.7111 24.5944L26.5408 25.8889L26.3423 22.9184ZM25.7967 26.4155L24.1177 25.2269C23.7533 25.618 23.3917 26.013 23.0302 26.4155H25.7967ZM12.8877 26.4155C12.4565 25.9386 12.0263 25.4711 11.5922 25.0094L9.65193 26.4155H12.8877ZM8.8735 25.9195L10.9951 24.3808C10.4888 23.8525 9.97618 23.3303 9.45732 22.8144L8.8735 25.9195ZM1.63773 12.4641L4.02263 17.3769H1.43358C1.38493 15.697 1.42404 13.9666 1.63773 12.4641ZM1.46602 18.2355C1.47174 18.3786 1.47937 18.5217 1.48701 18.6647C1.57 20.2283 1.71119 21.6601 1.82757 22.7152L4.01976 18.2355H1.46602ZM12.1389 33.5491C14.6859 33.8591 16.1731 34.0165 17.5354 34.0366V32.1439C15.823 32.1811 14.1183 32.6524 12.1389 33.5491ZM18.394 32.1621V34.0318C19.7114 33.9955 21.1003 33.8324 23.4289 33.5491C21.5477 32.7068 19.9356 32.2584 18.394 32.1621ZM33.8338 22.6656L31.8476 18.2355H34.0322C34.0103 19.7138 33.9441 21.1912 33.8338 22.6656ZM34.0398 17.3769C34.0436 15.7629 33.9864 14.1049 33.8233 12.6711L31.8324 17.3769H34.0398ZM10.5658 1.15991C13.3571 0.678173 19.864 0.0552489 24.9343 1.22192C28.1253 1.95645 30.2908 3.28816 31.7675 5.01861C33.2404 6.74524 33.9979 8.83247 34.4386 11.0227C34.8822 13.2254 34.9423 16.3495 34.8755 19.0053C34.8087 21.6544 34.6112 23.9124 34.5158 24.3846C34.4233 24.8425 33.8958 27.0594 32.4782 29.2802C31.0568 31.5067 28.712 33.7733 24.9934 34.2245L23.9202 34.3552C21.087 34.7005 19.5339 34.8894 17.9418 34.898C16.1579 34.9066 14.3263 34.6862 10.5868 34.2245C6.68512 33.7418 4.35556 31.6527 2.99235 29.4834C1.63773 27.3275 1.2323 25.0962 1.14167 24.2692C1.12405 24.113 1.10593 23.9568 1.0873 23.8008C0.969011 22.7848 0.743877 20.8684 0.629402 18.7096C0.492986 16.1607 0.504434 13.2225 1.0396 11.0065C1.56428 8.82961 2.32172 6.73284 3.76983 4.99476C5.22461 3.24618 7.34812 1.89922 10.5429 1.16468L10.5543 1.16182L10.5658 1.15991Z" fill="currentColor"/>
</svg>
