<svg width="40" height="54" viewBox="0 0 40 54" fill="none" xmlns="http://www.w3.org/2000/svg">
<path d="M3.76744 4.19091L0 8.38183V27L0.0146025 45.6182L3.76744 49.8091L7.52028 54H19.7134H31.9064L35.6593 49.8091L39.4267 45.6182V27.0438V8.45484L37.9081 6.74635C37.0757 5.79719 35.3818 3.89886 34.1406 2.54083L31.8918 0.0584106L19.7134 0.0292053L7.52028 0L3.76744 4.19091ZM30.9573 0.846943C30.9573 0.919956 30.7528 1.51866 30.5046 2.16117L30.0519 3.34397H19.7134H9.3748L8.92212 2.16117C8.67388 1.51866 8.46944 0.919956 8.46944 0.846943C8.46944 0.773933 13.0108 0.715523 19.7134 0.715523C26.4159 0.715523 30.9573 0.773933 30.9573 0.846943ZM8.16279 2.42401L8.60087 3.60682L6.03083 6.4689C4.61439 8.04597 3.40238 9.33099 3.31476 9.33099C3.03732 9.33099 1.1536 8.41103 1.1974 8.29421C1.28502 8.06057 7.6079 1.12439 7.68091 1.1828C7.69551 1.21201 7.91455 1.7669 8.16279 2.42401ZM35.1628 4.83342C36.8275 6.67334 38.2001 8.2358 38.2293 8.29421C38.2731 8.41103 36.3894 9.33099 36.112 9.33099C36.0243 9.33099 34.7977 8.04597 33.3959 6.4689L30.8259 3.60682L31.2639 2.43861C31.4976 1.7961 31.6874 1.24121 31.6874 1.1974C31.6874 1.02217 32.2423 1.60627 35.1628 4.83342ZM29.351 5.2715C29.1028 5.92861 28.9129 6.48351 28.9129 6.51271C28.9129 6.54192 24.7804 6.55652 19.7134 6.55652C14.6609 6.55652 10.5138 6.52731 10.5138 6.49811C10.5138 6.4543 10.324 5.89941 10.0757 5.2569L9.65225 4.07409H19.7134H29.7891L29.351 5.2715ZM9.4186 5.79719C9.81287 6.84857 9.81287 6.87777 9.53543 7.18443C9.3894 7.35965 8.61547 8.2212 7.81233 9.11195C7.00919 9.9881 6.35208 10.7328 6.35208 10.7474C6.29367 10.8643 4.24932 9.82747 4.27853 9.71066C4.36614 9.43321 8.83451 4.54137 8.92212 4.62899C8.98053 4.6874 9.19957 5.21309 9.4186 5.79719ZM33.5565 7.85614C34.4619 8.86371 35.192 9.71066 35.192 9.75446C35.192 9.84208 33.1184 10.8204 33.0746 10.7474C33.0746 10.7328 32.4175 9.9881 31.6144 9.11195C30.8113 8.2212 30.0373 7.35965 29.8913 7.18443C29.5846 6.84857 29.57 6.95078 30.3586 4.90644L30.5192 4.48296L31.2201 5.2715C31.6144 5.69497 32.6658 6.86317 33.5565 7.85614ZM28.4749 7.46187C28.4749 7.54948 28.2996 8.10438 28.0806 8.70308L27.6717 9.76907H19.6988H11.7258L11.3461 8.63007C11.1271 8.01677 10.9519 7.46187 10.9519 7.38886C10.9519 7.33045 14.8945 7.28664 19.7134 7.28664C26.2991 7.28664 28.4749 7.33045 28.4749 7.46187ZM10.5868 8.96593L10.9957 10.0757L10.5722 10.543C10.3386 10.8058 9.92969 11.2439 9.66685 11.536L9.17036 12.0763L8.16279 11.6236C7.6079 11.3899 7.16982 11.1271 7.18442 11.0687C7.25744 10.8789 9.9881 7.87074 10.0903 7.87074C10.1487 7.87074 10.3678 8.36723 10.5868 8.96593ZM30.8259 9.41861C31.5852 10.2655 32.2131 11.0103 32.2423 11.0687C32.2569 11.1271 31.8188 11.3899 31.2639 11.6236L30.2564 12.0763L29.7599 11.536C29.497 11.2439 29.0882 10.8058 28.8545 10.543L28.431 10.0757L28.8399 8.96593C29.059 8.36723 29.278 7.87074 29.3364 7.87074C29.3948 7.87074 30.0665 8.57166 30.8259 9.41861ZM2.08816 9.69605L3.06652 10.1195V27V43.8805L2.08816 44.3039C1.54786 44.5522 1.05138 44.7566 0.992969 44.7858C0.934559 44.815 0.876149 36.8129 0.876149 27C0.876149 17.1871 0.934559 9.18496 0.992969 9.21417C1.05138 9.22877 1.54786 9.44781 2.08816 9.69605ZM38.5506 27.0146C38.5506 36.8129 38.4922 44.815 38.4338 44.7858C38.3753 44.7566 37.8789 44.5522 37.3386 44.3039L36.3602 43.8805V27V10.1341L37.3532 9.66685C37.8935 9.41861 38.3753 9.19957 38.4484 9.19957C38.5068 9.18496 38.5506 17.2017 38.5506 27.0146ZM28.7523 11.6236L29.7891 12.7626V27V41.2374L28.7523 42.3764L27.7155 43.5008H19.7134H11.7112L10.6744 42.3764L9.63764 41.2374V27V12.7626L10.6744 11.6236L11.7112 10.4992H19.7134H27.7155L28.7523 11.6236ZM5.03786 11.0687L5.98702 11.5068V27V42.4932L5.03786 42.9313C4.52677 43.165 4.05949 43.3548 4.01568 43.3548C3.97188 43.3548 3.94267 35.9951 3.94267 27C3.94267 18.0049 3.97188 10.6452 4.01568 10.6452C4.05949 10.6452 4.52677 10.835 5.03786 11.0687ZM35.484 27.0146V43.3694L35.1628 43.2672C34.973 43.2234 34.5203 43.0189 34.1406 42.8291L33.4397 42.4786V26.9854V11.5068L34.3597 11.0833C34.8561 10.8496 35.3088 10.6598 35.3818 10.6452C35.4402 10.6452 35.484 18.0049 35.484 27.0146ZM7.94375 12.3975L8.90752 12.821V27V41.179L7.94375 41.6025C7.41806 41.8507 6.95078 42.0406 6.92158 42.0406C6.89237 42.0406 6.86317 35.265 6.86317 27C6.86317 18.7204 6.89237 11.9594 6.92158 11.9594C6.95078 11.9594 7.41806 12.1493 7.94375 12.3975ZM32.5635 27C32.5635 35.265 32.5343 42.0406 32.5051 42.0406C32.4759 42.0406 32.0087 41.8507 31.483 41.6025L30.5192 41.179V27V12.821L31.4392 12.3975C31.9356 12.1639 32.3883 11.974 32.4613 11.974C32.5197 11.9594 32.5635 18.7204 32.5635 27ZM10.2363 43.0919L10.9811 43.9535L10.5868 45.0341C10.3678 45.6328 10.1487 46.1293 10.0903 46.1293C9.9881 46.1293 7.25744 43.1211 7.18442 42.9167C7.16982 42.8583 7.59329 42.6247 8.13359 42.3764C9.25798 41.8799 9.17036 41.8507 10.2363 43.0919ZM32.2423 42.9313C32.1693 43.1211 29.4386 46.1293 29.3364 46.1293C29.278 46.1293 29.059 45.6328 28.8399 45.0341L28.431 43.9243L28.8545 43.457C29.0882 43.1942 29.497 42.7561 29.7599 42.464L30.2564 41.9237L31.2639 42.3764C31.8188 42.6101 32.2569 42.8729 32.2423 42.9313ZM8.03137 45.1071C8.95133 46.1439 9.72526 47.0492 9.75446 47.1222C9.82747 47.3413 8.98053 49.4148 8.83451 49.371C8.65928 49.3126 4.23472 44.3624 4.23472 44.2455C4.23472 44.1579 6.10384 43.238 6.27907 43.238C6.32288 43.2234 7.11141 44.0703 8.03137 45.1071ZM34.2136 43.7198C34.7539 43.9535 35.192 44.1871 35.192 44.2309C35.192 44.3624 30.7674 49.3126 30.5922 49.371C30.4608 49.4148 29.5992 47.3413 29.6723 47.1222C29.7453 46.9178 33.0746 43.2234 33.1623 43.2526C33.2061 43.2672 33.6733 43.4716 34.2136 43.7198ZM28.0806 45.3553C28.2996 45.9832 28.4749 46.5381 28.4749 46.5965C28.4749 46.6696 24.5322 46.7134 19.7134 46.7134C13.1276 46.7134 10.9519 46.6696 10.9519 46.5381C10.9519 46.4505 11.1271 45.8956 11.3461 45.2969L11.755 44.2309H19.728H27.7009L28.0806 45.3553ZM5.78259 47.2537C7.053 48.6701 8.2066 49.9697 8.33802 50.1449C8.55706 50.4224 8.54246 50.51 8.13359 51.649C7.71011 52.8318 7.69551 52.8464 7.40346 52.5982C7.00919 52.2331 1.25581 45.8372 1.1974 45.7058C1.1536 45.589 3.02272 44.669 3.30016 44.669C3.38778 44.669 4.51217 45.8372 5.78259 47.2537ZM37.2656 45.1363C37.8204 45.3845 38.2439 45.6474 38.2293 45.7058C38.1709 45.8518 32.4029 52.2477 31.9941 52.6128C31.8334 52.7734 31.6874 52.8464 31.6874 52.8026C31.6874 52.7588 31.4976 52.2039 31.2639 51.5614L30.8259 50.3932L33.3959 47.5311C34.7977 45.954 36.0243 44.669 36.112 44.669C36.1996 44.669 36.7107 44.8734 37.2656 45.1363ZM29.3218 48.6409L29.7599 49.8529L24.7366 49.8967C21.9767 49.9113 17.45 49.9113 14.6901 49.8967L9.66685 49.8529L10.1049 48.6409L10.543 47.4435H19.7134H28.8837L29.3218 48.6409ZM30.5046 51.8388C30.7528 52.4813 30.9573 53.08 30.9573 53.1531C30.9573 53.2261 26.4159 53.2845 19.7134 53.2845C13.0108 53.2845 8.46944 53.2261 8.46944 53.1531C8.46944 53.08 8.67388 52.4813 8.92212 51.8388L9.3748 50.656H19.7134H30.0519L30.5046 51.8388Z" fill="currentColor"/>
</svg>
