<svg width="35" height="35" viewBox="0 0 35 35" fill="none" xmlns="http://www.w3.org/2000/svg">
<g clip-path="url(#clip0_400_45)">
<path d="M15.5498 0.00575448C15.463 0.0126988 15.0255 0.0439481 14.5776 0.0751974C14.1297 0.102975 13.7304 0.141168 13.6922 0.158529C13.654 0.17589 13.4908 0.196722 13.3276 0.210611C12.8623 0.245332 11.9387 0.391163 11.904 0.439773C11.8936 0.450189 11.786 0.477966 11.661 0.502271C11.2131 0.578658 10.5256 0.786987 10.168 0.950178C10.0811 0.988371 9.9006 1.06129 9.76866 1.11337C9.63671 1.16198 9.50477 1.22448 9.47352 1.24878C9.44575 1.27309 9.23395 1.39114 9.00478 1.51267C8.77562 1.63419 8.51174 1.78349 8.41452 1.84946C8.32077 1.91196 8.2305 1.96404 8.21661 1.96404C8.20619 1.96404 8.15758 1.99529 8.11244 2.03349C8.07078 2.06821 7.86245 2.23487 7.65065 2.40153C6.92497 2.97444 6.59164 3.26957 6.59164 3.3286C6.59164 3.34596 6.50831 3.45707 6.40762 3.57165C6.30693 3.6897 6.13679 3.91192 6.02916 4.06469C5.82083 4.37024 5.23751 5.52646 5.23751 5.63757C5.23751 5.67924 5.22362 5.7209 5.20279 5.73132C5.16806 5.75215 4.9146 6.53686 4.87293 6.7556C4.85904 6.82157 4.83474 6.89102 4.82085 6.91185C4.79307 6.95004 4.78266 6.99865 4.67849 7.57156C4.47711 8.66875 4.1785 11.752 4.10212 13.5436C4.0917 13.811 4.07087 14.0471 4.05351 14.0679C4.0049 14.127 3.98059 18.4046 4.01878 19.6025C4.03962 20.2032 4.06392 20.8143 4.07434 20.9567C4.08476 21.099 4.12295 21.6858 4.16114 22.2587C4.241 23.4601 4.35905 24.8906 4.40419 25.2448C4.62988 26.9392 4.76182 27.776 4.82085 27.9183C4.83821 27.9565 4.9146 28.2621 4.99793 28.5954C5.07779 28.9287 5.17154 29.2516 5.20626 29.3107C5.24445 29.3697 5.27223 29.4391 5.27223 29.46C5.27223 29.5051 5.6125 30.2065 5.79305 30.5398C5.9111 30.7551 6.09165 31.0085 6.41109 31.4078C6.52914 31.5606 6.62636 31.6995 6.62636 31.7168C6.62636 31.7342 6.68886 31.7967 6.76178 31.8488C6.83817 31.9009 7.07427 32.0953 7.29302 32.2759C7.92495 32.8106 8.17147 32.9738 8.81382 33.3071C9.0152 33.4078 9.19922 33.5085 9.22006 33.5293C9.24436 33.5467 9.33117 33.5918 9.41102 33.6265C9.49436 33.6613 9.70963 33.7619 9.89365 33.8522C10.0777 33.939 10.2513 34.0119 10.2825 34.0119C10.3138 34.0119 10.3589 34.0328 10.3832 34.0571C10.4075 34.0814 10.5846 34.1474 10.7756 34.2029C10.9665 34.2585 11.1297 34.3175 11.1332 34.3314C11.1402 34.3453 11.1679 34.3592 11.1957 34.3592C11.2582 34.3592 12.0047 34.564 12.095 34.6057C12.1992 34.6508 12.7443 34.7307 13.4318 34.7932C13.7651 34.8279 14.0706 34.8661 14.1088 34.88C14.147 34.8973 14.4144 34.9321 14.6991 34.9564C15.4977 35.0258 19.2198 35.0084 20.0288 34.9321C20.3622 34.9008 20.7684 34.8661 20.9316 34.8557C21.9385 34.8001 23.2163 34.6682 23.3968 34.6022C23.4454 34.5848 23.6468 34.5466 23.8482 34.5154C24.2162 34.4598 24.3725 34.4216 24.56 34.3418C24.619 34.314 24.7579 34.2689 24.869 34.2376C24.9836 34.2064 25.1398 34.1508 25.2162 34.1161C25.2961 34.0779 25.435 34.0258 25.5252 33.9946C25.619 33.9633 25.8377 33.8696 26.0113 33.7897C26.1884 33.7099 26.3829 33.6231 26.4454 33.5988C26.5044 33.571 26.5565 33.5397 26.5565 33.5224C26.5565 33.5085 26.5877 33.4842 26.6294 33.4738C27.0252 33.3488 28.9696 31.9911 29.1293 31.7307C29.1745 31.6578 29.2856 31.5016 29.3759 31.387C29.4661 31.2689 29.5425 31.1648 29.5425 31.1544C29.5425 31.1439 29.6085 31.0363 29.6918 30.9148C29.8376 30.6995 30.4106 29.5745 30.4106 29.5016C30.4106 29.4808 30.4487 29.3836 30.4974 29.2829C30.5425 29.1822 30.6536 28.8489 30.7404 28.5433C30.8272 28.2378 30.921 27.9079 30.9487 27.8142C31.0217 27.5607 31.1328 27.0295 31.1328 26.9288C31.1293 26.7795 31.2821 25.6302 31.3133 25.5573C31.3932 25.3698 31.6605 21.4219 31.6605 20.415C31.6605 20.2831 31.6744 20.1581 31.6918 20.1372C31.7091 20.1199 31.7439 19.4185 31.7647 18.5783C31.7959 17.4116 31.7959 16.679 31.7682 15.488C31.7473 14.627 31.7196 13.87 31.7091 13.8041C31.6814 13.6061 31.664 13.4013 31.6258 12.7277C31.5737 11.8423 31.4939 10.8701 31.414 10.2104C31.3793 9.90484 31.3446 9.59235 31.3341 9.51596C31.1848 8.20696 30.9973 6.99865 30.9314 6.91185C30.9175 6.89102 30.8932 6.82157 30.8793 6.7556C30.8411 6.55422 30.6189 5.8459 30.5494 5.6966C30.5147 5.62021 30.4175 5.40147 30.3376 5.2105C30.2543 5.01953 30.1779 4.85634 30.1675 4.84592C30.1536 4.83551 30.0876 4.72093 30.0147 4.58551C29.9418 4.45357 29.8064 4.24177 29.7127 4.1133C29.6189 3.98483 29.5425 3.87372 29.5425 3.85983C29.5425 3.84595 29.4696 3.73484 29.3793 3.61331C29.2856 3.48832 29.1675 3.31818 29.1154 3.23138C29.0599 3.14457 28.8793 2.96749 28.7057 2.82861C28.5356 2.69319 28.3967 2.5682 28.3967 2.55084C28.3967 2.53348 28.3793 2.51959 28.3585 2.51959C28.3169 2.51959 28.0391 2.31473 28.0217 2.26959C28.0148 2.2557 27.9557 2.21751 27.8932 2.18626C27.8273 2.15501 27.7405 2.09599 27.6953 2.05085C27.6502 2.00918 27.5599 1.94668 27.494 1.91543C27.428 1.88418 27.2092 1.7696 27.0079 1.65502C26.5565 1.40156 25.9697 1.09601 25.928 1.09601C25.9141 1.09601 25.8169 1.05781 25.7162 1.01268C25.4141 0.873791 25.2822 0.825181 25.0357 0.762682C24.9072 0.731433 24.7857 0.693239 24.7648 0.675878C24.6294 0.568242 23.2684 0.297415 22.5114 0.227972C22.2649 0.203667 22.0288 0.172417 21.9906 0.158529C21.9524 0.141168 21.6156 0.0995024 21.2441 0.0682531C20.7024 0.0231152 20.074 0.00922662 18.1365 0.00228233C16.7997 -0.00118981 15.6366 -0.00118981 15.5498 0.00575448ZM17.1956 0.481438C16.9699 0.637685 16.7095 0.814764 16.6192 0.870318C16.5289 0.929345 16.2893 1.08906 16.081 1.23142C15.8762 1.37378 15.4977 1.63072 15.2442 1.80433C14.9908 1.97793 14.713 2.16543 14.6297 2.22445C14.5463 2.28001 14.2408 2.49181 13.9456 2.68972C13.654 2.89111 13.338 3.10638 13.2408 3.17582C13.1471 3.24179 12.9839 3.35637 12.8797 3.42929C12.7755 3.5022 12.6887 3.55776 12.6853 3.55429C12.6783 3.54734 12.5637 3.21402 12.4283 2.81472C12.2929 2.41195 12.0811 1.78349 11.9561 1.41197C11.8311 1.04393 11.7339 0.721016 11.7408 0.700183C11.7512 0.675878 12.0047 0.616852 12.3068 0.56477C12.6123 0.512688 12.9144 0.453661 12.9804 0.4363C13.1158 0.398107 13.529 0.359913 14.5776 0.280054C15.5151 0.210611 15.5845 0.207139 16.6747 0.200195L17.6122 0.19325L17.1956 0.481438ZM18.4942 0.561298C18.7928 0.762682 19.1365 0.998788 19.258 1.08212C19.3796 1.16892 19.9038 1.53003 20.4212 1.88418C20.942 2.24182 21.5774 2.67583 21.8344 2.85291C22.0913 3.02999 22.4489 3.27304 22.626 3.39457C22.7996 3.51609 22.9454 3.62373 22.9454 3.64109C22.9454 3.65498 22.8795 3.69664 22.7996 3.73137C22.7163 3.76956 22.3552 3.93969 21.9906 4.11677C21.6295 4.29385 20.9559 4.61676 20.4976 4.83551C20.0393 5.05772 19.4073 5.36327 19.0914 5.51605C17.9803 6.05423 17.9456 6.06812 17.8275 6.04034C17.7268 6.01951 17.1782 5.76951 16.1748 5.28689C15.7894 5.10286 15.456 4.94662 15.0116 4.74176C14.6401 4.56815 13.1054 3.84942 12.9734 3.78692C12.9005 3.74873 12.8415 3.70359 12.8415 3.68276C12.8415 3.66539 13.0186 3.52651 13.2339 3.38068C13.4457 3.23485 14.5845 2.45709 15.7581 1.65502C16.9317 0.852958 17.9074 0.196722 17.9212 0.19325C17.9386 0.19325 18.1955 0.359913 18.4942 0.561298ZM21.2094 0.280054C21.9281 0.342552 22.5739 0.415468 22.9038 0.46755C23.2961 0.53352 23.817 0.644629 23.876 0.679351C23.9072 0.696711 23.9593 0.717544 23.9906 0.724488C24.0392 0.741849 24.0183 0.825181 23.8447 1.32864C23.7371 1.64808 23.5253 2.2557 23.3829 2.67236C23.2371 3.09249 23.1086 3.44665 23.0913 3.46401C23.067 3.48832 22.5843 3.17235 21.4594 2.39806C21.3205 2.30084 20.9073 2.0196 20.5392 1.76613C19.6434 1.15503 19.0809 0.766154 18.6226 0.450189L18.2407 0.186306L19.4039 0.203667C20.0427 0.214083 20.8552 0.248805 21.2094 0.280054ZM11.7999 1.44322C11.9283 1.81474 12.1436 2.44667 12.2825 2.84597C12.4179 3.24527 12.5221 3.57859 12.5116 3.58901C12.4943 3.60984 11.3589 3.52304 10.0811 3.40498C9.7756 3.37721 9.06381 3.31471 8.50132 3.2661C7.26524 3.16193 7.11246 3.14805 7.11246 3.11332C7.11246 3.10291 7.29649 2.94319 7.51871 2.76264C7.74092 2.58209 7.97356 2.38765 8.03953 2.33556C8.25827 2.1446 9.74435 1.30434 9.85893 1.30434C9.88671 1.30434 9.95615 1.27656 10.0117 1.24184C10.0707 1.20712 10.1957 1.15156 10.2895 1.11684C10.3867 1.07865 10.5256 1.02309 10.602 0.988371C10.786 0.90504 11.3763 0.752266 11.4839 0.75921C11.5603 0.766154 11.5881 0.821708 11.7999 1.44322ZM24.6919 0.85643C24.8586 0.901568 24.994 0.950178 24.994 0.964066C24.994 0.981427 25.0253 0.991844 25.06 0.991844C25.1329 0.991844 25.5982 1.15851 25.7752 1.24531C25.8343 1.27309 26.0044 1.35642 26.1572 1.42933C26.428 1.56128 27.0183 1.88071 27.3828 2.09599C27.4835 2.15848 27.5808 2.20709 27.5946 2.20709C27.612 2.20709 27.6606 2.24529 27.7058 2.2939C27.7509 2.33904 27.8064 2.3807 27.8273 2.3807C27.8516 2.3807 27.9453 2.45014 28.0356 2.53695C28.1294 2.62375 28.2231 2.69319 28.2474 2.69319C28.2682 2.69319 28.3099 2.72444 28.3377 2.76611C28.3655 2.8043 28.4557 2.88416 28.5356 2.94319C28.6155 3.00222 28.6675 3.06124 28.6502 3.0786C28.6363 3.09249 28.1294 3.14457 27.5287 3.19666C26.928 3.24527 26.0148 3.32165 25.4975 3.37026C24.9836 3.4154 24.3482 3.47095 24.0913 3.48832C23.8343 3.50915 23.5496 3.53345 23.4593 3.54387C23.3274 3.56123 23.2927 3.55429 23.2927 3.51262C23.2927 3.40498 24.1364 0.950178 24.2128 0.828653C24.2475 0.780043 24.2926 0.752266 24.3274 0.762682C24.3586 0.769626 24.5218 0.814764 24.6919 0.85643ZM28.7092 3.37026C28.7092 3.43971 28.6641 3.90497 28.605 4.40496C28.5495 4.90495 28.4453 5.82854 28.3793 6.46047C28.3099 7.08893 28.2162 7.95002 28.171 8.37015C28.1224 8.79028 28.0842 9.15486 28.0842 9.17569C28.0842 9.19999 28.0495 9.22083 28.0078 9.22083C27.9245 9.22083 24.0947 8.01252 24.0461 7.97085C24.0288 7.95697 23.9628 7.65836 23.8968 7.30767C23.7892 6.73824 23.6815 6.16534 23.3239 4.32857C23.2684 4.03344 23.2336 3.77998 23.2475 3.76609C23.2753 3.73831 24.6746 3.59595 25.5843 3.52651C26.0044 3.49526 26.6259 3.43971 28.1016 3.30082C28.3689 3.27651 28.6155 3.25568 28.6502 3.25221C28.6953 3.24874 28.7092 3.27651 28.7092 3.37026ZM7.82425 3.37026C8.1298 3.40151 8.91798 3.47095 9.57769 3.52651C11.8068 3.714 12.4769 3.77998 12.5047 3.80428C12.5325 3.82859 12.4318 4.39107 12.1124 5.99173C12.036 6.36325 11.9214 6.95699 11.8519 7.31115C11.7825 7.66531 11.7096 7.97085 11.6853 7.99169C11.6332 8.0403 11.3242 8.14099 10.3589 8.42223C9.95962 8.54029 9.59158 8.64792 9.54297 8.66528C9.49436 8.68264 9.26172 8.75556 9.02214 8.825C8.78257 8.89097 8.38674 9.00903 8.13675 9.08194C7.89023 9.15486 7.67495 9.20347 7.66454 9.19305C7.64023 9.16874 7.49787 8.06113 7.33815 6.6688C7.28954 6.24867 7.17844 5.32855 7.09163 4.62718C7.0083 3.92581 6.9458 3.33554 6.95622 3.31818C6.96663 3.30082 7.04302 3.29388 7.12288 3.30082C7.20274 3.31124 7.51871 3.34249 7.82425 3.37026ZM29.2474 3.76261C29.3446 3.9015 29.4384 4.04386 29.4557 4.07511C29.4765 4.10636 29.5425 4.20705 29.605 4.29733C29.664 4.3876 29.7161 4.46746 29.7161 4.47788C29.7161 4.48829 29.7613 4.56121 29.8168 4.64454C30.0251 4.95703 30.2856 5.51952 30.4626 6.04381C30.5147 6.19659 30.5876 6.40839 30.6224 6.51255C30.7057 6.74171 30.7647 7.00213 30.8446 7.47434C30.8967 7.77989 30.9001 7.83891 30.8585 7.89794C30.8029 7.9778 28.5842 9.09236 28.3377 9.16874C28.237 9.19652 28.237 9.18263 28.3273 8.40487C28.3655 8.07849 28.428 7.49517 28.4662 7.10282C28.5043 6.71047 28.5425 6.35631 28.553 6.31117C28.5634 6.26603 28.5946 6.01604 28.6224 5.75563C28.7891 4.10288 28.862 3.46401 28.8863 3.39457L28.9175 3.31471L28.9974 3.41193C29.0391 3.46401 29.1536 3.62373 29.2474 3.76261ZM6.9215 4.48135C6.97011 4.93967 7.05691 5.67229 7.11246 6.11326C7.16802 6.55075 7.24441 7.19309 7.28607 7.53684C7.32427 7.88058 7.38676 8.39446 7.42149 8.6757C7.45273 8.95694 7.47357 9.19652 7.46315 9.20347C7.45621 9.21388 7.08122 9.02986 6.62984 8.79722C6.17846 8.56459 5.60903 8.26946 5.3625 8.14446C5.11598 8.01946 4.89724 7.89099 4.87988 7.85975C4.82085 7.76947 5.04307 6.67922 5.18542 6.35631C5.20973 6.29728 5.24792 6.19659 5.26528 6.13062C5.40417 5.65493 5.78611 4.8112 6.05346 4.39455C6.10902 4.30774 6.17151 4.20011 6.19582 4.15497C6.24443 4.06469 6.55345 3.67581 6.69234 3.52998L6.77914 3.43971L6.80344 3.54387C6.81733 3.6029 6.86941 4.02303 6.9215 4.48135ZM23.1642 4.29733C23.2163 4.57162 23.3309 5.16883 23.4177 5.62716C23.501 6.08548 23.6364 6.77991 23.7128 7.16879C23.7892 7.55767 23.8413 7.88405 23.8343 7.89447C23.8135 7.91183 23.5288 7.83891 23.0843 7.69308C22.9211 7.641 22.508 7.51253 22.1642 7.40489C21.8205 7.29726 21.258 7.12018 20.9142 7.01601C20.5705 6.90838 20.0636 6.74866 19.7858 6.66186C19.508 6.57505 19.1573 6.46742 19.0046 6.42228C18.8518 6.37714 18.5948 6.29381 18.4351 6.24173L18.1435 6.14451L18.5393 5.95701C18.758 5.85632 19.2094 5.64104 19.5427 5.47785C20.317 5.10633 20.7302 4.90842 21.3101 4.63412C21.5635 4.5126 22.0427 4.27649 22.3691 4.10983C22.6954 3.94317 22.9871 3.80775 23.0184 3.80775C23.06 3.80428 23.0913 3.91192 23.1642 4.29733ZM12.7929 3.87025C12.8103 3.88761 13.0602 4.00914 13.345 4.14455C14.7928 4.81815 17.3102 6.00215 17.4351 6.06812C17.5775 6.14103 17.5775 6.14103 17.4942 6.17228C17.4108 6.20353 16.2893 6.55422 15.6366 6.7556C15.4664 6.80769 15.0915 6.92574 14.8033 7.01601C13.9665 7.2799 13.5915 7.39795 12.4665 7.74516C12.1714 7.83544 11.9249 7.90141 11.9179 7.89099C11.9075 7.88058 11.9387 7.67225 11.9874 7.4292C12.036 7.18268 12.1228 6.74519 12.1783 6.46047C12.2339 6.17228 12.3693 5.4848 12.4769 4.93273C12.5846 4.37718 12.6783 3.90497 12.6887 3.88067C12.7026 3.83206 12.7443 3.82511 12.7929 3.87025ZM18.7789 6.5195C19.2094 6.65491 19.7337 6.8181 19.942 6.88754C20.1538 6.95352 20.4663 7.05074 20.6365 7.10282C20.8101 7.1549 21.1365 7.25906 21.3656 7.32851C21.5948 7.40142 21.876 7.48823 21.9906 7.51948C22.1052 7.5542 22.2927 7.61322 22.4073 7.65142C22.7649 7.77294 23.3725 7.96391 23.5704 8.01946C23.9385 8.12016 23.8725 7.9396 24.626 10.9604C26.2683 17.5505 26.244 17.4498 26.2093 17.6408C26.1711 17.8387 24.9732 22.7171 24.8169 23.3004C24.6642 23.8733 24.3378 25.2135 24.2822 25.4809C24.2544 25.6128 24.2024 25.8211 24.1642 25.9496C24.126 26.0781 24.0774 26.2725 24.0531 26.3836C24.0288 26.4947 23.994 26.6059 23.9732 26.6336C23.9385 26.6753 22.9941 26.9982 18.8935 28.3732C18.0532 28.6544 18.0115 28.6648 17.8692 28.6266C17.7858 28.6058 17.2581 28.4391 16.6956 28.2586C16.1331 28.078 15.5498 27.8905 15.4039 27.8489C15.2546 27.8037 14.9665 27.71 14.7616 27.644C14.5533 27.5781 13.8172 27.3385 13.1193 27.1163C12.4214 26.894 11.8485 26.71 11.845 26.7065C11.8381 26.6996 11.2027 24.2413 10.7929 22.6407C10.6054 21.908 10.3554 20.9428 10.0291 19.672C9.58116 17.9463 9.50824 17.6512 9.50824 17.4984C9.50824 17.422 9.64019 16.8352 9.7999 16.1964C11.0256 11.3388 11.3763 9.9465 11.5256 9.32499C11.7408 8.43959 11.786 8.30071 11.9006 8.17571C11.9943 8.07155 12.2512 7.98474 14.0741 7.42226C14.3554 7.33198 15.3033 7.03685 16.0185 6.80769C17.8136 6.23825 17.8136 6.23825 17.9108 6.25909C17.9594 6.2695 18.3483 6.38756 18.7789 6.5195ZM6.04999 8.68264C7.50482 9.42568 7.4076 9.37013 7.41801 9.46735C7.42496 9.53332 6.62289 11.4742 6.0361 12.7971C5.98402 12.9221 5.62291 13.7659 5.23751 14.6721C4.35905 16.738 4.22711 17.047 4.20628 17.0679C4.1785 17.0922 4.22711 14.6061 4.26878 13.6999C4.28961 13.2693 4.33475 12.5819 4.37294 12.1721C4.41114 11.7624 4.45627 11.2451 4.47711 11.0263C4.5778 9.85623 4.69238 8.74861 4.70974 8.71736C4.72363 8.69653 4.73405 8.62014 4.73752 8.54376C4.73752 8.46737 4.75141 8.3389 4.7653 8.25557C4.78613 8.14099 4.80696 8.10974 4.86252 8.10974C4.90071 8.10974 5.43542 8.36668 6.04999 8.68264ZM30.9661 8.23474C31.0182 8.37015 31.3029 10.8632 31.3341 11.443C31.3411 11.6062 31.3619 11.8145 31.3828 11.9117C31.4557 12.2763 31.5911 15.5505 31.5876 16.8769V17.12L31.4314 16.7554C31.3446 16.554 31.2057 16.2346 31.1258 16.0436C30.9557 15.6512 29.9974 13.4221 29.4384 12.1201C29.23 11.6409 28.8898 10.8493 28.678 10.3562C28.4662 9.86664 28.2925 9.44652 28.2925 9.42915C28.2925 9.38402 30.7821 8.14793 30.8723 8.14446C30.9071 8.14446 30.9487 8.18265 30.9661 8.23474ZM11.4179 9.12361C10.2895 13.5957 9.78949 15.5992 9.64019 16.1998C9.54644 16.5922 9.45616 16.9255 9.4388 16.9429C9.40408 16.9776 9.3763 16.8838 9.23047 16.2172C9.17145 15.9498 9.07075 15.5054 9.00478 15.2276C8.93881 14.9499 8.78257 14.2693 8.65757 13.7173C8.41799 12.6617 8.168 11.5888 7.87286 10.3284C7.77564 9.91525 7.70273 9.53332 7.70967 9.48124C7.71662 9.41179 7.7444 9.3736 7.80689 9.35624C7.8555 9.34235 8.04994 9.28332 8.24091 9.22777C8.58465 9.12361 9.24783 8.92569 9.89018 8.73125C10.0707 8.67917 10.477 8.55765 10.7929 8.46043C11.5082 8.24168 11.6054 8.21738 11.6193 8.2521C11.6263 8.26946 11.536 8.66181 11.4179 9.12361ZM24.5426 8.31807C24.6468 8.35279 24.9211 8.43959 25.1503 8.50904C25.3794 8.58195 25.6989 8.68264 25.862 8.7382C26.0252 8.79028 26.4141 8.91528 26.7301 9.01597C27.8655 9.3736 27.9974 9.42221 28.0078 9.47429C28.0148 9.50207 27.9696 9.72429 27.9106 9.97081C27.8516 10.2173 27.7439 10.7 27.6676 11.0437C27.5148 11.752 27.3065 12.6999 27.1294 13.4916C26.9384 14.3284 26.7092 15.3839 26.5356 16.1825C26.4488 16.5818 26.3655 16.9255 26.3481 16.9429C26.2995 16.9915 26.2544 16.9359 26.2266 16.8005C26.2162 16.7276 26.1363 16.3873 26.0495 16.0436C25.9662 15.6998 25.8343 15.1512 25.7544 14.8283C25.678 14.502 25.5843 14.127 25.5461 13.995C25.4836 13.7589 24.1746 8.48126 24.1433 8.33196C24.1156 8.19654 24.1746 8.19307 24.5426 8.31807ZM28.5148 10.3736C28.6571 10.7034 28.8342 11.1236 28.9106 11.3041C28.987 11.4847 29.1397 11.8354 29.2474 12.0853C29.4384 12.5194 29.5147 12.693 29.9349 13.6825C30.2126 14.3422 30.4487 14.8839 30.7751 15.6269C31.1675 16.5262 31.3793 17.0193 31.4557 17.2172L31.5216 17.3838L31.2925 17.9116C31.164 18.2033 30.9765 18.6338 30.8723 18.8734C30.5286 19.6546 30.3515 20.0643 30.1675 20.4879C30.0668 20.7171 29.9036 21.0921 29.8029 21.3212C29.7022 21.5504 29.4939 22.0261 29.3411 22.3803C29.0599 23.0295 28.487 24.3385 28.2821 24.8003C28.2196 24.9392 28.1606 25.0538 28.1502 25.0538C28.1398 25.0538 28.0807 24.8246 28.0182 24.5399C27.9557 24.2587 27.8481 23.7934 27.7821 23.5087C27.4974 22.2934 27.3898 21.8178 27.303 21.4254C27.2509 21.1963 27.1572 20.79 27.0947 20.5227C27.0322 20.2553 26.9454 19.8942 26.9072 19.7241C26.869 19.5505 26.7752 19.1546 26.6988 18.8387C26.6259 18.5227 26.5287 18.0991 26.487 17.8942L26.4106 17.5227L26.5009 17.0609C26.553 16.8075 26.6676 16.2936 26.7544 15.9221C26.8377 15.5505 26.9488 15.0575 26.994 14.8318C27.0426 14.6026 27.0877 14.4047 27.0947 14.3908C27.1051 14.377 27.1606 14.1409 27.2162 13.8666C27.3967 13.0055 27.487 12.5958 27.5391 12.4083C27.5669 12.3076 27.6085 12.1131 27.6294 11.9812C27.6537 11.8458 27.6988 11.627 27.737 11.4951C27.7717 11.3597 27.8273 11.127 27.8551 10.9743C27.9245 10.5993 28.1189 9.70345 28.1398 9.63748C28.1641 9.56804 28.1988 9.63401 28.5148 10.3736ZM7.6819 10.1652C7.73398 10.4187 7.83814 10.884 7.91453 11.1999C8.07772 11.8909 8.37285 13.1617 8.48396 13.6652C8.5291 13.8666 8.67146 14.4742 8.79645 15.0193C9.35547 17.4324 9.33464 17.3179 9.29992 17.5401C9.25478 17.8352 9.21311 18.0366 9.03951 18.8005C8.9527 19.1755 8.85201 19.613 8.81382 19.7761C8.77562 19.9393 8.69923 20.2727 8.64368 20.5227C8.58465 20.7692 8.48396 21.224 8.41452 21.5296C8.34508 21.8351 8.24438 22.2796 8.1923 22.5191C8.13675 22.7587 8.00481 23.342 7.89717 23.8212C7.78953 24.2969 7.67495 24.8108 7.6437 24.9601C7.60898 25.1094 7.56732 25.2309 7.54648 25.2344C7.51523 25.2344 7.42843 25.0434 6.83469 23.6649C6.71664 23.3872 6.56387 23.0365 6.4979 22.8837C6.43192 22.7309 6.34165 22.5191 6.29651 22.415C6.19929 22.1858 6.05346 21.8455 5.87985 21.4428C5.81041 21.2796 5.71666 21.0608 5.675 20.9567C5.62986 20.8525 5.56042 20.7032 5.52222 20.6268C5.48056 20.5504 5.44584 20.4706 5.44584 20.4497C5.44584 20.4115 5.36945 20.2345 5.11598 19.6893C5.07084 19.5921 5.02223 19.4775 5.01182 19.4289C4.99793 19.3803 4.9389 19.2484 4.88335 19.1373C4.74099 18.856 4.40766 18.0852 4.366 17.9429C4.34517 17.8769 4.30003 17.7762 4.26183 17.7172C4.22711 17.6547 4.19586 17.5852 4.19586 17.5574C4.19586 17.5331 4.35558 17.1443 4.55002 16.6894C4.74099 16.238 4.96668 15.7137 5.04654 15.5228C5.28959 14.9533 5.99096 13.311 6.06388 13.1443C6.10207 13.0575 6.33123 12.5194 6.57428 11.9465C6.81733 11.3736 7.10552 10.693 7.21663 10.4361C7.32774 10.1791 7.44232 9.90831 7.4701 9.8354C7.50134 9.76595 7.53954 9.70693 7.55343 9.70693C7.57079 9.70693 7.62634 9.91525 7.6819 10.1652ZM31.5529 18.7171C31.5147 20.0678 31.4244 22.033 31.3758 22.6059C31.355 22.8525 31.3341 23.1198 31.3272 23.1962C31.1675 25.342 31.0147 26.651 30.9105 26.7552C30.8411 26.8246 30.7508 26.776 29.0564 25.8003C28.553 25.5087 28.3099 25.3524 28.2717 25.2934C28.2613 25.2725 28.2891 25.1684 28.3377 25.0607C28.3863 24.9531 28.5043 24.6753 28.605 24.4462C28.7057 24.2205 28.8099 24.0122 28.8342 23.9844C28.862 23.9601 28.8828 23.9115 28.8828 23.8767C28.8828 23.8455 28.9384 23.7101 29.0043 23.5747C29.0703 23.4427 29.1259 23.3108 29.1259 23.2795C29.1259 23.2483 29.1675 23.1615 29.2196 23.0886C29.2682 23.0157 29.3238 22.8907 29.3411 22.8177C29.3585 22.7448 29.4002 22.6407 29.4349 22.5921C29.4661 22.5434 29.5147 22.4323 29.539 22.3455C29.5634 22.2587 29.612 22.1511 29.6467 22.1025C29.6779 22.0539 29.7265 21.9532 29.7508 21.8768C29.7752 21.8004 29.8238 21.6824 29.8585 21.6164C29.8932 21.5504 29.9522 21.415 29.9904 21.3212C30.1085 21.0122 30.3099 20.5574 30.3446 20.5227C30.3619 20.5053 30.3758 20.4706 30.3758 20.4428C30.3758 20.415 30.421 20.297 30.4765 20.1789C30.5321 20.0643 30.6605 19.7727 30.7612 19.5331C30.8585 19.2935 30.9522 19.0817 30.9661 19.0644C30.9835 19.0435 31.0321 18.9255 31.0807 18.8005C31.171 18.5609 31.5668 17.6581 31.5772 17.6686C31.5807 17.672 31.5702 18.1442 31.5529 18.7171ZM9.45269 18.047C9.46658 18.0922 9.56033 18.4637 9.66449 18.8734C9.94226 19.9741 10.1298 20.7171 10.4249 21.8421C10.5672 22.3941 10.7409 23.0677 10.8103 23.3351C10.8797 23.6024 11.0117 24.1163 11.1054 24.4809C11.1992 24.842 11.3624 25.4809 11.47 25.901C11.5776 26.3177 11.6575 26.6649 11.6471 26.6753C11.6367 26.6857 11.2478 26.5815 10.786 26.4461C10.3207 26.3072 9.70963 26.1267 9.42144 26.0399C9.13673 25.9566 8.72007 25.8316 8.50132 25.7656C8.28258 25.6996 8.03606 25.6302 7.9562 25.6093C7.79301 25.5677 7.70273 25.4948 7.70273 25.408C7.70273 25.3767 7.75828 25.1128 7.82425 24.8281C7.8937 24.5399 8.03606 23.9254 8.14022 23.4566C8.24438 22.9879 8.40063 22.3004 8.48396 21.9289C8.56729 21.5574 8.72354 20.8699 8.83118 20.4011C9.05339 19.4359 9.36936 18.0088 9.36936 17.988C9.36936 17.9359 9.43533 17.9845 9.45269 18.047ZM4.61252 18.9255C5.0014 19.8317 6.41804 23.1059 6.73053 23.8212C6.8208 24.0295 7.0083 24.4601 7.14719 24.776C7.28607 25.092 7.40065 25.401 7.40412 25.4635C7.4076 25.5746 7.40065 25.5816 6.88678 25.8489C5.57778 26.5295 4.9771 26.8246 4.90765 26.8246C4.8521 26.8246 4.82779 26.7899 4.79654 26.6753C4.73057 26.4392 4.53961 24.7066 4.491 23.8906C4.47711 23.6997 4.45627 23.5122 4.43891 23.474C4.40419 23.4011 4.32086 22.2066 4.26878 21.0782C4.22711 20.2449 4.18198 17.981 4.20628 18.0054C4.21322 18.0158 4.39725 18.429 4.61252 18.9255ZM26.5426 18.8248C26.6398 19.2623 26.8099 20.0018 26.9176 20.4706C27.0287 20.9393 27.1988 21.6893 27.303 22.1372C27.5113 23.0504 27.6189 23.5191 27.7926 24.2552C27.9835 25.0503 28.0287 25.2969 27.9939 25.3281C27.9766 25.342 27.5495 25.4878 27.0426 25.6545C24.1329 26.6024 24.2406 26.5677 24.2093 26.5364C24.185 26.5156 24.3343 25.908 25.3933 21.6337C25.6676 20.5261 25.9662 19.3143 26.0565 18.9428C26.1433 18.5713 26.2336 18.2067 26.2509 18.1338C26.2683 18.0609 26.2995 18.0054 26.3238 18.0158C26.3447 18.0227 26.4419 18.3873 26.5426 18.8248ZM28.0981 25.7205C28.112 25.842 28.1849 26.4392 28.2578 27.0503C28.3342 27.6614 28.4418 28.5676 28.4974 29.0641C28.5564 29.5606 28.6432 30.269 28.6918 30.6405C28.7405 31.012 28.7786 31.3766 28.7786 31.4495V31.5849L28.546 31.5641C28.1189 31.5294 25.553 31.3349 24.3933 31.2516C23.7649 31.2064 23.244 31.1613 23.2302 31.1509C23.2024 31.1231 23.2475 30.887 23.4593 29.8974C23.5565 29.4565 23.7197 28.6926 23.8274 28.1961C23.935 27.6996 24.0496 27.1788 24.0843 27.0399L24.1433 26.7899L24.5947 26.6371C25.9488 26.1788 27.9592 25.526 28.053 25.5087C28.0669 25.5052 28.0842 25.6024 28.0981 25.7205ZM28.987 25.9392C29.2266 26.0781 29.7092 26.3593 30.0633 26.5677C30.4175 26.7725 30.7508 26.9635 30.8064 26.9913C30.8967 27.0399 30.9036 27.0538 30.8828 27.1961C30.8515 27.4392 30.6224 28.3558 30.5668 28.4634C30.5425 28.519 30.4765 28.7065 30.4279 28.8836C30.3758 29.0572 30.2925 29.2968 30.2369 29.4113C30.1849 29.5259 30.0807 29.7516 30.0113 29.9148C29.9383 30.078 29.8342 30.2829 29.7786 30.3697C29.7265 30.4565 29.6814 30.5398 29.6814 30.5537C29.6814 30.5884 29.4279 30.9703 29.3967 30.9842C29.3793 30.9912 29.3689 31.012 29.3689 31.0294C29.3689 31.071 29.1224 31.4078 29.0495 31.4703C29.0078 31.505 28.9904 31.505 28.9627 31.4703C28.9453 31.446 28.8724 30.894 28.7995 30.2447C28.73 29.5954 28.6502 28.9148 28.6224 28.7343C28.5946 28.5537 28.5217 27.9808 28.4662 27.4669C28.4071 26.9496 28.3412 26.4288 28.3238 26.3038C28.303 26.1788 28.2787 25.9913 28.2717 25.8871C28.2613 25.783 28.2474 25.6753 28.2405 25.651C28.2057 25.5538 28.2648 25.5434 28.4071 25.6128C28.487 25.6545 28.7474 25.8003 28.987 25.9392ZM8.92145 26.0642C9.57769 26.2586 10.1853 26.4357 10.2721 26.46C10.3589 26.4843 10.6992 26.585 11.0256 26.6822C11.3554 26.7795 11.6332 26.8593 11.6436 26.8593C11.6992 26.8593 11.7756 27.1475 11.9006 27.8662C11.9804 28.3141 12.1089 29.0086 12.1818 29.4113C12.4214 30.6995 12.4978 31.1405 12.4804 31.1578C12.47 31.1683 11.8485 31.2203 11.0985 31.2724C10.3485 31.328 9.55338 31.387 9.33464 31.4078C8.51868 31.4773 6.99788 31.5814 6.98052 31.5641C6.97011 31.5571 6.99788 31.262 7.03608 30.9148C7.07774 30.5641 7.17149 29.7308 7.25135 29.0641C7.47357 27.1232 7.63676 25.7691 7.65065 25.7205C7.66106 25.6962 7.6819 25.6823 7.69579 25.6927C7.71315 25.7031 8.26174 25.8698 8.92145 26.0642ZM7.45968 25.8385C7.45968 25.9461 7.25482 27.7586 7.12983 28.7343C7.08469 29.1058 6.99788 29.8488 6.93539 30.3835C6.83469 31.2898 6.80344 31.4773 6.73747 31.4773C6.7097 31.4773 6.31387 31.0051 6.31387 30.9703C6.31387 30.9599 6.26873 30.8905 6.21665 30.821C6.1611 30.7516 6.08818 30.6405 6.04999 30.5745C6.01527 30.5085 5.96666 30.4287 5.94582 30.4009C5.92152 30.3731 5.85555 30.2551 5.79999 30.1405C5.52569 29.5884 5.40417 29.3037 5.30695 28.9739C5.24792 28.7759 5.19237 28.5884 5.18542 28.5607C5.07432 28.203 4.89029 27.2829 4.89029 27.1058C4.89029 27.0746 4.92501 27.0329 4.97015 27.0156C5.0639 26.9704 6.74789 26.1024 7.12983 25.901C7.2826 25.8211 7.41801 25.7517 7.43537 25.7517C7.44926 25.7482 7.45968 25.7899 7.45968 25.8385ZM23.9524 26.8697C23.9524 26.901 23.6989 28.0746 23.5947 28.5433C23.5288 28.828 23.4628 29.1266 23.4524 29.203C23.4385 29.2794 23.3899 29.5051 23.3447 29.7065C23.2996 29.9079 23.2128 30.2967 23.1538 30.5745C23.0947 30.8488 23.0392 31.0814 23.0322 31.0919C23.0079 31.1127 22.7128 30.9773 21.8378 30.5398C21.3795 30.3106 20.9976 30.1231 20.9872 30.1231C20.9767 30.1231 20.4004 29.8419 19.699 29.5016C19.0011 29.1579 18.4004 28.8662 18.3622 28.8558C18.324 28.8419 18.2928 28.8141 18.2928 28.7898C18.2928 28.7621 18.9941 28.5086 20.1781 28.1128C21.2128 27.769 22.4663 27.3454 22.9628 27.1718C23.7996 26.8871 23.9524 26.8385 23.9524 26.8697ZM12.6401 27.1336C12.9908 27.2482 13.6262 27.4496 14.0568 27.5885C14.4873 27.7239 14.9491 27.8732 15.081 27.9183C15.2164 27.96 15.5498 28.0711 15.8275 28.1579C17.3657 28.644 17.6122 28.7239 17.6226 28.7551C17.6261 28.7725 17.3136 28.9357 16.9282 29.1162C16.5428 29.2968 15.9699 29.5676 15.6539 29.7169C15.338 29.8697 14.8553 30.0988 14.5776 30.2273C14.2998 30.3558 13.779 30.6058 13.4144 30.7828C12.9318 31.0189 12.7408 31.0953 12.7026 31.071C12.6471 31.0328 12.5985 30.8245 12.4075 29.7586C12.338 29.3766 12.2304 28.7829 12.1644 28.4391C12.0151 27.6579 11.904 27.0364 11.904 26.9739C11.904 26.901 11.9665 26.9149 12.6401 27.1336ZM18.0706 28.894C18.1469 28.9252 18.574 29.1301 19.0219 29.3523C19.8066 29.7343 20.0844 29.8697 21.7823 30.6926C22.692 31.1335 22.9107 31.2446 22.9107 31.2689C22.9107 31.2794 22.7024 31.4252 22.4524 31.5988C22.2024 31.7689 21.6017 32.1856 21.1156 32.5189C20.633 32.8522 19.9872 33.2967 19.6782 33.5085C19.3726 33.7168 18.8448 34.0814 18.508 34.314C18.1712 34.5501 17.8831 34.7411 17.8726 34.7411C17.8553 34.7411 16.7963 34.0154 15.6713 33.2307C15.5567 33.1508 15.2824 32.9633 15.0637 32.814C13.0221 31.4113 12.8276 31.2689 12.8658 31.2342C12.8797 31.2169 13.5047 30.9148 14.2477 30.5641C14.9942 30.2099 15.7824 29.8384 16.0012 29.7308C17.1956 29.1614 17.7303 28.9148 17.9317 28.8384C17.9351 28.8384 17.9976 28.8627 18.0706 28.894ZM12.4596 31.4113C12.4596 31.453 12.3728 31.7273 12.2651 32.0293C12.1575 32.3279 12.0186 32.7203 11.9561 32.9009C11.7026 33.6196 11.5221 34.0918 11.4839 34.1369C11.4388 34.1925 11.2651 34.1751 11.0881 34.0953C11.0325 34.071 10.8346 34.005 10.6541 33.946C10.3485 33.8522 9.83463 33.6161 9.07423 33.2238C8.38327 32.8696 8.01869 32.6266 7.43537 32.1439C6.95969 31.7516 6.96316 31.7481 7.70967 31.6891C8.02217 31.6648 8.59507 31.6231 8.98742 31.5988C9.81379 31.5398 11.3728 31.4182 11.7999 31.3766C11.9631 31.3592 12.1783 31.3453 12.279 31.3419C12.4422 31.3384 12.4596 31.3453 12.4596 31.4113ZM24.5079 31.4252C25.2232 31.4807 26.6641 31.5884 27.8238 31.6717C28.6918 31.7342 28.7439 31.7412 28.7439 31.8002C28.7439 31.821 28.5287 32.0016 28.2648 32.196C27.6016 32.6856 27.178 32.9599 26.7301 33.1856C26.6433 33.2307 26.5599 33.2828 26.5391 33.3071C26.5218 33.3314 26.4315 33.38 26.3447 33.4182C26.2579 33.4529 26.1016 33.5224 25.9975 33.571C25.4905 33.8071 25.3343 33.8696 25.0635 33.9599C24.9003 34.0119 24.7544 34.0675 24.7336 34.0814C24.7162 34.0953 24.6086 34.1265 24.501 34.1508C24.251 34.2064 24.2267 34.189 24.1156 33.8626C24.0669 33.7237 23.9419 33.3696 23.8378 33.0745C23.4038 31.8453 23.2579 31.4252 23.2579 31.3766C23.2579 31.3245 23.2093 31.321 24.5079 31.4252ZM23.3309 32.1057C23.4663 32.4946 23.5982 32.8765 23.6225 32.9529C23.6503 33.0293 23.7579 33.3349 23.8621 33.63C23.9697 33.9251 24.0565 34.196 24.0565 34.2272C24.0565 34.2723 24.0288 34.2897 23.9558 34.2897C23.8968 34.2897 23.8413 34.3071 23.8274 34.3279C23.817 34.3487 23.7753 34.3557 23.7371 34.3487C23.6989 34.3383 23.6295 34.3453 23.5774 34.3592C23.442 34.4043 22.5843 34.5223 22.0774 34.5675C21.8378 34.5883 21.5045 34.6196 21.3309 34.6369C20.5219 34.7237 18.081 34.8348 18.1365 34.7828C18.1678 34.7515 19.1886 34.0432 20.751 32.9703C21.0983 32.7307 21.758 32.2759 22.2198 31.953C22.6816 31.6335 23.067 31.3766 23.0739 31.3835C23.0809 31.3905 23.1954 31.7168 23.3309 32.1057ZM13.0151 31.6057C13.2408 31.7793 13.4457 31.9182 13.6193 32.0259C13.6748 32.0571 13.772 32.1266 13.8311 32.1786C13.8936 32.2342 13.9561 32.2759 13.9699 32.2759C13.9873 32.2759 14.0533 32.3175 14.1227 32.3696C14.1887 32.4252 14.2963 32.4981 14.3554 32.5363C14.4977 32.6266 14.7512 32.8002 15.1678 33.0918C15.3484 33.2168 15.6505 33.4251 15.8414 33.5536C16.0289 33.6821 16.2268 33.8175 16.2789 33.8557C16.331 33.8939 16.4907 34.0015 16.6296 34.0953C16.949 34.3071 17.5706 34.7411 17.6157 34.7828C17.6713 34.8383 15.0185 34.7862 14.5429 34.7237C14.3241 34.6959 14.0741 34.6647 13.9873 34.6543C13.9005 34.6404 13.5568 34.6022 13.2234 34.564C12.5603 34.4911 12.1644 34.4182 11.8693 34.3244C11.6367 34.2515 11.6367 34.2515 11.8381 33.7064C11.9144 33.5015 12.0742 33.0467 12.1957 32.6925C12.6019 31.5155 12.6332 31.4425 12.72 31.4425C12.7651 31.4425 12.8971 31.5155 13.0151 31.6057Z" fill="currentColor" stroke="currentColor" stroke-width="0.5"/>
</g>
<defs>
<clipPath id="clip0_400_45">
<rect width="35" height="35" fill="white"/>
</clipPath>
</defs>
</svg>
