<svg width="31" height="39" viewBox="0 0 31 39" fill="none" xmlns="http://www.w3.org/2000/svg">
<path d="M26.0622 0.886475H5.67352L0.94043 6.02389V33.3707L5.63314 38.5084H26.0219L30.7146 33.3707V6.02389L26.0622 0.886475ZM25.4149 9.26041L23.1899 6.63106L24.1608 5.09374L26.8309 8.0874L25.4149 9.26041ZM22.1785 32.0764H9.55695L6.96791 29.0423V10.3122L9.55695 7.27818H22.1785L24.7676 10.3122V29.0828L22.1785 32.0764ZM22.1382 6.10502H9.59751L8.70752 4.72966H22.9877L22.1382 6.10502ZM7.53436 5.09367L8.50533 6.63099L6.28029 9.26034L4.86427 8.12763L7.53436 5.09367ZM4.62169 9.46268L5.7947 10.393V29.0018L4.62169 29.9322V9.46268ZM6.32075 30.1346L8.54578 32.7639L7.57482 34.3012L4.90479 31.3076L6.32075 30.1346ZM9.59743 33.29H22.0977L22.9876 34.6653H8.70745L9.59743 33.29ZM24.2013 34.3013L23.2303 32.764L25.4553 30.1346L26.8713 31.2674L24.2013 34.3013ZM25.9409 29.0019V10.3932L27.1139 9.46283V29.9729L25.9409 29.0019ZM27.8016 7.35916L24.8486 4.0418L25.8599 2.50448L29.258 6.22623L27.8016 7.35916ZM23.7969 3.47573H7.93897L7.04899 2.10038H24.6868L23.7969 3.47573ZM6.84672 4.04207L3.89367 7.35943L2.43733 6.18641L5.83538 2.46466L6.84672 4.04207ZM3.408 8.49185V30.9437L2.19432 31.9147V7.52103L3.408 8.49185ZM3.93399 32.036L6.88704 35.3533L5.8757 36.8906L2.47765 33.1689L3.93399 32.036ZM7.93877 35.9194H23.7562L24.6462 37.2947L7.04879 37.295L7.93877 35.9194ZM24.8889 35.353L27.842 32.0357L29.2983 33.2087L25.9003 36.9305L24.8889 35.353ZM28.3276 30.9437V8.45134L29.5413 7.48037V31.874L28.3276 30.9437Z" fill="currentColor"/>
</svg>
