<svg width="35" height="35" viewBox="0 0 35 35" fill="none" xmlns="http://www.w3.org/2000/svg">
<g clip-path="url(#clip0_400_4)">
<path d="M26.675 5.1625V29.8375L9 35V0L26.675 5.1625Z" stroke="currentColor" stroke-width="0.7"/>
<path d="M25.1001 7.43711L22.6501 7.34961L23.7001 5.16211H26.1501L25.1001 7.43711Z" stroke="currentColor" stroke-width="0.7"/>
<path d="M11.2751 1.57617L12.0626 4.37617L9.78765 3.15117L9.08765 0.263672L11.2751 1.57617Z" stroke="currentColor" stroke-width="0.7"/>
<path d="M11.9749 4.46289L17.2249 4.81289L22.5624 7.43789" stroke="currentColor" stroke-width="0.7"/>
<path d="M23.7 5.16367L11.3625 1.57617L17.1375 4.72617L23.7 5.16367Z" stroke="currentColor" stroke-width="0.7"/>
<path d="M25.1001 27.6504H22.6501L23.7001 29.8379H26.1501L25.1001 27.6504Z" stroke="currentColor" stroke-width="0.7"/>
<path d="M11.2751 33.5125L12.0626 30.625L9.78765 31.85L9.08765 34.7375L11.2751 33.5125Z" stroke="currentColor" stroke-width="0.7"/>
<path d="M11.9749 30.625L17.2249 30.1875L22.5624 27.5625" stroke="currentColor" stroke-width="0.7"/>
<path d="M23.7 29.8379L11.3625 33.4254L17.1375 30.2754L23.7 29.8379Z" stroke="currentColor" stroke-width="0.7"/>
<path d="M22.5625 27.5625L23.9625 17.5L25.1875 27.5625V7.4375L23.9625 17.5875L22.5625 7.4375" stroke="currentColor" stroke-width="0.7"/>
<path d="M11.9749 4.46133L11.0124 17.4988L9.78735 3.23633V31.8488L11.0124 17.4988L11.9749 30.5363" stroke="currentColor" stroke-width="0.7"/>
</g>
<defs>
<clipPath id="clip0_400_4">
<rect width="35" height="35" fill="white"/>
</clipPath>
</defs>
</svg>
