<svg width="35" height="35" viewBox="0 0 35 35" fill="none" xmlns="http://www.w3.org/2000/svg">
<path d="M15.5446 1.71525L13.5439 3.44747L11.4045 6.61745L9.26525 9.78743L8.00938 13.3905L6.76218 17.0022L6.38109 19.8084L6 22.6146L6.61494 25.6546L7.22122 28.686L8.2519 30.2104L9.29123 31.7261L11.0841 32.904L12.8769 34.0819L15.2847 34.541L17.6925 35L20.0484 34.541C22.716 34.03 22.4475 34.1425 24.6734 32.6615L26.0852 31.7261L27.1159 30.2104L28.1465 28.6947L28.7528 25.646L29.3677 22.5973L28.9867 19.7997L28.6056 17.0022L27.3497 13.3818C26.6655 11.3897 26.0245 9.65751 25.9379 9.51893C25.8513 9.38902 24.8899 7.95993 23.79 6.34896L21.7979 3.43015L19.8232 1.72391C18.7405 0.788505 17.7878 0.017664 17.7012 0.000341771C17.6059 -0.0169805 16.8004 0.623944 15.5446 1.71525ZM18.9657 3.36952C19.6413 4.75531 20.1956 5.92456 20.1956 5.9592C20.1956 5.99385 19.6326 6.50486 18.9397 7.08515L17.6839 8.14181L16.428 7.08515C15.7351 6.50486 15.1721 6.00251 15.1721 5.96787C15.1635 5.86393 17.6319 0.849133 17.6839 0.849133C17.7185 0.849133 18.2902 1.98374 18.9657 3.36952ZM15.865 3.36086C15.3194 4.46083 14.8517 5.35292 14.8257 5.35292C14.7824 5.35292 14.1848 3.99313 14.1155 3.74195C14.0895 3.63802 16.7398 1.28219 16.8091 1.34282C16.8351 1.36014 16.402 2.26956 15.865 3.36086ZM21.2782 3.68999C21.2782 3.80258 20.594 5.35292 20.542 5.35292C20.4814 5.35292 18.55 1.45541 18.55 1.34282C18.55 1.30817 19.1649 1.80186 19.9184 2.45144C20.6633 3.10103 21.2782 3.664 21.2782 3.68999ZM24.7427 8.71345C24.7254 8.73943 21.2956 6.30565 20.8972 5.99385C20.8712 5.96787 21.4082 4.64271 21.5987 4.28761C21.668 4.15769 21.9452 4.51279 23.227 6.40958C24.0758 7.66545 24.7514 8.69612 24.7427 8.71345ZM14.1328 5.09309C14.332 5.57811 14.4879 5.97653 14.4706 5.99385C14.0549 6.32297 10.6424 8.73943 10.625 8.71345C10.5817 8.67014 13.6131 4.22698 13.6911 4.22698C13.7257 4.22698 13.9249 4.61673 14.1328 5.09309ZM16.1509 7.48356C16.7571 7.98591 17.2508 8.43629 17.2508 8.4796C17.2508 8.56621 13.7604 12.533 13.7171 12.4984C13.6738 12.4551 14.947 6.56548 14.9989 6.56548C15.0249 6.56548 15.5446 6.98122 16.1509 7.48356ZM21.0444 9.48429C21.3908 11.0953 21.668 12.4464 21.668 12.481C21.668 12.5157 20.8712 11.6496 19.8925 10.5583C18.9138 9.4583 18.1169 8.5229 18.1169 8.4796C18.1169 8.40165 20.2736 6.56548 20.3688 6.56548C20.3948 6.56548 20.6979 7.88198 21.0444 9.48429ZM13.6911 10.0819L12.9895 13.3558L11.8463 14.7503C11.214 15.5124 10.4691 16.4219 10.192 16.7683L9.67232 17.4006L9.655 16.5951C9.63768 16.1534 9.655 14.4818 9.69831 12.8881L9.75893 9.99529L12.0541 8.34102C13.3187 7.42294 14.358 6.70406 14.3753 6.73871C14.384 6.77335 14.0808 8.27173 13.6911 10.0819ZM25.4962 9.93467C25.6175 10.0559 25.6435 10.4976 25.6954 13.7542C25.7301 16.0754 25.7214 17.4006 25.6694 17.3486C25.6261 17.2966 25.0112 16.5604 24.3096 15.703C23.5994 14.8455 22.8806 13.9708 22.6987 13.7542C22.3782 13.3645 22.3695 13.3212 21.6767 10.0906C21.2869 8.29771 20.9751 6.79067 20.9751 6.73871C20.9751 6.6521 25.2017 9.64019 25.4962 9.93467ZM19.7625 11.1645C20.8625 12.4031 21.8239 13.5204 21.8932 13.6503C22.0491 13.9361 24.4396 22.7618 24.4396 23.039C24.4396 23.3161 23.0971 28.2097 23.0018 28.2963C22.9585 28.3309 21.7459 28.8419 20.3082 29.4222L17.6839 30.4875L15.0682 29.4222C13.6218 28.8419 12.4092 28.3309 12.3659 28.2963C12.3226 28.2616 11.9675 27.0577 11.5778 25.6286L10.8676 23.0216L12.1407 18.3533C12.8423 15.7896 13.4659 13.6157 13.5352 13.5204C13.7864 13.1739 17.6232 8.90399 17.6839 8.90399C17.7185 8.90399 18.6539 9.91734 19.7625 11.1645ZM28.0772 17.0108C28.0772 17.0541 26.3363 17.7557 26.3017 17.7297C26.2844 17.7037 26.2411 16.3093 26.2151 14.6203L26.1631 11.5456L27.1245 14.2739C27.6442 15.7723 28.0772 17.0108 28.0772 17.0108ZM9.16131 14.7243C9.13533 16.3526 9.08336 17.7037 9.06604 17.721C9.00541 17.7817 7.28185 17.0368 7.30783 16.9588C7.32515 16.9242 7.74089 15.7463 8.23457 14.3345C8.73692 12.9141 9.16131 11.7622 9.1873 11.7622C9.20462 11.7622 9.19596 13.096 9.16131 14.7243ZM12.4092 15.5038C11.2053 19.921 10.6337 21.9823 10.6164 21.965C10.6077 21.9477 10.3825 21.0989 10.114 20.0769C9.71563 18.5265 9.655 18.1974 9.75027 18.0935C9.8109 18.0155 10.4778 17.2014 11.2313 16.2833C11.9848 15.3739 12.6084 14.6203 12.6258 14.6203C12.6344 14.6203 12.5392 15.0188 12.4092 15.5038ZM24.275 16.4392C24.9592 17.2707 25.5742 18.0155 25.6348 18.0935C25.7214 18.2061 25.6521 18.5612 25.2537 20.0855C24.9939 21.1075 24.76 21.9477 24.7514 21.965C24.734 21.9823 24.1624 19.9296 22.9585 15.4951C22.664 14.4211 22.5514 14.3345 24.275 16.4392ZM8.07867 17.8769C8.47709 18.0502 8.84085 18.2234 8.8755 18.258C8.9188 18.2927 8.4511 19.0289 7.84482 19.895C7.23854 20.7524 6.72754 21.4453 6.70155 21.428C6.66691 21.3847 7.09996 17.8943 7.16925 17.6691C7.21256 17.5218 7.26453 17.5305 8.07867 17.8769ZM28.441 19.384C28.5709 20.3627 28.6749 21.2375 28.6575 21.3241C28.6489 21.4367 28.2678 20.9603 27.5576 19.9383C26.96 19.0895 26.4749 18.3533 26.4749 18.31C26.4749 18.2147 27.904 17.5738 28.0772 17.5911C28.1725 17.6084 28.2591 18.0155 28.441 19.384ZM9.93216 21.3587L10.3566 23.039L9.8109 24.6499C9.50776 25.542 9.2306 26.3215 9.19596 26.3822C9.13533 26.5121 6.64959 22.8138 6.64959 22.5886C6.64959 22.5193 7.22988 21.6272 7.94009 20.6138L9.23927 18.769L9.37784 19.2281C9.44713 19.4792 9.69831 20.4406 9.93216 21.3587ZM27.5056 20.7178C28.2072 21.7138 28.7615 22.5799 28.7528 22.6319C28.7182 22.7705 26.3104 26.4861 26.2584 26.4861C26.1978 26.4861 25.0458 23.1775 25.0458 23.0043C25.0458 22.935 25.2797 21.9736 25.5655 20.8737C25.8513 19.7824 26.0852 18.847 26.0852 18.8123C26.0852 18.6997 26.1718 18.8123 27.5056 20.7178ZM7.88813 25.4641C8.41646 26.2609 8.84951 26.9538 8.84951 26.9971C8.84951 27.0837 7.76687 28.0451 7.66294 28.0451C7.61963 28.0451 7.42043 27.179 7.21256 26.1137C6.99603 25.057 6.81415 24.1129 6.78816 24.0177C6.72754 23.7405 6.84879 23.9137 7.88813 25.4641ZM11.673 27.9412C11.6471 27.9585 9.62902 27.0318 9.56839 26.9711C9.54241 26.9538 10.3306 24.6153 10.5471 24.061C10.5731 23.9917 10.8416 24.8232 11.1447 25.9231C11.4479 27.0144 11.6817 27.9239 11.673 27.9412ZM25.3403 25.4901C25.6261 26.3215 25.8427 27.0144 25.8167 27.0318C25.6868 27.127 23.738 27.9758 23.712 27.9498C23.6687 27.9065 24.7254 23.9744 24.786 23.9744C24.812 23.9744 25.0632 24.6586 25.3403 25.4901ZM28.1898 25.9664C27.9733 27.0404 27.7654 27.9498 27.7308 27.9931C27.6875 28.0364 27.419 27.8719 27.1072 27.6034C26.8041 27.3522 26.5442 27.1357 26.5269 27.1184C26.5096 27.1097 26.7694 26.6766 27.0985 26.1656C27.4363 25.6546 27.8867 24.9444 28.1119 24.598C28.3457 24.2515 28.5363 23.9744 28.5536 23.9917C28.5709 24.009 28.4064 24.8925 28.1898 25.9664ZM10.7723 28.0884L11.9242 28.6514L12.6691 30.1931C13.0848 31.0332 13.4139 31.7348 13.4053 31.7434C13.3793 31.7694 9.76759 31.3363 9.74161 31.3017C9.655 31.2151 9.4991 27.5254 9.57705 27.5254C9.60303 27.5254 10.14 27.7766 10.7723 28.0884ZM25.7907 29.4136C25.7214 30.4269 25.6521 31.2757 25.6348 31.3017C25.6088 31.319 24.9159 31.4143 24.0845 31.5096C23.253 31.6048 22.4302 31.7088 22.2483 31.7348L21.9192 31.7867L22.664 30.2797C23.0798 29.4569 23.4609 28.738 23.5128 28.6774C23.6168 28.5821 25.8513 27.5254 25.886 27.5601C25.8946 27.5687 25.8513 28.4002 25.7907 29.4136ZM9.12667 29.6647C9.14399 30.1498 9.12667 30.5222 9.09203 30.4962C9.04872 30.4789 8.73692 30.0458 8.39913 29.5348L7.78419 28.6167L8.12198 28.3569C8.30386 28.2097 8.57236 27.9845 8.7196 27.8546L8.97943 27.6207L9.04006 28.201C9.06604 28.5215 9.10935 29.1797 9.12667 29.6647ZM26.9946 28.149C27.3064 28.3916 27.5576 28.6081 27.5576 28.6341C27.5576 28.7207 26.319 30.4702 26.2844 30.4356C26.2324 30.3836 26.3537 27.6987 26.4056 27.6987C26.423 27.6987 26.6915 27.8979 26.9946 28.149ZM14.8603 29.8639C15.9863 30.3143 16.9044 30.7041 16.9044 30.7301C16.9044 30.782 14.2194 31.6828 14.0635 31.6828C13.9769 31.6828 12.6604 29.197 12.6604 29.0325C12.6604 28.9718 12.4699 28.9026 14.8603 29.8639ZM22.7073 29.0411C22.7073 29.2057 21.3822 31.6828 21.2956 31.6828C21.1657 31.6828 18.6886 30.86 18.5413 30.7647C18.4894 30.7301 19.3468 30.3316 20.5074 29.8553C22.5947 29.0065 22.7073 28.9632 22.7073 29.0411ZM19.2169 31.5182C20.0657 31.8127 20.7932 32.0812 20.8279 32.1158C20.8712 32.1505 20.1783 32.6875 19.2948 33.3111L17.6839 34.4457L16.0729 33.3197C15.1895 32.6961 14.4966 32.1591 14.5226 32.1245C14.5659 32.0899 16.7658 31.293 17.6579 30.9986C17.6666 30.9899 18.3681 31.2324 19.2169 31.5182ZM12.0974 32.0899C12.8163 32.1678 13.4139 32.2458 13.4313 32.2544C13.4832 32.2977 12.8856 33.415 12.8077 33.415C12.773 33.415 12.2447 33.0859 11.6384 32.6788C11.0321 32.2717 10.5991 31.9426 10.6684 31.9426C10.7376 31.9426 11.3872 32.0032 12.0974 32.0899ZM23.7293 32.6788C23.1231 33.0859 22.5947 33.415 22.5514 33.415C22.4821 33.415 21.9971 32.4796 21.9798 32.315C21.9711 32.2458 23.8679 31.9773 24.5262 31.9513C24.8033 31.9426 24.734 32.0032 23.7293 32.6788ZM15.2934 33.3717C15.943 33.8394 16.4713 34.2292 16.454 34.2465C16.4193 34.2811 13.4313 33.6922 13.3793 33.6402C13.31 33.5709 13.9163 32.4623 14.0116 32.4969C14.0635 32.5143 14.6438 32.9127 15.2934 33.3717ZM21.7373 33.0339C21.8932 33.3544 22.0144 33.6229 21.9971 33.6315C21.9538 33.6748 18.9397 34.2638 18.9138 34.2378C18.8878 34.2118 21.3389 32.4623 21.4082 32.4623C21.4341 32.4623 21.5814 32.7221 21.7373 33.0339Z" fill="currentColor"/>
</svg>
