<svg width="35" height="35" viewBox="0 0 35 35" fill="none" xmlns="http://www.w3.org/2000/svg">
<g clip-path="url(#clip0_400_46)">
<path d="M17.4279 1.03834C17.3766 1.06567 17.3117 1.08957 17.2878 1.08957C17.2673 1.08957 16.9019 1.47893 16.4784 1.95025C16.0549 2.42499 15.6621 2.86216 15.6109 2.92363C15.5562 2.9817 15.4674 3.08074 15.4128 3.14563C14.5692 4.10194 14.3233 4.36834 14.2755 4.36834C14.2618 4.36834 14.1935 4.45714 14.1252 4.56643C14.0125 4.74745 13.7017 5.23926 12.4277 7.25434C12.1545 7.68468 11.6695 8.44289 11.3553 8.93812C11.0411 9.43335 10.7815 9.8432 10.7815 9.85003C10.7815 9.85345 10.5288 10.2565 10.218 10.7414C9.69543 11.5646 9.39829 12.0359 8.18925 13.9417C7.93651 14.3413 7.68377 14.7409 7.62229 14.8365C7.56423 14.9287 7.45494 15.1063 7.3798 15.2293C7.30808 15.3522 7.23635 15.4547 7.22269 15.4615C7.20903 15.4683 7.08266 15.7074 6.9358 15.9909C6.79235 16.2778 6.59426 16.6637 6.49522 16.8516C6.15709 17.4971 5.87362 18.047 5.55599 18.6617C5.3818 18.9998 5.14955 19.4438 5.04368 19.6522C4.9378 19.8571 4.69189 20.3353 4.49722 20.711C4.30595 21.0866 4.06005 21.5614 3.95076 21.7697C3.84146 21.9746 3.62971 22.3879 3.47602 22.6816C2.97054 23.6618 2.64608 24.2903 2.41383 24.7411C2.28746 24.9836 2.02448 25.4925 1.83322 25.8682C1.63854 26.2439 1.45411 26.6025 1.41996 26.6605C1.36531 26.7596 1.28334 26.9918 1.09208 27.61C1.06476 27.7022 1.02719 27.8081 1.01011 27.8389C0.993033 27.873 0.979372 27.9311 0.979372 27.9652C0.979372 28.0028 0.96571 28.0677 0.948633 28.1121C0.91448 28.1872 0.78128 28.6107 0.586603 29.2494C0.535372 29.4168 0.484141 29.5944 0.467064 29.6422C0.453403 29.69 0.391926 29.8813 0.33728 30.0691C0.279218 30.2569 0.176757 30.6019 0.105034 30.8341C-0.0213353 31.244 -0.0213353 31.2577 0.0401416 31.3021C0.0742954 31.3294 0.142603 31.3499 0.190418 31.3499C0.234818 31.3499 0.320203 31.3635 0.378264 31.384C0.436326 31.4011 0.65491 31.4557 0.859833 31.5036C1.06817 31.5514 1.297 31.606 1.37214 31.6265C1.44728 31.647 1.56682 31.6777 1.63854 31.6948C1.70685 31.7119 1.82297 31.7392 1.89469 31.7563C1.963 31.7768 2.09962 31.8075 2.19183 31.828C2.28746 31.8519 2.50263 31.9066 2.66999 31.951C2.84076 31.9954 3.23011 32.091 3.53749 32.1696C3.84488 32.2447 4.11811 32.3233 4.14202 32.3437C4.16934 32.3677 4.50063 32.395 4.9822 32.4121C5.41937 32.4325 5.99315 32.4599 6.25614 32.4804C6.51912 32.4974 6.79577 32.5111 6.87091 32.5077C7.03485 32.5009 6.96312 32.5009 7.92968 32.5418C8.69472 32.5726 9.82521 32.6306 10.3375 32.6648C10.6791 32.6853 11.8437 32.7399 12.6088 32.7638C12.9469 32.7775 13.285 32.8014 13.3601 32.8185C13.5104 32.8526 14.3643 32.8902 15.3752 32.9073C15.7338 32.9107 16.4237 32.9346 16.9155 32.9551C17.6055 32.9824 17.8275 32.9824 17.8958 32.9517C17.9675 32.9175 18.0153 32.9209 18.1212 32.9551C18.2066 32.9824 18.3193 32.9893 18.4217 32.9756C18.5105 32.9653 19.0536 32.938 19.6274 32.9209C20.2011 32.9005 20.8398 32.8697 21.0447 32.8526C21.2531 32.8321 21.7039 32.8048 22.0523 32.7843C23.3467 32.716 23.9683 32.6819 24.7675 32.6341C25.2183 32.6067 25.9014 32.576 26.2874 32.5623C26.6733 32.5521 27.0251 32.5248 27.0729 32.5077C27.1207 32.4906 27.4213 32.4701 27.7389 32.4633C28.7328 32.4325 29.8735 32.3779 30.2663 32.3403C30.6317 32.3062 31.2328 32.1969 31.4036 32.132C31.448 32.1149 31.5675 32.1013 31.67 32.1013C31.7725 32.1013 31.8544 32.0876 31.8544 32.0705C31.8544 32.0534 31.8886 32.0329 31.933 32.0227C31.974 32.0125 32.1242 31.9749 32.2643 31.9339C32.4043 31.8963 32.5614 31.8622 32.6126 31.8622C32.6639 31.8622 32.7151 31.8485 32.7254 31.828C32.7356 31.8109 32.7971 31.7939 32.8586 31.7939C32.9166 31.7939 32.9815 31.7802 32.9986 31.7631C33.043 31.7187 33.668 31.5548 33.791 31.5548C33.9071 31.5548 34.4399 31.4284 34.5253 31.384C34.5594 31.3635 34.6106 31.3499 34.638 31.3499C34.7029 31.3499 34.8087 31.2884 34.918 31.1893L35 31.1142L34.9249 30.882C34.8839 30.7556 34.8395 30.619 34.8258 30.5814C34.8122 30.5438 34.7814 30.4448 34.7575 30.3594C34.7336 30.274 34.6619 30.052 34.6004 29.8642C34.4467 29.3826 34.2076 28.6381 34.0608 28.1565C33.989 27.9311 33.9207 27.7091 33.9037 27.6613C33.8866 27.6134 33.8388 27.4597 33.7978 27.3197C33.7568 27.1797 33.6953 27.0328 33.6646 26.9953C33.6304 26.9577 33.3094 26.3258 32.9474 25.5949C32.5887 24.8606 32.2745 24.2322 32.254 24.1946C32.2335 24.1571 32.1516 24.0034 32.0764 23.8531C31.9979 23.7028 31.9193 23.5491 31.8988 23.5116C31.8783 23.474 31.7861 23.2896 31.6973 23.1017C31.6051 22.9139 31.5231 22.7533 31.5129 22.7431C31.5026 22.7329 31.4651 22.6645 31.4309 22.5894C31.4002 22.5143 31.3387 22.3913 31.3011 22.3162C31.2636 22.241 31.2021 22.1249 31.1679 22.06C31.1338 21.9951 31.0382 21.8005 30.9562 21.6331C30.8708 21.4623 30.7786 21.2779 30.7478 21.2233C30.7205 21.1652 30.6454 21.0183 30.5873 20.8886C30.5293 20.7622 30.4678 20.6495 30.4507 20.6392C30.4336 20.629 30.42 20.6017 30.42 20.5743C30.42 20.547 30.3824 20.4685 30.3346 20.4002C30.2868 20.3318 30.2492 20.2465 30.2492 20.2123C30.2492 20.1747 30.2355 20.1474 30.215 20.1474C30.198 20.1474 30.1809 20.1167 30.1809 20.0825C30.1809 20.045 30.1672 20.0108 30.1536 20.004C30.1399 19.9971 30.0853 19.9083 30.034 19.8059C29.9862 19.7034 29.9008 19.5326 29.8428 19.4302C29.7881 19.3277 29.5695 18.8871 29.351 18.4568C29.1358 18.023 28.9274 17.6098 28.8899 17.5346C28.8489 17.4595 28.7874 17.3366 28.7498 17.2614C28.7157 17.1863 28.5449 16.855 28.3742 16.5271C28.2 16.1992 28.036 15.844 28.0087 15.7416C27.978 15.6391 27.9097 15.482 27.855 15.3898C27.8004 15.301 27.756 15.2156 27.756 15.1985C27.756 15.1814 27.7423 15.161 27.7252 15.1541C27.7047 15.1473 27.1036 14.232 26.8509 13.8255C26.8338 13.7948 26.745 13.6582 26.6562 13.525C26.564 13.3918 26.4923 13.2722 26.4923 13.2586C26.4923 13.2483 26.4206 13.139 26.3318 13.0161C26.2395 12.8931 26.1303 12.7258 26.0824 12.6438C26.0346 12.5653 25.9424 12.4184 25.8741 12.3194C25.8058 12.2203 25.6384 11.9607 25.4984 11.7456C25.3584 11.5304 25.1979 11.2845 25.1432 11.2025C24.9519 10.9225 24.9246 10.8746 24.8631 10.7551C24.8324 10.6902 24.7812 10.6117 24.7504 10.5843C24.7026 10.5399 24.3782 10.055 24.2894 9.89785C24.2381 9.80563 23.8659 9.24892 23.7907 9.14988C23.7531 9.10206 23.6746 8.98252 23.6131 8.88348C23.5551 8.78102 23.4799 8.66489 23.4526 8.62049C23.4253 8.57951 23.316 8.41557 23.2135 8.25505C23.1111 8.09794 23.012 7.94425 22.9915 7.91351C22.9744 7.88619 22.8959 7.77006 22.8242 7.66077C22.7115 7.49342 22.025 6.45173 21.5912 5.78573C20.7476 4.49813 20.5188 4.17366 20.4027 4.09853C20.3617 4.0712 20.2114 3.92434 20.0714 3.77407C19.6 3.26517 18.8965 2.51037 18.5857 2.1825C17.9128 1.46868 17.7011 1.22619 17.6499 1.12031C17.585 0.983697 17.5542 0.973451 17.4279 1.03834ZM18.6062 2.56502C19.1185 3.1149 19.6547 3.68868 19.7981 3.83896C20.2695 4.33419 20.4129 4.49471 20.4129 4.52886C20.4129 4.54594 20.3173 4.68939 20.2011 4.8465C20.0816 5.0036 19.9484 5.19828 19.9006 5.27683C19.8528 5.3588 19.7674 5.47493 19.7059 5.5364C19.6479 5.59788 19.5761 5.69693 19.5454 5.7584C19.5181 5.81646 19.4737 5.88477 19.4498 5.91209C19.4259 5.93942 19.3917 5.98382 19.3712 6.01114C19.1868 6.30145 18.9989 6.52003 18.9682 6.48246C18.9614 6.47563 18.9204 6.33902 18.8794 6.17849C18.7769 5.78914 18.6745 5.39979 18.6369 5.27342C18.6232 5.21536 18.5788 5.05483 18.5379 4.9148C18.5003 4.77477 18.4456 4.56643 18.4149 4.45373C18.3534 4.23173 18.2817 3.96191 18.1417 3.42911C18.0904 3.24127 18.0358 3.03293 18.0187 2.96803C17.9982 2.90314 17.9709 2.79385 17.9572 2.72896C17.9402 2.66407 17.9197 2.58551 17.9094 2.55819C17.8992 2.53087 17.8514 2.36693 17.8035 2.19957C17.7523 2.0288 17.6977 1.84437 17.6806 1.78631C17.6464 1.68044 17.6362 1.56773 17.6601 1.56773C17.6669 1.56773 18.0939 2.01856 18.6062 2.56502ZM17.1205 1.71117C17.0897 1.81022 16.8643 2.67431 16.8267 2.83142C16.8097 2.89631 16.7277 3.2276 16.6389 3.56573C16.5501 3.90385 16.4647 4.23514 16.4511 4.30003C16.434 4.36493 16.3862 4.56643 16.3383 4.74403C16.2905 4.92163 16.1812 5.34514 16.0924 5.67985C16.0071 6.01797 15.9319 6.30145 15.9217 6.30828C15.9148 6.31511 15.8909 6.31169 15.8704 6.29803C15.8158 6.26388 15.4606 5.70717 15.4606 5.65253C15.4606 5.6252 15.4333 5.58422 15.4025 5.56031C15.3479 5.5125 14.7775 4.65865 14.7775 4.62108C14.7775 4.61083 14.7468 4.55619 14.7092 4.50496L14.6409 4.40591L14.9175 4.08828C15.3957 3.54523 15.8841 3.03634 15.9456 3.01585C15.9797 3.0056 16.0071 2.97487 16.0071 2.94754C16.0071 2.92022 16.0241 2.89973 16.0412 2.89973C16.0617 2.89973 16.0754 2.88265 16.0754 2.86557C16.0754 2.83142 16.4067 2.46597 16.6765 2.20299C16.7379 2.14493 16.7926 2.05954 16.8063 2.01173C16.8233 1.92976 17.0658 1.63604 17.1171 1.63604C17.1307 1.63604 17.1307 1.67019 17.1205 1.71117ZM17.4449 1.83071C17.4654 1.90244 17.4927 2.0049 17.5098 2.06296C17.544 2.1825 17.6533 2.57868 17.7728 3.01927C17.8206 3.18662 17.8719 3.3813 17.8855 3.44619C17.9026 3.51108 17.9777 3.79456 18.0529 4.0712C18.1314 4.35126 18.1929 4.61083 18.1929 4.65523C18.1929 4.69622 18.2066 4.74403 18.2236 4.76111C18.2544 4.79526 18.3124 5.00019 18.4388 5.52957C18.4764 5.69009 18.5208 5.8472 18.5379 5.87794C18.5549 5.91209 18.5686 5.96674 18.5686 6.00089C18.5686 6.03163 18.5993 6.14434 18.6369 6.2468C18.6745 6.34926 18.7052 6.47563 18.7052 6.52686C18.7052 6.57809 18.7223 6.62933 18.7394 6.63957C18.7974 6.67373 18.7803 6.89914 18.7155 6.96062C18.6813 6.99136 18.6403 7.03917 18.6198 7.06991C18.5003 7.25776 18.3739 7.44902 18.2612 7.59588C18.1929 7.68809 17.9777 7.98523 17.7831 8.25163C17.5884 8.52145 17.4108 8.74003 17.3903 8.74003C17.3561 8.74003 16.9907 8.15259 16.9668 8.05696C16.9599 8.02963 16.9258 7.96474 16.8916 7.91351C16.8541 7.86569 16.8267 7.81446 16.8267 7.80422C16.8267 7.79056 16.796 7.74616 16.755 7.70517C16.7175 7.66419 16.6628 7.58222 16.6355 7.52757C16.6082 7.46951 16.5433 7.37046 16.4852 7.30557C16.4306 7.24068 16.3827 7.16896 16.3827 7.15188C16.3827 7.13139 16.3179 7.02551 16.2393 6.9128L16.0993 6.70788L16.1403 6.53711C16.1607 6.44489 16.1949 6.30486 16.212 6.22973C16.2291 6.15459 16.2598 6.03163 16.2803 5.95649C16.3042 5.88136 16.3383 5.74133 16.3588 5.64911C16.3827 5.55348 16.4101 5.46126 16.4203 5.44419C16.434 5.4237 16.4613 5.32465 16.4852 5.22219C16.5091 5.11973 16.5399 5.00702 16.5569 4.97628C16.574 4.94213 16.5877 4.8704 16.5877 4.81234C16.5877 4.75428 16.6184 4.64499 16.6526 4.56302C16.6901 4.48446 16.7277 4.34443 16.7414 4.25222C16.755 4.16 16.7858 4.05071 16.8131 4.00973C16.8575 3.94142 16.8814 3.84579 16.9599 3.46327C16.977 3.38813 17.0146 3.23443 17.0487 3.12173C17.0795 3.00902 17.1205 2.85533 17.1341 2.78019C17.1478 2.70505 17.1854 2.5616 17.2195 2.45914C17.2503 2.35668 17.281 2.19957 17.2844 2.11077C17.2878 2.01856 17.3049 1.93317 17.3151 1.91951C17.3288 1.90927 17.3391 1.85804 17.3391 1.8068C17.3391 1.718 17.3698 1.65653 17.4005 1.68385C17.4074 1.6941 17.4279 1.75899 17.4449 1.83071ZM14.5043 4.68597C14.5077 4.70988 14.5521 4.7816 14.6067 4.8465C14.6648 4.91139 14.7092 4.97628 14.7092 4.99336C14.7092 5.01043 14.7775 5.12314 14.8629 5.24268C14.9483 5.3588 15.0166 5.46468 15.0166 5.47493C15.0166 5.48176 15.1874 5.75499 15.3957 6.07603C15.604 6.40049 15.768 6.66689 15.7611 6.67373C15.7202 6.71813 14.7741 7.69151 13.9749 8.51462C13.4489 9.05425 13.0084 9.51191 12.9981 9.52899C12.9879 9.54606 12.7044 9.83979 12.3663 10.1847C12.0316 10.5263 11.3007 11.2742 10.7474 11.848C10.1941 12.4218 9.5554 13.081 9.32657 13.3166C9.09774 13.5523 8.72888 13.928 8.51029 14.1534C8.14485 14.5291 8.11752 14.5496 8.20291 14.3925C8.25755 14.2969 8.41125 14.0578 8.54786 13.8563C8.68789 13.6548 8.8006 13.484 8.8006 13.4738C8.8006 13.443 9.00211 13.1561 9.05675 13.1117C9.10798 13.0673 9.21044 12.8829 9.21044 12.8317C9.21044 12.7907 9.53832 12.3091 9.60321 12.2579C9.63054 12.234 9.65444 12.1998 9.65444 12.1827C9.65444 12.1486 9.89694 11.7831 9.96866 11.708C9.99257 11.6807 10.0438 11.5919 10.0814 11.5065C10.1189 11.4211 10.2214 11.2572 10.3102 11.1376C10.4024 11.0181 10.4741 10.9054 10.4741 10.8815C10.4741 10.8576 10.5117 10.7995 10.5595 10.7483C10.6073 10.697 10.6449 10.6424 10.6449 10.6253C10.6449 10.6048 10.7064 10.499 10.7815 10.3862C10.8567 10.2735 10.9181 10.1642 10.9181 10.1438C10.9181 10.1233 10.9694 10.0481 11.0343 9.97982C11.0957 9.90809 11.1948 9.75782 11.2528 9.64169C11.3109 9.52899 11.3792 9.41628 11.41 9.39237C11.4407 9.36505 11.4646 9.32748 11.4646 9.30357C11.4646 9.27966 11.4885 9.24209 11.5192 9.21477C11.5466 9.19086 11.608 9.09865 11.6524 9.01326C11.6968 8.92446 11.7891 8.78102 11.8574 8.6888C11.994 8.5112 12.0794 8.378 12.1716 8.19357C12.2023 8.12868 12.257 8.05012 12.2877 8.01939C12.3219 7.99206 12.3902 7.88277 12.4448 7.78031C12.5404 7.59588 12.5951 7.51049 12.7727 7.27825C12.8273 7.20994 12.9025 7.08357 12.94 7.0016C12.9776 6.92305 13.0528 6.81034 13.1074 6.75569C13.162 6.70446 13.2064 6.63957 13.2064 6.61566C13.2064 6.59176 13.2372 6.53369 13.2748 6.48588C13.3123 6.43806 13.3431 6.38 13.3431 6.35609C13.3431 6.32877 13.4114 6.22973 13.4968 6.13068C13.5787 6.03163 13.6914 5.87453 13.7427 5.77889C13.9817 5.34856 14.1525 5.0685 14.2413 4.96603C14.2925 4.90456 14.3335 4.81576 14.3335 4.76794C14.3335 4.64157 14.5009 4.56302 14.5043 4.68597ZM21.6185 6.28096C23.8829 9.75782 24.163 10.1882 24.5592 10.7893C24.788 11.1376 25.0066 11.4689 25.0407 11.5304C25.1091 11.6397 26.3864 13.5933 26.8065 14.2354C26.9363 14.4301 27.0353 14.594 27.0319 14.6008C27.0114 14.6179 26.6289 14.2695 26.6289 14.2354C26.6289 14.1978 26.4889 14.051 26.4342 14.0305C26.4137 14.0236 25.7307 13.3576 24.9144 12.5516C24.0981 11.749 23.4048 11.0762 23.374 11.0557C23.3433 11.0386 23.316 11.0078 23.316 10.9839C23.316 10.96 23.2784 10.919 23.234 10.8917C23.1862 10.8644 22.8651 10.5638 22.5202 10.2257C22.1752 9.8876 21.7654 9.49142 21.6049 9.34114C21.4478 9.19428 20.9252 8.68539 20.4471 8.21406C19.9689 7.74274 19.4805 7.27142 19.3644 7.16896C19.2448 7.06649 19.1424 6.96403 19.1355 6.94013C19.1151 6.89231 19.3063 6.49613 19.3951 6.40391C19.4293 6.36634 19.4566 6.31511 19.4566 6.2912C19.4566 6.26388 19.5215 6.17166 19.6035 6.08286C19.6854 5.99406 19.7981 5.84379 19.8596 5.75157C20.0884 5.38954 20.4539 4.88065 20.4846 4.88065C20.5017 4.88065 20.5154 4.85674 20.5154 4.826C20.5154 4.79185 20.5393 4.77819 20.5837 4.78502C20.6315 4.79185 20.9457 5.24951 21.6185 6.28096ZM16.1539 7.26117C16.2188 7.37046 16.4784 7.79397 16.7345 8.20382C16.9941 8.61366 17.2024 8.97228 17.2024 8.9996C17.2024 9.02692 17.0829 9.23185 16.9326 9.45043C16.7858 9.66902 16.2769 10.4409 15.8021 11.165C15.324 11.889 14.7639 12.7394 14.5555 13.0605C14.3438 13.3781 13.7392 14.3003 13.2064 15.1097C11.8915 17.1077 11.9257 17.0565 11.9154 17.0018C11.9018 16.9301 12.1716 16.2983 12.2706 16.1685C12.315 16.107 12.3526 16.0182 12.3526 15.9704C12.3526 15.9226 12.3663 15.8748 12.3833 15.8611C12.4004 15.8509 12.4414 15.7621 12.4756 15.663C12.5063 15.5674 12.5439 15.4786 12.5609 15.4683C12.5746 15.4581 12.6395 15.3044 12.7044 15.1268C12.7693 14.9492 12.8547 14.7443 12.8956 14.6726C12.9332 14.6008 12.9674 14.5154 12.9674 14.4813C12.9674 14.4471 13.0049 14.3447 13.0528 14.2525C13.1006 14.1602 13.1381 14.0612 13.1381 14.0339C13.1381 14.0066 13.1689 13.9451 13.2064 13.8973C13.244 13.8494 13.2748 13.7846 13.2748 13.7538C13.2748 13.7231 13.2918 13.6855 13.3089 13.6753C13.3294 13.665 13.3431 13.6206 13.3431 13.5762C13.3431 13.5352 13.3567 13.4874 13.3704 13.4669C13.3875 13.4498 13.4353 13.3235 13.4763 13.1869C13.5207 13.0502 13.589 12.8897 13.63 12.8282C13.6675 12.7668 13.7324 12.6336 13.7666 12.5311C13.8007 12.4286 13.8451 12.3296 13.8588 12.3091C13.8759 12.292 13.8895 12.251 13.8895 12.2169C13.8895 12.1827 13.9578 12.0051 14.0398 11.8241C14.1218 11.6397 14.2003 11.4518 14.214 11.404C14.2276 11.3562 14.272 11.2401 14.3164 11.1479C14.3608 11.0522 14.4291 10.8849 14.4701 10.7722C14.5111 10.6595 14.5658 10.5126 14.5965 10.4477C14.6238 10.3828 14.6614 10.2974 14.6751 10.2599C14.6887 10.2223 14.7331 10.1198 14.7741 10.031C14.8151 9.94225 14.8458 9.83979 14.8458 9.80905C14.8458 9.77489 14.8834 9.67926 14.9312 9.59729C14.979 9.51874 15.0166 9.43677 15.0166 9.41969C15.0166 9.38895 15.1293 9.12256 15.1908 9.00643C15.2079 8.97228 15.2215 8.92446 15.2215 8.89372C15.2215 8.83908 15.4435 8.36776 15.4947 8.31652C15.5152 8.29603 15.5289 8.21406 15.5289 8.12868C15.5289 8.02622 15.5801 7.84862 15.6894 7.58222C15.9285 6.98794 15.9729 6.9572 16.1539 7.26117ZM19.0809 7.79056C19.197 8.07745 19.32 8.37459 19.3541 8.44972C19.3883 8.52486 19.4805 8.75369 19.5591 8.96203C19.641 9.16696 19.7162 9.35139 19.7298 9.37188C19.7435 9.38895 19.7981 9.52215 19.8494 9.66219C19.904 9.80222 19.9791 9.99348 20.0201 10.0891C20.0645 10.1813 20.1465 10.3828 20.208 10.5331C20.2695 10.6834 20.3378 10.8507 20.3617 10.9088C20.3992 10.9942 21.7244 14.2354 22.3494 15.7757C22.4519 16.0285 22.5578 16.2812 22.5817 16.3393C22.6056 16.3939 22.6671 16.5476 22.7183 16.6808C22.7695 16.8106 22.8242 16.9472 22.8412 16.9779C22.9676 17.2238 22.5987 16.6945 22.3187 16.2334C22.1479 15.9499 21.6663 15.2327 21.5331 15.0551C21.4785 14.9868 21.4375 14.9219 21.4375 14.9082C21.4375 14.8809 21.1984 14.5018 21.1677 14.4779C21.1404 14.4608 20.6247 13.6889 20.43 13.3815C20.4129 13.3508 20.3548 13.2654 20.307 13.1937C20.1363 12.9375 18.6813 10.7346 18.2783 10.1233C18.0563 9.78514 17.824 9.42994 17.7626 9.33431C17.643 9.15671 17.6191 9.06791 17.6806 9.03034C17.7011 9.01668 17.7387 8.95862 17.766 8.90056C17.8548 8.71271 17.9675 8.52145 18.0324 8.45314C18.0631 8.41557 18.0904 8.37117 18.0904 8.35409C18.0904 8.26871 18.7803 7.27142 18.8384 7.27142C18.8555 7.27142 18.9648 7.50708 19.0809 7.79056ZM15.5187 7.34656C15.5084 7.37046 15.4128 7.61296 15.3069 7.88619C15.1976 8.15942 15.0747 8.46339 15.0303 8.56243C14.9859 8.66148 14.9483 8.75711 14.9483 8.77419C14.9483 8.79468 14.9346 8.83566 14.9141 8.86982C14.88 8.93129 13.9032 11.3426 13.7666 11.7046C13.7222 11.8207 13.6641 11.9676 13.6402 12.029C13.6129 12.0871 13.5651 12.193 13.5377 12.2579C13.5104 12.3228 13.4455 12.4799 13.3977 12.6097C13.3499 12.736 13.2884 12.8897 13.2611 12.9512C13.1757 13.1425 12.3526 15.1917 12.3526 15.2122C12.3526 15.2293 12.3253 15.2942 12.1511 15.6801C12.1135 15.7689 12.0794 15.8577 12.0794 15.8782C12.0794 15.8987 12.0657 15.9397 12.0452 15.9738C12.0281 16.0046 11.9632 16.1548 11.9052 16.3051C11.8471 16.4554 11.7788 16.6227 11.7549 16.6808C11.731 16.7354 11.5705 17.1282 11.3997 17.5517C11.2289 17.9718 11.0513 18.3714 11.0069 18.4397C10.9591 18.5046 10.7371 18.8188 10.5117 19.1399C10.2829 19.4575 9.92768 19.9596 9.72275 20.2499C9.51783 20.5402 9.17971 21.0183 8.97137 21.3086C8.76303 21.5989 8.42149 22.0805 8.20974 22.3777C8.0014 22.6748 7.80331 22.9549 7.77598 22.9958C7.74866 23.0368 7.57789 23.2759 7.40029 23.5252C7.22269 23.7745 7.03485 24.0409 6.98362 24.1127C6.93238 24.1844 6.73771 24.4576 6.55328 24.7138C6.36885 24.9733 6.06488 25.4003 5.88045 25.6633C5.44328 26.2849 5.18712 26.6264 5.13931 26.6571C5.11199 26.6742 5.10857 26.6503 5.12565 26.582C5.13931 26.5273 5.16322 26.4215 5.17688 26.3463C5.22811 26.1038 5.27934 25.875 5.33399 25.6291C5.36472 25.4959 5.40229 25.3217 5.41937 25.2363C5.45352 25.0485 5.63454 24.2151 5.70968 23.8873C5.74042 23.7541 5.77798 23.5696 5.79848 23.4774C5.81555 23.3818 5.84629 23.2452 5.85995 23.17C5.89069 23.0266 6.05122 22.282 6.10586 22.0429C6.12294 21.9678 6.15026 21.8278 6.17075 21.7356C6.21515 21.5033 6.36543 20.7963 6.42691 20.5231C6.45765 20.4002 6.49522 20.2226 6.51571 20.1303C6.53278 20.0347 6.56352 19.9049 6.5806 19.84C6.59768 19.7751 6.64891 19.519 6.70014 19.2765C6.78211 18.8564 6.81968 18.6856 6.88798 18.4056C6.90165 18.3407 6.93238 18.2075 6.94946 18.1153C6.96995 18.0196 7.01094 17.8284 7.04168 17.6883C7.07242 17.5483 7.10998 17.3707 7.12706 17.2956C7.14072 17.2204 7.17488 17.0667 7.19537 16.954C7.21586 16.8413 7.2466 16.7013 7.26709 16.6432C7.28417 16.5852 7.29783 16.51 7.29783 16.4725C7.29783 16.4349 7.31832 16.3358 7.34565 16.2505C7.37297 16.1685 7.41395 15.9875 7.43786 15.8474C7.48226 15.5947 7.48226 15.5913 7.77257 15.2839C7.93309 15.1166 8.64691 14.3925 9.35731 13.6787C10.0643 12.9649 10.6449 12.374 10.6483 12.3603C10.6483 12.3501 10.8293 12.1725 11.0548 11.9676C11.2768 11.7592 11.4578 11.5816 11.4612 11.568C11.468 11.5202 12.2706 10.721 12.3116 10.721C12.3355 10.721 12.3526 10.7039 12.3526 10.6834C12.3526 10.6629 12.4619 10.5331 12.5917 10.3999C12.7249 10.2633 12.8308 10.1369 12.8308 10.1198C12.8308 10.1028 12.8888 10.0481 12.9605 10.0003C13.0288 9.94908 13.1723 9.81588 13.2748 9.69975C13.7358 9.19086 14.1764 8.74003 14.2174 8.74003C14.2379 8.74003 14.3096 8.67172 14.3711 8.58976C14.436 8.50437 14.5145 8.42923 14.5453 8.4224C14.5794 8.41216 14.617 8.378 14.6272 8.34043C14.6409 8.30628 14.7468 8.17991 14.8629 8.05696C14.9824 7.934 15.0849 7.81105 15.0917 7.78031C15.0951 7.74616 15.1874 7.63003 15.2898 7.51732C15.4674 7.31923 15.5562 7.25434 15.5187 7.34656ZM19.3678 7.51732C19.4122 7.56172 19.7298 7.87252 20.0748 8.21065C20.4197 8.54877 20.9867 9.10206 21.3351 9.43677C21.6834 9.77489 22.2675 10.3418 22.6329 10.7005C23.2682 11.3255 25.1671 13.1698 26.2191 14.191C26.4923 14.454 26.909 14.8604 27.148 15.0926C27.3905 15.3249 27.6159 15.5742 27.6501 15.6425C27.6877 15.7142 27.756 15.9123 27.8038 16.0831C27.8516 16.2573 27.9028 16.4144 27.9233 16.4349C27.9814 16.51 28.1419 17.2273 28.1487 17.4698C28.1556 17.603 28.1761 17.7464 28.1966 17.784C28.217 17.8215 28.2341 17.883 28.2341 17.9206C28.2341 17.9547 28.258 18.0299 28.2854 18.0879C28.3127 18.146 28.3502 18.2587 28.3707 18.3407C28.3878 18.4226 28.4459 18.6378 28.4937 18.8154C28.5449 18.993 28.5927 19.2321 28.603 19.3448C28.6098 19.4575 28.6303 19.5668 28.6474 19.5873C28.6918 19.6419 28.8011 19.9869 28.8626 20.267C28.9343 20.5812 28.9889 20.7963 29.0231 20.8817C29.0367 20.9193 29.0572 21.0047 29.0709 21.0696C29.0811 21.1345 29.0982 21.2335 29.1085 21.2916C29.1187 21.3462 29.1426 21.4248 29.1597 21.4623C29.1768 21.4999 29.2075 21.6058 29.228 21.7014C29.2451 21.7936 29.2792 21.9337 29.2963 22.0088C29.3168 22.0839 29.3441 22.2069 29.3612 22.282C29.3783 22.3572 29.4056 22.4801 29.4261 22.5553C29.4466 22.6304 29.4739 22.7533 29.491 22.8285C29.5115 22.9036 29.549 23.0641 29.5832 23.1871C29.6447 23.433 29.6891 23.6004 29.7335 23.7916C29.795 24.0614 30.0477 25.0861 30.0784 25.2022C30.0955 25.2671 30.1809 25.612 30.2663 25.9706C30.4302 26.6503 30.4575 26.763 30.5224 27.0055C30.5429 27.0875 30.5498 27.166 30.5395 27.1763C30.5156 27.2036 30.3209 26.9816 30.3175 26.9269C30.3175 26.9065 30.2868 26.8689 30.2492 26.8416C30.2116 26.8142 30.1809 26.7767 30.1809 26.7528C30.1809 26.7323 30.0853 26.6025 29.9691 26.4625C29.8496 26.3224 29.7403 26.1824 29.7198 26.1517C29.59 25.9501 29.4295 25.7213 29.3714 25.6633C29.3373 25.6257 29.2622 25.5335 29.2075 25.4583C29.1494 25.3832 29.0777 25.291 29.0436 25.2534C28.9787 25.1817 28.7567 24.8675 28.6918 24.7513C28.6713 24.7172 28.6132 24.6455 28.5654 24.5942C28.4561 24.4747 27.5545 23.2759 27.4554 23.1188C27.4179 23.0539 27.3461 22.9583 27.3051 22.907C27.1822 22.767 27.0148 22.545 26.4411 21.7697C26.1507 21.3735 25.8673 20.9978 25.816 20.933C25.7648 20.8681 25.3755 20.3455 24.9451 19.7717C23.9615 18.4534 24.0435 18.5627 23.859 18.3304C23.7702 18.2211 23.6609 18.1016 23.6165 18.064C23.5687 18.0299 23.497 17.9035 23.456 17.7874C23.4116 17.6713 23.3262 17.5107 23.2647 17.4288C23.1999 17.3434 23.1418 17.2204 23.1281 17.135C23.1145 17.0531 23.0291 16.8003 22.9369 16.5681C22.8447 16.3393 22.7695 16.1138 22.7695 16.0729C22.7695 16.0285 22.7559 15.9806 22.7422 15.9602C22.7285 15.9431 22.6636 15.8065 22.6022 15.6562C22.5407 15.5059 22.469 15.3386 22.4416 15.2873C22.4143 15.2327 22.3938 15.1678 22.3938 15.1439C22.3938 15.12 22.3631 15.0414 22.3289 14.9663C22.1957 14.7033 22.1479 14.594 22.083 14.3925C22.0455 14.2798 21.984 14.1295 21.9464 14.0578C21.9123 13.9826 21.8815 13.9075 21.8815 13.8904C21.8815 13.8529 21.7791 13.6172 21.639 13.3406C21.6049 13.2654 21.5741 13.1664 21.5741 13.1186C21.5741 13.0673 21.5434 12.9888 21.5058 12.941C21.4683 12.8931 21.4375 12.8214 21.4375 12.7838C21.4375 12.7429 21.3999 12.6404 21.3521 12.5618C21.3043 12.4799 21.2667 12.3842 21.2667 12.3501C21.2667 12.3194 21.2531 12.292 21.2326 12.292C21.2155 12.292 21.1984 12.2681 21.1984 12.2408C21.1984 12.2135 21.1438 12.0734 21.0789 11.93C21.014 11.79 20.9594 11.6431 20.9594 11.6124C20.9594 11.5782 20.9286 11.5099 20.8911 11.4621C20.8535 11.4143 20.8227 11.3596 20.8227 11.3357C20.8227 11.3152 20.792 11.2333 20.7544 11.1581C20.7169 11.0796 20.6861 10.9942 20.6861 10.9703C20.6861 10.9122 20.6212 10.7585 20.3309 10.1335C20.2626 9.98665 20.208 9.84662 20.208 9.81929C20.208 9.79197 20.1943 9.75782 20.1738 9.74757C20.1567 9.73732 20.1397 9.69634 20.1397 9.65877C20.1397 9.62462 20.126 9.56655 20.1055 9.5324C20.0304 9.3992 19.9382 9.17379 19.9177 9.08157C19.904 9.02351 19.8801 8.97228 19.863 8.96203C19.8459 8.94837 19.8323 8.9108 19.8323 8.87323C19.8323 8.83908 19.8186 8.80834 19.7981 8.80834C19.7811 8.80834 19.764 8.7776 19.764 8.74003C19.764 8.67172 19.7503 8.64099 19.6683 8.47705C19.6444 8.43265 19.6274 8.38142 19.6274 8.36434C19.6274 8.34385 19.5761 8.21406 19.5112 8.08086C19.2039 7.42853 19.1799 7.33973 19.3678 7.51732ZM18.3124 10.6219C18.7838 11.3323 19.4122 12.292 19.7127 12.7463C20.0133 13.2005 20.4778 13.9041 20.7408 14.3071C21.0072 14.7101 21.639 15.6698 22.1445 16.4417C23.3638 18.2929 23.4389 18.4124 23.5243 18.6002C23.5653 18.6925 23.637 18.8496 23.6814 18.952C23.7292 19.0545 23.8727 19.3687 23.9991 19.6522C24.1254 19.9322 24.2859 20.2874 24.3543 20.4343C24.426 20.5846 24.5148 20.7861 24.5523 20.8783C24.5933 20.9739 24.706 21.2233 24.8085 21.435C24.9075 21.6433 24.9895 21.8244 24.9895 21.8346C24.9895 21.8517 25.1876 22.2923 25.495 22.948C25.5599 23.0881 25.6487 23.2861 25.6931 23.3818C25.7375 23.4808 25.8126 23.6482 25.8604 23.7506C25.9083 23.8565 25.9458 23.9453 25.9458 23.9521C25.9458 23.9624 26.038 24.1605 26.1507 24.3996C26.2635 24.6386 26.3557 24.8401 26.3557 24.847C26.3557 24.8538 26.4103 24.9802 26.4786 25.1236C26.5982 25.3798 26.7143 25.6325 26.8236 25.8853C26.8509 25.9501 26.9124 26.0799 26.9534 26.1756C27.0797 26.4488 27.1959 26.7084 27.2881 26.9099C27.3359 27.0123 27.4281 27.2173 27.4998 27.3675C27.5681 27.5144 27.6159 27.6544 27.6057 27.6783C27.5955 27.7057 27.4623 27.7296 27.2027 27.7432C26.2156 27.8047 23.5414 28.0267 23.2374 28.0711C23.1111 28.0882 22.9335 28.1053 22.8412 28.1053C22.749 28.1053 22.5578 28.1189 22.4211 28.136C22.2845 28.1531 21.9327 28.1872 21.6424 28.2077C21.3521 28.2282 20.9662 28.2624 20.7886 28.2794C20.4436 28.3136 19.8015 28.3682 19.2175 28.4126C19.0194 28.4263 18.6369 28.457 18.3637 28.4809C17.5337 28.5527 17.1273 28.539 15.8875 28.4126C15.6109 28.3819 15.4777 28.3682 14.7775 28.3102C14.2208 28.2624 13.3192 28.1804 12.9161 28.1394C12.7283 28.1223 12.4824 28.0984 12.3697 28.0882C12.257 28.0779 12.0042 28.0574 11.8061 28.0369C11.608 28.0199 11.2699 27.9891 11.0548 27.9721C10.8396 27.9516 10.4161 27.914 10.1155 27.8833C9.81497 27.8525 9.39146 27.8149 9.17629 27.7945C8.96112 27.774 8.623 27.7432 8.42491 27.7261C8.22681 27.7091 7.94675 27.6852 7.80331 27.6749C7.61888 27.6613 7.53691 27.6408 7.53691 27.61C7.53691 27.5656 7.735 27.0704 7.957 26.5683C7.98432 26.5034 8.12094 26.179 8.25414 25.8511C8.38734 25.5232 8.52054 25.1988 8.55128 25.1339C8.5786 25.069 8.61617 24.9836 8.62983 24.946C8.64349 24.9085 8.68106 24.8231 8.70838 24.7582C8.73571 24.6933 8.81768 24.4986 8.88598 24.3313C8.95771 24.1605 9.04992 23.9419 9.09432 23.8429C9.13872 23.7438 9.17629 23.655 9.17629 23.6448C9.17629 23.6345 9.21386 23.5423 9.26168 23.4398C9.30949 23.3374 9.34706 23.2452 9.34706 23.2383C9.34706 23.2315 9.38463 23.1393 9.43244 23.0368C9.48026 22.9344 9.51783 22.8421 9.51783 22.8319C9.51783 22.8217 9.5554 22.7329 9.5998 22.6338C9.6442 22.5348 9.75349 22.2752 9.84229 22.06C9.92768 21.8449 10.037 21.5887 10.0814 21.4965C10.1292 21.4009 10.1975 21.2335 10.2351 21.1242C10.2726 21.0149 10.3409 20.8544 10.3888 20.769C10.4366 20.687 10.4741 20.6017 10.4741 20.5812C10.4741 20.5299 10.802 19.7273 10.9557 19.4063C11.0274 19.2492 11.0889 19.1023 11.0889 19.0716C11.0889 19.0442 11.0992 19.0203 11.1162 19.0203C11.1299 19.0203 11.1606 18.9691 11.1845 18.9076C11.2084 18.8496 11.2665 18.7198 11.3109 18.6276C11.3587 18.5319 11.3963 18.4295 11.3963 18.3953C11.3963 18.3646 11.4134 18.3373 11.4304 18.3373C11.4509 18.3373 11.4646 18.3099 11.4646 18.2758C11.4646 18.245 11.4953 18.1802 11.5329 18.1323C11.5705 18.0845 11.6012 18.0367 11.6012 18.0196C11.6012 18.006 11.7071 17.8386 11.8369 17.6439C12.0316 17.357 12.7864 16.2129 12.9161 16.0114C12.9332 15.9806 12.981 15.9123 13.0152 15.8577C13.0528 15.803 13.3055 15.4205 13.5753 15.0073C13.8485 14.594 14.2037 14.0544 14.3643 13.8119C14.5248 13.566 14.6682 13.361 14.6853 13.3576C14.699 13.3508 14.7092 13.3269 14.7092 13.2996C14.7092 13.2757 14.7331 13.2347 14.7639 13.2108C14.7946 13.1869 14.8322 13.1356 14.8492 13.0946C14.8902 13.0058 14.9619 12.8931 15.1635 12.6233C15.2523 12.5004 15.324 12.3842 15.324 12.3672C15.324 12.3501 15.3547 12.3091 15.3923 12.275C15.4299 12.2408 15.4606 12.1964 15.4606 12.1725C15.4606 12.152 15.4982 12.0974 15.546 12.053C15.5938 12.0086 15.6314 11.9573 15.6314 11.9402C15.6314 11.9232 15.6894 11.8241 15.7646 11.7182C15.8363 11.609 15.9558 11.4314 16.0275 11.3221C16.1027 11.2094 16.1847 11.0864 16.212 11.0454C16.2393 11.0078 16.2939 10.9225 16.3315 10.861C16.3691 10.7961 16.4374 10.697 16.4852 10.639C16.574 10.5297 16.6082 10.4716 16.7277 10.2428C16.7653 10.1711 16.8199 10.0925 16.8472 10.0686C16.8746 10.0481 16.8951 10.0106 16.8951 9.99006C16.8951 9.96615 16.9326 9.91151 16.9804 9.86711C17.0283 9.82271 17.0658 9.77148 17.0658 9.75099C17.0692 9.73049 17.1136 9.65877 17.1683 9.59388C17.2263 9.52899 17.2707 9.46068 17.2707 9.44019C17.2707 9.38554 17.3459 9.32065 17.4074 9.32065C17.4381 9.32065 17.807 9.85003 18.3124 10.6219ZM7.06217 16.4315C7.04509 16.493 6.99386 16.7047 6.95629 16.9028C6.91531 17.1009 6.85383 17.398 6.81626 17.5688C6.77528 17.7362 6.73429 17.9377 6.71722 18.0128C6.66598 18.2758 6.54986 18.8325 6.49522 19.0716C6.39958 19.5019 6.36885 19.6488 6.34152 19.7888C6.29371 20.0415 6.16392 20.6085 6.11269 20.7963C6.08195 20.8988 6.05122 21.0422 6.04438 21.114C6.03414 21.1823 6.01365 21.2506 5.99657 21.2608C5.97949 21.2711 5.96583 21.3325 5.96583 21.3974C5.96583 21.4657 5.94875 21.5477 5.93168 21.5853C5.91118 21.6194 5.88386 21.7492 5.87362 21.8722C5.86337 21.9951 5.83946 22.1044 5.8258 22.1147C5.80872 22.1249 5.79506 22.183 5.79506 22.2445C5.79506 22.3025 5.7814 22.3674 5.76432 22.3879C5.74725 22.405 5.72675 22.4801 5.71309 22.5553C5.67211 22.8558 5.6482 22.9651 5.62088 22.9993C5.60722 23.0197 5.58331 23.1188 5.56965 23.2213C5.55599 23.3237 5.53549 23.4228 5.52183 23.4433C5.50817 23.4603 5.48768 23.5389 5.47743 23.614C5.46719 23.6892 5.43986 23.8189 5.41937 23.9043C5.39888 23.9897 5.36814 24.1332 5.35106 24.2288C5.3374 24.321 5.30325 24.461 5.28275 24.5362C5.25885 24.6113 5.22811 24.765 5.20762 24.8777C5.19054 24.9904 5.15297 25.1509 5.12906 25.2363C5.10174 25.3217 5.071 25.4652 5.05734 25.5608C5.04368 25.653 5.00611 25.793 4.97195 25.8682C4.91389 26.0014 4.90023 26.0663 4.84217 26.5513C4.82509 26.681 4.79777 26.8279 4.78069 26.8757C4.7602 26.9235 4.72605 27.0636 4.70214 27.1899C4.65774 27.4393 4.64408 27.4495 4.4494 27.388C4.39134 27.3709 4.11469 27.2992 3.83122 27.2309C3.55116 27.166 3.27451 27.0943 3.21645 27.0772C3.00469 27.0157 1.84346 26.7391 1.78882 26.7391C1.65562 26.7391 1.64196 26.7698 2.43774 25.2363C2.58802 24.946 2.79977 24.5362 2.90906 24.3313C3.01836 24.1229 3.21645 23.7404 3.35306 23.4774C4.08395 22.0566 4.24106 21.7526 4.34694 21.558C4.41183 21.4384 4.57235 21.131 4.70555 20.8749C4.83875 20.6153 4.97195 20.3797 4.99586 20.3489C5.02319 20.3216 5.04368 20.2806 5.04368 20.2635C5.04368 20.243 5.13248 20.0586 5.23835 19.8537C5.34423 19.6488 5.53208 19.2799 5.65845 19.0374C5.89069 18.5798 5.96925 18.4363 5.99998 18.4056C6.01023 18.3953 6.04097 18.3441 6.06829 18.286C6.09562 18.2314 6.18442 18.0674 6.26638 17.924C6.34494 17.7806 6.40983 17.6439 6.40983 17.62C6.40983 17.5995 6.45423 17.5176 6.50546 17.439C6.55669 17.3605 6.62842 17.2102 6.66598 17.1077C6.70014 17.0053 6.75478 16.8721 6.78552 16.8174C6.81626 16.7594 6.8914 16.6193 6.95629 16.4998C7.07583 16.2744 7.12365 16.2436 7.06217 16.4315ZM29.5627 19.4473C31.4275 23.1393 33.1762 26.6093 33.2821 26.8245L33.3845 27.0294L33.2786 27.0567C33.0396 27.1182 32.8927 27.1489 32.7937 27.166C32.739 27.1729 32.5443 27.2036 32.3667 27.2343C32.1891 27.2651 31.9125 27.3026 31.752 27.3231C31.5914 27.3402 31.4173 27.3709 31.3626 27.388C31.226 27.4358 30.9528 27.429 30.905 27.3812C30.881 27.3573 30.864 27.3061 30.864 27.2617C30.864 27.2207 30.8503 27.1524 30.8332 27.108C30.8162 27.0636 30.7888 26.9987 30.7752 26.9611C30.7444 26.8825 30.6659 26.5103 30.6351 26.319C30.6249 26.2507 30.6044 26.1824 30.5873 26.1721C30.5702 26.1619 30.5566 26.1107 30.5566 26.0594C30.5566 26.0082 30.5429 25.9536 30.5293 25.9331C30.5122 25.916 30.4814 25.8101 30.4575 25.6974C30.4097 25.4822 30.3346 25.1885 30.2799 25.0109C30.2629 24.9529 30.2492 24.8641 30.2492 24.8162C30.2492 24.765 30.2355 24.6967 30.215 24.6625C30.198 24.6318 30.1297 24.3722 30.0614 24.0922C29.9452 23.6072 29.9213 23.5047 29.8394 23.1939C29.8223 23.1256 29.754 22.8353 29.6857 22.5553C29.5525 22.0054 29.5217 21.879 29.4671 21.6673C29.4466 21.5921 29.3783 21.2984 29.31 21.0183C29.2417 20.7349 29.1734 20.448 29.1563 20.3762C29.1358 20.3079 29.1085 20.1918 29.088 20.1201C29.0709 20.0518 29.0162 19.823 28.9684 19.618C28.8284 19.0238 28.8079 18.9418 28.7772 18.8325C28.7601 18.7744 28.6918 18.4978 28.6269 18.2177C28.5586 17.9342 28.4903 17.6508 28.4732 17.5859C28.4561 17.521 28.4322 17.4219 28.422 17.3673C28.4117 17.3126 28.3946 17.2307 28.3844 17.1794C28.3639 17.0941 28.3673 17.0941 28.422 17.1931C28.4527 17.2478 28.9684 18.2621 29.5627 19.4473ZM24.1425 19.1057C24.3372 19.3653 24.6821 19.8708 24.6821 19.8981C24.6821 19.9083 24.7095 19.9425 24.7436 19.9732C24.7778 20.004 24.87 20.1133 24.9485 20.2157C25.0271 20.3182 25.1261 20.448 25.1705 20.506C25.2354 20.5846 25.9492 21.5409 26.4411 22.2035C26.4786 22.2547 26.5743 22.3811 26.6562 22.4835C26.7348 22.586 26.7997 22.6816 26.7997 22.6885C26.7997 22.6987 26.8236 22.7363 26.8509 22.767C27.0524 23.0163 27.312 23.3545 27.312 23.3749C27.312 23.3886 27.3427 23.433 27.3803 23.474C27.4349 23.5321 28.2649 24.6386 28.439 24.8811C28.4664 24.9221 28.603 25.1065 28.743 25.291C29.6857 26.541 30.3278 27.4085 30.3414 27.4427C30.3619 27.4973 30.2492 27.5144 29.7198 27.5417C28.3844 27.6066 28.0395 27.6271 27.978 27.6442C27.9165 27.6613 27.8926 27.6373 27.8277 27.4837C27.7833 27.3846 27.6808 27.1592 27.5989 26.9816C27.5169 26.8074 27.4486 26.6571 27.4486 26.6537C27.4486 26.6469 27.3735 26.4795 27.2778 26.278C27.1856 26.0765 27.1071 25.9092 27.1071 25.9023C27.1071 25.8921 27.0387 25.7418 26.9534 25.5642C26.868 25.3832 26.7997 25.2329 26.7997 25.2227C26.7997 25.2158 26.7143 25.0314 26.6118 24.8094C26.5094 24.5908 26.424 24.4064 26.424 24.3961C26.424 24.3893 26.3727 24.2698 26.3079 24.1332C26.1883 23.877 26.0927 23.6653 25.9629 23.3749C25.9185 23.2793 25.8297 23.0812 25.758 22.9309C25.6897 22.7807 25.5735 22.5279 25.5018 22.3674C25.355 22.0361 25.2115 21.7253 25.0203 21.3155C24.9485 21.1584 24.8871 21.0252 24.8871 21.0183C24.8871 21.0115 24.8187 20.8612 24.7334 20.6802C24.648 20.4992 24.5797 20.3455 24.5797 20.3387C24.5797 20.3318 24.5148 20.1884 24.4396 20.021C24.1698 19.4473 23.9307 18.9076 23.9307 18.8701C23.9307 18.8291 23.9444 18.8427 24.1425 19.1057ZM10.6483 19.4712C10.5903 19.618 10.3648 20.1645 10.3034 20.3011C10.2692 20.3762 10.2112 20.5129 10.1736 20.6085C10.136 20.7007 10.0028 21.0252 9.87644 21.3257C9.75008 21.6263 9.50075 22.224 9.32315 22.6543C9.14555 23.0846 8.97478 23.5013 8.94063 23.5765C8.90306 23.655 8.82109 23.8531 8.74937 24.0239C8.61275 24.3552 8.57518 24.4508 8.46248 24.6967C8.42491 24.7855 8.39075 24.8709 8.39075 24.8811C8.39075 24.8948 8.32245 25.0587 8.24048 25.25C8.15851 25.4378 8.05605 25.6803 8.01506 25.7828C7.90918 26.0355 7.78965 26.3122 7.68718 26.5171C7.64278 26.6127 7.60521 26.7084 7.60521 26.7323C7.60521 26.7562 7.54715 26.8996 7.47201 27.0567C7.40029 27.2104 7.32174 27.3914 7.30125 27.4632C7.27734 27.5315 7.23977 27.5929 7.21928 27.6032C7.1578 27.6271 5.05392 27.4324 4.99928 27.3983C4.97195 27.3812 5.3374 26.8347 5.39205 26.8142C5.40571 26.8074 5.41937 26.7869 5.41937 26.7698C5.41937 26.7323 5.62771 26.4317 5.81214 26.2097C5.89069 26.1141 6.04438 25.9092 6.15368 25.7486C6.26297 25.5881 6.36543 25.4515 6.37909 25.4481C6.39617 25.4413 6.40983 25.4173 6.40983 25.3934C6.40983 25.3695 6.45765 25.3081 6.51229 25.2534C6.57035 25.1988 6.61475 25.1373 6.61475 25.1202C6.61475 25.0997 6.70014 24.9836 6.8026 24.8606C6.90506 24.7411 6.99045 24.6284 6.99045 24.6147C6.99045 24.5806 7.25343 24.2254 7.37638 24.0956C7.42761 24.0409 7.4686 23.9829 7.4686 23.9624C7.4686 23.918 7.74183 23.5389 7.87503 23.3954C7.93309 23.334 7.98091 23.2657 7.98091 23.2486C7.98091 23.2076 8.28829 22.767 8.32928 22.7499C8.34294 22.7431 8.3566 22.7158 8.3566 22.6885C8.3566 22.6611 8.38051 22.6406 8.40783 22.6406C8.43515 22.6406 8.45906 22.6167 8.45906 22.5894C8.45906 22.5621 8.52737 22.4562 8.61275 22.3537C8.69814 22.2479 8.76644 22.1522 8.76644 22.142C8.76644 22.1317 8.82451 22.0498 8.89623 21.961C9.02601 21.8039 9.3334 21.3872 9.39829 21.2813C9.41878 21.2472 9.51441 21.1208 9.61346 20.9944C9.70909 20.8681 9.79106 20.7554 9.79106 20.7417C9.79106 20.728 9.84912 20.6392 9.92084 20.5436C9.99257 20.448 10.0643 20.3182 10.0745 20.2567C10.0882 20.1952 10.218 19.9766 10.3614 19.7717C10.621 19.4063 10.7098 19.3141 10.6483 19.4712ZM1.71026 27.0055C1.72051 27.0226 1.79906 27.0362 1.88786 27.0397C1.97325 27.0397 2.06205 27.0567 2.08254 27.0772C2.10303 27.0977 2.17134 27.1148 2.2294 27.1148C2.29088 27.1148 2.35236 27.1285 2.3626 27.1489C2.37285 27.166 2.42749 27.1831 2.48556 27.1831C2.5402 27.1831 2.61192 27.1968 2.64608 27.2138C2.67682 27.2309 2.88857 27.289 3.11399 27.3402C3.3394 27.3914 3.53066 27.4461 3.54091 27.4563C3.55116 27.47 3.66728 27.5007 3.79706 27.5212C3.93026 27.5451 4.06688 27.5759 4.10445 27.5929C4.14202 27.61 4.22399 27.6305 4.28888 27.6339C4.35377 27.6408 4.41183 27.6578 4.41525 27.6783C4.42208 27.6954 4.30937 27.7979 4.16592 27.9003C4.02248 28.0028 3.81072 28.1633 3.6946 28.2589C3.57506 28.3512 3.3394 28.5356 3.16522 28.6688C2.99103 28.7986 2.83392 28.9249 2.81002 28.942C2.78952 28.9625 2.71097 29.024 2.63583 29.0786C2.56069 29.1367 2.47873 29.1982 2.44799 29.2221C2.37626 29.2767 1.59073 29.8881 1.26285 30.1374C0.631003 30.6258 0.439741 30.7693 0.405588 30.7693C0.385095 30.7693 0.398757 30.6839 0.436326 30.5712C0.473895 30.4653 0.518295 30.3287 0.531957 30.274C0.678818 29.7822 0.750541 29.5465 0.774449 29.4885C0.78811 29.4509 0.829095 29.328 0.859833 29.2153C0.890572 29.1025 0.928141 28.9728 0.945218 28.9249C0.962295 28.8771 1.02377 28.679 1.08525 28.4809C1.14331 28.2829 1.22869 28.013 1.26968 27.8833C1.31066 27.7501 1.36531 27.5759 1.38922 27.4905C1.48143 27.1592 1.56682 26.9782 1.63171 26.9782C1.66586 26.9782 1.70002 26.9918 1.71026 27.0055ZM33.5519 27.3949C33.569 27.4188 33.6031 27.5076 33.6304 27.5929C33.6543 27.6783 33.7022 27.832 33.7329 27.9345C33.767 28.0369 33.8524 28.3068 33.9207 28.5322C33.9925 28.7576 34.0744 29.0274 34.1086 29.1299C34.1427 29.2323 34.2247 29.4953 34.293 29.7105C34.3613 29.9257 34.4706 30.2706 34.5355 30.4755C34.6004 30.6805 34.6482 30.8546 34.6414 30.8615C34.6243 30.8785 34.3067 30.6087 33.6099 29.9837C33.3265 29.731 33.0566 29.4919 33.0088 29.4543C32.961 29.4168 32.8176 29.2904 32.6878 29.1777C32.558 29.0616 32.2609 28.802 32.0252 28.5971C31.7895 28.3956 31.4787 28.1223 31.3319 27.9891C30.9698 27.6613 30.9494 27.6783 31.9227 27.5588C32.558 27.4802 32.78 27.4529 33.084 27.4085C33.5109 27.347 33.5143 27.347 33.5519 27.3949ZM5.54574 27.8013C5.87703 27.8354 6.65232 27.8935 6.82309 27.8969C6.87091 27.9003 6.93922 27.9208 6.97337 27.9481C7.03826 27.9925 7.03143 28.0062 6.87774 28.2282C6.30737 29.065 5.67552 29.9461 5.59014 30.0349C5.51159 30.1135 5.44669 30.1408 5.293 30.1579C5.18371 30.1716 5.01977 30.1989 4.92414 30.2194C4.66115 30.2706 3.69802 30.4414 3.14814 30.5302C2.87149 30.5746 2.58802 30.6258 2.27722 30.6805C2.11669 30.7112 1.83322 30.759 1.64537 30.7863C1.45753 30.8171 1.24919 30.8546 1.18088 30.8717C1.04085 30.9093 0.87691 30.9161 0.87691 30.8854C0.87691 30.8273 1.26968 30.4824 1.47119 30.3697C1.50876 30.3457 1.60439 30.2706 1.67953 30.1955C1.87762 30.0042 2.26356 29.6763 2.28746 29.6763C2.30113 29.6763 2.36602 29.6251 2.43774 29.5602C2.50946 29.4953 3.06617 29.0547 3.67752 28.5834L4.78752 27.7261L4.99928 27.7501C5.11882 27.7603 5.36472 27.7842 5.54574 27.8013ZM31.5163 28.4844C31.9945 28.901 32.4385 29.2904 32.5034 29.3485C32.5682 29.4065 32.9234 29.7173 33.2889 30.0349C33.6543 30.3526 34.0164 30.6736 34.0915 30.7453L34.2281 30.8785L34.1086 30.8546C34.0437 30.8444 33.8217 30.7932 33.6134 30.7453C33.4084 30.6975 33.1113 30.6292 32.9576 30.5951C32.8005 30.5609 32.5478 30.4994 32.3941 30.4653C31.8476 30.3423 31.325 30.2194 31.1884 30.1886C30.5088 30.0315 30.2902 29.9803 29.993 29.9154C29.45 29.7959 29.5422 29.8778 28.825 28.9249C28.0702 27.9208 28.1214 28.0028 28.1863 27.9311C28.2307 27.8833 28.3093 27.8662 28.5859 27.8559C29.2485 27.8252 30.2287 27.7603 30.2458 27.7466C30.2526 27.7364 30.3482 27.7296 30.4541 27.7296H30.6488L31.5163 28.4844ZM7.72475 27.9925C7.82038 27.9994 8.20291 28.013 8.5786 28.0233C8.95429 28.0335 9.29241 28.054 9.32998 28.0711C9.40854 28.1053 9.67152 28.1326 10.1668 28.1599C10.3648 28.1701 10.5561 28.1906 10.5937 28.2077C10.6312 28.2214 10.9762 28.2521 11.3621 28.276C11.7481 28.2965 12.2023 28.3307 12.3697 28.3443C12.5404 28.3614 12.9708 28.399 13.326 28.4297C13.6846 28.457 14.0295 28.4946 14.0944 28.5151C14.1593 28.5322 14.4052 28.5561 14.6409 28.5663C15.2625 28.5902 15.8397 28.6415 15.9387 28.6722C16.0105 28.6995 15.9934 28.7064 15.8192 28.7269C15.7065 28.7371 15.4913 28.7644 15.3411 28.7849C15.1908 28.8054 14.9619 28.8361 14.8287 28.8566C14.699 28.8737 14.4838 28.9045 14.3506 28.9249C14.1388 28.9557 13.8246 28.9967 13.0528 29.0957C12.923 29.1128 12.7283 29.1435 12.6258 29.164C12.5234 29.1811 12.1067 29.2426 11.7037 29.3006C11.3007 29.3553 10.884 29.4168 10.7781 29.4373C10.6756 29.4543 10.5424 29.4714 10.481 29.4714C10.4229 29.4714 10.3068 29.4851 10.2282 29.5056C10.1053 29.5329 9.31291 29.649 8.30537 29.7822C8.17558 29.8027 7.96041 29.83 7.82721 29.8505C7.69743 29.8676 7.41054 29.8949 7.19537 29.912C6.9802 29.9291 6.62842 29.9666 6.41325 29.9974C6.20149 30.0281 6.01365 30.0418 5.99657 30.0315C5.97949 30.0213 5.99315 29.9735 6.02731 29.9222C6.06146 29.871 6.10586 29.7993 6.12977 29.7617C6.15368 29.7241 6.19808 29.649 6.23223 29.5978C6.26297 29.5465 6.41666 29.3245 6.57377 29.1025C6.72746 28.884 6.91531 28.6176 6.98703 28.5151C7.05875 28.4092 7.14414 28.3033 7.17488 28.2794C7.20561 28.2555 7.22952 28.2145 7.22952 28.1941C7.22952 28.1155 7.44128 27.9311 7.49934 27.955C7.53008 27.9686 7.63254 27.9857 7.72475 27.9925ZM27.9643 28.1804C28.0634 28.317 28.3161 28.6585 28.5244 28.942C28.9855 29.567 29.0641 29.6763 29.0504 29.69C29.0367 29.7002 28.7191 29.6695 28.1658 29.608C27.9882 29.5875 27.6638 29.5534 27.4486 29.5363C27.2334 29.5192 26.909 29.4919 26.7314 29.4714C26.5538 29.4543 26.2532 29.4236 26.0654 29.4065C25.8775 29.3894 25.495 29.3485 25.2115 29.3177C24.9315 29.287 24.5455 29.246 24.3577 29.2289C23.6029 29.1504 23.3877 29.1299 23.0598 29.0991C22.872 29.0786 22.5817 29.0513 22.4109 29.0308C22.2435 29.0137 21.7825 28.9659 21.3863 28.9284C20.5939 28.8498 20.1943 28.802 19.8801 28.7542C19.764 28.7337 19.6 28.72 19.5147 28.72C19.3507 28.72 19.2517 28.6961 19.2517 28.6517C19.2517 28.6381 19.4259 28.6176 19.6376 28.6039C19.8459 28.5937 20.0987 28.5766 20.1909 28.5663C20.2865 28.5561 20.5461 28.5356 20.7715 28.5151C20.9969 28.498 21.4443 28.4605 21.762 28.4297C22.083 28.4024 22.5817 28.3648 22.872 28.3443C23.5209 28.3033 23.6883 28.2863 24.1015 28.2453C24.2791 28.2248 24.6275 28.1941 24.87 28.177C25.1159 28.1565 25.5667 28.1189 25.8775 28.0882C26.1883 28.0609 26.646 28.0233 26.8987 28.0028C27.1515 27.9823 27.3666 27.9584 27.3769 27.9516C27.3837 27.9413 27.4793 27.9345 27.5852 27.9345H27.7799L27.9643 28.1804ZM17.8514 28.8327C17.8787 28.843 18.0495 28.8601 18.2271 28.8737C18.4047 28.884 18.7052 28.9045 18.8931 28.9215C19.0809 28.9386 19.4259 28.9693 19.6615 28.9898C19.8972 29.0069 20.2353 29.0377 20.4129 29.0581C20.7066 29.0889 21.0243 29.123 22.1035 29.2357C22.5646 29.2836 22.9915 29.328 23.4014 29.3655C23.7634 29.4031 24.0776 29.4338 24.9041 29.5226C25.1876 29.5534 25.5701 29.5944 25.758 29.6114C25.9458 29.6285 26.2395 29.6593 26.4069 29.6729C26.5777 29.69 26.9295 29.7276 27.1924 29.7583C27.4554 29.789 27.814 29.83 27.9916 29.8471C28.299 29.8813 28.439 29.9291 28.381 29.9871C28.3673 30.0008 28.2068 30.052 28.0292 30.0998C27.6672 30.1955 27.4486 30.2535 26.9909 30.3765C26.5162 30.5063 26.4581 30.5233 26.2361 30.5677C26.1234 30.5917 26.0175 30.6224 25.9971 30.6326C25.98 30.6463 25.9185 30.6668 25.8604 30.677C25.5291 30.7419 25.4438 30.7624 25.3652 30.7932C25.1979 30.8615 25.0339 30.9059 24.9451 30.9059C24.8973 30.9059 24.8461 30.9195 24.8358 30.94C24.8256 30.9571 24.7641 30.9742 24.7026 30.9742C24.6446 30.9742 24.5797 30.9878 24.5592 31.0049C24.5182 31.0425 24.2313 31.1108 24.1118 31.1108C24.0571 31.1108 23.9991 31.1245 23.9786 31.1415C23.9444 31.1757 23.7463 31.2372 23.538 31.2816C23.4628 31.2986 23.2716 31.343 23.1111 31.384C22.9505 31.425 22.7251 31.4762 22.609 31.4967C22.4929 31.5206 22.387 31.548 22.3733 31.565C22.3597 31.5787 22.3187 31.5889 22.2811 31.5889C22.2435 31.5889 22.1206 31.6197 22.0045 31.6573C21.4273 31.8417 21.2155 31.8963 21.0926 31.8963C21.0208 31.8963 20.9594 31.91 20.9594 31.9271C20.9594 31.9715 20.7681 32.0329 20.6383 32.0329C20.5768 32.0329 20.5154 32.0466 20.4983 32.0637C20.4778 32.0808 20.3958 32.1115 20.3104 32.1286C19.8801 32.2276 19.6615 32.2959 19.6069 32.3437C19.5693 32.3745 19.3815 32.4394 19.1834 32.494C18.7769 32.5999 18.6164 32.6443 18.5139 32.6819C18.4764 32.6955 18.4183 32.6955 18.3876 32.6785C18.35 32.6545 18.3056 32.658 18.2578 32.6853C18.1656 32.7331 17.7011 32.7399 17.6396 32.6921C17.5679 32.6409 17.2366 32.5589 16.3315 32.3711C16.2393 32.3506 16.1061 32.3198 16.0412 32.3062C15.9763 32.2891 15.8363 32.2618 15.7338 32.2413C15.3786 32.1696 14.7263 32.0295 14.6067 32.0022C14.5419 31.9851 14.4121 31.9544 14.3164 31.9339C13.77 31.8212 12.964 31.6504 12.8478 31.6265C12.7727 31.6094 12.6258 31.5787 12.5234 31.5582C12.4209 31.5343 12.1989 31.4865 12.0281 31.4489C11.8608 31.4113 11.6456 31.3635 11.55 31.343C11.4578 31.326 11.3177 31.2952 11.2426 31.2781C11.1675 31.2611 11.0308 31.2337 10.9352 31.2133C10.843 31.1962 10.58 31.1415 10.3546 31.0903C9.95158 31.0015 9.79448 30.9673 9.511 30.9093C9.34364 30.8751 8.70497 30.7385 8.20291 30.6292C8.01506 30.5882 7.79989 30.5438 7.72475 30.5268C7.64961 30.5131 7.48226 30.4755 7.34906 30.4448C7.21928 30.4175 7.03485 30.3765 6.94605 30.3594C6.85383 30.3423 6.75478 30.3116 6.72405 30.2945C6.63525 30.2433 6.60792 30.2501 7.62229 30.1169C8.20632 30.0384 8.33952 30.0179 8.8006 29.9496C9.00552 29.9154 9.69543 29.8198 10.2863 29.7412C10.4195 29.7241 10.6347 29.6934 10.7644 29.6763C10.8976 29.6558 11.1026 29.6285 11.2255 29.6114C12.076 29.4953 12.4892 29.4338 12.5917 29.4168C12.6566 29.4065 12.9127 29.3826 13.1552 29.3689C13.4011 29.3553 13.6675 29.3245 13.7529 29.3041C13.8383 29.2801 14.0227 29.2494 14.1627 29.2323C14.3028 29.2153 14.5111 29.1845 14.6238 29.1674C14.8971 29.1265 15.6792 29.0172 16.3486 28.9249C16.4886 28.9079 16.7448 28.8805 16.9121 28.8703C17.0829 28.8601 17.2332 28.8361 17.2503 28.8191C17.2844 28.7883 17.7626 28.7986 17.8514 28.8327ZM29.3202 30.1955C29.409 30.3287 29.4705 30.4311 29.6618 30.7693C29.6959 30.8341 29.8667 31.1279 30.0409 31.4216C30.2116 31.7153 30.3517 31.9715 30.3517 31.9885C30.3517 32.0842 30.1228 32.1081 28.1829 32.2071C27.4452 32.2447 26.7006 32.2857 25.758 32.3403C25.4028 32.3608 24.7573 32.3916 24.3235 32.4086C23.5995 32.436 22.9164 32.4769 21.2155 32.5828C20.2934 32.6409 19.5591 32.6682 19.5864 32.6443C19.6069 32.6238 19.863 32.5521 20.1738 32.4769C20.2387 32.4599 20.348 32.4325 20.4129 32.4121C20.4778 32.395 20.7408 32.3233 20.9935 32.2549C21.2463 32.1866 21.5024 32.1183 21.5571 32.1013C21.8781 32.0125 22.4895 31.8451 22.8378 31.7529C22.9779 31.7187 23.1418 31.6743 23.1964 31.6573C23.2545 31.6402 23.4526 31.5889 23.6404 31.5377C24.0503 31.4284 24.1288 31.4079 24.3918 31.3328C24.6172 31.2713 24.9827 31.1723 25.3481 31.0766C25.4813 31.0425 25.6419 30.9947 25.7067 30.9742C25.7716 30.9537 25.8878 30.9229 25.9629 30.9093C26.038 30.8922 26.1917 30.8546 26.3044 30.8205C26.4171 30.7897 26.6187 30.7351 26.7484 30.7009C26.8816 30.6668 27.0661 30.6156 27.1583 30.5848C27.3222 30.537 27.5989 30.4619 28.1146 30.3253C28.784 30.1511 29.0367 30.0793 29.0504 30.0657C29.0572 30.0589 29.1016 30.052 29.1426 30.052C29.1973 30.052 29.2519 30.0964 29.3202 30.1955ZM30.0545 30.175C30.7034 30.3287 30.8776 30.3662 31.1474 30.4243C31.226 30.4414 31.4685 30.496 31.6837 30.5473C32.1413 30.6565 32.2984 30.6941 32.4863 30.7351C33.4323 30.9434 33.6509 31.0015 33.7568 31.0527C33.8183 31.0869 33.8968 31.1108 33.931 31.1108C33.9686 31.1108 34.0437 31.1347 34.0949 31.162C34.1735 31.1996 34.1803 31.2133 34.1291 31.2133C34.0915 31.2133 34.0164 31.2269 33.9583 31.2474C33.9002 31.2645 33.6919 31.3191 33.4938 31.3669C33.2957 31.4113 33.0362 31.4762 32.9132 31.507C32.7902 31.5343 32.6297 31.5719 32.5546 31.5889C32.4794 31.6026 32.1721 31.6777 31.8715 31.7563C31.571 31.8349 31.2704 31.8963 31.2055 31.8963C31.1372 31.8963 31.0689 31.91 31.0518 31.9237C31.0313 31.9407 30.9494 31.9749 30.8674 31.9988C30.7205 32.0466 30.7171 32.0466 30.6454 31.9476C30.6078 31.8929 30.4302 31.6026 30.2526 31.2986C30.0784 30.9981 29.9077 30.7044 29.8735 30.6497C29.5593 30.1169 29.5217 30.0281 29.6208 30.0657C29.6515 30.0759 29.8462 30.1272 30.0545 30.175ZM6.11952 30.4448C6.25272 30.4755 6.42008 30.5131 6.49522 30.5268C6.85725 30.6053 7.01777 30.6429 7.14414 30.6736C7.21928 30.6907 7.37297 30.718 7.48568 30.7351C7.66328 30.759 7.91943 30.8102 8.68106 30.9776C8.77669 30.9981 8.91672 31.0288 8.99869 31.0459C9.07724 31.063 9.20703 31.0903 9.289 31.1074C9.36755 31.1245 9.511 31.1552 9.60321 31.1723C9.69884 31.1928 9.88328 31.2337 10.0131 31.2645C10.1463 31.2952 10.3307 31.3362 10.4229 31.3533C10.7303 31.4148 11.4202 31.5616 12.0111 31.6914C12.1887 31.7324 12.397 31.7768 12.4721 31.7939C12.9947 31.8963 13.1928 31.9476 13.2235 31.9851C13.244 32.0056 13.3123 32.0329 13.3772 32.0432C13.4968 32.0637 13.6641 32.0978 13.9578 32.1661C14.0432 32.1866 14.1969 32.2174 14.2994 32.2379C14.4018 32.2549 14.5248 32.2857 14.5726 32.3062C14.7024 32.3574 15.1088 32.4462 15.3581 32.4769C15.6279 32.5111 16.1163 32.6136 16.1505 32.6443C16.1881 32.6785 15.1293 32.6511 14.7536 32.6136C14.5828 32.5931 14.2686 32.5794 14.0535 32.5794C13.8417 32.5794 13.4216 32.5657 13.1211 32.5453C12.8205 32.5282 12.2057 32.494 11.7549 32.4735C11.3041 32.453 10.5971 32.4223 10.1838 32.4052C9.77057 32.3847 9.10115 32.354 8.69814 32.3369C8.29512 32.3198 7.67352 32.2891 7.31491 32.272C6.95971 32.2515 6.39617 32.2208 6.06829 32.2037C5.74042 32.1866 5.43303 32.1696 5.38522 32.1661C5.3374 32.1661 5.09491 32.1491 4.84217 32.132C4.58943 32.1149 4.37085 32.091 4.35377 32.0739C4.33328 32.0534 4.91048 31.2884 5.27592 30.8546C5.33057 30.7897 5.56965 30.496 5.64137 30.4004C5.67894 30.3526 5.74042 30.3594 6.11952 30.4448ZM5.17688 30.4755C5.21445 30.5233 5.21103 30.5336 4.87291 30.94C4.78069 31.0561 4.41183 31.5241 4.2274 31.7665C4.07029 31.9749 3.99174 32.0056 3.80731 31.9339C3.76291 31.9168 3.65362 31.8861 3.55799 31.869C3.33257 31.8178 2.66657 31.6641 2.51629 31.6231C2.4514 31.606 2.29088 31.5685 2.15768 31.5377C1.48826 31.3874 1.04768 31.2645 1.05793 31.2337C1.07842 31.1723 2.35236 30.9127 3.0286 30.8341C3.18912 30.8171 3.36672 30.7863 3.42479 30.7693C3.48285 30.7488 3.5614 30.7351 3.60239 30.7351C3.63996 30.7351 3.68436 30.718 3.6946 30.7009C3.70485 30.6805 3.79706 30.6668 3.89611 30.6668C3.99174 30.6668 4.08737 30.6531 4.10445 30.6361C4.12494 30.619 4.32986 30.5712 4.56552 30.5302C4.80119 30.4892 4.99928 30.4482 5.00611 30.4414C5.03685 30.4106 5.13931 30.4311 5.17688 30.4755Z" fill="currentColor" stroke="currentColor" stroke-width="0.5"/>
</g>
<defs>
<clipPath id="clip0_400_46">
<rect width="35" height="35" fill="white"/>
</clipPath>
</defs>
</svg>
