<svg width="43" height="42" viewBox="0 0 43 42" fill="none" xmlns="http://www.w3.org/2000/svg">
<path d="M18.5672 0.159939C9.62671 1.33632 2.41158 8.04168 0.529371 16.943C-0.176457 20.3937 -0.176457 21.7269 0.529371 25.1776C2.64685 35.216 10.9991 42.039 21.116 41.9998C31.4289 41.9606 39.6244 35.216 41.7419 24.9815C43.1143 18.3546 41.0753 11.61 36.1345 6.51239C31.5466 1.72844 24.8412 -0.663528 18.5672 0.159939ZM19.9396 0.983402C19.9396 1.14025 18.8809 2.31663 17.5869 3.61065L15.2733 5.9242L14.4499 4.00278C14.0185 2.98325 13.7048 2.04214 13.7832 1.96372C13.9793 1.80687 18.6456 0.748127 19.4691 0.708916C19.7044 0.669701 19.9396 0.826553 19.9396 0.983402ZM26.6842 1.49317C27.4685 1.68923 28.2135 2.00293 28.2919 2.15978C28.4096 2.31663 28.1351 3.21852 27.7037 4.15963L26.9587 5.9242L24.6452 3.61065C23.3511 2.31663 22.2924 1.14025 22.2924 0.944191C22.2924 0.591278 24.057 0.787338 26.6842 1.49317ZM23.8609 3.80671C25.2333 5.33601 26.2529 6.63002 26.1744 6.70845C26.096 6.78687 24.9196 7.41428 23.5472 8.08089L21.0768 9.3357L18.528 7.92404C16.2929 6.66924 16.0184 6.39475 16.4497 5.84577C17.3516 4.66939 20.8807 1.06183 21.1552 1.06183C21.3121 1.06183 22.5277 2.31663 23.8609 3.80671ZM13.5872 3.68908C13.7832 4.31648 14.0969 5.10073 14.2538 5.45364C14.4891 6.08105 14.2146 6.15947 11.1168 6.15947C7.94056 6.15947 7.7445 6.12026 8.21505 5.49286C8.92088 4.66939 12.0971 2.63033 12.7245 2.63033C12.999 2.63033 13.3911 3.10089 13.5872 3.68908ZM32.2132 4.0812C33.4288 4.90467 34.4483 5.68892 34.4483 5.84577C34.4483 6.00262 32.919 6.15947 31.076 6.15947C28.0174 6.15947 27.743 6.08105 27.9782 5.45364C28.1351 5.10073 28.4488 4.31648 28.6448 3.68908C28.8409 3.10089 29.233 2.63033 29.4683 2.63033C29.7428 2.63033 30.9584 3.29695 32.2132 4.0812ZM14.4106 7.41428C14.4106 7.68877 14.0185 8.98278 13.548 10.2768C12.7637 12.4335 12.5677 12.6688 10.9207 13.257C9.94041 13.6099 8.6856 14.002 8.09741 14.1589L6.99946 14.3941V10.6689V6.94373H10.7247C13.4695 6.94373 14.4499 7.06136 14.4106 7.41428ZM35.2326 10.6689C35.2326 12.708 35.1149 14.3941 34.9581 14.3941C34.8012 14.3941 33.5072 14.002 32.0956 13.5707L29.4683 12.708L28.6056 10.0807C28.1743 8.66908 27.7822 7.37506 27.7822 7.21821C27.7822 7.06136 29.4683 6.94373 31.5074 6.94373H35.2326V10.6689ZM17.979 8.51223L20.1357 9.61018L18.6848 10.2376C15.1557 11.7277 14.3322 12.0414 14.0185 12.0414C13.8617 12.0414 14.0577 10.9826 14.5283 9.68861C14.9596 8.39459 15.4302 7.33585 15.5478 7.33585C15.7047 7.37506 16.8026 7.88483 17.979 8.51223ZM27.7037 9.68861C28.1743 10.9826 28.3704 12.0414 28.2135 12.0414C27.8998 12.0414 27.1548 11.7669 23.6648 10.2768L22.0963 9.61018L24.253 8.51223C25.4294 7.88483 26.5274 7.37506 26.6842 7.33585C26.8018 7.33585 27.2724 8.39459 27.7037 9.68861ZM6.09757 14.2373C5.82308 14.551 2.68607 13.1001 2.68607 12.6688C2.68607 12.1982 3.31347 11.1787 4.99961 8.90436L6.01914 7.53191L6.13678 10.8258C6.21521 12.6296 6.17599 14.1589 6.09757 14.2373ZM38.0951 9.92389C38.8793 11.1395 39.546 12.3551 39.546 12.6296C39.546 12.904 39.0754 13.3354 38.4872 13.5315C37.8598 13.7275 37.0756 14.0412 36.7226 14.1981C36.0952 14.4333 36.0168 14.1589 36.0168 11.1003C36.0168 9.25727 36.1737 7.72798 36.3305 7.72798C36.4874 7.72798 37.2716 8.70829 38.0951 9.92389ZM24.9981 11.6885L28.8801 13.2962L30.4878 17.1782L32.0956 21.0603L30.4878 24.9423L28.8801 28.8244L24.9981 30.4321L21.116 32.0398L17.234 30.4321L13.3519 28.8244L11.7442 24.9423L10.0973 21.0603L11.7442 17.1782L13.3519 13.2962L17.1163 11.7277C19.1946 10.8258 20.9592 10.1199 20.9984 10.1199C21.0768 10.0807 22.8414 10.7866 24.9981 11.6885ZM5.62702 15.2568C5.74465 15.3744 4.76434 16.4724 3.43111 17.688C2.09788 18.9036 0.96071 19.8839 0.921497 19.8055C0.725434 19.6094 1.43126 15.845 1.8626 14.7078L2.25473 13.6491L3.86245 14.3549C4.72512 14.747 5.54859 15.1392 5.62702 15.2568ZM40.9184 16.943C41.2321 18.433 41.4282 19.727 41.3497 19.8055C41.2713 19.8839 40.0949 18.9036 38.7225 17.6096L36.2521 15.296L37.9775 14.5118C38.9578 14.0804 39.8597 13.8452 40.0557 13.9628C40.2126 14.1196 40.6047 15.4529 40.9184 16.943ZM12.0971 14.1589C12.0971 14.2765 11.6266 15.4921 10.2933 18.5899L9.66592 20.08L8.56796 17.9233C7.94056 16.7469 7.4308 15.6489 7.39158 15.4921C7.39158 15.3352 8.21505 14.9823 9.27379 14.6686C11.1952 14.0412 12.0971 13.8844 12.0971 14.1589ZM32.7622 14.6686C33.8993 15.0215 34.8404 15.4137 34.8404 15.5313C34.8012 15.6489 34.2915 16.7469 33.6641 17.9233L32.5661 20.08L31.8995 18.5115C30.5663 15.3744 30.1349 14.2765 30.1349 14.1589C30.1349 13.8844 30.6055 14.002 32.7622 14.6686ZM7.90135 18.5115L9.27379 21.0603L7.90135 23.6091L6.56812 26.1579L3.82323 23.7267C2.33315 22.3935 1.11756 21.1779 1.11756 21.0603C1.11756 20.9034 6.21521 16.0411 6.48969 15.9626C6.52891 15.9626 7.15631 17.0998 7.90135 18.5115ZM41.1145 21.0603C41.1145 21.1779 39.8989 22.3935 38.4088 23.7267L35.7031 26.1579L34.2915 23.6091L32.8798 21.0603L34.2915 18.5115L35.7031 15.9626L38.4088 18.3938C39.8989 19.727 41.1145 20.9426 41.1145 21.0603ZM5.66623 26.5893C5.82308 26.8637 4.0193 27.8049 2.52922 28.2362C2.09788 28.3538 1.31362 26.1187 0.999923 23.8836L0.803859 22.2367L3.11741 24.2365C4.37221 25.3345 5.54859 26.3932 5.66623 26.5893ZM11.0776 25.3345C11.6266 26.7069 12.0187 27.9225 11.9403 28.0401C11.7834 28.1578 7.82292 27.0206 7.47001 26.7461C7.39158 26.6677 7.82292 25.6482 8.45033 24.4326C9.03852 23.217 9.62671 22.3543 9.78356 22.5504C9.94041 22.7072 10.5286 23.962 11.0776 25.3345ZM34.8404 26.5893C34.8404 26.8637 30.5271 28.2362 30.2918 28.0009C30.1349 27.8441 30.3702 27.2559 31.9387 23.4915L32.5661 22.0406L33.6641 24.1973C34.2915 25.3737 34.8012 26.4716 34.8404 26.5893ZM41.1145 24.3934C40.9184 25.4521 40.6047 26.8637 40.3694 27.4519C40.0165 28.393 39.8204 28.4715 39.193 28.1186C38.7617 27.9225 37.9382 27.5304 37.3108 27.2951L36.2129 26.8637L38.7617 24.5894C40.1341 23.3346 41.3105 22.3151 41.3497 22.3543C41.389 22.3935 41.2713 23.2954 41.1145 24.3934ZM6.21521 31.0987C6.21521 34.0005 6.13678 34.4318 5.66623 34.0005C4.92119 33.4123 2.68607 29.9223 2.68607 29.4126C2.68607 29.0597 4.99961 27.8833 5.94072 27.7656C6.09757 27.7264 6.21521 29.2557 6.21521 31.0987ZM10.9207 28.8636C12.5677 29.4518 12.7637 29.6871 13.548 31.8438C14.0185 33.1378 14.4106 34.4318 14.4106 34.6671C14.4499 35.0592 13.4695 35.1768 10.7247 35.1768H6.99946V31.4516V27.7264L8.09741 27.9617C8.6856 28.1186 9.94041 28.5107 10.9207 28.8636ZM35.2326 31.4516V35.1768H31.5074C29.4683 35.1768 27.7822 35.0592 27.7822 34.9023C27.7822 34.7455 28.1743 33.4515 28.6448 32.0006L29.4683 29.3734L32.0563 28.5891C33.468 28.1186 34.762 27.7656 34.9581 27.7656C35.1149 27.7264 35.2326 29.4126 35.2326 31.4516ZM38.4872 28.5891C39.8204 29.0989 39.8204 29.3734 38.3304 31.6869C36.2129 35.02 36.0168 34.9416 36.0168 31.0595C36.0168 27.9617 36.0952 27.6872 36.7226 27.9225C37.0756 28.0793 37.8598 28.393 38.4872 28.5891ZM16.4497 30.9811C17.6261 31.4908 18.9201 32.0398 19.3514 32.1967C20.0181 32.4712 19.822 32.6672 17.979 33.6083C16.8026 34.2357 15.7047 34.7455 15.5478 34.7847C15.4302 34.7847 14.9596 33.726 14.5283 32.4319C14.0577 31.1379 13.8617 30.0792 14.0185 30.0792C14.2146 30.0792 15.3125 30.5105 16.4497 30.9811ZM27.7037 32.4319C27.2724 33.726 26.8018 34.7847 26.6842 34.7847C26.5274 34.7455 25.4294 34.2357 24.253 33.6083L22.0963 32.4712L23.2727 32.0398C23.9393 31.8045 25.1549 31.2948 26.0176 30.8634C28.488 29.7263 28.6056 29.8047 27.7037 32.4319ZM23.9001 34.3926L26.2529 35.6082L23.7825 38.3138C22.4492 39.8431 21.2337 41.0587 21.116 41.0587C20.9984 41.0587 19.7828 39.8431 18.4496 38.3138L15.9792 35.6082L18.2535 34.4318C19.5083 33.7652 20.7631 33.2554 21.0376 33.2162C21.3121 33.2162 22.6061 33.7652 23.9001 34.3926ZM13.744 37.7257C13.3911 38.706 12.9598 39.4902 12.7637 39.4902C12.2147 39.4902 9.11694 37.5688 8.3719 36.7453C7.66607 35.9611 7.70529 35.9611 11.0384 35.9611H14.4106L13.744 37.7257ZM33.8601 36.7453C33.1151 37.5688 30.0173 39.4902 29.4683 39.4902C29.2722 39.4902 28.8801 38.8236 28.5664 38.0001C28.2527 37.2159 27.939 36.4316 27.8606 36.2356C27.7822 36.0787 29.2722 35.9611 31.1545 35.9611C34.5267 35.9611 34.566 35.9611 33.8601 36.7453ZM19.7828 41.3332C19.5867 41.5685 14.0969 40.2353 13.9401 39.9608C13.8617 39.8039 14.1362 38.902 14.5675 37.9217L15.3518 36.1571L17.6261 38.706C18.8809 40.0784 19.8612 41.2548 19.7828 41.3332ZM27.8214 38.3138L28.5272 39.9216L27.5469 40.2745C26.9979 40.5098 25.5863 40.8235 24.4099 40.9803L22.2532 41.3332L23.1551 40.3137C25.351 37.8041 26.7626 36.3924 26.9195 36.5493C27.0371 36.6669 27.4292 37.4512 27.8214 38.3138Z" fill="currentColor"/>
</svg>
