<svg width="38" height="38" viewBox="0 0 38 38" fill="none" xmlns="http://www.w3.org/2000/svg">
<path d="M37.1616 18.6237C37.1616 16.0777 36.6438 13.651 35.728 11.4631V11.4234V11.3837C34.8121 9.23565 33.4979 7.28622 31.8651 5.65511L31.7856 5.57574L31.7459 5.53606L31.7062 5.49638C29.9939 3.82556 27.9627 2.47306 25.7326 1.51824C25.6929 1.51824 25.6929 1.47855 25.6529 1.47855H25.5732C23.3828 0.602794 21.0731 0.125488 18.6438 0.125488C16.0951 0.125488 13.6659 0.642732 11.4756 1.55762H11.4358H11.3961C9.24579 2.47252 7.29429 3.78531 5.66146 5.41642L5.62173 5.4561C5.62173 5.4561 5.58201 5.4561 5.58201 5.49578L5.50256 5.57515C3.82997 7.28561 2.47604 9.31467 1.5202 11.5424C1.5202 11.582 1.48048 11.582 1.48048 11.622V11.7016C0.603787 13.8897 0.125977 16.197 0.125977 18.6237C0.125977 21.1697 0.643768 23.5964 1.55963 25.7843V25.824V25.8637C2.4755 28.0118 3.78968 29.9612 5.42252 31.6319C5.46224 31.6716 5.50224 31.7116 5.54197 31.7513H5.58169L5.62141 31.791C7.33368 33.4618 9.3649 34.8143 11.595 35.7691C11.6347 35.7691 11.6347 35.8088 11.6747 35.8088H11.7144C13.8647 36.684 16.1746 37.1613 18.6038 37.1613C21.1525 37.1613 23.5818 36.644 25.8119 35.6894H25.8516H25.8913C28.0417 34.7745 29.9932 33.4617 31.626 31.8306C31.7057 31.791 31.7455 31.751 31.7852 31.6716C33.4578 29.9612 34.8517 27.9321 35.7675 25.6647C35.7675 25.6647 35.7675 25.625 35.8073 25.625V25.5454C36.6839 23.3576 37.1616 21.0504 37.1616 18.6237ZM34.8918 24.5909L31.1087 23.1191L35.8874 19.7775C35.8077 21.4484 35.4493 23.0792 34.8918 24.5909ZM25.9315 34.3374L24.2987 30.6379L30.0333 31.6721C28.7989 32.7463 27.4049 33.6214 25.9315 34.3374ZM7.25424 31.672L13.0286 30.6378L11.5552 34.457C10.0021 33.7008 8.56842 32.7859 7.25424 31.672ZM1.36042 19.7774L6.17922 23.119L2.43573 24.7898C1.87793 23.2386 1.47989 21.5678 1.36042 19.7774ZM2.39576 12.6565L6.17893 14.1284L1.40017 17.4699C1.4799 15.7991 1.83824 14.1683 2.39576 12.6565ZM11.3561 2.91006L12.9889 6.60959L7.25424 5.57534C8.4887 4.5411 9.88267 3.62605 11.3561 2.91006ZM30.0333 5.57541L24.259 6.60966L25.7324 2.7905C27.2855 3.5467 28.7192 4.46153 30.0333 5.57541ZM35.9272 17.4701L31.1084 14.1285L34.8519 12.4577C35.4097 14.0089 35.8077 15.6796 35.9272 17.4701ZM18.6437 25.8242L13.5463 23.7158L11.4356 18.6237L13.5463 13.5317L18.6437 11.4233L23.7411 13.5317L25.8518 18.6237L23.7411 23.7158L18.6437 25.8242ZM10.6392 17.4303L8.44881 14.4467L12.1126 13.8898L10.6392 17.4303ZM12.1523 23.3975L8.48849 22.8009L10.6789 19.8173L12.1523 23.3975ZM26.6481 19.8173L28.8384 22.8009L25.135 23.3975L26.6481 19.8173ZM25.135 13.8501L28.7987 14.4467L26.6481 17.4303L25.135 13.8501ZM29.396 13.2932L24.6969 12.5373L23.9799 7.88282L30.5907 6.68931L29.396 13.2932ZM22.8649 8.47947L23.4224 12.1394L19.8384 10.6675L22.8649 8.47947ZM18.6436 10.0709L14.8204 7.28624L18.6436 1.75634L22.4669 7.24625L18.6436 10.0709ZM17.4489 10.6278L13.8649 12.0996L14.4621 8.43975L17.4489 10.6278ZM12.5904 12.5769L7.89135 13.2932L6.69657 6.68937L13.3074 7.88288L12.5904 12.5769ZM7.29385 14.8046L10.0814 18.6238L7.29385 22.443L1.75837 18.6238L7.29385 14.8046ZM7.89137 23.9544L12.5904 24.7103L13.3074 29.3647L6.69659 30.5582L7.89137 23.9544ZM14.4224 28.7681L13.8649 25.1082L17.4489 26.58L14.4224 28.7681ZM18.6437 27.1767L22.4669 29.9613L18.6437 35.4912L14.8205 30.0013L18.6437 27.1767ZM19.8384 26.6197L23.4224 25.1479L22.8252 28.8078L19.8384 26.6197ZM24.6969 24.6706L29.396 23.9544L30.5908 30.5582L23.98 29.3647L24.6969 24.6706ZM29.9935 22.4429L27.2059 18.6237L29.9935 14.8046L35.5289 18.6237L29.9935 22.4429ZM30.6704 12.9749L31.7058 7.24632C32.7811 8.47947 33.6572 9.83197 34.374 11.3438L30.6704 12.9749ZM23.1438 6.13251L19.7987 1.35881C21.4713 1.47813 23.0643 1.8361 24.5774 2.35334L23.1438 6.13251ZM14.1038 6.17219L12.4312 2.43267C14.024 1.83606 15.6969 1.43813 17.4489 1.31879L14.1038 6.17219ZM5.58156 7.24636L6.61691 13.0146L2.7937 11.5428C3.5507 9.99128 4.4665 8.55915 5.58156 7.24636ZM6.61691 24.2728L5.58156 30.0014C4.50626 28.7683 3.63014 27.4158 2.91338 25.9039L6.61691 24.2728ZM14.1436 31.1152L17.4887 35.8889C15.8161 35.7696 14.223 35.4116 12.7099 34.8944L14.1436 31.1152ZM23.1835 31.0755L24.8561 34.8151C23.2633 35.4117 21.5904 35.8096 19.8384 35.929L23.1835 31.0755ZM31.7058 30.0014L30.6704 24.2331L34.4936 25.705C33.7366 27.2565 32.8208 28.6886 31.7058 30.0014Z" fill="currentColor"/>
</svg>
