<svg width="35" height="35" viewBox="0 0 35 35" fill="none" xmlns="http://www.w3.org/2000/svg">
<path d="M3.52047 6.64137L0 10.3051V17.5712V24.8168L3.74561 28.4191L7.5117 32.0215L11.114 28.3987L14.7368 24.7759V17.5098V10.2437L11.114 6.6209C9.10819 4.61505 7.36842 2.97762 7.24561 2.97762C7.12281 2.97762 5.44444 4.63552 3.52047 6.64137ZM14.1228 10.3665C14.1228 10.4484 13.7135 10.6121 13.2018 10.7554C12.117 11.0624 12.4035 11.2466 9.27193 8.19692L7.5731 6.5595L7.45029 5.02441L7.32749 3.48932L10.7251 6.86651C12.5877 8.72909 14.1228 10.3051 14.1228 10.3665ZM6.9386 6.47762C6.85673 6.66184 5.77193 7.74663 4.54386 8.89283L2.2924 10.9601L1.45322 10.6121L0.614035 10.2437L3.74561 6.98932L6.85673 3.71447L6.97953 4.94254C7.04094 5.59751 7.02047 6.29341 6.9386 6.47762ZM5.7924 10.4689C4.42105 11.7174 4.40058 11.7174 3.68421 11.4718C3.29532 11.3285 2.96784 11.1443 2.96784 11.042C2.96784 10.9396 3.88889 9.99809 5.01462 8.93376L7.0614 7.00979L7.12281 8.09458L7.18421 9.19985L5.7924 10.4689ZM9.82456 9.22031C10.8889 10.2846 11.6871 11.2057 11.6257 11.2876C11.5439 11.349 11.1345 11.4513 10.7047 11.5127C9.9269 11.6151 9.84503 11.5741 8.73977 10.3256C7.71637 9.15891 7.5731 8.9133 7.5731 8.13552C7.5731 7.66476 7.6345 7.27587 7.73684 7.27587C7.81871 7.27587 8.76023 8.15599 9.82456 9.22031ZM8.76023 10.8373L10.0292 12.1472V17.4893V22.8314L8.94444 24.1004C8.37135 24.7963 7.77778 25.3899 7.65497 25.4308C7.53216 25.4718 6.81579 24.9191 6.07895 24.2232L4.7076 22.9338V17.5098V12.1063L5.97661 10.8168C6.67251 10.1004 7.30702 9.52733 7.38889 9.52733C7.45029 9.52733 8.0848 10.1209 8.76023 10.8373ZM1.43275 11.0624L2.04678 11.3899V17.5712V23.7729L1.37135 24.0186C1.00292 24.1618 0.634503 24.2642 0.552632 24.2642C0.47076 24.2642 0.409357 21.2145 0.409357 17.5098C0.409357 12.925 0.47076 10.7554 0.614035 10.7554C0.736842 10.7554 1.10526 10.8987 1.43275 11.0624ZM14.3275 17.694V24.4484L13.5702 24.1823L12.7924 23.9162L12.6696 21.2759C12.5877 19.8227 12.5263 17.0186 12.5058 15.0332L12.4854 11.4308L13.1608 11.2057C13.5088 11.1034 13.9386 11.001 14.0819 10.9805C14.2661 10.9601 14.3275 12.4338 14.3275 17.694ZM3.70468 11.9221C4.11404 12.0449 4.29825 14.3577 4.29825 19.3928V22.8314L3.5614 23.1384C3.15205 23.3022 2.74269 23.4455 2.64035 23.4455C2.4152 23.4455 2.39474 11.9221 2.59942 11.6969C2.68129 11.6355 2.88596 11.6151 3.04971 11.6969C3.23392 11.7583 3.52047 11.8607 3.70468 11.9221ZM12.1579 17.7554C12.2193 21.0098 12.2398 23.6501 12.1784 23.6501C12.1374 23.6501 11.7076 23.5069 11.2573 23.3227L10.4386 22.9952V17.5303V12.0653L11.114 11.8607C11.462 11.7583 11.8304 11.7174 11.8918 11.7788C11.9737 11.8402 12.076 14.5215 12.1579 17.7554ZM5.9152 24.6121L7.40936 26.0039L7.32749 27.0887L7.26608 28.1531L5.11696 26.2086C3.92982 25.1443 2.94737 24.1823 2.90643 24.1004C2.8655 23.9572 3.97076 23.3022 4.31871 23.2613C4.38012 23.2408 5.09649 23.8548 5.9152 24.6121ZM11.1959 23.7525L11.9532 24.08L10.0292 26.0039C8.96491 27.0683 8.02339 27.9484 7.94152 27.9484C7.83918 27.9484 7.77778 27.4981 7.77778 26.9659C7.77778 26.0449 7.85965 25.8811 8.92398 24.7145C9.55848 24.0186 10.152 23.4455 10.2544 23.4455C10.3567 23.4455 10.7865 23.5887 11.1959 23.7525ZM4.93275 26.5361L7.36842 28.8285V29.9133C7.36842 30.5273 7.28655 31.0186 7.18421 31.0186C6.9386 31.0186 0.818713 25.0829 0.818713 24.8577C0.818713 24.6326 1.57602 24.3051 2.12865 24.2846C2.33333 24.2642 3.58187 25.2671 4.93275 26.5361ZM13.2427 24.5098C13.5497 24.6531 13.8567 24.7759 13.8977 24.8168C13.9795 24.8782 8.2076 30.8753 7.94152 30.9776C7.85965 31.0186 7.77778 30.5069 7.77778 29.8314V28.6034L10.0906 26.4338C11.3392 25.2466 12.4444 24.2642 12.5263 24.2642C12.6082 24.2642 12.9357 24.3665 13.2427 24.5098Z" fill="currentColor"/>
<path d="M23.6814 6.64198L20.0381 10.2443L20.0586 17.449C20.0586 24.6332 20.0586 24.6537 20.5293 25.1244C22.003 26.6391 27.6112 31.8379 27.7749 31.8379C27.8773 31.8379 29.5556 30.2414 31.4796 28.3174L35.0001 24.7765V17.4899V10.2239L31.4182 6.64198C29.4328 4.67707 27.7135 3.06011 27.5702 3.06011C27.4474 3.03964 25.6872 4.63614 23.6814 6.64198ZM27.4065 5.12736L27.4474 6.45777L25.6258 8.17707C22.8217 10.8788 22.8626 10.8584 21.7779 10.5513C21.2866 10.4081 20.8773 10.2443 20.8773 10.1625C20.8773 9.99871 27.079 3.79695 27.2428 3.79695C27.3042 3.79695 27.386 4.39052 27.4065 5.12736ZM31.889 7.5835C33.2603 8.93438 34.386 10.0806 34.386 10.1625C34.386 10.2648 32.8714 10.8379 32.5235 10.8584C32.4416 10.8584 31.3568 9.89637 30.1083 8.7297L27.8363 6.62152V5.1683V3.71508L28.6141 4.41099C29.0235 4.79988 30.4972 6.23263 31.889 7.5835ZM27.427 8.6069C27.427 9.93731 27.427 9.95777 26.465 10.8584C25.9124 11.3701 25.3802 11.7794 25.2574 11.7794C25.1346 11.7794 24.6024 11.6361 24.0702 11.4519L23.0878 11.104L25.0936 9.20046C26.2194 8.1566 27.1814 7.29695 27.2837 7.27649C27.3656 7.27649 27.427 7.87005 27.427 8.6069ZM30.0673 9.20046L31.9708 11.104L31.1317 11.4519C30.6609 11.6361 30.1697 11.7794 30.0264 11.7794C29.9036 11.7589 29.351 11.3701 28.8188 10.8584C27.8363 9.97824 27.8363 9.97824 27.8363 8.62736C27.8363 7.89052 27.8977 7.27649 28.0001 7.27649C28.0819 7.27649 29.003 8.13614 30.0673 9.20046ZM21.9621 11.104L22.5147 11.3905V17.4899V23.5894L21.655 23.9168C21.1843 24.101 20.7545 24.2239 20.7135 24.1625C20.6521 24.1215 20.5702 21.0104 20.5088 17.2853L20.4065 10.5104L20.8977 10.6537C21.1638 10.7356 21.6346 10.9402 21.9621 11.104ZM34.5907 17.5104C34.5907 21.7882 34.5088 24.2648 34.386 24.2648C34.2837 24.2648 33.8129 24.1215 33.3626 23.9373L32.5439 23.6098V17.4899V11.3701L33.2194 11.0835C34.6931 10.4285 34.5907 9.99871 34.5907 17.5104ZM24.1521 11.9022C24.6638 12.1069 25.0118 12.3934 25.0732 12.68C25.1346 12.9051 25.155 15.2589 25.1346 17.8993L25.0732 22.6683L24.1112 23.0367C23.579 23.2414 23.1083 23.3437 23.0469 23.2823C22.8217 23.0777 22.9036 11.5747 23.1287 11.5747C23.2311 11.5747 23.7018 11.718 24.1521 11.9022ZM32.1346 17.4081C32.1346 23.8145 32.196 23.5894 30.9065 22.9344L30.2925 22.6069L30.2515 18.7794C30.2515 16.6712 30.2106 14.3788 30.1697 13.6829C30.1287 12.8847 30.2106 12.3525 30.3539 12.2297C30.5995 12.0455 31.6638 11.6157 31.9913 11.5952C32.0732 11.5747 32.1346 14.1946 32.1346 17.4081ZM29.8626 18.7794C29.8626 20.7853 29.8012 22.4227 29.6989 22.4227C29.2077 22.4227 28.0819 21.7882 28.0001 21.4607C27.9591 21.256 27.8773 19.3116 27.8568 17.142L27.7954 13.2122L28.696 12.8233L29.5761 12.4548L29.6989 13.8057C29.7808 14.5426 29.8422 16.794 29.8626 18.7794ZM26.6901 12.9051L27.427 13.2122V17.4899V21.7677L26.6697 22.0747C25.9124 22.3613 25.8919 22.3613 25.7486 21.9315C25.5644 21.2765 25.5644 12.5981 25.7691 12.5981C25.8714 12.5981 26.2808 12.7414 26.6901 12.9051ZM26.5673 24.0601L27.6317 25.0835V26.4139C27.6317 27.1508 27.5702 27.7443 27.4884 27.7443C27.2632 27.7239 23.2311 23.8759 23.3539 23.794C23.5176 23.6508 25.0732 23.0572 25.2779 23.0572C25.4007 23.0572 25.9738 23.5075 26.5673 24.0601ZM31.7252 23.9578C31.7048 24.0806 30.8656 25.0221 29.8626 26.066L28.041 27.949V26.5777V25.2063L29.0849 24.142L30.1287 23.0777L30.9474 23.4256C31.3977 23.6098 31.7457 23.8554 31.7252 23.9578ZM25.3188 26.3525L27.6317 28.6654V29.9548V31.2648L26.0556 29.8116C25.1755 29.0133 23.579 27.5396 22.5352 26.5572L20.5907 24.7356L21.5118 24.4081C22.003 24.2443 22.5556 24.0806 22.7194 24.0806C22.8831 24.0601 24.0498 25.104 25.3188 26.3525ZM33.5264 24.449L34.4065 24.797L31.234 28.0513L28.0615 31.3262L28.041 29.9139V28.5016L30.1492 26.2911C31.2954 25.0835 32.3393 24.101 32.4416 24.101C32.5644 24.0806 33.0352 24.2443 33.5264 24.449Z" fill="currentColor"/>
</svg>
