<svg width="39" height="36" viewBox="0 0 39 36" fill="none" xmlns="http://www.w3.org/2000/svg">
<path d="M35.5422 3.4539C34.5475 2.4592 33.4288 1.67201 32.2268 1.13319L32.1854 1.09185H32.1441C29.989 0.138744 27.5853 -0.151502 25.3062 0.263072H25.2232C23.1925 0.677327 21.286 1.58909 19.6697 3.03943C18.0535 1.58879 16.147 0.677053 14.1165 0.304144H14.0335C11.7541 -0.1104 9.35048 0.1385 7.19569 1.13292H7.15436C7.15436 1.13292 7.11302 1.13292 7.11302 1.17426C5.91133 1.7131 4.79231 2.50057 3.79754 3.49497C-0.719624 8.01213 -0.719624 15.3061 3.79754 19.8233L8.14908 24.1749C8.19042 24.2162 8.23205 24.2992 8.31473 24.3405L19.2555 35.2813C19.2969 35.3227 19.2969 35.3227 19.3385 35.3227H19.3798C19.4212 35.3227 19.4628 35.364 19.4628 35.364C19.5458 35.4054 19.5871 35.4054 19.6701 35.4054C19.753 35.4054 19.7944 35.4054 19.8773 35.364C19.9187 35.364 19.9603 35.3227 19.9603 35.3227H20.0016C20.043 35.3227 20.043 35.2813 20.0846 35.2813L31.0254 24.3405C31.0668 24.2992 31.1498 24.2575 31.1911 24.1749L35.5426 19.8233C40.0595 15.3065 40.0594 7.97113 35.5422 3.4539ZM26.6735 26.9518C26.0934 26.0814 25.4302 25.2526 24.6428 24.4651H29.1599L26.6735 26.9518ZM10.1794 24.4238H14.6966C13.9507 25.2526 13.2459 26.0814 12.6658 26.9105L10.1794 24.4238ZM9.2677 16.7155C11.2155 17.337 13.1217 18.0831 14.9039 18.9949V23.1805H9.2677V16.7155ZM2.47112 7.59815C3.34156 7.97107 4.17034 8.34397 4.95782 8.75854L1.76638 13.1927C1.47643 11.2865 1.72501 9.33874 2.47112 7.59815ZM19.6697 7.63949L25.0574 9.04846C26.2177 9.83594 26.8809 10.9963 27.0052 12.5296C25.6788 13.9802 24.5185 15.7621 23.4824 17.9585C22.1561 18.6216 20.8714 19.4091 19.6697 20.1962C18.468 19.4087 17.183 18.6213 15.857 17.9585C14.8209 15.7207 13.6605 13.9798 12.3342 12.5296C12.4585 10.9547 13.08 9.83594 14.282 9.04846L19.6697 7.63949ZM33.2215 7.92973C33.1801 7.92973 33.1385 7.97106 33.0558 8.01269C32.4343 8.34427 31.8541 8.67584 31.2739 9.00739V5.65062L35.3352 6.89397C34.6305 7.22525 33.926 7.55654 33.2215 7.92973ZM28.0825 11.4522C27.8339 10.2505 27.2537 9.29711 26.3833 8.50963L30.0717 5.98163V9.83564C29.3672 10.3334 28.7041 10.872 28.0825 11.4522ZM25.2229 7.84677L20.8301 6.68638L25.4302 1.75464L29.6158 4.82146L25.2229 7.84677ZM23.1508 22.9733C22.405 22.3101 21.6175 21.647 20.7884 21.0255C21.5342 20.5283 22.3633 20.0724 23.1508 19.6165V22.9733ZM16.1886 19.6581C17.0173 20.114 17.8048 20.5699 18.5509 21.0671C17.7222 21.6886 16.9347 22.3517 16.1886 23.0149V19.6581ZM19.6697 21.8129C20.8301 22.6417 21.9074 23.5121 22.9022 24.4652L19.6697 33.0438L16.4372 24.4652C17.4318 23.5121 18.5093 22.6417 19.6697 21.8129ZM14.1164 7.84677L9.72364 4.82154L13.9092 1.75471L18.5094 6.68645L14.1164 7.84677ZM12.956 8.55125C12.0856 9.33874 11.5054 10.2918 11.2568 11.4938C10.6353 10.9136 9.97223 10.3748 9.2677 9.87756V6.02355L12.956 8.55125ZM6.28384 8.01241C6.24221 8.01241 6.24221 8.01241 6.28384 8.01241C6.2425 7.97107 6.15953 7.92945 6.11819 7.92945C5.41371 7.55653 4.70922 7.22496 3.96311 6.89338L8.0244 5.65003V9.0068C7.44422 8.67552 6.86403 8.34402 6.28384 8.01241ZM6.07656 9.29735C6.73971 9.67027 7.40288 10.0432 8.02437 10.4577V15.0166C6.20082 14.5607 4.37735 14.2291 2.59546 14.0635L6.07656 9.29735ZM9.26772 11.4108C9.9722 11.9497 10.594 12.5299 11.2155 13.2344C12.2102 14.3118 13.1633 15.6381 13.9921 17.1714C12.4588 16.4669 10.8426 15.8867 9.22642 15.4308L9.22613 11.4108H9.26772ZM15.4841 25.4184L18.095 32.3393L13.5776 27.8219C14.1164 26.9931 14.7795 26.2056 15.4841 25.4184ZM23.8555 25.4184C24.6013 26.2059 25.2231 26.9933 25.762 27.8221L21.2448 32.3393L23.8555 25.4184ZM24.3943 23.1804V18.9948C26.2178 18.083 28.124 17.3372 30.0305 16.7153V23.1803L24.3943 23.1804ZM25.306 17.1713C26.1348 15.5964 27.0879 14.3117 28.0827 13.2343C28.7042 12.5712 29.3673 11.9497 30.0305 11.4108V15.4307C28.4556 15.8866 26.8393 16.4668 25.306 17.1713ZM31.3151 10.499C31.9367 10.0845 32.5998 9.71156 33.2629 9.33865L36.7027 14.1461C34.9208 14.3117 33.0972 14.6019 31.2738 15.0992V10.499H31.3151ZM34.382 8.75845C35.1694 8.34391 35.9982 7.97097 36.8687 7.59806C37.6145 9.37994 37.8634 11.3277 37.5731 13.193L34.382 8.75845ZM35.8323 5.73322L31.4808 4.40691L32.2266 2.54207C33.097 2.99795 33.9258 3.6195 34.6302 4.32395C35.1278 4.77983 35.5011 5.23569 35.8323 5.73322ZM31.1495 2.04483L30.4037 3.86838L27.0053 1.34038C28.3729 1.29876 29.8232 1.50599 31.1495 2.04483ZM20.1258 4.32395C21.0789 3.37085 22.1565 2.6664 23.3169 2.16886L19.6699 6.10613L16.0229 2.16916C17.1833 2.66638 18.2607 3.37085 19.2141 4.32425C19.4627 4.57286 19.8772 4.57285 20.1258 4.32395ZM12.376 1.34009L8.97763 3.86808L8.23182 2.04454C9.4335 1.58865 10.7185 1.34005 11.9615 1.34005L12.376 1.34009ZM4.66775 4.32395C5.41357 3.57813 6.20106 2.99764 7.07142 2.54207L7.81724 4.40691L3.50736 5.73322C3.83865 5.23571 4.21185 4.77982 4.66775 4.32395ZM2.34705 15.3477C4.21189 15.5133 6.15976 15.8449 8.06619 16.3837L8.0659 22.3102L4.66747 18.9117C3.6317 17.8757 2.84422 16.6323 2.34705 15.3477ZM31.3154 22.3102V16.3837C33.2219 15.8449 35.1281 15.5133 37.0345 15.3477C36.5373 16.6323 35.7499 17.8757 34.7138 18.9117L31.3154 22.3102Z" fill="currentColor"/>
</svg>
