<svg width="42" height="42" viewBox="0 0 42 42" fill="none" xmlns="http://www.w3.org/2000/svg">
<path d="M0.198223 0.198223C-0.0660744 0.462521 -0.0660744 41.5375 0.198223 41.8018C0.462521 42.0661 41.5375 42.0661 41.8018 41.8018C42.0661 41.5375 42.0661 0.462521 41.8018 0.198223C41.5375 -0.0660744 0.462521 -0.0660744 0.198223 0.198223ZM39.392 1.05331C39.4542 1.09995 38.5836 1.69073 37.4642 2.37479L35.4431 3.58745H21H6.55691L4.53581 2.37479C3.41644 1.69073 2.54581 1.09995 2.608 1.05331C2.73237 0.913383 39.2676 0.913383 39.392 1.05331ZM4.70683 3.55636C6.33926 4.52027 6.13715 4.28706 8.42254 8.17379L8.79567 8.79567L8.17379 8.42254C7.83176 8.22043 6.83676 7.6452 5.98168 7.1166L4.41144 6.18379L3.54081 4.69128C3.05886 3.8673 2.46807 2.88784 2.25042 2.51472L1.83065 1.83065L2.51471 2.25042C2.88784 2.46807 3.8673 3.05886 4.70683 3.55636ZM39.734 2.53026C39.5164 2.90339 38.9411 3.8673 38.4436 4.70683C37.4797 6.33926 37.7129 6.13715 33.8262 8.42254L33.2043 8.79567L33.5775 8.17379C33.7796 7.83176 34.3548 6.85231 34.8679 5.99723L35.8007 4.44253L37.9306 3.16769C39.0966 2.46807 40.0605 1.89284 40.0916 1.87729C40.1227 1.87729 39.9672 2.17268 39.734 2.53026ZM3.58745 21.0155V35.4431L2.37479 37.4642C1.69073 38.5836 1.09994 39.4542 1.0533 39.392C0.913381 39.2676 0.913381 2.73237 1.0533 2.608C1.11549 2.54581 1.70627 3.41644 2.37479 4.55136L3.58745 6.60355V21.0155ZM41.0555 20.9845C41.0555 31.0589 41.0089 39.3454 40.9467 39.392C40.9001 39.4542 40.3093 38.5836 39.6252 37.4642L38.4125 35.4431V21V6.57246L39.6252 4.55136C40.2782 3.44753 40.869 2.56136 40.9467 2.608C41.0089 2.63909 41.0555 10.9101 41.0555 20.9845ZM31.6496 4.67574C31.7274 4.80011 21.4975 8.25153 21 8.25153C20.4714 8.25153 10.1327 4.76902 10.3037 4.64464C10.5991 4.47363 31.5253 4.48917 31.6496 4.67574ZM13.0089 6.69683C15.8851 7.6452 18.2948 8.43809 18.3259 8.48473C18.3726 8.53137 18.3726 8.59356 18.3415 8.62465C18.2171 8.74903 10.7546 9.69739 10.5369 9.60411C10.4281 9.55747 9.82176 8.65575 9.18434 7.61411C8.56246 6.55692 7.94059 5.53082 7.81621 5.32871C7.69184 5.14214 7.62965 4.98668 7.67629 4.98668C7.70738 4.98668 10.1172 5.76402 13.0089 6.69683ZM32.94 7.39645C32.2404 8.56247 31.5719 9.55747 31.4631 9.60411C31.2454 9.69739 23.7829 8.74903 23.6585 8.62465C23.6274 8.59356 23.6274 8.53137 23.6741 8.48473C23.8451 8.29817 34.1371 5.03332 34.1838 5.14214C34.1993 5.20433 33.6552 6.21488 32.94 7.39645ZM7.39645 9.05997C8.57801 9.75958 9.55747 10.4281 9.60411 10.5369C9.65075 10.6613 9.46419 12.4026 9.19989 14.4392C8.93559 16.4603 8.71793 18.1705 8.71793 18.2326C8.71793 19.0566 6.96113 14.1594 5.20433 8.43809C5.0955 8.08051 5.06441 7.78512 5.14214 7.78512C5.20433 7.78512 6.23043 8.36036 7.39645 9.05997ZM36.7801 8.43809C36.2515 10.1949 33.5775 18.2637 33.5153 18.3259C33.4686 18.3726 33.4064 18.3726 33.3753 18.3415C33.2665 18.2326 32.3337 11.0344 32.3803 10.6924C32.4114 10.4592 33.0489 9.99278 34.5258 9.09106C35.6763 8.39145 36.7024 7.80067 36.8112 7.80067C36.9356 7.78512 36.9356 7.95613 36.7801 8.43809ZM26.286 9.97724C28.9756 10.3348 31.2299 10.6613 31.2921 10.7235C31.3387 10.7701 31.6807 13.1022 32.0539 15.9162L32.7224 21L32.0539 26.0994C31.6807 28.8978 31.3387 31.2299 31.2921 31.2921C31.2299 31.3387 28.8978 31.6807 26.0994 32.0539L21 32.7224L15.9162 32.0539C13.1022 31.6807 10.7701 31.3387 10.7079 31.2921C10.6613 31.2299 10.3193 28.8978 9.94614 26.0994L9.27762 21L9.94614 15.9162C10.3193 13.1022 10.6613 10.7701 10.7079 10.7235C10.8323 10.5991 19.6941 9.38645 20.6891 9.35536C21.0777 9.33981 23.5963 9.61966 26.286 9.97724ZM37.4797 21C37.4797 26.7679 37.4175 31.5875 37.3554 31.6963C37.231 31.8673 33.7485 21.513 33.7485 21C33.7485 20.487 37.231 10.1327 37.3554 10.3037C37.4175 10.4125 37.4797 15.2321 37.4797 21ZM6.54137 15.5275C7.47418 18.4348 8.25153 20.8912 8.25153 21C8.25153 21.4198 4.81566 31.7274 4.67574 31.7274C4.58245 31.7274 4.52027 27.7785 4.52027 21C4.52027 14.2215 4.58245 10.2726 4.67574 10.2726C4.75347 10.2726 5.593 12.6358 6.54137 15.5275ZM8.76458 24.2182C8.81122 24.5447 9.04442 26.3015 9.27762 28.136C9.71294 31.4164 9.71294 31.4631 9.402 31.6807C8.84231 32.1005 5.28207 34.2149 5.14214 34.2149C4.97113 34.2149 4.97113 34.2149 6.91449 28.2604C7.75403 25.7263 8.48473 23.643 8.56246 23.643C8.62465 23.643 8.71793 23.9073 8.76458 24.2182ZM33.8884 24.6069C34.0594 25.151 34.8368 27.5297 35.6141 29.9239C36.3914 32.3026 36.9978 34.2771 36.9822 34.2926C36.9045 34.3859 32.5825 31.7429 32.4425 31.5253C32.3493 31.3853 32.4581 30.0794 32.7224 28.0583C33.2821 23.7518 33.2976 23.643 33.4375 23.643C33.5153 23.643 33.7018 24.0783 33.8884 24.6069ZM14.6724 32.8312C16.6624 33.0955 18.3104 33.3443 18.3415 33.3753C18.3726 33.4064 18.3726 33.4686 18.3259 33.5153C18.2326 33.6241 7.75403 37.0289 7.69184 36.9822C7.67629 36.9511 8.1427 36.1272 8.73348 35.1477C9.32426 34.1682 9.94614 33.1266 10.1172 32.8468C10.3037 32.5358 10.5369 32.3493 10.739 32.3493C10.9256 32.3493 12.6824 32.5669 14.6724 32.8312ZM32.9245 34.588C33.6396 35.7696 34.2149 36.7957 34.1838 36.8579C34.1371 36.9822 23.8606 33.7018 23.6741 33.5153C23.6274 33.4686 23.6274 33.4064 23.6585 33.3598C23.7829 33.251 30.3748 32.3803 31.0122 32.4114L31.6341 32.427L32.9245 34.588ZM8.407 33.8573C6.15269 37.7129 6.32371 37.4797 4.70683 38.4436C3.8673 38.9411 2.88784 39.5319 2.51471 39.7496L1.83065 40.1694L2.25042 39.4853C2.46807 39.1122 3.05886 38.1327 3.55636 37.2932L4.44253 35.8007L6.54137 34.5414C7.69184 33.8418 8.67129 33.2821 8.68684 33.2821C8.71793 33.2821 8.59356 33.5464 8.407 33.8573ZM36.0028 34.8679C37.5575 35.8007 37.5575 35.8007 38.4436 37.2932C38.9411 38.1327 39.5319 39.1122 39.7496 39.4853L40.1693 40.1694L39.4853 39.7496C39.1122 39.5319 38.1327 38.9411 37.2932 38.4436C35.6607 37.4797 35.8629 37.7129 33.5775 33.8262L33.2043 33.2043L33.8262 33.5775C34.1682 33.7796 35.1477 34.3548 36.0028 34.8679ZM26.4725 35.4586C29.3953 36.4225 31.6963 37.2465 31.6496 37.3243C31.5253 37.5264 10.4747 37.5264 10.3504 37.3243C10.2726 37.1843 20.3159 33.7951 20.9067 33.764C21.0777 33.7485 23.5808 34.5258 26.4725 35.4586ZM37.4486 39.6252C38.5836 40.2937 39.4542 40.8845 39.392 40.9467C39.2676 41.0866 2.73237 41.0866 2.608 40.9467C2.54581 40.9001 3.38534 40.3093 4.48917 39.6408L6.46363 38.4436L20.9378 38.4281L35.3964 38.4125L37.4486 39.6252Z" fill="currentColor"/>
</svg>
