<svg width="30" height="54" viewBox="0 0 30 54" fill="none" xmlns="http://www.w3.org/2000/svg">
<path d="M0 27V54H14.988H29.976V27V0H14.988H0V27ZM27.5627 1.97406L26.356 3.18396H14.988H3.61999L2.41332 1.97406L1.20666 0.764149H14.988H28.7694L27.5627 1.97406ZM1.94336 2.39434L3.04841 3.50236V27V50.4976L1.93066 51.6184C1.32098 52.2297 0.774804 52.7264 0.723997 52.7264C0.673191 52.7264 0.635085 41.1495 0.635085 27C0.635085 12.8505 0.673191 1.27358 0.736699 1.27358C0.787506 1.27358 1.33368 1.77028 1.94336 2.39434ZM29.341 27C29.341 41.1495 29.3028 52.7264 29.252 52.7264C29.2012 52.7264 28.6551 52.2297 28.0454 51.6184L26.9276 50.4976V27V3.50236L28.0327 2.39434C28.6424 1.77028 29.1885 1.27358 29.2393 1.27358C29.3028 1.27358 29.341 12.8505 29.341 27ZM23.9935 5.54009L22.2788 7.25943H14.988H7.69724L5.98251 5.54009L4.25507 3.82076H14.988H25.721L23.9935 5.54009ZM7.11296 27V46.4222L5.46174 48.0778L3.81051 49.7335V27V4.26651L5.46174 5.92217L7.11296 7.57783V27ZM26.1655 27.0255V49.7335L24.5143 48.0778L22.8631 46.4222V27V7.57783L24.4762 5.96038C25.3653 5.05613 26.1147 4.33019 26.1274 4.33019C26.1528 4.33019 26.1655 14.5443 26.1655 27.0255ZM22.101 27V46.1038H14.988H7.87506V27V7.89622H14.988H22.101V27ZM23.9935 48.4599L25.721 50.1792H14.988H4.25507L5.98251 48.4599L7.69724 46.7406H14.988H22.2788L23.9935 48.4599ZM27.5627 52.0259L28.7694 53.2358H14.988H1.20666L2.41332 52.0259L3.61999 50.816H14.988H26.356L27.5627 52.0259Z" fill="currentColor"/>
</svg>
