<svg width="35" height="35" viewBox="0 0 35 35" fill="none" xmlns="http://www.w3.org/2000/svg">
<path d="M0.556641 0.555908V34.6597H34.6605V0.555908H0.556641ZM29.1965 10.2003L25.566 9.61353L24.9793 5.98306L32.9735 2.24284L29.1965 10.2003ZM6.02059 25.0153L9.65106 25.6021L10.2378 29.2326L2.24362 32.9728L6.02059 25.0153ZM28.7198 23.9885L25.7861 24.4653L26.5928 19.4412L28.7198 23.9885ZM25.7495 17.6812L24.6128 24.6119L17.6454 25.7487L17.6085 25.7121L17.5351 25.7487L10.6043 24.6119L9.4676 17.6445L9.50418 17.5711L9.4676 17.4977L10.6043 10.5302L17.5351 9.39349L17.6085 9.43006L17.6819 9.39349L24.6494 10.5302L25.7861 17.461L25.7129 17.6076L25.7495 17.6812ZM6.49737 11.227L9.4311 10.7502L8.62434 15.7743L6.49737 11.227ZM19.4422 8.62348L23.9526 6.49657L24.4294 9.4303L19.4422 8.62348ZM17.6086 8.2935L13.2816 6.23974H21.9726L17.6086 8.2935ZM15.7751 8.62348L10.7879 9.43023L11.2647 6.49651L15.7751 8.62348ZM9.61452 9.61365L5.98405 10.2004L2.24356 2.24289L10.2011 5.98337L9.61452 9.61365ZM8.29437 17.6079L6.24061 21.9349V13.2806L8.29437 17.6079ZM8.62435 19.4414L9.43111 24.4286L6.49738 23.9518L8.62435 19.4414ZM10.7513 25.7854L15.7751 26.5922L11.2646 28.7191L10.7513 25.7854ZM17.6087 26.9221L21.9357 28.9759H13.2814L17.6087 26.9221ZM19.4422 26.5921L24.4295 25.7854L23.9527 28.7191L19.4422 26.5921ZM25.6028 25.602L29.2333 25.0152L32.9737 32.9727L25.0162 29.1959L25.6028 25.602ZM26.9229 17.6077L28.9767 13.2807V21.9717L26.9229 17.6077ZM26.593 15.7742L25.7862 10.787L28.7199 11.2638L26.593 15.7742ZM24.2829 5.13968H10.9347L3.56391 1.65576H31.6537L24.2829 5.13968ZM5.14075 10.9335V24.2816L1.65683 31.6525V3.56264L5.14075 10.9335ZM10.9345 30.0756H24.2827L31.6535 33.5593L3.56371 33.5595L10.9345 30.0756ZM30.0767 24.2818V10.9337L33.5603 3.56284V31.6526L30.0767 24.2818Z" fill="currentColor"/>
</svg>
