<svg width="35" height="35" viewBox="0 0 35 35" fill="none" xmlns="http://www.w3.org/2000/svg">
<path d="M15.3327 0.580796L13.279 1.14405L11.2946 3.14577L9.31021 5.14749L8.07104 8.1804L6.83188 11.2133L6.41594 14.3589L6 17.5044L6.41594 20.6413L6.83188 23.7782L8.10571 26.8631L9.37953 29.948L11.3466 31.9064L13.3136 33.8735L15.4107 34.4367C16.5719 34.7487 17.5944 35 17.6984 35C17.8024 35 18.8249 34.74 19.986 34.4281L22.0918 33.8475L24.0761 31.8458L26.0692 29.8441L27.3084 26.8111L28.5475 23.7782L28.9635 20.6587L29.3794 17.5391L28.9895 14.4629L28.5908 11.3866L27.3257 8.26706L26.0692 5.14749L24.0848 3.15444L22.1091 1.15272L19.9167 0.57213C18.7209 0.251508 17.655 -0.00845529 17.5597 0.000210168C17.4644 0.00887563 16.4592 0.268839 15.3327 0.580796ZM16.9965 0.736774C16.9965 0.762771 16.4159 1.64665 15.6966 2.69517C14.5875 4.34161 14.3968 4.57557 14.3535 4.3936C14.1802 3.70036 13.7209 1.59465 13.7469 1.56866C13.7816 1.534 16.7538 0.702112 16.8925 0.693447C16.9445 0.693447 16.9965 0.710778 16.9965 0.736774ZM20.662 5.19082C20.532 5.30347 17.759 6.92391 17.6897 6.92391C17.6204 6.92391 14.8474 5.30347 14.7175 5.19082C14.6568 5.13883 16.6672 2.07992 17.4904 0.962076L17.707 0.676116L19.2148 2.90314C20.0467 4.12497 20.6966 5.15616 20.662 5.19082ZM20.0554 1.10939C20.8959 1.33469 21.6065 1.54266 21.6238 1.55999C21.6758 1.62065 21.0346 4.49758 20.9652 4.49758C20.9046 4.49758 18.3829 0.823429 18.3829 0.728109C18.3829 0.658785 18.4176 0.667451 20.0554 1.10939ZM13.6083 3.4144C13.7643 4.12497 13.9116 4.78354 13.9289 4.86153C13.9722 5.00885 13.8422 5.01751 12.1091 5.01751C11.078 5.01751 10.2374 4.99151 10.2374 4.95685C10.2374 4.92219 10.9046 4.22029 11.7279 3.39707C12.6811 2.4352 13.2443 1.94127 13.279 2.0106C13.3136 2.06259 13.461 2.69517 13.6083 3.4144ZM25.142 4.94819C25.142 4.99151 24.3014 5.01751 23.2703 5.01751C21.5372 5.01751 21.4072 5.00885 21.4505 4.86153C21.4678 4.78354 21.5978 4.22895 21.7191 3.63104C21.8491 3.03312 21.9878 2.39188 22.0398 2.2099L22.1264 1.87195L23.6342 3.37974C24.4661 4.20296 25.142 4.91353 25.142 4.94819ZM13.3656 7.66914L12.7937 9.80951L12.0138 10.3034C11.5892 10.5721 10.9133 10.9967 10.5234 11.248L9.80414 11.6899V8.61368V5.53744H11.8665H13.9376L13.3656 7.66914ZM25.5753 8.61368V11.6899L24.908 11.2653C24.5354 11.04 23.8595 10.6154 23.4089 10.3294L22.5944 9.80951L22.0138 7.67781L21.4418 5.53744H23.5129H25.5753V8.61368ZM15.9393 6.51664L17.1784 7.24453L15.3327 8.32772C14.3188 8.91697 13.4783 9.39357 13.461 9.3849C13.4436 9.37624 13.6516 8.52702 13.9289 7.49583C14.3535 5.89272 14.4402 5.64142 14.5615 5.71075C14.6395 5.74541 15.2547 6.10936 15.9393 6.51664ZM21.4505 7.4785C21.7191 8.47503 21.9271 9.31558 21.9184 9.34158C21.9011 9.37624 21.0606 8.91697 20.0467 8.32772L18.1923 7.24453L19.5614 6.43865C20.3153 5.99671 20.9393 5.64142 20.9479 5.65009C20.9566 5.65876 21.1819 6.48197 21.4505 7.4785ZM9.25821 11.7419C9.24088 11.7592 8.81627 11.6379 8.31368 11.4646L7.39514 11.1613L7.87174 10.0175C8.1317 9.3849 8.54764 8.37971 8.79028 7.77313L9.24088 6.67261L9.26688 9.19426C9.27554 10.5807 9.27554 11.7332 9.25821 11.7419ZM27.1524 9.1336C27.577 10.1821 27.9496 11.066 27.9669 11.1007C27.9843 11.1267 27.6203 11.2826 27.161 11.4386C26.6931 11.5859 26.2598 11.7332 26.2078 11.7592C26.1212 11.7852 26.0952 11.2393 26.0952 9.21159C26.1039 6.81126 26.1125 6.64662 26.2338 6.92391C26.3032 7.08856 26.7191 8.08508 27.1524 9.1336ZM19.9601 8.86497L22.1697 10.1475L23.1403 13.8216L24.1195 17.4958L23.1403 21.1699L22.1697 24.8441L19.9254 26.1439L17.6897 27.4524L15.454 26.1526L13.2183 24.8441L12.2391 21.1699L11.2686 17.4871L12.2391 13.813L13.2183 10.1475L15.428 8.84764C16.6498 8.12841 17.6724 7.54783 17.6984 7.55649C17.733 7.56516 18.7469 8.15441 19.9601 8.86497ZM11.9185 13.0851C11.5632 14.4369 11.2079 15.7627 11.1386 16.0226L11 16.4992L10.4454 14.4629C10.1421 13.345 9.89946 12.3832 9.90812 12.3225C9.93412 12.2272 12.4991 10.5461 12.5511 10.5981C12.5598 10.6067 12.2825 11.7246 11.9185 13.0851ZM24.3448 11.5166C24.9687 11.9152 25.4886 12.2792 25.4886 12.3312C25.4886 12.3832 25.2373 13.345 24.934 14.4629L24.3881 16.4992L24.2495 16.0226C24.1801 15.7627 23.8335 14.4889 23.4956 13.2064C23.1576 11.9152 22.8543 10.7887 22.8283 10.6934C22.785 10.5374 22.7937 10.5374 22.9843 10.6587C23.0969 10.7367 23.7122 11.118 24.3448 11.5166ZM8.26168 11.9672C8.72962 12.1232 9.1109 12.2792 9.1109 12.3225C9.1109 12.4178 6.73656 16.2739 6.7019 16.2393C6.67591 16.2133 7.1785 12.2012 7.24783 11.8806C7.27382 11.7766 7.31715 11.6899 7.35181 11.6899C7.38647 11.6899 7.79375 11.8112 8.26168 11.9672ZM28.4089 13.8563C28.5562 15.0261 28.6862 16.0573 28.6862 16.144C28.6948 16.2393 28.1489 15.4247 27.473 14.3415C26.7451 13.163 26.2858 12.3312 26.3292 12.2878C26.4418 12.1752 27.8456 11.6986 28.0016 11.7159C28.0969 11.7332 28.1836 12.2098 28.4089 13.8563ZM10.1334 15.2168L10.7487 17.4871L10.1248 19.7921C9.78681 21.0573 9.47485 22.0798 9.44019 22.0711C9.31887 22.0278 6.58925 17.5651 6.61525 17.4524C6.66724 17.2271 9.41419 12.8338 9.46618 12.8944C9.50085 12.9204 9.80414 13.9689 10.1334 15.2168ZM28.7815 17.4958C28.7815 17.6777 25.9219 22.1925 25.8786 22.0798C25.8526 22.0105 25.5666 20.9533 25.2373 19.7315L24.6307 17.5044L25.2373 15.2687C25.5666 14.0383 25.8526 12.9811 25.8786 12.9117C25.9219 12.7991 28.7815 17.3138 28.7815 17.4958ZM11.8145 21.4992C12.2305 23.0763 12.5684 24.3761 12.5511 24.3935C12.5338 24.4108 10.0034 22.8337 9.90812 22.7384C9.88213 22.7124 10.1161 21.7592 10.4194 20.624C10.7227 19.4802 10.9913 18.5703 11.0086 18.5876C11.0346 18.6136 11.3986 19.9221 11.8145 21.4992ZM25.4713 22.6691C25.4453 22.773 22.8803 24.4455 22.8283 24.3935C22.811 24.3761 24.1888 19.1249 24.3361 18.6656C24.3881 18.4923 25.5146 22.4611 25.4713 22.6691ZM9.0849 22.6084C9.1109 22.7124 8.90293 22.8164 8.24435 23.033C7.75909 23.189 7.33448 23.2843 7.29982 23.241C7.23916 23.1803 7.10051 22.1578 6.71057 19.0556C6.66724 18.7003 6.76256 18.8216 7.85441 20.572C8.51298 21.6205 9.06757 22.5391 9.0849 22.6084ZM28.4262 20.9533C28.2702 22.1491 28.1142 23.1716 28.0796 23.2236C28.0016 23.3536 26.2512 22.7817 26.2858 22.6344C26.3205 22.4957 28.6428 18.7263 28.6775 18.7523C28.6948 18.7696 28.5822 19.7575 28.4262 20.9533ZM9.28421 25.7886C9.27554 28.1803 9.26688 28.3449 9.14556 28.0676C9.07624 27.903 8.6603 26.9065 8.22702 25.8579C7.80242 24.8094 7.4298 23.9255 7.41247 23.8909C7.38647 23.8476 8.99825 23.241 9.22355 23.2236C9.25821 23.215 9.28421 24.3761 9.28421 25.7886ZM27.161 23.5529C27.6203 23.7089 27.9843 23.8649 27.9669 23.8909C27.9496 23.9255 27.577 24.8094 27.1524 25.8579C26.7191 26.9065 26.3032 27.903 26.2338 28.0676C26.1125 28.3449 26.1039 28.1803 26.0952 25.78C26.0952 23.7522 26.1212 23.2063 26.2078 23.2323C26.2598 23.2583 26.6931 23.4056 27.161 23.5529ZM12.0138 24.6881L12.7937 25.182L13.3656 27.3224L13.9376 29.4541H11.8752H9.80414V26.3779V23.3016L10.5234 23.7436C10.9133 23.9949 11.5806 24.4195 12.0138 24.6881ZM25.5753 26.3779V29.4541H23.5129H21.4418L22.0224 27.3137L22.5944 25.182L24.0588 24.2462C24.8734 23.7349 25.5406 23.3103 25.5579 23.3103C25.5666 23.3016 25.5753 24.6881 25.5753 26.3779ZM17.1005 27.7123C17.1351 27.7383 16.5545 28.111 15.818 28.5356C15.0814 28.9602 14.4662 29.2895 14.4402 29.2635C14.3968 29.2288 13.4436 25.7366 13.4436 25.624C13.4436 25.572 16.9445 27.5737 17.1005 27.7123ZM21.4678 27.4524C21.2079 28.4229 20.9739 29.2375 20.9479 29.2635C20.9219 29.2808 20.298 28.9602 19.5614 28.5356C18.8249 28.111 18.2443 27.747 18.2703 27.721C18.4003 27.591 21.8925 25.598 21.9184 25.6413C21.9271 25.676 21.7278 26.4905 21.4678 27.4524ZM19.1715 28.8995C19.9514 29.3501 20.6186 29.7574 20.6533 29.7921C20.6966 29.8267 20.0467 30.8579 19.2148 32.0797L17.707 34.3068L17.4124 33.8995C16.7972 33.0416 14.7521 29.9914 14.7261 29.8874C14.7001 29.7921 17.4471 28.0936 17.655 28.0763C17.7157 28.0676 18.3916 28.4402 19.1715 28.8995ZM13.9636 30C13.9636 30.104 13.3396 32.825 13.2877 32.9463C13.2357 33.0849 12.967 32.851 11.7192 31.5425L10.2201 29.974H12.0918C13.123 29.974 13.9636 29.9827 13.9636 30ZM25.142 30.0434C25.142 30.078 24.4661 30.7799 23.6342 31.6118C22.4124 32.825 22.1178 33.0849 22.0831 32.955C22.0484 32.8596 21.9098 32.2271 21.7625 31.5338C21.6152 30.8406 21.4765 30.208 21.4505 30.1213C21.4072 29.9827 21.5372 29.974 23.2703 29.974C24.3014 29.974 25.142 30 25.142 30.0434ZM17.0311 34.2981C17.0051 34.3328 13.9636 33.5355 13.8249 33.4489C13.7383 33.4056 14.0069 31.9671 14.3448 30.6326C14.3968 30.4073 14.4835 30.5113 15.7313 32.3224C16.4592 33.3882 17.0398 34.2808 17.0311 34.2981ZM21.3552 32.0104C21.5198 32.773 21.6412 33.4142 21.6238 33.4316C21.5632 33.4922 18.4436 34.3068 18.4089 34.2721C18.3829 34.2548 18.9375 33.3882 19.6394 32.357C20.3413 31.3258 20.9479 30.5113 20.9826 30.5546C21.0172 30.5893 21.1819 31.2479 21.3552 32.0104Z" fill="currentColor"/>
</svg>
