<svg width="35" height="35" viewBox="0 0 35 35" fill="none" xmlns="http://www.w3.org/2000/svg">
<path d="M13.2424 4.41508L9 8.83016V17.5863V26.3178L13.5137 30.6589L18.0521 35L22.3932 30.6342L26.759 26.2685V17.5123V8.75617L22.3932 4.39042C19.976 1.97322 17.8795 0 17.7315 0C17.5835 0 15.561 1.99789 13.2424 4.41508ZM26.019 8.90416C26.019 9.00282 25.5257 9.20014 24.9091 9.3728C23.6018 9.74278 23.9471 9.96476 20.1734 6.28964L18.1261 4.31642L17.9782 2.46653L17.8302 0.616631L21.9246 4.6864C24.1691 6.93094 26.019 8.83016 26.019 8.90416ZM17.3615 4.21776C17.2629 4.43975 15.9556 5.74701 14.4757 7.12826L11.7625 9.61945L10.7512 9.20014L9.73996 8.75617L13.5137 4.83439L17.2629 0.887951L17.4109 2.36787C17.4848 3.15715 17.4602 3.99577 17.3615 4.21776ZM15.9803 9.02748C14.3277 10.5321 14.303 10.5321 13.4397 10.2361C12.9711 10.0634 12.5765 9.84144 12.5765 9.71811C12.5765 9.59478 13.6864 8.46018 15.043 7.17759L17.5095 4.85906L17.5835 6.16632L17.6575 7.49824L15.9803 9.02748ZM20.8393 7.5229C22.1219 8.8055 23.0839 9.91543 23.0099 10.0141C22.9112 10.0881 22.4179 10.2114 21.8999 10.2854C20.9626 10.4087 20.864 10.3594 19.5321 8.85483C18.2988 7.44891 18.1261 7.15292 18.1261 6.21564C18.1261 5.64834 18.2001 5.1797 18.3235 5.1797C18.4221 5.1797 19.5567 6.24031 20.8393 7.5229ZM19.5567 9.47146L21.086 11.05V17.4877V23.9253L19.7787 25.4545C19.0881 26.2932 18.3728 27.0085 18.2248 27.0578C18.0768 27.1071 17.2135 26.4412 16.3256 25.6025L14.673 24.0486V17.5123V11.0007L16.2023 9.44679C17.0409 8.58351 17.8055 7.89288 17.9042 7.89288C17.9782 7.89288 18.7428 8.60817 19.5567 9.47146ZM10.7266 9.74278L11.4665 10.1374V17.5863V25.0599L10.6526 25.3559C10.2086 25.5285 9.76462 25.6519 9.66596 25.6519C9.5673 25.6519 9.49331 21.9767 9.49331 17.5123C9.49331 11.9873 9.5673 9.3728 9.73996 9.3728C9.88795 9.3728 10.3319 9.54545 10.7266 9.74278ZM26.2657 17.7343V25.8739L25.3531 25.5532L24.4158 25.2326L24.2678 22.0507C24.1691 20.2995 24.0951 16.9204 24.0705 14.5278L24.0458 10.1868L24.8598 9.91543C25.2791 9.79211 25.797 9.66878 25.9697 9.64412C26.1917 9.61945 26.2657 11.3953 26.2657 17.7343ZM13.4644 10.7787C13.9577 10.9267 14.1797 13.7139 14.1797 19.7815V23.9253L13.2918 24.2953C12.7984 24.4926 12.3051 24.6653 12.1818 24.6653C11.9105 24.6653 11.8858 10.7787 12.1325 10.5074C12.2311 10.4334 12.4778 10.4087 12.6751 10.5074C12.8971 10.5814 13.2424 10.7047 13.4644 10.7787ZM23.6512 17.8083C23.7252 21.7301 23.7498 24.9119 23.6758 24.9119C23.6265 24.9119 23.1085 24.7393 22.5659 24.5173L21.5793 24.1226V17.537V10.9514L22.3932 10.7047C22.8125 10.5814 23.2565 10.5321 23.3305 10.6061C23.4292 10.6801 23.5525 13.9112 23.6512 17.8083ZM16.1283 26.0712L17.9288 27.7484L17.8302 29.0557L17.7562 30.3383L15.1663 27.9951C13.7357 26.7125 12.5518 25.5532 12.5025 25.4545C12.4531 25.2819 13.7851 24.4926 14.2044 24.4433C14.2784 24.4186 15.1416 25.1586 16.1283 26.0712ZM22.4919 25.0352L23.4045 25.4299L21.086 27.7484C19.8034 29.031 18.6688 30.0916 18.5701 30.0916C18.4468 30.0916 18.3728 29.549 18.3728 28.9077C18.3728 27.7977 18.4715 27.6004 19.7541 26.1945C20.5187 25.3559 21.234 24.6653 21.3573 24.6653C21.4806 24.6653 21.9986 24.8379 22.4919 25.0352ZM14.9443 28.3897L17.8795 31.1522V32.4595C17.8795 33.1994 17.7808 33.7914 17.6575 33.7914C17.3615 33.7914 9.98661 26.6385 9.98661 26.3672C9.98661 26.0958 10.8992 25.7012 11.5652 25.6765C11.8118 25.6519 13.3164 26.8605 14.9443 28.3897ZM24.9584 25.9479C25.3284 26.1205 25.6984 26.2685 25.7477 26.3178C25.8464 26.3918 18.8908 33.6187 18.5701 33.7421C18.4715 33.7914 18.3728 33.1748 18.3728 32.3608V30.8809L21.16 28.2664C22.6646 26.8358 23.9965 25.6519 24.0951 25.6519C24.1938 25.6519 24.5884 25.7752 24.9584 25.9479Z" fill="currentColor"/>
</svg>
