<svg width="42" height="42" viewBox="0 0 42 42" fill="none" xmlns="http://www.w3.org/2000/svg">
<path d="M7.77202 0.839279L5.19171 1.63203L3.31088 3.41959C2.12953 4.52322 1.35233 5.37814 1.27461 5.67347C1.18135 5.92218 0.870466 7.41441 0.559585 8.95327L0 11.7823L0.310881 14.7357C0.590674 17.5025 0.668394 17.8911 1.56995 20.7823C2.44041 23.5491 2.68912 24.1398 4.08808 26.7357C5.45596 29.2849 5.87565 29.9222 7.70984 32.1294C9.51295 34.3056 10.1192 34.8963 12.3109 36.6994C14.5803 38.5647 15.171 38.9377 17.8601 40.3833C19.5233 41.2693 20.9689 41.9688 21.0622 41.9377C21.1554 41.9066 22.5389 41.2072 24.1088 40.3833C26.7047 39.0154 27.2487 38.6424 29.6269 36.7149C31.9741 34.803 32.5026 34.2745 34.3212 32.0673C36.1244 29.8755 36.5751 29.2072 37.943 26.689C39.3575 24.0776 39.5751 23.5336 40.4456 20.7357C41.3161 17.8755 41.4093 17.4248 41.6891 14.7046L42 11.7823L41.3627 8.65793C41.0207 6.94809 40.6477 5.39368 40.5233 5.20715C40.399 5.02063 39.513 4.13462 38.5648 3.2486L36.8394 1.63203L34.1658 0.808189L31.4922 -9.91821e-05L28.9275 0.31078C26.8912 0.559486 25.8031 0.792645 23.6891 1.42995L21.0155 2.2227L18.3264 1.42995C16.2591 0.808189 15.0622 0.543941 13.1503 0.31078C11.7824 0.139797 10.601 -9.91821e-05 10.5078 0.0154457C10.4301 0.0309868 9.18653 0.388504 7.77202 0.839279ZM15.5285 3.26415C17.9378 4.39886 19.8653 5.39368 19.8031 5.45586C19.7254 5.53358 18.6684 6.15534 17.4249 6.85482L15.171 8.12943L12.6062 7.94291C8.58031 7.64757 8.09844 7.58539 8.09844 7.39886C8.09844 7.21234 10.5389 1.66311 10.7876 1.27451C10.8653 1.1657 10.9585 1.10353 11.0207 1.13462C11.0829 1.1657 13.1036 2.11389 15.5285 3.26415ZM31.2124 1.27451C31.4145 1.5543 33.9016 7.21234 33.9016 7.41441C33.9016 7.58539 33.2953 7.66311 29.3938 7.92736L26.829 8.11389L24.6062 6.87037C23.3782 6.18643 22.3057 5.56467 22.228 5.48695C22.1347 5.39368 23.7513 4.53876 26.4715 3.23306C28.8964 2.06726 30.9171 1.10353 30.9637 1.10353C31.0259 1.08799 31.1347 1.18125 31.2124 1.27451ZM9.65285 1.38332C9.65285 1.50767 7.50777 6.51286 7.39896 6.65275C7.38342 6.6683 7.02591 5.7512 6.62176 4.58539C6.21762 3.43513 5.92228 2.42477 5.98446 2.37814C6.09326 2.25378 9.12435 1.29005 9.46632 1.25896C9.55959 1.24342 9.65285 1.3056 9.65285 1.38332ZM34.2435 1.75638C35.1606 2.03617 35.9534 2.31596 36.0155 2.37814C36.0777 2.42477 35.7824 3.41959 35.3782 4.58539L34.6321 6.69938L34.3368 6.03099C33.4352 4.07244 32.3471 1.50767 32.3471 1.38332C32.3471 1.18125 32.3938 1.19679 34.2435 1.75638ZM6.01554 5.48695C6.2487 6.21752 6.40414 6.88591 6.34197 6.93254C6.21762 7.0569 2.84456 5.76674 2.70466 5.54912C2.65803 5.47141 3.17098 4.84964 3.83938 4.18125L5.06736 2.95327L5.31606 3.54394C5.45596 3.87037 5.76684 4.74083 6.01554 5.48695ZM39.2642 5.58021C39.0622 5.76674 35.9845 6.99472 35.6891 6.99472C35.5181 6.99472 35.6114 6.59058 36.0777 5.23824C36.4041 4.29006 36.7306 3.37296 36.7927 3.21752C36.886 2.96881 37.0881 3.10871 38.1606 4.18125C38.9534 4.974 39.3575 5.48695 39.2642 5.58021ZM22.9585 6.94809C24.715 7.94291 24.7772 8.00508 24.342 8.09835C23.7358 8.23824 18.2642 8.23824 17.658 8.09835C17.2073 8.00508 17.285 7.94291 18.9793 6.96363C19.9585 6.40405 20.8446 5.92218 20.9378 5.92218C21.0311 5.90664 21.9482 6.37296 22.9585 6.94809ZM4.29016 7.21233C5.2228 7.58539 6 7.95845 6.03109 8.02063C6.06218 8.16052 1.24352 10.9118 1.15026 10.8186C1.10363 10.7719 1.8342 6.94809 1.97409 6.55949C2.05181 6.31078 2.0829 6.32632 4.29016 7.21233ZM40.4611 8.62684C40.6943 9.80819 40.8808 10.803 40.8497 10.8186C40.7565 10.9118 35.9378 8.14498 35.9689 8.02063C36.0155 7.86519 39.6684 6.37296 39.886 6.43513C39.9637 6.45068 40.228 7.4455 40.4611 8.62684ZM11.487 8.73565C12.8705 8.82892 14.0052 8.95327 14.0052 9.01545C14.0052 9.06208 13.0415 10.0569 11.8601 11.2382L9.69948 13.3833L8.90674 11.145C8.45596 9.90145 8.09844 8.81337 8.09844 8.72011C8.09844 8.50249 8.40933 8.50249 11.487 8.73565ZM33.9016 8.68902C33.9016 8.76674 33.544 9.87037 33.1088 11.1139L32.3005 13.3989L30.1554 11.2538C28.9585 10.0724 27.9948 9.04653 27.9948 8.9999C27.9948 8.89109 31.228 8.6113 32.9378 8.58021C33.4663 8.56467 33.9016 8.6113 33.9016 8.68902ZM8.0829 11.4559L9.04663 14.2072L8.23834 15.9636C7.78756 16.9274 7.35233 17.7201 7.25907 17.7201C7.04145 17.7201 1.41451 12.0932 1.41451 11.8911C1.41451 11.7357 6.63731 8.73565 6.94819 8.72011C7.04145 8.70457 7.53886 9.94809 8.0829 11.4559ZM37.8653 10.2123C39.3575 11.0517 40.5855 11.8134 40.5855 11.9066C40.5855 12.1087 34.943 17.7201 34.7254 17.7201C34.6477 17.7201 34.2124 16.9274 33.7617 15.9636L32.9534 14.2072L33.9171 11.4559C34.4456 9.94809 34.9275 8.70456 35.0052 8.70456C35.0829 8.70456 36.3731 9.3885 37.8653 10.2123ZM29.2694 11.6113C30.6995 13.0414 31.8808 14.2693 31.8808 14.347C31.8808 14.4248 31.0259 16.5232 30 19.0258L28.1036 23.5491L24.6684 26.9999C22.7876 28.9118 21.1244 30.4662 21 30.4662C20.8756 30.4662 19.2124 28.9118 17.3316 26.9999L13.8964 23.5491L12 19.0414C10.9741 16.5543 10.1192 14.4559 10.1192 14.3626C10.1192 14.2849 11.3005 13.0414 12.7306 11.6113L15.342 9.01545H21H26.658L29.2694 11.6113ZM5.79793 17.8445C5.65803 17.8911 1.58549 17.1761 1.50777 17.0828C1.41451 17.0051 1.10363 14.145 1.10363 13.4921C1.10363 12.9947 1.18135 13.0569 3.51295 15.3885C4.8342 16.7097 5.87565 17.8134 5.79793 17.8445ZM40.7409 15.2952C40.6477 16.2434 40.5389 17.0362 40.5078 17.0673C40.4456 17.1294 36.4508 17.8755 36.1554 17.8755C36.0777 17.8755 37.0881 16.7875 38.4093 15.4662C40.1036 13.7564 40.8342 13.1191 40.8808 13.3056C40.8964 13.461 40.8497 14.3471 40.7409 15.2952ZM10.7409 18.2641C11.9845 21.202 12.3109 22.0724 12.2021 22.0724C12.0933 22.0724 8.09844 18.6217 8.09844 18.5129C8.0829 18.2486 9.43523 15.4196 9.5285 15.5129C9.59067 15.575 10.1347 16.803 10.7409 18.2641ZM33.2642 16.9429C33.6062 17.7201 33.9016 18.404 33.9016 18.4818C33.9016 18.6061 29.9534 22.0724 29.7979 22.0724C29.6891 22.0724 29.9845 21.3108 31.3368 18.0621C31.9119 16.6787 32.4404 15.5439 32.5026 15.5439C32.5648 15.5439 32.9067 16.1812 33.2642 16.9429ZM6.26425 18.9325C6.48187 19.0258 6.23316 19.3522 4.94301 20.7512C4.08808 21.6838 3.29534 22.4766 3.20207 22.5077C3.01554 22.5543 1.67876 18.404 1.80311 18.1864C1.86528 18.0776 5.79793 18.7149 6.26425 18.9325ZM39.6218 20.4248C39.2487 21.6061 38.9067 22.5698 38.8601 22.5854C38.7357 22.632 35.4715 19.0569 35.5492 18.9636C35.6891 18.8237 40.0415 18.0776 40.1658 18.1864C40.228 18.2486 39.9793 19.2434 39.6218 20.4248ZM10.7876 22.0724L13.228 24.1709L14.3471 27.5439C14.9689 29.3937 15.4352 30.9481 15.4041 30.9947C15.3264 31.0724 6.69948 29.1294 6.59067 29.0051C6.5285 28.9429 7.47668 21.575 7.74093 20.0983C7.8342 19.4766 7.61658 19.3367 10.7876 22.0724ZM34.8497 24.3108C35.2073 26.8445 35.456 28.9584 35.4249 29.0051C35.3005 29.1294 26.6736 31.0724 26.5959 30.9947C26.5648 30.9481 27.0311 29.3937 27.6528 27.5439L28.7876 24.1709L31.4456 21.8704C32.9067 20.6113 34.1347 19.6009 34.1658 19.632C34.1969 19.6631 34.5078 21.7771 34.8497 24.3108ZM6.31088 23.9688C5.81347 27.7616 5.81347 27.7771 5.54922 27.4973C5.44041 27.373 4.91192 26.4714 4.39896 25.4921L3.45078 23.7046L5.03627 21.9481C6.43523 20.3937 6.62176 20.2382 6.66839 20.5802C6.69948 20.7823 6.54404 22.3056 6.31088 23.9688ZM37.1503 22.1502L38.5492 23.689L37.601 25.4921C36.4663 27.6372 36.2798 27.8704 36.171 27.3419C36.0155 26.6579 35.3005 21.1243 35.3005 20.6268C35.3005 20.0673 35.114 19.9118 37.1503 22.1502ZM26.3627 28.6009L25.4767 31.2745L24.7461 31.1812C24.3575 31.1346 23.6269 31.0569 23.1451 31.0103C22.6477 30.9481 22.2435 30.8704 22.2435 30.8082C22.2435 30.6528 27.1088 25.803 27.1865 25.8807C27.2176 25.9118 26.8446 27.1398 26.3627 28.6009ZM17.3782 28.3211C18.6839 29.6268 19.7565 30.746 19.7565 30.8082C19.7565 30.8548 19.3523 30.9481 18.8705 31.0103C18.3731 31.0569 17.6425 31.1346 17.2539 31.1812L16.5233 31.2745L15.715 28.803C15.2642 27.4507 14.8601 26.2538 14.8135 26.145C14.6425 25.6631 15.171 26.1139 17.3782 28.3211ZM11.1762 31.0103C13.8653 31.6165 14.4404 31.803 14.285 31.9584C14.0829 32.1605 10.5699 33.7305 10.3212 33.7305C10.1969 33.7305 7.70984 30.8393 7.41451 30.3419C7.3057 30.1553 7.35233 30.1243 7.56995 30.1864C7.74093 30.2331 9.35751 30.5906 11.1762 31.0103ZM34.5699 30.3574C34.2746 30.8548 31.8031 33.7305 31.6788 33.7305C31.4145 33.7305 27.5285 31.9895 27.5285 31.8652C27.5285 31.7719 33.9326 30.2175 34.4922 30.1709C34.6166 30.1553 34.6477 30.2331 34.5699 30.3574ZM20.5026 35.4869C20.5181 37.5077 20.487 39.1709 20.4249 39.1553C20.2228 39.1398 16.9275 32.3004 17.0674 32.1605C17.1917 32.0517 19.9741 31.7253 20.3005 31.7875C20.3938 31.803 20.4715 33.202 20.5026 35.4869ZM23.5181 31.9429C24.2798 32.0051 24.9171 32.1139 24.9637 32.1761C25.0725 32.3471 21.6839 39.1709 21.5596 39.0465C21.4352 38.9222 21.4508 31.9429 21.5751 31.8186C21.6373 31.7564 21.7927 31.7408 21.9171 31.7719C22.057 31.803 22.772 31.8807 23.5181 31.9429ZM15.2487 35.0051C15.0622 36.2331 14.8601 37.2901 14.7979 37.3522C14.6425 37.5077 11.1762 34.6942 11.2383 34.4766C11.3161 34.2434 15.4663 32.4714 15.5285 32.6424C15.5596 32.7201 15.4352 33.7926 15.2487 35.0051ZM28.8497 33.5129C29.8756 33.9636 30.7306 34.3989 30.7617 34.4766C30.8083 34.632 27.4508 37.461 27.2332 37.461C27.1243 37.461 26.4404 33.373 26.4404 32.7667C26.4404 32.4559 26.3316 32.4092 28.8497 33.5129ZM26.1606 37.4455L26.2073 38.2693L24.1865 39.3419C23.0829 39.917 22.1503 40.3833 22.1347 40.3522C22.1036 40.3211 22.8653 38.7046 23.829 36.746L25.5699 33.1864L25.8497 34.8963C26.0052 35.8289 26.1451 36.9792 26.1606 37.4455ZM18.2021 36.7771C19.1036 38.6268 19.8653 40.1968 19.8964 40.2901C19.9275 40.3833 19.0104 39.9636 17.8756 39.373L15.7927 38.2693L15.8083 37.6631C15.8238 36.8082 16.3523 33.4196 16.4767 33.4351C16.5233 33.4351 17.3005 34.9429 18.2021 36.7771Z" fill="currentColor"/>
</svg>
