<svg width="30" height="56" viewBox="0 0 30 56" fill="none" xmlns="http://www.w3.org/2000/svg">
<path d="M10.0987 1.06205L8.47979 1.07333L6.7424 2.83892C4.57067 5.03322 2.04356 7.60545 1.45127 8.22595L1 8.69414V28.0423V47.3961L1.33845 47.712C1.5246 47.8869 1.94202 48.2817 2.26919 48.5976C2.59636 48.9079 3.41993 49.6976 4.10248 50.3463C7.52084 53.6067 8.86901 54.9041 8.86901 54.9492C8.86901 54.9774 11.6556 55 15.277 55H21.6907L22.5707 54.1369C23.0558 53.6631 23.8173 52.9185 24.2686 52.4842C26.4798 50.3463 28.2341 48.6484 28.8095 48.0899L29.4525 47.4694L29.4694 41.0107C29.4807 37.4569 29.4638 28.7587 29.4356 21.6794L29.3848 8.80696L28.7587 8.23159C27.8449 7.38546 24.9455 4.67785 24.3532 4.11376C23.9527 3.73582 22.3563 2.24099 22.0348 1.94767C21.9953 1.91946 21.764 1.69383 21.5102 1.44563L21.0533 1L16.3883 1.02256C13.816 1.03385 10.99 1.05077 10.0987 1.06205ZM20.7712 1.53588C20.7487 1.63742 20.6866 1.86305 20.6415 2.03228C20.5964 2.2015 20.4892 2.59637 20.4046 2.90661C20.32 3.21686 20.2015 3.66249 20.1395 3.89376C20.0774 4.12504 20.0097 4.37324 19.9928 4.44657C19.9815 4.5199 19.9307 4.59323 19.8913 4.61015C19.8461 4.62708 18.7292 4.61015 17.4036 4.57067C16.0724 4.53682 13.8837 4.48606 12.5299 4.46349C11.1818 4.44093 10.0479 4.40144 10.0085 4.37888C9.96898 4.35632 9.94077 4.31683 9.94077 4.28299C9.94077 4.25478 9.88436 4.10812 9.82231 3.96146C9.59104 3.44814 9.54591 3.34096 9.54591 3.30711C9.54591 3.29019 9.48386 3.14353 9.41053 2.97995C9.17361 2.46663 8.75619 1.45691 8.75619 1.40614C8.75619 1.37794 11.3623 1.35538 14.7863 1.35538H20.8164L20.7712 1.53588ZM21.4876 1.86305C21.6681 2.03228 22.2097 2.53996 22.6891 2.99123C23.1686 3.43686 23.947 4.16453 24.4096 4.59887C25.8649 5.9696 27.1454 7.16547 28.0592 8.00595C28.8772 8.75619 29.0069 8.91413 28.8151 8.91413C28.7756 8.91413 28.6684 8.94798 28.5782 8.99311C28.4879 9.03259 27.8731 9.29207 27.2131 9.56847C26.0906 10.031 26.0003 10.0592 25.8762 9.98026C25.8029 9.93513 24.9737 9.15105 24.0317 8.23723C23.0896 7.31777 21.8712 6.13883 21.3184 5.61423L20.3143 4.65528L20.3425 4.42965C20.3594 4.30555 20.4384 3.96146 20.5174 3.66813C20.7882 2.6979 20.9969 1.8969 21.0364 1.70511C21.0533 1.60357 21.0871 1.53024 21.1153 1.53588C21.1379 1.54716 21.3071 1.69383 21.4876 1.86305ZM9.089 3.05328L9.69821 4.49734L6.92855 7.30649L4.15324 10.1213L3.65121 9.84488C3.36916 9.69822 3.12097 9.55719 3.08712 9.53463C3.03635 9.49514 2.77123 9.35412 1.80664 8.83516L1.48511 8.66594L1.72203 8.40646C1.84613 8.26543 3.3466 6.73676 5.05014 5.01065C6.75368 3.27891 8.19774 1.801 8.25979 1.72203C8.32184 1.64306 8.40081 1.58665 8.42902 1.59229C8.46286 1.60357 8.75619 2.26355 9.089 3.05328ZM16.9354 4.87527L19.3328 4.93732L18.8251 5.21373C18.2498 5.52961 18.2667 5.51833 16.2755 6.59574L14.8032 7.3911L13.8386 6.78189C12.7556 6.10498 12.7443 6.09934 11.5766 5.36603C11.1084 5.0727 10.7079 4.80758 10.691 4.77938C10.6572 4.72297 12.1746 4.74554 16.9354 4.87527ZM10.9505 5.33218C11.3905 5.60859 12.1351 6.08806 12.6089 6.38703C13.0827 6.68599 13.675 7.06393 13.9345 7.22187C14.194 7.38546 14.3971 7.52648 14.3858 7.53776C14.3745 7.5434 13.3873 7.81981 12.1971 8.14698C11.0013 8.47415 9.90693 8.77876 9.76026 8.82388C9.6136 8.86337 9.48386 8.89157 9.47258 8.88029C9.4613 8.86337 9.47258 8.73363 9.49514 8.58696C9.55155 8.25979 9.68693 7.34033 9.77154 6.7424C9.80539 6.4942 9.86744 6.05986 9.91257 5.78345C9.95769 5.50141 10.0085 5.1686 10.031 5.03322C10.0479 4.89784 10.0818 4.7963 10.1044 4.80758C10.1269 4.81887 10.5105 5.05014 10.9505 5.33218ZM9.63616 5.60295C9.59104 5.88499 9.51206 6.38703 9.4613 6.7142C9.34284 7.50956 9.27515 7.95519 9.19054 8.49107L9.12285 8.94234L8.61517 9.06644C7.65058 9.30899 5.11783 9.91821 4.9204 9.9577C4.80758 9.98026 4.74553 9.98026 4.77374 9.95205C4.7963 9.92385 5.91319 8.79004 7.25008 7.43059C8.5926 6.07114 9.69257 4.98809 9.70385 5.02194C9.71514 5.05578 9.68693 5.31526 9.63616 5.60295ZM20.1959 6.27985C20.3312 6.96804 20.4779 7.69571 20.523 7.89878C20.7317 8.88029 20.7712 9.08336 20.7712 9.16233C20.7712 9.25823 20.7656 9.25823 19.4456 8.85209C19.0451 8.72234 18.3851 8.51927 17.979 8.40081C17.5785 8.27672 17.1442 8.14133 17.0201 8.10185C16.896 8.05672 16.4447 7.9157 16.016 7.78032C15.5929 7.65058 15.2601 7.52084 15.2827 7.49828C15.3109 7.48135 15.4688 7.38546 15.638 7.2952C15.9878 7.10342 18.6954 5.63679 19.3892 5.2645C19.6374 5.13475 19.8687 5.02194 19.8969 5.02194C19.9307 5.02194 20.0661 5.58603 20.1959 6.27985ZM20.9574 5.68192C21.2733 5.98088 21.9671 6.64651 22.4917 7.16547C23.0219 7.67878 23.8173 8.45158 24.2686 8.88593C24.7142 9.32028 25.1429 9.74898 25.2219 9.8336L25.3573 9.99154L25.1373 9.9577C25.0188 9.94077 24.765 9.90129 24.5788 9.87308C23.7214 9.7377 21.1435 9.30335 21.1322 9.29207C21.1097 9.26951 20.9405 8.47415 20.884 8.12441C20.8558 7.95519 20.7543 7.44751 20.6584 6.99624C20.3651 5.60859 20.2861 5.13475 20.3482 5.13475C20.3707 5.13475 20.6471 5.38295 20.9574 5.68192ZM16.1514 8.15826C16.817 8.36697 17.5898 8.60389 17.8662 8.6885C19.0677 9.05516 20.7938 9.59668 20.8389 9.62488C20.8615 9.64181 20.884 9.77155 20.884 9.91821C20.884 10.0649 20.9179 10.5613 20.963 11.0295C21.0081 11.492 21.0758 12.2197 21.104 12.6371C21.1717 13.4945 21.2958 14.9837 21.4199 16.5011C21.4651 17.0595 21.5327 17.8323 21.561 18.2216C21.5948 18.6108 21.6568 19.3723 21.702 19.9138C21.7471 20.4553 21.8204 21.3804 21.8712 21.9727C21.9163 22.5594 21.984 23.3378 22.0122 23.6932C22.0404 24.0486 22.1025 24.8214 22.1532 25.4137C22.204 26.0003 22.2661 26.7675 22.2999 27.1172C22.3394 27.5516 22.3394 27.9521 22.2999 28.4146C22.2661 28.7813 22.204 29.5879 22.1532 30.2084C22.0461 31.6355 21.9784 32.476 21.8712 33.7903C21.7471 35.3811 21.5835 37.4231 21.4199 39.6004C21.3692 40.2379 21.2958 41.2024 21.2507 41.744C21.2056 42.2855 21.1435 43.1091 21.1097 43.5772C21.0702 44.0398 21.0081 44.8352 20.963 45.3316C20.9179 45.8336 20.884 46.3638 20.884 46.5161C20.884 47.052 20.9235 47.0182 19.7559 47.3623C19.0282 47.5766 18.4585 47.7458 18.2328 47.8192C18.0918 47.8643 17.7252 47.9715 17.4149 48.0617C17.1047 48.152 16.4955 48.3269 16.0667 48.4566C15.5196 48.6202 15.2263 48.6822 15.1078 48.6597C14.9499 48.6258 14.6565 48.5356 12.9586 48.0053C12.6822 47.9207 12.1463 47.7515 11.7741 47.6387C11.4018 47.5259 10.7813 47.3341 10.392 47.2156C10.0028 47.0915 9.50642 46.9392 9.28643 46.8772L8.88029 46.7587L8.84644 46.0423C8.82388 45.6474 8.77311 44.7167 8.72798 43.9721C8.68286 43.2275 8.61517 42.1727 8.58696 41.6312C8.51363 40.3281 8.38389 38.1112 8.27672 36.3287C8.17518 34.6703 8.11877 33.6324 7.99467 31.5058C7.9439 30.6653 7.86493 29.4864 7.82545 28.8772C7.75212 27.9013 7.75212 27.6531 7.82545 26.8464C7.93262 25.6619 8.05672 24.2122 8.13569 23.2419C8.16954 22.8245 8.23159 22.063 8.27672 21.5497C8.36697 20.5174 8.50235 18.9662 8.58696 17.8831C8.62081 17.4939 8.67158 16.9016 8.70542 16.5631C8.73363 16.2247 8.78439 15.638 8.8126 15.2657C8.8408 14.8878 8.90285 14.115 8.95362 13.5396C9.00439 12.9643 9.06644 12.214 9.09464 11.8756C9.18489 10.7249 9.26951 9.73206 9.29771 9.50079L9.32592 9.26951L12.0448 8.52491C13.5396 8.11313 14.7919 7.76904 14.8201 7.7634C14.854 7.75212 14.8934 7.75212 14.9104 7.7634C14.9329 7.77468 15.4914 7.95519 16.1514 8.15826ZM1.74459 9.14541C1.9251 9.24131 2.12253 9.35412 2.18458 9.39361C2.24663 9.42745 2.50047 9.56847 2.74867 9.70385C3.56095 10.1382 3.82043 10.2792 3.8994 10.3413C3.96145 10.392 3.96709 10.99 3.93889 13.8781C3.91633 15.7847 3.89376 19.5528 3.87684 22.2548C3.85428 26.7562 3.79223 33.1586 3.69069 42.325L3.65121 45.8674L3.36916 46.0254C3.21686 46.11 2.73175 46.3695 2.2974 46.5951C1.86305 46.8207 1.47947 47.0295 1.44563 47.0577C1.36102 47.1197 1.31589 41.4224 1.29897 30.2084C1.28768 22.7625 1.35537 8.97054 1.4005 8.97054C1.40614 8.97054 1.56409 9.04951 1.74459 9.14541ZM29.0859 10.2792C29.1366 11.994 29.1761 44.9423 29.131 46.1213L29.0915 47.1423L28.7192 46.9674C28.5161 46.8715 27.9126 46.5895 27.388 46.3469L26.4234 45.9013L26.3895 43.5829C26.3726 42.3081 26.3275 38.6866 26.2993 35.539C26.209 26.4572 26.1357 19.6149 26.068 14.8483C26.0285 12.3043 26.0229 10.409 26.0511 10.3808C26.0793 10.3526 26.508 10.1664 27.0044 9.96334C27.5008 9.7659 28.1495 9.49514 28.4428 9.37104C28.7361 9.24694 28.9956 9.13977 29.0125 9.13977C29.0351 9.13977 29.0633 9.65309 29.0859 10.2792ZM8.95926 9.79975C8.91977 10.2849 8.90285 10.5218 8.73363 12.4961C8.6885 13.0207 8.62081 13.7991 8.58696 14.2165C8.51363 15.1304 8.38953 16.6139 8.27672 17.8831C8.23159 18.3964 8.16954 19.1579 8.13569 19.5754C8.10185 19.9928 8.0398 20.7543 7.99467 21.2676C7.84801 22.9204 7.74647 24.1558 7.69007 24.8778C7.65622 25.267 7.61673 25.7803 7.59981 26.0172C7.57725 26.2598 7.5434 26.5249 7.5152 26.6095L7.47007 26.7675L7.46443 26.6039C7.45879 26.5193 7.42494 26.2993 7.37982 26.1244C7.34033 25.9495 7.27264 25.628 7.2388 25.4137C7.19931 25.1937 7.13726 24.8383 7.09213 24.6239C7.05265 24.4039 6.97368 23.9865 6.92291 23.6932C6.83265 23.1912 6.62394 22.0461 6.50548 21.4086C6.47164 21.2507 6.40959 20.8953 6.35882 20.6189C6.30805 20.3369 6.20652 19.7954 6.13319 19.4061C6.05986 19.0169 5.95832 18.4698 5.90755 18.1934C5.85678 17.9113 5.77781 17.5052 5.73833 17.2908C5.69884 17.0708 5.63115 16.7324 5.5973 16.5293C5.56346 16.3262 5.50141 15.9821 5.45628 15.7678C5.28706 14.8709 5.20809 14.4535 5.14604 14.1037C5.11219 13.9007 5.0445 13.5566 5.00501 13.3422C4.96553 13.1222 4.88656 12.7161 4.83579 12.4397C4.68913 11.6387 4.63272 11.3397 4.5481 10.9223C4.50298 10.7079 4.46913 10.5049 4.46913 10.471C4.46913 10.4315 4.58759 10.3695 4.73989 10.3356C4.99373 10.2736 8.55312 9.40489 8.78439 9.34848C8.84644 9.33156 8.91977 9.32028 8.94798 9.31464C8.97054 9.31464 8.97618 9.52899 8.95926 9.79975ZM21.7922 9.72642C22.0235 9.77155 22.644 9.87308 23.1686 9.9577C23.6988 10.0423 24.3193 10.1438 24.5506 10.1833C24.7819 10.2285 25.0921 10.2792 25.2332 10.2961C25.6675 10.3582 25.6619 10.1946 25.2839 12.1576C25.188 12.654 25.0865 13.1843 25.0583 13.3422C24.968 13.8273 24.8439 14.4873 24.607 15.7396C24.4829 16.4052 24.3532 17.0765 24.325 17.2344C24.2968 17.3867 24.1952 17.9226 24.0993 18.419C24.0034 18.9154 23.9019 19.4456 23.8737 19.6036C23.7778 20.1225 23.6537 20.7769 23.4224 22.0009C23.2983 22.6666 23.1686 23.3378 23.1404 23.4958C23.1122 23.6481 23.0501 23.9696 23.0107 24.2009C22.9655 24.4322 22.8584 25.0019 22.7737 25.4701C22.6102 26.367 22.5199 26.6039 22.5199 26.147C22.5199 25.9947 22.4973 25.5885 22.4635 25.2501C22.3902 24.4209 22.2604 22.8471 22.1532 21.5215C22.0517 20.2861 21.9897 19.5528 21.8712 18.1652C21.7697 16.9524 21.6343 15.3165 21.561 14.414C21.4312 12.812 21.324 11.5315 21.2507 10.691C21.2056 10.1946 21.1661 9.75462 21.1661 9.71514C21.1661 9.62488 21.2845 9.63052 21.7922 9.72642ZM4.40708 11.8305C4.44657 12.0448 4.51426 12.4058 4.55939 12.6371C4.59887 12.8684 4.70041 13.4155 4.78502 13.8499C4.86399 14.2842 4.98809 14.9668 5.06142 15.3729C5.14039 15.7734 5.27578 16.5237 5.37167 17.037C5.46757 17.5503 5.60859 18.2949 5.68192 18.701C5.76089 19.1015 5.92448 19.9928 6.04857 20.6753C6.17267 21.3579 6.31369 22.1081 6.35882 22.3394C6.40395 22.5707 6.48292 22.9768 6.52805 23.2419C6.63522 23.8568 6.70856 24.2629 7.09213 26.288C7.26136 27.2018 7.40238 28.031 7.40238 28.1213C7.40238 28.3187 7.29521 28.8546 6.92855 30.5469C6.88342 30.7612 6.77625 31.2576 6.69727 31.6468C6.6183 32.036 6.48856 32.6453 6.41523 33.0006C6.33626 33.356 6.23472 33.8411 6.18395 34.0724C6.13319 34.3037 6.07114 34.597 6.04857 34.7211C5.86807 35.5559 5.81166 35.8211 5.76089 36.0354C5.73269 36.1652 5.65935 36.5205 5.5973 36.8251C5.5409 37.1241 5.43372 37.6149 5.37167 37.9082C5.30962 38.2015 5.20809 38.6866 5.14604 38.9799C5.08399 39.2733 4.98245 39.7584 4.91476 40.0517C4.85271 40.345 4.75118 40.8132 4.68913 41.0953C4.63272 41.3717 4.53118 41.8455 4.46913 42.1388C4.40708 42.4322 4.28862 42.9906 4.20965 43.3798C4.13068 43.769 4.05735 44.0962 4.04043 44.1075C4.00094 44.147 4.01786 38.7261 4.07427 34.9749C4.13068 31.2632 4.16453 26.8634 4.22093 17.1329C4.2435 14.0078 4.27734 11.4525 4.29427 11.4525C4.31683 11.4525 4.3676 11.6217 4.40708 11.8305ZM25.786 16.8113C26.006 35.5729 26.0906 43.6957 26.068 44.0567C26.0511 44.3162 25.9439 43.8537 25.4306 41.3209C25.0921 39.6456 24.7988 38.162 24.7706 38.021C24.7424 37.88 24.4434 36.3964 24.105 34.7211C23.7665 33.0458 23.304 30.7725 23.084 29.6725L22.6778 27.67L22.864 26.6829C23.1573 25.0865 23.1742 25.0075 23.366 24.0034C23.4676 23.4732 23.5691 22.9317 23.5973 22.7907C23.6199 22.6496 23.7835 21.7866 23.9583 20.8728C24.1332 19.9589 24.2968 19.079 24.325 18.9267C24.3532 18.7687 24.3983 18.5149 24.4322 18.3626C24.466 18.2046 24.5563 17.7252 24.6352 17.2908C24.7198 16.8565 24.8157 16.3206 24.8609 16.1062C24.906 15.8862 24.9793 15.4801 25.0301 15.2037C25.0809 14.9217 25.1429 14.5832 25.1711 14.4422C25.1993 14.3012 25.2896 13.833 25.3685 13.3986C25.566 12.3438 25.6901 11.7289 25.7126 11.7515C25.7239 11.7571 25.7578 14.036 25.786 16.8113ZM22.7963 29.8417C22.8978 30.3551 22.9994 30.874 23.0276 30.9981C23.0558 31.1222 23.2701 32.1771 23.5014 33.3391C23.7383 34.5011 24.167 36.6446 24.466 38.1056C24.7593 39.561 25.0526 41.0219 25.1203 41.3491C25.1824 41.6763 25.2952 42.2347 25.3742 42.5901C25.6901 44.1075 26.0172 45.8223 25.9947 45.8449C25.9721 45.8674 25.3798 46.0085 22.9994 46.5387C21.6456 46.8433 21.2056 46.9336 21.1774 46.911C21.1661 46.8997 21.1999 46.3808 21.2451 45.7659C21.2958 45.151 21.3748 44.1921 21.4199 43.6337C21.4651 43.0752 21.5271 42.2742 21.561 41.8568C21.623 41.0389 21.7358 39.5384 21.8712 37.8518C21.9163 37.2764 21.9784 36.4754 22.0122 36.0749C22.063 35.3811 22.1363 34.456 22.3225 32.1263C22.3676 31.5678 22.4296 30.7161 22.4635 30.2366C22.5312 29.272 22.5763 28.8602 22.6045 28.8941C22.6102 28.8997 22.7004 29.3284 22.7963 29.8417ZM7.67878 31.6186C7.71827 32.2673 7.78032 33.4124 7.82545 34.157C7.87057 34.9016 7.9439 36.1708 7.99467 36.9774C8.0398 37.7841 8.10749 38.8502 8.13569 39.3466C8.1639 39.843 8.23159 40.9204 8.27672 41.744C8.32184 42.5675 8.38953 43.6167 8.41774 44.0849C8.50799 45.5346 8.54748 46.6515 8.50799 46.6515C8.48543 46.6515 8.16954 46.6008 7.80852 46.5331C7.44751 46.471 7.00752 46.3977 6.83829 46.3695C6.56753 46.33 4.88656 46.0367 4.2717 45.9238C4.00658 45.8787 4.00094 45.8505 4.1476 45.1849C4.19837 44.9536 4.30555 44.4572 4.37888 44.0849C4.45785 43.7126 4.59887 43.0414 4.69477 42.5901C4.79066 42.1388 4.93168 41.4788 5.01065 41.1235C5.08399 40.7681 5.18552 40.2943 5.23065 40.0799C5.28142 39.8599 5.34347 39.5722 5.37167 39.4312C5.46192 38.9799 5.70448 37.8405 5.82294 37.2877C5.89063 36.9944 5.96396 36.639 5.99217 36.498C6.05421 36.1934 6.32498 34.9185 6.52805 33.9878C6.60702 33.6155 6.69727 33.1981 6.72548 33.057C6.75368 32.916 6.85522 32.4365 6.95111 31.9853C7.04701 31.534 7.17675 30.9135 7.2388 30.6033C7.34597 30.0674 7.3911 29.8699 7.49264 29.4751C7.5434 29.2833 7.57725 29.6669 7.67878 31.6186ZM4.46913 46.691C4.76246 46.9561 5.15732 47.3171 5.34347 47.492C5.52961 47.6669 5.97524 48.073 6.33062 48.3945C6.68599 48.7217 7.13162 49.1279 7.31777 49.2971C7.50392 49.472 7.94955 49.8781 8.30492 50.2053C8.66029 50.5268 9.13413 50.9611 9.35976 51.1699L9.7659 51.5534L9.30899 52.9524C9.0608 53.7195 8.84644 54.3626 8.83516 54.3739C8.8126 54.4021 8.64901 54.2498 6.81009 52.4898C6.12755 51.8411 5.31526 51.0627 5.00501 50.7694C4.69477 50.476 3.88248 49.6976 3.19994 49.0432C2.51739 48.3945 1.84613 47.7571 1.71075 47.6274L1.46255 47.4018L2.58508 46.8038C3.19994 46.471 3.75838 46.2003 3.82043 46.2003C3.88248 46.2003 4.17017 46.4202 4.46913 46.691ZM26.6829 46.3469C26.8577 46.4315 27.1567 46.5669 27.3428 46.6515C27.529 46.7361 27.9859 46.9505 28.3582 47.131L29.0351 47.4525L28.4597 47.9997C28.1438 48.2987 27.168 49.235 26.288 50.0868C25.408 50.9386 24.325 51.9934 23.8737 52.4278C23.4224 52.8621 22.785 53.4826 22.4578 53.8041L21.8599 54.3851L21.3804 53.0144C21.1153 52.2585 20.8784 51.5929 20.8615 51.5252C20.8333 51.435 20.884 51.356 21.0646 51.1924C21.3522 50.9329 23.5353 48.8458 24.607 47.8079C26.0398 46.4202 26.2711 46.2003 26.3162 46.2003C26.3444 46.2003 26.508 46.2679 26.6829 46.3469ZM24.7424 47.2325C22.503 49.3986 20.884 50.9386 20.8558 50.9386C20.8164 50.9386 20.8446 50.5042 20.9687 49.1335C21.0138 48.654 21.0646 48.0392 21.0815 47.7741L21.121 47.2889L22.1702 47.052C22.7512 46.9223 23.6819 46.7136 24.2404 46.5895C24.7988 46.4654 25.3347 46.3469 25.4249 46.3187C25.5208 46.2905 25.628 46.2679 25.6731 46.2623C25.7126 46.2567 25.2952 46.6966 24.7424 47.2325ZM5.96396 46.5443C6.70856 46.6684 7.45879 46.7925 7.62802 46.8207C8.17518 46.9054 8.55312 46.99 8.5926 47.0351C8.60953 47.0577 8.77311 47.6443 8.94798 48.3438C9.12849 49.0432 9.34848 49.9007 9.43873 50.256C9.52899 50.6114 9.59668 50.9104 9.5854 50.916C9.57411 50.9273 8.76183 50.2053 8.1921 49.675C7.74647 49.2576 5.9696 47.6274 5.19116 46.9166C4.82451 46.5838 4.54246 46.3131 4.56503 46.3131C4.59323 46.3131 5.21937 46.4146 5.96396 46.5443ZM9.57411 47.2889C9.82231 47.3679 10.33 47.5259 10.7023 47.6387C11.0746 47.7515 11.6105 47.9151 11.8869 48.0053C13.1166 48.3889 13.8894 48.6258 14.273 48.7386C14.4929 48.8007 14.6791 48.8797 14.6791 48.9022C14.6791 48.9304 14.2899 49.1448 13.8217 49.3873C13.3479 49.6299 12.8063 49.9063 12.6202 50.0078C11.272 50.7355 10.0479 51.3278 10.0254 51.2657C10.0141 51.2263 9.8618 50.6453 9.69257 49.9796C9.52335 49.314 9.29207 48.4171 9.18489 47.9828C8.95362 47.1028 8.95362 47.0971 9.05515 47.131C9.089 47.1423 9.32592 47.2156 9.57411 47.2889ZM20.7487 47.932C20.7261 48.2366 20.6866 48.7386 20.6584 49.0489C20.6302 49.3591 20.5794 49.974 20.54 50.4196C20.5061 50.8596 20.4553 51.2319 20.4328 51.2488C20.4159 51.2601 19.5472 50.854 18.5092 50.3406C17.4713 49.8273 16.4108 49.3027 16.1514 49.173L15.6719 48.9417L15.8693 48.8627C15.9765 48.8176 16.1401 48.7612 16.2303 48.7386C16.3262 48.7104 17.3641 48.4002 18.5431 48.0448C19.722 47.6894 20.7092 47.3961 20.7374 47.3905C20.7656 47.3905 20.7712 47.6217 20.7487 47.932ZM17.5221 50.2053C18.7518 50.8088 19.7559 51.3222 19.7559 51.3447C19.7559 51.3673 17.7082 51.3898 15.2037 51.3898H10.6459L11.8023 50.7919C12.4397 50.4591 13.4437 49.9401 14.0304 49.6355C14.6227 49.3253 15.1473 49.0827 15.1981 49.094C15.2488 49.0997 16.298 49.6017 17.5221 50.2053ZM20.7543 52.1908C20.9687 52.8226 21.5327 54.4246 21.5892 54.56C21.6286 54.6559 21.3071 54.6615 15.3616 54.6615C11.9151 54.6615 9.09464 54.6446 9.09464 54.6164C9.10028 54.5939 9.30899 53.9395 9.56847 53.1667L10.031 51.7565L13.2745 51.7283C15.057 51.7114 17.4262 51.6945 18.5431 51.6832L20.5738 51.6719L20.7543 52.1908Z" fill="currentColor" stroke="currentColor" stroke-width="0.5"/>
</svg>
