<svg width="35" height="35" viewBox="0 0 35 35" fill="none" xmlns="http://www.w3.org/2000/svg">
<g clip-path="url(#clip0_400_42)">
<path d="M14.8973 0.040218L13.848 0.0475303L12.7219 1.19189C11.3143 2.61412 9.67638 4.28131 9.29249 4.68349L9 4.98694V17.5274V30.0716L9.21937 30.2763C9.34002 30.3896 9.61057 30.6456 9.82263 30.8503C10.0347 31.0514 10.5685 31.5633 11.0109 31.9837C13.2265 34.0969 14.1003 34.9378 14.1003 34.9671C14.1003 34.9854 15.9064 35 18.2536 35H22.4106L22.981 34.4406C23.2954 34.1335 23.789 33.6509 24.0815 33.3694C25.5147 31.9837 26.6517 30.8832 27.0247 30.5213L27.4414 30.1191L27.4524 25.9328C27.4597 23.6295 27.4488 17.9917 27.4305 13.4033L27.3976 5.06007L26.9917 4.68714C26.3995 4.13872 24.5202 2.38379 24.1363 2.01818C23.8767 1.77322 22.8421 0.804346 22.6337 0.614228C22.6081 0.595948 22.4582 0.449703 22.2936 0.288834L21.9975 7.52741e-07L18.9739 0.0146252C17.3067 0.0219374 15.475 0.0329058 14.8973 0.040218ZM21.8147 0.347332C21.8001 0.413142 21.7598 0.559387 21.7306 0.66907C21.7013 0.778753 21.6319 1.03468 21.577 1.23577C21.5222 1.43685 21.4454 1.72569 21.4052 1.87559C21.365 2.02549 21.3211 2.18636 21.3101 2.23389C21.3028 2.28142 21.2699 2.32895 21.2443 2.33992C21.2151 2.35088 20.4912 2.33992 19.632 2.31432C18.7691 2.29239 17.3506 2.25948 16.4731 2.24486C15.5993 2.23023 14.8644 2.20464 14.8388 2.19001C14.8132 2.17539 14.7949 2.1498 14.7949 2.12786C14.7949 2.10958 14.7584 2.01452 14.7182 1.91946C14.5683 1.58676 14.539 1.51729 14.539 1.49535C14.539 1.48438 14.4988 1.38932 14.4513 1.2833C14.2977 0.950591 14.0272 0.296146 14.0272 0.263241C14.0272 0.244961 15.7163 0.230336 17.9355 0.230336H21.8439L21.8147 0.347332ZM22.279 0.559387C22.396 0.66907 22.747 0.99812 23.0578 1.29061C23.3685 1.57944 23.8731 2.05108 24.1729 2.3326C25.1162 3.22104 25.9461 3.99614 26.5384 4.5409C27.0685 5.02716 27.1526 5.12953 27.0283 5.12953C27.0027 5.12953 26.9332 5.15147 26.8748 5.18072C26.8163 5.20631 26.4177 5.37449 25.99 5.55364C25.2624 5.85344 25.2039 5.87172 25.1235 5.82054C25.0759 5.79129 24.5385 5.28309 23.9279 4.6908C23.3174 4.09485 22.5276 3.33072 22.1693 2.9907L21.5185 2.36916L21.5368 2.22292C21.5478 2.14248 21.599 1.91946 21.6502 1.72934C21.8257 1.10049 21.9609 0.581323 21.9865 0.457015C21.9975 0.391205 22.0194 0.343676 22.0377 0.347332C22.0523 0.354644 22.162 0.449703 22.279 0.559387ZM14.2429 1.33083L14.6377 2.26679L12.8426 4.08754L11.0438 5.91194L10.7184 5.73279C10.5356 5.63773 10.3747 5.54633 10.3528 5.5317C10.3199 5.50611 10.148 5.41471 9.52282 5.07835L9.31443 4.96866L9.46798 4.80048C9.54842 4.70908 10.5209 3.71827 11.6251 2.5995C12.7292 1.47707 13.6652 0.519169 13.7054 0.467984C13.7456 0.416798 13.7968 0.380237 13.8151 0.383893C13.837 0.391205 14.0272 0.818971 14.2429 1.33083ZM19.3285 2.51175L20.8824 2.55197L20.5533 2.73112C20.1804 2.93586 20.1914 2.92855 18.9008 3.62687L17.9465 4.14238L17.3213 3.74752C16.6193 3.30879 16.612 3.30513 15.8552 2.82983C15.5518 2.63972 15.2922 2.46788 15.2812 2.4496C15.2593 2.41304 16.2428 2.42766 19.3285 2.51175ZM15.4494 2.8079C15.7346 2.98705 16.2172 3.29782 16.5243 3.49159C16.8314 3.68537 17.2153 3.93033 17.3835 4.0327C17.5517 4.13872 17.6833 4.23013 17.676 4.23744C17.6687 4.2411 17.0288 4.42025 16.2574 4.6323C15.4823 4.84435 14.773 5.04178 14.6779 5.07103C14.5829 5.09663 14.4988 5.11491 14.4915 5.10759C14.4842 5.09663 14.4915 5.01254 14.5061 4.91748C14.5427 4.70542 14.6304 4.10948 14.6853 3.72193C14.7072 3.56106 14.7474 3.27954 14.7767 3.10039C14.8059 2.91758 14.8388 2.70187 14.8534 2.61412C14.8644 2.52638 14.8863 2.46057 14.901 2.46788C14.9156 2.47519 15.1642 2.62509 15.4494 2.8079ZM14.5975 2.98339C14.5683 3.1662 14.5171 3.49159 14.4842 3.70365C14.4074 4.21916 14.3635 4.50799 14.3087 4.85532L14.2648 5.14781L13.9358 5.22825C13.3106 5.38546 11.669 5.78032 11.541 5.80591C11.4679 5.82054 11.4277 5.82054 11.4459 5.80226C11.4606 5.78398 12.1845 5.0491 13.051 4.16797C13.9211 3.28685 14.6341 2.58487 14.6414 2.60681C14.6487 2.62875 14.6304 2.79693 14.5975 2.98339ZM21.4418 3.42213C21.5295 3.86817 21.6246 4.33981 21.6538 4.47143C21.7891 5.10759 21.8147 5.23922 21.8147 5.2904C21.8147 5.35255 21.811 5.35255 20.9555 5.08931C20.6959 5.00522 20.2681 4.8736 20.0049 4.79683C19.7453 4.71639 19.4638 4.62864 19.3834 4.60305C19.3029 4.5738 19.0104 4.4824 18.7326 4.39465C18.4584 4.31056 18.2427 4.22647 18.2573 4.21185C18.2756 4.20088 18.3779 4.13872 18.4876 4.08023C18.7143 3.95592 20.4692 3.00533 20.9189 2.76402C21.0798 2.67993 21.2297 2.60681 21.248 2.60681C21.2699 2.60681 21.3577 2.97242 21.4418 3.42213ZM21.9353 3.03458C22.1401 3.22835 22.5898 3.65977 22.9298 3.99614C23.2735 4.32884 23.789 4.82973 24.0815 5.11125C24.3703 5.39277 24.6482 5.67064 24.6994 5.72548L24.7871 5.82785L24.6445 5.80591C24.5677 5.79494 24.4032 5.76935 24.2826 5.75107C23.7268 5.66332 22.056 5.3818 22.0487 5.37449C22.0341 5.35987 21.9244 4.84435 21.8878 4.61768C21.8695 4.50799 21.8037 4.17894 21.7416 3.88645C21.5514 2.98705 21.5003 2.67993 21.5405 2.67993C21.5551 2.67993 21.7343 2.8408 21.9353 3.03458ZM18.8203 4.63961C19.2517 4.77489 19.7526 4.92845 19.9318 4.98329C20.7105 5.22093 21.8293 5.57192 21.8586 5.5902C21.8732 5.60117 21.8878 5.68526 21.8878 5.78032C21.8878 5.87538 21.9097 6.19712 21.939 6.50058C21.9682 6.80038 22.0121 7.27202 22.0304 7.54257C22.0743 8.0983 22.1547 9.06351 22.2351 10.047C22.2644 10.409 22.3083 10.9099 22.3265 11.1621C22.3485 11.4144 22.3887 11.908 22.4179 12.259C22.4472 12.6099 22.4947 13.2095 22.5276 13.5934C22.5569 13.9737 22.6008 14.4782 22.619 14.7086C22.6373 14.9389 22.6775 15.4398 22.7104 15.8237C22.7433 16.2039 22.7836 16.7011 22.8055 16.9278C22.8311 17.2093 22.8311 17.4689 22.8055 17.7687C22.7836 18.0064 22.7433 18.5292 22.7104 18.9314C22.641 19.8564 22.5971 20.4011 22.5276 21.253C22.4472 22.284 22.3412 23.6075 22.2351 25.0188C22.2022 25.4319 22.1547 26.0571 22.1255 26.4081C22.0962 26.7591 22.056 27.2929 22.0341 27.5964C22.0085 27.8962 21.9682 28.4117 21.939 28.7334C21.9097 29.0588 21.8878 29.4025 21.8878 29.5012C21.8878 29.8485 21.9134 29.8266 21.1566 30.0496C20.6849 30.1886 20.3157 30.2982 20.1694 30.3458C20.078 30.375 19.8404 30.4445 19.6393 30.503C19.4382 30.5615 19.0434 30.6748 18.7655 30.7589C18.4108 30.8649 18.2207 30.9051 18.1439 30.8905C18.0416 30.8686 17.8515 30.8101 16.751 30.4664C16.5718 30.4116 16.2245 30.3019 15.9832 30.2288C15.7419 30.1556 15.3397 30.0313 15.0874 29.9546C14.8352 29.8741 14.5134 29.7754 14.3708 29.7352L14.1076 29.6584L14.0857 29.1941C14.071 28.9382 14.0381 28.3349 14.0089 27.8523C13.9796 27.3697 13.9358 26.686 13.9175 26.335C13.8699 25.4904 13.7859 24.0536 13.7164 22.8983C13.6506 21.8234 13.614 21.1506 13.5336 19.7723C13.5007 19.2275 13.4495 18.4634 13.4239 18.0685C13.3764 17.436 13.3764 17.2751 13.4239 16.7523C13.4934 15.9845 13.5738 15.0449 13.625 14.4161C13.6469 14.1455 13.6871 13.6519 13.7164 13.3192C13.7749 12.6502 13.8626 11.6447 13.9175 10.9428C13.9394 10.6905 13.9723 10.3066 13.9943 10.0872C14.0125 9.86786 14.0454 9.48762 14.0637 9.24632C14.082 9.00136 14.1222 8.50047 14.1551 8.12755C14.188 7.75462 14.2282 7.26836 14.2465 7.04899C14.305 6.30314 14.3599 5.65967 14.3781 5.50977L14.3964 5.35987L16.1587 4.87726C17.1275 4.61036 17.9392 4.38734 17.9575 4.38368C17.9794 4.37637 18.005 4.37637 18.016 4.38368C18.0306 4.391 18.3926 4.50799 18.8203 4.63961ZM9.48261 5.27943C9.5996 5.34159 9.72757 5.41471 9.76778 5.4403C9.808 5.46224 9.97253 5.55364 10.1334 5.64139C10.6599 5.92291 10.8281 6.01431 10.8792 6.05453C10.9195 6.08743 10.9231 6.47498 10.9048 8.34691C10.8902 9.58268 10.8756 12.025 10.8646 13.7762C10.85 16.6938 10.8098 20.8435 10.744 26.7847L10.7184 29.0807L10.5356 29.1831C10.4369 29.238 10.1224 29.4061 9.84091 29.5524C9.55939 29.6986 9.31077 29.8339 9.28883 29.8522C9.23399 29.8924 9.20474 26.1997 9.19377 18.9314C9.18646 14.1053 9.23034 5.16609 9.25958 5.16609C9.26324 5.16609 9.36561 5.21728 9.48261 5.27943ZM27.2038 6.01431C27.2367 7.12577 27.2623 28.4811 27.2331 29.2453L27.2075 29.907L26.9662 29.7937C26.8345 29.7315 26.4433 29.5487 26.1033 29.3915L25.4781 29.1027L25.4562 27.6C25.4452 26.7737 25.416 24.4265 25.3977 22.3864C25.3392 16.5001 25.2917 12.0652 25.2478 8.97577C25.2222 7.32686 25.2185 6.0984 25.2368 6.08012C25.2551 6.06184 25.533 5.94119 25.8547 5.80957C26.1764 5.68161 26.5969 5.50611 26.787 5.42568C26.9771 5.34524 27.1453 5.27578 27.1563 5.27578C27.1709 5.27578 27.1892 5.60848 27.2038 6.01431ZM14.1588 5.70354C14.1332 6.01797 14.1222 6.17152 14.0125 7.45117C13.9833 7.79118 13.9394 8.29573 13.9175 8.56628C13.8699 9.15857 13.7895 10.1201 13.7164 10.9428C13.6871 11.2755 13.6469 11.769 13.625 12.0396C13.6031 12.3101 13.5628 12.8037 13.5336 13.1364C13.4385 14.2077 13.3727 15.0084 13.3362 15.4763C13.3142 15.7286 13.2886 16.0613 13.2777 16.2149C13.263 16.3721 13.2411 16.5439 13.2228 16.5988L13.1936 16.7011L13.1899 16.5951C13.1863 16.5403 13.1643 16.3977 13.1351 16.2843C13.1095 16.171 13.0656 15.9626 13.0437 15.8237C13.0181 15.6811 12.9779 15.4507 12.9486 15.3118C12.923 15.1692 12.8718 14.8987 12.8389 14.7086C12.7804 14.3832 12.6451 13.641 12.5684 13.2278C12.5464 13.1255 12.5062 12.8951 12.4733 12.716C12.4404 12.5332 12.3746 12.1822 12.3271 11.9299C12.2795 11.6776 12.2137 11.323 12.1808 11.1438C12.1479 10.961 12.0967 10.6978 12.0711 10.5589C12.0455 10.4163 12.0017 10.1969 11.9797 10.0653C11.9578 9.93367 11.9176 9.71065 11.8883 9.57171C11.7786 8.99039 11.7275 8.71984 11.6872 8.49316C11.6653 8.36154 11.6214 8.13852 11.5958 7.99958C11.5702 7.85699 11.5191 7.59375 11.4862 7.4146C11.3911 6.89544 11.3545 6.70166 11.2997 6.43111C11.2704 6.29218 11.2485 6.16056 11.2485 6.13862C11.2485 6.11303 11.3253 6.07281 11.424 6.05087C11.5885 6.01066 13.8955 5.44761 14.0454 5.41105C14.0857 5.40008 14.1332 5.39277 14.1515 5.38912C14.1661 5.38912 14.1697 5.52805 14.1588 5.70354ZM22.4764 5.65601C22.6263 5.68526 23.0285 5.75107 23.3685 5.80591C23.7122 5.86075 24.1144 5.92656 24.2643 5.95216C24.4142 5.98141 24.6153 6.01431 24.7067 6.02528C24.9882 6.0655 24.9845 5.95947 24.7396 7.2318C24.6774 7.55354 24.6116 7.89721 24.5933 7.99958C24.5348 8.31401 24.4544 8.74177 24.3008 9.55343C24.2204 9.98485 24.1363 10.4199 24.118 10.5223C24.0998 10.621 24.0339 10.9683 23.9718 11.2901C23.9096 11.6118 23.8438 11.9555 23.8256 12.0579C23.7634 12.3942 23.683 12.8183 23.5331 13.6117C23.4526 14.0431 23.3685 14.4782 23.3503 14.5806C23.332 14.6793 23.2918 14.8877 23.2662 15.0376C23.2369 15.1875 23.1674 15.5568 23.1126 15.8602C23.0066 16.4416 22.9481 16.5951 22.9481 16.299C22.9481 16.2003 22.9335 15.937 22.9115 15.7176C22.864 15.1802 22.7799 14.1601 22.7104 13.301C22.6446 12.5003 22.6044 12.025 22.5276 11.1256C22.4618 10.3395 22.3741 9.27922 22.3265 8.69424C22.2425 7.65591 22.173 6.82597 22.1255 6.28121C22.0962 5.95947 22.0706 5.67429 22.0706 5.6487C22.0706 5.5902 22.1474 5.59386 22.4764 5.65601ZM11.2083 7.01974C11.2339 7.15868 11.2778 7.39267 11.307 7.54257C11.3326 7.69247 11.3984 8.04711 11.4533 8.32863C11.5044 8.61015 11.5849 9.05254 11.6324 9.31578C11.6836 9.57537 11.7713 10.0616 11.8335 10.3943C11.8956 10.727 11.987 11.2097 12.0346 11.4729C12.0858 11.7325 12.1918 12.3101 12.2722 12.7525C12.3527 13.1949 12.4441 13.6812 12.4733 13.8311C12.5026 13.981 12.5537 14.2442 12.583 14.4161C12.6525 14.8146 12.7 15.0778 12.9486 16.3904C13.0583 16.9827 13.1497 17.5201 13.1497 17.5786C13.1497 17.7066 13.0802 18.0539 12.8426 19.1507C12.8133 19.2897 12.7439 19.6114 12.6927 19.8637C12.6415 20.116 12.5574 20.5108 12.5099 20.7411C12.4587 20.9715 12.3929 21.2859 12.36 21.4358C12.3271 21.5857 12.2868 21.7758 12.2722 21.8563C12.1552 22.3974 12.1187 22.5692 12.0858 22.7081C12.0675 22.7922 12.02 23.0226 11.9797 23.22C11.9432 23.4138 11.8737 23.7319 11.8335 23.922C11.7933 24.1121 11.7275 24.4265 11.6872 24.6166C11.647 24.8067 11.5812 25.1212 11.5373 25.3113C11.4971 25.5014 11.4313 25.8049 11.3911 25.9877C11.3545 26.1668 11.2887 26.4739 11.2485 26.6641C11.2083 26.8542 11.1315 27.2161 11.0803 27.4684C11.0291 27.7207 10.9816 27.9327 10.9706 27.94C10.9451 27.9656 10.956 24.4521 10.9926 22.0208C11.0291 19.6151 11.0511 16.7633 11.0876 10.4565C11.1023 8.431 11.1242 6.77478 11.1352 6.77478C11.1498 6.77478 11.1827 6.88447 11.2083 7.01974ZM25.065 10.2481C25.2076 22.4083 25.2624 27.6731 25.2478 27.9071C25.2368 28.0753 25.1673 27.7755 24.8346 26.1339C24.6153 25.0481 24.4252 24.0865 24.4069 23.9951C24.3886 23.9037 24.1948 22.9421 23.9755 21.8563C23.7561 20.7704 23.4563 19.297 23.3137 18.584L23.0505 17.2861L23.1711 16.6463C23.3612 15.6116 23.3722 15.5604 23.4965 14.9096C23.5623 14.566 23.6281 14.215 23.6464 14.1236C23.661 14.0322 23.7671 13.4728 23.8804 12.8805C23.9937 12.2882 24.0998 11.7179 24.118 11.6191C24.1363 11.5168 24.1656 11.3522 24.1875 11.2535C24.2094 11.1512 24.2679 10.8404 24.3191 10.5589C24.374 10.2773 24.4361 9.93001 24.4654 9.79108C24.4946 9.64849 24.5421 9.38525 24.5751 9.2061C24.608 9.0233 24.6482 8.80393 24.6665 8.71253C24.6847 8.62112 24.7432 8.31766 24.7944 8.03614C24.9224 7.35245 25.0028 6.95393 25.0174 6.96856C25.0248 6.97221 25.0467 8.44929 25.065 10.2481ZM23.1272 18.6937C23.193 19.0264 23.2589 19.3628 23.2771 19.4432C23.2954 19.5237 23.4343 20.2074 23.5842 20.9605C23.7378 21.7137 24.0157 23.103 24.2094 24.0499C24.3996 24.9932 24.5897 25.9401 24.6336 26.1522C24.6738 26.3643 24.7469 26.7262 24.7981 26.9565C25.0028 27.94 25.2149 29.0515 25.2003 29.0661C25.1856 29.0807 24.8017 29.1722 23.2589 29.5158C22.3814 29.7133 22.0962 29.7718 22.0779 29.7571C22.0706 29.7498 22.0926 29.4135 22.1218 29.0149C22.1547 28.6164 22.2059 27.9949 22.2351 27.6329C22.2644 27.271 22.3046 26.7518 22.3265 26.4812C22.3668 25.9511 22.4399 24.9786 22.5276 23.8854C22.5569 23.5125 22.5971 22.9933 22.619 22.7337C22.6519 22.284 22.6995 21.6844 22.8201 20.1744C22.8494 19.8125 22.8896 19.2604 22.9115 18.9497C22.9554 18.3245 22.9846 18.0576 23.0029 18.0795C23.0066 18.0832 23.0651 18.361 23.1272 18.6937ZM13.3288 19.8454C13.3544 20.2659 13.3947 21.008 13.4239 21.4907C13.4531 21.9733 13.5007 22.7959 13.5336 23.3187C13.5628 23.8415 13.6067 24.5325 13.625 24.8543C13.6433 25.176 13.6871 25.8743 13.7164 26.4081C13.7456 26.9419 13.7895 27.622 13.8078 27.9254C13.8663 28.865 13.8919 29.5889 13.8663 29.5889C13.8517 29.5889 13.6469 29.556 13.4129 29.5122C13.1789 29.472 12.8938 29.4244 12.7841 29.4061C12.6086 29.3805 11.5191 29.1904 11.1205 29.1173C10.9487 29.0881 10.9451 29.0698 11.0401 28.6384C11.073 28.4885 11.1425 28.1667 11.19 27.9254C11.2412 27.6841 11.3326 27.249 11.3948 26.9565C11.4569 26.6641 11.5483 26.2363 11.5995 26.006C11.647 25.7756 11.7128 25.4685 11.7421 25.3296C11.775 25.187 11.8152 25.0005 11.8335 24.9091C11.892 24.6166 12.0492 23.8781 12.126 23.5198C12.1699 23.3297 12.2174 23.0993 12.2357 23.0079C12.2759 22.8105 12.4514 21.9842 12.583 21.381C12.6342 21.1397 12.6927 20.8691 12.711 20.7777C12.7292 20.6863 12.795 20.3755 12.8572 20.083C12.9194 19.7906 13.0034 19.3884 13.0437 19.1873C13.1131 18.84 13.1424 18.712 13.2082 18.4561C13.2411 18.3318 13.263 18.5804 13.3288 19.8454ZM11.2485 29.6145C11.4386 29.7864 11.6946 30.0204 11.8152 30.1337C11.9359 30.247 12.2247 30.5103 12.455 30.7187C12.6854 30.9307 12.9742 31.194 13.0949 31.3037C13.2155 31.417 13.5043 31.6802 13.7347 31.8923C13.965 32.1007 14.2721 32.3822 14.4184 32.5175L14.6816 32.7661L14.3855 33.6728C14.2246 34.1701 14.0857 34.5869 14.0783 34.5942C14.0637 34.6125 13.9577 34.5137 12.7658 33.373C12.3234 32.9526 11.7969 32.448 11.5958 32.2579C11.3948 32.0678 10.8683 31.5633 10.4259 31.1391C9.9835 30.7187 9.54842 30.3055 9.46067 30.2215L9.2998 30.0752L10.0274 29.6877C10.4259 29.472 10.7878 29.2965 10.8281 29.2965C10.8683 29.2965 11.0547 29.439 11.2485 29.6145ZM25.6463 29.3915C25.7596 29.4464 25.9534 29.5341 26.0741 29.5889C26.1947 29.6438 26.4909 29.7827 26.7322 29.8997L27.1709 30.1081L26.798 30.4628C26.5932 30.6565 25.9607 31.2634 25.3904 31.8155C24.82 32.3676 24.118 33.0513 23.8256 33.3328C23.5331 33.6143 23.1199 34.0165 22.9079 34.2249L22.5203 34.6015L22.2095 33.713C22.0377 33.2231 21.8842 32.7917 21.8732 32.7478C21.8549 32.6893 21.8878 32.6381 22.0048 32.5321C22.1913 32.3639 23.6062 31.0112 24.3008 30.3385C25.2295 29.439 25.3794 29.2965 25.4086 29.2965C25.4269 29.2965 25.533 29.3403 25.6463 29.3915ZM24.3886 29.9655C22.9371 31.3695 21.8878 32.3676 21.8695 32.3676C21.8439 32.3676 21.8622 32.0861 21.9427 31.1976C21.9719 30.8869 22.0048 30.4884 22.0158 30.3165L22.0414 30.0021L22.7214 29.8485C23.098 29.7644 23.7012 29.6292 24.0632 29.5487C24.4252 29.4683 24.7725 29.3915 24.831 29.3732C24.8931 29.355 24.9626 29.3403 24.9919 29.3367C25.0174 29.333 24.7469 29.6182 24.3886 29.9655ZM12.2174 29.5195C12.7 29.5999 13.1863 29.6804 13.2959 29.6986C13.6506 29.7535 13.8955 29.8083 13.9211 29.8376C13.9321 29.8522 14.0381 30.2324 14.1515 30.6858C14.2685 31.1391 14.4111 31.6949 14.4695 31.9252C14.528 32.1555 14.5719 32.3493 14.5646 32.353C14.5573 32.3603 14.0308 31.8923 13.6615 31.5486C13.3727 31.2781 12.221 30.2215 11.7165 29.7608C11.4788 29.5451 11.296 29.3696 11.3107 29.3696C11.3289 29.3696 11.7348 29.4354 12.2174 29.5195ZM14.5573 30.0021C14.7182 30.0533 15.0472 30.1556 15.2885 30.2288C15.5298 30.3019 15.8772 30.4079 16.0563 30.4664C16.8533 30.715 17.3542 30.8686 17.6028 30.9417C17.7454 30.9819 17.8661 31.0331 17.8661 31.0477C17.8661 31.066 17.6138 31.205 17.3104 31.3622C17.0032 31.5194 16.6523 31.6985 16.5316 31.7643C15.6578 32.236 14.8644 32.6199 14.8498 32.5797C14.8425 32.5541 14.7438 32.1775 14.6341 31.7461C14.5244 31.3146 14.3745 30.7333 14.305 30.4518C14.1551 29.8814 14.1551 29.8778 14.2209 29.8997C14.2429 29.907 14.3964 29.9546 14.5573 30.0021ZM21.8001 30.4189C21.7854 30.6163 21.7598 30.9417 21.7416 31.1428C21.7233 31.3439 21.6904 31.7424 21.6648 32.0312C21.6428 32.3164 21.6099 32.5577 21.5953 32.5687C21.5844 32.576 21.0213 32.3128 20.3486 31.98C19.6759 31.6473 18.9885 31.3073 18.8203 31.2232L18.5096 31.0733L18.6375 31.0221C18.707 30.9929 18.813 30.9563 18.8715 30.9417C18.9337 30.9234 19.6064 30.7223 20.3705 30.492C21.1346 30.2617 21.7745 30.0716 21.7928 30.0679C21.811 30.0679 21.8147 30.2178 21.8001 30.4189ZM19.7088 31.8923C20.5058 32.2835 21.1566 32.6162 21.1566 32.6308C21.1566 32.6455 19.8294 32.6601 18.2061 32.6601H15.252L16.0015 32.2725C16.4146 32.0568 17.0654 31.7205 17.4456 31.523C17.8295 31.3219 18.1695 31.1647 18.2024 31.172C18.2353 31.1757 18.9154 31.5011 19.7088 31.8923ZM21.8037 33.1793C21.9427 33.5887 22.3083 34.6271 22.3448 34.7148C22.3704 34.777 22.162 34.7806 18.3085 34.7806C16.0746 34.7806 14.2465 34.7697 14.2465 34.7514C14.2502 34.7368 14.3855 34.3127 14.5536 33.8118L14.8534 32.8977L16.9557 32.8795C18.111 32.8685 19.6466 32.8575 20.3705 32.8502L21.6867 32.8429L21.8037 33.1793Z" fill="currentColor" stroke="currentColor" stroke-width="0.5"/>
</g>
<defs>
<clipPath id="clip0_400_42">
<rect width="35" height="35" fill="white"/>
</clipPath>
</defs>
</svg>
