<svg width="49" height="45" viewBox="0 0 49 45" fill="none" xmlns="http://www.w3.org/2000/svg">
<path d="M24.607 1.05231C24.5376 1.08932 24.4497 1.1217 24.4173 1.1217C24.3895 1.1217 23.8945 1.64911 23.3208 2.28754C22.7472 2.9306 22.2152 3.52276 22.1458 3.60604C22.0717 3.68468 21.9515 3.81885 21.8774 3.90675C20.7347 5.20212 20.4016 5.56297 20.3369 5.56297C20.3184 5.56297 20.2258 5.68325 20.1333 5.8313C19.9806 6.07649 19.5596 6.74268 17.834 9.47221C17.4639 10.0551 16.807 11.0822 16.3814 11.753C15.9557 12.4238 15.6041 12.979 15.6041 12.9882C15.6041 12.9928 15.2618 13.5387 14.8408 14.1957C14.133 15.3106 13.7305 15.9491 12.0928 18.5305C11.7504 19.0718 11.4081 19.6131 11.3248 19.7426C11.2462 19.8675 11.0981 20.1081 10.9963 20.2747C10.8992 20.4412 10.802 20.58 10.7835 20.5893C10.765 20.5985 10.5938 20.9223 10.3949 21.3063C10.2006 21.6949 9.93228 22.2177 9.79812 22.4722C9.34011 23.3465 8.95613 24.0914 8.52588 24.9241C8.28994 25.3821 7.97535 25.9835 7.83193 26.2657C7.68851 26.5433 7.35542 27.191 7.09172 27.6999C6.83265 28.2088 6.49955 28.8519 6.35151 29.1341C6.20347 29.4116 5.91663 29.9714 5.70845 30.3693C5.02376 31.697 4.58425 32.5483 4.26967 33.159C4.09849 33.4874 3.74226 34.1767 3.48319 34.6856C3.21949 35.1945 2.96967 35.6803 2.92341 35.759C2.84939 35.8931 2.73835 36.2077 2.47928 37.0451C2.44227 37.17 2.39138 37.3134 2.36825 37.355C2.34512 37.4013 2.32661 37.4799 2.32661 37.5262C2.32661 37.5771 2.30811 37.665 2.28497 37.7251C2.23871 37.8269 2.05828 38.4006 1.79458 39.2657C1.72519 39.4924 1.6558 39.733 1.63266 39.7977C1.61416 39.8625 1.53088 40.1216 1.45686 40.376C1.37822 40.6305 1.23943 41.0977 1.14227 41.4123C0.9711 41.9675 0.9711 41.986 1.05437 42.0461C1.10064 42.0831 1.19316 42.1109 1.25793 42.1109C1.31807 42.1109 1.43373 42.1294 1.51238 42.1571C1.59103 42.1803 1.88711 42.2543 2.16469 42.3191C2.4469 42.3838 2.75686 42.4579 2.85864 42.4856C2.96042 42.5134 3.12234 42.555 3.21949 42.5781C3.31202 42.6013 3.46931 42.6383 3.56646 42.6614C3.65899 42.6892 3.84404 42.7308 3.96895 42.7586C4.09849 42.791 4.38995 42.865 4.61664 42.9251C4.84795 42.9853 5.37536 43.1148 5.79172 43.2212C6.20809 43.323 6.5782 43.4294 6.61058 43.4571C6.64759 43.4895 7.09635 43.5265 7.74866 43.5497C8.34083 43.5774 9.11805 43.6144 9.47427 43.6422C9.8305 43.6653 10.2052 43.6838 10.307 43.6792C10.5291 43.67 10.4319 43.67 11.7412 43.7255C12.7775 43.7671 14.3088 43.8458 15.0027 43.892C15.4654 43.9198 17.0429 43.9938 18.0792 44.0262C18.5372 44.0447 18.9952 44.0771 19.097 44.1002C19.3006 44.1465 20.4572 44.1974 21.8265 44.2205C22.3123 44.2251 23.2468 44.2575 23.913 44.2853C24.8475 44.3223 25.1482 44.3223 25.2408 44.2806C25.3379 44.2344 25.4027 44.239 25.5461 44.2853C25.6618 44.3223 25.8144 44.3315 25.9532 44.313C26.0735 44.2991 26.8091 44.2621 27.5863 44.239C28.3635 44.2112 29.2287 44.1696 29.5062 44.1465C29.7884 44.1187 30.3991 44.0817 30.871 44.0539C32.6244 43.9614 33.4664 43.9151 34.5489 43.8504C35.1596 43.8134 36.0849 43.7717 36.6076 43.7532C37.1304 43.7393 37.6069 43.7023 37.6717 43.6792C37.7365 43.6561 38.1436 43.6283 38.5738 43.6191C39.9201 43.5774 41.4653 43.5034 41.9973 43.4525C42.4923 43.4063 43.3065 43.2582 43.5379 43.1703C43.598 43.1472 43.7599 43.1287 43.8987 43.1287C44.0375 43.1287 44.1485 43.1102 44.1485 43.087C44.1485 43.0639 44.1948 43.0361 44.2549 43.0223C44.3104 43.0084 44.514 42.9575 44.7037 42.902C44.8934 42.8511 45.1062 42.8048 45.1756 42.8048C45.245 42.8048 45.3144 42.7863 45.3282 42.7586C45.3421 42.7354 45.4254 42.7123 45.5087 42.7123C45.5873 42.7123 45.6752 42.6938 45.6983 42.6707C45.7585 42.6105 46.6051 42.3885 46.7717 42.3885C46.9289 42.3885 47.6507 42.2173 47.7663 42.1571C47.8126 42.1294 47.882 42.1109 47.919 42.1109C48.0069 42.1109 48.1503 42.0276 48.2983 41.8934L48.4094 41.7917L48.3076 41.4771C48.2521 41.3059 48.1919 41.1209 48.1734 41.07C48.1549 41.0191 48.1133 40.8849 48.0809 40.7693C48.0485 40.6536 47.9514 40.3529 47.8681 40.0984C47.6599 39.4461 47.3361 38.4376 47.1371 37.7853C47.04 37.4799 46.9475 37.1792 46.9243 37.1145C46.9012 37.0497 46.8364 36.8415 46.7809 36.6518C46.7254 36.4622 46.6421 36.2632 46.6005 36.2123C46.5542 36.1614 46.1193 35.3056 45.6289 34.3155C45.1432 33.3209 44.7176 32.4696 44.6898 32.4187C44.662 32.3679 44.551 32.1597 44.4492 31.9561C44.3428 31.7526 44.2364 31.5444 44.2087 31.4935C44.1809 31.4426 44.056 31.1928 43.9357 30.9383C43.8108 30.6839 43.6998 30.4664 43.6859 30.4526C43.672 30.4387 43.6211 30.3462 43.5749 30.2444C43.5332 30.1426 43.45 29.9761 43.3991 29.8743C43.3482 29.7725 43.2649 29.6152 43.2186 29.5273C43.1724 29.4394 43.0428 29.1757 42.9318 28.949C42.8161 28.7177 42.6912 28.4679 42.6496 28.3939C42.6126 28.3152 42.5108 28.1163 42.4322 27.9405C42.3535 27.7693 42.2702 27.6166 42.2471 27.6028C42.224 27.5889 42.2055 27.5519 42.2055 27.5149C42.2055 27.4778 42.1546 27.3714 42.0898 27.2789C42.025 27.1864 41.9742 27.0707 41.9742 27.0245C41.9742 26.9736 41.9557 26.9366 41.9279 26.9366C41.9048 26.9366 41.8816 26.8949 41.8816 26.8487C41.8816 26.7978 41.8631 26.7515 41.8446 26.7423C41.8261 26.733 41.7521 26.6127 41.6827 26.4739C41.6179 26.3351 41.5023 26.1038 41.4236 25.965C41.3496 25.8262 41.0535 25.2295 40.7574 24.6465C40.466 24.059 40.1838 23.4992 40.1329 23.3974C40.0774 23.2956 39.9941 23.1291 39.9432 23.0273C39.8969 22.9255 39.6656 22.4768 39.4343 22.0327C39.1984 21.5885 38.9763 21.1074 38.9393 20.9686C38.8977 20.8298 38.8051 20.617 38.7311 20.4921C38.6571 20.3718 38.5969 20.2562 38.5969 20.233C38.5969 20.2099 38.5784 20.1821 38.5553 20.1729C38.5275 20.1636 37.7133 18.9238 37.371 18.3732C37.3478 18.3316 37.2276 18.1466 37.1073 17.9661C36.9824 17.7857 36.8852 17.6238 36.8852 17.6053C36.8852 17.5914 36.7881 17.4434 36.6678 17.2768C36.5429 17.1103 36.3948 16.8836 36.3301 16.7725C36.2653 16.6661 36.1404 16.4672 36.0478 16.333C35.9553 16.1989 35.7286 15.8473 35.5389 15.5558C35.3493 15.2644 35.1318 14.9313 35.0578 14.8202C34.7987 14.4409 34.7617 14.3761 34.6785 14.2142C34.6368 14.1263 34.5674 14.0199 34.5258 13.9829C34.461 13.9227 34.0215 13.2658 33.9012 13.053C33.8318 12.9281 33.3276 12.174 33.2258 12.0398C33.1749 11.975 33.0685 11.8131 32.9852 11.679C32.9066 11.5402 32.8048 11.3829 32.7678 11.3227C32.7308 11.2672 32.5827 11.0452 32.4439 10.8277C32.3052 10.6149 32.171 10.4067 32.1432 10.3651C32.1201 10.3281 32.0137 10.1708 31.9165 10.0227C31.7639 9.79605 30.834 8.38503 30.2464 7.48289C29.1037 5.73877 28.7938 5.29927 28.6365 5.19749C28.581 5.16048 28.3774 4.96155 28.1877 4.75799C27.5493 4.06867 26.5963 3.04625 26.1753 2.60213C25.2639 1.63523 24.9771 1.30676 24.9077 1.16334C24.8198 0.978291 24.7781 0.964409 24.607 1.05231ZM26.203 3.12027C26.897 3.86511 27.6233 4.64233 27.8176 4.84589C28.4561 5.51671 28.6504 5.73415 28.6504 5.78041C28.6504 5.80354 28.5208 5.99784 28.3635 6.21066C28.2016 6.42347 28.0212 6.68716 27.9564 6.79357C27.8916 6.9046 27.776 7.0619 27.6927 7.14517C27.6141 7.22845 27.5169 7.36261 27.4753 7.44588C27.4383 7.52453 27.3781 7.61705 27.3457 7.65407C27.3134 7.69108 27.2671 7.75122 27.2393 7.78823C26.9895 8.18147 26.7351 8.47755 26.6934 8.42666C26.6842 8.41741 26.6287 8.23236 26.5731 8.01492C26.4344 7.48752 26.2956 6.96012 26.2447 6.78894C26.2262 6.7103 26.166 6.49286 26.1105 6.30318C26.0596 6.1135 25.9856 5.8313 25.944 5.67863C25.8607 5.37792 25.7635 5.01244 25.5739 4.29073C25.5045 4.03629 25.4304 3.75408 25.4073 3.66618C25.3796 3.57828 25.3425 3.43024 25.324 3.34234C25.3009 3.25444 25.2731 3.14803 25.2593 3.11102C25.2454 3.07401 25.1806 2.85195 25.1159 2.62526C25.0465 2.39394 24.9724 2.14412 24.9493 2.06548C24.903 1.92206 24.8892 1.76939 24.9215 1.76939C24.9308 1.76939 25.5091 2.38006 26.203 3.12027ZM24.1906 1.9637C24.149 2.09786 23.8436 3.26832 23.7927 3.48113C23.7696 3.56903 23.6586 4.01778 23.5383 4.47578C23.418 4.93379 23.3023 5.38255 23.2838 5.47044C23.2607 5.55835 23.1959 5.8313 23.1312 6.07187C23.0664 6.31244 22.9184 6.8861 22.7981 7.33948C22.6824 7.79748 22.5806 8.18147 22.5668 8.19072C22.5575 8.19997 22.5251 8.19535 22.4974 8.17684C22.4233 8.13058 21.9422 7.37649 21.9422 7.30247C21.9422 7.26546 21.9052 7.20994 21.8636 7.17756C21.7895 7.11279 21.0169 5.95621 21.0169 5.90532C21.0169 5.89144 20.9753 5.81742 20.9244 5.74802L20.8319 5.61386L21.2066 5.18361C21.8543 4.44803 22.5159 3.75871 22.5991 3.73095C22.6454 3.71707 22.6824 3.67543 22.6824 3.63842C22.6824 3.60141 22.7055 3.57365 22.7287 3.57365C22.7564 3.57365 22.7749 3.55052 22.7749 3.52739C22.7749 3.48113 23.2237 2.98611 23.5892 2.62988C23.6724 2.55124 23.7465 2.43558 23.765 2.37081C23.7881 2.25978 24.1166 1.86192 24.186 1.86192C24.2045 1.86192 24.2045 1.90818 24.1906 1.9637ZM24.6301 2.12561C24.6578 2.22277 24.6949 2.36156 24.718 2.4402C24.7643 2.60213 24.9123 3.13878 25.0742 3.73558C25.139 3.96227 25.2084 4.22596 25.2269 4.31387C25.25 4.40176 25.3518 4.78575 25.4536 5.16048C25.56 5.53984 25.6433 5.89144 25.6433 5.95158C25.6433 6.0071 25.6618 6.07187 25.6849 6.095C25.7265 6.14126 25.8052 6.41884 25.9763 7.13592C26.0272 7.35336 26.0874 7.56617 26.1105 7.6078C26.1336 7.65407 26.1521 7.72809 26.1521 7.77435C26.1521 7.81599 26.1938 7.96865 26.2447 8.10744C26.2956 8.24623 26.3372 8.41741 26.3372 8.4868C26.3372 8.5562 26.3603 8.6256 26.3835 8.63947C26.4621 8.68573 26.439 8.99107 26.3511 9.07434C26.3048 9.11598 26.2493 9.18075 26.2215 9.22239C26.0596 9.47684 25.8885 9.73591 25.7358 9.93484C25.6433 10.0598 25.3518 10.4622 25.0881 10.8231C24.8244 11.1886 24.5838 11.4847 24.5561 11.4847C24.5098 11.4847 24.0148 10.6889 23.9824 10.5594C23.9732 10.5224 23.9269 10.4345 23.8806 10.3651C23.8297 10.3003 23.7927 10.2309 23.7927 10.217C23.7927 10.1985 23.7511 10.1384 23.6956 10.0829C23.6447 10.0274 23.5707 9.91634 23.5337 9.84232C23.4966 9.76367 23.4087 9.62951 23.3301 9.5416C23.2561 9.4537 23.1913 9.35655 23.1913 9.33342C23.1913 9.30566 23.1034 9.16225 22.997 9.00958L22.8073 8.732L22.8628 8.50068C22.8906 8.37577 22.9369 8.18609 22.96 8.08431C22.9831 7.98254 23.0248 7.81599 23.0525 7.71421C23.0849 7.61243 23.1312 7.42275 23.1589 7.29784C23.1913 7.1683 23.2283 7.04339 23.2422 7.02026C23.2607 6.9925 23.2977 6.85834 23.3301 6.71955C23.3625 6.58076 23.4041 6.42809 23.4272 6.38646C23.4504 6.34019 23.4689 6.24304 23.4689 6.16439C23.4689 6.08574 23.5105 5.9377 23.5568 5.82667C23.6077 5.72026 23.6586 5.53059 23.6771 5.40567C23.6956 5.28077 23.7372 5.13272 23.7742 5.07721C23.8344 4.98468 23.8667 4.85514 23.9732 4.337C23.9963 4.23522 24.0472 4.02703 24.0934 3.87436C24.1351 3.72169 24.1906 3.51351 24.2091 3.41173C24.2276 3.30995 24.2785 3.11565 24.3248 2.97686C24.3664 2.83807 24.408 2.62526 24.4127 2.50497C24.4173 2.38006 24.4404 2.2644 24.4543 2.2459C24.4728 2.23202 24.4867 2.16263 24.4867 2.09323C24.4867 1.97295 24.5283 1.88968 24.5699 1.92669C24.5792 1.94056 24.607 2.02846 24.6301 2.12561ZM20.6468 5.99322C20.6515 6.0256 20.7116 6.12275 20.7856 6.21066C20.8643 6.29855 20.9244 6.38646 20.9244 6.40959C20.9244 6.43272 21.0169 6.58539 21.1326 6.74731C21.2483 6.9046 21.3408 7.04802 21.3408 7.0619C21.3408 7.07115 21.5721 7.44126 21.8543 7.87613C22.1365 8.31563 22.3586 8.67648 22.3493 8.68573C22.2938 8.74588 21.0123 10.0644 19.9298 11.1793C19.2173 11.9103 18.6205 12.5302 18.6066 12.5533C18.5927 12.5765 18.2088 12.9743 17.7508 13.4416C17.2974 13.9042 16.3073 14.9174 15.5579 15.6946C14.8084 16.4718 13.9433 17.3647 13.6333 17.6839C13.3234 18.0031 12.8237 18.512 12.5276 18.8174C12.0326 19.3263 11.9956 19.354 12.1113 19.1412C12.1853 19.0117 12.3935 18.6878 12.5785 18.4149C12.7682 18.1419 12.9209 17.9106 12.9209 17.8967C12.9209 17.8551 13.1938 17.4665 13.2679 17.4063C13.3372 17.3462 13.476 17.0964 13.476 17.027C13.476 16.9715 13.9202 16.3192 14.0081 16.2498C14.0451 16.2174 14.0775 16.1711 14.0775 16.148C14.0775 16.1017 14.4059 15.6067 14.5031 15.5049C14.5355 15.4679 14.6049 15.3476 14.6558 15.232C14.7066 15.1163 14.8454 14.8943 14.9657 14.7323C15.0906 14.5704 15.1878 14.4177 15.1878 14.3854C15.1878 14.353 15.2387 14.2743 15.3034 14.2049C15.3682 14.1355 15.4191 14.0615 15.4191 14.0384C15.4191 14.0106 15.5024 13.8672 15.6041 13.7145C15.7059 13.5619 15.7892 13.4138 15.7892 13.3861C15.7892 13.3583 15.8586 13.2565 15.9465 13.164C16.0298 13.0669 16.1639 12.8633 16.2426 12.706C16.3212 12.5533 16.4138 12.4007 16.4554 12.3683C16.497 12.3313 16.5294 12.2804 16.5294 12.248C16.5294 12.2156 16.5618 12.1647 16.6034 12.1277C16.6404 12.0953 16.7237 11.9704 16.7839 11.8548C16.844 11.7345 16.9689 11.5402 17.0614 11.4153C17.2465 11.1747 17.3621 10.9943 17.4871 10.7444C17.5287 10.6565 17.6027 10.5501 17.6444 10.5085C17.6906 10.4715 17.7831 10.3235 17.8572 10.1847C17.9867 9.93484 18.0607 9.81918 18.3013 9.50459C18.3753 9.41207 18.4771 9.24089 18.528 9.12986C18.5789 9.02346 18.6806 8.87079 18.7547 8.79677C18.8287 8.72737 18.8888 8.63947 18.8888 8.60709C18.8888 8.5747 18.9305 8.49606 18.9814 8.43129C19.0322 8.36652 19.0739 8.28787 19.0739 8.25549C19.0739 8.21848 19.1664 8.08431 19.2821 7.95015C19.3931 7.81599 19.5458 7.60318 19.6152 7.47364C19.939 6.89072 20.1703 6.51136 20.2906 6.37258C20.36 6.2893 20.4155 6.16902 20.4155 6.10425C20.4155 5.93307 20.6422 5.82667 20.6468 5.99322ZM30.2835 8.15371C33.3507 12.8633 33.7301 13.4462 34.2667 14.2604C34.5767 14.7323 34.8728 15.1811 34.919 15.2644C35.0116 15.4124 36.7418 18.0587 37.3108 18.9284C37.4866 19.1921 37.6208 19.4142 37.6162 19.4234C37.5884 19.4466 37.0703 18.9747 37.0703 18.9284C37.0703 18.8775 36.8806 18.6786 36.8066 18.6508C36.7788 18.6416 35.8535 17.7394 34.7478 16.6476C33.6422 15.5604 32.703 14.6491 32.6614 14.6213C32.6197 14.5982 32.5827 14.5565 32.5827 14.5241C32.5827 14.4918 32.5318 14.4362 32.4717 14.3992C32.4069 14.3622 31.9721 13.9551 31.5048 13.4971C31.0375 13.0391 30.4824 12.5024 30.2649 12.2989C30.0521 12.1 29.3443 11.4106 28.6966 10.7722C28.0489 10.1338 27.3874 9.49534 27.2301 9.35655C27.0682 9.21776 26.9294 9.07897 26.9201 9.04659C26.8924 8.98182 27.1514 8.44517 27.2717 8.32026C27.318 8.26937 27.355 8.19997 27.355 8.16759C27.355 8.13058 27.4429 8.00566 27.5539 7.88538C27.665 7.7651 27.8176 7.56154 27.9009 7.43663C28.2109 6.94624 28.7059 6.25692 28.7475 6.25692C28.7706 6.25692 28.7892 6.22453 28.7892 6.1829C28.7892 6.13663 28.8215 6.11813 28.8817 6.12738C28.9464 6.13663 29.3721 6.75656 30.2835 8.15371ZM22.8813 9.48146C22.9692 9.62951 23.3208 10.2032 23.6678 10.7583C24.0194 11.3135 24.3016 11.7992 24.3016 11.8363C24.3016 11.8733 24.1397 12.1508 23.9361 12.4469C23.7372 12.743 23.0479 13.7886 22.4048 14.7693C21.7571 15.7501 20.9984 16.9021 20.7162 17.337C20.4294 17.7672 19.6105 19.0163 18.8888 20.1127C17.1077 22.8191 17.154 22.7497 17.1401 22.6757C17.1216 22.5786 17.4871 21.7227 17.6212 21.5469C17.6814 21.4636 17.7323 21.3433 17.7323 21.2786C17.7323 21.2138 17.7508 21.149 17.7739 21.1305C17.797 21.1167 17.8525 20.9964 17.8988 20.8622C17.9404 20.7327 17.9913 20.6124 18.0145 20.5985C18.033 20.5846 18.1209 20.3764 18.2088 20.1359C18.2967 19.8953 18.4123 19.6177 18.4678 19.5206C18.5187 19.4234 18.565 19.3078 18.565 19.2615C18.565 19.2152 18.6159 19.0764 18.6806 18.9515C18.7454 18.8266 18.7963 18.6925 18.7963 18.6555C18.7963 18.6184 18.8379 18.5352 18.8888 18.4704C18.9397 18.4056 18.9814 18.3177 18.9814 18.2761C18.9814 18.2345 19.0045 18.1836 19.0276 18.1697C19.0554 18.1558 19.0739 18.0957 19.0739 18.0355C19.0739 17.98 19.0924 17.9152 19.1109 17.8875C19.134 17.8644 19.1988 17.6932 19.2543 17.5081C19.3145 17.3231 19.407 17.1056 19.4625 17.0224C19.5134 16.9391 19.6013 16.7587 19.6475 16.6199C19.6938 16.4811 19.754 16.3469 19.7725 16.3192C19.7956 16.296 19.8141 16.2405 19.8141 16.1943C19.8141 16.148 19.9066 15.9074 20.0177 15.6622C20.1287 15.4124 20.2351 15.158 20.2536 15.0932C20.2721 15.0284 20.3322 14.8711 20.3924 14.7462C20.4525 14.6167 20.5451 14.39 20.6006 14.2373C20.6561 14.0846 20.7301 13.8857 20.7717 13.7978C20.8088 13.7099 20.8596 13.5943 20.8781 13.5434C20.8967 13.4925 20.9568 13.3537 21.0123 13.2334C21.0678 13.1131 21.1095 12.9743 21.1095 12.9327C21.1095 12.8864 21.1604 12.7569 21.2251 12.6459C21.2899 12.5395 21.3408 12.4284 21.3408 12.4053C21.3408 12.3637 21.4934 12.0028 21.5767 11.8455C21.5999 11.7992 21.6184 11.7345 21.6184 11.6928C21.6184 11.6188 21.9191 10.9804 21.9885 10.911C22.0162 10.8832 22.0347 10.7722 22.0347 10.6565C22.0347 10.5178 22.1041 10.2772 22.2522 9.91634C22.576 9.11135 22.6361 9.06972 22.8813 9.48146ZM26.8461 10.1985C27.0034 10.5872 27.1699 10.9896 27.2162 11.0914C27.2625 11.1932 27.3874 11.5032 27.4938 11.7854C27.6048 12.0629 27.7066 12.3128 27.7251 12.3405C27.7436 12.3637 27.8176 12.5441 27.887 12.7338C27.961 12.9234 28.0628 13.1825 28.1183 13.3121C28.1785 13.437 28.2895 13.7099 28.3728 13.9135C28.4561 14.117 28.5486 14.3437 28.581 14.4224C28.6319 14.538 30.4269 18.9284 31.2735 21.0149C31.4123 21.3572 31.5557 21.6996 31.5881 21.7782C31.6205 21.8522 31.7037 22.0604 31.7731 22.2408C31.8425 22.4166 31.9165 22.6017 31.9397 22.6433C32.1108 22.9764 31.6112 22.2594 31.2318 21.6348C31.0005 21.2508 30.3482 20.2793 30.1678 20.0387C30.0938 19.9462 30.0383 19.8583 30.0383 19.8398C30.0383 19.8028 29.7144 19.2893 29.6728 19.2569C29.6358 19.2337 28.9372 18.1882 28.6735 17.7718C28.6504 17.7302 28.5717 17.6145 28.5069 17.5174C28.2756 17.1704 26.3048 14.1864 25.7589 13.3583C25.4582 12.9003 25.1436 12.4192 25.0603 12.2896C24.8984 12.0491 24.866 11.9288 24.9493 11.8779C24.9771 11.8594 25.028 11.7807 25.065 11.7021C25.1852 11.4476 25.3379 11.1886 25.4258 11.096C25.4675 11.0452 25.5045 10.985 25.5045 10.9619C25.5045 10.8462 26.439 9.49534 26.5176 9.49534C26.5408 9.49534 26.6888 9.81456 26.8461 10.1985ZM22.0208 9.59712C22.007 9.62951 21.8774 9.95797 21.734 10.3281C21.586 10.6982 21.4194 11.1099 21.3593 11.2441C21.2991 11.3783 21.2483 11.5078 21.2483 11.5309C21.2483 11.5587 21.2297 11.6142 21.202 11.6605C21.1557 11.7437 19.8326 15.0099 19.6475 15.5003C19.5874 15.6576 19.5088 15.8565 19.4764 15.9398C19.4394 16.0184 19.3746 16.1619 19.3376 16.2498C19.3006 16.3377 19.2127 16.5505 19.1479 16.7263C19.0831 16.8975 18.9999 17.1056 18.9629 17.1889C18.8472 17.448 17.7323 20.2238 17.7323 20.2515C17.7323 20.2747 17.6952 20.3626 17.4593 20.8853C17.4084 21.0056 17.3621 21.1259 17.3621 21.1537C17.3621 21.1814 17.3436 21.2369 17.3159 21.2832C17.2928 21.3248 17.2049 21.5284 17.1262 21.732C17.0476 21.9355 16.955 22.1622 16.9226 22.2408C16.8903 22.3149 16.6728 22.8469 16.4415 23.4206C16.2102 23.9896 15.9696 24.5309 15.9095 24.6234C15.8447 24.7113 15.544 25.1369 15.2387 25.5718C14.9287 26.002 14.4476 26.6821 14.17 27.0754C13.8924 27.4686 13.4344 28.1163 13.1522 28.5095C12.87 28.9027 12.4074 29.5551 12.1205 29.9575C11.8383 30.36 11.57 30.7394 11.533 30.7949C11.496 30.8504 11.2647 31.1743 11.0241 31.512C10.7835 31.8497 10.5291 32.2106 10.4597 32.3077C10.3903 32.4049 10.1266 32.775 9.87676 33.1219C9.62694 33.4735 9.2152 34.0518 8.96538 34.4081C8.37321 35.2501 8.02624 35.7127 7.96147 35.7543C7.92446 35.7775 7.91983 35.7451 7.94296 35.6525C7.96147 35.5785 7.99385 35.4351 8.01236 35.3333C8.08175 35.0049 8.15115 34.6949 8.22517 34.3618C8.2668 34.1814 8.31769 33.9454 8.34083 33.8298C8.38709 33.5753 8.63228 32.4465 8.73406 32.0024C8.7757 31.822 8.82659 31.5721 8.85435 31.4472C8.87748 31.3177 8.91912 31.1326 8.93762 31.0309C8.97926 30.8365 9.19669 29.828 9.27072 29.5042C9.29385 29.4024 9.33086 29.2127 9.35861 29.0878C9.41876 28.7732 9.62232 27.8156 9.70559 27.4455C9.74723 27.2789 9.79812 27.0383 9.82587 26.9134C9.849 26.7839 9.89064 26.6081 9.91377 26.5202C9.9369 26.4323 10.0063 26.0853 10.0757 25.7568C10.1867 25.1878 10.2376 24.9565 10.3301 24.5771C10.3486 24.4892 10.3903 24.3088 10.4134 24.1839C10.4412 24.0544 10.4967 23.7953 10.5383 23.6056C10.58 23.4159 10.6309 23.1754 10.654 23.0736C10.6725 22.9718 10.7188 22.7636 10.7465 22.611C10.7743 22.4583 10.8159 22.2686 10.8437 22.19C10.8668 22.1113 10.8853 22.0095 10.8853 21.9586C10.8853 21.9078 10.9131 21.7736 10.9501 21.6579C10.9871 21.5469 11.0426 21.3017 11.075 21.112C11.1351 20.7697 11.1351 20.7651 11.5284 20.3487C11.7458 20.122 12.7127 19.1412 13.675 18.1743C14.6326 17.2074 15.4191 16.4071 15.4237 16.3886C15.4237 16.3747 15.6689 16.1341 15.9743 15.8565C16.275 15.5743 16.5202 15.3338 16.5248 15.3153C16.534 15.2505 17.6212 14.1679 17.6767 14.1679C17.7091 14.1679 17.7323 14.1448 17.7323 14.117C17.7323 14.0893 17.8803 13.9135 18.0561 13.733C18.2365 13.548 18.3799 13.3768 18.3799 13.3537C18.3799 13.3306 18.4586 13.2565 18.5557 13.1918C18.6483 13.1224 18.8426 12.9419 18.9814 12.7847C19.6059 12.0953 20.2027 11.4847 20.2582 11.4847C20.286 11.4847 20.3831 11.3921 20.4664 11.2811C20.5543 11.1654 20.6607 11.0637 20.7023 11.0544C20.7486 11.0405 20.7995 10.9943 20.8134 10.9434C20.8319 10.8971 20.9753 10.7259 21.1326 10.5594C21.2945 10.3928 21.4333 10.2263 21.4426 10.1847C21.4472 10.1384 21.5721 9.98111 21.7109 9.82844C21.9515 9.56011 22.0717 9.47221 22.0208 9.59712ZM27.2347 9.82844C27.2949 9.88858 27.7251 10.3096 28.1924 10.7676C28.6596 11.2256 29.4276 11.975 29.8995 12.4284C30.3714 12.8864 31.1625 13.6544 31.6575 14.1402C32.518 14.9868 35.0902 17.485 36.5151 18.8683C36.8852 19.2245 37.4496 19.775 37.7735 20.0896C38.1019 20.4042 38.4073 20.7419 38.4535 20.8344C38.5044 20.9316 38.5969 21.1999 38.6617 21.4312C38.7265 21.6672 38.7959 21.88 38.8236 21.9078C38.9023 22.0095 39.1197 22.9811 39.129 23.3095C39.1382 23.49 39.166 23.6843 39.1937 23.7351C39.2215 23.786 39.2446 23.8693 39.2446 23.9202C39.2446 23.9665 39.277 24.0682 39.314 24.1469C39.351 24.2255 39.4019 24.3782 39.4297 24.4892C39.4528 24.6003 39.5315 24.8917 39.5962 25.1323C39.6656 25.3729 39.7304 25.6967 39.7443 25.8494C39.7535 26.002 39.7813 26.1501 39.8044 26.1778C39.8646 26.2519 40.0126 26.7191 40.0959 27.0985C40.193 27.5241 40.267 27.8156 40.3133 27.9312C40.3318 27.9821 40.3596 28.0978 40.3781 28.1857C40.392 28.2736 40.4151 28.4077 40.429 28.4864C40.4428 28.5604 40.4752 28.6668 40.4984 28.7177C40.5215 28.7686 40.5631 28.912 40.5909 29.0415C40.614 29.1664 40.6603 29.3561 40.6834 29.4579C40.7112 29.5597 40.7482 29.7262 40.7713 29.828C40.7944 29.9298 40.8315 30.0963 40.8592 30.1981C40.887 30.2999 40.924 30.4664 40.9471 30.5682C40.9749 30.67 41.0258 30.8874 41.072 31.054C41.1553 31.3871 41.2154 31.6138 41.2756 31.8728C41.3589 32.2383 41.7012 33.6262 41.7428 33.7835C41.766 33.8714 41.8816 34.3387 41.9973 34.8244C42.2194 35.7451 42.2564 35.8977 42.3443 36.2262C42.372 36.3372 42.3813 36.4436 42.3674 36.4575C42.335 36.4945 42.0713 36.1938 42.0667 36.1198C42.0667 36.092 42.025 36.0412 41.9742 36.0041C41.9233 35.9671 41.8816 35.9162 41.8816 35.8839C41.8816 35.8561 41.7521 35.6803 41.5948 35.4906C41.4329 35.3009 41.2848 35.1113 41.2571 35.0696C41.0813 34.7967 40.8638 34.4867 40.7852 34.4081C40.7389 34.3572 40.6372 34.2323 40.5631 34.1305C40.4845 34.0287 40.3873 33.9038 40.3411 33.8529C40.2532 33.7558 39.9525 33.3301 39.8646 33.1728C39.8368 33.1266 39.7582 33.0294 39.6934 32.96C39.5453 32.7981 38.324 31.1743 38.1898 30.9615C38.1389 30.8736 38.0418 30.744 37.9863 30.6746C37.8197 30.4849 37.593 30.1842 36.8158 29.1341C36.4226 28.5974 36.0386 28.0885 35.9692 28.0006C35.8998 27.9127 35.3724 27.2049 34.7895 26.4277C33.4571 24.6419 33.5681 24.7899 33.3183 24.4754C33.198 24.3273 33.05 24.1654 32.9898 24.1145C32.9251 24.0682 32.8279 23.8971 32.7724 23.7398C32.7123 23.5825 32.5966 23.365 32.5133 23.254C32.4254 23.1384 32.3468 22.9718 32.3283 22.8561C32.3098 22.7451 32.1941 22.4028 32.0692 22.0882C31.9443 21.7782 31.8425 21.4729 31.8425 21.4174C31.8425 21.3572 31.824 21.2925 31.8055 21.2647C31.787 21.2416 31.6991 21.0565 31.6158 20.853C31.5326 20.6494 31.4354 20.4227 31.3984 20.3533C31.3614 20.2793 31.3336 20.1914 31.3336 20.159C31.3336 20.1266 31.292 20.0202 31.2457 19.9184C31.0653 19.5622 31.0005 19.4142 30.9126 19.1412C30.8617 18.9885 30.7785 18.785 30.7276 18.6878C30.6813 18.5861 30.6397 18.4843 30.6397 18.4611C30.6397 18.4103 30.5009 18.091 30.3112 17.7163C30.2649 17.6145 30.2233 17.4804 30.2233 17.4156C30.2233 17.3462 30.1817 17.2398 30.1308 17.175C30.0799 17.1103 30.0383 17.0131 30.0383 16.9622C30.0383 16.9067 29.9874 16.7679 29.9226 16.6615C29.8578 16.5505 29.8069 16.4209 29.8069 16.3747C29.8069 16.333 29.7884 16.296 29.7607 16.296C29.7375 16.296 29.7144 16.2636 29.7144 16.2266C29.7144 16.1896 29.6404 15.9999 29.5525 15.8056C29.4646 15.616 29.3906 15.417 29.3906 15.3754C29.3906 15.3291 29.3489 15.2366 29.298 15.1718C29.2472 15.1071 29.2055 15.033 29.2055 15.0007C29.2055 14.9729 29.1639 14.8619 29.113 14.7601C29.0621 14.6537 29.0205 14.538 29.0205 14.5056C29.0205 14.427 28.9326 14.2188 28.5393 13.3722C28.4468 13.1733 28.3728 12.9836 28.3728 12.9466C28.3728 12.9096 28.3543 12.8633 28.3265 12.8494C28.3034 12.8355 28.2803 12.78 28.2803 12.7291C28.2803 12.6829 28.2618 12.6042 28.234 12.558C28.1322 12.3775 28.0073 12.0722 27.9795 11.9473C27.961 11.8686 27.9287 11.7992 27.9055 11.7854C27.8824 11.7669 27.8639 11.716 27.8639 11.6651C27.8639 11.6188 27.8454 11.5772 27.8176 11.5772C27.7945 11.5772 27.7714 11.5355 27.7714 11.4847C27.7714 11.3921 27.7529 11.3505 27.6418 11.1284C27.6094 11.0683 27.5863 10.9989 27.5863 10.9758C27.5863 10.948 27.5169 10.7722 27.429 10.5918C27.0126 9.70815 26.9803 9.58787 27.2347 9.82844ZM25.8052 14.0338C26.4436 14.996 27.2949 16.296 27.702 16.9113C28.1091 17.5266 28.7383 18.4797 29.0945 19.0256C29.4553 19.5715 30.3112 20.8715 30.9959 21.917C32.6475 24.4245 32.7493 24.5864 32.8649 24.8408C32.9205 24.9657 33.0176 25.1786 33.0777 25.3174C33.1425 25.4561 33.3368 25.8818 33.508 26.2657C33.6792 26.6451 33.8966 27.1262 33.9891 27.3252C34.0863 27.5287 34.2066 27.8017 34.2575 27.9266C34.313 28.0561 34.4656 28.3939 34.6044 28.6807C34.7386 28.9629 34.8496 29.2081 34.8496 29.222C34.8496 29.2451 35.118 29.8419 35.5343 30.7301C35.6222 30.9198 35.7425 31.1881 35.8027 31.3177C35.8628 31.4518 35.9646 31.6785 36.0293 31.8173C36.0941 31.9607 36.145 32.081 36.145 32.0903C36.145 32.1042 36.2699 32.3725 36.4226 32.6963C36.5752 33.0202 36.7002 33.2931 36.7002 33.3024C36.7002 33.3116 36.7742 33.4828 36.8667 33.6771C37.0286 34.0241 37.1859 34.3664 37.334 34.7088C37.371 34.7967 37.4542 34.9725 37.5098 35.102C37.6809 35.4721 37.8382 35.8237 37.9631 36.0967C38.0279 36.2355 38.1528 36.513 38.25 36.7166C38.3425 36.9155 38.4073 37.1052 38.3934 37.1376C38.3795 37.1746 38.1991 37.207 37.8475 37.2255C36.5105 37.3088 32.8881 37.6095 32.4763 37.6696C32.3052 37.6928 32.0646 37.7159 31.9397 37.7159C31.8148 37.7159 31.5557 37.7344 31.3706 37.7575C31.1856 37.7807 30.7091 37.8269 30.3158 37.8547C29.9226 37.8824 29.3998 37.9287 29.1593 37.9518C28.692 37.9981 27.8223 38.0721 27.0312 38.1323C26.7628 38.1508 26.2447 38.1924 25.8746 38.2248C24.7504 38.3219 24.1998 38.3034 22.5205 38.1323C22.1458 38.0906 21.9653 38.0721 21.0169 37.9935C20.2628 37.9287 19.0415 37.8177 18.4956 37.7621C18.2411 37.739 17.9081 37.7066 17.7554 37.6928C17.6027 37.6789 17.2604 37.6511 16.992 37.6234C16.7237 37.6002 16.2657 37.5586 15.9743 37.5355C15.6828 37.5077 15.1091 37.4568 14.702 37.4152C14.2949 37.3735 13.7212 37.3226 13.4298 37.2949C13.1383 37.2671 12.6803 37.2255 12.412 37.2024C12.1437 37.1792 11.7643 37.1468 11.57 37.133C11.3202 37.1145 11.2091 37.0867 11.2091 37.0451C11.2091 36.9849 11.4775 36.3141 11.7782 35.634C11.8152 35.5461 12.0002 35.1066 12.1807 34.6625C12.3611 34.2184 12.5415 33.7789 12.5832 33.691C12.6202 33.6031 12.6711 33.4874 12.6896 33.4365C12.7081 33.3856 12.759 33.27 12.796 33.1821C12.833 33.0942 12.944 32.8305 13.0365 32.6038C13.1337 32.3725 13.2586 32.0764 13.3187 31.9422C13.3789 31.8081 13.4298 31.6878 13.4298 31.6739C13.4298 31.66 13.4807 31.5351 13.5454 31.3963C13.6102 31.2575 13.6611 31.1326 13.6611 31.1234C13.6611 31.1141 13.712 30.9892 13.7767 30.8504C13.8415 30.7116 13.8924 30.5867 13.8924 30.5728C13.8924 30.559 13.9433 30.4387 14.0034 30.3045C14.0636 30.1704 14.2116 29.8188 14.3319 29.5273C14.4476 29.2358 14.5956 28.8889 14.6558 28.764C14.7205 28.6344 14.813 28.4077 14.8639 28.2597C14.9148 28.1116 15.0073 27.8942 15.0721 27.7786C15.1369 27.6675 15.1878 27.5519 15.1878 27.5241C15.1878 27.4547 15.6319 26.3675 15.8401 25.9326C15.9372 25.7198 16.0205 25.5209 16.0205 25.4793C16.0205 25.4423 16.0344 25.4099 16.0575 25.4099C16.076 25.4099 16.1177 25.3405 16.1501 25.2572C16.1824 25.1786 16.2611 25.0028 16.3212 24.8778C16.386 24.7483 16.4369 24.6095 16.4369 24.5633C16.4369 24.5216 16.46 24.4846 16.4831 24.4846C16.5109 24.4846 16.5294 24.4476 16.5294 24.4013C16.5294 24.3597 16.571 24.2718 16.6219 24.207C16.6728 24.1423 16.7145 24.0775 16.7145 24.0544C16.7145 24.0359 16.8579 23.8092 17.0337 23.5455C17.2974 23.1569 18.3198 21.607 18.4956 21.3341C18.5187 21.2925 18.5835 21.1999 18.6298 21.1259C18.6806 21.0519 19.023 20.5337 19.3885 19.974C19.7586 19.4142 20.2397 18.6832 20.4572 18.3547C20.6746 18.0216 20.8689 17.7441 20.892 17.7394C20.9105 17.7302 20.9244 17.6978 20.9244 17.6608C20.9244 17.6284 20.9568 17.5729 20.9984 17.5405C21.0401 17.5081 21.091 17.4387 21.1141 17.3832C21.1696 17.2629 21.2668 17.1103 21.5397 16.7448C21.66 16.5782 21.7571 16.4209 21.7571 16.3978C21.7571 16.3747 21.7988 16.3192 21.8497 16.2729C21.9006 16.2266 21.9422 16.1665 21.9422 16.1341C21.9422 16.1063 21.9931 16.0323 22.0579 15.9722C22.1226 15.912 22.1735 15.8426 22.1735 15.8195C22.1735 15.7964 22.2522 15.6622 22.3539 15.5188C22.4511 15.3708 22.613 15.1302 22.7102 14.9822C22.8119 14.8295 22.923 14.6629 22.96 14.6074C22.997 14.5565 23.071 14.4409 23.1219 14.3576C23.1728 14.2697 23.2653 14.1355 23.3301 14.0569C23.4504 13.9088 23.4966 13.8302 23.6586 13.5202C23.7095 13.4231 23.7835 13.3167 23.8205 13.2843C23.8575 13.2565 23.8853 13.2056 23.8853 13.1779C23.8853 13.1455 23.9361 13.0715 24.0009 13.0113C24.0657 12.9512 24.1166 12.8818 24.1166 12.854C24.1212 12.8263 24.1813 12.7291 24.2554 12.6412C24.334 12.5533 24.3941 12.4608 24.3941 12.4331C24.3941 12.359 24.4959 12.2711 24.5792 12.2711C24.6208 12.2711 25.1205 12.9882 25.8052 14.0338ZM10.5661 21.9031C10.543 21.9864 10.4736 22.2732 10.4227 22.5416C10.3672 22.8099 10.2839 23.2124 10.233 23.4437C10.1775 23.6704 10.122 23.9433 10.0988 24.0451C10.0294 24.4013 9.87214 25.1554 9.79812 25.4793C9.66858 26.0622 9.62694 26.2611 9.58993 26.4508C9.52516 26.7931 9.34936 27.5611 9.27997 27.8156C9.23833 27.9544 9.19669 28.1487 9.18744 28.2458C9.17356 28.3383 9.1458 28.4309 9.12267 28.4447C9.09954 28.4586 9.08104 28.5419 9.08104 28.6298C9.08104 28.7223 9.0579 28.8334 9.03477 28.8842C9.00702 28.9305 8.97 29.1063 8.95613 29.2729C8.94225 29.4394 8.90986 29.5874 8.89136 29.6013C8.86823 29.6152 8.84972 29.6938 8.84972 29.7771C8.84972 29.8558 8.83121 29.9437 8.80808 29.9714C8.78495 29.9946 8.75719 30.0963 8.73869 30.1981C8.68317 30.6052 8.65079 30.7533 8.61378 30.7995C8.59527 30.8273 8.56289 30.9615 8.54438 31.1002C8.52588 31.239 8.49812 31.3732 8.47961 31.401C8.46111 31.4241 8.43335 31.5305 8.41947 31.6323C8.40559 31.7341 8.36858 31.9099 8.34083 32.0255C8.31307 32.1412 8.27143 32.3355 8.2483 32.465C8.22979 32.5899 8.18353 32.7796 8.15577 32.8814C8.12339 32.9832 8.08175 33.1913 8.05399 33.344C8.03086 33.4967 7.97997 33.7141 7.94759 33.8298C7.91058 33.9454 7.86894 34.1397 7.85044 34.2693C7.83193 34.3942 7.78104 34.5839 7.73478 34.6856C7.65613 34.8661 7.63762 34.954 7.55898 35.6109C7.53585 35.7867 7.49884 35.9856 7.4757 36.0504C7.44795 36.1152 7.40168 36.3049 7.3693 36.476C7.30916 36.8138 7.29065 36.8276 7.02695 36.7444C6.9483 36.7212 6.57357 36.6241 6.18959 36.5315C5.81023 36.4436 5.4355 36.3465 5.35685 36.3234C5.07002 36.2401 3.49707 35.8654 3.42305 35.8654C3.24262 35.8654 3.22412 35.907 4.30205 33.8298C4.50561 33.4365 4.79244 32.8814 4.94048 32.6038C5.08852 32.3216 5.35685 31.8034 5.5419 31.4472C6.53193 29.5227 6.74475 29.1109 6.88816 28.8472C6.97606 28.6853 7.1935 28.2689 7.37392 27.922C7.55435 27.5704 7.73478 27.2512 7.76716 27.2095C7.80417 27.1725 7.83193 27.117 7.83193 27.0939C7.83193 27.0661 7.95221 26.8163 8.09563 26.5387C8.23905 26.2611 8.49349 25.7615 8.66467 25.433C8.97926 24.8131 9.08566 24.6188 9.1273 24.5771C9.14118 24.5633 9.18282 24.4939 9.21983 24.4152C9.25684 24.3412 9.37712 24.1191 9.48815 23.9248C9.59456 23.7305 9.68246 23.5455 9.68246 23.5131C9.68246 23.4853 9.7426 23.3743 9.81199 23.2679C9.88139 23.1615 9.97854 22.9579 10.0294 22.8191C10.0757 22.6803 10.1497 22.4999 10.1914 22.4259C10.233 22.3473 10.3348 22.1576 10.4227 21.9957C10.5846 21.6903 10.6494 21.6487 10.5661 21.9031ZM41.0443 25.9882C43.5702 30.9892 45.9389 35.6896 46.0823 35.981L46.2211 36.2586L46.0777 36.2956C45.7539 36.3789 45.5549 36.4205 45.4208 36.4436C45.3467 36.4529 45.083 36.4945 44.8425 36.5362C44.6019 36.5778 44.2272 36.6287 44.0097 36.6565C43.7923 36.6796 43.5564 36.7212 43.4823 36.7444C43.2973 36.8091 42.9272 36.7999 42.8624 36.7351C42.83 36.7027 42.8069 36.6333 42.8069 36.5732C42.8069 36.5177 42.7884 36.4251 42.7653 36.365C42.7421 36.3049 42.7051 36.217 42.6866 36.1661C42.645 36.0597 42.5386 35.5554 42.4969 35.2963C42.4831 35.2038 42.4553 35.1113 42.4322 35.0974C42.409 35.0835 42.3905 35.0141 42.3905 34.9447C42.3905 34.8753 42.372 34.8013 42.3535 34.7735C42.3304 34.7504 42.2887 34.607 42.2564 34.4543C42.1916 34.1629 42.0898 33.765 42.0158 33.5244C41.9927 33.4458 41.9742 33.3255 41.9742 33.2607C41.9742 33.1913 41.9557 33.0988 41.9279 33.0526C41.9048 33.0109 41.8122 32.6593 41.7197 32.28C41.5624 31.623 41.53 31.4842 41.419 31.0632C41.3959 30.9707 41.3033 30.5775 41.2108 30.1981C41.0304 29.4533 40.9888 29.2821 40.9147 28.9953C40.887 28.8935 40.7944 28.4956 40.7019 28.1163C40.6094 27.7323 40.5169 27.3437 40.4937 27.2465C40.466 27.154 40.429 26.9967 40.4012 26.8996C40.3781 26.807 40.3041 26.4971 40.2393 26.2195C40.0496 25.4145 40.0219 25.3035 39.9802 25.1554C39.9571 25.0768 39.8646 24.702 39.7767 24.3227C39.6841 23.9387 39.5916 23.5547 39.5685 23.4668C39.5453 23.3789 39.513 23.2448 39.4991 23.1707C39.4852 23.0967 39.4621 22.9857 39.4482 22.9163C39.4204 22.8006 39.4251 22.8006 39.4991 22.9348C39.5407 23.0088 40.2393 24.3828 41.0443 25.9882ZM33.7023 25.5255C33.966 25.8771 34.4333 26.5618 34.4333 26.5988C34.4333 26.6127 34.4703 26.659 34.5165 26.7006C34.5628 26.7423 34.6877 26.8903 34.7941 27.0291C34.9005 27.1679 35.0347 27.3437 35.0948 27.4223C35.1827 27.5287 36.1496 28.8241 36.8158 29.7216C36.8667 29.791 36.9962 29.9622 37.1073 30.101C37.2137 30.2398 37.3016 30.3693 37.3016 30.3785C37.3016 30.3924 37.334 30.4433 37.371 30.4849C37.6439 30.8227 37.9955 31.2807 37.9955 31.3084C37.9955 31.3269 38.0372 31.3871 38.0881 31.4426C38.1621 31.5212 39.2863 33.0202 39.5222 33.3486C39.5592 33.4042 39.7443 33.654 39.934 33.9038C41.2108 35.597 42.0806 36.7721 42.0991 36.8184C42.1268 36.8924 41.9742 36.9155 41.2571 36.9525C39.4482 37.0404 38.9809 37.0682 38.8977 37.0913C38.8144 37.1145 38.782 37.0821 38.6941 36.8739C38.634 36.7397 38.4952 36.4344 38.3841 36.1938C38.2731 35.9579 38.1806 35.7543 38.1806 35.7497C38.1806 35.7404 38.0788 35.5138 37.9493 35.2408C37.8244 34.9678 37.7179 34.7412 37.7179 34.7319C37.7179 34.718 37.6254 34.5145 37.5098 34.2739C37.3941 34.0287 37.3016 33.8251 37.3016 33.8113C37.3016 33.802 37.1859 33.5522 37.0471 33.2515C36.9083 32.9554 36.7927 32.7056 36.7927 32.6917C36.7927 32.6824 36.7233 32.5205 36.6354 32.3355C36.4735 31.9885 36.3439 31.7017 36.1681 31.3084C36.108 31.1789 35.9877 30.9106 35.8905 30.707C35.798 30.5035 35.6407 30.1611 35.5436 29.9437C35.3446 29.4949 35.1503 29.0739 34.8913 28.5188C34.7941 28.306 34.7108 28.1255 34.7108 28.1163C34.7108 28.107 34.6183 27.9035 34.5027 27.6583C34.387 27.4131 34.2945 27.2049 34.2945 27.1956C34.2945 27.1864 34.2066 26.9921 34.1048 26.7654C33.7393 25.9882 33.4155 25.2572 33.4155 25.2063C33.4155 25.1508 33.434 25.1693 33.7023 25.5255ZM15.4237 26.0205C15.3451 26.2195 15.0397 26.9597 14.9565 27.1447C14.9102 27.2465 14.8315 27.4316 14.7807 27.5611C14.7298 27.686 14.5493 28.1255 14.3782 28.5326C14.207 28.9398 13.8693 29.7494 13.6287 30.3323C13.3881 30.9152 13.1568 31.4796 13.1106 31.5814C13.0597 31.6878 12.9486 31.9561 12.8515 32.1874C12.6664 32.6362 12.6155 32.7657 12.4629 33.0988C12.412 33.2191 12.3657 33.3348 12.3657 33.3486C12.3657 33.3671 12.2732 33.5892 12.1622 33.8483C12.0511 34.1027 11.9123 34.4312 11.8568 34.57C11.7134 34.9123 11.5515 35.2871 11.4127 35.5646C11.3526 35.6942 11.3017 35.8237 11.3017 35.8561C11.3017 35.8885 11.223 36.0828 11.1212 36.2956C11.0241 36.5038 10.9177 36.749 10.8899 36.8461C10.8575 36.9387 10.8067 37.0219 10.7789 37.0358C10.6956 37.0682 7.84581 36.8045 7.77179 36.7582C7.73478 36.7351 8.22979 35.9949 8.30381 35.9671C8.32232 35.9579 8.34083 35.9301 8.34083 35.907C8.34083 35.8561 8.62303 35.449 8.87285 35.1483C8.97926 35.0187 9.18744 34.7412 9.33548 34.5237C9.48353 34.3063 9.62232 34.1212 9.64082 34.1166C9.66395 34.1074 9.68246 34.075 9.68246 34.0426C9.68246 34.0102 9.74723 33.9269 9.82125 33.8529C9.89989 33.7789 9.96004 33.6956 9.96004 33.6725C9.96004 33.6447 10.0757 33.4874 10.2145 33.3209C10.3533 33.159 10.4689 33.0063 10.4689 32.9878C10.4689 32.9415 10.8252 32.4604 10.9917 32.2846C11.0611 32.2106 11.1166 32.1319 11.1166 32.1042C11.1166 32.044 11.4867 31.5305 11.6671 31.3362C11.7458 31.2529 11.8106 31.1604 11.8106 31.1373C11.8106 31.0817 12.2269 30.4849 12.2824 30.4618C12.301 30.4526 12.3195 30.4156 12.3195 30.3785C12.3195 30.3415 12.3518 30.3138 12.3889 30.3138C12.4259 30.3138 12.4582 30.2814 12.4582 30.2444C12.4582 30.2074 12.5508 30.064 12.6664 29.9252C12.7821 29.7817 12.8746 29.6522 12.8746 29.6383C12.8746 29.6245 12.9533 29.5134 13.0504 29.3931C13.2262 29.1803 13.6426 28.6159 13.7305 28.4725C13.7582 28.4262 13.8878 28.2551 14.0219 28.0839C14.1515 27.9127 14.2625 27.76 14.2625 27.7415C14.2625 27.723 14.3412 27.6028 14.4383 27.4732C14.5355 27.3437 14.6326 27.1679 14.6465 27.0846C14.665 27.0013 14.8408 26.7052 15.0351 26.4277C15.3867 25.9326 15.507 25.8077 15.4237 26.0205ZM3.31664 36.2262C3.33052 36.2493 3.43693 36.2678 3.55721 36.2725C3.67287 36.2725 3.79315 36.2956 3.82091 36.3234C3.84867 36.3511 3.9412 36.3743 4.01984 36.3743C4.10312 36.3743 4.18639 36.3928 4.20027 36.4205C4.21415 36.4436 4.28817 36.4668 4.36682 36.4668C4.44084 36.4668 4.53799 36.4853 4.58425 36.5084C4.62589 36.5315 4.91272 36.6102 5.21806 36.6796C5.5234 36.749 5.78247 36.823 5.79635 36.8369C5.81023 36.8554 5.96752 36.897 6.14332 36.9248C6.32375 36.9572 6.5088 36.9988 6.55969 37.0219C6.61058 37.0451 6.72161 37.0728 6.80951 37.0775C6.89741 37.0867 6.97606 37.1098 6.98069 37.1376C6.98994 37.1607 6.83727 37.2995 6.64297 37.4383C6.44866 37.5771 6.16183 37.7945 6.00453 37.9241C5.84261 38.049 5.5234 38.2988 5.28746 38.4792C5.05151 38.655 4.8387 38.8262 4.80632 38.8493C4.77856 38.8771 4.67215 38.9604 4.57038 39.0344C4.4686 39.113 4.35757 39.1963 4.31593 39.2287C4.21878 39.3027 3.15472 40.1308 2.7106 40.4685C1.85473 41.1301 1.59565 41.3244 1.54939 41.3244C1.52163 41.3244 1.54014 41.2088 1.59103 41.0561C1.64192 40.9127 1.70206 40.7276 1.72056 40.6536C1.9195 39.9874 2.01665 39.6682 2.04903 39.5895C2.06754 39.5387 2.12305 39.3721 2.16469 39.2194C2.20633 39.0668 2.25722 38.891 2.28035 38.8262C2.30348 38.7614 2.38675 38.4931 2.47003 38.2248C2.54867 37.9565 2.66433 37.591 2.71985 37.4152C2.77536 37.2347 2.84939 36.9988 2.88177 36.8831C3.00668 36.4344 3.12234 36.1892 3.21024 36.1892C3.2565 36.1892 3.30276 36.2077 3.31664 36.2262ZM46.4478 36.7536C46.4709 36.786 46.5172 36.9063 46.5542 37.0219C46.5866 37.1376 46.6514 37.3458 46.693 37.4846C46.7393 37.6234 46.8549 37.9888 46.9475 38.2942C47.0446 38.5995 47.1556 38.965 47.2019 39.1038C47.2482 39.2426 47.3592 39.5988 47.4517 39.8903C47.5442 40.1817 47.6923 40.649 47.7802 40.9265C47.8681 41.2041 47.9329 41.4401 47.9236 41.4493C47.9005 41.4725 47.4702 41.107 46.5265 40.2604C46.1425 39.918 45.777 39.5942 45.7122 39.5433C45.6475 39.4924 45.4532 39.3212 45.2774 39.1685C45.1016 39.0113 44.6991 38.6597 44.3798 38.3821C44.0606 38.1091 43.6396 37.739 43.4407 37.5586C42.9503 37.1145 42.9226 37.1376 44.2411 36.9757C45.1016 36.8693 45.4023 36.8323 45.814 36.7721C46.3923 36.6888 46.3969 36.6888 46.4478 36.7536ZM8.512 37.3041C8.96075 37.3504 10.0109 37.4291 10.2422 37.4337C10.307 37.4383 10.3995 37.4661 10.4458 37.5031C10.5337 37.5632 10.5244 37.5817 10.3163 37.8824C9.54367 39.0159 8.6878 40.2095 8.57214 40.3298C8.46574 40.4362 8.37784 40.4732 8.16965 40.4963C8.02161 40.5148 7.79955 40.5518 7.67001 40.5796C7.31378 40.649 6.00916 40.8803 5.26432 41.0006C4.88959 41.0607 4.50561 41.1301 4.08461 41.2041C3.86718 41.2458 3.48319 41.3105 3.22874 41.3475C2.9743 41.3892 2.69209 41.4401 2.59956 41.4632C2.40989 41.5141 2.18782 41.5233 2.18782 41.4817C2.18782 41.4031 2.71985 40.9358 2.9928 40.7831C3.04369 40.7507 3.17323 40.649 3.27501 40.5472C3.54333 40.2881 4.06611 39.844 4.09849 39.844C4.117 39.844 4.2049 39.7746 4.30205 39.6867C4.3992 39.5988 5.15329 39.002 5.9814 38.3636L7.48496 37.2024L7.77179 37.2347C7.93371 37.2486 8.2668 37.281 8.512 37.3041ZM43.6905 38.2294C44.3382 38.7938 44.9396 39.3212 45.0275 39.3999C45.1154 39.4785 45.5966 39.8995 46.0916 40.3298C46.5866 40.76 47.077 41.1949 47.1788 41.292L47.3638 41.4725L47.2019 41.4401C47.114 41.4262 46.8133 41.3568 46.5311 41.292C46.2535 41.2273 45.851 41.1347 45.6428 41.0885C45.43 41.0422 45.0877 40.9589 44.8795 40.9127C44.1393 40.7461 43.4314 40.5796 43.2464 40.5379C42.3258 40.3251 42.0297 40.2557 41.6272 40.1678C40.8916 40.0059 41.0165 40.1169 40.045 38.8262C39.0226 37.4661 39.092 37.5771 39.1799 37.4799C39.24 37.4152 39.3464 37.392 39.7211 37.3782C40.6186 37.3365 41.9464 37.2486 41.9695 37.2301C41.9788 37.2162 42.1083 37.207 42.2517 37.207H42.5154L43.6905 38.2294ZM11.4636 37.5632C11.5931 37.5725 12.1113 37.591 12.6202 37.6049C13.1291 37.6187 13.5871 37.6465 13.638 37.6696C13.7444 37.7159 14.1006 37.7529 14.7714 37.7899C15.0397 37.8038 15.2988 37.8315 15.3497 37.8547C15.4006 37.8732 15.8678 37.9148 16.3906 37.9472C16.9134 37.975 17.5287 38.0212 17.7554 38.0397C17.9867 38.0629 18.5696 38.1137 19.0508 38.1554C19.5365 38.1924 20.0038 38.2433 20.0917 38.271C20.1796 38.2942 20.5127 38.3266 20.8319 38.3404C21.6739 38.3728 22.4557 38.4422 22.5899 38.4839C22.687 38.5209 22.6639 38.5301 22.428 38.5579C22.2753 38.5718 21.9838 38.6088 21.7803 38.6365C21.5767 38.6643 21.2668 38.7059 21.0863 38.7337C20.9105 38.7568 20.6191 38.7984 20.4386 38.8262C20.1518 38.8678 19.7262 38.9234 18.6806 39.0575C18.5048 39.0806 18.2411 39.1223 18.1024 39.15C17.9636 39.1732 17.3992 39.2564 16.8533 39.3351C16.3073 39.4091 15.7429 39.4924 15.5995 39.5201C15.4607 39.5433 15.2803 39.5664 15.197 39.5664C15.1184 39.5664 14.9611 39.5849 14.8547 39.6127C14.6881 39.6497 13.6148 39.807 12.2501 39.9874C12.0743 40.0152 11.7828 40.0522 11.6024 40.0799C11.4266 40.1031 11.038 40.1401 10.7465 40.1632C10.4551 40.1863 9.97854 40.2372 9.68708 40.2789C9.40025 40.3205 9.1458 40.339 9.12267 40.3251C9.09954 40.3112 9.11805 40.2465 9.16431 40.1771C9.21057 40.1077 9.27072 40.0105 9.3031 39.9596C9.33548 39.9088 9.39563 39.807 9.44189 39.7376C9.48353 39.6682 9.69171 39.3675 9.90452 39.0668C10.1127 38.7707 10.3672 38.4098 10.4643 38.271C10.5615 38.1276 10.6771 37.9842 10.7188 37.9518C10.7604 37.9194 10.7928 37.8639 10.7928 37.8362C10.7928 37.7298 11.0796 37.4799 11.1583 37.5123C11.1999 37.5308 11.3387 37.554 11.4636 37.5632ZM38.8792 37.8177C39.0133 38.0027 39.3557 38.4653 39.6379 38.8493C40.2624 39.6959 40.3688 39.844 40.3503 39.8625C40.3318 39.8764 39.9016 39.8347 39.1521 39.7515C38.9115 39.7237 38.472 39.6774 38.1806 39.6543C37.8891 39.6312 37.4496 39.5942 37.209 39.5664C36.9685 39.5433 36.5614 39.5016 36.3069 39.4785C36.0525 39.4554 35.5343 39.3999 35.1503 39.3582C34.771 39.3166 34.2482 39.2611 33.9938 39.2379C32.9713 39.1315 32.6799 39.1038 32.2358 39.0621C31.9813 39.0344 31.5881 38.9974 31.3568 38.9696C31.1301 38.9465 30.5055 38.8817 29.9689 38.8308C28.8956 38.7244 28.3543 38.6597 27.9287 38.5949C27.7714 38.5671 27.5493 38.5486 27.4336 38.5486C27.2116 38.5486 27.0774 38.5162 27.0774 38.4561C27.0774 38.4376 27.3134 38.4098 27.6002 38.3913C27.8824 38.3774 28.2247 38.3543 28.3497 38.3404C28.4792 38.3266 28.8308 38.2988 29.1361 38.271C29.4415 38.2479 30.0475 38.197 30.4778 38.1554C30.9126 38.1184 31.5881 38.0675 31.9813 38.0397C32.8603 37.9842 33.087 37.9611 33.6468 37.9056C33.8874 37.8778 34.3592 37.8362 34.6877 37.813C35.0208 37.7853 35.6315 37.7344 36.0525 37.6928C36.4735 37.6557 37.0934 37.6049 37.4357 37.5771C37.7781 37.5493 38.0695 37.517 38.0834 37.5077C38.0927 37.4938 38.2222 37.4846 38.3656 37.4846H38.6293L38.8792 37.8177ZM25.1806 38.7013C25.2176 38.7152 25.4489 38.7383 25.6895 38.7568C25.9301 38.7707 26.3372 38.7984 26.5917 38.8216C26.8461 38.8447 27.3134 38.8863 27.6326 38.9141C27.9518 38.9372 28.4098 38.9789 28.6504 39.0066C29.0482 39.0483 29.4785 39.0945 30.9404 39.2472C31.5649 39.312 32.1432 39.3721 32.6984 39.423C33.1888 39.4739 33.6144 39.5155 34.734 39.6358C35.118 39.6774 35.6361 39.733 35.8905 39.7561C36.145 39.7792 36.5429 39.8209 36.7696 39.8394C37.0009 39.8625 37.4774 39.9134 37.8336 39.955C38.1898 39.9967 38.6756 40.0522 38.9162 40.0753C39.3325 40.1216 39.5222 40.1863 39.4436 40.265C39.4251 40.2835 39.2076 40.3529 38.9671 40.4177C38.4767 40.5472 38.1806 40.6258 37.5606 40.7924C36.9176 40.9682 36.8389 40.9913 36.5382 41.0515C36.3856 41.0838 36.2421 41.1255 36.2144 41.1394C36.1913 41.1579 36.108 41.1856 36.0293 41.1995C35.5806 41.2874 35.4649 41.3152 35.3585 41.3568C35.1318 41.4493 34.9098 41.5095 34.7895 41.5095C34.7247 41.5095 34.6553 41.528 34.6414 41.5557C34.6276 41.5789 34.5443 41.602 34.461 41.602C34.3824 41.602 34.2945 41.6205 34.2667 41.6436C34.2112 41.6945 33.8226 41.787 33.6607 41.787C33.5866 41.787 33.508 41.8055 33.4802 41.8287C33.434 41.8749 33.1656 41.9582 32.8834 42.0184C32.7817 42.0415 32.5226 42.1016 32.3052 42.1571C32.0877 42.2127 31.7824 42.2821 31.6251 42.3098C31.4678 42.3422 31.3244 42.3792 31.3059 42.4023C31.2874 42.4208 31.2318 42.4347 31.181 42.4347C31.1301 42.4347 30.9635 42.4764 30.8062 42.5273C30.0244 42.7771 29.7375 42.8511 29.571 42.8511C29.4738 42.8511 29.3906 42.8696 29.3906 42.8927C29.3906 42.9529 29.1315 43.0361 28.9557 43.0361C28.8724 43.0361 28.7892 43.0547 28.766 43.0778C28.7383 43.1009 28.6272 43.1426 28.5116 43.1657C27.9287 43.2998 27.6326 43.3924 27.5585 43.4571C27.5077 43.4988 27.2532 43.5867 26.9849 43.6607C26.4344 43.8041 26.2169 43.8643 26.0781 43.9151C26.0272 43.9337 25.9486 43.9337 25.907 43.9105C25.8561 43.8781 25.7959 43.8828 25.7312 43.9198C25.6062 43.9845 24.9771 43.9938 24.8938 43.929C24.7966 43.8596 24.3479 43.7486 23.1219 43.4942C22.997 43.4664 22.8166 43.4248 22.7287 43.4063C22.6408 43.3831 22.4511 43.3461 22.3123 43.3184C21.8312 43.2212 20.9475 43.0315 20.7856 42.9945C20.6977 42.9714 20.5219 42.9297 20.3924 42.902C19.6522 42.7493 18.5604 42.518 18.4031 42.4856C18.3013 42.4625 18.1024 42.4208 17.9636 42.3931C17.8248 42.3607 17.5241 42.2959 17.2928 42.245C17.0661 42.1942 16.7746 42.1294 16.6451 42.1016C16.5202 42.0785 16.3305 42.0369 16.2287 42.0137C16.1269 41.9906 15.9419 41.9536 15.8123 41.9258C15.6874 41.9027 15.3312 41.8287 15.0259 41.7593C14.4799 41.639 14.2671 41.5927 13.8832 41.5141C13.6565 41.4678 12.7913 41.2828 12.1113 41.1347C11.8568 41.0792 11.5654 41.0191 11.4636 40.9959C11.3618 40.9774 11.1351 40.9265 10.9547 40.8849C10.7789 40.8479 10.5291 40.7924 10.4088 40.7693C10.2839 40.7461 10.1497 40.7045 10.1081 40.6814C9.98779 40.612 9.95078 40.6212 11.3248 40.4408C12.1159 40.3344 12.2963 40.3066 12.9209 40.2141C13.1985 40.1678 14.133 40.0383 14.9333 39.9319C15.1138 39.9088 15.4052 39.8671 15.581 39.844C15.7614 39.8162 16.039 39.7792 16.2056 39.7561C17.3575 39.5988 17.9173 39.5155 18.0561 39.4924C18.144 39.4785 18.491 39.4461 18.8194 39.4276C19.1525 39.4091 19.5134 39.3675 19.629 39.3397C19.7447 39.3073 19.9945 39.2657 20.1842 39.2426C20.3739 39.2194 20.6561 39.1778 20.8088 39.1547C21.1789 39.0992 22.2383 38.9511 23.145 38.8262C23.3347 38.8031 23.6817 38.7661 23.9084 38.7522C24.1397 38.7383 24.3433 38.7059 24.3664 38.6828C24.4127 38.6411 25.0603 38.655 25.1806 38.7013ZM40.7158 40.5472C40.8361 40.7276 40.9194 40.8664 41.1784 41.3244C41.2247 41.4123 41.456 41.8102 41.692 42.208C41.9233 42.6059 42.1129 42.9529 42.1129 42.976C42.1129 43.1055 41.803 43.1379 39.1752 43.2721C38.176 43.323 37.1674 43.3785 35.8905 43.4525C35.4094 43.4803 34.535 43.5219 33.9475 43.545C32.9667 43.5821 32.0415 43.6376 29.7375 43.781C28.4884 43.8596 27.4938 43.8966 27.5308 43.8643C27.5585 43.8365 27.9055 43.7393 28.3265 43.6376C28.4144 43.6144 28.5625 43.5774 28.6504 43.5497C28.7383 43.5265 29.0945 43.4294 29.4368 43.3369C29.7792 43.2443 30.1262 43.1518 30.2002 43.1287C30.6351 43.0084 31.4632 42.7817 31.935 42.6568C32.1247 42.6105 32.3468 42.5504 32.4208 42.5273C32.4995 42.5041 32.7678 42.4347 33.0222 42.3653C33.5774 42.2173 33.6838 42.1895 34.04 42.0878C34.3454 42.0045 34.8404 41.8703 35.3354 41.7408C35.5158 41.6945 35.7333 41.6297 35.8212 41.602C35.9091 41.5742 36.0663 41.5326 36.1681 41.5141C36.2699 41.491 36.4781 41.4401 36.6308 41.3938C36.7834 41.3522 37.0564 41.2781 37.2322 41.2319C37.4126 41.1856 37.6624 41.1162 37.7873 41.0746C38.0094 41.0098 38.3841 40.908 39.0827 40.723C39.9895 40.487 40.3318 40.3899 40.3503 40.3714C40.3596 40.3621 40.4197 40.3529 40.4752 40.3529C40.5493 40.3529 40.6233 40.413 40.7158 40.5472ZM41.7105 40.5194C42.5895 40.7276 42.8254 40.7785 43.1909 40.8572C43.2973 40.8803 43.6258 40.9543 43.9172 41.0237C44.5371 41.1717 44.75 41.2226 45.0044 41.2781C46.2859 41.5604 46.582 41.639 46.7254 41.7084C46.8087 41.7547 46.9151 41.787 46.9613 41.787C47.0122 41.787 47.114 41.8194 47.1834 41.8564C47.2898 41.9073 47.299 41.9258 47.2297 41.9258C47.1788 41.9258 47.077 41.9443 46.9983 41.9721C46.9197 41.9952 46.6375 42.0692 46.3692 42.134C46.1008 42.1942 45.7492 42.2821 45.5827 42.3237C45.4161 42.3607 45.1987 42.4116 45.0969 42.4347C44.9951 42.4532 44.5788 42.555 44.1717 42.6614C43.7645 42.7678 43.3574 42.8511 43.2695 42.8511C43.177 42.8511 43.0845 42.8696 43.0613 42.8881C43.0336 42.9112 42.9226 42.9575 42.8115 42.9899C42.6126 43.0547 42.608 43.0547 42.5108 42.9205C42.4599 42.8465 42.2194 42.4532 41.9788 42.0415C41.7428 41.6344 41.5115 41.2365 41.4653 41.1625C41.0396 40.4408 40.9888 40.3205 41.1229 40.3714C41.1646 40.3853 41.4283 40.4547 41.7105 40.5194ZM9.28922 40.8849C9.46965 40.9265 9.69634 40.9774 9.79812 40.9959C10.2885 41.1023 10.5059 41.1532 10.6771 41.1949C10.7789 41.218 10.9871 41.255 11.1397 41.2781C11.3803 41.3105 11.7273 41.3799 12.759 41.6066C12.8885 41.6344 13.0782 41.676 13.1892 41.6991C13.2956 41.7223 13.4714 41.7593 13.5824 41.7824C13.6888 41.8055 13.8832 41.8472 14.0081 41.8703C14.1376 41.8981 14.3874 41.9536 14.5632 41.9952C14.7436 42.0369 14.9935 42.0924 15.1184 42.1155C15.5347 42.1988 16.4693 42.3977 17.2696 42.5735C17.5102 42.629 17.7924 42.6892 17.8942 42.7123C18.602 42.8511 18.8703 42.9205 18.912 42.9714C18.9397 42.9991 19.0322 43.0361 19.1201 43.05C19.2821 43.0778 19.5088 43.124 19.9066 43.2166C20.0223 43.2443 20.2305 43.286 20.3693 43.3137C20.508 43.3369 20.6746 43.3785 20.7394 43.4063C20.9152 43.4756 21.4657 43.5959 21.8034 43.6376C22.1689 43.6838 22.8305 43.8226 22.8767 43.8643C22.9276 43.9105 21.4934 43.8735 20.9846 43.8226C20.7532 43.7949 20.3276 43.7764 20.0362 43.7764C19.7493 43.7764 19.1803 43.7579 18.7732 43.7301C18.3661 43.707 17.5333 43.6607 16.9226 43.6329C16.312 43.6052 15.3543 43.5635 14.7945 43.5404C14.2348 43.5127 13.328 43.471 12.7821 43.4479C12.2362 43.4248 11.3942 43.3831 10.9084 43.36C10.4273 43.3322 9.66395 43.2906 9.21983 43.2675C8.7757 43.2443 8.35933 43.2212 8.29456 43.2166C8.22979 43.2166 7.90133 43.1934 7.55898 43.1703C7.21663 43.1472 6.92055 43.1148 6.89741 43.0917C6.86966 43.0639 7.6515 42.0276 8.14652 41.4401C8.22054 41.3522 8.54438 40.9543 8.64154 40.8248C8.69243 40.76 8.7757 40.7693 9.28922 40.8849ZM8.01236 40.9265C8.06325 40.9913 8.05862 41.0052 7.60061 41.5557C7.4757 41.713 6.97606 42.3468 6.72624 42.6753C6.51343 42.9575 6.40702 42.9991 6.1572 42.902C6.09706 42.8789 5.94902 42.8372 5.81948 42.8141C5.51414 42.7447 4.61201 42.5365 4.40845 42.481C4.32055 42.4579 4.10312 42.407 3.92269 42.3653C3.01593 42.1618 2.41914 41.9952 2.43302 41.9536C2.46077 41.8703 4.18639 41.5187 5.1024 41.4123C5.31984 41.3892 5.56041 41.3475 5.63906 41.3244C5.7177 41.2967 5.82411 41.2781 5.87962 41.2781C5.93051 41.2781 5.99066 41.255 6.00453 41.2319C6.01841 41.2041 6.14332 41.1856 6.27749 41.1856C6.40702 41.1856 6.53656 41.1671 6.55969 41.144C6.58745 41.1209 6.86503 41.0561 7.18425 41.0006C7.50346 40.9451 7.77179 40.8895 7.78104 40.8803C7.82268 40.8386 7.96147 40.8664 8.01236 40.9265Z" fill="currentColor" stroke="currentColor" stroke-width="0.5"/>
</svg>
