<svg width="35" height="35" viewBox="0 0 35 35" fill="none" xmlns="http://www.w3.org/2000/svg">
<path d="M15.7177 1.88376C13.8417 3.75974 13.8184 3.78309 12.7208 5.40219C12.1059 6.29737 11.5532 7.14584 11.4831 7.27039C11.4131 7.40272 11.0005 8.35238 10.5724 9.37989L9.79398 11.2481L9.39699 13.233L9 15.218V17.5454V19.8651L9.39699 21.8267L9.79398 23.7805L10.5724 25.6487C11.0005 26.6762 11.3975 27.6026 11.452 27.7115C11.5065 27.8205 12.0514 28.6378 12.6585 29.5408C13.7561 31.1599 13.7795 31.191 15.6477 33.067C16.6752 34.1023 17.5859 34.9741 17.6715 34.9975C17.7883 35.0364 18.232 34.6316 19.7188 33.1526L21.6181 31.2533L22.8091 29.5019L23.9923 27.7505L24.8252 25.7655L25.6503 23.7805L26.0395 21.7956L26.4365 19.8106V17.5143V15.218L26.0395 13.233L25.6425 11.2481L24.8174 9.26312L23.9923 7.27817L22.8091 5.52674L21.6181 3.77531L19.7188 1.88376C18.6835 0.848472 17.7805 8.54612e-07 17.7182 8.54612e-07C17.656 8.54612e-07 16.7608 0.848472 15.7177 1.88376ZM17.4847 2.49093V4.04775H17.3135C17.0799 4.04775 14.7291 3.72082 14.6824 3.6819C14.6435 3.64298 17.3446 0.934098 17.4224 0.934098C17.4614 0.934098 17.4847 1.63467 17.4847 2.49093ZM19.4307 2.29632C20.178 3.0436 20.7696 3.66633 20.7541 3.6819C20.684 3.73639 18.0296 4.09446 17.9907 4.05554C17.9284 3.99326 17.944 0.934098 18.014 0.934098C18.0452 0.934098 18.6835 1.54904 19.4307 2.29632ZM16.0291 4.39025C16.6985 4.49145 17.2745 4.59264 17.2979 4.60821C17.3212 4.63156 16.9009 5.68242 16.3716 6.93567L15.3986 9.21642L14.41 9.4733C13.8651 9.6212 13.398 9.72239 13.3747 9.69904C13.3436 9.66012 14.1687 4.49145 14.2621 4.219C14.2776 4.14895 14.3711 4.13338 14.5423 4.16451C14.6824 4.18787 15.3519 4.28906 16.0291 4.39025ZM21.6414 6.90453C21.8983 8.41465 22.0851 9.6679 22.0618 9.69125C22.0384 9.72239 21.5714 9.6212 21.0265 9.4733L20.0379 9.21642L19.0727 6.93567C18.5356 5.67464 18.123 4.63156 18.1464 4.60821C18.1931 4.5615 20.8942 4.14116 21.0654 4.15673C21.151 4.16451 21.2834 4.80281 21.6414 6.90453ZM13.2813 7.05243C13.1022 8.11886 12.9388 9.04517 12.9154 9.10744C12.8921 9.1775 12.6897 8.85057 12.4172 8.31346L11.958 7.40272L12.752 6.23509C13.1957 5.5968 13.5615 5.08304 13.5771 5.09083C13.5849 5.10639 13.4525 5.986 13.2813 7.05243ZM22.7234 6.29737L23.4707 7.41828L23.027 8.29789C22.7857 8.78829 22.5678 9.15415 22.5366 9.12301C22.5133 9.09187 22.3576 8.25897 22.1941 7.27817C22.0384 6.28958 21.8905 5.37884 21.8672 5.25429C21.8049 4.93514 21.8594 4.99742 22.7234 6.29737ZM17.4847 6.81112V7.86198L16.8464 8.29011C16.4961 8.52363 16.2003 8.70267 16.1848 8.6871C16.177 8.67931 16.4105 8.0955 16.7141 7.38715C17.0177 6.68657 17.2979 6.03271 17.3368 5.93151C17.3757 5.8381 17.4224 5.76026 17.4458 5.76026C17.4691 5.76026 17.4847 6.23509 17.4847 6.81112ZM18.6835 7.27039C19.0104 8.03323 19.2673 8.67153 19.2595 8.67931C19.2439 8.6871 18.9481 8.50806 18.5978 8.28232L17.9518 7.86198V6.79555C17.9518 6.16504 17.9829 5.76026 18.0218 5.79918C18.0607 5.84589 18.3565 6.50754 18.6835 7.27039ZM12.2148 9.05295C12.6508 9.9637 12.6508 9.97148 12.4795 10.0415C11.6388 10.3996 10.5568 10.7966 10.5568 10.7577C10.549 10.6098 11.6855 8.02545 11.7244 8.07215C11.7556 8.11107 11.9735 8.54698 12.2148 9.05295ZM24.3348 9.36432C24.6306 10.0805 24.8796 10.6954 24.8796 10.7343C24.8796 10.7888 22.8791 10.026 22.8091 9.94034C22.7779 9.90142 23.712 7.99431 23.7509 8.02545C23.7665 8.0488 24.0312 8.64818 24.3348 9.36432ZM18.7224 8.97511L19.6876 9.61341L20.9253 11.8864L22.1552 14.1671V17.5143V20.8615L20.9409 23.1033C20.2714 24.3332 19.6876 25.3763 19.6487 25.4308C19.6098 25.4853 19.1505 25.7966 18.6445 26.1236L17.7105 26.723L16.7374 26.0691L15.7566 25.4152L14.519 23.1267L13.2813 20.8381V17.5065V14.1827L14.5267 11.8864L15.7722 9.59784L16.7297 8.95954C17.2512 8.61704 17.6949 8.32903 17.7182 8.32903C17.7416 8.32903 18.1931 8.61704 18.7224 8.97511ZM14.7213 10.4852C14.519 10.8667 14.122 11.5984 13.834 12.1199L13.3202 13.0696L13.2968 11.6996C13.2891 10.9445 13.2968 10.314 13.3124 10.2984C13.3513 10.2595 14.8926 9.82358 15.0171 9.8158C15.0561 9.80801 14.9237 10.1116 14.7213 10.4852ZM21.2912 10.0415C21.7349 10.1661 22.1085 10.2828 22.1241 10.2984C22.1474 10.314 22.1474 10.9523 22.1396 11.7073L22.1163 13.0774L21.6726 12.2367C21.4235 11.7774 21.0265 11.0457 20.793 10.602C20.5517 10.1661 20.3882 9.80801 20.4193 9.80801C20.4583 9.80801 20.8475 9.91699 21.2912 10.0415ZM12.7597 11.2636C12.7909 11.684 12.8142 12.4624 12.8142 12.9995V13.9647L11.9035 15.3503C11.3975 16.1132 10.9694 16.7359 10.946 16.7359C10.876 16.7359 10.3155 11.4972 10.3778 11.4349C10.4479 11.3648 12.5029 10.5242 12.6274 10.5164C12.6819 10.5086 12.7286 10.7888 12.7597 11.2636ZM23.9066 10.9445C24.506 11.1858 25.0275 11.4038 25.0587 11.4427C25.1287 11.505 24.5683 16.7359 24.4982 16.7359C24.4671 16.7359 24.039 16.1132 23.5408 15.3503L22.6222 13.9647V13.4666C22.6222 12.5013 22.7234 10.5086 22.7701 10.5086C22.8013 10.5086 23.315 10.7032 23.9066 10.9445ZM10.1988 14.8911C10.3 15.7551 10.37 16.4712 10.3622 16.4868C10.3467 16.5024 10.1443 16.2377 9.91074 15.903L9.48262 15.288L9.63052 14.5563C9.91853 13.1318 9.96523 12.9528 9.99637 13.1396C10.0119 13.2408 10.1053 14.027 10.1988 14.8911ZM25.7281 14.1749L25.9539 15.288L25.5647 15.8641C25.3467 16.1754 25.1443 16.4401 25.121 16.4635C25.0898 16.479 25.1521 15.7084 25.2611 14.7432C25.3623 13.7857 25.4635 13.0151 25.479 13.0229C25.4946 13.0384 25.6036 13.5522 25.7281 14.1749ZM12.7987 18.8065L12.7753 20.1064L11.9424 18.8454C11.4754 18.1604 11.1017 17.561 11.1017 17.5143C11.1017 17.4676 11.4754 16.8682 11.9424 16.1832L12.7753 14.9222L12.7987 16.2221C12.8064 16.9305 12.8064 18.0981 12.7987 18.8065ZM23.5797 16.2844L24.4048 17.5143L23.5719 18.752C23.1126 19.437 22.7157 19.9975 22.6845 20.0052C22.6456 20.0052 22.6222 18.861 22.6222 17.4598C22.6222 16.0587 22.6534 14.9455 22.6845 14.9845C22.7234 15.0312 23.1282 15.615 23.5797 16.2844ZM9.97302 16.8527L10.4323 17.5143L9.97302 18.176C9.72393 18.5418 9.50597 18.8376 9.4904 18.8376C9.48262 18.8376 9.46705 18.2382 9.46705 17.5143C9.46705 16.7826 9.48262 16.191 9.4904 16.191C9.50597 16.191 9.72393 16.4868 9.97302 16.8527ZM25.9539 18.1682L25.9305 18.822L25.5024 18.2305C25.2689 17.9035 25.082 17.5844 25.082 17.5143C25.082 17.4443 25.2689 17.1251 25.5024 16.7982L25.9305 16.2066L25.9539 16.8604C25.9616 17.2185 25.9616 17.8101 25.9539 18.1682ZM11.9113 19.6939L12.8376 21.095L12.7987 22.7764C12.7753 23.6949 12.7364 24.4733 12.713 24.4967C12.6741 24.5278 10.4401 23.7027 10.3389 23.6171C10.2922 23.5859 10.8993 18.2927 10.946 18.2927C10.9694 18.2927 11.4053 18.9232 11.9113 19.6939ZM24.8407 20.9705C24.9886 22.2938 25.1132 23.4303 25.1132 23.5003C25.1132 23.5859 24.7785 23.7572 23.9689 24.0763C23.3306 24.3177 22.7935 24.52 22.7701 24.52C22.739 24.52 22.6923 23.7494 22.6612 22.7997L22.6067 21.0872L23.0504 20.41C24.1012 18.822 24.5294 18.2538 24.5527 18.4095C24.5605 18.4951 24.6928 19.6472 24.8407 20.9705ZM10.1988 20.122C10.0976 20.9783 10.0197 21.7645 10.0197 21.8656C10.0119 22.2237 9.9341 21.9746 9.70836 20.8615L9.48262 19.7561L9.91853 19.1412C10.1521 18.7987 10.3544 18.534 10.3622 18.5418C10.37 18.5574 10.3 19.2657 10.1988 20.122ZM25.5335 19.149L25.9694 19.7639L25.7359 20.8771C25.6036 21.4842 25.4868 21.9902 25.4712 22.0058C25.4635 22.0213 25.3623 21.2429 25.2611 20.2777C25.1521 19.3124 25.0742 18.5263 25.082 18.5263C25.0898 18.5263 25.2922 18.8065 25.5335 19.149ZM14.2387 23.6638C14.6902 24.4967 15.0561 25.1895 15.0405 25.1973C15.0327 25.2128 14.6357 25.1194 14.1687 25.0027L13.3202 24.7769L13.2968 23.3836C13.2891 22.5351 13.3046 22.0213 13.3513 22.068C13.3903 22.1147 13.7872 22.8309 14.2387 23.6638ZM22.1007 24.7536C22.0307 24.8081 20.4271 25.2362 20.396 25.205C20.3882 25.1895 20.7696 24.4655 21.2445 23.5859L22.1163 21.9902L22.1396 23.3446C22.1474 24.0919 22.1318 24.7224 22.1007 24.7536ZM12.6274 25.0883C12.6508 25.1116 12.4562 25.5553 12.1915 26.0769C11.9268 26.5984 11.7011 27.011 11.6855 26.9954C11.631 26.9487 10.5568 24.3566 10.5568 24.2865C10.5568 24.2242 12.534 24.9949 12.6274 25.0883ZM24.3815 25.5631C23.6887 27.2134 23.7587 27.1355 23.5252 26.6062C23.4162 26.3571 23.2061 25.9134 23.0582 25.6176L22.7857 25.0805L23.8132 24.6602C24.3815 24.4344 24.8485 24.2709 24.8641 24.2943C24.8796 24.3254 24.6617 24.8937 24.3815 25.5631ZM14.3944 25.5631C14.9471 25.711 15.4063 25.8433 15.4141 25.8589C15.5153 25.999 17.329 30.3893 17.2979 30.4204C17.2201 30.4905 14.3321 30.8952 14.2854 30.8408C14.2387 30.7863 13.3513 25.5787 13.3591 25.3919C13.3591 25.2751 13.2268 25.2517 14.3944 25.5631ZM21.6492 28.054C21.3924 29.5719 21.1666 30.833 21.1433 30.8485C21.0966 30.8952 18.2009 30.4827 18.1464 30.4204C18.0997 30.3737 19.9445 25.999 20.0613 25.8823C20.1235 25.82 21.8205 25.3218 22.0384 25.3062C22.0929 25.2985 21.9295 26.4116 21.6492 28.054ZM22.6845 28.8091C22.2486 29.4474 21.8828 29.9534 21.8672 29.9378C21.836 29.9144 22.3732 26.684 22.5133 25.9679C22.56 25.7655 22.6067 25.8356 23.0192 26.6996L23.4785 27.6493L22.6845 28.8091ZM13.2735 27.9373C13.4525 29.0271 13.5849 29.9222 13.5771 29.9378C13.5615 29.9456 13.1957 29.4396 12.752 28.7935L11.958 27.6337L12.4017 26.7385C12.6508 26.2481 12.8687 25.8745 12.8999 25.9056C12.9232 25.9368 13.0945 26.8475 13.2735 27.9373ZM16.9243 26.793L17.4847 27.1744V28.2331C17.4847 28.8169 17.4536 29.2684 17.4224 29.2294C17.368 29.1672 16.465 27.0966 16.177 26.396C16.1303 26.2637 16.1458 26.2715 16.9243 26.793ZM18.6835 27.7582C18.3565 28.5211 18.0607 29.1827 18.0218 29.2294C17.9829 29.2684 17.9518 28.8636 17.9518 28.2331V27.1666L18.5978 26.7463C18.9481 26.5206 19.2439 26.3415 19.2595 26.3493C19.2673 26.3571 19.0104 26.9954 18.6835 27.7582ZM20.7541 31.3467C20.793 31.3856 18.0919 34.0945 18.014 34.0945C17.944 34.0945 17.9284 31.0354 17.9907 30.9731C18.0296 30.9342 20.684 31.2922 20.7541 31.3467ZM17.4847 32.5377C17.4847 33.394 17.4614 34.0945 17.4224 34.0945C17.3446 34.0945 14.6435 31.3856 14.6824 31.3467C14.7369 31.3 16.8542 31.0042 17.1967 30.9887L17.4847 30.9809V32.5377Z" fill="currentColor"/>
</svg>
