<svg width="37" height="54" viewBox="0 0 37 54" fill="none" xmlns="http://www.w3.org/2000/svg">
<path d="M14.399 0.896088L11.2304 1.76511L8.1688 4.85348L5.10717 7.94185L3.19533 12.6212L1.28348 17.3005L0.641739 22.1537L0 27.0068L0.641739 31.8466L1.28348 36.6864L3.2488 41.446L5.21413 46.2055L8.24902 49.2271L11.2839 52.262L14.5193 53.131C16.3109 53.6123 17.8885 54 18.0489 54C18.2093 54 19.787 53.5989 21.5785 53.1176L24.8273 52.2218L27.8889 49.1335L30.9639 46.0451L32.8758 41.3658L34.7876 36.6864L35.4293 31.8734L36.0711 27.0603L35.4695 22.3141L34.8545 17.5679L32.9025 12.7549L30.9639 7.94185L27.9023 4.86685L24.854 1.77848L21.4715 0.882717C19.6265 0.388046 17.9821 -0.0130424 17.835 0.000328064C17.6879 0.0136986 16.1371 0.414783 14.399 0.896088ZM16.966 1.13674C16.966 1.17685 16.0702 2.54055 14.9605 4.15826C13.2492 6.69848 12.9551 7.05946 12.8883 6.7787C12.6209 5.70913 11.9123 2.46033 11.9524 2.42022C12.0059 2.36674 16.5916 1.08326 16.8055 1.06989C16.8858 1.06989 16.966 1.09663 16.966 1.13674ZM22.6213 8.0087C22.4208 8.1825 18.1425 10.6826 18.0355 10.6826C17.9286 10.6826 13.6503 8.1825 13.4498 8.0087C13.3562 7.92848 16.4579 3.20902 17.728 1.48435L18.0623 1.04315L20.3886 4.47913C21.6721 6.36424 22.6748 7.95522 22.6213 8.0087ZM21.6854 1.71163C22.9823 2.05924 24.0786 2.38011 24.1053 2.40685C24.1855 2.50043 23.1962 6.93913 23.0892 6.93913C22.9956 6.93913 19.1051 1.27044 19.1051 1.12337C19.1051 1.01641 19.1586 1.02979 21.6854 1.71163ZM11.7385 5.26794C11.9791 6.36424 12.2064 7.38033 12.2332 7.50065C12.3 7.72794 12.0995 7.74131 9.42554 7.74131C7.83456 7.74131 6.53772 7.7012 6.53772 7.64772C6.53772 7.59424 7.56717 6.51131 8.83728 5.2412C10.3079 3.75718 11.177 2.99511 11.2304 3.10207C11.2839 3.18229 11.5112 4.15826 11.7385 5.26794ZM29.5334 7.63435C29.5334 7.7012 28.2365 7.74131 26.6455 7.74131C23.9716 7.74131 23.7711 7.72794 23.8379 7.50065C23.8647 7.38033 24.0652 6.52467 24.2524 5.60218C24.4529 4.67968 24.6668 3.69033 24.7471 3.40956L24.8808 2.88815L27.2071 5.21446C28.4905 6.48457 29.5334 7.58087 29.5334 7.63435ZM11.3641 11.8324L10.4817 15.1347L9.27848 15.8967C8.62337 16.3112 7.58054 16.9663 6.97891 17.354L5.86924 18.0359V13.2897V8.54348H9.0512H12.2465L11.3641 11.8324ZM30.2018 13.2897V18.0359L29.1724 17.3808C28.5975 17.0332 27.5547 16.378 26.8595 15.9368L25.6027 15.1347L24.707 11.8458L23.8246 8.54348H27.0199H30.2018V13.2897ZM15.3349 10.0542L17.2467 11.1773L14.399 12.8485C12.8348 13.7576 11.5379 14.4929 11.5112 14.4796C11.4845 14.4662 11.8053 13.156 12.2332 11.565C12.8883 9.09163 13.022 8.70391 13.2091 8.81087C13.3295 8.86435 14.2787 9.42587 15.3349 10.0542ZM23.8379 11.5383C24.2524 13.0758 24.5733 14.3726 24.5599 14.4127C24.5331 14.4662 23.2363 13.7576 21.6721 12.8485L18.811 11.1773L20.9234 9.93391C22.0865 9.25207 23.0491 8.70391 23.0625 8.71729C23.0759 8.73065 23.4235 10.0008 23.8379 11.5383ZM5.02696 18.1161C5.00022 18.1428 4.34511 17.9557 3.56967 17.6883L2.1525 17.2203L2.88783 15.4555C3.28891 14.4796 3.93065 12.9287 4.305 11.9928L5.00022 10.2949L5.04033 14.1854C5.0537 16.3246 5.0537 18.1027 5.02696 18.1161ZM32.6351 14.0919C33.2902 15.7096 33.8651 17.0733 33.8918 17.1267C33.9186 17.1668 33.3571 17.4075 32.6485 17.6482C31.9265 17.8754 31.258 18.1027 31.1778 18.1428C31.0441 18.1829 31.004 17.3407 31.004 14.2122C31.0174 10.5088 31.0308 10.2548 31.2179 10.6826C31.3249 10.9366 31.9666 12.4741 32.6351 14.0919ZM21.5384 13.6774L24.9476 15.6561L26.445 21.3248L27.9558 26.9935L26.445 32.6622L24.9476 38.3309L21.4849 40.3363L18.0355 42.3551L14.5862 40.3497L11.1368 38.3309L9.62609 32.6622L8.12869 26.9801L9.62609 21.3114L11.1368 15.6561L14.5461 13.6507C16.4312 12.541 18.0088 11.6452 18.0489 11.6586C18.1024 11.672 19.6666 12.5811 21.5384 13.6774ZM9.13141 20.1884C8.58326 22.274 8.03511 24.3196 7.92815 24.7207L7.71424 25.456L6.85859 22.3141C6.39065 20.5895 6.0163 19.1054 6.02967 19.0118C6.06978 18.8648 10.0272 16.2711 10.1074 16.3513C10.1208 16.3647 9.69293 18.0893 9.13141 20.1884ZM28.3034 17.7685C29.266 18.3835 30.0681 18.945 30.0681 19.0252C30.0681 19.1054 29.6804 20.5895 29.2125 22.3141L28.3702 25.456L28.1563 24.7207C28.0493 24.3196 27.5146 22.3542 26.9931 20.3755C26.4717 18.3835 26.0038 16.6454 25.9637 16.4984C25.8968 16.2577 25.9102 16.2577 26.2043 16.4449C26.3781 16.5652 27.3274 17.1535 28.3034 17.7685ZM3.48946 18.4637C4.21141 18.7043 4.79967 18.945 4.79967 19.0118C4.79967 19.1589 1.13641 25.1084 1.08293 25.0549C1.04283 25.0148 1.81826 18.8247 1.92522 18.33C1.96533 18.1696 2.03217 18.0359 2.08565 18.0359C2.13913 18.0359 2.7675 18.223 3.48946 18.4637ZM34.5737 21.3783C34.801 23.1832 35.0015 24.7741 35.0015 24.9078C35.0149 25.0549 34.1726 23.7982 33.1298 22.127C32.0067 20.3087 31.2981 19.0252 31.365 18.9584C31.5388 18.7846 33.7047 18.0492 33.9453 18.076C34.0924 18.1027 34.2261 18.838 34.5737 21.3783ZM6.37728 23.4773L7.32652 26.9801L6.36391 30.5364C5.8425 32.4884 5.3612 34.066 5.30772 34.0526C5.12054 33.9858 0.90913 27.1004 0.949239 26.9266C1.02946 26.579 5.26761 19.8007 5.34783 19.8942C5.4013 19.9343 5.86924 21.5521 6.37728 23.4773ZM35.1486 26.9935C35.1486 27.2742 30.7366 34.2398 30.6698 34.066C30.6297 33.959 30.1885 32.3279 29.6804 30.4428L28.7446 27.0068L29.6804 23.5575C30.1885 21.659 30.6297 20.0279 30.6698 19.921C30.7366 19.7472 35.1486 26.7127 35.1486 26.9935ZM8.97098 33.1702C9.61272 35.6035 10.1341 37.6089 10.1074 37.6357C10.0807 37.6624 6.17674 35.2291 6.02967 35.0821C5.98956 35.042 6.35054 33.5713 6.81848 31.8199C7.28641 30.0551 7.70087 28.6513 7.72761 28.678C7.76772 28.7182 8.32924 30.737 8.97098 33.1702ZM30.0414 34.9751C30.0013 35.1355 26.0439 37.7159 25.9637 37.6357C25.937 37.6089 28.0627 29.507 28.29 28.7984C28.3702 28.531 30.1083 34.6542 30.0414 34.9751ZM4.75956 34.8815C4.79967 35.042 4.4788 35.2024 3.46272 35.5366C2.71402 35.7773 2.05891 35.9243 2.00543 35.8575C1.91185 35.7639 1.69793 34.1863 1.0963 29.4C1.02946 28.8518 1.17652 29.039 2.86109 31.7397C3.87717 33.3574 4.73283 34.7746 4.75956 34.8815ZM34.6004 32.3279C34.3598 34.1729 34.1191 35.7505 34.0656 35.8308C33.9453 36.0313 31.2447 35.1489 31.2981 34.9216C31.3516 34.7077 34.9347 28.892 34.9881 28.9321C35.0149 28.9588 34.8411 30.4829 34.6004 32.3279ZM5.06706 39.7882C5.0537 43.4782 5.04033 43.7322 4.85315 43.3043C4.7462 43.0503 4.10446 41.5128 3.43598 39.8951C2.78087 38.2774 2.20598 36.9137 2.17924 36.8602C2.13913 36.7934 4.62587 35.8575 4.97348 35.8308C5.02696 35.8174 5.06706 37.6089 5.06706 39.7882ZM32.6485 36.3388C33.3571 36.5795 33.9186 36.8201 33.8918 36.8602C33.8651 36.9137 33.2902 38.2774 32.6351 39.8951C31.9666 41.5128 31.3249 43.0503 31.2179 43.3043C31.0308 43.7322 31.0174 43.4782 31.004 39.7748C31.004 36.6463 31.0441 35.804 31.1778 35.8441C31.258 35.8842 31.9265 36.1115 32.6485 36.3388ZM9.27848 38.0902L10.4817 38.8523L11.3641 42.1546L12.2465 45.4435H9.06456H5.86924V40.6973V35.9511L6.97891 36.6329C7.58054 37.0207 8.61 37.6758 9.27848 38.0902ZM30.2018 40.6973V45.4435H27.0199H23.8246L24.7203 42.1412L25.6027 38.8523L27.8622 37.4084C29.1189 36.6196 30.1484 35.9645 30.1751 35.9645C30.1885 35.9511 30.2018 38.0902 30.2018 40.6973ZM17.1264 42.7562C17.1799 42.7963 16.2841 43.3712 15.1477 44.0263C14.0113 44.6814 13.0621 45.1895 13.022 45.1493C12.9551 45.0959 11.4845 39.7079 11.4845 39.5341C11.4845 39.4539 16.8858 42.5423 17.1264 42.7562ZM23.8647 42.3551C23.4636 43.8525 23.1026 45.1092 23.0625 45.1493C23.0224 45.1761 22.0598 44.6814 20.9234 44.0263C19.787 43.3712 18.8912 42.8097 18.9313 42.7696C19.1318 42.569 24.5198 39.494 24.5599 39.5609C24.5733 39.6143 24.2658 40.8711 23.8647 42.3551ZM20.3217 44.5878C21.525 45.283 22.5545 45.9114 22.6079 45.9649C22.6748 46.0184 21.6721 47.6093 20.3886 49.4945L18.0623 52.9304L17.6077 52.3021C16.6585 50.9785 13.5033 46.2724 13.4632 46.112C13.423 45.9649 17.6612 43.3445 17.9821 43.3177C18.0757 43.3043 19.1185 43.8792 20.3217 44.5878ZM12.2866 46.2858C12.2866 46.4462 11.324 50.6442 11.2438 50.8314C11.1636 51.0453 10.7491 50.6843 8.82391 48.6655L6.51098 46.2457H9.3988C10.9898 46.2457 12.2866 46.259 12.2866 46.2858ZM29.5334 46.3526C29.5334 46.4061 28.4905 47.489 27.2071 48.7725C25.322 50.6442 24.8674 51.0453 24.8139 50.8448C24.7604 50.6977 24.5465 49.7217 24.3192 48.6522C24.092 47.5826 23.878 46.6066 23.8379 46.4729C23.7711 46.259 23.9716 46.2457 26.6455 46.2457C28.2365 46.2457 29.5334 46.2858 29.5334 46.3526ZM17.0195 52.9171C16.9793 52.9705 12.2866 51.7405 12.0727 51.6068C11.939 51.54 12.3535 49.3207 12.8749 47.2617C12.9551 46.9141 13.0888 47.0746 15.014 49.8688C16.1371 51.5133 17.0328 52.8903 17.0195 52.9171ZM23.6909 49.3875C23.9449 50.564 24.1321 51.5534 24.1053 51.5801C24.0117 51.6737 19.1987 52.9304 19.1452 52.877C19.1051 52.8502 19.9608 51.5133 21.0437 49.9223C22.1266 48.3313 23.0625 47.0746 23.116 47.1414C23.1695 47.1949 23.4235 48.211 23.6909 49.3875Z" fill="currentColor"/>
</svg>
