<svg width="42" height="42" viewBox="0 0 42 42" fill="none" xmlns="http://www.w3.org/2000/svg">
<path d="M4.24667 4.24667L0 8.47778V21V33.5222L4.24667 37.7533L8.47778 42H21H33.5222L37.7533 37.7533L42 33.5222V21V8.47778L37.7533 4.24667L33.5222 0H21H8.47778L4.24667 4.24667ZM32.3556 1.08889C32.3556 1.18222 32.1067 1.63333 31.8111 2.1L31.2667 2.95555H21H10.7333L10.1889 2.1C9.89333 1.63333 9.64444 1.18222 9.64444 1.08889C9.64444 0.98 13.1911 0.933331 21 0.933331C28.8089 0.933331 32.3556 0.98 32.3556 1.08889ZM9.31778 2.38L9.84667 3.29778L6.58 6.56444L3.29778 9.84666L2.41111 9.33333C1.92889 9.05333 1.49333 8.72667 1.44667 8.60222C1.33778 8.30667 8.21333 1.36889 8.55556 1.43111C8.68 1.46222 9.02222 1.88222 9.31778 2.38ZM37.1622 4.88445C39.4956 7.21778 40.6156 8.44667 40.5533 8.60222C40.5067 8.72667 40.0711 9.05333 39.5889 9.33333L38.7022 9.84666L35.4356 6.58C32.2933 3.43778 32.1689 3.29778 32.3556 2.94C32.8378 2.03778 33.3044 1.4 33.4911 1.4C33.6 1.4 35.2489 2.97111 37.1622 4.88445ZM30.6444 3.98222C30.6444 4.02889 30.4889 4.34 30.3022 4.66666L29.9444 5.28889H21H12.0556L11.7133 4.66666C11.5111 4.34 11.3556 4.02889 11.3556 3.98222C11.3556 3.92 15.6956 3.88889 21 3.88889C26.3044 3.88889 30.6444 3.92 30.6444 3.98222ZM10.8733 5.02444L11.2778 5.74L8.52444 8.49333C5.81778 11.2156 5.77111 11.2467 5.33556 11.06C5.10222 10.9667 4.72889 10.7489 4.51111 10.5778L4.12222 10.2822L7.15556 7.23333C8.82 5.56889 10.2511 4.21555 10.3289 4.24667C10.4067 4.27778 10.6556 4.62 10.8733 5.02444ZM34.8444 7.23333L37.8778 10.2822L37.4889 10.5778C37.2711 10.7489 36.8978 10.9667 36.6644 11.06C36.2289 11.2467 36.1822 11.2156 33.5067 8.54C32.0133 7.04667 30.8 5.77111 30.8 5.69333C30.8 5.47556 31.5778 4.2 31.7022 4.2C31.7644 4.2 33.18 5.56889 34.8444 7.23333ZM29.2444 6.31556C29.2444 6.56444 27.6578 9.00666 27.44 9.08444C27.1289 9.20889 14.8711 9.20889 14.56 9.08444C14.3422 9.00666 12.7556 6.56444 12.7556 6.31556C12.7556 6.26889 16.4733 6.22222 21 6.22222C25.5422 6.22222 29.2444 6.26889 29.2444 6.31556ZM12.6933 8.02666L13.58 9.52L11.5422 11.5422L9.52 13.58L8.01111 12.6933L6.50222 11.7911L9.11556 9.16222C10.5622 7.71555 11.76 6.53333 11.7756 6.53333C11.7911 6.53333 12.2111 7.20222 12.6933 8.02666ZM32.8844 9.16222L35.4978 11.7911L33.9889 12.6933L32.48 13.58L30.4578 11.5422L28.42 9.52L29.3067 8.02666C29.7889 7.20222 30.2089 6.53333 30.2244 6.53333C30.24 6.53333 31.4378 7.71555 32.8844 9.16222ZM2.1 10.1889L2.95556 10.7333V21V31.2667L2.1 31.8111C1.63333 32.1067 1.18222 32.3556 1.08889 32.3556C0.98 32.3556 0.933333 28.8089 0.933333 21C0.933333 13.1911 0.98 9.64444 1.08889 9.64444C1.18222 9.64444 1.63333 9.89333 2.1 10.1889ZM41.0667 21C41.0667 28.8089 41.02 32.3556 40.9111 32.3556C40.8178 32.3556 40.3667 32.1067 39.9 31.8111L39.0444 31.2667V21V10.7333L39.8689 10.1889C40.3044 9.89333 40.7711 9.66 40.88 9.66C41.02 9.64444 41.0667 12.0089 41.0667 21ZM29.82 12.1644L32.0444 14.3889V21V27.6111L29.8356 29.82L27.6111 32.0444H21H14.3889L12.18 29.8356L9.95556 27.6111V21V14.3889L12.1644 12.18L14.3889 9.95555H21H27.6111L29.82 12.1644ZM4.66667 11.6978L5.28889 12.0556V21V29.9444L4.66667 30.2867C4.34 30.4889 4.02889 30.6444 3.98222 30.6444C3.92 30.6444 3.88889 26.3044 3.88889 21C3.88889 15.6956 3.92 11.3556 3.98222 11.3556C4.02889 11.3556 4.34 11.5111 4.66667 11.6978ZM38.1111 21C38.1111 26.3044 38.08 30.6444 38.0178 30.6444C37.9711 30.6444 37.66 30.4889 37.3333 30.2867L36.7111 29.9444V21V12.0556L37.3022 11.7133C37.6133 11.5267 37.9244 11.3711 38.0022 11.3556C38.0644 11.3556 38.1111 15.6956 38.1111 21ZM7.7 13.5333C8.41556 13.9689 9.03778 14.42 9.08444 14.56C9.20889 14.8711 9.20889 27.1289 9.08444 27.44C9.00667 27.6578 6.56444 29.2444 6.31556 29.2444C6.26889 29.2444 6.22222 25.5267 6.22222 21C6.22222 16.4578 6.26889 12.7556 6.31556 12.7556C6.36222 12.7556 6.98444 13.1133 7.7 13.5333ZM35.7778 21C35.7778 25.5267 35.7311 29.2444 35.6844 29.2444C35.6378 29.2444 35 28.8867 34.2844 28.4511L32.9778 27.6733V21V14.3267L34.2689 13.5489C34.9689 13.1133 35.5911 12.7556 35.6689 12.7556C35.7311 12.7556 35.7778 16.4578 35.7778 21ZM11.5733 30.4733L13.58 32.4956L12.6778 34.0044L11.7911 35.4978L9.16222 32.8844C7.71556 31.4378 6.59556 30.2089 6.65778 30.1622C6.81333 30.0067 9.39556 28.4667 9.48889 28.4667C9.53556 28.4667 10.4689 29.3689 11.5733 30.4733ZM34.1756 29.4156C34.8756 29.8511 35.4667 30.2089 35.4667 30.2244C35.4667 30.24 34.2844 31.4378 32.8378 32.8844L30.2089 35.4978L29.3222 34.0044L28.42 32.4956L30.4267 30.4733C31.6867 29.2133 32.5111 28.4978 32.6511 28.5444C32.7756 28.5911 33.46 28.98 34.1756 29.4156ZM8.54 33.5067C11.2156 36.1822 11.2467 36.2289 11.06 36.6644C10.9667 36.8978 10.7489 37.2711 10.5933 37.4733L10.3133 37.8311L7.29556 34.7822C5.63111 33.1022 4.29333 31.6867 4.30889 31.6244C4.32444 31.5 5.47556 30.8 5.67778 30.8C5.77111 30.8 7.04667 32.0133 8.54 33.5067ZM37.1311 31.1889C37.4889 31.4067 37.8 31.64 37.8 31.7022C37.8 31.7644 36.4311 33.18 34.7667 34.8444L31.7178 37.8778L31.4222 37.4889C31.2511 37.2711 31.0333 36.8978 30.94 36.6644C30.7533 36.2289 30.7844 36.1822 33.46 33.5067C34.9533 32.0133 36.2289 30.8 36.3067 30.8C36.3844 30.8 36.7578 30.9711 37.1311 31.1889ZM6.59556 35.4511L9.84667 38.7022L9.33333 39.5889C9.05333 40.0711 8.72667 40.5067 8.60222 40.5533C8.30667 40.6622 1.36889 33.7867 1.43111 33.46C1.47778 33.2733 3.01778 32.2 3.26667 32.2C3.31333 32.2 4.80667 33.6622 6.59556 35.4511ZM39.6667 32.7133C40.1333 32.9933 40.5378 33.3356 40.5689 33.46C40.6311 33.7867 33.6933 40.6622 33.3978 40.5533C33.2733 40.5067 32.9467 40.0711 32.6667 39.5889L32.1533 38.7022L35.4044 35.4511C37.1933 33.6622 38.6867 32.2 38.7333 32.2C38.78 32.2 39.2 32.4333 39.6667 32.7133ZM27.44 32.9156C27.6578 32.9933 29.2444 35.4356 29.2444 35.6844C29.2444 35.7311 25.5422 35.7778 21 35.7778C16.4733 35.7778 12.7556 35.7311 12.7556 35.6844C12.7556 35.4667 14.3267 32.9933 14.5133 32.9311C14.7933 32.8067 27.1444 32.8067 27.44 32.9156ZM30.3022 37.3333C30.4889 37.66 30.6444 37.9711 30.6444 38.0178C30.6444 38.08 26.3044 38.1111 21 38.1111C15.6956 38.1111 11.3556 38.08 11.3556 38.0178C11.3556 37.9711 11.5111 37.66 11.7133 37.3333L12.0556 36.7111H21H29.9444L30.3022 37.3333ZM31.8111 39.9C32.1067 40.3667 32.3556 40.8178 32.3556 40.9111C32.3556 41.02 28.8089 41.0667 21 41.0667C13.1911 41.0667 9.64444 41.02 9.64444 40.9111C9.64444 40.8178 9.89333 40.3667 10.1889 39.9L10.7333 39.0444H21H31.2667L31.8111 39.9Z" fill="currentColor"/>
</svg>
