<svg width="35" height="35" viewBox="0 0 35 35" fill="none" xmlns="http://www.w3.org/2000/svg">
<path d="M34.751 4.99677L29.644 0.66691C29.607 0.629996 29.533 0.592822 29.496 0.592822H29.4591C29.385 0.555908 29.3481 0.555908 29.274 0.555908H6.14443C6.07034 0.555908 6.03343 0.555908 5.95934 0.592822H5.92242C5.88551 0.629737 5.81142 0.629737 5.77451 0.66691L0.704299 5.03391L0.630469 5.10774C0.630469 5.14466 0.593555 5.14466 0.593555 5.18183V5.21874C0.593555 5.25566 0.556641 5.25566 0.556641 5.29283V5.32974V5.44075V30.0136V30.1246V30.1616C0.556641 30.1985 0.556641 30.2356 0.593555 30.2356V30.2726C0.593555 30.3095 0.630469 30.3095 0.630469 30.3466C0.630469 30.3466 0.630469 30.3836 0.667383 30.3836L0.704297 30.4205L5.77424 34.7872C5.81115 34.8241 5.88524 34.8613 5.92216 34.8613H5.95907C6.03316 34.8982 6.07007 34.8982 6.14416 34.8982H29.2738C29.3479 34.8982 29.3848 34.8982 29.4589 34.8613H29.4958C29.5327 34.8244 29.6068 34.8244 29.6437 34.7872L34.7513 30.4579C34.8623 30.3469 34.9364 30.1987 34.9364 30.0508L34.9361 5.44088C34.9361 5.25605 34.862 5.10777 34.751 4.99677ZM24.722 9.4748C23.1677 9.4748 21.6135 9.25279 19.9851 8.73471C21.7985 8.25354 23.6118 7.29143 25.4252 5.81126C25.055 7.14327 24.8331 8.36451 24.722 9.4748ZM10.3632 9.4748C10.3263 8.36451 10.1412 7.18041 9.84509 5.88508C11.6214 7.40245 13.4348 8.36458 15.2852 8.77166C13.583 9.32666 11.9546 9.54861 10.3632 9.4748ZM7.95783 15.988C7.73583 13.7306 6.99571 11.5841 5.81141 9.69684C6.95857 10.1039 8.1058 10.4 9.29017 10.511C9.25325 12.8054 8.69792 14.6188 7.95783 15.988ZM7.92092 19.3927C8.69821 20.7991 9.32727 22.6123 9.40108 24.9438C8.10569 25.0917 6.81063 25.3878 5.55245 25.869C6.84757 23.8707 7.62479 21.6502 7.92092 19.3927ZM15.5074 26.7202C13.694 27.2013 11.8808 28.1635 10.0304 29.6436C10.3265 28.3113 10.4744 27.09 10.5116 25.9798C12.14 25.9062 13.8052 26.1652 15.5074 26.7202ZM17.728 26.3502C15.2485 25.314 12.8429 24.8329 10.5486 24.8701C10.4376 21.6874 9.36421 19.3559 8.21705 17.7277C9.36421 16.1365 10.3635 13.8049 10.4376 10.5852H10.9188C13.1394 10.5852 15.4337 10.1041 17.7652 9.10507C20.0967 10.1043 22.3911 10.5852 24.6115 10.5852H24.6484C24.4633 13.5084 25.0184 15.8769 26.3137 17.727C25.0555 19.5404 24.5374 21.9089 24.7594 24.8694C22.5017 24.8325 20.1332 25.3141 17.728 26.3502ZM24.8704 25.9801C25.0183 27.0904 25.2406 28.2745 25.5736 29.5698C23.7973 28.0896 21.9839 27.0903 20.1336 26.6832C21.7619 26.1651 23.3533 25.9432 24.8704 25.9801ZM26.5729 19.5038C26.9059 21.5761 27.8311 23.6116 29.3115 25.6471C28.2012 25.2769 27.0541 25.018 25.87 24.907C25.6846 22.7606 25.9438 20.9843 26.5729 19.5038ZM26.5729 15.9881C25.8697 14.508 25.5736 12.6576 25.7218 10.5481C26.943 10.4371 28.1643 10.1779 29.3485 9.77077C27.8311 11.8062 26.9059 13.8789 26.5729 15.9881ZM25.8328 9.43777C25.9807 8.14238 26.2768 6.69916 26.7211 5.18205L30.2739 8.21679C28.8303 8.88279 27.3502 9.28981 25.8328 9.43777ZM17.3211 7.95761C14.9527 7.92069 12.5842 6.81044 10.2157 4.73803H24.9816C22.354 6.9214 19.8005 8.03169 17.3211 7.95761ZM9.25352 9.40089C7.84717 9.2158 6.5149 8.84589 5.18257 8.21653L8.55031 5.18179C8.9574 6.7363 9.1794 8.14271 9.25352 9.40089ZM4.73862 10.0669C6.07088 12.1764 6.84817 14.5449 6.92199 17.0613C7.03299 19.8738 6.25598 22.6124 4.73862 25.0549V10.0669ZM9.40148 26.0541C9.36457 27.3123 9.1423 28.7186 8.69827 30.2729L5.18264 27.2382C6.58898 26.6091 7.99513 26.202 9.40148 26.0541ZM18.1352 27.4974C20.5037 27.5343 22.8722 28.6445 25.2406 30.7169H10.4747C13.1023 28.5336 15.6559 27.4605 18.1352 27.4974ZM25.9808 26.0541C27.4241 26.202 28.8674 26.6091 30.2737 27.2384L26.9432 30.2732C26.4989 28.7187 26.1658 27.3123 25.9808 26.0541ZM30.7177 25.647C28.6454 23.0565 27.572 20.4289 27.572 17.8014C27.572 15.1369 28.645 12.4723 30.7177 9.84484V25.647ZM31.2358 7.58739L27.2759 4.18271C27.9791 3.4795 28.6822 2.70255 29.3854 1.88832L33.5302 5.44116C32.6791 6.1441 31.9021 6.84724 31.2358 7.58739ZM26.2028 3.62773H9.0684C8.47622 3.03555 7.88403 2.36955 7.29211 1.62946L28.0903 1.62921C27.4612 2.36955 26.8321 3.03555 26.2028 3.62773ZM6.0708 1.88838C6.69989 2.73949 7.36619 3.47957 8.03219 4.18278L4.25738 7.58745C3.59138 6.81017 2.81409 6.10729 1.96299 5.44103L6.0708 1.88838ZM1.62972 6.55125C2.3698 7.14342 3.03607 7.80943 3.62799 8.54951V26.6461C3.03581 27.3862 2.3698 28.1263 1.62972 28.7925V6.55125ZM4.14635 27.7935L8.2173 31.3091C7.51409 32.0123 6.81095 32.7893 6.10774 33.6035L1.92585 30.0141C2.74001 29.3108 3.48009 28.5705 4.14635 27.7935ZM9.25344 31.8272H26.3878C26.98 32.4194 27.5722 33.0854 28.1641 33.8255L7.36599 33.8257C7.99509 33.0854 8.62411 32.4194 9.25344 31.8272ZM29.3854 33.5666C28.7564 32.7524 28.0901 31.9754 27.461 31.2722L31.2358 27.8675C31.939 28.5707 32.716 29.3108 33.5302 30.0139L29.3854 33.5666ZM31.828 26.9052V8.58659C32.4202 7.92059 33.0862 7.2912 33.8263 6.6252V28.8296C33.0862 28.2005 32.4202 27.5715 31.828 26.9052Z" fill="currentColor"/>
</svg>
