<svg width="35" height="35" viewBox="0 0 35 35" fill="none" xmlns="http://www.w3.org/2000/svg">
<g clip-path="url(#clip0_400_40)">
<path d="M0.165186 0.165186C-0.055062 0.385434 -0.055062 34.6146 0.165186 34.8348C0.385434 35.0551 34.6146 35.0551 34.8348 34.8348C35.0551 34.6146 35.0551 0.385434 34.8348 0.165186C34.6146 -0.0550618 0.385434 -0.0550618 0.165186 0.165186ZM32.8267 0.877753C32.8785 0.916621 32.153 1.40894 31.2202 1.97899L29.5359 2.98954H17.5H5.46409L3.77984 1.97899C2.84703 1.40894 2.12151 0.916621 2.17333 0.877753C2.27698 0.761151 32.723 0.761151 32.8267 0.877753ZM3.92236 2.96363C5.28271 3.76689 5.11429 3.57255 7.01879 6.81149L7.32972 7.32972L6.81149 7.01879C6.52647 6.85036 5.6973 6.371 4.98473 5.9305L3.6762 5.15316L2.95068 3.9094C2.54905 3.22275 2.05673 2.40653 1.87535 2.0956L1.52554 1.52554L2.0956 1.87535C2.40653 2.05673 3.22275 2.54905 3.92236 2.96363ZM33.1117 2.10855C32.9303 2.41949 32.451 3.22275 32.0364 3.92236C31.2331 5.28271 31.4274 5.11429 28.1885 7.01879L27.6703 7.32972L27.9812 6.81149C28.1496 6.52647 28.629 5.71025 29.0565 4.99769L29.8339 3.70211L31.6088 2.63974C32.5805 2.05673 33.3838 1.57736 33.4097 1.56441C33.4356 1.56441 33.306 1.81057 33.1117 2.10855ZM2.98954 17.513V29.5359L1.97899 31.2202C1.40894 32.153 0.91662 32.8785 0.877753 32.8267C0.761151 32.723 0.761151 2.27698 0.877753 2.17333C0.929576 2.12151 1.4219 2.84703 1.97899 3.7928L2.98954 5.50296V17.513ZM34.2129 17.487C34.2129 25.8824 34.1741 32.7878 34.1222 32.8267C34.0834 32.8785 33.5911 32.153 33.021 31.2202L32.0105 29.5359V17.5V5.47705L33.021 3.7928C33.5651 2.87294 34.0575 2.13446 34.1222 2.17333C34.1741 2.19924 34.2129 9.09171 34.2129 17.487ZM26.3747 3.89645C26.4395 4.00009 17.9146 6.87627 17.5 6.87627C17.0595 6.87627 8.44392 3.97418 8.58643 3.87054C8.83259 3.72802 26.2711 3.74098 26.3747 3.89645ZM10.8407 5.5807C13.2376 6.371 15.2457 7.03174 15.2716 7.07061C15.3105 7.10948 15.3105 7.1613 15.2846 7.18721C15.1809 7.29086 8.96215 8.08116 8.78077 8.00342C8.69008 7.96456 8.1848 7.21312 7.65362 6.34509C7.13539 5.46409 6.61716 4.60901 6.51351 4.44059C6.40986 4.28512 6.35804 4.15556 6.39691 4.15556C6.42282 4.15556 8.43096 4.80335 10.8407 5.5807ZM27.45 6.16371C26.867 7.13539 26.3099 7.96456 26.2192 8.00342C26.0378 8.08116 19.8191 7.29086 19.7154 7.18721C19.6895 7.1613 19.6895 7.10948 19.7284 7.07061C19.8709 6.91514 28.4476 4.19443 28.4865 4.28512C28.4994 4.33694 28.046 5.17907 27.45 6.16371ZM6.16371 7.54997C7.14834 8.13298 7.96456 8.69008 8.00342 8.78077C8.04229 8.88442 7.88682 10.3355 7.66657 12.0327C7.44633 13.7169 7.26495 15.1421 7.26495 15.1939C7.26495 15.8805 5.80094 11.7995 4.33694 7.03174C4.24625 6.73376 4.22034 6.4876 4.28512 6.4876C4.33694 6.4876 5.19202 6.96696 6.16371 7.54997ZM30.6501 7.03174C30.2096 8.49574 27.9812 15.2198 27.9294 15.2716C27.8905 15.3105 27.8387 15.3105 27.8128 15.2846C27.7221 15.1939 26.9448 9.19535 26.9836 8.91033C27.0095 8.71599 27.5407 8.32732 28.7715 7.57588C29.7302 6.99287 30.5853 6.50056 30.676 6.50056C30.7797 6.4876 30.7797 6.63011 30.6501 7.03174ZM21.905 8.31436C24.1463 8.61235 26.0249 8.88442 26.0767 8.93624C26.1156 8.97511 26.4006 10.9185 26.7115 13.2635L27.2686 17.5L26.7115 21.7495C26.4006 24.0815 26.1156 26.0249 26.0767 26.0767C26.0249 26.1156 24.0815 26.4006 21.7495 26.7115L17.5 27.2686L13.2635 26.7115C10.9185 26.4006 8.97511 26.1156 8.92328 26.0767C8.88442 26.0249 8.59939 24.0815 8.28845 21.7495L7.73135 17.5L8.28845 13.2635C8.59939 10.9185 8.88442 8.97511 8.92328 8.93624C9.02693 8.83259 16.4117 7.82204 17.2409 7.79613C17.5648 7.78318 19.6636 8.01638 21.905 8.31436ZM31.2331 17.5C31.2331 22.3066 31.1813 26.3229 31.1295 26.4136C31.0258 26.5561 28.1237 17.9275 28.1237 17.5C28.1237 17.0725 31.0258 8.44392 31.1295 8.58643C31.1813 8.67712 31.2331 12.6934 31.2331 17.5ZM5.45114 12.9396C6.22848 15.3623 6.87627 17.4093 6.87627 17.5C6.87627 17.8498 4.01305 26.4395 3.89645 26.4395C3.81871 26.4395 3.76689 23.1487 3.76689 17.5C3.76689 11.8513 3.81871 8.56052 3.89645 8.56052C3.96123 8.56052 4.66084 10.5298 5.45114 12.9396ZM7.30381 20.1818C7.34268 20.4539 7.53702 21.9179 7.73135 23.4467C8.09411 26.1804 8.09411 26.2192 7.835 26.4006C7.36859 26.7504 4.40172 28.5124 4.28512 28.5124C4.14261 28.5124 4.14261 28.5124 5.76208 23.5503C6.46169 21.4386 7.07061 19.7025 7.13539 19.7025C7.18721 19.7025 7.26495 19.9227 7.30381 20.1818ZM28.2403 20.5057C28.3828 20.9592 29.0306 22.9414 29.6784 24.9366C30.3262 26.9188 30.8315 28.5642 30.8185 28.5772C30.7537 28.6549 27.152 26.4524 27.0354 26.2711C26.9577 26.1545 27.0484 25.0662 27.2686 23.3819C27.7351 19.7932 27.748 19.7025 27.8646 19.7025C27.9294 19.7025 28.0849 20.0652 28.2403 20.5057ZM12.227 27.3593C13.8853 27.5796 15.2587 27.7869 15.2846 27.8128C15.3105 27.8387 15.3105 27.8905 15.2716 27.9294C15.1939 28.0201 6.46169 30.8574 6.40986 30.8185C6.39691 30.7926 6.78558 30.106 7.2779 29.2897C7.77022 28.4735 8.28845 27.6055 8.43096 27.3723C8.58643 27.1132 8.78077 26.9577 8.94919 26.9577C9.10466 26.9577 10.5687 27.1391 12.227 27.3593ZM27.4371 28.8233C28.033 29.808 28.5124 30.6631 28.4865 30.7149C28.4476 30.8185 19.8839 28.0849 19.7284 27.9294C19.6895 27.8905 19.6895 27.8387 19.7154 27.7998C19.8191 27.7091 25.3123 26.9836 25.8435 27.0095L26.3617 27.0225L27.4371 28.8233ZM7.00583 28.2144C5.12724 31.4274 5.26976 31.2331 3.92236 32.0364C3.22275 32.451 2.40653 32.9433 2.0956 33.1247L1.52554 33.4745L1.87535 32.9044C2.05673 32.5935 2.54905 31.7773 2.96363 31.0776L3.70211 29.8339L5.45114 28.7845C6.40986 28.2015 7.22608 27.7351 7.23903 27.7351C7.26495 27.7351 7.1613 27.9553 7.00583 28.2144ZM30.0023 29.0565C31.2979 29.8339 31.2979 29.8339 32.0364 31.0776C32.451 31.7773 32.9433 32.5935 33.1247 32.9044L33.4745 33.4745L32.9044 33.1247C32.5935 32.9433 31.7773 32.451 31.0776 32.0364C29.7173 31.2331 29.8857 31.4274 27.9812 28.1885L27.6703 27.6703L28.1885 27.9812C28.4735 28.1496 29.2897 28.629 30.0023 29.0565ZM22.0604 29.5489C24.4961 30.3521 26.4136 31.0388 26.3747 31.1036C26.2711 31.272 8.72895 31.272 8.6253 31.1036C8.56052 30.987 16.9299 28.1626 17.4223 28.1367C17.5648 28.1237 19.6507 28.7715 22.0604 29.5489ZM31.2072 33.021C32.153 33.5781 32.8785 34.0704 32.8267 34.1222C32.723 34.2388 2.27698 34.2388 2.17333 34.1222C2.12151 34.0834 2.82112 33.5911 3.74098 33.034L5.38636 32.0364L17.4482 32.0234L29.497 32.0105L31.2072 33.021Z" fill="currentColor"/>
</g>
<defs>
<clipPath id="clip0_400_40">
<rect width="35" height="35" fill="white"/>
</clipPath>
</defs>
</svg>
