<svg width="35" height="35" viewBox="0 0 35 35" fill="none" xmlns="http://www.w3.org/2000/svg">
<g clip-path="url(#clip0_400_17)">
<mask id="mask0_400_17" style="mask-type:luminance" maskUnits="userSpaceOnUse" x="8" y="0" width="21" height="34">
<path d="M8 33.8V0L23.5 1.4L28.6 17L23.5 32.4L8 33.8Z" fill="white"/>
</mask>
<g mask="url(#mask0_400_17)">
<path d="M8 33.8008L11.5 25.3008" stroke="currentColor" stroke-width="0.7"/>
</g>
<path d="M8 33.8V0L23.5 1.4L28.6 17L23.5 32.4L8 33.8Z" stroke="currentColor" stroke-width="0.7" stroke-miterlimit="10"/>
<mask id="mask1_400_17" style="mask-type:luminance" maskUnits="userSpaceOnUse" x="8" y="0" width="21" height="34">
<path d="M8 33.8V0L23.5 1.4L28.6 17L23.5 32.4L8 33.8Z" fill="white"/>
</mask>
<g mask="url(#mask1_400_17)">
<path d="M8.1001 0L11.5001 8.7" stroke="currentColor" stroke-width="0.7"/>
</g>
<path d="M8 33.8V0L23.5 1.4L28.6 17L23.5 32.4L8 33.8Z" stroke="currentColor" stroke-width="0.7" stroke-miterlimit="10"/>
<mask id="mask2_400_17" style="mask-type:luminance" maskUnits="userSpaceOnUse" x="8" y="0" width="21" height="34">
<path d="M8 33.8V0L23.5 1.4L28.6 17L23.5 32.4L8 33.8Z" fill="white"/>
</mask>
<g mask="url(#mask2_400_17)">
<path d="M23.4001 32.2996L21.8 24.0996" stroke="currentColor" stroke-width="0.7"/>
</g>
<path d="M8 33.8V0L23.5 1.4L28.6 17L23.5 32.4L8 33.8Z" stroke="currentColor" stroke-width="0.7" stroke-miterlimit="10"/>
<mask id="mask3_400_17" style="mask-type:luminance" maskUnits="userSpaceOnUse" x="8" y="0" width="21" height="34">
<path d="M8 33.8V0L23.5 1.4L28.6 17L23.5 32.4L8 33.8Z" fill="white"/>
</mask>
<g mask="url(#mask3_400_17)">
<path d="M23.4 1.40039L21.7 9.60039" stroke="currentColor" stroke-width="0.7"/>
</g>
<path d="M8 33.8V0L23.5 1.4L28.6 17L23.5 32.4L8 33.8Z" stroke="currentColor" stroke-width="0.7" stroke-miterlimit="10"/>
<path d="M8 33.8V0L23.5 1.4L28.6 17L23.5 32.4L8 33.8Z" stroke="currentColor" stroke-width="0.7"/>
<path d="M9.69995 4.19922L22.5 5.39922L26.4 16.8992L22.7 28.1992L9.69995 29.5992V4.19922Z" stroke="currentColor" stroke-width="0.7"/>
<path d="M21.6999 9.49961L24.1999 16.8996L21.7999 24.2996L11.3999 25.1996V8.59961L21.6999 9.49961Z" stroke="currentColor" stroke-width="0.7"/>
<path d="M24.3 16.9004H28.6" stroke="currentColor" stroke-width="0.7"/>
</g>
<defs>
<clipPath id="clip0_400_17">
<rect width="35" height="35" fill="white"/>
</clipPath>
</defs>
</svg>
