<svg width="37" height="54" viewBox="0 0 37 54" fill="none" xmlns="http://www.w3.org/2000/svg">
<path d="M14.7259 2.64638L11.6391 5.31896L8.33845 10.2098L5.03781 15.1006L3.10019 20.6596L1.17594 26.2319L0.587968 30.5615L0 34.8911L0.948766 39.5814L1.88417 44.2584L3.47435 46.6103L5.0779 48.9488L7.84402 50.7662L10.6101 52.5835L14.325 53.2918L18.0399 54L21.6746 53.2918C25.7904 52.5034 25.3761 52.6771 28.8104 50.392L30.9886 48.9488L32.5787 46.6103L34.1689 44.2718L35.1043 39.5681L36.0531 34.8643L35.4651 30.5481L34.8772 26.2319L32.9395 20.6462C31.8839 17.5727 30.895 14.9002 30.7614 14.6864C30.6278 14.4859 29.1445 12.281 27.4474 9.79553L24.3739 5.29224L21.3272 2.65974C19.6568 1.21655 18.1869 0.0272522 18.0533 0.000526428C17.9063 -0.0261993 16.6635 0.962654 14.7259 2.64638ZM20.0043 5.1987C21.0466 7.33676 21.9018 9.14075 21.9018 9.1942C21.9018 9.24765 21.0332 10.0361 19.9642 10.9314L18.0265 12.5617L16.0889 10.9314C15.0199 10.0361 14.1513 9.26102 14.1513 9.20757C14.1379 9.04721 17.9464 1.31009 18.0265 1.31009C18.08 1.31009 18.962 3.06063 20.0043 5.1987ZM15.2203 5.18533C14.3785 6.88242 13.6569 8.2588 13.6168 8.2588C13.55 8.2588 12.6279 6.16082 12.521 5.7733C12.4809 5.61295 16.57 1.97824 16.6769 2.07178C16.717 2.0985 16.0488 3.50161 15.2203 5.18533ZM23.5722 5.69312C23.5722 5.86684 22.5165 8.2588 22.4363 8.2588C22.3428 8.2588 19.3628 2.24549 19.3628 2.07178C19.3628 2.01833 20.3116 2.78001 21.4742 3.78223C22.6234 4.78445 23.5722 5.65303 23.5722 5.69312ZM28.9173 13.4436C28.8906 13.4837 23.5989 9.72872 22.9842 9.24765C22.9441 9.20757 23.7726 7.16304 24.0666 6.61516C24.1735 6.41472 24.6011 6.9626 26.5788 9.88907C27.8884 11.8267 28.9307 13.4169 28.9173 13.4436ZM12.5478 7.85791C12.8551 8.60624 13.0956 9.22093 13.0689 9.24765C12.4275 9.75544 7.16251 13.4837 7.13579 13.4436C7.06897 13.3768 11.746 6.52162 11.8663 6.52162C11.9197 6.52162 12.2271 7.12295 12.5478 7.85791ZM15.6613 11.5461C16.5967 12.3211 17.3584 13.016 17.3584 13.0828C17.3584 13.2164 11.9732 19.3366 11.9063 19.2832C11.8395 19.2164 13.8039 10.1296 13.8841 10.1296C13.9241 10.1296 14.7259 10.771 15.6613 11.5461ZM23.2114 14.6329C23.7459 17.1184 24.1735 19.203 24.1735 19.2565C24.1735 19.3099 22.9441 17.9736 21.4341 16.2899C19.9241 14.5928 18.6947 13.1496 18.6947 13.0828C18.6947 12.9625 22.0221 10.1296 22.169 10.1296C22.2091 10.1296 22.6768 12.1608 23.2114 14.6329ZM11.8663 15.5549L10.7839 20.6061L9.01996 22.7575C8.04446 23.9335 6.89526 25.3366 6.46764 25.8711L5.66587 26.8466L5.63914 25.6038C5.61242 24.9223 5.63914 22.3433 5.70596 19.8845L5.7995 15.4213L9.34067 12.869C11.2916 11.4525 12.8952 10.3434 12.9219 10.3969C12.9353 10.4503 12.4676 12.7621 11.8663 15.5549ZM30.0799 15.3278C30.267 15.5149 30.3071 16.1964 30.3872 21.2208C30.4407 24.8021 30.4273 26.8466 30.3471 26.7664C30.2803 26.6862 29.3316 25.5504 28.2492 24.2275C27.1534 22.9045 26.0443 21.5549 25.7637 21.2208C25.2692 20.6195 25.2559 20.5527 24.1868 15.5683C23.5855 12.8022 23.1045 10.477 23.1045 10.3969C23.1045 10.2632 29.6255 14.8734 30.0799 15.3278ZM21.2336 17.2253C22.9307 19.1362 24.414 20.86 24.5209 21.0605C24.7614 21.5014 28.4496 35.1182 28.4496 35.5458C28.4496 35.9734 26.3784 43.5235 26.2314 43.6571C26.1646 43.7106 24.2937 44.499 22.0755 45.3943L18.0265 47.0379L13.991 45.3943C11.7593 44.499 9.88854 43.7106 9.82173 43.6571C9.75492 43.6037 9.20704 41.7462 8.60571 39.5413L7.50995 35.5191L9.47429 28.3165C10.5567 24.3611 11.5188 21.007 11.6257 20.86C12.0132 20.3255 17.933 13.7376 18.0265 13.7376C18.08 13.7376 19.5232 15.301 21.2336 17.2253ZM34.062 26.2453C34.062 26.3121 31.3761 27.3945 31.3226 27.3544C31.2959 27.3143 31.2291 25.1629 31.189 22.5571L31.1088 17.8133L32.5921 22.0226C33.3939 24.3344 34.062 26.2453 34.062 26.2453ZM4.87746 22.7175C4.83737 25.2297 4.75719 27.3143 4.73047 27.341C4.63693 27.4346 1.97771 26.2853 2.0178 26.1651C2.04452 26.1116 2.68594 24.2943 3.44763 22.1161C4.22268 19.9246 4.87746 18.1473 4.91755 18.1473C4.94427 18.1473 4.93091 20.2052 4.87746 22.7175ZM9.88854 23.9201C8.0311 30.7352 7.14915 33.9156 7.12242 33.8888C7.10906 33.8621 6.76163 32.5525 6.34738 30.9757C5.73268 28.5838 5.63914 28.076 5.78613 27.9156C5.87967 27.7954 6.90862 26.5392 8.07119 25.1228C9.23376 23.7197 10.1959 22.5571 10.2226 22.5571C10.236 22.5571 10.089 23.1718 9.88854 23.9201ZM28.1957 25.3633C29.2514 26.6461 30.2001 27.7954 30.2937 27.9156C30.4273 28.0893 30.3204 28.6372 29.7057 30.9891C29.3048 32.5659 28.944 33.8621 28.9307 33.8888C28.9039 33.9156 28.022 30.7486 26.1646 23.9068C25.7102 22.2498 25.5365 22.1161 28.1957 25.3633ZM3.2071 27.5816C3.82179 27.8488 4.38303 28.1161 4.43648 28.1695C4.5033 28.223 3.7817 29.3588 2.8463 30.6951C1.91089 32.018 1.12248 33.0871 1.08239 33.0603C1.02894 32.9935 1.69709 27.6083 1.80399 27.2608C1.87081 27.0337 1.95098 27.047 3.2071 27.5816ZM34.6233 29.9067C34.8237 31.4167 34.9841 32.7664 34.9573 32.9C34.944 33.0737 34.356 32.3387 33.2603 30.7619C32.3382 29.4524 31.5899 28.3165 31.5899 28.2497C31.5899 28.1027 33.7948 27.1138 34.062 27.1406C34.209 27.1673 34.3426 27.7954 34.6233 29.9067ZM6.06676 32.9534L6.72154 35.5458L5.87967 38.0313C5.41197 39.4077 4.98436 40.6104 4.93091 40.7039C4.83737 40.9044 1.00222 35.1984 1.00222 34.851C1.00222 34.7441 1.89753 33.3677 2.99329 31.8042L4.99772 28.9579L5.21153 29.6662C5.31843 30.0537 5.70596 31.537 6.06676 32.9534ZM33.1801 31.9646C34.2625 33.5013 35.1177 34.8376 35.1043 34.9178C35.0509 35.1316 31.336 40.8643 31.2558 40.8643C31.1623 40.8643 29.385 35.7596 29.385 35.4924C29.385 35.3855 29.7458 33.9022 30.1868 32.2051C30.6278 30.5214 30.9886 29.0782 30.9886 29.0247C30.9886 28.851 31.1222 29.0247 33.1801 31.9646ZM2.91311 39.2874C3.72825 40.5168 4.39639 41.5859 4.39639 41.6527C4.39639 41.7863 2.72603 43.2696 2.56568 43.2696C2.49886 43.2696 2.19152 41.9333 1.87081 40.2897C1.53673 38.6594 1.25611 37.2028 1.21602 37.0558C1.12248 36.6282 1.30956 36.8955 2.91311 39.2874ZM8.7527 43.1092C8.71261 43.136 5.59905 41.7061 5.50551 41.6126C5.46543 41.5859 6.68145 37.9779 7.01552 37.1227C7.05561 37.0158 7.46986 38.2986 7.93756 39.9957C8.40526 41.6794 8.76606 43.0825 8.7527 43.1092ZM29.8393 39.3275C30.2803 40.6104 30.6144 41.6794 30.5743 41.7061C30.3739 41.8531 27.3672 43.1627 27.3271 43.1226C27.2603 43.0558 28.8906 36.989 28.9841 36.989C29.0242 36.989 29.4117 38.0447 29.8393 39.3275ZM34.2357 40.0625C33.9017 41.7195 33.581 43.1226 33.5275 43.1894C33.4607 43.2562 33.0464 43.0023 32.5654 42.5881C32.0977 42.2006 31.6968 41.8665 31.6701 41.8398C31.6433 41.8264 32.0442 41.1583 32.552 40.3698C33.0732 39.5814 33.768 38.4857 34.1155 37.9512C34.4763 37.4166 34.7703 36.989 34.797 37.0158C34.8237 37.0425 34.5698 38.4055 34.2357 40.0625ZM7.36296 43.3364L9.14022 44.205L10.2894 46.5836C10.9309 47.8798 11.4386 48.9622 11.4253 48.9756C11.3852 49.0156 5.81286 48.3475 5.77277 48.294C5.63914 48.1604 5.39861 42.4678 5.51888 42.4678C5.55897 42.4678 6.38747 42.8553 7.36296 43.3364ZM30.5342 45.3809C30.4273 46.9444 30.3204 48.254 30.2937 48.294C30.2536 48.3208 29.1846 48.4678 27.9017 48.6148C26.6189 48.7617 25.3494 48.9221 25.0688 48.9622L24.561 49.0424L25.7102 46.7172C26.3516 45.4477 26.9396 44.3386 27.0198 44.2451C27.1801 44.0981 30.6278 42.4678 30.6812 42.5213C30.6946 42.5346 30.6278 43.8175 30.5342 45.3809ZM4.82401 45.7685C4.85073 46.5168 4.82401 47.0914 4.77055 47.0513C4.70374 47.0246 4.22268 46.3564 3.70152 45.568L2.75276 44.1515L3.27391 43.7507C3.55453 43.5235 3.96878 43.1761 4.19595 42.9756L4.59684 42.6148L4.69038 43.5101C4.73047 44.0046 4.79728 45.0201 4.82401 45.7685ZM32.3917 43.4299C32.8727 43.8041 33.2603 44.1382 33.2603 44.1783C33.2603 44.3119 31.3494 47.0112 31.2959 46.9578C31.2157 46.8776 31.4028 42.7351 31.483 42.7351C31.5097 42.7351 31.924 43.0424 32.3917 43.4299ZM13.6702 46.0758C15.4074 46.7707 16.8239 47.372 16.8239 47.4121C16.8239 47.4923 12.6814 48.882 12.4409 48.882C12.3072 48.882 10.2761 45.0469 10.2761 44.793C10.2761 44.6994 9.98208 44.5925 13.6702 46.0758ZM25.777 44.8063C25.777 45.0602 23.7325 48.882 23.5989 48.882C23.3984 48.882 19.5766 47.6125 19.3495 47.4655C19.2693 47.4121 20.5922 46.7974 22.3829 46.0624C25.6033 44.7529 25.777 44.6861 25.777 44.8063ZM20.3918 48.6281C21.7013 49.0825 22.8238 49.4967 22.8773 49.5502C22.9441 49.6036 21.8751 50.4321 20.512 51.3942L18.0265 53.1448L15.541 51.4076C14.178 50.4455 13.109 49.617 13.1491 49.5635C13.2159 49.5101 16.6101 48.2807 17.9865 47.8263C17.9998 47.813 19.0822 48.1871 20.3918 48.6281ZM9.40748 49.5101C10.5166 49.6303 11.4386 49.7506 11.4654 49.764C11.5455 49.8308 10.6235 51.5546 10.5032 51.5546C10.4498 51.5546 9.63465 51.0468 8.69925 50.4187C7.76384 49.7907 7.0957 49.2829 7.2026 49.2829C7.3095 49.2829 8.31172 49.3764 9.40748 49.5101ZM27.3539 50.4187C26.4184 51.0468 25.6033 51.5546 25.5365 51.5546C25.4296 51.5546 24.6813 50.1114 24.6545 49.8575C24.6412 49.7506 27.5677 49.3363 28.5832 49.2963C29.0109 49.2829 28.9039 49.3764 27.3539 50.4187ZM14.3384 51.4878C15.3406 52.2094 16.1557 52.8107 16.129 52.8374C16.0756 52.8909 11.4654 51.9822 11.3852 51.902C11.2783 51.7951 12.2137 50.0847 12.3607 50.1381C12.4409 50.1648 13.3362 50.7795 14.3384 51.4878ZM24.2804 50.9666C24.5209 51.461 24.708 51.8753 24.6813 51.8887C24.6145 51.9555 19.9642 52.8642 19.9241 52.8241C19.884 52.784 23.6657 50.0847 23.7726 50.0847C23.8127 50.0847 24.0399 50.4856 24.2804 50.9666Z" fill="currentColor"/>
</svg>
