<svg width="38" height="48" viewBox="0 0 38 48" fill="none" xmlns="http://www.w3.org/2000/svg">
<path d="M16.3555 1.00756C16.2415 1.01669 15.6665 1.05776 15.0778 1.09883C14.4891 1.13534 13.9643 1.18554 13.9141 1.20835C13.8639 1.23117 13.6495 1.25855 13.435 1.2768C12.8235 1.32244 11.6096 1.5141 11.564 1.57799C11.5503 1.59168 11.4088 1.62819 11.2446 1.66013C10.6559 1.76052 9.75232 2.03432 9.28229 2.24881C9.16821 2.299 8.93091 2.39483 8.7575 2.46328C8.5841 2.52717 8.41069 2.60931 8.36962 2.64126C8.33311 2.6732 8.05474 2.82836 7.75356 2.98808C7.45237 3.14779 7.10556 3.34402 6.97778 3.43073C6.85457 3.51286 6.73592 3.58131 6.71767 3.58131C6.70398 3.58131 6.64009 3.62239 6.58077 3.67258C6.52601 3.71822 6.2522 3.93726 5.97384 4.1563C5.02009 4.90926 4.582 5.29715 4.582 5.37473C4.582 5.39754 4.47248 5.54357 4.34014 5.69416C4.2078 5.84932 3.9842 6.14138 3.84273 6.34217C3.56893 6.74374 2.80228 8.26336 2.80228 8.40938C2.80228 8.46414 2.78403 8.5189 2.75665 8.53259C2.71101 8.55997 2.37788 9.5913 2.32312 9.87879C2.30487 9.9655 2.27293 10.0568 2.25467 10.0841C2.21817 10.1343 2.20448 10.1982 2.06757 10.9512C1.8029 12.3932 1.41045 16.4455 1.31005 18.8002C1.29636 19.1516 1.26898 19.4619 1.24616 19.4893C1.18228 19.5669 1.15033 25.189 1.20053 26.7633C1.22791 27.5528 1.25985 28.356 1.27354 28.5431C1.28723 28.7302 1.33743 29.5014 1.38763 30.2543C1.49259 31.8333 1.64774 33.7134 1.70707 34.1788C2.00369 36.4058 2.1771 37.5056 2.25467 37.6927C2.27749 37.7429 2.37788 38.1444 2.48741 38.5825C2.59236 39.0206 2.71558 39.445 2.76121 39.5226C2.81141 39.6002 2.84791 39.6914 2.84791 39.7188C2.84791 39.7781 3.29513 40.6999 3.53242 41.138C3.68758 41.4209 3.92487 41.7541 4.34471 42.2789C4.49986 42.4796 4.62764 42.6622 4.62764 42.685C4.62764 42.7078 4.70978 42.79 4.80561 42.8584C4.906 42.9269 5.21631 43.1824 5.50381 43.4197C6.33434 44.1225 6.65834 44.3369 7.50257 44.775C7.76725 44.9074 8.00911 45.0397 8.03649 45.0671C8.06843 45.0899 8.18252 45.1492 8.28747 45.1949C8.397 45.2405 8.67993 45.3728 8.92179 45.4915C9.16365 45.6056 9.39182 45.7014 9.43289 45.7014C9.47396 45.7014 9.53328 45.7288 9.56522 45.7607C9.59717 45.7927 9.8299 45.8794 10.0809 45.9524C10.3319 46.0254 10.5464 46.103 10.5509 46.1212C10.56 46.1395 10.5965 46.1577 10.6331 46.1577C10.7152 46.1577 11.6963 46.427 11.815 46.4817C11.9519 46.5411 12.6683 46.646 13.5719 46.7282C14.01 46.7738 14.4115 46.824 14.4617 46.8423C14.5119 46.8651 14.8633 46.9107 15.2375 46.9426C16.2871 47.0339 21.1791 47.0111 22.2423 46.9107C22.6804 46.8696 23.2143 46.824 23.4288 46.8103C24.7522 46.7373 26.4315 46.5639 26.6688 46.4772C26.7327 46.4544 26.9974 46.4042 27.2621 46.3631C27.7458 46.2901 27.9511 46.2399 28.1975 46.1349C28.2751 46.0984 28.4577 46.0391 28.6037 45.998C28.7543 45.957 28.9596 45.8839 29.06 45.8383C29.165 45.7881 29.3475 45.7197 29.4662 45.6786C29.5894 45.6375 29.8769 45.5143 30.105 45.4093C30.3378 45.3044 30.5933 45.1903 30.6755 45.1584C30.753 45.1219 30.8215 45.0808 30.8215 45.058C30.8215 45.0397 30.8626 45.0078 30.9173 44.9941C31.4376 44.8298 33.993 43.0455 34.203 42.7033C34.2623 42.6074 34.4083 42.4021 34.527 42.2515C34.6456 42.0963 34.746 41.9594 34.746 41.9457C34.746 41.932 34.8327 41.7906 34.9422 41.6309C35.1339 41.3479 35.8869 39.8694 35.8869 39.7736C35.8869 39.7462 35.9371 39.6184 36.0009 39.4861C36.0603 39.3537 36.2063 38.9156 36.3204 38.5141C36.4345 38.1125 36.5577 37.679 36.5942 37.5558C36.69 37.2226 36.836 36.5244 36.836 36.3921C36.8315 36.1959 37.0323 34.6854 37.0733 34.5895C37.1783 34.3431 37.5297 29.1546 37.5297 27.8312C37.5297 27.6578 37.5479 27.4935 37.5707 27.4661C37.5936 27.4433 37.6392 26.5215 37.6666 25.4171C37.7076 23.8838 37.7076 22.921 37.6711 21.3557C37.6438 20.224 37.6073 19.2292 37.5936 19.1425C37.5571 18.8824 37.5342 18.6131 37.484 17.7278C37.4156 16.5642 37.3106 15.2864 37.2057 14.4194C37.16 14.0178 37.1144 13.6071 37.1007 13.5067C36.9045 11.7863 36.6581 10.1982 36.5714 10.0841C36.5531 10.0568 36.5212 9.9655 36.5029 9.87879C36.4527 9.61412 36.1607 8.68319 36.0694 8.48696C36.0238 8.38657 35.896 8.09907 35.791 7.84808C35.6815 7.5971 35.5811 7.38262 35.5674 7.36893C35.5492 7.35524 35.4625 7.20465 35.3666 7.02668C35.2708 6.85327 35.0928 6.5749 34.9696 6.40606C34.8464 6.23721 34.746 6.09118 34.746 6.07293C34.746 6.05467 34.6502 5.90865 34.5315 5.74892C34.4083 5.58464 34.2532 5.36104 34.1847 5.24695C34.1117 5.13287 33.8744 4.90014 33.6462 4.7176C33.4226 4.53963 33.2401 4.37535 33.2401 4.35253C33.2401 4.32971 33.2173 4.31146 33.1899 4.31146C33.1351 4.31146 32.7701 4.04222 32.7472 3.98289C32.7381 3.96464 32.6605 3.91444 32.5784 3.87337C32.4917 3.8323 32.3776 3.75472 32.3183 3.6954C32.259 3.64064 32.1403 3.5585 32.0536 3.51743C31.9669 3.47636 31.6794 3.32577 31.4147 3.17517C30.8215 2.84204 30.0503 2.44047 29.9955 2.44047C29.9773 2.44047 29.8495 2.39027 29.7172 2.33095C29.3201 2.14841 29.1467 2.08452 28.8227 2.00238C28.6539 1.96131 28.4942 1.91111 28.4668 1.8883C28.2888 1.74683 26.5 1.39089 25.5051 1.29962C25.1811 1.26768 24.8708 1.22661 24.8206 1.20835C24.7704 1.18554 24.3278 1.13078 23.8395 1.08971C23.1276 1.03038 22.3016 1.01213 19.7553 1.003C17.9984 0.998436 16.4696 0.998436 16.3555 1.00756ZM18.5186 1.63275C18.222 1.8381 17.8797 2.07084 17.7611 2.14385C17.6424 2.22142 17.3275 2.43134 17.0537 2.61844C16.7845 2.80554 16.2871 3.14323 15.954 3.3714C15.6208 3.59957 15.2558 3.84599 15.1462 3.92357C15.0367 3.99659 14.6351 4.27495 14.2473 4.53506C13.8639 4.79974 13.4487 5.08267 13.3209 5.17394C13.1977 5.26064 12.9832 5.41124 12.8463 5.50706C12.7094 5.6029 12.5953 5.67591 12.5908 5.67135C12.5816 5.66222 12.431 5.22414 12.2531 4.69934C12.0751 4.16999 11.7967 3.34402 11.6324 2.85574C11.4682 2.37202 11.3404 1.94762 11.3495 1.92024C11.3632 1.8883 11.6963 1.81072 12.0933 1.74227C12.4949 1.67382 12.8919 1.59624 12.9786 1.57343C13.1566 1.52323 13.6997 1.47303 15.0778 1.36807C16.3099 1.2768 16.4012 1.27224 17.8341 1.26311L19.0662 1.25399L18.5186 1.63275ZM20.2253 1.73771C20.6178 2.00238 21.0695 2.31269 21.2292 2.42221C21.389 2.5363 22.078 3.01089 22.758 3.47636C23.4425 3.94639 24.2776 4.51681 24.6153 4.74954C24.953 4.98228 25.423 5.30171 25.6557 5.46143C25.8839 5.62115 26.0756 5.76262 26.0756 5.78543C26.0756 5.80369 25.9889 5.85845 25.8839 5.90408C25.7744 5.95428 25.2998 6.17788 24.8206 6.41062C24.346 6.64335 23.4607 7.06775 22.8584 7.35524C22.256 7.6473 21.4255 8.04887 21.0102 8.24966C19.5499 8.95699 19.5043 8.97524 19.3491 8.93874C19.2168 8.91135 18.4958 8.58279 17.177 7.94848C16.6704 7.70662 16.2323 7.50127 15.6482 7.23203C15.1599 7.00386 13.1429 6.05923 12.9695 5.9771C12.8737 5.9269 12.7961 5.86757 12.7961 5.84019C12.7961 5.81738 13.0288 5.63484 13.3118 5.44318C13.5901 5.25152 15.0869 4.22932 16.6294 3.17517C18.1718 2.12103 19.4541 1.25855 19.4723 1.25399C19.4952 1.25399 19.8329 1.47303 20.2253 1.73771ZM23.7939 1.36807C24.7385 1.45021 25.5873 1.54604 26.0208 1.61449C26.5365 1.7012 27.221 1.84723 27.2986 1.89286C27.3396 1.91568 27.4081 1.94306 27.4492 1.95219C27.513 1.975 27.4857 2.08452 27.2575 2.74622C27.116 3.16605 26.8377 3.96464 26.6506 4.51225C26.4589 5.06442 26.29 5.52988 26.2672 5.5527C26.2353 5.58464 25.601 5.16938 24.1224 4.15174C23.9399 4.02396 23.3969 3.65433 22.9131 3.3212C21.7358 2.51805 20.9965 2.00695 20.3941 1.59168L19.8922 1.24486L21.4209 1.26768C22.2606 1.28137 23.3284 1.327 23.7939 1.36807ZM11.4271 2.89681C11.5959 3.38509 11.8789 4.21563 12.0614 4.74042C12.2394 5.26521 12.3763 5.70329 12.3626 5.71698C12.3398 5.74436 10.8475 5.63028 9.16821 5.47512C8.76663 5.43861 7.83114 5.35648 7.09187 5.29259C5.4673 5.15569 5.26651 5.13743 5.26651 5.0918C5.26651 5.07811 5.50837 4.86819 5.80043 4.63089C6.09248 4.3936 6.39823 4.13805 6.48494 4.0696C6.77243 3.81861 8.72556 2.71427 8.87615 2.71427C8.91266 2.71427 9.00393 2.67776 9.07694 2.63213C9.15452 2.5865 9.3188 2.51348 9.44201 2.46785C9.56979 2.41765 9.75232 2.34464 9.85272 2.299C10.0946 2.18948 10.8704 1.98869 11.0118 1.99782C11.1122 2.00695 11.1487 2.07996 11.4271 2.89681ZM28.371 2.1256C28.59 2.18492 28.768 2.24881 28.768 2.26706C28.768 2.28988 28.809 2.30357 28.8547 2.30357C28.9505 2.30357 29.562 2.52261 29.7947 2.6367C29.8723 2.6732 30.0959 2.78272 30.2967 2.87856C30.6526 3.05196 31.4284 3.47179 31.9076 3.75472C32.0399 3.83686 32.1677 3.90075 32.1859 3.90075C32.2088 3.90075 32.2727 3.95095 32.332 4.01484C32.3913 4.07416 32.4643 4.12892 32.4917 4.12892C32.5236 4.12892 32.6469 4.22019 32.7655 4.33427C32.8887 4.44836 33.0119 4.53963 33.0439 4.53963C33.0712 4.53963 33.126 4.5807 33.1625 4.63546C33.199 4.68566 33.3177 4.79062 33.4226 4.86819C33.5276 4.94577 33.596 5.02335 33.5732 5.04617C33.555 5.06442 32.8887 5.13287 32.0992 5.20132C31.3098 5.26521 30.1096 5.3656 29.4297 5.42949C28.7543 5.48881 27.9192 5.56183 27.5815 5.58464C27.2438 5.61202 26.8696 5.64397 26.7509 5.65766C26.5775 5.68047 26.5319 5.67135 26.5319 5.61659C26.5319 5.47512 27.6408 2.24881 27.7412 2.08909C27.7868 2.0252 27.8462 1.98869 27.8918 2.00238C27.9329 2.01151 28.1473 2.07084 28.371 2.1256ZM33.6508 5.42949C33.6508 5.52076 33.5915 6.13225 33.5139 6.78938C33.4409 7.44651 33.304 8.66037 33.2173 9.49091C33.126 10.3169 33.0028 11.4486 32.9435 12.0008C32.8796 12.5529 32.8294 13.0321 32.8294 13.0595C32.8294 13.0914 32.7838 13.1188 32.729 13.1188C32.6195 13.1188 27.5861 11.5307 27.5222 11.476C27.4993 11.4577 27.4126 11.0653 27.3259 10.6044C27.1845 9.85598 27.043 9.10302 26.573 6.68898C26.5 6.3011 26.4543 5.96797 26.4726 5.94971C26.5091 5.91321 28.3481 5.72611 29.5437 5.63484C30.0959 5.59377 30.9128 5.52076 32.8522 5.33822C33.2036 5.30628 33.5276 5.2789 33.5732 5.27433C33.6325 5.26977 33.6508 5.30628 33.6508 5.42949ZM6.20201 5.42949C6.60358 5.47056 7.63947 5.56183 8.50652 5.63484C11.4362 5.88126 12.3169 5.96797 12.3535 5.99991C12.39 6.03186 12.2576 6.77113 11.8378 8.87485C11.7374 9.36313 11.5868 10.1435 11.4955 10.6089C11.4043 11.0744 11.3084 11.476 11.2765 11.5034C11.208 11.5672 10.8019 11.6996 9.53328 12.0692C9.00849 12.2244 8.52477 12.3658 8.46088 12.3887C8.397 12.4115 8.09125 12.5073 7.77638 12.5986C7.4615 12.6853 6.94127 12.8404 6.61271 12.9363C6.28871 13.0321 6.00578 13.096 5.99209 13.0823C5.96015 13.0504 5.77305 11.5946 5.56313 9.76471C5.49924 9.21254 5.35321 8.00324 5.23913 7.08144C5.12961 6.15963 5.04747 5.38385 5.06116 5.36104C5.07485 5.33822 5.17524 5.32909 5.2802 5.33822C5.38516 5.35191 5.80043 5.39298 6.20201 5.42949ZM34.3581 5.94515C34.4859 6.12769 34.6091 6.31479 34.6319 6.35586C34.6593 6.39693 34.746 6.52927 34.8282 6.64791C34.9057 6.76656 34.9742 6.87152 34.9742 6.88521C34.9742 6.8989 35.0335 6.99473 35.1065 7.10425C35.3803 7.51496 35.7226 8.25423 35.9553 8.9433C36.0238 9.14409 36.1196 9.42245 36.1652 9.55936C36.2747 9.86054 36.3523 10.2028 36.4573 10.8234C36.5257 11.225 36.5303 11.3026 36.4755 11.3801C36.4025 11.4851 33.4865 12.95 33.1625 13.0504C33.0302 13.0869 33.0302 13.0686 33.1488 12.0464C33.199 11.6174 33.2812 10.8508 33.3314 10.3351C33.3816 9.81947 33.4318 9.354 33.4454 9.29468C33.4591 9.23536 33.5002 8.90679 33.5367 8.56454C33.7558 6.39236 33.8516 5.5527 33.8835 5.46143L33.9246 5.35648L34.0296 5.48425C34.0843 5.5527 34.2349 5.76262 34.3581 5.94515ZM5.01552 6.88977C5.07941 7.49214 5.1935 8.45502 5.26651 9.03456C5.33952 9.60955 5.43992 10.4538 5.49468 10.9056C5.54488 11.3573 5.62702 12.0327 5.67265 12.4023C5.71372 12.772 5.7411 13.0869 5.72741 13.096C5.71829 13.1097 5.22544 12.8678 4.6322 12.5621C4.03896 12.2563 3.29056 11.8684 2.96656 11.7042C2.64256 11.5399 2.35507 11.371 2.33225 11.33C2.25467 11.2113 2.54673 9.7784 2.73383 9.354C2.76577 9.27642 2.81597 9.14409 2.83879 9.05738C3.02132 8.4322 3.5233 7.3233 3.87468 6.77569C3.94769 6.6616 4.02983 6.52014 4.06178 6.46082C4.12566 6.34217 4.5318 5.83107 4.71434 5.6394L4.82842 5.52076L4.86037 5.65766C4.87862 5.73524 4.94707 6.28741 5.01552 6.88977ZM26.3631 6.64791C26.4315 7.00842 26.5821 7.79332 26.6962 8.39569C26.8057 8.99806 26.9837 9.91074 27.0841 10.4218C27.1845 10.9329 27.2529 11.3619 27.2438 11.3756C27.2164 11.3984 26.8422 11.3026 26.2581 11.1109C26.0436 11.0425 25.5006 10.8736 25.0488 10.7321C24.597 10.5907 23.8578 10.3579 23.406 10.221C22.9542 10.0796 22.288 9.86967 21.9229 9.75558C21.5578 9.6415 21.0969 9.50003 20.8961 9.44071C20.6953 9.38139 20.3576 9.27186 20.1477 9.20341L19.7644 9.07564L20.2846 8.82921C20.5721 8.69688 21.1654 8.41394 21.6034 8.19947C22.6211 7.71118 23.1641 7.45107 23.9262 7.09056C24.2593 6.93084 24.8891 6.62053 25.318 6.40149C25.747 6.18245 26.1303 6.00447 26.1714 6.00447C26.2262 5.99991 26.2672 6.14138 26.3631 6.64791ZM12.7322 6.08662C12.755 6.10943 13.0836 6.26915 13.4578 6.44712C15.3607 7.33242 18.6692 8.88854 18.8335 8.97524C19.0206 9.07108 19.0206 9.07108 18.911 9.11214C18.8015 9.15321 17.3275 9.61412 16.4696 9.87879C16.246 9.94724 15.7532 10.1024 15.3744 10.221C14.2746 10.5679 13.7818 10.723 12.3033 11.1794C11.9154 11.298 11.5914 11.3847 11.5822 11.371C11.5686 11.3573 11.6096 11.0835 11.6735 10.7641C11.7374 10.4401 11.8515 9.8651 11.9245 9.49091C11.9975 9.11214 12.1755 8.20859 12.3169 7.48301C12.4584 6.75287 12.5816 6.13225 12.5953 6.10031C12.6136 6.03642 12.6683 6.02729 12.7322 6.08662ZM20.5995 9.56848C21.1654 9.74646 21.8544 9.96093 22.1282 10.0522C22.4066 10.1389 22.8173 10.2667 23.0409 10.3351C23.2691 10.4036 23.698 10.5405 23.9992 10.6318C24.3004 10.7276 24.67 10.8417 24.8206 10.8827C24.9712 10.9284 25.2177 11.006 25.3682 11.0561C25.8383 11.2159 26.6369 11.4669 26.897 11.5399C27.3807 11.6722 27.294 11.4349 28.2843 15.4051C30.4427 24.0664 30.4108 23.934 30.3652 24.185C30.315 24.4451 28.7406 30.8567 28.5352 31.6233C28.3344 32.3763 27.9055 34.1378 27.8325 34.4892C27.796 34.6626 27.7275 34.9364 27.6773 35.1052C27.6271 35.2741 27.5632 35.5296 27.5313 35.6756C27.4993 35.8217 27.4537 35.9677 27.4263 36.0042C27.3807 36.059 26.1395 36.4834 20.7501 38.2905C19.6458 38.6601 19.591 38.6738 19.4039 38.6236C19.2944 38.5962 18.6007 38.3772 17.8615 38.1399C17.1222 37.9026 16.3555 37.6561 16.1639 37.6014C15.9677 37.5421 15.5889 37.4188 15.3197 37.3321C15.0459 37.2454 14.0784 36.9306 13.1612 36.6385C12.2439 36.3465 11.491 36.1046 11.4864 36.1C11.4773 36.0909 10.6422 32.86 10.1037 30.7563C9.85728 29.7934 9.52872 28.5248 9.09976 26.8546C8.51108 24.5866 8.41525 24.1987 8.41525 23.9979C8.41525 23.8975 8.58866 23.1263 8.79857 22.2866C10.4095 15.9025 10.8704 14.0725 11.0666 13.2557C11.3495 12.092 11.4088 11.9095 11.5594 11.7452C11.6826 11.6083 12.0203 11.4942 14.4161 10.755C14.7857 10.6363 16.0315 10.2484 16.9716 9.94724C19.3309 9.19885 19.3309 9.19885 19.4587 9.22623C19.5225 9.23992 20.0336 9.39507 20.5995 9.56848ZM3.87011 12.4115C5.78217 13.388 5.6544 13.315 5.66809 13.4428C5.67722 13.5295 4.62307 16.0804 3.85186 17.8191C3.78341 17.9834 3.30882 19.0923 2.80228 20.2833C1.64774 22.9985 1.47433 23.4047 1.44695 23.4321C1.41045 23.464 1.47433 20.1966 1.52909 19.0056C1.55647 18.4397 1.6158 17.5362 1.666 16.9977C1.71619 16.4592 1.77552 15.7793 1.8029 15.4918C1.93524 13.9539 2.08583 12.4982 2.10864 12.4571C2.1269 12.4297 2.14059 12.3293 2.14515 12.2289C2.14515 12.1285 2.16341 11.9597 2.18166 11.8502C2.20904 11.6996 2.23642 11.6585 2.30943 11.6585C2.35963 11.6585 3.06239 11.9962 3.87011 12.4115ZM36.617 11.8228C36.6855 12.0008 37.0596 15.2773 37.1007 16.0394C37.1098 16.2538 37.1372 16.5277 37.1646 16.6554C37.2604 17.1346 37.4384 21.4379 37.4338 23.1811V23.5005L37.2285 23.0214C37.1144 22.7567 36.9319 22.3368 36.8269 22.0859C36.6033 21.5702 35.3438 18.6405 34.6091 16.9292C34.3353 16.2995 33.8881 15.259 33.6097 14.611C33.3314 13.9676 33.1032 13.4154 33.1032 13.3926C33.1032 13.3333 36.3751 11.7087 36.4938 11.7042C36.5394 11.7042 36.5942 11.7543 36.617 11.8228ZM10.9251 12.991C9.44201 18.8687 8.78488 21.5017 8.58866 22.2912C8.46545 22.8069 8.3468 23.245 8.32398 23.2678C8.27835 23.3134 8.24184 23.1902 8.05018 22.314C7.9726 21.9627 7.84026 21.3785 7.75356 21.0135C7.66685 20.6484 7.4615 19.754 7.29722 19.0284C6.98235 17.6411 6.65378 16.231 6.26589 14.5745C6.13812 14.0315 6.04229 13.5295 6.05141 13.4611C6.06054 13.3698 6.09705 13.3196 6.17919 13.2968C6.24308 13.2785 6.49863 13.2009 6.74961 13.1279C7.20139 12.991 8.073 12.7309 8.91722 12.4754C9.15452 12.4069 9.68844 12.2472 10.1037 12.1194C11.0438 11.8319 11.1715 11.8 11.1898 11.8456C11.1989 11.8684 11.0803 12.3841 10.9251 12.991ZM28.1747 11.9323C28.3116 11.978 28.6721 12.092 28.9733 12.1833C29.2745 12.2791 29.6943 12.4115 29.9088 12.4845C30.1233 12.5529 30.6344 12.7172 31.0497 12.8496C32.5419 13.3196 32.7153 13.3835 32.729 13.4519C32.7381 13.4884 32.6788 13.7805 32.6012 14.1045C32.5236 14.4285 32.3822 15.0628 32.2818 15.5146C32.081 16.4455 31.8072 17.6913 31.5745 18.7318C31.3235 19.8315 31.0223 21.2188 30.7941 22.2684C30.68 22.7932 30.5705 23.245 30.5477 23.2678C30.4838 23.3317 30.4245 23.2587 30.388 23.0807C30.3743 22.9848 30.2693 22.5376 30.1552 22.0859C30.0457 21.6341 29.8723 20.9131 29.7674 20.4887C29.667 20.0597 29.5437 19.5669 29.4935 19.3935C29.4114 19.0832 27.691 12.1468 27.6499 11.9506C27.6134 11.7726 27.691 11.768 28.1747 11.9323ZM33.3952 14.6338C33.5823 15.0674 33.8151 15.6195 33.9155 15.8568C34.0159 16.0941 34.2167 16.555 34.3581 16.8836C34.6091 17.454 34.7095 17.6822 35.2617 18.9828C35.6267 19.8498 35.9371 20.5617 36.366 21.5383C36.8817 22.7202 37.16 23.3682 37.2604 23.6283L37.3471 23.8473L37.046 24.541C36.8771 24.9243 36.6307 25.4902 36.4938 25.805C36.042 26.8318 35.8093 27.3703 35.5674 27.927C35.4351 28.2282 35.2206 28.721 35.0883 29.0222C34.9559 29.3234 34.6821 29.9486 34.4813 30.414C34.1117 31.2674 33.3587 32.9878 33.0895 33.5947C33.0074 33.7773 32.9298 33.9279 32.9161 33.9279C32.9024 33.9279 32.8248 33.6267 32.7427 33.2525C32.6605 32.8828 32.5191 32.2713 32.4324 31.8971C32.0582 30.3 31.9167 29.6748 31.8026 29.1591C31.7342 28.8579 31.611 28.324 31.5288 27.9726C31.4467 27.6213 31.3326 27.1467 31.2824 26.9231C31.2322 26.6949 31.109 26.1747 31.0086 25.7594C30.9128 25.3441 30.785 24.7874 30.7302 24.5181L30.6298 24.0299L30.7485 23.4229C30.8169 23.0898 30.9675 22.4144 31.0816 21.9261C31.1911 21.4379 31.3372 20.7899 31.3965 20.4932C31.4604 20.1921 31.5197 19.9319 31.5288 19.9137C31.5425 19.8954 31.6155 19.5851 31.6885 19.2246C31.9258 18.0929 32.0445 17.5544 32.1129 17.308C32.1494 17.1757 32.2042 16.9201 32.2316 16.7467C32.2635 16.5687 32.3228 16.2812 32.373 16.1078C32.4187 15.9298 32.4917 15.6241 32.5282 15.4233C32.6195 14.9305 32.875 13.7531 32.9024 13.6664C32.9343 13.5751 32.98 13.6618 33.3952 14.6338ZM6.01491 14.36C6.08336 14.6932 6.22026 15.3047 6.32065 15.7199C6.53513 16.628 6.92302 18.2982 7.06905 18.9599C7.12837 19.2246 7.31547 20.0232 7.47975 20.7397C8.21446 23.9112 8.18708 23.7606 8.14145 24.0527C8.08212 24.4406 8.02736 24.7052 7.79919 25.7092C7.68511 26.202 7.55277 26.777 7.50257 26.9915C7.45237 27.206 7.35198 27.6441 7.27897 27.9726C7.20139 28.2966 7.06905 28.8944 6.97778 29.296C6.88651 29.6976 6.75418 30.2817 6.68572 30.5966C6.61271 30.9115 6.4393 31.6781 6.29784 32.3079C6.15637 32.933 6.00578 33.6084 5.96471 33.8046C5.91908 34.0009 5.86431 34.1606 5.83693 34.1652C5.79586 34.1652 5.68178 33.9142 4.90144 32.1025C4.74628 31.7374 4.54549 31.2765 4.45879 31.0757C4.37209 30.8749 4.25344 30.5966 4.19411 30.4597C4.06634 30.1585 3.87468 29.7113 3.64651 29.1819C3.55524 28.9675 3.43203 28.68 3.37727 28.5431C3.31794 28.4062 3.22668 28.2099 3.17648 28.1095C3.12172 28.0091 3.07608 27.9042 3.07608 27.8768C3.07608 27.8266 2.97569 27.5939 2.64256 26.8774C2.58324 26.7496 2.51935 26.5991 2.50566 26.5352C2.48741 26.4713 2.40983 26.2979 2.33681 26.1518C2.14972 25.7822 1.71163 24.7691 1.65687 24.582C1.62949 24.4953 1.57016 24.363 1.51997 24.2854C1.47433 24.2033 1.43326 24.112 1.43326 24.0755C1.43326 24.0436 1.64318 23.5325 1.89873 22.9347C2.14972 22.3414 2.44634 21.6523 2.55129 21.4014C2.87073 20.653 3.79254 18.4945 3.88837 18.2754C3.93856 18.1613 4.23975 17.454 4.55919 16.7011C4.87862 15.9481 5.25738 15.0537 5.40341 14.716C5.54944 14.3783 5.70003 14.0224 5.73654 13.9265C5.77761 13.8353 5.82781 13.7577 5.84606 13.7577C5.86888 13.7577 5.94189 14.0315 6.01491 14.36ZM37.3882 25.5997C37.338 27.3748 37.2194 29.9577 37.1555 30.7107C37.1281 31.0347 37.1007 31.386 37.0916 31.4864C36.8817 34.3066 36.6809 36.027 36.544 36.1639C36.4527 36.2552 36.3341 36.1913 34.1071 34.909C33.4454 34.5257 33.126 34.3203 33.0758 34.2427C33.0621 34.2154 33.0986 34.0784 33.1625 33.937C33.2264 33.7955 33.3816 33.4304 33.5139 33.1293C33.6462 32.8326 33.7831 32.5588 33.8151 32.5223C33.8516 32.4904 33.879 32.4265 33.879 32.3809C33.879 32.3398 33.952 32.1618 34.0387 31.9839C34.1254 31.8104 34.1984 31.637 34.1984 31.596C34.1984 31.5549 34.2532 31.4408 34.3216 31.345C34.3855 31.2491 34.4585 31.0849 34.4813 30.989C34.5042 30.8932 34.5589 30.7563 34.6045 30.6924C34.6456 30.6285 34.7095 30.4825 34.7414 30.3684C34.7734 30.2543 34.8373 30.1129 34.8829 30.049C34.924 29.9851 34.9879 29.8527 35.0198 29.7524C35.0518 29.652 35.1156 29.4968 35.1613 29.4101C35.2069 29.3234 35.2845 29.1454 35.3347 29.0222C35.4898 28.6161 35.7545 28.0183 35.8002 27.9726C35.823 27.9498 35.8412 27.9042 35.8412 27.8677C35.8412 27.8312 35.9005 27.676 35.9736 27.5209C36.0466 27.3703 36.2154 26.9869 36.3478 26.6721C36.4755 26.3572 36.5987 26.0788 36.617 26.056C36.6398 26.0286 36.7037 25.8735 36.7676 25.7092C36.8862 25.3943 37.4065 24.2078 37.4202 24.2215C37.4247 24.2261 37.411 24.8467 37.3882 25.5997ZM8.34224 24.7189C8.36049 24.7783 8.4837 25.2665 8.6206 25.805C8.98567 27.2516 9.2321 28.2282 9.61998 29.7067C9.80708 30.4323 10.0353 31.3176 10.1265 31.669C10.2178 32.0204 10.3912 32.6957 10.5144 33.1749C10.6376 33.6495 10.8521 34.4892 10.9936 35.0413C11.135 35.5889 11.24 36.0453 11.2263 36.059C11.2126 36.0726 10.7015 35.9357 10.0946 35.7578C9.48308 35.5752 8.67993 35.3379 8.30117 35.2239C7.92697 35.1143 7.37936 34.9501 7.09187 34.8634C6.80437 34.7766 6.48037 34.6854 6.37541 34.658C6.16093 34.6032 6.04229 34.5074 6.04229 34.3933C6.04229 34.3523 6.1153 34.0054 6.20201 33.6312C6.29327 33.2525 6.48037 32.4448 6.61727 31.8287C6.75418 31.2126 6.95953 30.3091 7.06905 29.8208C7.17857 29.3325 7.38392 28.429 7.52539 27.8129C7.81745 26.5443 8.23271 24.6687 8.23271 24.6414C8.23271 24.5729 8.31942 24.6368 8.34224 24.7189ZM1.98087 25.8735C2.49197 27.0645 4.35383 31.3678 4.76454 32.3079C4.88319 32.5817 5.12961 33.1475 5.31214 33.5628C5.49468 33.9781 5.64527 34.3842 5.64984 34.4663C5.6544 34.6124 5.64527 34.6215 4.96989 34.9729C3.24949 35.8673 2.46003 36.2552 2.36876 36.2552C2.29574 36.2552 2.2638 36.2096 2.22273 36.059C2.13603 35.7486 1.88504 33.4715 1.82115 32.3991C1.8029 32.1481 1.77552 31.9017 1.7527 31.8515C1.70707 31.7557 1.59755 30.1859 1.52909 28.7028C1.47433 27.6076 1.41501 24.6322 1.44695 24.6642C1.45608 24.6779 1.69794 25.2209 1.98087 25.8735ZM30.8032 25.7411C30.931 26.3161 31.1546 27.2881 31.2961 27.9042C31.4421 28.5202 31.6657 29.5059 31.8026 30.0946C32.0764 31.2948 32.2179 31.9108 32.4461 32.8783C32.697 33.9233 32.7564 34.2473 32.7107 34.2884C32.6879 34.3066 32.1266 34.4983 31.4604 34.7173C27.6362 35.9631 27.7777 35.9175 27.7366 35.8764C27.7047 35.849 27.9009 35.0505 29.2928 29.4329C29.6533 27.9772 30.0457 26.3846 30.1644 25.8963C30.2785 25.408 30.3971 24.9289 30.4199 24.833C30.4427 24.7372 30.4838 24.6642 30.5157 24.6779C30.5431 24.687 30.6709 25.1661 30.8032 25.7411ZM32.8476 34.804C32.8659 34.9637 32.9617 35.7486 33.0576 36.5518C33.1579 37.355 33.2994 38.546 33.3724 39.1986C33.45 39.8511 33.5641 40.7821 33.628 41.2704C33.6919 41.7586 33.7421 42.2378 33.7421 42.3336V42.5116L33.4363 42.4842C32.875 42.4386 29.5027 42.183 27.9785 42.0735C27.1525 42.0142 26.468 41.9549 26.4498 41.9412C26.4133 41.9047 26.4726 41.5944 26.7509 40.2938C26.8787 39.7142 27.0932 38.7103 27.2347 38.0577C27.3761 37.4052 27.5267 36.7207 27.5724 36.5381L27.6499 36.2096L28.2432 36.0088C30.0229 35.4064 32.6651 34.5485 32.7883 34.5257C32.8066 34.5211 32.8294 34.6489 32.8476 34.804ZM34.0159 35.0915C34.3307 35.2741 34.9651 35.6437 35.4305 35.9175C35.896 36.1867 36.3341 36.4377 36.4071 36.4742C36.5257 36.5381 36.5349 36.5564 36.5075 36.7435C36.4664 37.0629 36.1652 38.2676 36.0922 38.4091C36.0603 38.4821 35.9736 38.7285 35.9097 38.9613C35.8412 39.1894 35.7317 39.5043 35.6587 39.6549C35.5902 39.8055 35.4533 40.1021 35.3621 40.3166C35.2662 40.5311 35.1293 40.8003 35.0563 40.9144C34.9879 41.0285 34.9285 41.138 34.9285 41.1563C34.9285 41.2019 34.5954 41.7039 34.5543 41.7221C34.5315 41.7313 34.5178 41.7586 34.5178 41.7815C34.5178 41.8362 34.1938 42.2789 34.098 42.361C34.0432 42.4066 34.0204 42.4066 33.9839 42.361C33.9611 42.3291 33.8653 41.6035 33.7694 40.7501C33.6782 39.8968 33.5732 39.0023 33.5367 38.765C33.5002 38.5278 33.4044 37.7748 33.3314 37.0994C33.2538 36.4195 33.1671 35.735 33.1443 35.5707C33.1169 35.4064 33.0849 35.16 33.0758 35.0231C33.0621 34.8862 33.0439 34.7447 33.0347 34.7128C32.9891 34.585 33.0667 34.5713 33.2538 34.6626C33.3587 34.7173 33.701 34.909 34.0159 35.0915ZM7.64404 35.2558C8.50652 35.5114 9.30511 35.7441 9.4192 35.776C9.53328 35.808 9.98049 35.9403 10.4095 36.0681C10.843 36.1959 11.208 36.3008 11.2217 36.3008C11.2947 36.3008 11.3951 36.6796 11.5594 37.6242C11.6644 38.2129 11.8332 39.1256 11.9291 39.6549C12.2439 41.3479 12.3443 41.9275 12.3215 41.9503C12.3078 41.964 11.491 42.0324 10.5053 42.1009C9.51959 42.1739 8.47457 42.2515 8.18708 42.2789C7.11468 42.3701 5.11592 42.507 5.0931 42.4842C5.07941 42.4751 5.11592 42.0872 5.16612 41.6309C5.22088 41.17 5.34409 40.0747 5.44905 39.1986C5.7411 36.6476 5.95558 34.8679 5.97384 34.804C5.98753 34.7721 6.01491 34.7538 6.03316 34.7675C6.05598 34.7812 6.77699 35.0003 7.64404 35.2558ZM5.72285 34.9592C5.72285 35.1006 5.45361 37.4827 5.28933 38.765C5.23 39.2533 5.11592 40.2299 5.03378 40.9327C4.90144 42.1237 4.86037 42.3701 4.77366 42.3701C4.73716 42.3701 4.21693 41.7495 4.21693 41.7039C4.21693 41.6902 4.15761 41.5989 4.08916 41.5076C4.01614 41.4164 3.92031 41.2704 3.87011 41.1836C3.82448 41.0969 3.76059 40.992 3.73321 40.9555C3.70127 40.919 3.61456 40.7638 3.54155 40.6132C3.18104 39.8876 3.02132 39.5134 2.89355 39.0799C2.81597 38.8198 2.74296 38.5734 2.73383 38.5369C2.5878 38.0669 2.34594 36.8576 2.34594 36.6248C2.34594 36.5837 2.39157 36.529 2.4509 36.5062C2.57411 36.4468 4.78735 35.306 5.28933 35.0413C5.49012 34.9364 5.66809 34.8451 5.69091 34.8451C5.70916 34.8405 5.72285 34.8953 5.72285 34.9592ZM27.399 36.3145C27.399 36.3556 27.0658 37.898 26.9289 38.5141C26.8422 38.8883 26.7555 39.2807 26.7418 39.3811C26.7236 39.4815 26.6597 39.7781 26.6004 40.0428C26.541 40.3075 26.427 40.8186 26.3494 41.1836C26.2718 41.5442 26.1988 41.8499 26.1897 41.8636C26.1577 41.891 25.7698 41.713 24.6198 41.138C24.0175 40.8368 23.5155 40.5904 23.5018 40.5904C23.4881 40.5904 22.7306 40.2208 21.8088 39.7736C20.8916 39.3218 20.1021 38.9385 20.0519 38.9248C20.0017 38.9065 19.9606 38.87 19.9606 38.8381C19.9606 38.8016 20.8824 38.4684 22.4385 37.9482C23.7984 37.4964 25.4458 36.9397 26.0984 36.7115C27.1982 36.3373 27.399 36.2734 27.399 36.3145ZM12.5314 36.6613C12.9923 36.8119 13.8274 37.0766 14.3933 37.2591C14.9592 37.4371 15.5661 37.6333 15.7395 37.6927C15.9175 37.7474 16.3555 37.8934 16.7206 38.0075C18.7422 38.6464 19.0662 38.7514 19.0799 38.7924C19.0845 38.8152 18.6737 39.0297 18.1672 39.267C17.6607 39.5043 16.9077 39.8603 16.4924 40.0565C16.0772 40.2573 15.4429 40.5585 15.0778 40.7273C14.7127 40.8962 14.0282 41.2247 13.5491 41.4574C12.9148 41.7678 12.6638 41.8682 12.6136 41.8362C12.5406 41.786 12.4767 41.5122 12.2257 40.1112C12.1344 39.6093 11.9929 38.8289 11.9062 38.3772C11.71 37.3504 11.564 36.5336 11.564 36.4514C11.564 36.3556 11.6461 36.3738 12.5314 36.6613ZM19.6686 38.975C19.769 39.016 20.3303 39.2853 20.9189 39.5773C21.9503 40.0793 22.3153 40.2573 24.5468 41.3388C25.7424 41.9184 26.0299 42.0644 26.0299 42.0963C26.0299 42.11 25.7561 42.3017 25.4276 42.5298C25.099 42.7535 24.3095 43.3011 23.6707 43.7391C23.0364 44.1772 22.1876 44.7613 21.7814 45.0397C21.3798 45.3135 20.6862 45.7927 20.2436 46.0984C19.8009 46.4087 19.4221 46.6597 19.4085 46.6597C19.3856 46.6597 17.9938 45.706 16.5153 44.6746C16.3647 44.5697 16.0042 44.3233 15.7167 44.127C13.0334 42.2834 12.7779 42.0963 12.828 42.0507C12.8463 42.0279 13.6677 41.6309 14.6443 41.17C15.6254 40.7045 16.6613 40.2162 16.9488 40.0747C18.5186 39.3263 19.2214 39.0023 19.486 38.902C19.4906 38.902 19.5727 38.9339 19.6686 38.975ZM12.2941 42.2834C12.2941 42.3382 12.18 42.6987 12.0386 43.0957C11.8971 43.4882 11.7146 44.0038 11.6324 44.2411C11.2993 45.1857 11.062 45.8064 11.0118 45.8657C10.9525 45.9387 10.7243 45.9159 10.4916 45.8109C10.4186 45.779 10.1585 45.6923 9.92117 45.6147C9.51959 45.4915 8.84421 45.1812 7.84483 44.6655C6.93671 44.2 6.45756 43.8806 5.69091 43.2463C5.06572 42.7306 5.07028 42.7261 6.05141 42.6485C6.46212 42.6166 7.21508 42.5618 7.73074 42.5298C8.81683 42.4523 10.8658 42.2926 11.4271 42.2378C11.6416 42.215 11.9245 42.1967 12.0568 42.1922C12.2713 42.1876 12.2941 42.1967 12.2941 42.2834ZM28.1291 42.3017C29.0692 42.3747 30.963 42.5162 32.4871 42.6257C33.628 42.7078 33.6964 42.7169 33.6964 42.7945C33.6964 42.8219 33.4135 43.0592 33.0667 43.3147C32.1951 43.9582 31.6383 44.3187 31.0497 44.6153C30.9356 44.6746 30.8261 44.7431 30.7987 44.775C30.7759 44.807 30.6572 44.8709 30.5431 44.9211C30.429 44.9667 30.2237 45.058 30.0868 45.1219C29.4205 45.4322 29.2152 45.5143 28.8592 45.633C28.6448 45.7014 28.4531 45.7744 28.4257 45.7927C28.4029 45.8109 28.2614 45.852 28.12 45.8839C27.7914 45.957 27.7595 45.9341 27.6134 45.5052C27.5495 45.3226 27.3853 44.8572 27.2484 44.4693C26.6779 42.8538 26.4863 42.3017 26.4863 42.2378C26.4863 42.1693 26.4224 42.1648 28.1291 42.3017ZM26.5821 43.1961C26.7601 43.7072 26.9335 44.2092 26.9654 44.3096C27.0019 44.41 27.1434 44.8115 27.2803 45.1994C27.4218 45.5873 27.5359 45.9433 27.5359 45.9843C27.5359 46.0437 27.4993 46.0665 27.4035 46.0665C27.3259 46.0665 27.2529 46.0893 27.2347 46.1167C27.221 46.1441 27.1662 46.1532 27.116 46.1441C27.0658 46.1304 26.9746 46.1395 26.9061 46.1577C26.7281 46.2171 25.601 46.3722 24.9347 46.4315C24.6198 46.4589 24.1818 46.5 23.9536 46.5228C22.8903 46.6369 19.6823 46.7829 19.7553 46.7145C19.7963 46.6734 21.138 45.7425 23.1915 44.3324C23.6478 44.0175 24.5149 43.4197 25.1218 42.9953C25.7288 42.5755 26.2353 42.2378 26.2444 42.2469C26.2535 42.256 26.4041 42.685 26.5821 43.1961ZM13.0243 42.539C13.3209 42.7671 13.5901 42.9497 13.8183 43.0911C13.8913 43.1322 14.0191 43.2235 14.0967 43.2919C14.1788 43.3649 14.261 43.4197 14.2792 43.4197C14.302 43.4197 14.3887 43.4745 14.48 43.5429C14.5667 43.6159 14.7082 43.7118 14.7857 43.762C14.9728 43.8806 15.306 44.1088 15.8536 44.4921C16.0909 44.6564 16.4879 44.9302 16.7389 45.099C16.9853 45.2679 17.2454 45.4459 17.3139 45.4961C17.3823 45.5462 17.5922 45.6877 17.7748 45.8109C18.1946 46.0893 19.0114 46.6597 19.0708 46.7145C19.1438 46.7875 15.6573 46.719 15.0322 46.6369C14.7447 46.6004 14.4161 46.5593 14.302 46.5456C14.1879 46.5274 13.7362 46.4772 13.2981 46.427C12.4265 46.3312 11.9062 46.2353 11.5184 46.1121C11.2126 46.0163 11.2126 46.0163 11.4773 45.2998C11.5777 45.0306 11.7876 44.4328 11.9473 43.9673C12.4812 42.4203 12.5223 42.3245 12.6364 42.3245C12.6957 42.3245 12.8691 42.4203 13.0243 42.539Z" fill="currentColor" stroke="currentColor" stroke-width="0.5"/>
</svg>
