<svg width="35" height="33" viewBox="0 0 35 33" fill="none" xmlns="http://www.w3.org/2000/svg">
<path d="M34.8611 30.2968C34.8611 30.26 34.8979 30.223 34.8979 30.1862V30.1494V30.0387V30.0019V29.8913C32.9428 22.0338 28.7006 14.0288 21.9866 5.50736C21.9866 5.50736 21.9866 5.47056 21.9498 5.47056L21.913 5.43377C20.7324 3.92123 19.4783 2.4087 18.1134 0.859413L18.0766 0.822616H18.0398C18.003 0.822616 18.003 0.78582 17.966 0.78582H17.9292C17.8924 0.78582 17.8924 0.749023 17.8553 0.749023H17.8185H17.7817H17.7449H17.7082H17.6714H17.6346H17.5978H17.561H17.5242C17.4874 0.749023 17.4874 0.78582 17.4503 0.78582H17.4135H17.3767L17.3399 0.822616H17.3031L17.2663 0.859413C13.6512 4.95414 10.5525 9.08575 8.00714 13.2174C7.4907 13.9183 7.04808 14.6561 6.67912 15.4309C5.3511 17.7179 4.20753 20.0052 3.24853 22.2554C3.24853 22.2554 3.24853 22.2922 3.21174 22.2922C3.17494 22.329 3.17494 22.3661 3.17494 22.4029C2.10528 24.8744 1.25662 27.346 0.555664 29.8176V29.9283V29.9651V30.0757V30.1125C0.555664 30.1493 0.592461 30.1864 0.592461 30.2232C0.629257 30.26 0.629257 30.297 0.666312 30.3338C0.666312 30.3338 0.703108 30.3338 0.703108 30.3706L0.77696 30.4445C0.77696 30.4445 0.813756 30.4445 0.813756 30.4813C0.850553 30.4813 0.887607 30.5181 0.924405 30.5181H0.961201C3.06403 31.0713 5.12977 31.4771 7.23233 31.8093H7.26913H7.30592C10.5152 32.3258 13.7615 32.5841 16.9709 32.6209C17.1922 32.6209 17.4135 32.6577 17.6348 32.6577C17.8561 32.6577 18.0774 32.6577 18.2987 32.6209C21.545 32.5841 24.7543 32.3257 27.9637 31.8093H28.0005H28.0743C30.1772 31.4774 32.2797 31.0345 34.3455 30.5181H34.3823C34.4191 30.5181 34.4561 30.4813 34.4929 30.4813C34.4929 30.4813 34.5297 30.4813 34.5297 30.4445C34.5665 30.4445 34.5665 30.4077 34.6036 30.3706L34.6404 30.3338C34.8241 30.4074 34.8241 30.3706 34.8611 30.2968ZM28.5897 30.7026C28.5897 30.5552 28.5529 30.4075 28.5529 30.2968C29.1062 30.3336 29.6597 30.4074 30.2129 30.4442C29.6597 30.5181 29.1064 30.6287 28.5897 30.7026ZM25.4911 28.8581H25.3804C23.5728 28.5998 21.8022 28.3049 20.0683 27.9359C22.3186 27.272 24.5321 26.534 26.6715 25.6488C26.8928 26.7923 27.0773 27.9359 27.2618 29.0794C26.6718 29.0056 26.0814 28.9317 25.4911 28.8581ZM17.1541 31.6248C15.1622 31.5142 13.2439 30.85 11.6207 29.7435C13.7235 29.4116 15.7892 29.0058 17.7812 28.5262C19.7731 29.0058 21.8392 29.4484 23.9417 29.7435C22.2818 30.8503 20.4002 31.5142 18.4083 31.6248H17.1541ZM10.0713 28.8581C9.48107 28.932 8.89076 29.0056 8.30073 29.0794C8.48523 27.8988 8.66973 26.7553 8.89102 25.6488C11.0306 26.5343 13.2438 27.3088 15.4942 27.9359C13.7604 28.3049 11.9898 28.5998 10.182 28.8582C10.182 28.8211 10.1081 28.821 10.0713 28.8581ZM5.38634 30.4075C5.93957 30.3707 6.49308 30.3336 7.04629 30.26C7.04629 30.4075 7.0095 30.5552 7.0095 30.6658C6.456 30.6288 5.90279 30.5181 5.38634 30.4075ZM4.09507 23.3985C4.27957 23.5091 4.46407 23.583 4.64831 23.6936C4.09507 24.4685 3.57865 25.2798 3.02511 26.1284C3.35731 25.2062 3.68929 24.2839 4.09507 23.3985ZM2.17702 29.4854C3.32053 27.6409 4.4641 25.8703 5.64469 24.1732C6.38242 24.5052 7.12014 24.8371 7.85819 25.1693C7.59984 26.4606 7.37855 27.7886 7.19431 29.1534C5.53383 29.3008 3.8738 29.4116 2.17702 29.4854ZM6.75118 20.595C6.75118 18.9718 7.12018 17.4225 7.74726 15.9839C8.15305 15.2829 8.55883 14.582 9.00143 13.881C9.813 12.8114 10.8459 11.8891 12.0265 11.1511C11.2887 12.8849 10.6616 14.6556 10.0713 16.4262C8.96461 17.791 7.85786 19.1929 6.75144 20.6683C6.75118 20.6689 6.75118 20.6318 6.75118 20.595ZM14.0921 6.65083L14.1289 6.68763C13.6493 7.64669 13.1699 8.60594 12.7271 9.565C12.2845 9.7863 11.8417 10.0076 11.399 10.266C12.2477 9.04862 13.133 7.86825 14.0921 6.65083ZM24.1998 10.3029C23.7572 10.0446 23.3144 9.78651 22.835 9.56523C22.3924 8.60617 21.9496 7.64691 21.4331 6.68785L21.4699 6.65106C22.429 7.86821 23.3512 9.08546 24.1998 10.3029ZM15.0144 7.38855C15.6782 7.94179 16.3424 8.4953 16.9695 9.0856C15.3095 10.635 13.6496 12.3319 12.0632 14.1394C12.9116 11.8523 13.8709 9.60198 15.0144 7.38855ZM28.811 20.7056C27.7043 19.2302 26.5975 17.8283 25.4911 16.4635C24.9008 14.6558 24.2737 12.922 23.536 11.1884C26.7823 13.1803 28.811 16.7218 28.811 20.5952V20.7056ZM23.5357 14.1761C21.9125 12.3685 20.2894 10.6717 18.6294 9.12236C19.2933 8.53207 19.9207 7.97885 20.5845 7.42531C21.6913 9.60198 22.6504 11.8522 23.5357 14.1761ZM17.781 8.34781C17.0433 7.68393 16.2685 7.01979 15.5308 6.39267C16.2317 5.06465 17.0062 3.69981 17.781 2.37179C18.5926 3.69981 19.3304 5.02783 20.0313 6.39267C19.2935 7.01976 18.5187 7.68367 17.781 8.34781ZM17.781 9.86008C20.0681 11.9997 22.3183 14.3974 24.4949 17.0166C25.2697 19.4514 25.9336 21.9229 26.45 24.5052C23.6463 25.6487 20.7689 26.608 17.781 27.3826C14.793 26.6448 11.9157 25.6855 9.11203 24.5052C9.62847 21.923 10.2926 19.4144 11.0671 17.0166C13.2438 14.3606 15.4941 11.9997 17.781 9.86008ZM26.3393 19.3038C27.1509 20.3734 27.9625 21.4434 28.7741 22.5869C28.9216 22.8082 29.0693 23.0295 29.2538 23.2508C28.6635 23.546 28.0732 23.804 27.4831 24.0624C27.1507 22.4392 26.7818 20.8531 26.3393 19.3038ZM29.8068 22.1073C29.8806 21.6277 29.9174 21.1112 29.9174 20.5948C29.9174 20.2996 29.9174 19.9677 29.8806 19.6725C30.3232 20.5579 30.729 21.4432 31.1348 22.3286C30.8396 22.476 30.5816 22.6237 30.2864 22.7712C30.1389 22.5499 29.9545 22.3286 29.8068 22.1073ZM6.75091 22.5869C7.56248 21.4434 8.37411 20.3367 9.22251 19.3038C8.77991 20.8531 8.41094 22.4395 8.079 24.0624C7.48871 23.804 6.89841 23.5459 6.30837 23.2508C6.45582 23.0295 6.60346 22.8082 6.75091 22.5869ZM27.7041 25.1691C28.4418 24.8372 29.1795 24.5053 29.9176 24.1731C31.0982 25.8701 32.2417 27.6407 33.3852 29.4852C31.6882 29.4484 30.0282 29.3378 28.405 29.19C28.1837 27.7882 27.9622 26.4601 27.7041 25.1691ZM30.9134 23.6934C31.1347 23.5828 31.356 23.4721 31.5773 23.3615C31.983 24.3576 32.3888 25.3534 32.7208 26.3495C32.1307 25.4272 31.5037 24.542 30.9134 23.6934ZM5.75483 22.1073C5.60739 22.3286 5.45969 22.5499 5.27519 22.7712C5.01684 22.6605 4.75875 22.5128 4.50038 22.4022C4.86938 21.5906 5.23811 20.779 5.64389 19.9306C5.64389 20.1519 5.60709 20.3732 5.60709 20.6316C5.64415 21.1112 5.68098 21.5908 5.75483 22.1073ZM8.07867 30.887C8.11547 30.6657 8.15252 30.4074 8.18932 30.186C8.8164 30.1122 9.44349 30.0386 10.0706 29.9647C10.7345 30.518 11.4354 30.9976 12.2102 31.3666C10.8086 31.2557 9.44378 31.1082 8.07867 30.887ZM25.4904 29.9648C26.1175 30.0386 26.7446 30.1122 27.3717 30.1861C27.4085 30.4074 27.4456 30.6657 27.4824 30.887C26.1175 31.1083 24.7157 31.256 23.3508 31.3667C24.1256 30.9977 24.8265 30.518 25.4904 29.9648Z" fill="currentColor"/>
</svg>
