<svg width="35" height="35" viewBox="0 0 35 35" fill="none" xmlns="http://www.w3.org/2000/svg">
<path d="M29.4697 0.556152H5.98397L0.555664 5.20892V30.2456L5.98397 34.8983H29.4697L34.898 30.2456L34.8978 5.20892L29.4697 0.556152ZM31.2424 7.05528L27.8451 4.13816L29.3592 1.92239L33.4213 5.43041L31.2424 7.05528ZM24.7431 27.5499H10.7108L7.90432 25.1497L7.90406 10.305L10.7105 7.86774H24.7428L27.5492 10.2679V25.1126L24.7431 27.5499ZM24.6694 6.79679H10.7848L9.38146 4.80285H26.0357L24.6694 6.79679ZM9.78772 7.24009L7.3136 9.34507L5.09783 7.72021L8.23678 5.02459L9.78772 7.24009ZM6.79642 10.3419V25.1128L4.80248 26.5898V8.86469L6.79642 10.3419ZM7.31339 26.1098L9.78751 28.2148L8.27343 30.4306L5.13448 27.735L7.31339 26.1098ZM10.7847 28.6579H24.6324L26.0357 30.6518H9.41837L10.7847 28.6579ZM25.6663 28.2146L28.1404 26.1096L30.3562 27.7345L27.2173 30.4301L25.6663 28.2146ZM28.6576 25.1128V10.3419L30.6516 8.86491V26.59L28.6576 25.1128ZM28.1407 9.34483L25.6665 7.23985L27.1806 5.02408L30.3196 7.7197L28.1407 9.34483ZM26.8113 3.65817H8.64304L7.23974 1.66423H28.2144L26.8113 3.65817ZM7.60908 4.1383L4.21178 7.05542L1.99601 5.43056L6.05814 1.92254L7.60908 4.1383ZM3.658 8.05252V27.4024L1.66406 28.8793L1.66381 6.5753L3.658 8.05252ZM4.2118 28.3994L7.60911 31.3165L6.09503 33.5323L2.0329 30.0243L4.2118 28.3994ZM8.643 31.7967H26.8112L28.2145 33.7907L7.23984 33.7909L8.643 31.7967ZM27.8452 31.3166L31.2425 28.3995L33.4583 30.0243L29.3961 33.5324L27.8452 31.3166ZM31.7963 27.4024V8.05251L33.7902 6.57555V28.9165L31.7963 27.4024Z" fill="currentColor"/>
</svg>
