<svg width="27" height="54" viewBox="0 0 27 54" fill="none" xmlns="http://www.w3.org/2000/svg">
<path d="M10.3645 2.90638C7.47011 5.80074 7.43408 5.83677 5.74069 8.33481C4.79192 9.71594 3.93922 11.025 3.83113 11.2172C3.72304 11.4213 3.08652 12.8865 2.42598 14.4718L1.225 17.3542L0.612501 20.4167L0 23.4792V27.0701V30.649L0.612501 33.6755L1.225 36.69L2.42598 39.5723C3.08652 41.1576 3.69902 42.5868 3.78309 42.7549C3.86716 42.9231 4.70785 44.1841 5.64461 45.5772C7.338 48.0753 7.37403 48.1233 10.2564 51.0177C11.8417 52.615 13.2468 53.9601 13.3789 53.9961C13.5591 54.0562 14.2436 53.4317 16.5375 51.1498L19.4679 48.2194L21.3054 45.5172L23.1309 42.815L24.416 39.7525L25.689 36.69L26.2895 33.6275L26.902 30.565V27.0221V23.4792L26.2895 20.4167L25.677 17.3542L24.4039 14.2917L23.1309 11.2292L21.3054 8.52697L19.4679 5.82476L16.5375 2.90638C14.9402 1.30907 13.5471 0 13.451 0C13.3549 0 11.9738 1.30907 10.3645 2.90638ZM13.0907 3.84314V6.2451H12.8265C12.4662 6.2451 8.83922 5.74069 8.76717 5.68064C8.70712 5.62059 12.8745 1.44118 12.9946 1.44118C13.0547 1.44118 13.0907 2.52206 13.0907 3.84314ZM16.0932 3.5429C17.2461 4.69584 18.1588 5.65662 18.1348 5.68064C18.0267 5.76471 13.9314 6.31716 13.8713 6.25711C13.7753 6.16103 13.7993 1.44118 13.9074 1.44118C13.9554 1.44118 14.9402 2.38995 16.0932 3.5429ZM10.8449 6.77353C11.8777 6.92966 12.7664 7.08579 12.8025 7.10981C12.8385 7.14584 12.19 8.76716 11.3733 10.7007L9.87207 14.2196L8.34682 14.6159C7.50613 14.8441 6.78555 15.0003 6.74952 14.9642C6.70148 14.9042 7.97452 6.92966 8.11864 6.50932C8.14265 6.40123 8.28677 6.37721 8.55099 6.42525C8.76717 6.46128 9.80001 6.6174 10.8449 6.77353ZM19.5039 10.6527C19.9003 12.9826 20.1885 14.9162 20.1525 14.9522C20.1164 15.0003 19.3959 14.8441 18.5552 14.6159L17.0299 14.2196L15.5407 10.7007C14.712 8.75515 14.0755 7.14584 14.1115 7.10981C14.1836 7.03775 18.351 6.38922 18.6152 6.41324C18.7473 6.42525 18.9515 7.41005 19.5039 10.6527ZM6.6054 10.8809C6.32917 12.5262 6.07697 13.9554 6.04094 14.0515C6.00491 14.1596 5.69265 13.6552 5.27231 12.8265L4.56373 11.4213L5.78873 9.61986C6.47329 8.63506 7.03775 7.84241 7.06177 7.85442C7.07378 7.87844 6.86961 9.23555 6.6054 10.8809ZM21.1733 9.71594L22.3262 11.4454L21.6417 12.8025C21.2694 13.5591 20.9331 14.1235 20.8851 14.0755C20.849 14.0275 20.6088 12.7424 20.3566 11.2292C20.1164 9.70393 19.8883 8.29878 19.8522 8.10662C19.7561 7.61422 19.8402 7.7103 21.1733 9.71594ZM13.0907 10.5086V12.1299L12.1059 12.7905C11.5655 13.1507 11.1091 13.427 11.0851 13.403C11.073 13.3909 11.4333 12.4902 11.9017 11.3973C12.3701 10.3164 12.8025 9.30761 12.8625 9.15148C12.9226 9.00736 12.9946 8.88726 13.0306 8.88726C13.0667 8.88726 13.0907 9.61986 13.0907 10.5086ZM14.9402 11.2172C15.4446 12.3941 15.8409 13.3789 15.8289 13.3909C15.8049 13.403 15.3485 13.1267 14.8081 12.7784L13.8113 12.1299V10.4846C13.8113 9.51177 13.8593 8.88726 13.9194 8.94731C13.9794 9.01937 14.4358 10.0402 14.9402 11.2172ZM4.96005 13.9674C5.6326 15.3726 5.6326 15.3846 5.36839 15.4927C4.07133 16.0451 2.40196 16.6576 2.40196 16.5976C2.38995 16.3694 4.14339 12.3821 4.20344 12.4542C4.25147 12.5142 4.58775 13.1868 4.96005 13.9674ZM23.6593 14.4478C24.1157 15.5527 24.5 16.5015 24.5 16.5615C24.5 16.6456 21.4135 15.4686 21.3054 15.3365C21.2574 15.2765 22.6986 12.3341 22.7586 12.3821C22.7826 12.4181 23.191 13.3429 23.6593 14.4478ZM15.0003 13.8473L16.4895 14.8321L18.399 18.339L20.2966 21.8579V27.0221V32.1863L18.4231 35.6451C17.3902 37.5427 16.4895 39.152 16.4294 39.2361C16.3694 39.3201 15.6608 39.8005 14.8802 40.3049L13.439 41.2297L11.9378 40.2209L10.4245 39.212L8.51496 35.6812L6.6054 32.1503V27.0101V21.8819L8.52697 18.339L10.4485 14.8081L11.9257 13.8233C12.7304 13.2949 13.415 12.8505 13.451 12.8505C13.487 12.8505 14.1836 13.2949 15.0003 13.8473ZM8.82721 16.1772C8.51496 16.7657 7.90246 17.8946 7.4581 18.6993L6.66545 20.1645L6.62942 18.0508C6.61741 16.8858 6.62942 15.913 6.65344 15.889C6.71349 15.8289 9.09143 15.1564 9.28359 15.1444C9.34364 15.1324 9.13947 15.6007 8.82721 16.1772ZM18.9635 15.4927C19.6481 15.6848 20.2245 15.865 20.2485 15.889C20.2846 15.913 20.2846 16.8978 20.2726 18.0628L20.2365 20.1765L19.552 18.8794C19.1677 18.1708 18.5552 17.0419 18.1949 16.3574C17.8226 15.6848 17.5704 15.1324 17.6184 15.1324C17.6784 15.1324 18.2789 15.3005 18.9635 15.4927ZM5.80074 17.3782C5.84878 18.0267 5.88481 19.2277 5.88481 20.0564V21.5456L4.47966 23.6834C3.69902 24.8603 3.03848 25.8211 3.00245 25.8211C2.89437 25.8211 2.02966 17.7385 2.12574 17.6424C2.23383 17.5343 5.40442 16.2373 5.59657 16.2253C5.68064 16.2132 5.7527 16.6456 5.80074 17.3782ZM22.9988 16.8858C23.9236 17.2581 24.7282 17.5944 24.7762 17.6544C24.8843 17.7505 24.0196 25.8211 23.9115 25.8211C23.8635 25.8211 23.203 24.8603 22.4343 23.6834L21.0172 21.5456V20.777C21.0172 19.2878 21.1733 16.2132 21.2454 16.2132C21.2934 16.2132 22.0861 16.5135 22.9988 16.8858ZM1.84951 22.9748C2.00564 24.3079 2.11373 25.4128 2.10172 25.4368C2.0777 25.4608 1.76544 25.0525 1.40515 24.536L0.744609 23.5873L0.972795 22.4584C1.41716 20.2606 1.48922 19.9843 1.53726 20.2726C1.56128 20.4287 1.70539 21.6417 1.84951 22.9748ZM25.8091 21.8699L26.1574 23.5873L25.5569 24.476C25.2206 24.9564 24.9084 25.3647 24.8723 25.4008C24.8243 25.4248 24.9204 24.2358 25.0885 22.7466C25.2446 21.2694 25.4008 20.0804 25.4248 20.0924C25.4488 20.1164 25.6169 20.9091 25.8091 21.8699ZM5.86079 29.0157L5.82476 31.0214L4.53971 29.0758C3.81912 28.0189 3.24265 27.0941 3.24265 27.0221C3.24265 26.95 3.81912 26.0253 4.53971 24.9684L5.82476 23.0228L5.86079 25.0285C5.8728 26.1213 5.8728 27.9228 5.86079 29.0157ZM22.4944 25.1245L23.7674 27.0221L22.4824 28.9316C21.7738 29.9885 21.1613 30.8532 21.1133 30.8652C21.0532 30.8652 21.0172 29.0998 21.0172 26.938C21.0172 24.7762 21.0652 23.0588 21.1133 23.1189C21.1733 23.191 21.7978 24.0917 22.4944 25.1245ZM1.50123 26.0012L2.20981 27.0221L1.50123 28.0429C1.11691 28.6074 0.780638 29.0637 0.756618 29.0637C0.744609 29.0637 0.720589 28.139 0.720589 27.0221C0.720589 25.8932 0.744609 24.9804 0.756618 24.9804C0.780638 24.9804 1.11691 25.4368 1.50123 26.0012ZM26.1574 28.0309L26.1213 29.0397L25.4608 28.127C25.1005 27.6226 24.8123 27.1302 24.8123 27.0221C24.8123 26.914 25.1005 26.4216 25.4608 25.9172L26.1213 25.0044L26.1574 26.0133C26.1694 26.5657 26.1694 27.4785 26.1574 28.0309ZM4.49167 30.3848L5.92084 32.5466L5.86079 35.1407C5.82476 36.5579 5.76471 37.7589 5.72868 37.7949C5.66863 37.8429 2.22182 36.5699 2.06569 36.4378C1.99363 36.3897 2.93039 28.2231 3.00245 28.2231C3.03848 28.2231 3.71103 29.1959 4.49167 30.3848ZM24.44 32.3544C24.6682 34.3961 24.8603 36.1495 24.8603 36.2576C24.8603 36.3897 24.3439 36.654 23.0949 37.1464C22.1101 37.5187 21.2814 37.8309 21.2454 37.8309C21.1973 37.8309 21.1253 36.6419 21.0772 35.1767L20.9932 32.5346L21.6777 31.4897C23.299 29.0397 23.9596 28.163 23.9956 28.4032C24.0076 28.5353 24.2118 30.3128 24.44 32.3544ZM1.84951 31.0454C1.69338 32.3665 1.57329 33.5794 1.57329 33.7356C1.56128 34.288 1.44118 33.9037 1.09289 32.1863L0.744609 30.4809L1.41716 29.5321C1.77745 29.0037 2.08971 28.5954 2.10172 28.6074C2.11373 28.6314 2.00564 29.7243 1.84951 31.0454ZM25.5088 29.5441L26.1814 30.4929L25.8211 32.2103C25.6169 33.1471 25.4368 33.9277 25.4128 33.9517C25.4008 33.9758 25.2446 32.7748 25.0885 31.2856C24.9204 29.7964 24.8003 28.5834 24.8123 28.5834C24.8243 28.5834 25.1365 29.0157 25.5088 29.5441ZM8.08261 36.5098C8.77917 37.7949 9.34364 38.8638 9.31962 38.8758C9.30761 38.8998 8.69511 38.7557 7.97452 38.5755L6.66545 38.2272L6.62942 36.0775C6.61741 34.7684 6.64143 33.9758 6.71349 34.0478C6.77354 34.1199 7.38604 35.2248 8.08261 36.5098ZM20.2125 38.1912C20.1044 38.2753 17.6304 38.9358 17.5824 38.8878C17.5704 38.8638 18.1588 37.7468 18.8914 36.3897L20.2365 33.9277L20.2726 36.0174C20.2846 37.1704 20.2606 38.1432 20.2125 38.1912ZM5.59657 38.7076C5.6326 38.7437 5.33236 39.4282 4.92402 40.2329C4.51569 41.0375 4.16741 41.6741 4.14339 41.65C4.05932 41.578 2.40196 37.5787 2.40196 37.4706C2.40196 37.3745 5.45246 38.5635 5.59657 38.7076ZM23.7314 39.4402C22.6625 41.9863 22.7706 41.8662 22.4103 41.0495C22.2422 40.6652 21.9179 39.9807 21.6897 39.5243L21.2694 38.6956L22.8547 38.0471C23.7314 37.6988 24.452 37.4466 24.476 37.4826C24.5 37.5307 24.1637 38.4074 23.7314 39.4402ZM8.3228 39.4402C9.1755 39.6684 9.88408 39.8726 9.89609 39.8966C10.0522 40.1128 12.8505 46.8863 12.8025 46.9344C12.6824 47.0424 8.22672 47.667 8.15466 47.5829C8.08261 47.4988 6.71349 39.4643 6.7255 39.176C6.7255 38.9959 6.52133 38.9598 8.3228 39.4402ZM19.5159 43.2834C19.1196 45.6253 18.7713 47.5709 18.7353 47.5949C18.6633 47.667 14.1956 47.0304 14.1115 46.9344C14.0395 46.8623 16.8858 40.1128 17.0659 39.9326C17.162 39.8366 19.7802 39.0679 20.1164 39.0439C20.2005 39.0319 19.9483 40.7493 19.5159 43.2834ZM21.1133 44.4483C20.4407 45.4331 19.8762 46.2138 19.8522 46.1897C19.8042 46.1537 20.6329 41.1696 20.849 40.0647C20.9211 39.7525 20.9932 39.8606 21.6297 41.1937L22.3383 42.6589L21.1133 44.4483ZM6.59339 43.1032C6.86961 44.7846 7.07378 46.1657 7.06177 46.1897C7.03775 46.2018 6.47329 45.4211 5.78873 44.4243L4.56373 42.6348L5.24829 41.2537C5.6326 40.4971 5.96888 39.9206 6.01692 39.9687C6.05295 40.0167 6.31716 41.4219 6.59339 43.1032ZM12.226 41.3378L13.0907 41.9263V43.5596C13.0907 44.4603 13.0427 45.1569 12.9946 45.0969C12.9106 45.0008 11.5174 41.8062 11.073 40.7253C11.001 40.5211 11.025 40.5331 12.226 41.3378ZM14.9402 42.827C14.4358 44.004 13.9794 45.0248 13.9194 45.0969C13.8593 45.1569 13.8113 44.5324 13.8113 43.5596V41.9143L14.8081 41.2657C15.3485 40.9174 15.8049 40.6412 15.8289 40.6532C15.8409 40.6652 15.4446 41.65 14.9402 42.827ZM18.1348 48.3635C18.1949 48.4236 14.0275 52.603 13.9074 52.603C13.7993 52.603 13.7753 47.8831 13.8713 47.7871C13.9314 47.727 18.0267 48.2795 18.1348 48.3635ZM13.0907 50.201C13.0907 51.5221 13.0547 52.603 12.9946 52.603C12.8745 52.603 8.70712 48.4236 8.76717 48.3635C8.85123 48.2915 12.1179 47.8351 12.6463 47.8111L13.0907 47.7991V50.201Z" fill="currentColor"/>
</svg>
