<svg width="180" height="180" viewBox="0 0 180 180" fill="none" xmlns="http://www.w3.org/2000/svg">
<path d="M111.466 38.2918L123.466 44.5891C136.376 51.364 142.831 54.7514 146.416 60.8384C150 66.9255 150 74.5 150 89.6491V90.3509C150 105.5 150 113.075 146.416 119.162C142.831 125.249 136.376 128.636 123.466 135.411L111.466 141.708C100.933 147.236 95.6656 150 90 150C84.3344 150 79.0675 147.236 68.5338 141.708L56.5338 135.411C43.6238 128.636 37.1688 125.249 33.5844 119.162C30 113.075 30 105.5 30 90.3509V89.6491C30 74.5 30 66.9255 33.5844 60.8384C37.1688 54.7514 43.6238 51.364 56.5338 44.5891L68.5338 38.2918C79.0675 32.7639 84.3344 30 90 30C95.6656 30 100.933 32.7639 111.466 38.2918Z" stroke="currentColor" stroke-width="1.5" stroke-linecap="round"/>
<path d="M144 63L120 75M90 90L36 63M90 90V147M90 90C90 90 106.456 81.7721 117 76.5C118.172 75.9142 120 75 120 75M120 75V96M120 75L63 45" stroke="currentColor" stroke-width="1.5" stroke-linecap="round"/>
</svg>
