<svg width="108" height="108" viewBox="0 0 108 108" fill="none" xmlns="http://www.w3.org/2000/svg">
<path d="M75.6001 46.8H57.6001" stroke="currentColor" stroke-width="1.5" stroke-linecap="round"/>
<path d="M46.7998 21.5996H70.1998C71.8717 21.5996 72.7077 21.5996 73.4095 21.692C78.2558 22.33 82.0694 26.1436 82.7074 30.9899C82.7998 31.6917 82.7998 32.5277 82.7998 34.1996" stroke="currentColor" stroke-width="1.5"/>
<path d="M18 35.8191C18 32.642 18 31.0534 18.2497 29.7302C19.3487 23.9051 23.9051 19.3487 29.7302 18.2497C31.0534 18 32.642 18 35.8191 18C37.2111 18 37.9071 18 38.5761 18.0626C41.4599 18.3322 44.1955 19.4653 46.4254 21.3139C46.9426 21.7426 47.4348 22.2348 48.4191 23.2191L50.4 25.2C53.3368 28.1368 54.8052 29.6052 56.5636 30.5835C57.5296 31.121 58.5542 31.5454 59.6173 31.8484C61.5524 32.4 63.6291 32.4 67.7823 32.4H69.1275C78.6041 32.4 83.3423 32.4 86.4222 35.1701C86.7055 35.4249 86.9751 35.6945 87.2299 35.9778C90 39.0577 90 43.7959 90 53.2725V61.2C90 74.7764 90 81.5647 85.7823 85.7823C81.5647 90 74.7764 90 61.2 90H46.8C33.2235 90 26.4353 90 22.2177 85.7823C18 81.5647 18 74.7764 18 61.2V35.8191Z" stroke="currentColor" stroke-width="1.5"/>
</svg>
