<svg width="26" height="26" viewBox="0 0 26 26" fill="none" xmlns="http://www.w3.org/2000/svg">
    <path d="M2.8499 13.9994L11.2486 24.1254C12.2159 25.2915 13.7841 25.2915 14.7514 24.1254L23.1501 13.9994C25.6166 11.0256 25.6166 6.20413 23.1501 3.23034C20.6836 0.256553 16.6845 0.256554 14.218 3.23034L13 4.69885L11.782 3.23034C9.31546 0.256553 5.31643 0.256552 2.8499 3.23034C0.383368 6.20413 0.383368 11.0256 2.8499 13.9994Z" fill="currentColor" fill-opacity="0.8"/>
    <path d="M11.2486 24.1254L10.8638 24.4446L11.2486 24.1254ZM2.8499 13.9994L3.23475 13.6802L2.8499 13.9994ZM14.7514 24.1254L15.1362 24.4446L14.7514 24.1254ZM2.8499 3.23034L3.23475 3.54955L2.8499 3.23034ZM11.782 3.23034L12.1668 2.91114V2.91114L11.782 3.23034ZM23.1501 13.9994L23.535 14.3186L23.1501 13.9994ZM23.1501 3.23034L22.7653 3.54955L23.1501 3.23034ZM14.218 3.23034L14.6029 3.54955L14.218 3.23034ZM13 4.69885L12.6151 5.01805C12.7101 5.13258 12.8512 5.19885 13 5.19885C13.1488 5.19885 13.2899 5.13258 13.3848 5.01805L13 4.69885ZM11.6335 23.8062L3.23475 13.6802L2.46505 14.3186L10.8638 24.4446L11.6335 23.8062ZM14.3665 23.8062C13.9705 24.2837 13.4738 24.5 13 24.5C12.5262 24.5 12.0295 24.2837 11.6335 23.8062L10.8638 24.4446C11.4349 25.1332 12.2061 25.5 13 25.5C13.7939 25.5 14.5651 25.1332 15.1362 24.4446L14.3665 23.8062ZM3.23475 3.54955C4.38045 2.16821 5.85961 1.5 7.31594 1.5C8.77227 1.5 10.2514 2.16821 11.3971 3.54955L12.1668 2.91114C10.846 1.31868 9.09239 0.5 7.31594 0.5C5.53949 0.5 3.78587 1.31868 2.46505 2.91114L3.23475 3.54955ZM2.46505 2.91114C-0.155016 6.07004 -0.155015 11.1597 2.46505 14.3186L3.23475 13.6802C0.921751 10.8915 0.921751 6.33823 3.23475 3.54955L2.46505 2.91114ZM22.7653 13.6802L14.3665 23.8062L15.1362 24.4446L23.535 14.3186L22.7653 13.6802ZM22.7653 3.54955C25.0782 6.33822 25.0782 10.8915 22.7653 13.6802L23.535 14.3186C26.155 11.1597 26.155 6.07004 23.535 2.91114L22.7653 3.54955ZM14.6029 3.54955C15.7486 2.16821 17.2277 1.5 18.6841 1.5C20.1404 1.5 21.6195 2.16821 22.7653 3.54955L23.535 2.91114C22.2141 1.31868 20.4605 0.5 18.6841 0.500001C16.9076 0.500001 15.154 1.31868 13.8332 2.91114L14.6029 3.54955ZM13.3848 5.01805L14.6029 3.54955L13.8332 2.91114L12.6151 4.37964L13.3848 5.01805ZM11.3971 3.54955L12.6151 5.01805L13.3848 4.37965L12.1668 2.91114L11.3971 3.54955Z" fill="#206C57" fill-opacity="0.8"/>
</svg>
