<svg width="40" height="40" viewBox="0 0 40 40" fill="none" xmlns="http://www.w3.org/2000/svg">
<path d="M16.6667 22.6667C18.8759 22.6667 20.6667 24.4576 20.6667 26.6667C20.6667 28.8759 18.8759 30.6667 16.6667 30.6667C14.4576 30.6667 12.6667 28.8759 12.6667 26.6667C12.6667 24.4576 14.4576 22.6667 16.6667 22.6667Z" stroke="currentColor"/>
<path d="M23.3333 9.33322C21.1241 9.33322 19.3333 11.1241 19.3333 13.3332C19.3333 15.5424 21.1241 17.3332 23.3333 17.3332C25.5424 17.3332 27.3333 15.5424 27.3333 13.3332C27.3333 11.1241 25.5424 9.33322 23.3333 9.33322Z" stroke="currentColor"/>
<path d="M24 26.6113L33.3333 26.6113" stroke="currentColor" stroke-linecap="round"/>
<path d="M16 13.2781L6.66667 13.2781" stroke="currentColor" stroke-linecap="round"/>
<path d="M6.66675 26.6113L9.33341 26.6113" stroke="currentColor" stroke-linecap="round"/>
<path d="M33.3333 13.2781L30.6666 13.2781" stroke="currentColor" stroke-linecap="round"/>
</svg>
