<svg width="48" height="48" viewBox="0 0 48 48" fill="none" xmlns="http://www.w3.org/2000/svg">
<path d="M31 35C28.108 35 25.374 33.878 23.298 31.844C23.106 31.656 23 31.398 23 31.13C23 30.862 23.108 30.604 23.298 30.416C25.042 28.706 26 26.428 26 24C26 21.572 25.042 19.294 23.298 17.584C23.108 17.396 23 17.138 23 16.87C23 16.602 23.108 16.344 23.298 16.156C25.374 14.122 28.108 13 31 13C37.064 13 42 17.934 42 24C42 30.066 37.064 35 31 35ZM25.428 31.058C27.014 32.316 28.96 33 31 33C35.962 33 40 28.962 40 24C40 19.038 35.962 15 31 15C28.958 15 27.014 15.684 25.428 16.942C27.094 18.92 28 21.388 28 24C28 26.612 27.094 29.08 25.428 31.058Z" fill="#333333"/>
<path d="M17 35C10.936 35 6 30.066 6 24C6 17.934 10.936 13 17 13C23.064 13 28 17.934 28 24C28 30.066 23.064 35 17 35ZM17 15C12.038 15 8 19.038 8 24C8 28.962 12.038 33 17 33C21.962 33 26 28.962 26 24C26 19.038 21.962 15 17 15Z" fill="#333333"/>
<path d="M25 19H9C8.448 19 8 18.552 8 18C8 17.448 8.448 17 9 17H25C25.552 17 26 17.448 26 18C26 18.552 25.552 19 25 19Z" fill="#333333"/>
<path d="M25 31H9C8.448 31 8 30.552 8 30C8 29.448 8.448 29 9 29H25C25.552 29 26 29.448 26 30C26 30.552 25.552 31 25 31Z" fill="#333333"/>
<path d="M26 23H8C7.448 23 7 22.552 7 22C7 21.448 7.448 21 8 21H26C26.552 21 27 21.448 27 22C27 22.552 26.552 23 26 23Z" fill="#333333"/>
<path d="M26 27H8C7.448 27 7 26.552 7 26C7 25.448 7.448 25 8 25H26C26.552 25 27 25.448 27 26C27 26.552 26.552 27 26 27Z" fill="#333333"/>
<path d="M41 39H7C3.14 39 0 35.86 0 32V16C0 12.14 3.14 9 7 9H41C44.86 9 48 12.14 48 16V32C48 35.86 44.86 39 41 39ZM7 11C4.242 11 2 13.244 2 16V32C2 34.756 4.242 37 7 37H41C43.758 37 46 34.756 46 32V16C46 13.244 43.758 11 41 11H7Z" fill="#333333" fill-opacity="0.2"/>
</svg>
