<svg width="780" height="486" viewBox="0 0 780 486" fill="none" xmlns="http://www.w3.org/2000/svg">
<g clip-path="url(#clip0_2301_4004)">
<path d="M55 14.0938H725C747.1 14.0938 765 31.4925 765 52.9738V433.026C765 454.507 747.1 471.906 725 471.906H55C32.9 471.906 15 454.507 15 433.026V52.9738C15 31.4925 32.9 14.0938 55 14.0938Z" stroke="#333333" stroke-opacity="0.2" stroke-width="30"/>
<path d="M544.1 233.766V338.742H604.1V276.534H672.1C700.7 276.339 725 258.552 734.2 233.766H544.1Z" fill="#393939"/>
<path d="M536.1 147.258C539.6 190.123 581.4 224.046 632.4 224.046C632.6 224.046 736.7 224.046 736.7 224.046C737.5 220.158 737.9 216.075 737.9 211.896C737.9 176.321 708.4 147.549 671.9 147.258H536.1Z" fill="#393939"/>
<path d="M447.3 222.977C448 221.81 449.1 221.13 450.5 221.13C452.5 221.13 454 222.685 454.1 224.532V337.77H514.1V147.258H454.1C446.5 147.549 437.9 152.895 434.7 159.602L387 259.135C386.9 259.524 386.7 259.913 386.5 260.301C385.8 261.273 384.6 261.954 383.2 261.954C381 261.954 379.2 260.204 379.2 258.066V147.258H319.2V337.77H379.2C386.7 337.381 395.1 332.035 398.3 325.425L447.3 223.268C447.2 223.171 447.3 223.074 447.3 222.977Z" fill="#393939"/>
<path d="M223.3 226.281L188.2 337.769H145L110 226.184C109.7 224.434 108.1 223.073 106.1 223.073C103.9 223.073 102.2 224.823 102.2 226.864V337.672H42.2002V147.16H93.7002H109C120 147.16 131.6 155.519 134.8 165.725L164 258.551C165.5 263.217 167.8 263.12 169.3 258.551L198.5 165.725C201.7 155.422 213.3 147.16 224.3 147.16H239.6H291.1V337.672H231.1V226.864C231.1 226.864 231.1 226.864 231.1 226.767C231.1 224.629 229.3 222.976 227.2 222.976C225.2 223.073 223.6 224.434 223.3 226.281Z" fill="#393939"/>
</g>
<defs>
<clipPath id="clip0_2301_4004">
<rect width="780" height="486" fill="white"/>
</clipPath>
</defs>
</svg>
