<svg width="48" height="48" viewBox="0 0 48 48" fill="none" xmlns="http://www.w3.org/2000/svg">
<path d="M15 30.001H13C12.448 30.001 12 29.553 12 29.001V20.001H9C8.448 20.001 8 19.553 8 19.001C8 18.449 8.448 18.001 9 18.001H13C13.552 18.001 14 18.449 14 19.001V28.001H14.322L18.072 18.629C18.278 18.117 18.86 17.865 19.372 18.073C19.886 18.279 20.134 18.861 19.928 19.373L15.928 29.373C15.778 29.751 15.408 30.001 15 30.001Z" fill="#333333"/>
<path d="M21.0015 29.9996C20.9355 29.9996 20.8695 29.9936 20.8035 29.9796C20.2615 29.8716 19.9095 29.3456 20.0175 28.8036L22.0175 18.8036C22.1275 18.2596 22.6775 17.9116 23.1935 18.0196C23.7355 18.1276 24.0875 18.6536 23.9795 19.1956L21.9795 29.1956C21.8835 29.6716 21.4675 29.9996 21.0015 29.9996Z" fill="#333333"/>
<path d="M27.3056 29.9968C26.5096 29.9968 25.6296 29.8348 24.6776 29.5108C24.1556 29.3328 23.8756 28.7648 24.0516 28.2408C24.2316 27.7168 24.7976 27.4428 25.3216 27.6148C26.6916 28.0788 27.8136 28.1148 28.5636 27.7148C29.2216 27.3648 29.4456 26.7648 29.5136 26.5228C29.6416 26.0528 29.0316 25.3608 27.8796 24.6768C27.1636 24.2488 25.6716 23.3608 25.3216 21.9208C25.1376 21.1668 25.2816 20.3968 25.7536 19.6348C27.2376 17.2268 31.0856 18.1708 31.2476 18.2148C31.7836 18.3508 32.1056 18.8928 31.9696 19.4268C31.8356 19.9628 31.2996 20.2908 30.7576 20.1528C30.0876 19.9868 28.0456 19.7268 27.4576 20.6868C27.1876 21.1228 27.2476 21.3668 27.2656 21.4468C27.4176 22.0728 28.4616 22.6948 28.9036 22.9588C31.5036 24.5048 31.7196 26.0368 31.4456 27.0488C31.1596 28.0908 30.4536 28.9768 29.5056 29.4808C28.8596 29.8268 28.1256 29.9968 27.3056 29.9968Z" fill="#333333"/>
<path d="M33.0005 30C32.8765 30 32.7505 29.978 32.6285 29.928C32.1145 29.722 31.8665 29.14 32.0725 28.628L36.0725 18.628C36.2225 18.25 36.5925 18 37.0005 18H39.0005C39.5525 18 40.0005 18.448 40.0005 19V29C40.0005 29.552 39.5525 30 39.0005 30C38.4485 30 38.0005 29.552 38.0005 29V20H37.6785L33.9285 29.372C33.7725 29.762 33.3965 30 33.0005 30Z" fill="#333333"/>
<path d="M39 26H35C34.448 26 34 25.552 34 25C34 24.448 34.448 24 35 24H39C39.552 24 40 24.448 40 25C40 25.552 39.552 26 39 26Z" fill="#333333"/>
<path d="M41 40H7C3.14 40 0 36.86 0 33V15C0 11.14 3.14 8 7 8H41C44.86 8 48 11.14 48 15V33C48 36.86 44.86 40 41 40ZM7 10C4.242 10 2 12.244 2 15V33C2 35.756 4.242 38 7 38H41C43.758 38 46 35.756 46 33V15C46 12.244 43.758 10 41 10H7Z" fill="#333333" fill-opacity="0.2"/>
</svg>
