<svg width="108" height="108" viewBox="0 0 108 108" fill="none" xmlns="http://www.w3.org/2000/svg">
<path d="M21.6001 48.3C21.6001 36.7887 21.6001 31.033 22.9592 29.0967C24.3182 27.1603 29.7301 25.3078 40.5538 21.6029L42.6159 20.897C48.258 18.9657 51.0791 18 54.0001 18C56.9211 18 59.7422 18.9657 65.3843 20.897L67.4464 21.6029C78.2701 25.3078 83.682 27.1603 85.041 29.0967C86.4001 31.033 86.4001 36.7887 86.4001 48.3C86.4001 50.0387 86.4001 51.9243 86.4001 53.9689C86.4001 74.266 71.1398 84.1158 61.5653 88.2982C58.968 89.4327 57.6694 90 54.0001 90C50.3308 90 49.0321 89.4327 46.4349 88.2982C36.8604 84.1158 21.6001 74.266 21.6001 53.9689C21.6001 51.9243 21.6001 50.0387 21.6001 48.3Z" stroke="currentColor" stroke-width="1.5"/>
<path d="M49.9007 40.9081C51.7246 37.636 52.6366 36 54.0001 36C55.3636 36 56.2756 37.636 58.0995 40.9081L58.5714 41.7546C59.0897 42.6844 59.3489 43.1493 59.753 43.456C60.1571 43.7628 60.6603 43.8767 61.6668 44.1044L62.5832 44.3117C66.1251 45.1131 67.8961 45.5138 68.3174 46.8687C68.7387 48.2236 67.5314 49.6355 65.1168 52.4591L64.4921 53.1896C63.8059 53.992 63.4628 54.3932 63.3085 54.8895C63.1541 55.3858 63.206 55.9211 63.3097 56.9917L63.4042 57.9663C63.7692 61.7337 63.9518 63.6173 62.8487 64.4547C61.7456 65.2921 60.0874 64.5286 56.7711 63.0017L55.9132 62.6066C54.9708 62.1727 54.4996 61.9558 54.0001 61.9558C53.5006 61.9558 53.0294 62.1727 52.087 62.6066L51.2291 63.0017C47.9127 64.5286 46.2546 65.2921 45.1515 64.4547C44.0484 63.6173 44.231 61.7337 44.596 57.9663L44.6905 56.9917C44.7942 55.9211 44.8461 55.3858 44.6917 54.8895C44.5374 54.3932 44.1943 53.992 43.5081 53.1896L42.8834 52.4591C40.4688 49.6355 39.2614 48.2236 39.6828 46.8687C40.1041 45.5138 41.8751 45.1131 45.417 44.3117L46.3334 44.1044C47.3399 43.8767 47.8431 43.7628 48.2472 43.456C48.6513 43.1493 48.9105 42.6844 49.4288 41.7546L49.9007 40.9081Z" stroke="currentColor" stroke-width="1.5"/>
</svg>
