<svg width="143" height="23" viewBox="0 0 143 23" fill="none" xmlns="http://www.w3.org/2000/svg">
<path d="M110.63 22.1362C117.339 22.1362 121.738 16.9862 121.738 10.7503C121.738 4.26336 117.061 0.310547 110.797 0.310547C103.113 0.310547 99.8281 6.68604 99.8281 11.1959C99.8281 16.207 103.002 22.1369 110.63 22.1369V22.1362ZM111.377 21.114C106.365 21.114 102.264 16.9023 102.264 10.4154C102.264 4.31841 105.924 1.12313 110.573 1.12313C114.972 1.12313 119.16 4.82824 119.16 11.5098C119.16 19.6107 113.882 21.1133 111.377 21.1133V21.114Z" fill="currentColor"/>
<path d="M90.343 8.77457C90.343 4.43184 90.343 3.65202 90.3981 2.76146C90.4531 1.78702 90.672 1.31388 91.4669 1.17496C91.7958 1.11926 92.1792 1.09108 92.3718 1.09108C92.4813 1.09108 92.5914 1.03538 92.5914 0.923977C92.5914 0.756873 92.4544 0.701172 92.153 0.701172C91.3306 0.701172 89.3292 0.784396 89.1923 0.784396C89.0553 0.784396 87.3279 0.701172 86.0946 0.701172C85.7932 0.701172 85.6562 0.756873 85.6562 0.923977C85.6562 1.03538 85.7657 1.09108 85.8758 1.09108C86.1222 1.09108 86.5881 1.11926 86.8076 1.17496C87.7126 1.36959 87.9315 1.8152 87.9865 2.76146C88.0416 3.65202 88.0416 4.43184 88.0416 8.77457V13.6743C88.0416 16.3467 88.0416 18.5459 87.9046 19.7156C87.7945 20.5229 87.6576 21.1356 87.1097 21.247C86.8633 21.3027 86.5344 21.3584 86.2873 21.3584C86.1228 21.3584 86.0684 21.4423 86.0684 21.5255C86.0684 21.6927 86.2054 21.7484 86.5068 21.7484C87.5213 21.7484 88.3437 21.6651 89.1936 21.6651C91.8528 21.6651 94.1831 21.8322 96.5403 21.8322C97.9931 21.8322 98.0756 21.7208 98.2676 21.0806C98.4865 20.2733 98.6792 18.6029 98.6792 18.2968C98.6792 17.9908 98.6517 17.8794 98.5147 17.8794C98.3502 17.8794 98.2952 18.019 98.2683 18.2411C98.1864 18.77 97.9118 19.4659 97.5553 19.9115C96.8974 20.7189 95.691 20.747 94.2382 20.747C92.0999 20.747 91.3869 20.5524 90.9485 20.1068C90.4551 19.6055 90.3456 17.8237 90.3456 13.732V8.77653L90.343 8.77457Z" fill="currentColor"/>
<path d="M65.7082 13.534C65.8471 13.534 65.9028 13.5897 65.9585 13.7011L68.5476 20.5497C68.7147 20.9953 68.5476 21.2457 68.3805 21.3014C68.2691 21.3296 68.1859 21.3846 68.1859 21.4967C68.1859 21.6638 68.4919 21.6638 69.0207 21.6913C70.9414 21.747 72.9736 21.747 73.3916 21.747C73.6983 21.747 73.9487 21.6913 73.9487 21.5242C73.9487 21.3846 73.8097 21.3571 73.6426 21.3571C73.4198 21.3571 72.9742 21.3289 72.5568 21.19C71.9723 21.0229 71.1649 20.5773 70.1629 18.0995C68.4644 13.8682 64.0941 2.37018 63.6761 1.31251C63.3425 0.449472 63.2311 0.310547 63.064 0.310547C62.8969 0.310547 62.7855 0.47765 62.4513 1.39639L56.1315 18.6847C55.6302 20.0766 55.0738 21.1349 53.7927 21.3014C53.5699 21.3296 53.3196 21.3571 53.1243 21.3571C52.874 21.3571 52.7344 21.4128 52.7344 21.5242C52.7344 21.6913 52.9015 21.747 53.2632 21.747C54.5712 21.747 56.1027 21.6638 56.4087 21.6638C56.7147 21.6638 57.8287 21.747 58.4965 21.747C58.7468 21.747 58.9978 21.6913 58.9978 21.5242C58.9978 21.4128 58.9139 21.3571 58.6361 21.3571C58.5522 21.3571 58.469 21.3571 58.3857 21.3571C57.9126 21.3571 57.3838 21.1067 57.3838 20.5497C57.3838 20.0484 57.5227 19.38 57.7737 18.6847L59.4441 13.7575C59.4998 13.6185 59.583 13.5347 59.7226 13.5347H65.7082V13.534ZM60.0286 12.532C59.9454 12.532 59.8989 12.4796 59.9454 12.3368L62.3641 4.91671C62.5004 4.49796 62.7036 4.50911 62.8497 4.92457L65.4578 12.3368C65.4958 12.4449 65.4854 12.532 65.3464 12.532H60.0293H60.0286Z" fill="currentColor"/>
<path d="M69.8231 21.7094C69.4509 21.7133 68.4247 21.7749 67.7956 21.7677C67.5452 21.7644 67.2949 21.7061 67.2969 21.539C67.2982 21.4276 67.3827 21.3732 67.6606 21.3765C67.7445 21.3778 67.8277 21.3785 67.9109 21.3798C68.384 21.3857 68.9162 21.1412 68.9227 20.5849C68.9286 20.0836 68.7975 19.4139 68.5557 18.7153L68.4352 18.3457L69.8631 18.3627L69.8224 21.7107L69.8231 21.7094Z" fill="currentColor"/>
<path d="M18.6939 8.6039C18.6939 4.32212 18.6939 3.5541 18.749 2.67599C18.804 1.7153 19.0242 1.2212 19.7667 1.11177C20.0963 1.05672 20.2621 1.0292 20.4541 1.0292C20.5642 1.0292 20.6743 0.974151 20.6743 0.864059C20.6743 0.699577 20.5367 0.644531 20.2339 0.644531C19.4082 0.644531 17.7582 0.726445 17.5104 0.726445C17.2627 0.726445 15.5845 0.644531 14.3466 0.644531C14.0439 0.644531 13.9062 0.699577 13.9062 0.864059C13.9062 0.974151 14.0163 1.0292 14.1264 1.0292C14.3741 1.0292 14.842 1.05672 15.0616 1.11177C15.9692 1.30377 16.1893 1.74283 16.245 2.67599C16.3001 3.5541 16.3001 4.32278 16.3001 8.6039V12.6111C16.3001 16.6183 17.3453 18.539 18.6933 19.8293C20.6467 21.6681 23.4253 21.7782 24.3604 21.7782C25.9836 21.7782 28.0471 21.5036 30.0275 19.7474C32.228 17.7992 32.5583 14.5056 32.5583 11.541V8.60456C32.5583 4.32278 32.5583 3.55475 32.6133 2.67664C32.6684 1.71596 32.8886 1.2769 33.631 1.11242C33.9613 1.05738 34.1264 1.02985 34.3184 1.02985C34.4285 1.02985 34.5386 0.974806 34.5386 0.864715C34.5386 0.700232 34.401 0.645187 34.0983 0.645187C33.2726 0.645187 31.9796 0.7271 31.787 0.7271C31.6218 0.7271 30.1087 0.645187 28.8709 0.645187C28.5688 0.645187 28.4305 0.700232 28.4305 0.864715C28.4305 0.974806 28.5406 1.02985 28.6507 1.02985C28.8984 1.02985 29.3656 1.05738 29.5858 1.11242C30.4941 1.30443 30.7136 1.74348 30.7686 2.67664C30.8237 3.55475 30.8237 4.32343 30.8237 8.60456V12.0351C30.8237 14.8621 30.4941 17.195 29.228 18.7592C28.2378 19.9394 26.5871 20.7356 24.9089 20.7356C23.3407 20.7356 22.1028 20.4886 20.7549 19.2258C19.5714 18.1006 18.6913 16.3988 18.6913 12.4466V8.6039H18.6939Z" fill="currentColor"/>
<path d="M5.14351 10.0572C5.97444 10.0565 8.72739 10.0506 9.40105 9.97393C11.6507 9.6869 10.7569 7.71901 11.3087 7.71901C11.4554 7.71901 11.4843 7.88612 11.5144 8.19214C11.5269 8.36777 11.5341 8.58795 11.5446 8.84614V11.6679C11.5544 11.778 11.559 11.856 11.5544 11.9058C11.54 12.044 11.5026 12.1246 11.386 12.1142C11.2693 12.1037 11.2222 11.987 11.0931 11.8075C10.7477 11.3199 10.3866 11.2419 8.99607 11.0866C7.86042 11.0611 6.32765 11.0598 5.16121 11.0598V11.0624C5.06029 11.0788 5.019 11.1443 5.019 11.3081V13.6745C5.019 16.0408 5.019 18.0172 5.10682 19.2976C5.19463 20.5506 5.51769 21.1627 6.30996 21.2465C6.69135 21.3022 7.19069 21.3298 7.51311 21.3579C7.7772 21.3861 7.86501 21.4418 7.86501 21.5532C7.86501 21.6921 7.71822 21.7478 7.39515 21.7478C5.75229 21.7478 3.9325 21.6646 3.78571 21.6646H3.52163C2.93447 21.6921 1.61402 21.7478 0.910223 21.7478C0.587156 21.7478 0.440367 21.6921 0.440367 21.525C0.440367 21.4418 0.499345 21.3855 0.763434 21.3579C1.05636 21.3298 1.3211 21.3022 1.52621 21.2465C2.1422 21.0794 2.34797 20.662 2.43578 19.4372C2.52359 18.24 2.55308 16.2911 2.55308 13.6745V8.77471C2.55308 4.43199 2.55308 3.65217 2.4941 2.76161C2.43578 1.81534 2.20052 1.36973 1.23198 1.17511C1.0557 1.14693 0.762779 1.14693 0.498689 1.11941C0.2346 1.09123 0 1.06371 0 0.924125C0 0.757022 0.146789 0.70132 0.469201 0.70132C1.61337 0.70132 2.7287 0.784544 3.78506 0.784544C4.37156 0.784544 10.329 0.784544 11.0033 0.757021C11.6782 0.728843 12.2064 0.728843 12.441 0.589918C12.5288 0.534217 12.6461 0.478516 12.7051 0.478516C12.8224 0.478516 12.8814 0.589918 12.8814 0.728843C12.8814 0.867769 12.7641 1.25768 12.7051 1.59188C12.5878 2.39922 12.5878 2.84418 12.5288 3.62399C12.5288 3.9582 12.382 4.18101 12.2647 4.18101C12.118 4.18101 12.0885 4.0696 12.059 3.81928C12.0295 3.42937 11.9122 2.76161 11.5013 2.4274C11.1488 2.1489 10.6206 1.92609 9.76999 1.89857C8.27326 1.87104 6.77654 1.84287 5.28047 1.81534C5.10419 1.81534 5.01638 1.89857 5.01638 2.12203V9.80551C5.01638 9.94247 5.03604 10.0237 5.14089 10.048V10.0578L5.14351 10.0572Z" fill="currentColor"/>
<path d="M130.918 20.4096C131.447 21.7457 131.586 22.1357 131.92 22.1357C132.198 22.1357 132.31 21.69 133.089 20.0197C133.729 18.6553 134.982 15.6488 136.68 11.5845C138.1 8.1599 139.492 4.81914 139.798 4.03998C140.55 2.14679 140.967 1.67366 141.33 1.42268C141.858 1.08847 142.471 1.08847 142.666 1.08847C142.889 1.08847 143 1.03277 143 0.893845C143 0.75492 142.833 0.699219 142.527 0.699219C141.719 0.699219 140.522 0.782443 140.355 0.782443C140.021 0.782443 138.74 0.699219 137.627 0.699219C137.181 0.699219 137.014 0.75492 137.014 0.922023C137.014 1.0616 137.153 1.08913 137.321 1.08913C137.627 1.08913 138.044 1.08913 138.379 1.20053C138.657 1.33945 138.74 1.61796 138.74 1.84077C138.74 2.09109 138.629 2.481 138.49 2.89843C137.877 4.90302 134.147 14.6186 132.533 18.3493L126.854 3.56685C126.547 2.78703 126.297 2.03539 126.297 1.78506C126.297 1.59044 126.352 1.36763 126.659 1.22805C126.909 1.11665 127.41 1.08913 127.716 1.08913C127.911 1.08913 127.995 1.03343 127.995 0.894501C127.995 0.755575 127.744 0.699874 127.243 0.699874C126.185 0.699874 124.988 0.783098 124.71 0.783098C124.375 0.783098 122.872 0.699874 121.536 0.699874C121.09 0.699874 120.812 0.727397 120.812 0.894501C120.812 1.0059 120.868 1.08913 121.035 1.08913C121.202 1.08913 121.676 1.08913 122.093 1.20053C123.067 1.47904 123.485 1.78506 124.098 3.34404L130.918 20.4096Z" fill="currentColor"/>
<path d="M79.5615 21.6632H79.5621C79.798 21.6684 81.4605 21.7464 82.8963 21.7464C83.1938 21.7464 83.302 21.6632 83.302 21.5236C83.302 21.4404 83.2207 21.3565 82.9776 21.3565C82.8151 21.3565 82.2476 21.3008 81.8688 21.2451C81.0569 21.1337 80.895 20.521 80.8138 19.7136C80.6788 18.5446 80.6788 16.3447 80.6788 13.6724V8.77261C80.6788 4.42989 80.6788 3.65007 80.7332 2.75951C80.7869 1.78506 81.0038 1.31193 81.7338 1.17301C82.0582 1.11731 82.2207 1.08913 82.4101 1.08913C82.5182 1.08913 82.6263 1.03343 82.6263 0.922023C82.6263 0.75492 82.4907 0.699219 82.1932 0.699219C81.4101 0.699219 79.7961 0.776545 79.5621 0.782443H79.5615C79.3275 0.7772 77.7135 0.699219 76.9304 0.699219C76.6329 0.699219 76.4973 0.75492 76.4973 0.922023C76.4973 1.03343 76.6054 1.08913 76.7135 1.08913C76.9029 1.08913 77.0654 1.11731 77.3898 1.17301C78.1204 1.31193 78.3367 1.78506 78.3904 2.75951C78.4442 3.65007 78.4442 4.42989 78.4442 8.77261V13.6724C78.4442 16.3447 78.4442 18.5439 78.3092 19.7136C78.2279 20.521 78.0661 21.1337 77.2541 21.2451C76.8754 21.3008 76.3072 21.3565 76.1454 21.3565C75.9016 21.3565 75.8203 21.4404 75.8203 21.5236C75.8203 21.6625 75.9284 21.7464 76.226 21.7464C77.6617 21.7464 79.3242 21.6684 79.5602 21.6632H79.5615Z" fill="currentColor"/>
<path d="M38.3421 20.5485C42.9194 14.1455 47.158 7.73916 51.5289 1.33942C51.6449 1.1697 51.6494 1.11662 51.6494 1.00522C51.6494 0.838113 51.4987 0.782412 51.0472 0.782412H42.6455C41.7117 0.782412 40.2661 0.81059 37.4057 0.699188C36.5924 0.67101 36.4122 0.503906 36.1409 0.503906C35.9601 0.503906 35.8998 0.643487 35.8395 1.03274C35.6888 1.8676 35.2373 4.40102 35.2373 4.73523C35.2373 4.95803 35.2674 5.09696 35.4181 5.09696C35.5688 5.09696 35.6894 5.01374 35.749 4.59565C35.8395 3.95541 36.3814 2.92527 37.4653 2.39644C38.4293 1.9233 40.2661 1.83942 41.8015 1.83942H48.3362C44.1508 8.13104 39.6036 14.3951 35.1167 20.6586C34.7549 21.1599 34.6953 21.2988 34.6953 21.4384C34.6953 21.633 34.8762 21.6612 35.2373 21.6612C40.5072 21.6612 45.5662 21.8001 50.5957 21.8001C51.2884 21.8001 51.3185 21.7444 51.4987 21.0766C51.6796 20.3807 52.1009 18.7378 52.1009 17.8748C52.1009 17.346 52.0407 17.2346 51.8605 17.2346C51.7097 17.2346 51.6494 17.4017 51.5898 17.6802C51.5295 18.0701 51.2595 18.8224 50.9876 19.1835C50.3565 20.0196 49.3913 20.5478 46.2294 20.5478H38.3421V20.5485Z" fill="currentColor"/>
</svg>
