<svg width="22" height="25" viewBox="0 0 22 25" fill="none" xmlns="http://www.w3.org/2000/svg">
<path d="M19.6426 11.0562C19.6426 15.2133 13.4223 20.9585 11.5358 22.6054C11.2254 22.8763 10.7742 22.8763 10.4638 22.6054C8.57729 20.9585 2.35693 15.2133 2.35693 11.0562C2.35693 6.15597 6.22647 2.18359 10.9998 2.18359C15.7731 2.18359 19.6426 6.15597 19.6426 11.0562Z" stroke="currentColor"/>
<path d="M13.8807 9.64059C13.8807 11.2879 12.5909 12.6234 10.9998 12.6234C9.40869 12.6234 8.11884 11.2879 8.11884 9.64059C8.11884 7.99323 9.40869 6.65779 10.9998 6.65779C12.5909 6.65779 13.8807 7.99323 13.8807 9.64059Z" stroke="currentColor"/>
</svg>
