<svg width="28" height="28" viewBox="0 0 28 28" fill="none" xmlns="http://www.w3.org/2000/svg">
<path d="M18.4788 17.9682L17.9423 17.4441L18.4788 17.9682ZM19.1367 17.2948L19.6731 17.8189V17.8189L19.1367 17.2948ZM22.6274 16.8238L22.2612 17.4783H22.2612L22.6274 16.8238ZM25.387 18.3681L25.0208 19.0226L25.387 18.3681ZM26.1646 23.208L26.7011 23.7321H26.7011L26.1646 23.208ZM24.1127 25.3083L23.5763 24.7842L24.1127 25.3083ZM22.1991 26.3041L22.2707 27.0506L22.1991 26.3041ZM7.95552 20.0016L8.49199 19.4775L7.95552 20.0016ZM1.00417 6.64757L0.255311 6.68891L0.255311 6.68892L1.00417 6.64757ZM10.3564 8.80626L10.8929 9.33038L10.3564 8.80626ZM10.5828 4.8601L11.1894 4.41899L10.5828 4.8601ZM8.76137 2.35552L8.15481 2.79663L8.15481 2.79663L8.76137 2.35552ZM4.26654 1.93285L4.80301 2.45697V2.45697L4.26654 1.93285ZM1.99934 4.25349L1.46287 3.72937H1.46287L1.99934 4.25349ZM12.6467 15.1998L13.1832 14.6757L12.6467 15.1998ZM19.0153 18.4923L19.6731 17.8189L18.6002 16.7707L17.9423 17.4441L19.0153 18.4923ZM22.2612 17.4783L25.0208 19.0226L25.7533 17.7136L22.9937 16.1693L22.2612 17.4783ZM25.6282 22.6839L23.5763 24.7842L24.6492 25.8324L26.7011 23.7321L25.6282 22.6839ZM22.1274 25.5575C19.9608 25.7654 14.4422 25.5679 8.49199 19.4775L7.41905 20.5257C13.7374 26.9929 19.7301 27.2944 22.2707 27.0506L22.1274 25.5575ZM8.49199 19.4775C2.83845 13.6907 1.87356 8.78933 1.75303 6.60623L0.255311 6.68892C0.395212 9.22299 1.50362 14.4709 7.41905 20.5257L8.49199 19.4775ZM10.4786 9.75443L10.8929 9.33038L9.81995 8.28214L9.40566 8.70619L10.4786 9.75443ZM11.1894 4.41899L9.36793 1.9144L8.15481 2.79663L9.97623 5.30122L11.1894 4.41899ZM3.73007 1.40874L1.46287 3.72937L2.53581 4.7776L4.80301 2.45697L3.73007 1.40874ZM9.94213 9.23031C9.40566 8.70619 9.40495 8.70692 9.40424 8.70765C9.404 8.7079 9.40328 8.70864 9.40279 8.70915C9.40181 8.71016 9.40081 8.7112 9.39978 8.71228C9.39772 8.71443 9.39557 8.71671 9.39332 8.7191C9.38884 8.7239 9.38398 8.72919 9.3788 8.73499C9.36843 8.74658 9.35672 8.76019 9.34396 8.77588C9.31843 8.80724 9.28862 8.84692 9.25679 8.89529C9.19299 8.99223 9.12149 9.12337 9.06018 9.29088C8.93576 9.63083 8.8627 10.0948 8.95218 10.6885C9.12847 11.8582 9.92658 13.4888 12.1103 15.724L13.1832 14.6757C11.0985 12.5419 10.5444 11.1877 10.4354 10.465C10.3823 10.1124 10.4334 9.90315 10.4688 9.80645C10.4874 9.75565 10.5047 9.72761 10.5098 9.71995C10.5123 9.71602 10.512 9.71705 10.5073 9.72283C10.5049 9.72572 10.5015 9.72982 10.4967 9.73508C10.4944 9.73772 10.4917 9.74065 10.4887 9.74387C10.4872 9.74549 10.4856 9.74717 10.4839 9.74893C10.4831 9.74981 10.4822 9.75071 10.4813 9.75163C10.4809 9.75208 10.4802 9.75279 10.48 9.75301C10.4793 9.75372 10.4786 9.75443 9.94213 9.23031ZM12.1103 15.724C14.2919 17.957 15.8898 18.7805 17.0464 18.9632C17.6352 19.0561 18.0972 18.9803 18.4363 18.8503C18.603 18.7864 18.7332 18.7119 18.829 18.6459C18.8769 18.6129 18.916 18.5821 18.9469 18.5557C18.9623 18.5426 18.9757 18.5305 18.9871 18.5199C18.9928 18.5145 18.998 18.5095 19.0027 18.5049C19.005 18.5026 19.0072 18.5004 19.0093 18.4983C19.0104 18.4973 19.0114 18.4962 19.0124 18.4952C19.0129 18.4947 19.0136 18.494 19.0139 18.4937C19.0146 18.493 19.0153 18.4923 18.4788 17.9682C17.9423 17.4441 17.943 17.4433 17.9437 17.4426C17.9439 17.4424 17.9446 17.4417 17.9451 17.4413C17.946 17.4404 17.9469 17.4395 17.9477 17.4386C17.9494 17.4369 17.9511 17.4353 17.9527 17.4337C17.9558 17.4306 17.9587 17.4278 17.9613 17.4254C17.9665 17.4205 17.9706 17.4169 17.9735 17.4144C17.9794 17.4094 17.9808 17.4087 17.9775 17.411C17.9712 17.4154 17.9458 17.4319 17.8993 17.4497C17.8118 17.4833 17.6161 17.5345 17.2804 17.4815C16.5881 17.3722 15.2699 16.8116 13.1832 14.6757L12.1103 15.724ZM9.36793 1.9144C8.01227 0.0502756 5.3406 -0.239752 3.73007 1.40874L4.80301 2.45697C5.71883 1.51956 7.30633 1.62991 8.15481 2.79663L9.36793 1.9144ZM1.75303 6.60623C1.71678 5.94961 2.01255 5.31319 2.53581 4.7776L1.46287 3.72937C0.733443 4.47598 0.189769 5.5017 0.255311 6.68891L1.75303 6.60623ZM23.5763 24.7842C23.1388 25.2319 22.6464 25.5077 22.1274 25.5575L22.2707 27.0506C23.2406 26.9576 24.0432 26.4527 24.6492 25.8324L23.5763 24.7842ZM10.8929 9.33038C12.1828 8.01005 12.2831 5.92294 11.1894 4.41899L9.97623 5.30122C10.6633 6.24602 10.5712 7.51322 9.81995 8.28214L10.8929 9.33038ZM25.0208 19.0226C26.385 19.786 26.6501 21.6379 25.6282 22.6839L26.7011 23.7321C28.4493 21.9427 27.9334 18.9336 25.7533 17.7136L25.0208 19.0226ZM19.6731 17.8189C20.3376 17.1389 21.383 16.9869 22.2612 17.4783L22.9937 16.1693C21.5446 15.3584 19.7547 15.589 18.6002 16.7707L19.6731 17.8189Z" fill="currentColor"/>
</svg>
