<svg width="36" height="36" viewBox="0 0 36 36" fill="none" xmlns="http://www.w3.org/2000/svg">
<path d="M7.1999 4.49961C7.1999 4.26091 7.10508 4.032 6.9363 3.86321C6.76752 3.69443 6.5386 3.59961 6.2999 3.59961C6.06121 3.59961 5.83229 3.69443 5.66351 3.86321C5.49472 4.032 5.3999 4.26091 5.3999 4.49961V8.99961C5.39992 9.63153 5.56627 10.2523 5.88223 10.7996C6.1982 11.3468 6.65265 11.8013 7.1999 12.1172V13.4996C7.1999 14.2157 7.48437 14.9025 7.99071 15.4088C8.49706 15.9151 9.18382 16.1996 9.8999 16.1996H17.0999V22.4996C17.0999 22.7383 17.1947 22.9672 17.3635 23.136C17.5323 23.3048 17.7612 23.3996 17.9999 23.3996C18.2386 23.3996 18.4675 23.3048 18.6363 23.136C18.8051 22.9672 18.8999 22.7383 18.8999 22.4996V16.1996H26.0999C26.816 16.1996 27.5027 15.9151 28.0091 15.4088C28.5154 14.9025 28.7999 14.2157 28.7999 13.4996V12.1172C29.3472 11.8013 29.8016 11.3468 30.1176 10.7996C30.4335 10.2523 30.5999 9.63153 30.5999 8.99961V4.49961C30.5999 4.26091 30.5051 4.032 30.3363 3.86321C30.1675 3.69443 29.9386 3.59961 29.6999 3.59961C29.4612 3.59961 29.2323 3.69443 29.0635 3.86321C28.8947 4.032 28.7999 4.26091 28.7999 4.49961V8.99961C28.7999 9.477 28.6103 9.93484 28.2727 10.2724C27.9351 10.61 27.4773 10.7996 26.9999 10.7996H8.9999C8.52251 10.7996 8.06468 10.61 7.72711 10.2724C7.38955 9.93484 7.1999 9.477 7.1999 8.99961V4.49961ZM8.9999 12.5996H26.9999V13.4996C26.9999 13.7383 26.9051 13.9672 26.7363 14.136C26.5675 14.3048 26.3386 14.3996 26.0999 14.3996H9.8999C9.66121 14.3996 9.43229 14.3048 9.26351 14.136C9.09472 13.9672 8.9999 13.7383 8.9999 13.4996V12.5996ZM9.8999 25.1996C9.66121 25.1996 9.43229 25.2944 9.26351 25.4632C9.09472 25.632 8.9999 25.8609 8.9999 26.0996C8.9999 26.3383 9.09472 26.5672 9.26351 26.736C9.43229 26.9048 9.66121 26.9996 9.8999 26.9996H12.5999C12.8386 26.9996 13.0675 26.9048 13.2363 26.736C13.4051 26.5672 13.4999 26.3383 13.4999 26.0996C13.4999 25.8609 13.4051 25.632 13.2363 25.4632C13.0675 25.2944 12.8386 25.1996 12.5999 25.1996H9.8999ZM22.4999 26.0996C22.4999 25.8609 22.5947 25.632 22.7635 25.4632C22.9323 25.2944 23.1612 25.1996 23.3999 25.1996H26.0999C26.3386 25.1996 26.5675 25.2944 26.7363 25.4632C26.9051 25.632 26.9999 25.8609 26.9999 26.0996C26.9999 26.3383 26.9051 26.5672 26.7363 26.736C26.5675 26.9048 26.3386 26.9996 26.0999 26.9996H23.3999C23.1612 26.9996 22.9323 26.9048 22.7635 26.736C22.5947 26.5672 22.4999 26.3383 22.4999 26.0996ZM17.9999 26.9996C18.2386 26.9996 18.4675 26.9048 18.6363 26.736C18.8051 26.5672 18.8999 26.3383 18.8999 26.0996C18.8999 25.8609 18.8051 25.632 18.6363 25.4632C18.4675 25.2944 18.2386 25.1996 17.9999 25.1996C17.7612 25.1996 17.5323 25.2944 17.3635 25.4632C17.1947 25.632 17.0999 25.8609 17.0999 26.0996C17.0999 26.3383 17.1947 26.5672 17.3635 26.736C17.5323 26.9048 17.7612 26.9996 17.9999 26.9996ZM17.9999 28.7996C18.2386 28.7996 18.4675 28.8944 18.6363 29.0632C18.8051 29.232 18.8999 29.4609 18.8999 29.6996V33.2996C18.8999 33.5383 18.8051 33.7672 18.6363 33.936C18.4675 34.1048 18.2386 34.1996 17.9999 34.1996C17.7612 34.1996 17.5323 34.1048 17.3635 33.936C17.1947 33.7672 17.0999 33.5383 17.0999 33.2996V29.6996C17.0999 29.4609 17.1947 29.232 17.3635 29.0632C17.5323 28.8944 17.7612 28.7996 17.9999 28.7996ZM15.9371 28.5368C16.1061 28.3678 16.201 28.1386 16.201 27.8996C16.201 27.6606 16.1061 27.4314 15.9371 27.2624C15.7681 27.0934 15.5389 26.9985 15.2999 26.9985C15.0609 26.9985 14.8317 27.0934 14.6627 27.2624L11.9627 29.9624C11.7937 30.1314 11.6988 30.3606 11.6988 30.5996C11.6988 30.8386 11.7937 31.0678 11.9627 31.2368C12.1317 31.4058 12.3609 31.5007 12.5999 31.5007C12.8389 31.5007 13.0681 31.4058 13.2371 31.2368L15.9371 28.5368ZM20.0627 27.2624C19.9789 27.346 19.9124 27.4453 19.867 27.5547C19.8216 27.664 19.7983 27.7812 19.7983 27.8996C19.7983 28.018 19.8216 28.1352 19.867 28.2446C19.9124 28.3539 19.9789 28.4532 20.0627 28.5368L22.7627 31.2368C22.9317 31.4058 23.1609 31.5007 23.3999 31.5007C23.6389 31.5007 23.8681 31.4058 24.0371 31.2368C24.2061 31.0678 24.301 30.8386 24.301 30.5996C24.301 30.3606 24.2061 30.1314 24.0371 29.9624L21.3371 27.2624C21.2535 27.1786 21.1542 27.1121 21.0448 27.0667C20.9355 27.0214 20.8183 26.998 20.6999 26.998C20.5815 26.998 20.4643 27.0214 20.355 27.0667C20.2456 27.1121 20.1463 27.1786 20.0627 27.2624Z" fill="currentColor" fill-opacity="0.8"/>
</svg>
