<svg width="36" height="36" viewBox="0 0 36 36" fill="none" xmlns="http://www.w3.org/2000/svg">
<path d="M34.4399 11.1054L24.8939 1.55943C24.7533 1.41883 24.5625 1.33984 24.3637 1.33984C24.1648 1.33984 23.9741 1.41883 23.8334 1.55943L1.55992 23.8329C1.41932 23.9736 1.34033 24.1643 1.34033 24.3632C1.34033 24.5621 1.41932 24.7528 1.55992 24.8934L11.1059 34.4394C11.2466 34.58 11.4373 34.659 11.6362 34.659C11.835 34.659 12.0258 34.58 12.1664 34.4394L16.9364 29.6694L16.9394 29.6664L21.1799 25.4259H21.1814V25.4229L25.4249 21.1824L29.6669 16.9389L34.4399 12.1659C34.5805 12.0253 34.6595 11.8346 34.6595 11.6357C34.6595 11.4368 34.5805 11.2461 34.4399 11.1054ZM29.1374 15.3474L26.4854 12.6969C26.4162 12.6253 26.3335 12.5682 26.242 12.5289C26.1505 12.4896 26.0521 12.4689 25.9525 12.468C25.8529 12.4671 25.7541 12.4861 25.662 12.5238C25.5698 12.5615 25.486 12.6172 25.4156 12.6876C25.3452 12.7581 25.2895 12.8418 25.2518 12.934C25.2141 13.0261 25.1951 13.1249 25.196 13.2245C25.1968 13.3241 25.2175 13.4225 25.2568 13.514C25.2962 13.6055 25.3533 13.6882 25.4249 13.7574L28.0769 16.4079L24.8939 19.5909L20.1209 14.8179C20.0517 14.7463 19.969 14.6892 19.8775 14.6499C19.786 14.6106 19.6876 14.5899 19.588 14.589C19.4884 14.5881 19.3896 14.6071 19.2975 14.6448C19.2053 14.6825 19.1215 14.7382 19.0511 14.8086C18.9807 14.8791 18.925 14.9628 18.8873 15.055C18.8496 15.1471 18.8306 15.2459 18.8315 15.3455C18.8323 15.4451 18.853 15.5435 18.8923 15.635C18.9317 15.7265 18.9888 15.8092 19.0604 15.8784L23.8334 20.6514L20.6519 23.8329L17.9999 21.1809C17.8585 21.0443 17.669 20.9687 17.4724 20.9704C17.2757 20.9721 17.0876 21.051 16.9486 21.1901C16.8095 21.3291 16.7306 21.5172 16.7289 21.7139C16.7272 21.9105 16.8028 22.1 16.9394 22.2414L19.5899 24.8934L16.4099 28.0764L11.6354 23.3019C11.5662 23.2303 11.4835 23.1732 11.392 23.1339C11.3005 23.0946 11.2021 23.0739 11.1025 23.073C11.0029 23.0721 10.9041 23.0911 10.812 23.1288C10.7198 23.1665 10.636 23.2222 10.5656 23.2926C10.4952 23.3631 10.4395 23.4468 10.4018 23.539C10.3641 23.6311 10.3451 23.7299 10.346 23.8295C10.3469 23.9291 10.3675 24.0275 10.4068 24.119C10.4462 24.2105 10.5033 24.2933 10.5749 24.3624L15.3479 29.1369L11.6354 32.8479L3.15142 24.3624L24.3629 3.15093L32.8499 11.6364L29.1389 15.3474H29.1374Z" fill="currentColor" fill-opacity="0.8"/>
</svg>
