<svg width="180" height="180" viewBox="0 0 180 180" fill="none" xmlns="http://www.w3.org/2000/svg">
<path d="M44.4424 42.9158C44.7331 42.6207 44.7295 42.1459 44.4344 41.8552C44.1393 41.5645 43.6645 41.5681 43.3738 41.8632L44.4424 42.9158ZM68.4 34.6634L67.8657 34.1371C67.5781 34.4291 67.5781 34.8978 67.8657 35.1898L68.4 34.6634ZM78.3681 45.8516C78.6588 46.1467 79.1337 46.1502 79.4288 45.8596C79.7239 45.5689 79.7274 45.094 79.4368 44.7989L78.3681 45.8516ZM79.4368 24.5273C79.7275 24.2322 79.7239 23.7573 79.4288 23.4666C79.1337 23.176 78.6588 23.1795 78.3681 23.4746L79.4368 24.5273ZM90 143.25C77.2506 143.25 67.7651 143.248 60.4751 142.253C53.2079 141.262 48.2344 139.295 44.4424 135.446L43.3738 136.498C47.49 140.677 52.8345 142.724 60.2722 143.74C67.6872 144.752 77.2936 144.75 90 144.75V143.25ZM35.25 89.1807C35.25 102.081 35.2485 111.83 36.245 119.355C37.2443 126.9 39.2592 132.321 43.3738 136.498L44.4424 135.446C40.6489 131.595 38.7098 126.541 37.732 119.158C36.7515 111.755 36.75 102.123 36.75 89.1807H35.25ZM143.25 89.1807C143.25 102.123 143.248 111.755 142.268 119.158C141.29 126.541 139.351 131.595 135.558 135.446L136.626 136.498C140.741 132.321 142.756 126.9 143.755 119.355C144.752 111.83 144.75 102.081 144.75 89.1807H143.25ZM90 144.75C102.706 144.75 112.313 144.752 119.728 143.74C127.165 142.724 132.51 140.677 136.626 136.498L135.558 135.446C131.766 139.295 126.792 141.262 119.525 142.253C112.235 143.248 102.749 143.25 90 143.25V144.75ZM90 35.1114C102.749 35.1114 112.235 35.113 119.525 36.108C126.792 37.0999 131.766 39.0663 135.558 42.9158L136.626 41.8632C132.51 37.6846 127.165 35.6369 119.728 34.6218C112.313 33.6097 102.706 33.6114 90 33.6114V35.1114ZM144.75 89.1807C144.75 76.2806 144.752 66.5311 143.755 59.0064C142.756 51.4612 140.741 46.0402 136.626 41.8632L135.558 42.9158C139.351 46.7669 141.29 51.8204 142.268 59.2033C143.248 66.6067 143.25 76.2388 143.25 89.1807H144.75ZM36.75 89.1807C36.75 76.2388 36.7515 66.6067 37.732 59.2033C38.7098 51.8204 40.6489 46.7669 44.4424 42.9158L43.3738 41.8632C39.2592 46.0402 37.2443 51.4612 36.245 59.0064C35.2485 66.5311 35.25 76.2806 35.25 89.1807H36.75ZM90 33.6114C81.4765 33.6114 74.3544 33.6112 68.3621 33.9144L68.4379 35.4125C74.3841 35.1116 81.4636 35.1114 90 35.1114V33.6114ZM67.8657 35.1898L78.3681 45.8516L79.4368 44.7989L68.9343 34.1371L67.8657 35.1898ZM68.9343 35.1897L79.4368 24.5273L78.3681 23.4746L67.8657 34.1371L68.9343 35.1897Z" fill="currentColor"/>
<path d="M69 93L81 105L111 75" stroke="currentColor" stroke-width="1.5" stroke-linecap="round" stroke-linejoin="round"/>
</svg>
