<svg width="24" height="24" viewBox="0 0 24 24" fill="none" xmlns="http://www.w3.org/2000/svg">
<path d="M8.5 17C3.813 17 0 13.187 0 8.5C0 3.813 3.813 0 8.5 0C13.187 0 17 3.813 17 8.5C17 13.187 13.187 17 8.5 17ZM8.5 1C4.364 1 1 4.364 1 8.5C1 12.636 4.364 16 8.5 16C12.636 16 16 12.636 16 8.5C16 4.364 12.636 1 8.5 1Z" fill="currentColor"/>
<path d="M23.5 24.0005C23.372 24.0005 23.244 23.9515 23.146 23.8545L13.803 14.5115C13.608 14.3165 13.608 13.9995 13.803 13.8045C13.998 13.6095 14.315 13.6095 14.51 13.8045L23.853 23.1475C24.048 23.3425 24.048 23.6595 23.853 23.8545C23.756 23.9515 23.628 24.0005 23.5 24.0005Z" fill="currentColor"/>
</svg>
