<svg width="180" height="100" viewBox="0 0 180 100" fill="none" xmlns="http://www.w3.org/2000/svg">
<circle cx="90" cy="50" r="49.5" fill="#FDFBFA" fill-opacity="0.3" stroke="#ADADAD"/>
<path d="M63.784 56.096C62.6747 56.096 61.672 55.8507 60.776 55.36C59.8907 54.8693 59.192 54.192 58.68 53.328C58.1787 52.4533 57.928 51.4773 57.928 50.4C57.928 49.3227 58.1787 48.352 58.68 47.488C59.192 46.6133 59.896 45.9307 60.792 45.44C61.688 44.9493 62.6907 44.704 63.8 44.704C64.632 44.704 65.4 44.8427 66.104 45.12C66.808 45.3973 67.4053 45.8027 67.896 46.336L67.144 47.088C66.2693 46.2027 65.1653 45.76 63.832 45.76C62.9467 45.76 62.1413 45.9627 61.416 46.368C60.6907 46.7733 60.12 47.328 59.704 48.032C59.2987 48.736 59.096 49.5253 59.096 50.4C59.096 51.2747 59.2987 52.064 59.704 52.768C60.12 53.472 60.6907 54.0267 61.416 54.432C62.1413 54.8373 62.9467 55.04 63.832 55.04C65.176 55.04 66.28 54.592 67.144 53.696L67.896 54.448C67.4053 54.9813 66.8027 55.392 66.088 55.68C65.384 55.9573 64.616 56.096 63.784 56.096ZM77.7811 50.224C78.5598 50.384 79.1518 50.6987 79.5571 51.168C79.9625 51.6267 80.1651 52.2293 80.1651 52.976C80.1651 53.9467 79.8185 54.6933 79.1251 55.216C78.4425 55.7387 77.4345 56 76.1011 56H71.1411V44.8H75.7971C76.9918 44.8 77.9251 45.0453 78.5971 45.536C79.2691 46.0267 79.6051 46.736 79.6051 47.664C79.6051 48.2933 79.4451 48.8267 79.1251 49.264C78.8051 49.6907 78.3571 50.0107 77.7811 50.224ZM72.3091 49.872H75.7331C76.5971 49.872 77.2585 49.696 77.7171 49.344C78.1865 48.992 78.4211 48.48 78.4211 47.808C78.4211 47.136 78.1865 46.624 77.7171 46.272C77.2585 45.92 76.5971 45.744 75.7331 45.744H72.3091V49.872ZM76.1011 55.056C78.0318 55.056 78.9971 54.336 78.9971 52.896C78.9971 51.488 78.0318 50.784 76.1011 50.784H72.3091V55.056H76.1011ZM91.0935 53.008H84.8535L83.5095 56H82.2775L87.3975 44.8H88.5655L93.6855 56H92.4375L91.0935 53.008ZM90.6615 52.048L87.9735 46.032L85.2855 52.048H90.6615ZM96.6318 44.8H97.7998V54.08L104.968 44.8H106.04V56H104.872V46.736L97.7038 56H96.6318V44.8ZM101.304 43.984C100.504 43.984 99.8691 43.8027 99.3998 43.44C98.9411 43.0773 98.7064 42.5707 98.6958 41.92H99.5758C99.5864 42.3467 99.7464 42.6827 100.056 42.928C100.365 43.1733 100.781 43.296 101.304 43.296C101.816 43.296 102.226 43.1733 102.536 42.928C102.856 42.6827 103.021 42.3467 103.032 41.92H103.912C103.901 42.5707 103.661 43.0773 103.192 43.44C102.722 43.8027 102.093 43.984 101.304 43.984ZM120.043 44.8V56H118.875V45.824H111.787V56H110.619V44.8H120.043Z" fill="#FDFBFA"/>
<path d="M24 42L16 50L24 58" stroke="#ADADAD" stroke-width="2" stroke-linecap="round" stroke-linejoin="round"/>
<path d="M156 42L164 50L156 58" stroke="#ADADAD" stroke-width="2" stroke-linecap="round" stroke-linejoin="round"/>
</svg>
