<svg width="19" height="23" viewBox="0 0 19 23" fill="none" xmlns="http://www.w3.org/2000/svg">
<path d="M4.12034 2C4.12034 2.128 4.15234 2.288 4.21634 2.48L9.84834 17.648L15.4803 2.32C15.5017 2.27733 15.523 2.21333 15.5443 2.128C15.5657 2.04267 15.5763 1.97867 15.5763 1.936C15.5763 1.68 15.4697 1.49866 15.2563 1.392C15.0643 1.264 14.883 1.2 14.7123 1.2V0.879999H18.2003V1.2C17.8803 1.2 17.5817 1.28533 17.3043 1.456C17.0483 1.62667 16.8457 1.91467 16.6963 2.32L9.36834 22.384L1.88034 2.416C1.75234 2.096 1.56034 1.81867 1.30434 1.584C1.06967 1.34933 0.771003 1.22133 0.408336 1.2V0.879999H4.95234V1.2C4.76034 1.2 4.56834 1.27467 4.37634 1.424C4.20567 1.552 4.12034 1.744 4.12034 2Z" fill="currentColor"/>
</svg>
