<svg width="30" height="30" viewBox="0 0 30 30" fill="none" xmlns="http://www.w3.org/2000/svg">
<path d="M15.0015 2.5C21.9052 2.5 27.5015 8.09625 27.5015 15C27.5015 21.9037 21.9052 27.5 15.0015 27.5C12.7925 27.5036 10.6223 26.919 8.71398 25.8063L2.50648 27.5L4.19648 21.29C3.08285 19.3811 2.49779 17.21 2.50148 15C2.50148 8.09625 8.09773 2.5 15.0015 2.5ZM10.7415 9.125L10.4915 9.135C10.3296 9.14486 10.1715 9.18738 10.0265 9.26C9.89088 9.33679 9.7671 9.43278 9.65898 9.545C9.50898 9.68625 9.42398 9.80875 9.33273 9.9275C8.87038 10.5286 8.62145 11.2666 8.62523 12.025C8.62773 12.6375 8.78773 13.2338 9.03773 13.7913C9.54898 14.9187 10.3902 16.1125 11.5002 17.2188C11.7677 17.485 12.0302 17.7525 12.3127 18.0013C13.692 19.2156 15.3355 20.0913 17.1127 20.5588L17.8227 20.6675C18.054 20.68 18.2852 20.6625 18.5177 20.6512C18.8818 20.6325 19.2372 20.5339 19.559 20.3625C19.7227 20.2782 19.8824 20.1864 20.0377 20.0875C20.0377 20.0875 20.0915 20.0525 20.194 19.975C20.3627 19.85 20.4665 19.7612 20.6065 19.615C20.7102 19.5075 20.8002 19.3813 20.869 19.2375C20.9665 19.0338 21.064 18.645 21.104 18.3212C21.134 18.0737 21.1252 17.9388 21.1215 17.855C21.1165 17.7213 21.0052 17.5825 20.884 17.5238L20.1565 17.1975C20.1565 17.1975 19.069 16.7238 18.404 16.4213C18.3344 16.3909 18.2598 16.3735 18.184 16.37C18.0985 16.3612 18.012 16.3708 17.9305 16.3982C17.849 16.4256 17.7744 16.4701 17.7115 16.5287C17.7052 16.5262 17.6215 16.5975 16.7177 17.6925C16.6659 17.7622 16.5944 17.8149 16.5125 17.8438C16.4306 17.8728 16.3419 17.8767 16.2577 17.855C16.1763 17.8332 16.0965 17.8056 16.019 17.7725C15.864 17.7075 15.8102 17.6825 15.704 17.6375C14.9866 17.3244 14.3223 16.9014 13.7352 16.3838C13.5777 16.2463 13.4315 16.0962 13.2815 15.9513C12.7897 15.4803 12.3611 14.9475 12.0065 14.3663L11.9327 14.2475C11.8798 14.1677 11.8369 14.0816 11.8052 13.9913C11.7577 13.8075 11.8815 13.66 11.8815 13.66C11.8815 13.66 12.1852 13.3275 12.3265 13.1475C12.464 12.9725 12.5802 12.8025 12.6552 12.6813C12.8027 12.4438 12.849 12.2 12.7715 12.0113C12.4215 11.1562 12.059 10.305 11.6865 9.46C11.6127 9.2925 11.394 9.1725 11.1952 9.14875C11.1277 9.14125 11.0602 9.13375 10.9927 9.12875C10.8249 9.12041 10.6567 9.12208 10.489 9.13375L10.7402 9.12375L10.7415 9.125Z" fill="currentColor"/>
</svg>
