<svg width="338" height="102" viewBox="0 0 338 102" fill="none" xmlns="http://www.w3.org/2000/svg">
<circle cx="169" cy="51" r="48.5" stroke="#DCDBDB" stroke-width="5"/>
<path d="M2.952 47.1V55.5H2.088V47.868H0.108V47.1H2.952ZM10.6959 54.732V55.5H4.80394V54.888L8.29594 51.468C8.73594 51.036 9.03194 50.664 9.18394 50.352C9.34394 50.032 9.42394 49.712 9.42394 49.392C9.42394 48.896 9.25194 48.512 8.90794 48.24C8.57194 47.96 8.08794 47.82 7.45594 47.82C6.47194 47.82 5.70794 48.132 5.16394 48.756L4.55194 48.228C4.87994 47.844 5.29594 47.548 5.79994 47.34C6.31194 47.132 6.88794 47.028 7.52794 47.028C8.38394 47.028 9.05994 47.232 9.55594 47.64C10.0599 48.04 10.3119 48.592 10.3119 49.296C10.3119 49.728 10.2159 50.144 10.0239 50.544C9.83194 50.944 9.46794 51.404 8.93194 51.924L6.07594 54.732H10.6959Z" fill="#ADADAD"/>
<path d="M29.952 47.1V55.5H29.088V47.868H27.108V47.1H29.952ZM37.6959 54.732V55.5H31.8039V54.888L35.2959 51.468C35.7359 51.036 36.0319 50.664 36.1839 50.352C36.3439 50.032 36.4239 49.712 36.4239 49.392C36.4239 48.896 36.2519 48.512 35.9079 48.24C35.5719 47.96 35.0879 47.82 34.4559 47.82C33.4719 47.82 32.7079 48.132 32.1639 48.756L31.5519 48.228C31.8799 47.844 32.2959 47.548 32.7999 47.34C33.3119 47.132 33.8879 47.028 34.5279 47.028C35.3839 47.028 36.0599 47.232 36.5559 47.64C37.0599 48.04 37.3119 48.592 37.3119 49.296C37.3119 49.728 37.2159 50.144 37.0239 50.544C36.8319 50.944 36.4679 51.404 35.9319 51.924L33.0759 54.732H37.6959ZM39.5454 55.56C39.3694 55.56 39.2174 55.496 39.0894 55.368C38.9694 55.24 38.9094 55.084 38.9094 54.9C38.9094 54.716 38.9694 54.564 39.0894 54.444C39.2174 54.316 39.3694 54.252 39.5454 54.252C39.7214 54.252 39.8734 54.316 40.0014 54.444C40.1294 54.564 40.1934 54.716 40.1934 54.9C40.1934 55.084 40.1294 55.24 40.0014 55.368C39.8734 55.496 39.7214 55.56 39.5454 55.56ZM43.6484 50.544C44.8644 50.544 45.7484 50.764 46.3004 51.204C46.8604 51.636 47.1404 52.244 47.1404 53.028C47.1404 53.516 47.0244 53.952 46.7924 54.336C46.5684 54.72 46.2284 55.024 45.7724 55.248C45.3164 55.464 44.7564 55.572 44.0924 55.572C43.4924 55.572 42.9204 55.476 42.3764 55.284C41.8404 55.084 41.4084 54.82 41.0804 54.492L41.5004 53.808C41.7804 54.096 42.1484 54.332 42.6044 54.516C43.0604 54.692 43.5524 54.78 44.0804 54.78C44.7764 54.78 45.3124 54.624 45.6884 54.312C46.0724 54 46.2644 53.584 46.2644 53.064C46.2644 52.488 46.0484 52.052 45.6164 51.756C45.1924 51.46 44.4724 51.312 43.4564 51.312H41.6684L42.1004 47.1H46.6964V47.868H42.8564L42.5684 50.544H43.6484Z" fill="#ADADAD"/>
<path d="M65.952 47.1V55.5H65.088V47.868H63.108V47.1H65.952ZM70.8159 50.7C71.6959 50.748 72.3639 50.988 72.8199 51.42C73.2839 51.844 73.5159 52.4 73.5159 53.088C73.5159 53.568 73.3999 53.996 73.1679 54.372C72.9359 54.74 72.5919 55.032 72.1359 55.248C71.6799 55.464 71.1239 55.572 70.4679 55.572C69.8599 55.572 69.2839 55.476 68.7399 55.284C68.2039 55.084 67.7719 54.82 67.4439 54.492L67.8639 53.808C68.1439 54.096 68.5159 54.332 68.9799 54.516C69.4439 54.692 69.9399 54.78 70.4679 54.78C71.1559 54.78 71.6879 54.632 72.0639 54.336C72.4399 54.032 72.6279 53.616 72.6279 53.088C72.6279 52.568 72.4399 52.16 72.0639 51.864C71.6879 51.568 71.1199 51.42 70.3599 51.42H69.7599V50.784L72.0879 47.868H67.7919V47.1H73.1919V47.712L70.8159 50.7Z" fill="#ADADAD"/>
<path d="M92.952 47.1V55.5H92.088V47.868H90.108V47.1H92.952ZM97.8159 50.7C98.6959 50.748 99.3639 50.988 99.8199 51.42C100.284 51.844 100.516 52.4 100.516 53.088C100.516 53.568 100.4 53.996 100.168 54.372C99.9359 54.74 99.5919 55.032 99.1359 55.248C98.6799 55.464 98.1239 55.572 97.4679 55.572C96.8599 55.572 96.2839 55.476 95.7399 55.284C95.2039 55.084 94.7719 54.82 94.4439 54.492L94.8639 53.808C95.1439 54.096 95.5159 54.332 95.9799 54.516C96.4439 54.692 96.9399 54.78 97.4679 54.78C98.1559 54.78 98.6879 54.632 99.0639 54.336C99.4399 54.032 99.6279 53.616 99.6279 53.088C99.6279 52.568 99.4399 52.16 99.0639 51.864C98.6879 51.568 98.1199 51.42 97.3599 51.42H96.7599V50.784L99.0879 47.868H94.7919V47.1H100.192V47.712L97.8159 50.7ZM102.381 55.56C102.205 55.56 102.053 55.496 101.925 55.368C101.805 55.24 101.745 55.084 101.745 54.9C101.745 54.716 101.805 54.564 101.925 54.444C102.053 54.316 102.205 54.252 102.381 54.252C102.557 54.252 102.709 54.316 102.837 54.444C102.965 54.564 103.029 54.716 103.029 54.9C103.029 55.084 102.965 55.24 102.837 55.368C102.709 55.496 102.557 55.56 102.381 55.56ZM106.484 50.544C107.7 50.544 108.584 50.764 109.136 51.204C109.696 51.636 109.976 52.244 109.976 53.028C109.976 53.516 109.86 53.952 109.628 54.336C109.404 54.72 109.064 55.024 108.608 55.248C108.152 55.464 107.592 55.572 106.928 55.572C106.328 55.572 105.756 55.476 105.212 55.284C104.676 55.084 104.244 54.82 103.916 54.492L104.336 53.808C104.616 54.096 104.984 54.332 105.44 54.516C105.896 54.692 106.388 54.78 106.916 54.78C107.612 54.78 108.148 54.624 108.524 54.312C108.908 54 109.1 53.584 109.1 53.064C109.1 52.488 108.884 52.052 108.452 51.756C108.028 51.46 107.308 51.312 106.292 51.312H104.504L104.936 47.1H109.532V47.868H105.692L105.404 50.544H106.484Z" fill="#ADADAD"/>
<path d="M128.952 47.1V55.5H128.088V47.868H126.108V47.1H128.952ZM138.1 53.292H136.42V55.5H135.556V53.292H130.816V52.668L135.268 47.1H136.228L131.932 52.524H135.58V50.58H136.42V52.524H138.1V53.292Z" fill="#ADADAD"/>
<path d="M157.936 45.8V57H156.784V46.824H154.144V45.8H157.936ZM170.133 54.056H167.893V57H166.741V54.056H160.421V53.224L166.357 45.8H167.637L161.909 53.032H166.773V50.44H167.893V53.032H170.133V54.056ZM172.368 57.08C172.133 57.08 171.931 56.9947 171.76 56.824C171.6 56.6533 171.52 56.4453 171.52 56.2C171.52 55.9547 171.6 55.752 171.76 55.592C171.931 55.4213 172.133 55.336 172.368 55.336C172.603 55.336 172.805 55.4213 172.976 55.592C173.147 55.752 173.232 55.9547 173.232 56.2C173.232 56.4453 173.147 56.6533 172.976 56.824C172.805 56.9947 172.603 57.08 172.368 57.08ZM177.839 50.392C179.46 50.392 180.639 50.6853 181.375 51.272C182.121 51.848 182.495 52.6587 182.495 53.704C182.495 54.3547 182.34 54.936 182.031 55.448C181.732 55.96 181.279 56.3653 180.671 56.664C180.063 56.952 179.316 57.096 178.431 57.096C177.631 57.096 176.868 56.968 176.143 56.712C175.428 56.4453 174.852 56.0933 174.415 55.656L174.975 54.744C175.348 55.128 175.839 55.4427 176.447 55.688C177.055 55.9227 177.711 56.04 178.415 56.04C179.343 56.04 180.057 55.832 180.559 55.416C181.071 55 181.327 54.4453 181.327 53.752C181.327 52.984 181.039 52.4027 180.463 52.008C179.897 51.6133 178.937 51.416 177.583 51.416H175.199L175.775 45.8H181.903V46.824H176.783L176.399 50.392H177.839Z" fill="#333333"/>
<path d="M201.952 47.1V55.5H201.088V47.868H199.108V47.1H201.952ZM206.168 50.544C207.384 50.544 208.268 50.764 208.82 51.204C209.38 51.636 209.66 52.244 209.66 53.028C209.66 53.516 209.544 53.952 209.312 54.336C209.088 54.72 208.748 55.024 208.292 55.248C207.836 55.464 207.276 55.572 206.612 55.572C206.012 55.572 205.44 55.476 204.896 55.284C204.36 55.084 203.928 54.82 203.6 54.492L204.02 53.808C204.3 54.096 204.668 54.332 205.124 54.516C205.58 54.692 206.072 54.78 206.6 54.78C207.296 54.78 207.832 54.624 208.208 54.312C208.592 54 208.784 53.584 208.784 53.064C208.784 52.488 208.568 52.052 208.136 51.756C207.712 51.46 206.992 51.312 205.976 51.312H204.188L204.62 47.1H209.216V47.868H205.376L205.088 50.544H206.168Z" fill="#ADADAD"/>
<path d="M228.952 47.1V55.5H228.088V47.868H226.108V47.1H228.952ZM233.168 50.544C234.384 50.544 235.268 50.764 235.82 51.204C236.38 51.636 236.66 52.244 236.66 53.028C236.66 53.516 236.544 53.952 236.312 54.336C236.088 54.72 235.748 55.024 235.292 55.248C234.836 55.464 234.276 55.572 233.612 55.572C233.012 55.572 232.44 55.476 231.896 55.284C231.36 55.084 230.928 54.82 230.6 54.492L231.02 53.808C231.3 54.096 231.668 54.332 232.124 54.516C232.58 54.692 233.072 54.78 233.6 54.78C234.296 54.78 234.832 54.624 235.208 54.312C235.592 54 235.784 53.584 235.784 53.064C235.784 52.488 235.568 52.052 235.136 51.756C234.712 51.46 233.992 51.312 232.976 51.312H231.188L231.62 47.1H236.216V47.868H232.376L232.088 50.544H233.168ZM238.405 55.56C238.229 55.56 238.077 55.496 237.949 55.368C237.829 55.24 237.769 55.084 237.769 54.9C237.769 54.716 237.829 54.564 237.949 54.444C238.077 54.316 238.229 54.252 238.405 54.252C238.581 54.252 238.733 54.316 238.861 54.444C238.989 54.564 239.053 54.716 239.053 54.9C239.053 55.084 238.989 55.24 238.861 55.368C238.733 55.496 238.581 55.56 238.405 55.56ZM242.508 50.544C243.724 50.544 244.608 50.764 245.16 51.204C245.72 51.636 246 52.244 246 53.028C246 53.516 245.884 53.952 245.652 54.336C245.428 54.72 245.088 55.024 244.632 55.248C244.176 55.464 243.616 55.572 242.952 55.572C242.352 55.572 241.78 55.476 241.236 55.284C240.7 55.084 240.268 54.82 239.94 54.492L240.36 53.808C240.64 54.096 241.008 54.332 241.464 54.516C241.92 54.692 242.412 54.78 242.94 54.78C243.636 54.78 244.172 54.624 244.548 54.312C244.932 54 245.124 53.584 245.124 53.064C245.124 52.488 244.908 52.052 244.476 51.756C244.052 51.46 243.332 51.312 242.316 51.312H240.528L240.96 47.1H245.556V47.868H241.716L241.428 50.544H242.508Z" fill="#ADADAD"/>
<path d="M264.952 47.1V55.5H264.088V47.868H262.108V47.1H264.952ZM270.44 50.472C270.992 50.472 271.48 50.576 271.904 50.784C272.336 50.992 272.672 51.288 272.912 51.672C273.152 52.048 273.272 52.488 273.272 52.992C273.272 53.504 273.148 53.956 272.9 54.348C272.652 54.74 272.308 55.044 271.868 55.26C271.436 55.468 270.948 55.572 270.404 55.572C269.292 55.572 268.44 55.208 267.848 54.48C267.256 53.744 266.96 52.708 266.96 51.372C266.96 50.436 267.12 49.644 267.44 48.996C267.76 48.348 268.208 47.86 268.784 47.532C269.36 47.196 270.032 47.028 270.8 47.028C271.632 47.028 272.296 47.18 272.792 47.484L272.444 48.18C272.044 47.916 271.5 47.784 270.812 47.784C269.884 47.784 269.156 48.08 268.628 48.672C268.1 49.256 267.836 50.108 267.836 51.228C267.836 51.428 267.848 51.656 267.872 51.912C268.08 51.456 268.412 51.104 268.868 50.856C269.324 50.6 269.848 50.472 270.44 50.472ZM270.368 54.84C270.976 54.84 271.468 54.676 271.844 54.348C272.228 54.012 272.42 53.568 272.42 53.016C272.42 52.464 272.228 52.024 271.844 51.696C271.468 51.368 270.956 51.204 270.308 51.204C269.884 51.204 269.508 51.284 269.18 51.444C268.86 51.604 268.608 51.824 268.424 52.104C268.24 52.384 268.148 52.696 268.148 53.04C268.148 53.36 268.232 53.656 268.4 53.928C268.576 54.2 268.832 54.42 269.168 54.588C269.504 54.756 269.904 54.84 270.368 54.84Z" fill="#ADADAD"/>
<path d="M291.952 47.1V55.5H291.088V47.868H289.108V47.1H291.952ZM297.44 50.472C297.992 50.472 298.48 50.576 298.904 50.784C299.336 50.992 299.672 51.288 299.912 51.672C300.152 52.048 300.272 52.488 300.272 52.992C300.272 53.504 300.148 53.956 299.9 54.348C299.652 54.74 299.308 55.044 298.868 55.26C298.436 55.468 297.948 55.572 297.404 55.572C296.292 55.572 295.44 55.208 294.848 54.48C294.256 53.744 293.96 52.708 293.96 51.372C293.96 50.436 294.12 49.644 294.44 48.996C294.76 48.348 295.208 47.86 295.784 47.532C296.36 47.196 297.032 47.028 297.8 47.028C298.632 47.028 299.296 47.18 299.792 47.484L299.444 48.18C299.044 47.916 298.5 47.784 297.812 47.784C296.884 47.784 296.156 48.08 295.628 48.672C295.1 49.256 294.836 50.108 294.836 51.228C294.836 51.428 294.848 51.656 294.872 51.912C295.08 51.456 295.412 51.104 295.868 50.856C296.324 50.6 296.848 50.472 297.44 50.472ZM297.368 54.84C297.976 54.84 298.468 54.676 298.844 54.348C299.228 54.012 299.42 53.568 299.42 53.016C299.42 52.464 299.228 52.024 298.844 51.696C298.468 51.368 297.956 51.204 297.308 51.204C296.884 51.204 296.508 51.284 296.18 51.444C295.86 51.604 295.608 51.824 295.424 52.104C295.24 52.384 295.148 52.696 295.148 53.04C295.148 53.36 295.232 53.656 295.4 53.928C295.576 54.2 295.832 54.42 296.168 54.588C296.504 54.756 296.904 54.84 297.368 54.84ZM302.038 55.56C301.862 55.56 301.71 55.496 301.582 55.368C301.462 55.24 301.402 55.084 301.402 54.9C301.402 54.716 301.462 54.564 301.582 54.444C301.71 54.316 301.862 54.252 302.038 54.252C302.214 54.252 302.366 54.316 302.494 54.444C302.622 54.564 302.686 54.716 302.686 54.9C302.686 55.084 302.622 55.24 302.494 55.368C302.366 55.496 302.214 55.56 302.038 55.56ZM306.141 50.544C307.357 50.544 308.241 50.764 308.793 51.204C309.353 51.636 309.633 52.244 309.633 53.028C309.633 53.516 309.517 53.952 309.285 54.336C309.061 54.72 308.721 55.024 308.265 55.248C307.809 55.464 307.249 55.572 306.585 55.572C305.985 55.572 305.413 55.476 304.869 55.284C304.333 55.084 303.901 54.82 303.573 54.492L303.993 53.808C304.273 54.096 304.641 54.332 305.097 54.516C305.553 54.692 306.045 54.78 306.573 54.78C307.269 54.78 307.805 54.624 308.181 54.312C308.565 54 308.757 53.584 308.757 53.064C308.757 52.488 308.541 52.052 308.109 51.756C307.685 51.46 306.965 51.312 305.949 51.312H304.161L304.593 47.1H309.189V47.868H305.349L305.061 50.544H306.141Z" fill="#ADADAD"/>
<path d="M328.952 47.1V55.5H328.088V47.868H326.108V47.1H328.952ZM336.888 47.1V47.712L333.372 55.5H332.436L335.892 47.868H331.572V49.44H330.72V47.1H336.888Z" fill="#ADADAD"/>
</svg>
