<?xml version="1.0" encoding="utf-8"?><svg viewBox="0 0 451 780" xmlns="http://www.w3.org/2000/svg" xmlns:xlink="http://www.w3.org/1999/xlink"><style>:root>svg{display:none}:root>svg:target{display:block}</style><svg fill="none" viewBox="0 0 21 24" id="arrow-down" xmlns="http://www.w3.org/2000/svg"><path d="M17 12.402 10.5 20 4 12.402l1.606-1.619 3.798 4.44V4h2.192v11.224l3.798-4.441L17 12.402Z" fill="currentColor"/></svg><svg fill="none" viewBox="0 0 30 30" id="burger" xmlns="http://www.w3.org/2000/svg"><rect width="30" height="30" rx="15" fill="#333"/><path d="M23 10H7M23 15H7M23 20H7" stroke="#FDFBFA" stroke-linecap="round"/></svg><svg fill="none" viewBox="0 0 24 24" id="cart" xmlns="http://www.w3.org/2000/svg"><path d="M20.5 20h-17a.5.5 0 0 1 0-1h17a.5.5 0 0 1 0 1ZM18.5 10a.5.5 0 0 1-.5-.5v-6C18 2.122 16.879 1 15.5 1h-7A2.503 2.503 0 0 0 6 3.5v6a.5.5 0 0 1-1 0v-6C5 1.57 6.57 0 8.5 0h7C17.43 0 19 1.57 19 3.5v6a.5.5 0 0 1-.5.5Z" fill="currentColor"/><path d="M16.5 7h-9a.5.5 0 0 1 0-1h9a.5.5 0 0 1 0 1Z" fill="currentColor"/><path d="M23.5 24H.5a.499.499 0 0 1-.492-.587l3-17a.5.5 0 0 1 .984.174L1.096 23h21.809L20.008 6.587a.5.5 0 0 1 .984-.174l3 17A.498.498 0 0 1 23.5 24Z" fill="currentColor"/></svg><svg fill="none" viewBox="0 0 14 11" id="checkbox" xmlns="http://www.w3.org/2000/svg"><path d="M1 6.087 4.636 10 13 1" stroke="currentColor" stroke-width="2" stroke-linecap="round" stroke-linejoin="round"/></svg><svg fill="none" viewBox="0 0 40 40" id="close" xmlns="http://www.w3.org/2000/svg"><path d="M29 11 11 29m0-18 18 18" stroke="#333" stroke-width="2" stroke-linecap="round"/></svg><svg fill="none" viewBox="0 0 30 30" id="color-red" xmlns="http://www.w3.org/2000/svg"><circle cx="15" cy="15" r="14.5" fill="#E00" stroke="#DCDBDB"/></svg><svg fill="none" viewBox="0 0 30 30" id="color-white" xmlns="http://www.w3.org/2000/svg"><circle cx="15" cy="15" r="14.5" fill="#FDFBFA" stroke="#DCDBDB"/></svg><svg fill="none" viewBox="0 0 30 30" id="color-white-pink" xmlns="http://www.w3.org/2000/svg"><path d="M15 0a15 15 0 1 0 0 30V0Z" stroke="#DCDBDB" stroke-width="2"/><path d="M15 30a15 15 0 0 0 0-30v30Z"/><path d="M15 30a15 15 0 0 0 0-30v30Z" fill="#FF4081" stroke="#DCDBDB" stroke-width="2"/></svg><svg fill="none" viewBox="0 0 30 30" id="color-white-yellow" xmlns="http://www.w3.org/2000/svg"><mask id="aha" fill="#fff"><path d="M15 0a15 15 0 1 0 0 30V0Z"/></mask><path d="M15 0a15 15 0 1 0 0 30V0Z" stroke="#DCDBDB" stroke-width="2" mask="url(#aha)"/><mask id="ahb" fill="#fff"><path d="M15 30a15 15 0 0 0 0-30v30Z"/></mask><path d="M15 30a15 15 0 0 0 0-30v30Z" fill="#FFD600" stroke="#DCDBDB" stroke-width="2" mask="url(#ahb)"/></svg><svg fill="none" viewBox="0 0 30 30" id="color-yellow" xmlns="http://www.w3.org/2000/svg"><circle cx="15" cy="15" r="14.5" fill="#FFD600" stroke="#DCDBDB"/></svg><svg fill="none" viewBox="0 0 35 33" id="cut-1" xmlns="http://www.w3.org/2000/svg"><path d="M34.861 30.297c0-.037.037-.074.037-.11v-.295C32.943 22.033 28.7 14.028 21.987 5.506c0 0 0-.036-.037-.036l-.037-.037a99.634 99.634 0 0 0-3.8-4.575l-.036-.036h-.037c-.037 0-.037-.037-.074-.037h-.037c-.037 0-.037-.037-.074-.037H17.524c-.037 0-.037.037-.074.037h-.073l-.037.037h-.037l-.037.036c-3.615 4.095-6.713 8.227-9.259 12.358-.516.701-.959 1.44-1.328 2.214a62.133 62.133 0 0 0-3.43 6.824s0 .037-.037.037c-.037.037-.037.074-.037.11a59.343 59.343 0 0 0-2.62 7.416v.295c0 .036.037.073.037.11.037.037.037.074.074.11 0 0 .037 0 .037.038l.074.074s.037 0 .037.036c.037 0 .074.037.11.037h.037c2.103.553 4.169.96 6.271 1.291h.074c3.21.517 6.455.775 9.665.812.221 0 .442.037.664.037.221 0 .442 0 .664-.037a65.28 65.28 0 0 0 9.665-.812H28.074a72.648 72.648 0 0 0 6.271-1.29h.037c.037 0 .074-.038.11-.038 0 0 .038 0 .038-.037.036 0 .036-.036.074-.073l.036-.037c.184.073.184.037.221-.037Zm-6.271.406c0-.148-.037-.296-.037-.406.553.037 1.107.11 1.66.147-.553.074-1.107.185-1.623.259Zm-3.099-1.845h-.11a79.654 79.654 0 0 1-5.313-.922c2.25-.664 4.464-1.402 6.604-2.287.22 1.143.405 2.287.59 3.43l-1.77-.22Zm-8.337 2.767a10.924 10.924 0 0 1-5.533-1.881 79.029 79.029 0 0 0 6.16-1.218c1.992.48 4.058.922 6.16 1.218-1.66 1.106-3.54 1.77-5.533 1.88h-1.254Zm-7.083-2.767-1.77.221c.184-1.18.369-2.324.59-3.43 2.14.885 4.353 1.66 6.603 2.287a79.688 79.688 0 0 1-5.312.922c0-.037-.074-.037-.11 0Zm-4.685 1.55a25.26 25.26 0 0 0 1.66-.148c0 .147-.037.295-.037.406-.553-.037-1.106-.148-1.623-.259Zm-1.29-7.01c.184.111.368.185.552.296-.553.774-1.07 1.586-1.623 2.434.332-.922.664-1.844 1.07-2.73Zm-1.919 6.087a120.183 120.183 0 0 1 3.468-5.312l2.213.996a63.846 63.846 0 0 0-.664 3.984c-1.66.148-3.32.259-5.017.332Zm4.574-8.89c0-1.623.37-3.172.996-4.611.406-.701.812-1.402 1.254-2.103a11.308 11.308 0 0 1 3.026-2.73c-.738 1.734-1.365 3.505-1.956 5.275a141.45 141.45 0 0 0-3.32 4.242v-.073Zm7.341-13.944.037.037c-.48.959-.96 1.918-1.402 2.877-.443.221-.885.443-1.328.701a76.542 76.542 0 0 1 2.693-3.615ZM24.2 10.303a16.033 16.033 0 0 0-1.365-.738c-.443-.959-.885-1.918-1.402-2.877l.037-.037a78.149 78.149 0 0 1 2.73 3.652Zm-9.186-2.914c.664.553 1.328 1.106 1.956 1.697a71.131 71.131 0 0 0-4.907 5.053c.849-2.287 1.808-4.537 2.951-6.75Zm13.797 13.317a142.385 142.385 0 0 0-3.32-4.242 64.372 64.372 0 0 0-1.955-5.276 11.037 11.037 0 0 1 5.275 9.407v.11Zm-5.275-6.53c-1.623-1.808-3.247-3.504-4.907-5.054a80.692 80.692 0 0 1 1.955-1.697c1.107 2.177 2.066 4.427 2.952 6.751ZM17.78 8.348a106.744 106.744 0 0 0-2.25-1.955c.7-1.328 1.475-2.693 2.25-4.021a61.785 61.785 0 0 1 2.25 4.02c-.737.628-1.512 1.292-2.25 1.956Zm0 1.512a78.575 78.575 0 0 1 6.714 7.157 69.554 69.554 0 0 1 1.955 7.488 68.213 68.213 0 0 1-8.669 2.878 58.265 58.265 0 0 1-8.669-2.878 67.442 67.442 0 0 1 1.955-7.488 74.055 74.055 0 0 1 6.714-7.157Zm8.558 9.444c.812 1.07 1.623 2.14 2.435 3.283.148.221.295.442.48.664-.59.295-1.18.553-1.77.811a64.242 64.242 0 0 0-1.145-4.758Zm3.468 2.803c.074-.48.11-.996.11-1.512 0-.295 0-.627-.036-.922.442.885.848 1.77 1.254 2.656-.295.147-.553.295-.849.442-.147-.221-.332-.442-.48-.664Zm-23.056.48c.811-1.144 1.623-2.25 2.472-3.283a63.998 63.998 0 0 0-1.144 4.758c-.59-.258-1.18-.516-1.77-.811l.442-.664Zm20.953 2.582 2.214-.996a120.102 120.102 0 0 1 3.467 5.312 72.05 72.05 0 0 1-4.98-.295c-.221-1.402-.443-2.73-.7-4.02Zm3.21-1.476c.22-.11.442-.22.663-.332.406.997.812 1.992 1.144 2.988-.59-.922-1.217-1.807-1.808-2.656Zm-25.16-1.586a7.446 7.446 0 0 1-.479.664c-.258-.11-.516-.258-.775-.369.37-.811.738-1.623 1.144-2.471 0 .22-.037.442-.037.7.037.48.074.96.148 1.476Zm2.325 8.78c.036-.221.074-.48.11-.701l1.882-.221c.664.553 1.364 1.033 2.14 1.402a50.705 50.705 0 0 1-4.132-.48Zm17.411-.922 1.882.221c.037.221.074.48.11.701a52.511 52.511 0 0 1-4.131.48c.775-.37 1.476-.849 2.14-1.402Z" fill="currentColor"/></svg><svg fill="none" viewBox="0 0 30 39" id="cut-10" xmlns="http://www.w3.org/2000/svg"><path fill-rule="evenodd" clip-rule="evenodd" d="m2.22 6.816 3.173 1.36 3.724-3.191L7.293 2.25 2.22 6.816Zm3.286 2.736a.629.629 0 0 1-.25-.051L.804 7.593a.634.634 0 0 1-.175-1.057L6.99.812a.634.634 0 0 1 .955.12l2.543 3.816a.636.636 0 0 1-.115.836L5.92 9.399a.632.632 0 0 1-.414.153ZM20.338 4.984l3.723 3.192 3.174-1.36-5.074-4.566-1.823 2.734Zm3.61 4.569a.636.636 0 0 1-.414-.154l-4.451-3.816a.635.635 0 0 1-.115-.835L21.51.932a.637.637 0 0 1 .955-.12l6.36 5.723a.635.635 0 0 1-.176 1.058l-4.452 1.908a.635.635 0 0 1-.25.052Z" fill="currentColor"/><path fill-rule="evenodd" clip-rule="evenodd" d="M10.298 4.464h8.86l1.695-2.543H8.602l1.696 2.543Zm9.2 1.273h-9.54a.636.636 0 0 1-.53-.283L6.886 1.638a.638.638 0 0 1 .529-.99H22.04a.636.636 0 0 1 .53.99l-2.54 3.807a.634.634 0 0 1-.531.292h-.003ZM2.219 32.64l5.074 4.566 1.824-2.735-3.724-3.191-3.174 1.36Zm5.195 6.167a.639.639 0 0 1-.425-.164L.629 32.92a.634.634 0 0 1 .175-1.057l4.452-1.907a.635.635 0 0 1 .664.102l4.451 3.814c.245.21.294.57.116.836l-2.544 3.816a.636.636 0 0 1-.529.284Z" fill="currentColor"/><path fill-rule="evenodd" clip-rule="evenodd" d="M1.69 7.973v23.51l3.18-1.363V9.336L1.69 7.973Zm-.636 25.11a.633.633 0 0 1-.636-.636V7.01a.637.637 0 0 1 .886-.585l4.452 1.908c.234.1.386.33.386.585v21.622a.635.635 0 0 1-.386.585l-4.452 1.908a.62.62 0 0 1-.25.051ZM20.338 34.47l1.823 2.736 5.074-4.566-3.174-1.36-3.723 3.19Zm1.703 4.336a.637.637 0 0 1-.53-.283l-2.543-3.815a.636.636 0 0 1 .114-.836l4.452-3.816a.64.64 0 0 1 .664-.102l4.452 1.908a.637.637 0 0 1 .176 1.058l-6.36 5.724a.637.637 0 0 1-.425.162Z" fill="currentColor"/><path fill-rule="evenodd" clip-rule="evenodd" d="M19.497 37.535h1.356l-1.696-2.544h-8.86l-1.695 2.544h10.895Zm2.544 1.272H7.414a.636.636 0 0 1-.53-.99l2.545-3.815a.636.636 0 0 1 .529-.283h9.541a.636.636 0 0 1 .533.291l2.538 3.808a.637.637 0 0 1-.53.989ZM24.585 30.12l3.18 1.363V7.973l-3.18 1.362V30.12Zm3.815 2.963a.635.635 0 0 1-.25-.051l-4.452-1.908a.635.635 0 0 1-.386-.585V8.917c0-.255.152-.485.386-.585l4.452-1.908a.638.638 0 0 1 .886.585v25.438a.637.637 0 0 1-.636.636ZM6.143 12.629v14.197l2.505-7.099-2.505-7.098Zm-.635 18.545a.637.637 0 0 1-.636-.636V8.916a.637.637 0 0 1 1.235-.212l3.815 10.811a.636.636 0 0 1 0 .424l-3.815 10.81a.636.636 0 0 1-.6.425Z" fill="currentColor"/><path fill-rule="evenodd" clip-rule="evenodd" d="m20.807 19.727 2.506 7.099V12.629l-2.506 7.098Zm3.14 11.448a.637.637 0 0 1-.598-.424L19.533 19.94a.646.646 0 0 1 0-.423l3.816-10.812a.636.636 0 0 1 1.236.212V30.54a.636.636 0 0 1-.637.636Z" fill="currentColor"/><path fill-rule="evenodd" clip-rule="evenodd" d="m20.01 6.376-.4 4 3.198-1.6-2.799-2.4Zm-1.148 5.72a.636.636 0 0 1-.633-.7l.636-6.36a.638.638 0 0 1 1.047-.42l4.451 3.817a.637.637 0 0 1-.13 1.052l-5.087 2.543a.634.634 0 0 1-.284.068ZM6.648 8.776l3.199 1.6-.4-4-2.8 2.4Zm3.947 3.32a.631.631 0 0 1-.285-.068L5.222 9.485a.636.636 0 0 1-.129-1.052l4.452-3.816a.636.636 0 0 1 1.046.42l.636 6.36a.637.637 0 0 1-.633.699Z" fill="currentColor"/><path fill-rule="evenodd" clip-rule="evenodd" d="m11.258 5.736 3.184 4.094 3.639-4.094h-6.823Zm3.15 5.724h-.02a.634.634 0 0 1-.48-.246L9.454 5.491a.637.637 0 0 1 .502-1.027h9.54a.636.636 0 0 1 .474 1.059l-5.088 5.724a.636.636 0 0 1-.474.213Z" fill="currentColor"/><path fill-rule="evenodd" clip-rule="evenodd" d="m10.81 7.232.349 3.49 2.093-.35-2.443-3.14Zm-.217 4.864a.633.633 0 0 1-.632-.573l-.637-6.359a.637.637 0 0 1 1.135-.454l4.452 5.723a.636.636 0 0 1-.398 1.018l-3.816.636a.585.585 0 0 1-.104.009Z" fill="currentColor"/><path fill-rule="evenodd" clip-rule="evenodd" d="m15.672 10.362 2.622.374.375-3.748-2.997 3.374Zm3.19 1.734a.637.637 0 0 1-.09-.007l-4.453-.636a.635.635 0 0 1-.384-1.052l5.088-5.723a.636.636 0 0 1 1.108.486l-.637 6.359a.64.64 0 0 1-.633.573ZM6.63 10.188l2.449 6.939.816-5.306-3.265-1.633Zm2.691 10.175a.637.637 0 0 1-.599-.424L4.907 9.127a.636.636 0 0 1 .884-.78l5.088 2.543a.636.636 0 0 1 .344.665L9.95 19.823a.636.636 0 0 1-.63.54Z" fill="currentColor"/><path fill-rule="evenodd" clip-rule="evenodd" d="m19.561 11.82.816 5.307 2.449-6.939-3.265 1.633Zm.573 8.543a.635.635 0 0 1-.629-.54l-1.272-8.267a.635.635 0 0 1 .344-.665l5.088-2.544a.636.636 0 0 1 .884.78L20.734 19.94a.637.637 0 0 1-.6.424ZM19.61 29.08l.4 3.999 2.798-2.4-3.198-1.6Zm-.113 5.91a.636.636 0 0 1-.633-.573l-.635-6.359a.636.636 0 0 1 .917-.633l5.088 2.544a.636.636 0 0 1 .13 1.052l-4.453 3.816a.636.636 0 0 1-.414.154ZM6.648 30.679l2.799 2.4.4-4-3.2 1.6Zm3.31 4.311a.634.634 0 0 1-.413-.152l-4.452-3.816a.637.637 0 0 1 .13-1.052l5.087-2.544a.634.634 0 0 1 .917.632l-.636 6.36a.636.636 0 0 1-.632.572Z" fill="currentColor"/><path fill-rule="evenodd" clip-rule="evenodd" d="M11.257 33.718h6.824l-3.64-4.093-3.184 4.093Zm8.24 1.272h-9.54a.636.636 0 0 1-.502-1.026l4.452-5.724a.634.634 0 0 1 .48-.245.608.608 0 0 1 .497.213l5.088 5.724a.637.637 0 0 1-.476 1.058Z" fill="currentColor"/><path fill-rule="evenodd" clip-rule="evenodd" d="m11.159 28.734-.35 3.49 2.443-3.141-2.093-.349Zm-1.202 6.257a.637.637 0 0 1-.633-.7l.636-6.36a.638.638 0 0 1 .737-.563l3.816.636a.635.635 0 0 1 .398 1.018l-4.452 5.723a.635.635 0 0 1-.502.246Z" fill="currentColor"/><path fill-rule="evenodd" clip-rule="evenodd" d="m15.672 29.093 2.997 3.374-.375-3.748-2.622.374Zm3.825 5.898a.634.634 0 0 1-.474-.213l-5.088-5.724a.635.635 0 0 1 .384-1.052l4.452-.636a.639.639 0 0 1 .723.566l.636 6.36a.636.636 0 0 1-.633.699ZM9.079 22.327l-2.45 6.939 3.265-1.633-.815-5.306Zm-3.573 8.847a.637.637 0 0 1-.6-.847l3.816-10.812a.635.635 0 0 1 1.228.115l1.273 8.267a.636.636 0 0 1-.345.666l-5.087 2.544a.643.643 0 0 1-.285.067Z" fill="currentColor"/><path fill-rule="evenodd" clip-rule="evenodd" d="m19.561 27.633 3.265 1.633-2.45-6.939-.815 5.306Zm4.388 3.541a.634.634 0 0 1-.284-.067l-5.088-2.544a.635.635 0 0 1-.344-.665l1.272-8.267a.635.635 0 0 1 1.229-.116l3.815 10.812a.636.636 0 0 1-.6.847Z" fill="currentColor"/></svg><svg fill="none" viewBox="0 0 38 38" id="cut-11" xmlns="http://www.w3.org/2000/svg"><path d="M37.162 18.624c0-2.546-.518-4.973-1.434-7.16v-.08a18.179 18.179 0 0 0-3.863-5.729l-.08-.08-.04-.039-.039-.04a19.611 19.611 0 0 0-5.973-3.978c-.04 0-.04-.04-.08-.04h-.08a18.523 18.523 0 0 0-6.93-1.353c-2.548 0-4.977.518-7.167 1.433h-.08a18.199 18.199 0 0 0-5.735 3.858l-.04.04s-.039 0-.039.04l-.08.08a19.587 19.587 0 0 0-3.982 5.966c0 .04-.04.04-.04.08v.08a18.469 18.469 0 0 0 .08 14.082v.08a18.812 18.812 0 0 0 3.863 5.768l.119.12h.04l.04.039a19.61 19.61 0 0 0 5.973 3.978c.04 0 .04.04.08.04h.04c2.15.875 4.46 1.352 6.889 1.352 2.549 0 4.978-.517 7.208-1.472h.08a18.198 18.198 0 0 0 5.734-3.858.31.31 0 0 0 .16-.16c1.672-1.71 3.066-3.739 3.981-6.006 0 0 0-.04.04-.04v-.08a18.467 18.467 0 0 0 1.355-6.921Zm-2.27 5.967-3.783-1.472 4.778-3.341a16.195 16.195 0 0 1-.995 4.813Zm-8.96 9.746-1.633-3.7 5.734 1.035c-1.234 1.074-2.628 1.95-4.102 2.665ZM7.253 31.672l5.775-1.034-1.474 3.819a20.428 20.428 0 0 1-4.3-2.785ZM1.36 19.777l4.82 3.342-3.744 1.67c-.558-1.55-.956-3.221-1.076-5.012Zm1.036-7.12 3.783 1.471L1.4 17.47c.08-1.67.438-3.302.996-4.813Zm8.96-9.747 1.633 3.7-5.735-1.035a20.162 20.162 0 0 1 4.102-2.665Zm18.677 2.665L24.26 6.61l1.473-3.82a20.426 20.426 0 0 1 4.301 2.785Zm5.894 11.895-4.819-3.341 3.744-1.671c.558 1.55.956 3.222 1.075 5.012Zm-17.283 8.354-5.098-2.108-2.11-5.092 2.11-5.092 5.098-2.109 5.097 2.109 2.11 5.092-2.11 5.092-5.097 2.108Zm-8.005-8.394-2.19-2.983 3.664-.557-1.474 3.54Zm1.513 5.968L8.488 22.8l2.19-2.984 1.474 3.58Zm14.496-3.58 2.19 2.983-3.703.597 1.513-3.58Zm-1.513-5.968 3.664.597-2.15 2.983-1.514-3.58Zm4.261-.557-4.7-.756-.716-4.654 6.61-1.194-1.194 6.604ZM22.865 8.48l.557 3.66-3.584-1.471 3.027-2.189Zm-4.221 1.592L14.82 7.286l3.824-5.53 3.823 5.49-3.823 2.825Zm-1.195.557L13.865 12.1l.597-3.66 2.987 2.188Zm-4.859 1.949-4.699.716L6.697 6.69l6.61 1.194-.717 4.694Zm-5.296 2.228 2.787 3.819-2.787 3.819-5.536-3.82 5.536-3.818Zm.597 9.15 4.7.755.716 4.655-6.61 1.193 1.194-6.604Zm6.531 4.813-.557-3.66 3.584 1.472-3.027 2.188Zm4.222-1.591 3.823 2.784-3.823 5.53-3.823-5.49 3.823-2.824Zm1.194-.557 3.584-1.472-.597 3.66-2.987-2.188Zm4.859-1.95 4.699-.716 1.195 6.604-6.611-1.193.717-4.694Zm5.297-2.227-2.788-3.82 2.788-3.818 5.535 3.819-5.536 3.819Zm.676-9.468 1.036-5.729a17.697 17.697 0 0 1 2.668 4.098l-3.704 1.63Zm-7.526-6.842-3.345-4.774c1.672.12 3.265.477 4.778.994l-1.433 3.78Zm-9.04.04-1.673-3.74c1.593-.597 3.266-.995 5.018-1.114l-3.345 4.853ZM5.582 7.245l1.035 5.769-3.823-1.472a20.4 20.4 0 0 1 2.788-4.297Zm1.035 17.027L5.582 30a17.693 17.693 0 0 1-2.669-4.097l3.704-1.631Zm7.527 6.842 3.345 4.774a18.894 18.894 0 0 1-4.78-.995l1.435-3.779Zm9.04-.04 1.672 3.74c-1.593.597-3.266.995-5.018 1.114l3.345-4.854Zm8.522-1.074-1.036-5.768 3.824 1.472a20.403 20.403 0 0 1-2.788 4.296Z" fill="currentColor"/></svg><svg fill="none" viewBox="0 0 35 35" id="cut-12" xmlns="http://www.w3.org/2000/svg"><path d="M34.751 4.997 29.644.667a.281.281 0 0 0-.148-.074h-.037c-.074-.037-.11-.037-.185-.037H6.144c-.074 0-.11 0-.185.037h-.037c-.036.037-.11.037-.147.074L.705 5.034l-.075.074c0 .037-.036.037-.036.074v.037c0 .037-.037.037-.037.074v24.869c0 .037 0 .074.037.074v.037c0 .037.036.037.036.074 0 0 0 .037.037.037l.037.037 5.07 4.366a.281.281 0 0 0 .148.074h.037a.335.335 0 0 0 .185.037h23.13c.074 0 .11 0 .185-.037h.037c.037-.037.11-.037.148-.074l5.107-4.33a.595.595 0 0 0 .185-.406V5.44a.613.613 0 0 0-.185-.444ZM24.722 9.475c-1.554 0-3.109-.222-4.737-.74 1.814-.481 3.627-1.444 5.44-2.924a21.79 21.79 0 0 0-.703 3.664Zm-14.359 0c-.037-1.11-.222-2.295-.518-3.59 1.776 1.517 3.59 2.48 5.44 2.887-1.702.555-3.33.777-4.922.703Zm-2.405 6.513A14.489 14.489 0 0 0 5.81 9.697c1.148.407 2.295.703 3.48.814-.038 2.294-.593 4.108-1.333 5.477Zm-.037 3.405c.777 1.406 1.406 3.22 1.48 5.55-1.295.149-2.59.445-3.849.926a15.621 15.621 0 0 0 2.369-6.476Zm7.586 7.327c-1.813.481-3.626 1.444-5.477 2.924.296-1.333.444-2.554.482-3.664 1.628-.074 3.293.185 4.995.74Zm2.221-.37c-2.48-1.036-4.885-1.517-7.18-1.48-.11-3.183-1.184-5.514-2.33-7.142 1.146-1.591 2.146-3.923 2.22-7.143h.48c2.221 0 4.516-.48 6.847-1.48 2.332 1 4.626 1.48 6.846 1.48h.037c-.185 2.923.37 5.292 1.666 7.142-1.259 1.813-1.777 4.182-1.555 7.142-2.257-.037-4.626.445-7.031 1.481Zm7.142-.37c.148 1.11.37 2.294.704 3.59-1.777-1.48-3.59-2.48-5.44-2.887 1.628-.518 3.22-.74 4.736-.703Zm1.703-6.476c.333 2.072 1.258 4.108 2.738 6.143a15.41 15.41 0 0 0-3.441-.74c-.185-2.146.074-3.923.703-5.403Zm0-3.516c-.703-1.48-1-3.33-.851-5.44a15.48 15.48 0 0 0 3.627-.777c-1.518 2.035-2.443 4.108-2.776 6.217Zm-.74-6.55c.148-1.296.444-2.739.888-4.256l3.553 3.035a13.719 13.719 0 0 1-4.441 1.22Zm-8.512-1.48c-2.368-.037-4.737-1.148-7.105-3.22h14.766c-2.628 2.183-5.181 3.294-7.66 3.22ZM9.254 9.4a13.48 13.48 0 0 1-4.071-1.184L8.55 5.182c.407 1.554.63 2.96.704 4.219Zm-4.515.666c1.332 2.11 2.11 4.478 2.183 6.994.111 2.813-.666 5.551-2.183 7.994V10.067ZM9.4 26.054c-.036 1.258-.259 2.665-.703 4.219l-3.515-3.035c1.406-.629 2.812-1.036 4.218-1.184Zm8.734 1.443c2.369.037 4.737 1.148 7.106 3.22H10.475c2.627-2.183 5.18-3.256 7.66-3.22Zm7.846-1.443c1.443.148 2.886.555 4.293 1.184l-3.33 3.035c-.445-1.554-.778-2.96-.963-4.219Zm4.737-.407c-2.073-2.59-3.146-5.218-3.146-7.846 0-2.664 1.073-5.329 3.146-7.956v15.802Zm.518-18.06-3.96-3.404a43.09 43.09 0 0 0 2.11-2.295l4.144 3.553c-.85.703-1.628 1.406-2.294 2.146Zm-5.033-3.96H9.068A24.195 24.195 0 0 1 7.292 1.63H28.09c-.629.74-1.258 1.407-1.887 1.999ZM6.07 1.889C6.7 2.74 7.366 3.48 8.032 4.183L4.257 7.587c-.666-.777-1.443-1.48-2.294-2.146l4.108-3.553ZM1.63 6.551c.74.592 1.406 1.258 1.998 1.999v18.096c-.592.74-1.258 1.48-1.998 2.146V6.553Zm2.516 21.242 4.071 3.516a43.1 43.1 0 0 0-2.11 2.294l-4.181-3.589a21.004 21.004 0 0 0 2.22-2.22Zm5.107 4.034h17.135a24.19 24.19 0 0 1 1.776 1.998H7.366c.63-.74 1.258-1.406 1.887-1.998Zm20.132 1.74a41.855 41.855 0 0 0-1.924-2.295l3.775-3.404c.703.703 1.48 1.443 2.294 2.146l-4.145 3.553Zm2.443-6.662V8.587c.592-.666 1.258-1.296 1.998-1.962V28.83a19.843 19.843 0 0 1-1.998-1.925Z" fill="currentColor"/></svg><svg fill="none" viewBox="0 0 35 35" id="cut-2" xmlns="http://www.w3.org/2000/svg"><path d="M29.47.556H5.984L.556 5.21v25.037l5.428 4.652H29.47l5.428-4.652V5.209L29.47.556Zm1.772 6.5-3.397-2.918 1.514-2.216 4.062 3.508-2.179 1.625ZM24.743 27.55H10.711l-2.807-2.4V10.305l2.806-2.437h14.033l2.806 2.4v14.845l-2.806 2.437ZM24.67 6.797H10.785L9.38 4.803h16.655l-1.367 1.994ZM9.788 7.24 7.314 9.345 5.098 7.72l3.139-2.695 1.55 2.215Zm-2.992 3.102v14.77L4.802 26.59V8.865l1.994 1.477Zm.517 15.768 2.475 2.105-1.515 2.216-3.139-2.696 2.18-1.625Zm3.472 2.548h13.847l1.404 1.994H9.418l1.367-1.994Zm14.881-.443 2.474-2.105 2.216 1.625-3.139 2.695-1.55-2.215Zm2.992-3.102V10.342l1.994-1.477V26.59l-1.994-1.477ZM28.14 9.345 25.667 7.24l1.514-2.216L30.32 7.72l-2.18 1.625Zm-1.33-5.687H8.643L7.24 1.664h20.974l-1.403 1.994Zm-19.202.48L4.212 7.055 1.996 5.431l4.062-3.508L7.61 4.138ZM3.658 8.053v19.35l-1.994 1.476V6.575l1.994 1.478Zm.554 20.346 3.397 2.918-1.514 2.215-4.062-3.508L4.212 28.4Zm4.431 3.398h18.168l1.404 1.994H7.24l1.403-1.994Zm19.202-.48 3.398-2.918 2.215 1.625-4.062 3.508-1.55-2.215Zm3.951-3.915V8.052l1.994-1.476v22.34l-1.994-1.514Z" fill="currentColor"/></svg><svg fill="none" viewBox="0 0 35 35" id="cut-3" xmlns="http://www.w3.org/2000/svg"><path fill-rule="evenodd" clip-rule="evenodd" d="M15.972 1.701c-1.776 0-3.389.093-4.924.282-1.856.229-3.795.566-5.4 1.482-1.736.99-2.435 2.992-2.849 4.625-1.226 4.837-1.427 10.44-.582 16.208l.132.86c.32 1.984.692 3.891 1.74 5.392 1.113 1.595 3.054 2.193 4.806 2.568 2.03.434 4.292.636 7.118.636h3.48c2.332 0 4.35-.15 6.17-.456 2.155-.364 4.322-.919 5.576-2.507 1.056-1.336 1.478-3.205 1.792-4.852.299-1.572.502-3.318.622-5.338.059-1.012.092-1.954.098-2.877.026-3.235-.26-6.156-.872-8.93-.42-1.907-1.132-4.228-2.914-5.266-1.657-.966-3.706-1.321-5.491-1.543a40.36 40.36 0 0 0-5.285-.282 217.452 217.452 0 0 1-3.217-.002Zm3.52 33.198h-3.48c-2.908 0-5.246-.21-7.356-.661-1.97-.422-4.166-1.112-5.506-3.032-1.186-1.7-1.59-3.745-1.93-5.868a64.116 64.116 0 0 1-.136-.874C.218 18.549.427 12.79 1.69 7.809c.47-1.852 1.28-4.134 3.392-5.338 1.78-1.016 3.852-1.38 5.827-1.624a41.392 41.392 0 0 1 5.415-.29c.953.007 1.906.007 2.858 0a40.816 40.816 0 0 1 5.433.292c1.9.235 4.091.62 5.928 1.69 2.165 1.262 2.983 3.873 3.455 6.007.631 2.86.925 5.865.9 9.186-.008.945-.042 1.904-.102 2.936-.122 2.07-.332 3.864-.64 5.485-.339 1.78-.802 3.809-2.018 5.348-1.494 1.892-3.903 2.524-6.284 2.925-1.883.318-3.964.473-6.36.473Z" fill="currentColor"/><path fill-rule="evenodd" clip-rule="evenodd" d="m12.443 23.011 5.283 2.113 5.283-2.113 2.113-5.283-2.113-5.284-5.283-2.113-5.283 2.113-2.114 5.284 2.114 5.283Zm5.283 3.303a.57.57 0 0 1-.213-.042l-5.723-2.29a.57.57 0 0 1-.319-.318l-2.29-5.724a.575.575 0 0 1 0-.425l2.29-5.724a.569.569 0 0 1 .319-.318l5.723-2.29a.576.576 0 0 1 .426 0l5.723 2.29a.571.571 0 0 1 .32.318l2.289 5.724a.576.576 0 0 1 0 .425l-2.29 5.724a.572.572 0 0 1-.319.319l-5.723 2.29a.574.574 0 0 1-.213.04Z" fill="currentColor"/><path fill-rule="evenodd" clip-rule="evenodd" d="M24.296 22.879h4.624l4.635-5.152-4.635-5.15h-4.624l1.976 4.937a.577.577 0 0 1 0 .426l-1.976 4.939Zm4.879 1.144H23.45a.574.574 0 0 1-.531-.785l2.204-5.51-2.204-5.511a.574.574 0 0 1 .531-.785h5.724c.162 0 .317.069.425.189l5.15 5.723a.573.573 0 0 1 0 .766l-5.15 5.724a.574.574 0 0 1-.425.19Z" fill="currentColor"/><path fill-rule="evenodd" clip-rule="evenodd" d="m26.407 17.727 2.859 4.765 4.287-4.765-4.287-4.765-2.86 4.765Zm2.767 6.296a.572.572 0 0 1-.49-.278l-3.435-5.723a.572.572 0 0 1 0-.59l3.434-5.724a.573.573 0 0 1 .916-.088l5.15 5.724a.572.572 0 0 1 0 .766l-5.15 5.724a.572.572 0 0 1-.425.189ZM6.533 22.879h4.623L9.18 17.94a.575.575 0 0 1 0-.426l1.976-4.938H6.533l-4.635 5.151 4.635 5.152ZM12 24.023H6.278a.572.572 0 0 1-.425-.19L.703 18.11a.573.573 0 0 1 0-.766l5.15-5.723a.573.573 0 0 1 .425-.19H12a.573.573 0 0 1 .532.786l-2.204 5.51 2.204 5.511a.574.574 0 0 1-.532.785Z" fill="currentColor"/><path fill-rule="evenodd" clip-rule="evenodd" d="m1.898 17.728 4.288 4.765 2.859-4.765-2.86-4.765-4.287 4.765Zm4.38 6.295a.572.572 0 0 1-.425-.189L.703 18.11a.571.571 0 0 1 0-.765l5.15-5.724a.574.574 0 0 1 .916.088l3.434 5.724a.574.574 0 0 1 0 .59L6.77 23.745a.573.573 0 0 1-.491.277ZM12.575 28.921l5.151 4.635 5.152-4.635v-4.623l-4.939 1.976a.574.574 0 0 1-.425 0l-4.939-1.976v4.623Zm5.151 5.977a.573.573 0 0 1-.383-.147l-5.723-5.15a.57.57 0 0 1-.19-.425v-5.724a.573.573 0 0 1 .785-.53l5.512 2.203 5.511-2.204a.571.571 0 0 1 .785.531v5.724a.573.573 0 0 1-.19.426l-5.724 5.15a.572.572 0 0 1-.383.146Z" fill="currentColor"/><path fill-rule="evenodd" clip-rule="evenodd" d="m12.961 29.268 4.765 4.287 4.765-4.287-4.765-2.86-4.764 2.86Zm4.765 5.63a.573.573 0 0 1-.383-.148l-5.723-5.149a.574.574 0 0 1 .089-.916l5.723-3.435a.573.573 0 0 1 .59 0l5.723 3.435a.573.573 0 0 1 .088.916l-5.724 5.15a.572.572 0 0 1-.383.146ZM17.726 9.142c.072 0 .144.013.212.04l4.939 1.976V6.534L17.725 1.9l-5.15 4.634v4.624l4.938-1.976a.581.581 0 0 1 .213-.04Zm5.723 3.434a.565.565 0 0 1-.212-.04l-5.511-2.205-5.512 2.204a.574.574 0 0 1-.784-.532V6.28a.57.57 0 0 1 .19-.426l5.722-5.15a.572.572 0 0 1 .766 0l5.724 5.15c.121.109.19.263.19.426v5.723a.573.573 0 0 1-.573.573Z" fill="currentColor"/><path fill-rule="evenodd" clip-rule="evenodd" d="m12.961 6.187 4.766 2.86 4.764-2.86L17.726 1.9l-4.764 4.287Zm4.766 4.1a.57.57 0 0 1-.295-.082L11.71 6.77a.572.572 0 0 1-.09-.917l5.724-5.15a.573.573 0 0 1 .766 0l5.724 5.15a.572.572 0 0 1-.088.917l-5.724 3.434a.572.572 0 0 1-.294.082Z" fill="currentColor"/><path fill-rule="evenodd" clip-rule="evenodd" d="M24.023 11.43h4.681l1.394-7.073-6.075 2.316v4.757Zm5.152 1.146-5.724-.001a.572.572 0 0 1-.573-.572V6.279c0-.238.146-.45.369-.535l7.408-2.825a.575.575 0 0 1 .766.646l-1.685 8.549a.572.572 0 0 1-.561.462ZM5.384 4.382l1.367 7.05 4.679-.001V6.675L5.384 4.382Zm.894 8.195a.572.572 0 0 1-.561-.464L4.065 3.591a.572.572 0 0 1 .764-.644l7.377 2.797c.222.085.369.298.369.535v5.724a.572.572 0 0 1-.573.572l-5.724.002ZM6.751 24.024 5.386 31.06l6.045-2.28v-4.756h-4.68ZM4.63 32.53a.574.574 0 0 1-.562-.681l1.65-8.506a.572.572 0 0 1 .563-.464h5.724c.316 0 .572.257.572.573v5.724a.573.573 0 0 1-.37.536L4.83 32.492a.576.576 0 0 1-.202.037ZM24.023 28.781l6.066 2.308-1.385-7.065h-4.68v4.757Zm6.825 3.782a.566.566 0 0 1-.204-.037l-7.397-2.815a.573.573 0 0 1-.37-.535v-5.724c0-.316.257-.572.573-.572h5.724c.274 0 .51.193.562.462l1.673 8.539a.573.573 0 0 1-.561.682Z" fill="currentColor"/></svg><svg fill="none" viewBox="0 0 35 35" id="cut-4" xmlns="http://www.w3.org/2000/svg"><path fill-rule="evenodd" clip-rule="evenodd" d="m10.872 2.182-2.055 5.46h5.299a113.69 113.69 0 0 0 2.912-3.54c-1.963-.135-3.902-.804-6.156-1.92Zm6.664 2.663c-.787.991-1.545 1.917-2.291 2.798h2.291V4.845Zm.859 2.798h2.286a117.91 117.91 0 0 1-2.286-2.798v2.798Zm.483-3.572c.952 1.21 1.93 2.401 2.93 3.572h4.945l-2.14-5.409c-2.14 1.05-3.973 1.658-5.735 1.837Zm6.67-1.807L27.64 7.55l3.208-2.274c-1.202-1.288-2.889-2.339-5.3-3.013Zm5.857 3.67L28.4 8.064l5.011 2.294c-.402-1.633-1.016-3.136-2.006-4.424Zm2.056 5.39-5.724-2.617-.586 4.672a154.948 154.948 0 0 0 3.877 3.697l2.433-5.752Zm-3.372 6.053a159.59 159.59 0 0 1-2.973-2.828v2.828h2.973Zm-2.973.858v2.722a112.06 112.06 0 0 1 2.94-2.722h-2.94Zm3.917.28a111.157 111.157 0 0 0-3.883 3.606l.276 4.127 6.09-2.195-2.483-5.538Zm2.449 6.462-5.452 1.965 3.377 2.39c.122-.171.238-.343.348-.514a15.169 15.169 0 0 0 1.726-3.841Zm-2.595 5.039-3.593-2.542-1.744 5.793c2.382-.46 4.103-1.76 5.335-3.253l.002.002Zm-6.208 3.17 1.779-5.911h-4.192a151.362 151.362 0 0 0-3.437 4.059c1.806.175 3.677.789 5.85 1.852Zm-6.285-2.676c.895-1.09 1.805-2.17 2.73-3.235h-2.73v3.234Zm-.859-3.235H14.8c.927 1.065 1.84 2.144 2.737 3.235v-3.235Zm-.46 4.029a144.825 144.825 0 0 0-3.42-4.029H8.8l2.064 5.929c2.261-1.12 4.224-1.777 6.212-1.9Zm-7.1 1.956-1.968-5.653-3.484 2.526c1.19 1.421 2.922 2.652 5.451 3.127ZM4 29.451l3.405-2.469-5.298-2.085c.193.996.641 2.588 1.61 4.13.09.142.184.284.283.424Zm-1.842-5.457 5.775 2.273.786-4.177a115.208 115.208 0 0 0-3.874-3.587l-2.687 5.49v.001Zm3.68-5.758a120.15 120.15 0 0 1 2.975 2.75v-2.75H5.84Zm2.975-.858V14.52c-.99.965-1.994 1.917-3.008 2.857h3.008Zm-3.972-.279a161.846 161.846 0 0 0 3.97-3.78l-.93-4.635-5.846 2.633 2.806 5.78v.002Zm-2.745-6.75 5.215-2.348-3.163-2.103c-.98 1.298-1.596 2.81-2.051 4.45l-.001.001ZM4.7 5.234l3.283 2.183 1.963-5.213C7.54 2.877 5.886 3.936 4.7 5.234Zm7.373-3.43c2.02.929 3.736 1.422 5.461 1.463V1.42a49.086 49.086 0 0 0-5.461.386Zm6.32-.39v1.834c1.55-.097 3.177-.559 5.1-1.436-1.649-.274-3.407-.386-5.1-.397ZM8.849 9.143l2.276 1.814a93.772 93.772 0 0 1-1.584 1.633L8.85 9.142Zm.824 4.53v7.999l-.024.126a93.74 93.74 0 0 1 4.393 4.619h7.836a93.3 93.3 0 0 1 4.388-4.633l-.01-.138V13.7a94.662 94.662 0 0 1-4.843-5.199h-6.905a94.765 94.765 0 0 1-4.836 5.173v-.001Zm3.695-5.17H9.424l2.291 1.825a92.15 92.15 0 0 0 1.653-1.825Zm9.184 0c.487.554.97 1.092 1.458 1.622l2.288-1.622h-3.746Zm4.259.69-2.212 1.566a94.969 94.969 0 0 0 1.783 1.851l.429-3.418Zm-.469 13.726c-.55.552-1.095 1.11-1.63 1.676l1.829 1.295-.199-2.97Zm-.545 3.498-1.68-1.19c-.364.392-.725.787-1.087 1.19h2.767Zm-12.91 0a98.011 98.011 0 0 0-1.295-1.407l-1.94 1.407h3.236Zm-4.014-.497 2.122-1.538a91.004 91.004 0 0 0-1.538-1.567l-.584 3.105ZM1.638 12.464l2.385 4.913h-2.59c-.048-1.68-.009-3.41.205-4.913Zm-.172 5.771a71.972 71.972 0 0 0 .362 4.48l2.192-4.48H1.466ZM12.139 33.55c2.547.31 4.034.468 5.396.488v-1.893c-1.712.037-3.417.508-5.396 1.405Zm6.255-1.387v1.87c1.317-.036 2.706-.2 5.035-.483-1.881-.842-3.493-1.29-5.035-1.387Zm15.44-9.496-1.986-4.43h2.184a74.097 74.097 0 0 1-.198 4.43Zm.206-5.29c.004-1.613-.054-3.271-.217-4.705l-1.99 4.706h2.207ZM10.566 1.16c2.791-.482 9.298-1.105 14.368.062 3.191.734 5.357 2.066 6.833 3.797 1.473 1.726 2.23 3.813 2.672 6.004.443 2.202.503 5.326.437 7.982-.067 2.65-.265 4.907-.36 5.38-.093.457-.62 2.674-2.038 4.895-1.421 2.227-3.766 4.493-7.485 4.944l-1.073.131c-2.833.346-4.386.534-5.978.543-1.784.009-3.616-.212-7.355-.674-3.902-.482-6.231-2.571-7.595-4.74-1.354-2.157-1.76-4.388-1.85-5.215a72.217 72.217 0 0 0-.055-.468C.97 22.785.744 20.868.63 18.71c-.136-2.55-.125-5.488.41-7.704.525-2.176 1.283-4.273 2.73-6.011 1.456-1.749 3.58-3.096 6.774-3.83l.011-.003.012-.002Z" fill="currentColor"/></svg><svg fill="none" viewBox="0 0 31 39" id="cut-5" xmlns="http://www.w3.org/2000/svg"><path d="M26.062.886H5.674L.94 6.024V33.37l4.693 5.137h20.389l4.693-5.137V6.024L26.062.886Zm-.647 8.374L23.19 6.631l.97-1.537 2.67 2.993-1.415 1.173Zm-3.236 22.816H9.556l-2.59-3.034v-18.73l2.59-3.034h12.621l2.59 3.034v18.77l-2.59 2.994Zm-.04-25.971H9.597l-.89-1.375h14.28l-.85 1.375ZM7.533 5.094l.971 1.537-2.225 2.63-1.416-1.133 2.67-3.034ZM4.622 9.463l1.173.93v18.609l-1.173.93V9.462ZM6.32 30.135l2.225 2.629-.971 1.537-2.67-2.993 1.416-1.173Zm3.276 3.155h12.5l.89 1.375H8.708l.89-1.375Zm14.604 1.011-.97-1.537 2.224-2.63 1.416 1.133-2.67 3.034Zm1.74-5.3V10.394l1.173-.93v20.51l-1.173-.971ZM27.8 7.36 24.85 4.042l1.01-1.538 3.399 3.722-1.456 1.133Zm-4.004-3.883H7.939L7.049 2.1h17.638l-.89 1.376Zm-16.95.566L3.894 7.36 2.437 6.186l3.398-3.721 1.012 1.577Zm-3.439 4.45v22.452l-1.214.97V7.522l1.214.97Zm.526 23.544 2.953 3.317-1.011 1.538-3.398-3.722 1.456-1.133Zm4.005 3.883h15.817l.89 1.376H7.05l.89-1.376Zm16.95-.566 2.953-3.317 1.456 1.173L25.9 36.93l-1.011-1.577Zm3.439-4.41V8.452l1.213-.97v24.393l-1.213-.93Z" fill="currentColor"/></svg><svg fill="none" viewBox="0 0 39 36" id="cut-6" xmlns="http://www.w3.org/2000/svg"><path d="M35.542 3.454c-.995-.995-2.113-1.782-3.315-2.32l-.042-.042h-.04a11.778 11.778 0 0 0-6.839-.829h-.083A11.762 11.762 0 0 0 19.67 3.04 11.322 11.322 0 0 0 14.116.304h-.082C11.754-.11 9.35.14 7.196 1.133h-.042s-.041 0-.041.041c-1.202.54-2.32 1.327-3.315 2.321a11.531 11.531 0 0 0 0 16.328l4.351 4.352c.041.041.083.124.166.165l10.94 10.941c.042.042.042.042.084.042h.04c.042 0 .084.041.084.041.083.041.124.041.207.041.083 0 .124 0 .207-.041.042 0 .083-.041.083-.041h.042c.041 0 .041-.042.083-.042l10.94-10.94c.042-.042.125-.084.166-.166l4.352-4.352c4.517-4.517 4.516-11.852 0-16.37Zm-8.869 23.498c-.58-.87-1.243-1.7-2.03-2.487h4.517l-2.486 2.487ZM10.18 24.424h4.518c-.746.829-1.451 1.657-2.031 2.486l-2.487-2.486Zm-.911-7.709c1.947.622 3.854 1.368 5.636 2.28v4.185H9.268v-6.465ZM2.47 7.598c.87.373 1.7.746 2.487 1.16l-3.192 4.435a10.303 10.303 0 0 1 .705-5.595Zm17.199.041 5.387 1.41c1.16.787 1.824 1.947 1.948 3.48-1.326 1.451-2.486 3.233-3.523 5.43-1.326.663-2.61 1.45-3.812 2.237-1.202-.787-2.487-1.575-3.813-2.238-1.036-2.237-2.196-3.978-3.523-5.428.125-1.575.746-2.694 1.948-3.482L19.67 7.64Zm13.551.29c-.04 0-.082.042-.165.084-.622.331-1.202.663-1.782.994V5.651l4.061 1.243c-.705.331-1.409.663-2.114 1.036Zm-5.138 3.523c-.25-1.201-.83-2.155-1.7-2.942l3.689-2.528v3.854a18.86 18.86 0 0 0-1.99 1.616Zm-2.86-3.605-4.393-1.16 4.6-4.932 4.186 3.066-4.393 3.026ZM23.15 22.973a36.705 36.705 0 0 0-2.363-1.947c.746-.498 1.575-.954 2.363-1.41v3.357Zm-6.962-3.315c.828.456 1.616.912 2.362 1.41a36.896 36.896 0 0 0-2.362 1.947v-3.357Zm3.48 2.155a29.01 29.01 0 0 1 3.233 2.652l-3.232 8.579-3.233-8.579a28.992 28.992 0 0 1 3.233-2.652ZM14.117 7.847 9.724 4.822l4.185-3.067 4.6 4.931-4.393 1.16Zm-1.16.704c-.87.788-1.45 1.74-1.7 2.943a18.777 18.777 0 0 0-1.988-1.616V6.024l3.688 2.527Zm-6.672-.539c-.042 0-.042 0 0 0a.315.315 0 0 0-.166-.083 34.477 34.477 0 0 0-2.155-1.036L8.024 5.65v3.357l-1.74-.995Zm-.207 1.285c.663.373 1.326.746 1.947 1.16v4.56c-1.823-.456-3.647-.788-5.429-.954l3.482-4.766Zm3.19 2.114c.705.539 1.327 1.119 1.949 1.823.994 1.078 1.947 2.404 2.776 3.937a32.806 32.806 0 0 0-4.766-1.74v-4.02h.042Zm6.217 14.007 2.611 6.921-4.517-4.517c.538-.829 1.202-1.616 1.906-2.404Zm8.371 0a16.736 16.736 0 0 1 1.907 2.404l-4.517 4.517 2.61-6.92Zm.54-2.238v-4.185c1.823-.912 3.729-1.658 5.636-2.28v6.465h-5.637Zm.911-6.009a18.353 18.353 0 0 1 2.777-3.937 19.931 19.931 0 0 1 1.948-1.823v4.02a34.166 34.166 0 0 0-4.725 1.74Zm6.01-6.672c.62-.415 1.284-.787 1.947-1.16l3.44 4.807c-1.782.166-3.606.456-5.43.953v-4.6h.042Zm3.066-1.74a34.453 34.453 0 0 1 2.487-1.16c.745 1.78.994 3.729.704 5.594l-3.191-4.435Zm1.45-3.026-4.351-1.326.746-1.865c.87.456 1.699 1.078 2.403 1.782.498.456.871.912 1.202 1.41ZM31.15 2.045l-.745 1.823-3.399-2.528c1.368-.041 2.818.166 4.145.705ZM20.127 4.324a10.104 10.104 0 0 1 3.19-2.155L19.67 6.106 16.023 2.17a10.098 10.098 0 0 1 3.191 2.155.65.65 0 0 0 .912 0Zm-7.75-2.984L8.978 3.868l-.746-1.823a10.624 10.624 0 0 1 3.73-.705h.414ZM4.668 4.324A9.764 9.764 0 0 1 7.07 2.542l.746 1.865-4.31 1.326a9.076 9.076 0 0 1 1.16-1.409ZM2.347 15.348c1.865.165 3.813.497 5.72 1.036l-.001 5.926-3.399-3.398a10.378 10.378 0 0 1-2.32-3.564Zm28.968 6.962v-5.926a30.732 30.732 0 0 1 5.72-1.036 10.375 10.375 0 0 1-2.321 3.564l-3.399 3.398Z" fill="currentColor"/></svg><svg fill="none" viewBox="0 0 26 39" id="cut-7" xmlns="http://www.w3.org/2000/svg"><path d="M24.6 26.818c.04-.04.04-.121.04-.202.568-2.148.892-4.458.892-6.888 0-2.553-.365-4.944-.973-7.172 0-.04-.04-.122-.04-.162-.608-2.148-1.5-4.092-2.593-5.754v-.08c0-.041-.04-.041-.04-.041s0-.04-.041-.04l-.081-.082c-1.135-1.701-2.512-3.079-4.052-4.01-.04-.082-.081-.123-.162-.123C16.09 1.373 14.47.887 12.809.887c-1.742 0-3.444.527-4.943 1.499-.081.04-.122.08-.203.121-1.418.932-2.755 2.27-3.85 3.89l-.08.081s0 .04-.04.04l-.04.04v.081c-1.135 1.702-2.027 3.728-2.634 5.997-.04.04-.04.122-.04.203a26.947 26.947 0 0 0-.892 6.888c0 2.553.365 4.943.972 7.172 0 .04.04.121.04.162.609 2.147 1.5 4.092 2.594 5.753 0 .04.04.081.081.122v.04c.04.04.04.081.081.081 1.135 1.702 2.512 3.08 4.052 4.012.04.04.122.08.203.121 1.458.892 3.08 1.378 4.78 1.378 1.743 0 3.445-.527 4.984-1.5.082-.04.122-.08.203-.12 1.418-.933 2.755-2.27 3.85-3.89a.845.845 0 0 0 .161-.244c.972-1.7 1.864-3.767 2.512-5.996ZM1.91 13.812l2.269 1.337-2.918 3.039c.081-1.54.324-2.998.649-4.376Zm21.718 11.831-2.27-1.337 2.918-3.039a24.713 24.713 0 0 1-.648 4.376Zm-1.864 5.146-.608-5.187 2.188 1.256a26.505 26.505 0 0 1-1.58 3.93Zm-6.321-1.054-1.742-1.904 2.066-1.297-.324 3.201ZM10.095 9.72l1.742 1.905L9.77 12.92l.325-3.2Zm10.453 13.696-1.783-3.688 1.783-3.687 3.525 3.687-3.525 3.688Zm-2.31-5.39-.85-3.12 2.107.487-1.256 2.634Zm-2.228 6.97L12.77 27.02l-3.242-2.026-1.459-5.268 1.46-5.267 3.24-2.026 3.242 2.026 1.459 5.267-1.459 5.268Zm-.527-15.276.324 3.201-2.107-1.296 1.783-1.905Zm-2.714 1.135L10.337 8.18l2.432-5.227 2.43 5.267-2.43 2.634Zm-5.47 7.172-1.256-2.594 2.107-.486-.851 3.08Zm-2.31-1.986 1.783 3.688-1.783 3.687-3.525-3.688L4.99 16.04Zm2.31 5.39.85 3.12-2.106-.487 1.256-2.634Zm2.755 8.305-.324-3.2 2.066 1.296-1.742 1.904Zm2.715-1.134 2.43 2.674-2.43 5.227-2.432-5.268 2.432-2.633Zm5.47-7.172 1.256 2.593-2.107.486.85-3.079Zm6.037-3.282-2.958-3.08 2.269-1.498c.365 1.458.608 2.998.689 4.578Zm-3.12-4.376.608-5.105c.607 1.135 1.094 2.35 1.499 3.687l-2.107 1.418Zm-1.297.486-2.795-.648-.487-4.822 4.052-1.094-.77 6.564ZM13.741 2.183a8.003 8.003 0 0 1 2.877.932l-.851 3.363-2.026-4.295ZM9.73 6.599 8.717 3.236c.972-.567 2.026-.932 3.08-1.053L9.73 6.599Zm-1.297 7.01-2.755.649-.81-6.605L8.96 8.747l-.527 4.862Zm-4.66-4.943.608 5.186-2.147-1.256a22.679 22.679 0 0 1 1.54-3.93ZM1.263 21.308l2.957 3.079-2.269 1.5a23.972 23.972 0 0 1-.688-4.58Zm3.12 4.376-.608 5.105c-.608-1.135-1.094-2.35-1.5-3.687l2.107-1.418Zm1.296-.486 2.796.648.486 4.822-4.052 1.094.77-6.564Zm6.118 12.074a8.005 8.005 0 0 1-2.877-.932l.851-3.363 2.026 4.295Zm4.012-4.416 1.012 3.362c-.972.527-1.985.892-3.038 1.054l2.026-4.416Zm1.296-7.01 2.755-.649.81 6.605-4.092-1.094.527-4.862Zm3.282-19.368-3.606.972.932-3.646c.972.689 1.864 1.62 2.674 2.674ZM7.704 3.926 8.757 7.45l-3.565-.973c.73-1.013 1.58-1.904 2.512-2.552ZM5.151 32.977l3.606-.972-.931 3.646c-.973-.689-1.864-1.62-2.675-2.674Zm12.683 2.553-1.014-3.485 3.566.972c-.77.973-1.62 1.864-2.552 2.512Z" fill="currentColor"/></svg><svg fill="none" viewBox="0 0 27 39" id="cut-8" xmlns="http://www.w3.org/2000/svg"><path d="M24.752 7.928c.04.04.04.08.08.121.687 1.292 1.171 2.826 1.414 4.603v.04c.08.686.12 1.373.12 2.1 0 4.279-2.058 9.528-6.176 15.584-2.988 4.481-6.057 7.752-6.097 7.792-.04.04-.08.08-.121.08h-.04c-.04.041-.081.041-.121.041h-.04c-.041 0-.082.04-.162.04a.649.649 0 0 1-.444-.202c-.04-.04-3.15-3.31-6.218-7.792C2.83 24.28.77 19.03.851 14.71c0-.646.04-1.251.121-1.857.202-1.615.606-3.109 1.211-4.441v-.04c.767-1.736 1.898-3.19 3.351-4.401C8.28 1.629 11.591.78 13.57.78c.969 0 2.422.283 4.037.929.081 0 .121 0 .202.04.04.04.081.04.121.081 1.13.485 2.302 1.13 3.392 2.019.12.04.201.12.242.202a12.548 12.548 0 0 1 3.189 3.876Zm-6.824-4.805-.323.727h1.656c-.444-.283-.889-.484-1.333-.727ZM7.875 3.85h1.858l-.323-.807c-.525.242-1.01.484-1.535.807Zm-5.33 14.454h.606l-.969-2.422c.04.807.162 1.615.364 2.422Zm21.318-9.447h-1.251l2.018 2.059a11.39 11.39 0 0 0-.767-2.06ZM13.65 28.963l-2.1 2.018c.848 2.221 1.615 4.078 2.1 5.25.484-1.172 1.292-3.07 2.1-5.29l-2.1-1.978Zm2.584.767a82.334 82.334 0 0 0 1.614-4.764l-3.31 3.149 1.696 1.615ZM12.8 28.115l-3.351-3.19c.525 1.615 1.09 3.27 1.614 4.805l1.737-1.615Zm.848-.848 4.845-4.603c.646-2.382 1.09-4.602 1.09-6.298 0-3.795-1.575-6.016-3.19-7.187-.04-.04-.12-.08-.161-.12-1.01-.687-2.019-.97-2.584-.97-.606 0-1.575.283-2.584.97-.04.04-.121.08-.161.12-1.615 1.171-3.19 3.392-3.19 7.187 0 1.655.444 3.876 1.05 6.217l4.885 4.684Zm9.528-9.69 1.776-4.683-3.472-3.472-1.01 3.754 2.706 4.401Zm-2.382-1.575v.364c0 1.332-.242 2.947-.646 4.724l2.382-2.261-1.736-2.826Zm-14.292 0L4.807 18.83l2.301 2.22c-.404-1.736-.646-3.35-.646-4.643.04-.161.04-.282.04-.403ZM9.006 9.26h-2.06l.647 2.06a8.026 8.026 0 0 1 1.413-2.06ZM6.624 8.05h3.391V5.06H6.624V8.05Zm4.602-.525a7.186 7.186 0 0 1 1.171-.485l-1.17-1.13v1.615Zm2.423-.888 2.18-2.18-2.18-2.18-2.18 2.18 2.18 2.18Zm1.251.444c.364.12.768.283 1.171.484V5.95l-1.17 1.13Zm2.382.969h3.27V5.06h-3.27V8.05Zm1.01 1.211a8.292 8.292 0 0 1 1.413 2.1l.565-2.1h-1.978Zm5.894 9.044h.485c.202-.808.323-1.615.404-2.382l-.889 2.382Zm-.242 1.211.04 1.211c.162-.403.283-.807.404-1.21h-.444Zm-1.211.808-3.15 2.987c-.443 1.656-1.008 3.392-1.574 5.047l4.764-4.966-.04-3.068Zm-6.985 14.05c.485-.606 1.01-1.252 1.535-1.979l-.566-.525c-.363.93-.686 1.777-.969 2.504Zm-5.167-2.504-.566.566c.566.767 1.13 1.453 1.615 2.058-.323-.807-.686-1.655-1.05-2.624Zm-2.907-8.64-2.988-2.826.12 3.674L9.33 28.52c-.566-1.737-1.171-3.553-1.655-5.29Zm-4.2-3.714H2.87c.202.646.404 1.292.646 1.938l-.04-1.938Zm-.888-8.317L4.524 9.26H3.232c-.242.605-.484 1.252-.646 1.938Zm-.201 1.938 1.776 4.441 2.745-4.562-1.05-3.311-3.471 3.432Zm8.478-9.77 1.17-1.171c-.483.08-.968.242-1.453.403l.283.767Zm5.612.04.323-.727c-.525-.202-1.01-.323-1.494-.444l1.171 1.17Zm5.29 4.239h1.453c-.445-.686-.929-1.252-1.454-1.817v1.817Zm-1.01 19.581-3.432 3.553.646.646c.929-1.292 1.897-2.705 2.786-4.199Zm-11.466 4.24.686-.646-3.351-3.311c.848 1.413 1.776 2.745 2.665 3.956ZM3.798 8.048h1.574v-2.18a10.733 10.733 0 0 0-1.574 2.18Z" fill="currentColor"/></svg><svg fill="none" viewBox="0 0 35 35" id="cut-9" xmlns="http://www.w3.org/2000/svg"><path d="M.557.556V34.66H34.66V.556H.557Zm28.64 9.644-3.631-.586-.587-3.63 7.995-3.741-3.777 7.957ZM6.02 25.015l3.63.587.587 3.63-7.994 3.74 3.777-7.957Zm22.699-1.027-2.934.477.807-5.024 2.127 4.547Zm-2.97-6.307-1.137 6.93-6.968 1.138-.037-.037-.073.037-6.93-1.137-1.137-6.967.036-.074-.036-.073 1.136-6.968 6.931-1.137.073.037.074-.037 6.967 1.137 1.137 6.931-.073.147.037.073ZM6.497 11.227l2.934-.477-.807 5.024-2.127-4.547Zm12.945-2.604 4.51-2.126.477 2.933-4.987-.807Zm-1.833-.33L13.282 6.24h8.69L17.61 8.293Zm-1.834.33-4.987.807.477-2.933 4.51 2.126Zm-6.16.99-3.631.587-3.74-7.957 7.957 3.74-.586 3.63Zm-1.32 7.995L6.24 21.935V13.28l2.053 4.327Zm.33 1.833.806 4.988-2.934-.477 2.127-4.51Zm2.126 6.344 5.024.807-4.51 2.127-.514-2.934Zm6.858 1.137 4.327 2.054H13.28l4.328-2.054Zm1.833-.33 4.988-.807-.477 2.934-4.51-2.127Zm6.16-.99 3.631-.587 3.74 7.958-7.957-3.777.587-3.594Zm1.32-7.994 2.055-4.327v8.69l-2.054-4.363Zm-.329-1.834-.807-4.987 2.934.477-2.127 4.51ZM24.283 5.14H10.935L3.564 1.656h28.09L24.283 5.14ZM5.14 10.934v13.348l-3.484 7.37V3.563l3.484 7.372Zm5.793 19.142h13.349l7.37 3.483H3.564l7.371-3.483Zm19.143-5.794V10.934l3.483-7.371v28.09l-3.483-7.371Z" fill="currentColor"/></svg><svg fill="none" viewBox="0 0 180 180" id="delivery" xmlns="http://www.w3.org/2000/svg"><path d="m111.466 38.292 12 6.297c12.91 6.775 19.365 10.162 22.95 16.25C150 66.925 150 74.5 150 89.648v.702c0 15.149 0 22.724-3.584 28.811-3.585 6.087-10.04 9.474-22.95 16.249l-12 6.297C100.933 147.236 95.666 150 90 150s-10.933-2.764-21.466-8.292l-12-6.297c-12.91-6.775-19.365-10.162-22.95-16.249C30 113.075 30 105.5 30 90.351v-.702c0-15.149 0-22.724 3.584-28.81 3.585-6.088 10.04-9.475 22.95-16.25l12-6.297C79.067 32.764 84.334 30 90 30s10.933 2.764 21.466 8.292ZM144 63l-24 12M90 90 36 63m54 27v57m0-57 27-13.5 3-1.5m0 0v21m0-21L63 45" stroke="currentColor" stroke-width="1.5" stroke-linecap="round"/></svg><svg fill="none" viewBox="0 0 108 108" id="documents" xmlns="http://www.w3.org/2000/svg"><path d="M75.6 46.8h-18" stroke="currentColor" stroke-width="1.5" stroke-linecap="round"/><path d="M46.8 21.6h23.4c1.672 0 2.508 0 3.21.092a10.8 10.8 0 0 1 9.297 9.298c.093.702.093 1.538.093 3.21" stroke="currentColor" stroke-width="1.5"/><path d="M18 35.82c0-3.178 0-4.767.25-6.09a14.4 14.4 0 0 1 11.48-11.48c1.323-.25 2.912-.25 6.09-.25 1.391 0 2.087 0 2.756.063 2.884.27 5.62 1.402 7.85 3.25.517.43 1.009.922 1.993 1.906L50.4 25.2c2.937 2.937 4.405 4.405 6.164 5.384.966.537 1.99.961 3.053 1.264 1.935.552 4.012.552 8.165.552h1.346c9.476 0 14.214 0 17.294 2.77.284.255.553.524.808.808C90 39.058 90 43.796 90 53.272V61.2c0 13.576 0 20.365-4.218 24.582C81.565 90 74.776 90 61.2 90H46.8c-13.576 0-20.365 0-24.582-4.218C18 81.565 18 74.776 18 61.2V35.82Z" stroke="currentColor" stroke-width="1.5"/></svg><svg fill="none" viewBox="0 0 40 40" id="fashion-close" xmlns="http://www.w3.org/2000/svg"><path d="M29 11 11 29m0-18 18 18" stroke="currentColor" stroke-width="2" stroke-linecap="round"/></svg><svg fill="none" viewBox="0 0 26 26" id="favourites" xmlns="http://www.w3.org/2000/svg"><path d="m2.85 14 8.399 10.125c.967 1.166 2.535 1.166 3.502 0L23.151 14c2.466-2.973 2.466-7.795 0-10.769-2.467-2.973-6.466-2.973-8.933 0L13 4.7 11.782 3.23C9.315.257 5.316.257 2.85 3.23.383 6.204.383 11.026 2.85 14Z" fill="currentColor" fill-opacity=".8"/><path d="m11.249 24.125-.385.32.385-.32ZM2.849 14l.386-.319-.385.32Zm11.902 10.126.385.32-.385-.32ZM2.85 3.23l.385.32-.385-.32Zm8.932 0 .385-.319-.385.32ZM23.15 14l.385.319-.385-.32Zm0-10.77-.385.32.385-.32Zm-8.932 0 .385.32-.385-.32ZM13 4.7l-.385.319a.5.5 0 0 0 .77 0L13 4.698Zm-1.367 19.107L3.236 13.68l-.77.639 8.399 10.126.77-.639Zm2.734 0c-.397.478-.893.694-1.367.694s-.97-.216-1.367-.694l-.77.639c.572.688 1.343 1.055 2.137 1.055s1.565-.367 2.136-1.055l-.77-.639ZM3.235 3.55C4.38 2.168 5.86 1.5 7.315 1.5c1.457 0 2.936.668 4.082 2.05l.77-.639C10.846 1.32 9.092.5 7.316.5c-1.777 0-3.53.819-4.85 2.411l.769.639Zm-.77-.639c-2.62 3.159-2.62 8.249 0 11.408l.77-.639c-2.313-2.788-2.313-7.342 0-10.13l-.77-.639Zm20.3 10.77-8.399 10.125.77.639 8.399-10.126-.77-.639Zm0-10.131c2.313 2.788 2.313 7.342 0 10.13l.77.639c2.62-3.16 2.62-8.249 0-11.408l-.77.639Zm-8.162 0c1.146-1.382 2.625-2.05 4.081-2.05 1.456 0 2.935.668 4.081 2.05l.77-.639C22.215 1.32 20.46.5 18.685.5c-1.777 0-3.531.819-4.852 2.411l.77.639Zm-1.218 1.468 1.218-1.468-.77-.639-1.218 1.469.77.638ZM11.397 3.55l1.218 1.468.77-.638-1.218-1.469-.77.639Z" fill="#206C57" fill-opacity=".8"/></svg><svg fill="none" viewBox="0 0 40 40" id="filter" xmlns="http://www.w3.org/2000/svg"><path d="M16.667 22.667a4 4 0 1 1 0 8 4 4 0 0 1 0-8ZM23.333 9.333a4 4 0 1 0 0 8 4 4 0 0 0 0-8Z" stroke="currentColor"/><path d="M24 26.611h9.333M16 13.278H6.667M6.667 26.611h2.666M33.333 13.278h-2.666" stroke="currentColor" stroke-linecap="round"/></svg><svg fill="none" viewBox="0 0 13 16" id="filter-arrow" xmlns="http://www.w3.org/2000/svg"><path d="M13 8.402 6.5 16 0 8.402l1.606-1.619 3.798 4.44V0h2.192v11.224l3.798-4.441L13 8.402Z" fill="currentColor"/></svg><svg fill="none" viewBox="0 0 48 48" id="footer-mastercard" xmlns="http://www.w3.org/2000/svg"><path d="M31 35a10.949 10.949 0 0 1-7.702-3.156 1.007 1.007 0 0 1 0-1.428A8.92 8.92 0 0 0 26 24a8.92 8.92 0 0 0-2.702-6.416 1.007 1.007 0 0 1 0-1.428A10.949 10.949 0 0 1 31 13c6.064 0 11 4.934 11 11s-4.936 11-11 11Zm-5.572-3.942A8.93 8.93 0 0 0 31 33c4.962 0 9-4.038 9-9s-4.038-9-9-9a8.925 8.925 0 0 0-5.572 1.942A10.888 10.888 0 0 1 28 24c0 2.612-.906 5.08-2.572 7.058Z" fill="#333"/><path d="M17 35c-6.064 0-11-4.934-11-11s4.936-11 11-11 11 4.934 11 11-4.936 11-11 11Zm0-20c-4.962 0-9 4.038-9 9s4.038 9 9 9 9-4.038 9-9-4.038-9-9-9Z" fill="#333"/><path d="M25 19H9a1 1 0 0 1 0-2h16a1 1 0 0 1 0 2ZM25 31H9a1 1 0 0 1 0-2h16a1 1 0 0 1 0 2ZM26 23H8a1 1 0 0 1 0-2h18a1 1 0 0 1 0 2ZM26 27H8a1 1 0 0 1 0-2h18a1 1 0 0 1 0 2Z" fill="#333"/><path d="M41 39H7c-3.86 0-7-3.14-7-7V16c0-3.86 3.14-7 7-7h34c3.86 0 7 3.14 7 7v16c0 3.86-3.14 7-7 7ZM7 11c-2.758 0-5 2.244-5 5v16c0 2.756 2.242 5 5 5h34c2.758 0 5-2.244 5-5V16c0-2.756-2.242-5-5-5H7Z" fill="#333" fill-opacity=".2"/></svg><svg fill="none" viewBox="0 0 48 48" id="footer-visa" xmlns="http://www.w3.org/2000/svg"><path d="M15 30.001h-2a1 1 0 0 1-1-1v-9H9a1 1 0 0 1 0-2h4a1 1 0 0 1 1 1v9h.322l3.75-9.372a.998.998 0 0 1 1.3-.556.998.998 0 0 1 .556 1.3l-4 10a1 1 0 0 1-.928.628ZM21.002 30a1 1 0 0 1-.984-1.196l2-10c.11-.544.66-.892 1.175-.784a1 1 0 0 1 .787 1.176l-2 10A1 1 0 0 1 21 30ZM27.306 29.997c-.796 0-1.676-.162-2.628-.486a1.004 1.004 0 0 1-.626-1.27c.18-.524.746-.798 1.27-.626 1.37.464 2.492.5 3.242.1.658-.35.882-.95.95-1.192.128-.47-.482-1.162-1.634-1.846-.716-.428-2.208-1.316-2.558-2.756-.184-.754-.04-1.524.432-2.286 1.484-2.408 5.332-1.464 5.494-1.42a.996.996 0 0 1 .722 1.212.992.992 0 0 1-1.212.726c-.67-.166-2.712-.426-3.3.534-.27.436-.21.68-.192.76.152.626 1.196 1.248 1.638 1.512 2.6 1.546 2.816 3.078 2.542 4.09a3.942 3.942 0 0 1-1.94 2.432c-.646.346-1.38.516-2.2.516ZM33 30a.998.998 0 0 1-.928-1.372l4-10A1 1 0 0 1 37 18h2a1 1 0 0 1 1 1v10a1 1 0 0 1-2 0v-9h-.322l-3.75 9.372a1 1 0 0 1-.927.628Z" fill="#333"/><path d="M39 26h-4a1 1 0 0 1 0-2h4a1 1 0 0 1 0 2Z" fill="#333"/><path d="M41 40H7c-3.86 0-7-3.14-7-7V15c0-3.86 3.14-7 7-7h34c3.86 0 7 3.14 7 7v18c0 3.86-3.14 7-7 7ZM7 10c-2.758 0-5 2.244-5 5v18c0 2.756 2.242 5 5 5h34c2.758 0 5-2.244 5-5V15c0-2.756-2.242-5-5-5H7Z" fill="#333" fill-opacity=".2"/></svg><svg fill="none" viewBox="0 0 21 12" id="form-line-submit" xmlns="http://www.w3.org/2000/svg"><path d="M1 5.25a.75.75 0 0 0 0 1.5v-1.5Zm19.53 1.28a.75.75 0 0 0 0-1.06L15.757.697a.75.75 0 0 0-1.06 1.06L18.939 6l-4.242 4.243a.75.75 0 0 0 1.06 1.06L20.53 6.53ZM1 6.75h19v-1.5H1v1.5Z" fill="currentColor"/></svg><svg fill="none" viewBox="0 0 108 108" id="guarantee" xmlns="http://www.w3.org/2000/svg"><path d="M21.6 48.3c0-11.511 0-17.267 1.36-19.203 1.358-1.937 6.77-3.79 17.594-7.494l2.062-.706C48.258 18.966 51.079 18 54 18c2.921 0 5.742.966 11.384 2.897l2.062.706c10.824 3.705 16.236 5.557 17.595 7.494 1.36 1.936 1.36 7.692 1.36 19.203v5.669c0 20.297-15.261 30.147-24.836 34.33C58.968 89.432 57.67 90 54 90c-3.67 0-4.968-.567-7.565-1.702C36.86 84.116 21.6 74.266 21.6 53.968V48.3Z" stroke="currentColor" stroke-width="1.5"/><path d="M49.9 40.908C51.726 37.636 52.638 36 54 36c1.364 0 2.276 1.636 4.1 4.908l.471.847c.519.93.778 1.394 1.182 1.701.404.307.907.42 1.914.648l.916.208c3.542.801 5.313 1.202 5.734 2.557.422 1.355-.786 2.767-3.2 5.59l-.625.73c-.686.803-1.03 1.204-1.184 1.7-.154.497-.102 1.032.002 2.103l.094.974c.365 3.768.548 5.651-.555 6.489-1.103.837-2.762.074-6.078-1.453l-.858-.395c-.942-.434-1.413-.651-1.913-.651s-.97.217-1.913.65l-.858.396c-3.316 1.527-4.974 2.29-6.078 1.453-1.103-.838-.92-2.721-.555-6.489l.095-.974c.103-1.07.155-1.606 0-2.102-.154-.497-.497-.898-1.183-1.7l-.625-.73c-2.414-2.825-3.622-4.236-3.2-5.591.421-1.355 2.192-1.756 5.734-2.557l.916-.208c1.007-.227 1.51-.341 1.914-.648.404-.307.663-.772 1.182-1.701l.472-.847Z" stroke="currentColor" stroke-width="1.5"/></svg><svg fill="none" viewBox="0 0 20 20" id="intro-star" xmlns="http://www.w3.org/2000/svg"><path d="M10 0a10.379 10.379 0 0 0 10 10 10.379 10.379 0 0 0-10 10A10.379 10.379 0 0 0 0 10 10.379 10.379 0 0 0 10 0Z" fill="currentColor"/></svg><svg fill="none" viewBox="0 0 143 23" id="logo" xmlns="http://www.w3.org/2000/svg"><path d="M110.63 22.136c6.709 0 11.108-5.15 11.108-11.386 0-6.487-4.677-10.44-10.941-10.44-7.684 0-10.969 6.376-10.969 10.886 0 5.011 3.174 10.94 10.802 10.94Zm.747-1.022c-5.012 0-9.113-4.212-9.113-10.699 0-6.097 3.66-9.292 8.309-9.292 4.399 0 8.587 3.705 8.587 10.387 0 8.1-5.278 9.603-7.783 9.603v.001ZM90.343 8.775c0-4.343 0-5.123.055-6.014.055-.974.274-1.447 1.069-1.586.329-.056.712-.084.905-.084.11 0 .22-.056.22-.167 0-.167-.138-.223-.439-.223-.822 0-2.824.083-2.96.083-.138 0-1.865-.083-3.098-.083-.302 0-.439.056-.439.223 0 .111.11.167.22.167.246 0 .712.028.932.084.905.195 1.123.64 1.178 1.586.056.891.056 1.67.056 6.014v4.9c0 2.672 0 4.87-.137 6.04-.11.808-.247 1.42-.795 1.532a4.163 4.163 0 0 1-.823.111c-.164 0-.219.084-.219.168 0 .167.137.222.439.222 1.014 0 1.837-.083 2.687-.083 2.659 0 4.99.167 7.346.167 1.453 0 1.536-.111 1.728-.751.219-.808.411-2.478.411-2.784 0-.306-.027-.418-.164-.418-.165 0-.22.14-.247.362-.082.529-.356 1.225-.713 1.67-.658.808-1.864.836-3.317.836-2.138 0-2.851-.195-3.29-.64-.493-.502-.602-2.283-.602-6.375V8.777l-.003-.002ZM65.708 13.534c.14 0 .195.056.25.167l2.59 6.849c.167.445 0 .696-.168.751-.11.029-.194.084-.194.196 0 .167.306.167.835.194 1.92.056 3.953.056 4.37.056.307 0 .558-.056.558-.223 0-.14-.14-.167-.306-.167-.223 0-.669-.028-1.086-.167-.585-.167-1.392-.613-2.394-3.09-1.699-4.232-6.069-15.73-6.487-16.787C63.342.449 63.231.31 63.064.31c-.167 0-.279.167-.613 1.085l-6.32 17.289c-.5 1.392-1.057 2.45-2.338 2.616a5.806 5.806 0 0 1-.669.056c-.25 0-.39.056-.39.167 0 .167.167.223.53.223 1.307 0 2.839-.083 3.145-.083.306 0 1.42.083 2.087.083.25 0 .502-.056.502-.223 0-.111-.084-.167-.362-.167h-.25c-.473 0-1.002-.25-1.002-.807 0-.502.139-1.17.39-1.865l1.67-4.927c.056-.14.139-.223.279-.223h5.985v-.001Zm-5.68-1.002c-.083 0-.13-.052-.083-.195l2.42-7.42c.135-.419.339-.408.485.008l2.608 7.412c.038.108.027.195-.112.195H60.03Z" fill="currentColor"/><path d="M69.823 21.71c-.372.003-1.398.065-2.027.058-.25-.004-.501-.062-.5-.229.002-.111.087-.166.365-.163l.25.004c.473.006 1.005-.239 1.012-.795.006-.501-.126-1.171-.367-1.87l-.12-.37 1.427.018-.04 3.348v-.002ZM18.694 8.604c0-4.282 0-5.05.055-5.928.055-.96.275-1.455 1.018-1.564.33-.055.495-.083.687-.083.11 0 .22-.055.22-.165 0-.164-.137-.22-.44-.22-.826 0-2.476.082-2.724.082-.247 0-1.926-.081-3.163-.081-.303 0-.44.055-.44.22 0 .11.11.164.22.164.247 0 .715.028.935.083.907.192 1.127.63 1.183 1.564.055.878.055 1.647.055 5.928v4.007c0 4.007 1.045 5.928 2.393 7.218 1.954 1.84 4.732 1.95 5.667 1.95 1.624 0 3.687-.275 5.668-2.032 2.2-1.948 2.53-5.241 2.53-8.206V8.605c0-4.282 0-5.05.055-5.928.055-.961.276-1.4 1.018-1.565.33-.055.495-.082.687-.082.11 0 .22-.055.22-.165 0-.165-.137-.22-.44-.22-.825 0-2.118.082-2.311.082-.165 0-1.678-.082-2.916-.082-.302 0-.44.055-.44.22 0 .11.11.165.22.165.247 0 .715.027.935.082.908.192 1.128.631 1.183 1.565.055.878.055 1.646.055 5.928v3.43c0 2.827-.33 5.16-1.596 6.724-.99 1.18-2.64 1.977-4.32 1.977-1.567 0-2.805-.247-4.153-1.51-1.184-1.125-2.064-2.827-2.064-6.78V8.605h.003ZM5.144 10.057c.83 0 3.583-.006 4.257-.083 2.25-.287 1.356-2.255 1.908-2.255.146 0 .175.167.205.473.013.176.02.396.03.654v2.822c.01.11.015.188.01.238-.014.138-.051.219-.168.208-.117-.01-.164-.127-.293-.307-.345-.487-.706-.565-2.097-.72a190.64 190.64 0 0 0-3.835-.027v.002c-.1.017-.142.082-.142.246v2.367c0 2.366 0 4.342.088 5.623.088 1.253.41 1.865 1.203 1.949.381.055.88.083 1.203.11.264.03.352.085.352.196 0 .14-.147.195-.47.195-1.643 0-3.462-.083-3.61-.083h-.263c-.588.027-1.908.083-2.612.083-.323 0-.47-.056-.47-.223 0-.083.06-.14.323-.167.293-.028.558-.056.763-.111.616-.168.822-.585.91-1.81.088-1.197.117-3.146.117-5.763v-4.9c0-4.342 0-5.122-.059-6.012-.058-.947-.293-1.392-1.262-1.587-.176-.028-.47-.028-.733-.056C.235 1.091 0 1.064 0 .924 0 .757.147.701.47.701c1.143 0 2.259.084 3.315.084.587 0 6.544 0 7.218-.028.675-.028 1.203-.028 1.438-.167.088-.056.205-.111.264-.111.117 0 .176.11.176.25 0 .139-.117.529-.176.863-.117.807-.117 1.252-.176 2.032 0 .334-.147.557-.264.557-.147 0-.177-.111-.206-.362-.03-.39-.147-1.057-.558-1.392-.352-.278-.88-.5-1.731-.528l-4.49-.084c-.176 0-.264.084-.264.307v7.684c0 .136.02.218.125.242v.01h.003ZM130.918 20.41c.529 1.336.668 1.726 1.002 1.726.278 0 .39-.446 1.169-2.116.64-1.365 1.893-4.371 3.591-8.435 1.42-3.425 2.812-6.766 3.118-7.545.752-1.893 1.169-2.366 1.532-2.617.528-.335 1.141-.335 1.336-.335.223 0 .334-.055.334-.194 0-.14-.167-.195-.473-.195-.808 0-2.005.083-2.172.083-.334 0-1.615-.083-2.728-.083-.446 0-.613.056-.613.223 0 .14.139.167.307.167.306 0 .723 0 1.058.112.278.138.361.417.361.64 0 .25-.111.64-.25 1.057-.613 2.005-4.343 11.72-5.957 15.451l-5.679-14.782c-.307-.78-.557-1.532-.557-1.782 0-.195.055-.417.362-.557.25-.111.751-.139 1.057-.139.195 0 .279-.056.279-.194 0-.14-.251-.195-.752-.195-1.058 0-2.255.083-2.533.083-.335 0-1.838-.083-3.174-.083-.446 0-.724.027-.724.195 0 .11.056.194.223.194s.641 0 1.058.112c.974.278 1.392.584 2.005 2.143l6.82 17.066ZM79.561 21.663h.001c.236.005 1.898.083 3.334.083.298 0 .406-.083.406-.222 0-.084-.081-.168-.324-.168-.163 0-.73-.055-1.11-.11-.811-.112-.973-.725-1.054-1.532-.135-1.17-.135-3.37-.135-6.042v-4.9c0-4.342 0-5.122.054-6.012.054-.975.27-1.448 1-1.587.325-.056.488-.084.677-.084.108 0 .216-.056.216-.167 0-.167-.135-.223-.433-.223-.783 0-2.397.078-2.63.083h-.002C79.328.777 77.713.7 76.931.7c-.298 0-.434.056-.434.223 0 .111.108.167.216.167.19 0 .352.028.677.084.73.139.947.612 1 1.587.054.89.054 1.67.054 6.013v4.9c0 2.672 0 4.87-.135 6.04-.081.808-.243 1.42-1.055 1.532-.379.056-.947.111-1.109.111-.243 0-.325.084-.325.168 0 .139.108.222.406.222 1.436 0 3.098-.078 3.334-.083h.001ZM38.342 20.549c4.577-6.403 8.816-12.81 13.187-19.21.116-.17.12-.222.12-.334 0-.167-.15-.223-.602-.223h-8.401c-.934 0-2.38.029-5.24-.083-.814-.028-.994-.195-1.265-.195-.18 0-.241.14-.301.529-.151.835-.603 3.368-.603 3.702 0 .223.03.362.181.362.15 0 .271-.083.331-.501.09-.64.632-1.67 1.716-2.2.964-.473 2.801-.557 4.336-.557h6.535c-4.185 6.292-8.732 12.556-13.22 18.82-.361.5-.42.64-.42.78 0 .194.18.222.541.222 5.27 0 10.33.14 15.359.14.692 0 .723-.057.903-.724.18-.696.602-2.34.602-3.202 0-.529-.06-.64-.24-.64-.151 0-.212.167-.271.445-.06.39-.33 1.142-.602 1.503-.632.837-1.597 1.365-4.759 1.365h-7.887Z" fill="currentColor"/></svg><svg fill="none" viewBox="0 0 22 25" id="map-marker" xmlns="http://www.w3.org/2000/svg"><path d="M19.643 11.056c0 4.157-6.22 9.903-8.107 11.55a.809.809 0 0 1-1.072 0c-1.887-1.648-8.107-7.393-8.107-11.55 0-4.9 3.87-8.872 8.643-8.872 4.773 0 8.643 3.972 8.643 8.872Z" stroke="currentColor"/><path d="M13.88 9.64c0 1.648-1.29 2.983-2.88 2.983-1.591 0-2.881-1.335-2.881-2.982 0-1.648 1.29-2.983 2.88-2.983 1.592 0 2.882 1.335 2.882 2.983Z" stroke="currentColor"/></svg><svg fill="none" viewBox="0 0 24 24" id="minus" xmlns="http://www.w3.org/2000/svg"><path d="M4.8 12h14.4" stroke="currentColor" stroke-width="2" stroke-linecap="round"/></svg><svg fill="none" viewBox="0 0 66 66" id="modal-close" xmlns="http://www.w3.org/2000/svg"><rect width="66" height="66" rx="33" fill="currentColor" fill-opacity=".3"/><path d="M46 21 21 46m0-25 25 25" stroke="currentColor" stroke-width="2" stroke-linecap="round"/></svg><svg fill="none" viewBox="0 0 451 780" id="modal-rectangle-left" xmlns="http://www.w3.org/2000/svg"><path fill="#165B48" d="m-276.723-175.75 727.03 418.098L16.592 996.53l-727.03-418.097z"/></svg><svg fill="none" viewBox="0 0 413 780" id="modal-rectangle-right" xmlns="http://www.w3.org/2000/svg"><path fill="#165B48" d="m435-176 726.315 419.338-435 753.442L0 577.442z"/></svg><svg fill="none" viewBox="0 0 24 24" id="nav-arrow" xmlns="http://www.w3.org/2000/svg"><path d="m16 10-4 4-4-4" stroke="currentColor" stroke-width="2" stroke-linecap="round" stroke-linejoin="round"/></svg><svg fill="none" viewBox="0 0 35 35" id="nav-close" xmlns="http://www.w3.org/2000/svg"><rect width="35" height="35" rx="17.5" fill="#333"/><path d="M24 11 11 24m0-13 13 13" stroke="#FDFBFA" stroke-linecap="round"/></svg><svg fill="none" viewBox="0 0 28 28" id="phone" xmlns="http://www.w3.org/2000/svg"><path d="m18.479 17.968-.537-.524.537.524Zm.658-.673.536.524-.536-.524Zm3.49-.471-.366.654.366-.654Zm2.76 1.544-.366.655.366-.655Zm.778 4.84.536.524-.536-.524Zm-2.052 2.1-.537-.524.537.524Zm-1.914.996.072.747-.072-.747ZM7.956 20.002l.536-.524-.536.524ZM1.004 6.648l-.749.04.75-.04Zm9.352 2.158.537.524-.537-.524Zm.227-3.946.606-.441-.606.441ZM8.76 2.356l-.606.44.606-.44Zm-4.494-.423.536.524-.536-.524Zm-2.268 2.32-.536-.524.536.524ZM12.647 15.2l.536-.524-.536.524Zm6.368 3.292.658-.673L18.6 16.77l-.658.673 1.073 1.048Zm3.246-1.014 2.76 1.545.732-1.31-2.76-1.544-.732 1.31Zm3.367 5.206-2.052 2.1 1.073 1.048 2.052-2.1-1.073-1.048Zm-3.5 2.873c-2.167.208-7.686.01-13.636-6.08l-1.073 1.049c6.318 6.467 12.311 6.768 14.852 6.525l-.144-1.493Zm-13.636-6.08C2.838 13.691 1.874 8.79 1.753 6.607l-1.498.082c.14 2.534 1.249 7.782 7.164 13.837l1.073-1.049Zm1.987-9.723.414-.424L9.82 8.282l-.414.424 1.073 1.048Zm.71-5.335L9.368 1.914l-1.213.883L9.976 5.3l1.213-.882ZM3.73 1.409l-2.267 2.32 1.073 1.049 2.267-2.321L3.73 1.409ZM9.942 9.23c-.536-.524-.537-.523-.538-.522l-.001.001a.503.503 0 0 0-.024.026 1.14 1.14 0 0 0-.122.16 1.919 1.919 0 0 0-.197.396c-.124.34-.197.804-.108 1.397.176 1.17.975 2.8 3.158 5.036l1.073-1.048c-2.085-2.134-2.639-3.488-2.748-4.211-.053-.353-.002-.562.034-.659a.428.428 0 0 1 .04-.086l-.002.003-.01.012a.369.369 0 0 1-.013.014l-.003.003-.001.001s-.001.001-.538-.523Zm2.168 6.494c2.182 2.233 3.78 3.056 4.936 3.24.59.092 1.051.016 1.39-.114a1.874 1.874 0 0 0 .51-.294 1.213 1.213 0 0 0 .057-.051l.006-.007.003-.003.002-.001c0-.001.001-.002-.535-.526a26.985 26.985 0 0 1-.534-.527l.003-.002.005-.005a.304.304 0 0 1 .02-.02.38.38 0 0 1-.074.035c-.087.034-.283.085-.619.032-.692-.109-2.01-.67-4.097-2.805l-1.073 1.048ZM9.368 1.914C8.012.05 5.34-.24 3.73 1.41l1.073 1.048c.916-.937 2.503-.827 3.352.34l1.213-.883ZM1.753 6.606c-.036-.656.26-1.293.783-1.828L1.463 3.729C.733 4.476.19 5.502.255 6.69l1.498-.083Zm21.823 18.178c-.437.448-.93.724-1.449.774l.144 1.493c.97-.093 1.772-.598 2.378-1.219l-1.073-1.048ZM10.893 9.33c1.29-1.32 1.39-3.407.296-4.911l-1.213.882c.687.945.595 2.212-.156 2.981l1.073 1.048Zm14.128 9.693c1.364.763 1.63 2.615.607 3.66l1.073 1.05c1.748-1.79 1.232-4.8-.948-6.02l-.732 1.31Zm-5.348-1.204c.665-.68 1.71-.832 2.588-.34l.733-1.31c-1.45-.81-3.24-.58-4.394.602l1.073 1.048Z" fill="currentColor"/></svg><svg fill="none" viewBox="0 0 100 100" id="play" xmlns="http://www.w3.org/2000/svg"><circle cx="50" cy="50" r="49.5" fill="currentColor" fill-opacity=".2" stroke="currentColor"/><path d="m60 50-15 8.66V41.34L60 50Z" fill="currentColor"/></svg><svg fill="none" viewBox="0 0 24 24" id="plus" xmlns="http://www.w3.org/2000/svg"><path d="M12 4.8V12m0 0v7.2m0-7.2H4.8m7.2 0h7.2" stroke="currentColor" stroke-width="2" stroke-linecap="round"/></svg><svg fill="none" viewBox="0 0 121 8" id="product-page-arrow" xmlns="http://www.w3.org/2000/svg"><path d="M120.354 4.354a.5.5 0 0 0 0-.708L117.172.464a.501.501 0 0 0-.708.708L119.293 4l-2.829 2.828a.5.5 0 0 0 .708.708l3.182-3.182ZM0 4.5h120v-1H0v1Z" fill="currentColor"/></svg><svg fill="none" viewBox="0 0 36 36" id="product-page-engraving" xmlns="http://www.w3.org/2000/svg"><path d="M7.2 4.5a.9.9 0 0 0-1.8 0V9a3.6 3.6 0 0 0 1.8 3.117V13.5a2.7 2.7 0 0 0 2.7 2.7h7.2v6.3a.9.9 0 1 0 1.8 0v-6.3h7.2a2.7 2.7 0 0 0 2.7-2.7v-1.383A3.6 3.6 0 0 0 30.6 9V4.5a.9.9 0 1 0-1.8 0V9a1.8 1.8 0 0 1-1.8 1.8H9A1.8 1.8 0 0 1 7.2 9V4.5ZM9 12.6h18v.9a.9.9 0 0 1-.9.9H9.9a.9.9 0 0 1-.9-.9v-.9Zm.9 12.6a.9.9 0 1 0 0 1.8h2.7a.9.9 0 1 0 0-1.8H9.9Zm12.6.9a.9.9 0 0 1 .9-.9h2.7a.9.9 0 1 1 0 1.8h-2.7a.9.9 0 0 1-.9-.9ZM18 27a.9.9 0 1 0 0-1.8.9.9 0 0 0 0 1.8Zm0 1.8a.9.9 0 0 1 .9.9v3.6a.9.9 0 1 1-1.8 0v-3.6a.9.9 0 0 1 .9-.9Zm-2.063-.263a.901.901 0 0 0-1.274-1.275l-2.7 2.7a.901.901 0 0 0 1.274 1.275l2.7-2.7Zm4.126-1.275a.9.9 0 0 0 0 1.275l2.7 2.7a.901.901 0 0 0 1.274-1.275l-2.7-2.7a.9.9 0 0 0-1.274 0Z" fill="currentColor" fill-opacity=".8"/></svg><svg fill="none" viewBox="0 0 36 36" id="product-page-size" xmlns="http://www.w3.org/2000/svg"><path d="M34.44 11.105 24.894 1.56a.75.75 0 0 0-1.06 0L1.56 23.833a.75.75 0 0 0 0 1.06l9.546 9.546a.75.75 0 0 0 1.06 0l4.77-4.77.003-.003 4.24-4.24h.002v-.003l4.244-4.24 4.242-4.244 4.773-4.773a.75.75 0 0 0 0-1.06Zm-5.303 4.242-2.652-2.65a.75.75 0 1 0-1.06 1.06l2.652 2.65-3.183 3.184-4.773-4.773a.75.75 0 1 0-1.06 1.06l4.772 4.773-3.181 3.182L18 21.18a.75.75 0 0 0-1.06 1.06l2.65 2.652-3.18 3.183-4.775-4.774a.75.75 0 1 0-1.06 1.06l4.773 4.775-3.713 3.71-8.484-8.485L24.363 3.151l8.487 8.485-3.711 3.711h-.002Z" fill="currentColor" fill-opacity=".8"/></svg><svg fill="none" viewBox="0 0 24 24" id="remove" xmlns="http://www.w3.org/2000/svg"><path d="M9.5 9v9m5-9v9m-6-13.5h-6v.25l.24 1.05A70 70 0 0 1 4.5 21.398V22.5h15v-1.102c0-5.249.59-10.48 1.76-15.598l.24-1.05V4.5h-6m-7 0V4a3.5 3.5 0 1 1 7 0v.5m-7 0h7" stroke="currentColor"/></svg><svg fill="none" viewBox="0 0 180 180" id="return" xmlns="http://www.w3.org/2000/svg"><path d="M44.442 42.916a.75.75 0 1 0-1.068-1.053l1.068 1.053ZM68.4 34.663l-.534-.526a.75.75 0 0 0 0 1.053l.534-.527Zm9.968 11.189a.75.75 0 0 0 1.069-1.053l-1.069 1.053Zm1.069-21.325a.75.75 0 0 0-1.069-1.052l1.069 1.052ZM90 143.25c-12.75 0-22.235-.002-29.525-.997-7.267-.991-12.24-2.958-16.033-6.807l-1.068 1.052c4.116 4.179 9.46 6.226 16.898 7.242 7.415 1.012 17.022 1.01 29.728 1.01v-1.5ZM35.25 89.18c0 12.901-.002 22.65.995 30.175 1 7.545 3.014 12.966 7.129 17.143l1.068-1.052c-3.793-3.851-5.732-8.905-6.71-16.288-.98-7.403-.982-17.035-.982-29.977h-1.5Zm108 0c0 12.943-.002 22.575-.982 29.978-.978 7.383-2.917 12.437-6.71 16.288l1.068 1.052c4.115-4.177 6.13-9.598 7.129-17.143.997-7.525.995-17.274.995-30.174h-1.5ZM90 144.75c12.706 0 22.313.002 29.728-1.01 7.437-1.016 12.782-3.063 16.898-7.242l-1.068-1.052c-3.792 3.849-8.766 5.816-16.033 6.807-7.29.995-16.776.997-29.525.997v1.5Zm0-109.639c12.749 0 22.235.002 29.525.997 7.267.992 12.241 2.958 16.033 6.808l1.068-1.053c-4.116-4.178-9.461-6.226-16.898-7.241-7.415-1.012-17.022-1.01-29.728-1.01v1.5Zm54.75 54.07c0-12.9.002-22.65-.995-30.175-.999-7.545-3.014-12.966-7.129-17.143l-1.068 1.053c3.793 3.85 5.732 8.904 6.71 16.287.98 7.404.982 17.036.982 29.978h1.5Zm-108 0c0-12.942.002-22.574.982-29.978.978-7.383 2.917-12.436 6.71-16.287l-1.068-1.053c-4.115 4.177-6.13 9.598-7.129 17.143-.996 7.525-.995 17.275-.995 30.175h1.5ZM90 33.61c-8.523 0-15.646 0-21.638.303l.076 1.498c5.946-.3 13.026-.3 21.562-.3v-1.5ZM67.866 35.19l10.502 10.662 1.069-1.053-10.503-10.662-1.068 1.053Zm1.068 0 10.503-10.663-1.069-1.052-10.502 10.662 1.068 1.053Z" fill="currentColor"/><path d="m69 93 12 12 30-30" stroke="currentColor" stroke-width="1.5" stroke-linecap="round" stroke-linejoin="round"/></svg><svg fill="none" viewBox="0 0 24 24" id="search" xmlns="http://www.w3.org/2000/svg"><path d="M8.5 17C3.813 17 0 13.187 0 8.5 0 3.813 3.813 0 8.5 0 13.187 0 17 3.813 17 8.5c0 4.687-3.813 8.5-8.5 8.5Zm0-16C4.364 1 1 4.364 1 8.5S4.364 16 8.5 16 16 12.636 16 8.5 12.636 1 8.5 1Z" fill="currentColor"/><path d="M23.5 24a.502.502 0 0 1-.354-.145l-9.343-9.344a.5.5 0 0 1 .707-.706l9.343 9.343A.5.5 0 0 1 23.5 24Z" fill="currentColor"/></svg><svg fill="none" viewBox="0 0 30 30" id="sorting-asc" xmlns="http://www.w3.org/2000/svg"><path d="M23 19h-9M21 14h-7M19 9h-5" stroke="currentColor" stroke-width="2" stroke-linecap="round"/><path d="M10 7v16l-3-4" stroke="currentColor" stroke-width="2" stroke-linecap="round" stroke-linejoin="round"/></svg><svg fill="none" viewBox="0 0 30 30" id="sorting-desc" xmlns="http://www.w3.org/2000/svg"><path d="M21 14h-7M23 9h-9M19 19h-5" stroke="currentColor" stroke-width="2" stroke-linecap="round"/><path d="M10 7v16l-3-4" stroke="currentColor" stroke-width="2" stroke-linecap="round" stroke-linejoin="round"/></svg><svg fill="none" viewBox="0 0 108 108" id="suppliers" xmlns="http://www.w3.org/2000/svg"><circle cx="50.4" cy="35.4" r="14.4" stroke="currentColor" stroke-width="1.5"/><path d="M79.2 71.4c0 8.947 0 16.2-28.8 16.2s-28.8-7.253-28.8-16.2 12.894-16.2 28.8-16.2 28.8 7.253 28.8 16.2Z" stroke="currentColor" stroke-width="1.5"/><path d="M72 49.68 76.8 54l9.6-10.8" stroke="currentColor" stroke-width="1.5" stroke-linecap="round" stroke-linejoin="round"/></svg><svg fill="none" viewBox="0 0 180 100" id="swipe" xmlns="http://www.w3.org/2000/svg"><circle cx="90" cy="50" r="49.5" fill="#FDFBFA" fill-opacity=".3" stroke="#ADADAD"/><path d="M63.784 56.096c-1.11 0-2.112-.245-3.008-.736a5.48 5.48 0 0 1-2.096-2.032c-.501-.875-.752-1.85-.752-2.928 0-1.077.25-2.048.752-2.912a5.415 5.415 0 0 1 2.112-2.048c.896-.49 1.899-.736 3.008-.736.832 0 1.6.139 2.304.416a4.776 4.776 0 0 1 1.792 1.216l-.752.752c-.875-.885-1.979-1.328-3.312-1.328-.885 0-1.69.203-2.416.608a4.501 4.501 0 0 0-1.712 1.664c-.405.704-.608 1.493-.608 2.368 0 .875.203 1.664.608 2.368a4.501 4.501 0 0 0 1.712 1.664c.725.405 1.53.608 2.416.608 1.344 0 2.448-.448 3.312-1.344l.752.752a4.912 4.912 0 0 1-1.808 1.232 6.232 6.232 0 0 1-2.304.416Zm13.997-5.872c.779.16 1.37.475 1.776.944.406.459.608 1.061.608 1.808 0 .97-.347 1.717-1.04 2.24-.683.523-1.69.784-3.024.784h-4.96V44.8h4.656c1.195 0 2.128.245 2.8.736.672.49 1.008 1.2 1.008 2.128 0 .63-.16 1.163-.48 1.6-.32.427-.768.747-1.344.96Zm-5.472-.352h3.424c.864 0 1.525-.176 1.984-.528.47-.352.704-.864.704-1.536s-.235-1.184-.704-1.536c-.459-.352-1.12-.528-1.984-.528H72.31v4.128Zm3.792 5.184c1.93 0 2.896-.72 2.896-2.16 0-1.408-.965-2.112-2.896-2.112H72.31v4.272h3.792Zm14.993-2.048h-6.24L83.51 56h-1.233l5.12-11.2h1.168l5.12 11.2h-1.248l-1.343-2.992Zm-.432-.96-2.689-6.016-2.688 6.016h5.377Zm5.97-7.248H97.8v9.28l7.168-9.28h1.072V56h-1.168v-9.264L97.704 56h-1.072V44.8Zm4.672-.816c-.8 0-1.435-.181-1.904-.544-.459-.363-.694-.87-.704-1.52h.88c.01.427.17.763.48 1.008.309.245.725.368 1.248.368.512 0 .922-.123 1.232-.368.32-.245.485-.581.496-1.008h.88c-.011.65-.251 1.157-.72 1.52-.47.363-1.099.544-1.888.544Zm18.739.816V56h-1.168V45.824h-7.088V56h-1.168V44.8h9.424Z" fill="#FDFBFA"/><path d="m24 42-8 8 8 8M156 42l8 8-8 8" stroke="#ADADAD" stroke-width="2" stroke-linecap="round" stroke-linejoin="round"/></svg><svg fill="none" viewBox="0 0 40 40" id="swiper-nav-small" xmlns="http://www.w3.org/2000/svg"><rect x="40" y="40" width="40" height="40" rx="20" transform="rotate(180 40 40)" fill="#FDFBFA"/><path d="m17 28 8-8-8-8" stroke="#042820" stroke-width="2" stroke-linecap="round" stroke-linejoin="round"/></svg><svg fill="none" viewBox="0 0 70 70" id="swiper-navigation" xmlns="http://www.w3.org/2000/svg"><circle cx="35" cy="35" r="34.5" stroke="currentColor"/><path d="M35.401 28 43 34.5 35.401 41l-1.618-1.606 4.44-3.798H27v-2.192h11.224l-4.441-3.798L35.401 28Z" fill="currentColor"/></svg><svg fill="none" viewBox="0 0 30 30" id="telegram" xmlns="http://www.w3.org/2000/svg"><path d="M15 2.5C8.1 2.5 2.5 8.1 2.5 15S8.1 27.5 15 27.5 27.5 21.9 27.5 15 21.9 2.5 15 2.5Zm5.8 8.5c-.188 1.975-1 6.775-1.413 8.988-.175.937-.524 1.25-.85 1.287-.724.063-1.274-.475-1.974-.938-1.1-.724-1.725-1.174-2.788-1.875-1.238-.812-.438-1.262.275-1.987.188-.188 3.387-3.1 3.45-3.363a.25.25 0 0 0-.063-.225c-.075-.062-.175-.037-.262-.024-.113.024-1.863 1.187-5.275 3.487-.5.337-.95.512-1.35.5-.45-.013-1.3-.25-1.938-.463-.787-.25-1.4-.387-1.35-.825.026-.224.338-.45.926-.687 3.65-1.588 6.074-2.637 7.287-3.137 3.475-1.45 4.188-1.7 4.662-1.7.1 0 .338.024.488.15.125.1.163.237.175.337-.012.075.012.3 0 .475Z" fill="currentColor"/></svg><svg fill="none" viewBox="0 0 19 23" id="v" xmlns="http://www.w3.org/2000/svg"><path d="M4.12 2c0 .128.032.288.096.48l5.632 15.168L15.48 2.32a.985.985 0 0 0 .064-.192.871.871 0 0 0 .032-.192c0-.256-.106-.437-.32-.544-.192-.128-.373-.192-.544-.192V.88H18.2v.32c-.32 0-.618.085-.896.256-.256.17-.458.459-.608.864L9.368 22.384 1.88 2.416a2.248 2.248 0 0 0-.576-.832A1.33 1.33 0 0 0 .408 1.2V.88h4.544v.32c-.192 0-.384.075-.576.224-.17.128-.256.32-.256.576Z" fill="currentColor"/></svg><svg fill="none" viewBox="0 0 30 30" id="vk" xmlns="http://www.w3.org/2000/svg"><path d="M18.841 2.5h-7.67C4.166 2.5 2.5 4.166 2.5 11.159v7.67c0 7.003 1.654 8.671 8.659 8.671h7.67c7.003 0 8.671-1.654 8.671-8.659v-7.67c0-7.005-1.654-8.671-8.659-8.671Zm3.841 17.837H20.86c-.69 0-.898-.558-2.135-1.796-1.08-1.041-1.537-1.171-1.81-1.171-.378 0-.482.104-.482.625v1.64c0 .444-.143.704-1.302.704a7.114 7.114 0 0 1-5.56-3.334 14.533 14.533 0 0 1-2.878-6.041c0-.274.104-.521.625-.521H9.14c.469 0 .637.208.821.69.885 2.605 2.395 4.87 3.008 4.87.235 0 .337-.104.337-.69V12.63c-.077-1.224-.727-1.328-.727-1.77a.45.45 0 0 1 .467-.417h2.865c.391 0 .522.194.522.663v3.62c0 .391.168.521.286.521.235 0 .416-.13.846-.56a14.998 14.998 0 0 0 2.24-3.724.785.785 0 0 1 .794-.52h1.823c.547 0 .663.273.547.663a22.759 22.759 0 0 1-2.448 4.207c-.196.3-.275.456 0 .807.181.274.82.807 1.25 1.315a8.109 8.109 0 0 1 1.537 2.135c.156.508-.105.767-.625.767Z" fill="currentColor"/></svg><svg fill="none" viewBox="0 0 30 30" id="whatsapp" xmlns="http://www.w3.org/2000/svg"><path d="M15.002 2.5c6.903 0 12.5 5.596 12.5 12.5s-5.597 12.5-12.5 12.5a12.442 12.442 0 0 1-6.288-1.694L2.506 27.5l1.69-6.21A12.441 12.441 0 0 1 2.501 15c0-6.904 5.597-12.5 12.5-12.5Zm-4.26 6.625-.25.01c-.162.01-.32.052-.466.125-.135.077-.259.173-.367.285-.15.141-.235.264-.326.383a3.412 3.412 0 0 0-.708 2.097c.003.612.163 1.209.413 1.766.511 1.128 1.352 2.322 2.462 3.428.268.266.53.534.813.782a11.811 11.811 0 0 0 4.8 2.558l.71.108c.231.013.462-.005.695-.016.364-.018.72-.117 1.041-.288.164-.085.323-.177.479-.276 0 0 .053-.035.156-.112.169-.125.273-.214.413-.36.103-.107.193-.234.262-.377.098-.204.195-.593.235-.917.03-.247.021-.382.018-.466-.006-.134-.117-.273-.238-.331l-.727-.326s-1.088-.474-1.753-.777a.621.621 0 0 0-.22-.051.602.602 0 0 0-.473.159c-.006-.003-.09.069-.993 1.163a.437.437 0 0 1-.46.163 1.78 1.78 0 0 1-.239-.082l-.315-.136a7.535 7.535 0 0 1-1.969-1.253c-.157-.138-.303-.288-.454-.433a7.87 7.87 0 0 1-1.274-1.585l-.074-.118a1.158 1.158 0 0 1-.128-.257c-.047-.184.077-.331.077-.331s.303-.332.444-.512c.138-.175.254-.345.33-.467.147-.237.193-.481.115-.67a103.91 103.91 0 0 0-1.085-2.551c-.073-.168-.292-.288-.49-.311a5.548 5.548 0 0 0-.203-.02 4.23 4.23 0 0 0-.504.005l.251-.01.002.001Z" fill="currentColor"/></svg></svg>